<?xml version="1.0" encoding="utf-8"?>
<!-- Generator: Adobe Illustrator 22.1.0, SVG Export Plug-In . SVG Version: 6.00 Build 0)  -->
<svg version="1.1" id="Layer_1" xmlns="http://www.w3.org/2000/svg" xmlns:xlink="http://www.w3.org/1999/xlink" x="0px" y="0px"
	 viewBox="0 0 728 90" style="enable-background:new 0 0 728 90;" xml:space="preserve">
<style type="text/css">
	.st0{fill:#FFFFFF;}
</style>
<g>
	<path class="st0" d="M44.5,47.5h-5.2l-1.6-7.2c-0.1-0.3-0.2-0.9-0.4-1.8c-0.2-0.9-0.3-1.6-0.4-2.2c-0.1,0.5-0.2,1.1-0.3,1.8
		c-0.1,0.7-0.3,1.4-0.4,2c-0.1,0.6-0.7,3.1-1.6,7.4h-5.2l-4.1-16.4h4.3l1.8,8.2c0.4,1.8,0.7,3.3,0.8,4.3c0.1-0.8,0.3-1.8,0.5-3.1
		c0.3-1.3,0.5-2.4,0.7-3.3l1.4-6.2H39l1.4,6.2c0.2,1,0.5,2.1,0.7,3.4s0.4,2.3,0.5,2.9c0.1-0.8,0.4-2.3,0.8-4.3l1.8-8.3h4.3
		L44.5,47.5z"/>
	<path class="st0" d="M56.1,47.8c-2.1,0-3.8-0.6-4.9-1.7c-1.2-1.1-1.8-2.7-1.8-4.8c0-2.1,0.5-3.8,1.6-4.9c1.1-1.1,2.6-1.7,4.6-1.7
		c1.9,0,3.4,0.5,4.4,1.5c1,1,1.6,2.4,1.6,4.3v2h-7.9c0,0.7,0.3,1.3,0.8,1.7c0.5,0.4,1.2,0.6,2,0.6c0.8,0,1.5-0.1,2.1-0.2
		c0.6-0.1,1.3-0.4,2.1-0.7v3.2c-0.7,0.4-1.4,0.6-2.1,0.7S57.1,47.8,56.1,47.8z M55.8,37.6c-0.5,0-0.9,0.2-1.3,0.5
		c-0.3,0.3-0.6,0.8-0.6,1.5h3.8c0-0.6-0.2-1.1-0.5-1.5C56.8,37.8,56.4,37.6,55.8,37.6z"/>
	<path class="st0" d="M75,47.8c-2.1,0-3.7-0.6-4.7-1.7c-1.1-1.1-1.6-2.7-1.6-4.8c0-2.1,0.6-3.7,1.7-4.9s2.8-1.7,5-1.7
		c1.5,0,2.9,0.3,4.2,1l-1.3,3.2c-0.5-0.2-1-0.4-1.5-0.6c-0.4-0.1-0.9-0.2-1.4-0.2c-0.7,0-1.3,0.3-1.7,0.8s-0.6,1.3-0.6,2.3
		c0,2,0.8,3.1,2.3,3.1c1.3,0,2.5-0.4,3.7-1.1v3.5C78,47.4,76.6,47.8,75,47.8z"/>
	<path class="st0" d="M89.5,47.5l-0.8-1.7h-0.1c-0.6,0.7-1.2,1.2-1.8,1.5s-1.4,0.4-2.4,0.4c-1.2,0-2.1-0.4-2.8-1.1s-1-1.7-1-3
		c0-1.4,0.5-2.4,1.4-3c0.9-0.7,2.3-1,4.1-1.1l2.1-0.1v-0.2c0-1-0.5-1.6-1.5-1.6c-0.9,0-2.1,0.3-3.5,0.9l-1.3-2.9
		c1.5-0.8,3.4-1.1,5.6-1.1c1.6,0,2.9,0.4,3.8,1.2c0.9,0.8,1.3,1.9,1.3,3.4v8.3H89.5z M86.2,44.7c0.5,0,1-0.2,1.4-0.5
		c0.4-0.3,0.6-0.8,0.6-1.3v-1l-1,0C85.7,42,85,42.5,85,43.5C85,44.3,85.4,44.7,86.2,44.7z"/>
	<path class="st0" d="M103.1,47.5v-6.9c0-0.8-0.1-1.5-0.4-1.9c-0.2-0.4-0.6-0.6-1.2-0.6c-0.7,0-1.3,0.3-1.6,0.9s-0.5,1.6-0.5,3v5.6
		h-4.4V34.8h3.3l0.6,1.6h0.3c0.4-0.6,0.9-1,1.6-1.3c0.7-0.3,1.4-0.4,2.3-0.4c1.4,0,2.5,0.4,3.3,1.2c0.8,0.8,1.2,2,1.2,3.4v8.3H103.1
		z"/>
	<path class="st0" d="M123.6,47.5v-6.9c0-1.7-0.5-2.6-1.5-2.6c-0.7,0-1.2,0.3-1.6,0.9c-0.3,0.6-0.5,1.6-0.5,3v5.6h-4.4V30.1h4.4v2.5
		c0,1.1-0.1,2.4-0.2,3.8h0.2c0.4-0.7,0.9-1.1,1.5-1.4s1.2-0.4,2-0.4c1.4,0,2.5,0.4,3.3,1.2c0.8,0.8,1.2,2,1.2,3.4v8.3H123.6z"/>
	<path class="st0" d="M136.7,47.8c-2.1,0-3.8-0.6-4.9-1.7c-1.2-1.1-1.8-2.7-1.8-4.8c0-2.1,0.5-3.8,1.6-4.9c1.1-1.1,2.6-1.7,4.6-1.7
		c1.9,0,3.4,0.5,4.4,1.5c1,1,1.6,2.4,1.6,4.3v2h-7.9c0,0.7,0.3,1.3,0.8,1.7c0.5,0.4,1.2,0.6,2,0.6c0.8,0,1.5-0.1,2.1-0.2
		c0.6-0.1,1.3-0.4,2.1-0.7v3.2c-0.7,0.4-1.4,0.6-2.1,0.7S137.7,47.8,136.7,47.8z M136.4,37.6c-0.5,0-0.9,0.2-1.3,0.5
		c-0.3,0.3-0.6,0.8-0.6,1.5h3.8c0-0.6-0.2-1.1-0.5-1.5C137.4,37.8,137,37.6,136.4,37.6z"/>
	<path class="st0" d="M148.7,47.5h-4.4V30.1h4.4V47.5z"/>
	<path class="st0" d="M158.9,47.8c-0.6,0-1.2-0.1-1.7-0.3c-0.5-0.2-1-0.6-1.5-1.2h-0.2c0.1,0.9,0.2,1.4,0.2,1.7v5.1h-4.4V34.8h3.6
		l0.6,1.6h0.2c0.8-1.2,1.9-1.8,3.4-1.8c1.4,0,2.5,0.6,3.3,1.8s1.2,2.8,1.2,4.8c0,2.1-0.4,3.7-1.3,4.8
		C161.5,47.2,160.3,47.8,158.9,47.8z M157.4,38c-0.6,0-1.1,0.2-1.4,0.7c-0.3,0.5-0.4,1.1-0.4,2v0.3c0,1.1,0.1,1.9,0.4,2.4
		s0.8,0.7,1.4,0.7c0.6,0,1-0.2,1.2-0.7c0.3-0.5,0.4-1.3,0.4-2.4c0-1.1-0.1-1.9-0.4-2.4C158.5,38.3,158,38,157.4,38z"/>
	<path class="st0" d="M178.8,47.8c-0.6,0-1.2-0.1-1.7-0.3c-0.5-0.2-1-0.6-1.5-1.2h-0.2c0.1,0.9,0.2,1.4,0.2,1.7v5.1h-4.4V34.8h3.6
		l0.6,1.6h0.2c0.8-1.2,1.9-1.8,3.4-1.8c1.4,0,2.5,0.6,3.3,1.8s1.2,2.8,1.2,4.8c0,2.1-0.4,3.7-1.3,4.8
		C181.3,47.2,180.2,47.8,178.8,47.8z M177.3,38c-0.6,0-1.1,0.2-1.4,0.7c-0.3,0.5-0.4,1.1-0.4,2v0.3c0,1.1,0.1,1.9,0.4,2.4
		s0.8,0.7,1.4,0.7c0.6,0,1-0.2,1.2-0.7c0.3-0.5,0.4-1.3,0.4-2.4c0-1.1-0.1-1.9-0.4-2.4C178.3,38.3,177.9,38,177.3,38z"/>
	<path class="st0" d="M193.2,34.6c0.4,0,0.7,0,1.1,0.1l0.2,0l-0.4,4.1c-0.4-0.1-0.9-0.1-1.5-0.1c-1,0-1.7,0.2-2.1,0.7
		c-0.4,0.4-0.7,1.1-0.7,1.9v6.3h-4.4V34.8h3.3l0.7,2h0.2c0.4-0.7,0.9-1.2,1.5-1.6C191.8,34.8,192.5,34.6,193.2,34.6z"/>
	<path class="st0" d="M208,41.2c0,2.1-0.6,3.7-1.7,4.9c-1.1,1.2-2.7,1.7-4.7,1.7c-1.9,0-3.5-0.6-4.6-1.8c-1.1-1.2-1.7-2.8-1.7-4.8
		c0-2.1,0.6-3.7,1.7-4.8c1.1-1.1,2.7-1.7,4.7-1.7c1.3,0,2.4,0.3,3.3,0.8s1.7,1.3,2.2,2.3C207.7,38.7,208,39.8,208,41.2z M199.7,41.2
		c0,1.1,0.1,1.9,0.4,2.5c0.3,0.6,0.8,0.9,1.5,0.9c0.7,0,1.2-0.3,1.4-0.9c0.3-0.6,0.4-1.4,0.4-2.5c0-1.1-0.1-1.9-0.4-2.5
		s-0.8-0.8-1.5-0.8c-0.7,0-1.2,0.3-1.4,0.8C199.9,39.2,199.7,40.1,199.7,41.2z"/>
	<path class="st0" d="M216.2,44.3c0.6,0,1.3-0.1,2.1-0.4v3.2c-0.6,0.3-1.2,0.4-1.7,0.5c-0.5,0.1-1.2,0.2-1.9,0.2
		c-1.5,0-2.5-0.4-3.2-1.1s-1-1.8-1-3.3v-5.2h-1.5v-1.8l2-1.4l1.1-2.7h2.9v2.5h3.1v3.3H215v5C215,43.9,215.4,44.3,216.2,44.3z"/>
	<path class="st0" d="M226.3,47.8c-2.1,0-3.8-0.6-4.9-1.7c-1.2-1.1-1.8-2.7-1.8-4.8c0-2.1,0.5-3.8,1.6-4.9c1.1-1.1,2.6-1.7,4.6-1.7
		c1.9,0,3.4,0.5,4.4,1.5c1,1,1.6,2.4,1.6,4.3v2H224c0,0.7,0.3,1.3,0.8,1.7c0.5,0.4,1.2,0.6,2,0.6c0.8,0,1.5-0.1,2.1-0.2
		c0.6-0.1,1.3-0.4,2.1-0.7v3.2c-0.7,0.4-1.4,0.6-2.1,0.7S227.3,47.8,226.3,47.8z M226,37.6c-0.5,0-0.9,0.2-1.3,0.5
		c-0.3,0.3-0.6,0.8-0.6,1.5h3.8c0-0.6-0.2-1.1-0.5-1.5C227,37.8,226.6,37.6,226,37.6z"/>
	<path class="st0" d="M239.7,47.8c-2.1,0-3.7-0.6-4.7-1.7c-1.1-1.1-1.6-2.7-1.6-4.8c0-2.1,0.6-3.7,1.7-4.9s2.8-1.7,5-1.7
		c1.5,0,2.9,0.3,4.2,1l-1.3,3.2c-0.5-0.2-1-0.4-1.5-0.6c-0.4-0.1-0.9-0.2-1.4-0.2c-0.7,0-1.3,0.3-1.7,0.8s-0.6,1.3-0.6,2.3
		c0,2,0.8,3.1,2.3,3.1c1.3,0,2.5-0.4,3.7-1.1v3.5C242.6,47.4,241.3,47.8,239.7,47.8z"/>
	<path class="st0" d="M252.1,44.3c0.6,0,1.3-0.1,2.1-0.4v3.2c-0.6,0.3-1.2,0.4-1.7,0.5c-0.5,0.1-1.2,0.2-1.9,0.2
		c-1.5,0-2.5-0.4-3.2-1.1s-1-1.8-1-3.3v-5.2h-1.5v-1.8l2-1.4l1.1-2.7h2.9v2.5h3.1v3.3h-3.1v5C250.9,43.9,251.3,44.3,252.1,44.3z"/>
	<path class="st0" d="M260,34.8h4.6l2.2,7.3c0.1,0.4,0.2,0.8,0.2,1.4h0.1c0.1-0.5,0.1-1,0.3-1.4l2.2-7.3h4.5l-5,13.5
		c-0.6,1.7-1.4,2.9-2.4,3.7c-0.9,0.7-2.2,1.1-3.7,1.1c-0.6,0-1.2-0.1-1.8-0.2v-3.4c0.4,0.1,0.8,0.1,1.4,0.1c0.4,0,0.7-0.1,1-0.2
		s0.5-0.4,0.8-0.6s0.4-0.7,0.7-1.3L260,34.8z"/>
	<path class="st0" d="M287.3,41.2c0,2.1-0.6,3.7-1.7,4.9c-1.1,1.2-2.7,1.7-4.7,1.7c-1.9,0-3.5-0.6-4.6-1.8c-1.1-1.2-1.7-2.8-1.7-4.8
		c0-2.1,0.6-3.7,1.7-4.8c1.1-1.1,2.7-1.7,4.7-1.7c1.3,0,2.4,0.3,3.3,0.8s1.7,1.3,2.2,2.3C287,38.7,287.3,39.8,287.3,41.2z M279,41.2
		c0,1.1,0.1,1.9,0.4,2.5c0.3,0.6,0.8,0.9,1.5,0.9c0.7,0,1.2-0.3,1.4-0.9c0.3-0.6,0.4-1.4,0.4-2.5c0-1.1-0.1-1.9-0.4-2.5
		s-0.8-0.8-1.5-0.8c-0.7,0-1.2,0.3-1.4,0.8C279.2,39.2,279,40.1,279,41.2z"/>
	<path class="st0" d="M298.4,47.5l-0.6-1.6h-0.3c-0.4,0.6-0.9,1-1.5,1.3c-0.7,0.3-1.4,0.5-2.3,0.5c-1.4,0-2.5-0.4-3.3-1.2
		s-1.2-2-1.2-3.4v-8.3h4.4v7c0,0.8,0.1,1.5,0.4,1.9c0.2,0.4,0.6,0.6,1.2,0.6c0.8,0,1.3-0.3,1.6-0.9c0.3-0.6,0.5-1.6,0.5-3v-5.6h4.4
		v12.7H298.4z"/>
	<path class="st0" d="M312,34.6c0.4,0,0.7,0,1.1,0.1l0.2,0l-0.4,4.1c-0.4-0.1-0.9-0.1-1.5-0.1c-1,0-1.7,0.2-2.1,0.7
		c-0.4,0.4-0.7,1.1-0.7,1.9v6.3h-4.4V34.8h3.3l0.7,2h0.2c0.4-0.7,0.9-1.2,1.5-1.6C310.6,34.8,311.3,34.6,312,34.6z"/>
	<path class="st0" d="M327.9,38.1h-2.7v9.4h-4.4v-9.4h-1.7V36l1.8-1.1v-0.2c0-1.7,0.3-2.9,1-3.6c0.7-0.7,1.8-1.1,3.3-1.1
		c0.6,0,1.1,0,1.7,0.1c0.5,0.1,1.1,0.2,1.8,0.5l-0.9,2.8c-0.5-0.1-1.1-0.2-1.6-0.2c-0.3,0-0.6,0.1-0.7,0.3c-0.2,0.2-0.2,0.5-0.2,1
		v0.3h2.7V38.1z"/>
	<path class="st0" d="M337.5,47.5l-0.8-1.7h-0.1c-0.6,0.7-1.2,1.2-1.8,1.5s-1.4,0.4-2.4,0.4c-1.2,0-2.1-0.4-2.8-1.1s-1-1.7-1-3
		c0-1.4,0.5-2.4,1.4-3c0.9-0.7,2.3-1,4.1-1.1l2.1-0.1v-0.2c0-1-0.5-1.6-1.5-1.6c-0.9,0-2.1,0.3-3.5,0.9l-1.3-2.9
		c1.5-0.8,3.4-1.1,5.6-1.1c1.6,0,2.9,0.4,3.8,1.2c0.9,0.8,1.3,1.9,1.3,3.4v8.3H337.5z M334.2,44.7c0.5,0,1-0.2,1.4-0.5
		c0.4-0.3,0.6-0.8,0.6-1.3v-1l-1,0c-1.4,0.1-2.2,0.6-2.2,1.6C333,44.3,333.4,44.7,334.2,44.7z"/>
	<path class="st0" d="M358.7,47.5v-6.9c0-0.9-0.1-1.5-0.4-1.9c-0.2-0.4-0.6-0.6-1.1-0.6c-0.7,0-1.2,0.3-1.5,0.9s-0.5,1.5-0.5,2.7
		v5.9h-4.4v-6.9c0-0.9-0.1-1.5-0.3-1.9c-0.2-0.4-0.6-0.6-1.1-0.6c-0.7,0-1.2,0.3-1.5,0.9s-0.5,1.6-0.5,3v5.6h-4.4V34.8h3.3l0.6,1.6
		h0.3c0.3-0.6,0.8-1,1.5-1.3c0.6-0.3,1.4-0.5,2.2-0.5c1.8,0,3.1,0.6,3.9,1.7h0.3c0.4-0.5,0.9-0.9,1.5-1.2c0.6-0.3,1.3-0.4,2.1-0.4
		c1.5,0,2.6,0.4,3.3,1.2s1.1,1.9,1.1,3.5v8.3H358.7z"/>
	<path class="st0" d="M365.5,31.7c0-0.7,0.2-1.1,0.6-1.5s1-0.5,1.8-0.5s1.4,0.2,1.8,0.5c0.4,0.3,0.6,0.8,0.6,1.5
		c0,1.3-0.8,1.9-2.3,1.9C366.3,33.6,365.5,32.9,365.5,31.7z M370,47.5h-4.4V34.8h4.4V47.5z"/>
	<path class="st0" d="M377,47.5h-4.4V30.1h4.4V47.5z"/>
	<path class="st0" d="M378,34.8h4.6l2.2,7.3c0.1,0.4,0.2,0.8,0.2,1.4h0.1c0.1-0.5,0.1-1,0.3-1.4l2.2-7.3h4.5l-5,13.5
		c-0.6,1.7-1.4,2.9-2.4,3.7c-0.9,0.7-2.2,1.1-3.7,1.1c-0.6,0-1.2-0.1-1.8-0.2v-3.4c0.4,0.1,0.8,0.1,1.4,0.1c0.4,0,0.7-0.1,1-0.2
		s0.5-0.4,0.8-0.6s0.4-0.7,0.7-1.3L378,34.8z"/>
	<path class="st0" d="M392.6,45.7c0-0.7,0.2-1.2,0.6-1.6s1-0.6,1.8-0.6c0.7,0,1.3,0.2,1.7,0.6c0.4,0.4,0.6,0.9,0.6,1.6
		c0,0.7-0.2,1.2-0.6,1.6s-1,0.6-1.7,0.6c-0.7,0-1.3-0.2-1.8-0.6C392.8,46.9,392.6,46.4,392.6,45.7z"/>
</g>
</svg>
