<?xml version="1.0" encoding="utf-8"?>
<!-- Generator: Adobe Illustrator 22.1.0, SVG Export Plug-In . SVG Version: 6.00 Build 0)  -->
<svg version="1.1" id="Layer_1" xmlns="http://www.w3.org/2000/svg" xmlns:xlink="http://www.w3.org/1999/xlink" x="0px" y="0px"
	 viewBox="0 0 728 90" style="enable-background:new 0 0 728 90;" xml:space="preserve">
<style type="text/css">
	.st0{fill:#FFFFFF;}
</style>
<g>
	<path class="st0" d="M606.1,19.3h3.2v4.3c-0.5,0.2-1,0.3-1.5,0.4s-1,0.1-1.5,0.1c-1.3,0-2.3-0.4-3-1.2s-1.1-1.9-1.1-3.2
		c0-1.4,0.4-2.5,1.2-3.2s1.9-1.2,3.3-1.2c0.9,0,1.7,0.2,2.5,0.5l-0.5,1.2c-0.7-0.3-1.4-0.5-2.1-0.5c-0.9,0-1.6,0.3-2.2,0.9
		s-0.8,1.4-0.8,2.4c0,1,0.2,1.8,0.7,2.4s1.2,0.8,2.1,0.8c0.5,0,0.9-0.1,1.5-0.2v-2.2h-1.8V19.3z"/>
	<path class="st0" d="M613.7,24c-1,0-1.8-0.3-2.4-0.9s-0.9-1.4-0.9-2.4c0-1.1,0.3-1.9,0.8-2.5s1.3-0.9,2.2-0.9c0.9,0,1.5,0.3,2,0.8
		s0.7,1.2,0.7,2.1V21h-4.3c0,0.6,0.2,1.1,0.5,1.5s0.8,0.5,1.4,0.5c0.4,0,0.7,0,1.1-0.1s0.7-0.2,1.1-0.4v1.1c-0.3,0.2-0.7,0.3-1,0.3
		S614.2,24,613.7,24z M613.5,18.4c-0.4,0-0.8,0.1-1.1,0.4S612,19.5,612,20h2.9c0-0.5-0.1-0.9-0.4-1.2S613.9,18.4,613.5,18.4z"/>
	<path class="st0" d="M620,22.9c0.3,0,0.7-0.1,1-0.2v1c-0.2,0.1-0.3,0.1-0.6,0.2s-0.5,0.1-0.7,0.1c-1.3,0-2-0.7-2-2.1v-3.5h-0.9
		v-0.6l0.9-0.5l0.5-1.4h0.8v1.4h1.8v1h-1.8V22c0,0.3,0.1,0.6,0.2,0.7S619.7,22.9,620,22.9z"/>
	<path class="st0" d="M626.3,23.9h-1.4v-9.1h1.4V23.9z"/>
	<path class="st0" d="M628,15.7c0-0.2,0.1-0.4,0.2-0.6s0.3-0.2,0.6-0.2c0.2,0,0.4,0.1,0.6,0.2s0.2,0.3,0.2,0.6
		c0,0.2-0.1,0.4-0.2,0.6s-0.3,0.2-0.6,0.2c-0.2,0-0.4-0.1-0.6-0.2S628,16,628,15.7z M629.4,23.9h-1.4v-6.5h1.4V23.9z"/>
	<path class="st0" d="M634.4,18.5h-1.6v5.4h-1.4v-5.4h-1.1v-0.6l1.1-0.4V17c0-0.8,0.2-1.3,0.5-1.7s0.9-0.6,1.6-0.6
		c0.5,0,1,0.1,1.4,0.2l-0.4,1c-0.3-0.1-0.7-0.2-1-0.2c-0.3,0-0.5,0.1-0.7,0.3s-0.2,0.5-0.2,0.9v0.4h1.6V18.5z"/>
	<path class="st0" d="M638.1,24c-1,0-1.8-0.3-2.4-0.9s-0.9-1.4-0.9-2.4c0-1.1,0.3-1.9,0.8-2.5s1.3-0.9,2.2-0.9c0.9,0,1.5,0.3,2,0.8
		s0.7,1.2,0.7,2.1V21h-4.3c0,0.6,0.2,1.1,0.5,1.5s0.8,0.5,1.4,0.5c0.4,0,0.7,0,1.1-0.1s0.7-0.2,1.1-0.4v1.1c-0.3,0.2-0.7,0.3-1,0.3
		S638.6,24,638.1,24z M637.9,18.4c-0.4,0-0.8,0.1-1.1,0.4s-0.4,0.7-0.5,1.2h2.9c0-0.5-0.1-0.9-0.4-1.2S638.3,18.4,637.9,18.4z"/>
	<path class="st0" d="M644.8,15.7c0-0.2,0.1-0.4,0.2-0.6s0.3-0.2,0.6-0.2c0.2,0,0.4,0.1,0.6,0.2s0.2,0.3,0.2,0.6
		c0,0.2-0.1,0.4-0.2,0.6s-0.3,0.2-0.6,0.2c-0.2,0-0.4-0.1-0.6-0.2S644.8,16,644.8,15.7z M646.2,23.9h-1.4v-6.5h1.4V23.9z"/>
	<path class="st0" d="M653.7,23.9h-1.4v-4c0-0.5-0.1-0.9-0.3-1.1s-0.5-0.4-1-0.4c-0.6,0-1,0.2-1.3,0.5s-0.4,0.9-0.4,1.7v3.2H648
		v-6.5h1.1l0.2,0.8h0.1c0.2-0.3,0.5-0.5,0.8-0.7s0.8-0.3,1.2-0.3c1.6,0,2.3,0.8,2.3,2.4V23.9z"/>
	<path class="st0" d="M659.7,22.1c0,0.6-0.2,1.1-0.7,1.5s-1.1,0.5-2,0.5c-0.9,0-1.6-0.1-2.1-0.4v-1.2c0.8,0.4,1.5,0.5,2.1,0.5
		c0.8,0,1.3-0.3,1.3-0.8c0-0.2,0-0.3-0.1-0.4s-0.2-0.2-0.5-0.3s-0.5-0.2-0.9-0.4c-0.7-0.3-1.3-0.6-1.5-0.9s-0.4-0.7-0.4-1.1
		c0-0.6,0.2-1,0.7-1.3s1.1-0.5,1.8-0.5c0.8,0,1.5,0.2,2.2,0.5l-0.4,1c-0.7-0.3-1.3-0.4-1.8-0.4c-0.7,0-1.1,0.2-1.1,0.6
		c0,0.2,0.1,0.4,0.3,0.5s0.6,0.3,1.2,0.6c0.5,0.2,0.9,0.4,1.2,0.6s0.4,0.4,0.5,0.6S659.7,21.8,659.7,22.1z"/>
	<path class="st0" d="M665.6,23.9l-0.2-0.8h-0.1c-0.2,0.3-0.5,0.5-0.8,0.7s-0.8,0.3-1.2,0.3c-0.8,0-1.4-0.2-1.8-0.6s-0.6-1-0.6-1.8
		v-4.2h1.4v4c0,0.5,0.1,0.9,0.3,1.1s0.5,0.4,1,0.4c0.6,0,1-0.2,1.3-0.5s0.4-0.9,0.4-1.7v-3.2h1.4v6.5H665.6z"/>
	<path class="st0" d="M671.7,17.3c0.3,0,0.5,0,0.7,0.1l-0.1,1.3c-0.2,0-0.4-0.1-0.6-0.1c-0.6,0-1,0.2-1.3,0.5s-0.5,0.8-0.5,1.4v3.4
		h-1.4v-6.5h1.1l0.2,1.1h0.1c0.2-0.4,0.5-0.7,0.8-0.9S671.3,17.3,671.7,17.3z"/>
	<path class="st0" d="M677.4,23.9l-0.3-0.9h0c-0.3,0.4-0.6,0.7-0.9,0.8s-0.7,0.2-1.2,0.2c-0.6,0-1.1-0.2-1.5-0.5s-0.5-0.8-0.5-1.5
		c0-0.7,0.2-1.2,0.7-1.5s1.3-0.5,2.3-0.6l1.1,0v-0.3c0-0.4-0.1-0.7-0.3-0.9s-0.5-0.3-0.9-0.3c-0.3,0-0.7,0-1,0.1s-0.6,0.2-0.9,0.3
		l-0.4-1c0.4-0.2,0.7-0.3,1.2-0.4s0.8-0.1,1.2-0.1c0.8,0,1.4,0.2,1.9,0.5s0.6,0.9,0.6,1.7v4.4H677.4z M675.3,23
		c0.5,0,0.9-0.1,1.2-0.4s0.5-0.7,0.5-1.2v-0.6l-0.8,0c-0.6,0-1.1,0.1-1.4,0.3s-0.4,0.5-0.4,0.9c0,0.3,0.1,0.5,0.3,0.7
		S675,23,675.3,23z"/>
	<path class="st0" d="M685.7,23.9h-1.4v-4c0-0.5-0.1-0.9-0.3-1.1s-0.5-0.4-1-0.4c-0.6,0-1,0.2-1.3,0.5s-0.4,0.9-0.4,1.7v3.2H680
		v-6.5h1.1l0.2,0.8h0.1c0.2-0.3,0.5-0.5,0.8-0.7s0.8-0.3,1.2-0.3c1.6,0,2.3,0.8,2.3,2.4V23.9z"/>
	<path class="st0" d="M690,24c-1,0-1.7-0.3-2.2-0.9s-0.8-1.4-0.8-2.5c0-1.1,0.3-1.9,0.8-2.5s1.3-0.9,2.3-0.9c0.7,0,1.3,0.1,1.8,0.4
		l-0.4,1.1c-0.6-0.2-1.1-0.3-1.4-0.3c-1.1,0-1.7,0.7-1.7,2.2c0,0.7,0.1,1.3,0.4,1.6s0.7,0.5,1.2,0.5c0.6,0,1.2-0.2,1.7-0.5v1.2
		c-0.2,0.1-0.5,0.2-0.8,0.3S690.4,24,690,24z"/>
	<path class="st0" d="M695.9,24c-1,0-1.8-0.3-2.4-0.9s-0.9-1.4-0.9-2.4c0-1.1,0.3-1.9,0.8-2.5s1.3-0.9,2.2-0.9c0.9,0,1.5,0.3,2,0.8
		s0.7,1.2,0.7,2.1V21h-4.3c0,0.6,0.2,1.1,0.5,1.5s0.8,0.5,1.4,0.5c0.4,0,0.7,0,1.1-0.1s0.7-0.2,1.1-0.4v1.1c-0.3,0.2-0.7,0.3-1,0.3
		S696.4,24,695.9,24z M695.7,18.4c-0.4,0-0.8,0.1-1.1,0.4s-0.4,0.7-0.5,1.2h2.9c0-0.5-0.1-0.9-0.4-1.2S696.1,18.4,695.7,18.4z"/>
	<path class="st0" d="M706.7,23.9l-0.3-0.9h0c-0.3,0.4-0.6,0.7-0.9,0.8s-0.7,0.2-1.2,0.2c-0.6,0-1.1-0.2-1.5-0.5s-0.5-0.8-0.5-1.5
		c0-0.7,0.2-1.2,0.7-1.5s1.3-0.5,2.3-0.6l1.1,0v-0.3c0-0.4-0.1-0.7-0.3-0.9s-0.5-0.3-0.9-0.3c-0.3,0-0.7,0-1,0.1s-0.6,0.2-0.9,0.3
		l-0.4-1c0.4-0.2,0.7-0.3,1.2-0.4s0.8-0.1,1.2-0.1c0.8,0,1.4,0.2,1.9,0.5s0.6,0.9,0.6,1.7v4.4H706.7z M704.7,23
		c0.5,0,0.9-0.1,1.2-0.4s0.5-0.7,0.5-1.2v-0.6l-0.8,0c-0.6,0-1.1,0.1-1.4,0.3s-0.4,0.5-0.4,0.9c0,0.3,0.1,0.5,0.3,0.7
		S704.3,23,704.7,23z"/>
	<path class="st0" d="M711.8,22.9c0.3,0,0.7-0.1,1-0.2v1c-0.2,0.1-0.3,0.1-0.6,0.2s-0.5,0.1-0.7,0.1c-1.3,0-2-0.7-2-2.1v-3.5h-0.9
		v-0.6l0.9-0.5l0.5-1.4h0.8v1.4h1.8v1h-1.8V22c0,0.3,0.1,0.6,0.2,0.7S711.5,22.9,711.8,22.9z"/>
</g>
<g>
	<path class="st0" d="M570.6,38.1c-1,0-1.7-0.3-2.2-0.9s-0.8-1.4-0.8-2.5c0-1.1,0.3-1.9,0.8-2.5s1.3-0.9,2.3-0.9
		c0.7,0,1.3,0.1,1.8,0.4l-0.4,1.1c-0.6-0.2-1.1-0.3-1.4-0.3c-1.1,0-1.7,0.7-1.7,2.2c0,0.7,0.1,1.3,0.4,1.6s0.7,0.5,1.2,0.5
		c0.6,0,1.2-0.2,1.7-0.5v1.2c-0.2,0.1-0.5,0.2-0.8,0.3S571,38.1,570.6,38.1z"/>
	<path class="st0" d="M579.5,34.7c0,1.1-0.3,1.9-0.8,2.5s-1.3,0.9-2.3,0.9c-0.6,0-1.1-0.1-1.6-0.4s-0.8-0.7-1.1-1.2
		s-0.4-1.1-0.4-1.8c0-1.1,0.3-1.9,0.8-2.5s1.3-0.9,2.3-0.9c0.9,0,1.7,0.3,2.2,0.9S579.5,33.7,579.5,34.7z M574.7,34.7
		c0,1.5,0.6,2.2,1.7,2.2c1.1,0,1.6-0.7,1.6-2.2c0-1.5-0.6-2.2-1.7-2.2c-0.6,0-1,0.2-1.3,0.6S574.7,34,574.7,34.7z"/>
	<path class="st0" d="M586.3,37.9h-1.4v-4c0-0.5-0.1-0.9-0.3-1.1s-0.5-0.4-0.9-0.4c-0.5,0-0.9,0.2-1.2,0.5s-0.4,0.9-0.4,1.7v3.2
		h-1.4v-6.5h1.1l0.2,0.8h0.1c0.2-0.3,0.4-0.5,0.8-0.7s0.7-0.3,1.1-0.3c1,0,1.7,0.3,2,1h0.1c0.2-0.3,0.5-0.6,0.8-0.8s0.7-0.3,1.2-0.3
		c0.8,0,1.3,0.2,1.7,0.6s0.5,1,0.5,1.8v4.2H589v-4c0-0.5-0.1-0.9-0.3-1.1s-0.5-0.4-0.9-0.4c-0.5,0-0.9,0.2-1.2,0.5s-0.4,0.8-0.4,1.5
		V37.9z"/>
	<path class="st0" d="M595.3,38.1c-0.8,0-1.5-0.3-1.9-0.9h-0.1c0.1,0.5,0.1,0.9,0.1,1v2.7H592v-9.4h1.1c0,0.1,0.1,0.4,0.2,0.9h0.1
		c0.4-0.7,1.1-1,1.9-1c0.8,0,1.4,0.3,1.9,0.9s0.7,1.4,0.7,2.5s-0.2,1.9-0.7,2.5S596.1,38.1,595.3,38.1z M595,32.5
		c-0.5,0-0.9,0.2-1.2,0.5s-0.4,0.8-0.4,1.5v0.2c0,0.8,0.1,1.4,0.4,1.7s0.7,0.5,1.2,0.5c0.5,0,0.8-0.2,1.1-0.6s0.4-0.9,0.4-1.7
		c0-0.7-0.1-1.3-0.4-1.6S595.5,32.5,595,32.5z"/>
	<path class="st0" d="M602.1,38.1c-1,0-1.8-0.3-2.4-0.9s-0.9-1.4-0.9-2.4c0-1.1,0.3-1.9,0.8-2.5s1.3-0.9,2.2-0.9
		c0.9,0,1.5,0.3,2,0.8s0.7,1.2,0.7,2.1V35h-4.3c0,0.6,0.2,1.1,0.5,1.5s0.8,0.5,1.4,0.5c0.4,0,0.7,0,1.1-0.1s0.7-0.2,1.1-0.4v1.1
		c-0.3,0.2-0.7,0.3-1,0.3S602.6,38.1,602.1,38.1z M601.9,32.4c-0.4,0-0.8,0.1-1.1,0.4s-0.4,0.7-0.5,1.2h2.9c0-0.5-0.1-0.9-0.4-1.2
		S602.3,32.4,601.9,32.4z"/>
	<path class="st0" d="M608.4,36.9c0.3,0,0.7-0.1,1-0.2v1c-0.2,0.1-0.3,0.1-0.6,0.2s-0.5,0.1-0.7,0.1c-1.3,0-2-0.7-2-2.1v-3.5h-0.9
		v-0.6l0.9-0.5l0.5-1.4h0.8v1.4h1.8v1h-1.8V36c0,0.3,0.1,0.6,0.2,0.7S608.1,36.9,608.4,36.9z"/>
	<path class="st0" d="M610.3,29.7c0-0.2,0.1-0.4,0.2-0.6s0.3-0.2,0.6-0.2c0.2,0,0.4,0.1,0.6,0.2s0.2,0.3,0.2,0.6
		c0,0.2-0.1,0.4-0.2,0.6s-0.3,0.2-0.6,0.2c-0.2,0-0.4-0.1-0.6-0.2S610.3,30,610.3,29.7z M611.8,37.9h-1.4v-6.5h1.4V37.9z"/>
	<path class="st0" d="M616,36.9c0.3,0,0.7-0.1,1-0.2v1c-0.2,0.1-0.3,0.1-0.6,0.2s-0.5,0.1-0.7,0.1c-1.3,0-2-0.7-2-2.1v-3.5h-0.9
		v-0.6l0.9-0.5l0.5-1.4h0.8v1.4h1.8v1h-1.8V36c0,0.3,0.1,0.6,0.2,0.7S615.7,36.9,616,36.9z"/>
	<path class="st0" d="M617.9,29.7c0-0.2,0.1-0.4,0.2-0.6s0.3-0.2,0.6-0.2c0.2,0,0.4,0.1,0.6,0.2s0.2,0.3,0.2,0.6
		c0,0.2-0.1,0.4-0.2,0.6s-0.3,0.2-0.6,0.2c-0.2,0-0.4-0.1-0.6-0.2S617.9,30,617.9,29.7z M619.4,37.9H618v-6.5h1.4V37.9z"/>
	<path class="st0" d="M622.6,37.9l-2.5-6.5h1.5l1.3,3.8c0.2,0.6,0.4,1.1,0.4,1.5h0c0-0.3,0.2-0.8,0.4-1.5l1.3-3.8h1.5l-2.5,6.5
		H622.6z"/>
	<path class="st0" d="M630.2,38.1c-1,0-1.8-0.3-2.4-0.9s-0.9-1.4-0.9-2.4c0-1.1,0.3-1.9,0.8-2.5s1.3-0.9,2.2-0.9
		c0.9,0,1.5,0.3,2,0.8s0.7,1.2,0.7,2.1V35h-4.3c0,0.6,0.2,1.1,0.5,1.5s0.8,0.5,1.4,0.5c0.4,0,0.7,0,1.1-0.1s0.7-0.2,1.1-0.4v1.1
		c-0.3,0.2-0.7,0.3-1,0.3S630.6,38.1,630.2,38.1z M629.9,32.4c-0.4,0-0.8,0.1-1.1,0.4s-0.4,0.7-0.5,1.2h2.9c0-0.5-0.1-0.9-0.4-1.2
		S630.3,32.4,629.9,32.4z"/>
	<path class="st0" d="M642.4,31.5v0.8l-1.1,0.2c0.1,0.1,0.2,0.3,0.3,0.5s0.1,0.4,0.1,0.6c0,0.7-0.2,1.2-0.7,1.6s-1.1,0.6-1.9,0.6
		c-0.2,0-0.4,0-0.6,0c-0.3,0.2-0.4,0.4-0.4,0.6c0,0.1,0.1,0.3,0.2,0.3s0.4,0.1,0.8,0.1h1.1c0.7,0,1.3,0.2,1.6,0.5s0.6,0.7,0.6,1.3
		c0,0.7-0.3,1.3-0.9,1.7s-1.5,0.6-2.6,0.6c-0.9,0-1.6-0.2-2-0.5S636,39.6,636,39c0-0.4,0.1-0.7,0.4-1s0.6-0.5,1.1-0.6
		c-0.2-0.1-0.3-0.2-0.5-0.4s-0.2-0.4-0.2-0.5c0-0.2,0.1-0.4,0.2-0.6s0.3-0.3,0.6-0.5c-0.3-0.1-0.6-0.4-0.8-0.7s-0.3-0.7-0.3-1.1
		c0-0.7,0.2-1.2,0.7-1.6s1.1-0.6,1.9-0.6c0.2,0,0.4,0,0.6,0s0.4,0.1,0.5,0.1H642.4z M637.3,38.9c0,0.3,0.1,0.5,0.4,0.7
		s0.6,0.2,1.1,0.2c0.8,0,1.3-0.1,1.7-0.3s0.6-0.5,0.6-0.9c0-0.3-0.1-0.5-0.3-0.6s-0.6-0.2-1.1-0.2h-1c-0.4,0-0.7,0.1-0.9,0.3
		S637.3,38.6,637.3,38.9z M637.9,33.6c0,0.4,0.1,0.7,0.3,0.9s0.5,0.3,0.9,0.3c0.8,0,1.2-0.4,1.2-1.3c0-0.4-0.1-0.7-0.3-1
		s-0.5-0.3-0.9-0.3c-0.4,0-0.7,0.1-0.9,0.3S637.9,33.1,637.9,33.6z"/>
	<path class="st0" d="M646.6,31.3c0.3,0,0.5,0,0.7,0.1l-0.1,1.3c-0.2,0-0.4-0.1-0.6-0.1c-0.6,0-1,0.2-1.3,0.5s-0.5,0.8-0.5,1.4v3.4
		h-1.4v-6.5h1.1l0.2,1.1h0.1c0.2-0.4,0.5-0.7,0.8-0.9S646.2,31.3,646.6,31.3z"/>
	<path class="st0" d="M654,34.7c0,1.1-0.3,1.9-0.8,2.5s-1.3,0.9-2.3,0.9c-0.6,0-1.1-0.1-1.6-0.4s-0.8-0.7-1.1-1.2s-0.4-1.1-0.4-1.8
		c0-1.1,0.3-1.9,0.8-2.5s1.3-0.9,2.3-0.9c0.9,0,1.7,0.3,2.2,0.9S654,33.7,654,34.7z M649.3,34.7c0,1.5,0.6,2.2,1.7,2.2
		c1.1,0,1.6-0.7,1.6-2.2c0-1.5-0.6-2.2-1.7-2.2c-0.6,0-1,0.2-1.3,0.6S649.3,34,649.3,34.7z"/>
	<path class="st0" d="M659.9,37.9l-0.2-0.8h-0.1c-0.2,0.3-0.5,0.5-0.8,0.7s-0.8,0.3-1.2,0.3c-0.8,0-1.4-0.2-1.8-0.6s-0.6-1-0.6-1.8
		v-4.2h1.4v4c0,0.5,0.1,0.9,0.3,1.1s0.5,0.4,1,0.4c0.6,0,1-0.2,1.3-0.5s0.4-0.9,0.4-1.7v-3.2h1.4v6.5H659.9z"/>
	<path class="st0" d="M666,38.1c-0.8,0-1.5-0.3-1.9-0.9H664c0.1,0.5,0.1,0.9,0.1,1v2.7h-1.4v-9.4h1.1c0,0.1,0.1,0.4,0.2,0.9h0.1
		c0.4-0.7,1.1-1,1.9-1c0.8,0,1.4,0.3,1.9,0.9s0.7,1.4,0.7,2.5s-0.2,1.9-0.7,2.5S666.8,38.1,666,38.1z M665.7,32.5
		c-0.5,0-0.9,0.2-1.2,0.5s-0.4,0.8-0.4,1.5v0.2c0,0.8,0.1,1.4,0.4,1.7s0.7,0.5,1.2,0.5c0.5,0,0.8-0.2,1.1-0.6s0.4-0.9,0.4-1.7
		c0-0.7-0.1-1.3-0.4-1.6S666.2,32.5,665.7,32.5z"/>
	<path class="st0" d="M676.2,38.1c-0.8,0-1.5-0.3-1.9-0.9h-0.1c0.1,0.5,0.1,0.9,0.1,1v2.7h-1.4v-9.4h1.1c0,0.1,0.1,0.4,0.2,0.9h0.1
		c0.4-0.7,1.1-1,1.9-1c0.8,0,1.4,0.3,1.9,0.9s0.7,1.4,0.7,2.5s-0.2,1.9-0.7,2.5S677,38.1,676.2,38.1z M675.8,32.5
		c-0.5,0-0.9,0.2-1.2,0.5s-0.4,0.8-0.4,1.5v0.2c0,0.8,0.1,1.4,0.4,1.7s0.7,0.5,1.2,0.5c0.5,0,0.8-0.2,1.1-0.6s0.4-0.9,0.4-1.7
		c0-0.7-0.1-1.3-0.4-1.6S676.3,32.5,675.8,32.5z"/>
	<path class="st0" d="M683.4,31.3c0.3,0,0.5,0,0.7,0.1l-0.1,1.3c-0.2,0-0.4-0.1-0.6-0.1c-0.6,0-1,0.2-1.3,0.5s-0.5,0.8-0.5,1.4v3.4
		h-1.4v-6.5h1.1l0.2,1.1h0.1c0.2-0.4,0.5-0.7,0.8-0.9S683,31.3,683.4,31.3z"/>
	<path class="st0" d="M685,29.7c0-0.2,0.1-0.4,0.2-0.6s0.3-0.2,0.6-0.2c0.2,0,0.4,0.1,0.6,0.2s0.2,0.3,0.2,0.6
		c0,0.2-0.1,0.4-0.2,0.6s-0.3,0.2-0.6,0.2c-0.2,0-0.4-0.1-0.6-0.2S685,30,685,29.7z M686.4,37.9H685v-6.5h1.4V37.9z"/>
	<path class="st0" d="M690.8,38.1c-1,0-1.7-0.3-2.2-0.9s-0.8-1.4-0.8-2.5c0-1.1,0.3-1.9,0.8-2.5s1.3-0.9,2.3-0.9
		c0.7,0,1.3,0.1,1.8,0.4l-0.4,1.1c-0.6-0.2-1.1-0.3-1.4-0.3c-1.1,0-1.7,0.7-1.7,2.2c0,0.7,0.1,1.3,0.4,1.6s0.7,0.5,1.2,0.5
		c0.6,0,1.2-0.2,1.7-0.5v1.2c-0.2,0.1-0.5,0.2-0.8,0.3S691.2,38.1,690.8,38.1z"/>
	<path class="st0" d="M693.8,29.7c0-0.2,0.1-0.4,0.2-0.6s0.3-0.2,0.6-0.2c0.2,0,0.4,0.1,0.6,0.2s0.2,0.3,0.2,0.6
		c0,0.2-0.1,0.4-0.2,0.6s-0.3,0.2-0.6,0.2c-0.2,0-0.4-0.1-0.6-0.2S693.8,30,693.8,29.7z M695.2,37.9h-1.4v-6.5h1.4V37.9z"/>
	<path class="st0" d="M702.7,37.9h-1.4v-4c0-0.5-0.1-0.9-0.3-1.1s-0.5-0.4-1-0.4c-0.6,0-1,0.2-1.3,0.5s-0.4,0.9-0.4,1.7v3.2H697
		v-6.5h1.1l0.2,0.8h0.1c0.2-0.3,0.5-0.5,0.8-0.7s0.8-0.3,1.2-0.3c1.6,0,2.3,0.8,2.3,2.4V37.9z"/>
	<path class="st0" d="M709.8,31.5v0.8l-1.1,0.2c0.1,0.1,0.2,0.3,0.3,0.5s0.1,0.4,0.1,0.6c0,0.7-0.2,1.2-0.7,1.6s-1.1,0.6-1.9,0.6
		c-0.2,0-0.4,0-0.6,0c-0.3,0.2-0.4,0.4-0.4,0.6c0,0.1,0.1,0.3,0.2,0.3s0.4,0.1,0.8,0.1h1.1c0.7,0,1.3,0.2,1.6,0.5s0.6,0.7,0.6,1.3
		c0,0.7-0.3,1.3-0.9,1.7s-1.5,0.6-2.6,0.6c-0.9,0-1.6-0.2-2-0.5s-0.7-0.8-0.7-1.3c0-0.4,0.1-0.7,0.4-1s0.6-0.5,1.1-0.6
		c-0.2-0.1-0.3-0.2-0.5-0.4s-0.2-0.4-0.2-0.5c0-0.2,0.1-0.4,0.2-0.6s0.3-0.3,0.6-0.5c-0.3-0.1-0.6-0.4-0.8-0.7S704,34,704,33.6
		c0-0.7,0.2-1.2,0.7-1.6s1.1-0.6,1.9-0.6c0.2,0,0.4,0,0.6,0s0.4,0.1,0.5,0.1H709.8z M704.8,38.9c0,0.3,0.1,0.5,0.4,0.7
		s0.6,0.2,1.1,0.2c0.8,0,1.3-0.1,1.7-0.3s0.6-0.5,0.6-0.9c0-0.3-0.1-0.5-0.3-0.6s-0.6-0.2-1.1-0.2h-1c-0.4,0-0.7,0.1-0.9,0.3
		S704.8,38.6,704.8,38.9z M705.3,33.6c0,0.4,0.1,0.7,0.3,0.9s0.5,0.3,0.9,0.3c0.8,0,1.2-0.4,1.2-1.3c0-0.4-0.1-0.7-0.3-1
		s-0.5-0.3-0.9-0.3c-0.4,0-0.7,0.1-0.9,0.3S705.3,33.1,705.3,33.6z"/>
	<path class="st0" d="M710.6,37.2c0-0.3,0.1-0.5,0.2-0.7s0.4-0.2,0.6-0.2c0.3,0,0.5,0.1,0.7,0.2s0.2,0.4,0.2,0.6
		c0,0.3-0.1,0.5-0.2,0.7s-0.4,0.2-0.6,0.2s-0.5-0.1-0.6-0.2S710.6,37.5,710.6,37.2z"/>
</g>
</svg>
