<?xml version="1.0" encoding="utf-8"?>
<!-- Generator: Adobe Illustrator 22.1.0, SVG Export Plug-In . SVG Version: 6.00 Build 0)  -->
<svg version="1.1" id="Layer_1" xmlns="http://www.w3.org/2000/svg" xmlns:xlink="http://www.w3.org/1999/xlink" x="0px" y="0px"
	 viewBox="0 0 728 90" style="enable-background:new 0 0 728 90;" xml:space="preserve">
<style type="text/css">
	.st0{fill:#FFFFFF;}
</style>
<g>
	<path class="st0" d="M32.6,37.2l2.8-6.1h4.8l-5.4,10v6.4h-4.5v-6.3L25,31.1h4.8L32.6,37.2z"/>
	<path class="st0" d="M53.5,41.2c0,2.1-0.6,3.7-1.7,4.9c-1.1,1.2-2.7,1.7-4.7,1.7c-1.9,0-3.5-0.6-4.6-1.8c-1.1-1.2-1.7-2.8-1.7-4.8
		c0-2.1,0.6-3.7,1.7-4.8c1.1-1.1,2.7-1.7,4.7-1.7c1.3,0,2.4,0.3,3.3,0.8s1.7,1.3,2.2,2.3C53.2,38.7,53.5,39.8,53.5,41.2z M45.2,41.2
		c0,1.1,0.1,1.9,0.4,2.5c0.3,0.6,0.8,0.9,1.5,0.9c0.7,0,1.2-0.3,1.4-0.9c0.3-0.6,0.4-1.4,0.4-2.5c0-1.1-0.1-1.9-0.4-2.5
		s-0.8-0.8-1.5-0.8c-0.7,0-1.2,0.3-1.4,0.8C45.4,39.2,45.2,40.1,45.2,41.2z"/>
	<path class="st0" d="M64.6,47.5L64,46h-0.3c-0.4,0.6-0.9,1-1.5,1.3c-0.7,0.3-1.4,0.5-2.3,0.5c-1.4,0-2.5-0.4-3.3-1.2
		s-1.2-2-1.2-3.4v-8.3h4.4v7c0,0.8,0.1,1.5,0.4,1.9c0.2,0.4,0.6,0.6,1.2,0.6c0.8,0,1.3-0.3,1.6-0.9c0.3-0.6,0.5-1.6,0.5-3v-5.6h4.4
		v12.7H64.6z"/>
	<path class="st0" d="M84,47.5v-6.9c0-1.7-0.5-2.6-1.5-2.6c-0.7,0-1.2,0.3-1.6,0.9c-0.3,0.6-0.5,1.6-0.5,3v5.6H76V30.1h4.4v2.5
		c0,1.1-0.1,2.4-0.2,3.8h0.2c0.4-0.7,0.9-1.1,1.5-1.4s1.2-0.4,2-0.4c1.4,0,2.5,0.4,3.3,1.2c0.8,0.8,1.2,2,1.2,3.4v8.3H84z"/>
	<path class="st0" d="M97.1,47.8c-2.1,0-3.8-0.6-4.9-1.7c-1.2-1.1-1.8-2.7-1.8-4.8c0-2.1,0.5-3.8,1.6-4.9c1.1-1.1,2.6-1.7,4.6-1.7
		c1.9,0,3.4,0.5,4.4,1.5c1,1,1.6,2.4,1.6,4.3v2h-7.9c0,0.7,0.3,1.3,0.8,1.7c0.5,0.4,1.2,0.6,2,0.6c0.8,0,1.5-0.1,2.1-0.2
		c0.6-0.1,1.3-0.4,2.1-0.7v3.2c-0.7,0.4-1.4,0.6-2.1,0.7S98.2,47.8,97.1,47.8z M96.9,37.6c-0.5,0-0.9,0.2-1.3,0.5
		c-0.3,0.3-0.6,0.8-0.6,1.5h3.8c0-0.6-0.2-1.1-0.5-1.5C97.9,37.8,97.5,37.6,96.9,37.6z"/>
	<path class="st0" d="M109.2,47.5h-4.4V30.1h4.4V47.5z"/>
	<path class="st0" d="M119.4,47.8c-0.6,0-1.2-0.1-1.7-0.3c-0.5-0.2-1-0.6-1.5-1.2h-0.2c0.1,0.9,0.2,1.4,0.2,1.7v5.1h-4.4V34.8h3.6
		l0.6,1.6h0.2c0.8-1.2,1.9-1.8,3.4-1.8c1.4,0,2.5,0.6,3.3,1.8s1.2,2.8,1.2,4.8c0,2.1-0.4,3.7-1.3,4.8
		C121.9,47.2,120.8,47.8,119.4,47.8z M117.9,38c-0.6,0-1.1,0.2-1.4,0.7c-0.3,0.5-0.4,1.1-0.4,2v0.3c0,1.1,0.1,1.9,0.4,2.4
		s0.8,0.7,1.4,0.7c0.6,0,1-0.2,1.2-0.7c0.3-0.5,0.4-1.3,0.4-2.4c0-1.1-0.1-1.9-0.4-2.4C118.9,38.3,118.5,38,117.9,38z"/>
	<path class="st0" d="M139.2,47.8c-0.6,0-1.2-0.1-1.7-0.3c-0.5-0.2-1-0.6-1.5-1.2h-0.2c0.1,0.9,0.2,1.4,0.2,1.7v5.1h-4.4V34.8h3.6
		l0.6,1.6h0.2c0.8-1.2,1.9-1.8,3.4-1.8c1.4,0,2.5,0.6,3.3,1.8s1.2,2.8,1.2,4.8c0,2.1-0.4,3.7-1.3,4.8
		C141.8,47.2,140.7,47.8,139.2,47.8z M137.8,38c-0.6,0-1.1,0.2-1.4,0.7c-0.3,0.5-0.4,1.1-0.4,2v0.3c0,1.1,0.1,1.9,0.4,2.4
		s0.8,0.7,1.4,0.7c0.6,0,1-0.2,1.2-0.7c0.3-0.5,0.4-1.3,0.4-2.4c0-1.1-0.1-1.9-0.4-2.4C138.8,38.3,138.4,38,137.8,38z"/>
	<path class="st0" d="M153.6,34.6c0.4,0,0.7,0,1.1,0.1l0.2,0l-0.4,4.1c-0.4-0.1-0.9-0.1-1.5-0.1c-1,0-1.7,0.2-2.1,0.7
		c-0.4,0.4-0.7,1.1-0.7,1.9v6.3h-4.4V34.8h3.3l0.7,2h0.2c0.4-0.7,0.9-1.2,1.5-1.6C152.3,34.8,153,34.6,153.6,34.6z"/>
	<path class="st0" d="M168.4,41.2c0,2.1-0.6,3.7-1.7,4.9c-1.1,1.2-2.7,1.7-4.7,1.7c-1.9,0-3.5-0.6-4.6-1.8c-1.1-1.2-1.7-2.8-1.7-4.8
		c0-2.1,0.6-3.7,1.7-4.8c1.1-1.1,2.7-1.7,4.7-1.7c1.3,0,2.4,0.3,3.3,0.8s1.7,1.3,2.2,2.3C168.2,38.7,168.4,39.8,168.4,41.2z
		 M160.2,41.2c0,1.1,0.1,1.9,0.4,2.5c0.3,0.6,0.8,0.9,1.5,0.9c0.7,0,1.2-0.3,1.4-0.9c0.3-0.6,0.4-1.4,0.4-2.5c0-1.1-0.1-1.9-0.4-2.5
		s-0.8-0.8-1.5-0.8c-0.7,0-1.2,0.3-1.4,0.8C160.3,39.2,160.2,40.1,160.2,41.2z"/>
	<path class="st0" d="M176.7,44.3c0.6,0,1.3-0.1,2.1-0.4v3.2c-0.6,0.3-1.2,0.4-1.7,0.5c-0.5,0.1-1.2,0.2-1.9,0.2
		c-1.5,0-2.5-0.4-3.2-1.1s-1-1.8-1-3.3v-5.2h-1.5v-1.8l2-1.4l1.1-2.7h2.9v2.5h3.1v3.3h-3.1v5C175.5,43.9,175.9,44.3,176.7,44.3z"/>
	<path class="st0" d="M186.7,47.8c-2.1,0-3.8-0.6-4.9-1.7c-1.2-1.1-1.8-2.7-1.8-4.8c0-2.1,0.5-3.8,1.6-4.9c1.1-1.1,2.6-1.7,4.6-1.7
		c1.9,0,3.4,0.5,4.4,1.5c1,1,1.6,2.4,1.6,4.3v2h-7.9c0,0.7,0.3,1.3,0.8,1.7c0.5,0.4,1.2,0.6,2,0.6c0.8,0,1.5-0.1,2.1-0.2
		c0.6-0.1,1.3-0.4,2.1-0.7v3.2c-0.7,0.4-1.4,0.6-2.1,0.7S187.8,47.8,186.7,47.8z M186.5,37.6c-0.5,0-0.9,0.2-1.3,0.5
		c-0.3,0.3-0.6,0.8-0.6,1.5h3.8c0-0.6-0.2-1.1-0.5-1.5C187.5,37.8,187.1,37.6,186.5,37.6z"/>
	<path class="st0" d="M200.2,47.8c-2.1,0-3.7-0.6-4.7-1.7c-1.1-1.1-1.6-2.7-1.6-4.8c0-2.1,0.6-3.7,1.7-4.9s2.8-1.7,5-1.7
		c1.5,0,2.9,0.3,4.2,1l-1.3,3.2c-0.5-0.2-1-0.4-1.5-0.6c-0.4-0.1-0.9-0.2-1.4-0.2c-0.7,0-1.3,0.3-1.7,0.8s-0.6,1.3-0.6,2.3
		c0,2,0.8,3.1,2.3,3.1c1.3,0,2.5-0.4,3.7-1.1v3.5C203.1,47.4,201.7,47.8,200.2,47.8z"/>
	<path class="st0" d="M212.5,44.3c0.6,0,1.3-0.1,2.1-0.4v3.2c-0.6,0.3-1.2,0.4-1.7,0.5c-0.5,0.1-1.2,0.2-1.9,0.2
		c-1.5,0-2.5-0.4-3.2-1.1s-1-1.8-1-3.3v-5.2h-1.5v-1.8l2-1.4l1.1-2.7h2.9v2.5h3.1v3.3h-3.1v5C211.3,43.9,211.7,44.3,212.5,44.3z"/>
	<path class="st0" d="M228.2,44.3c0.6,0,1.3-0.1,2.1-0.4v3.2c-0.6,0.3-1.2,0.4-1.7,0.5c-0.5,0.1-1.2,0.2-1.9,0.2
		c-1.5,0-2.5-0.4-3.2-1.1s-1-1.8-1-3.3v-5.2h-1.5v-1.8l2-1.4l1.1-2.7h2.9v2.5h3.1v3.3H227v5C227,43.9,227.4,44.3,228.2,44.3z"/>
	<path class="st0" d="M240.1,47.5v-6.9c0-1.7-0.5-2.6-1.5-2.6c-0.7,0-1.2,0.3-1.6,0.9c-0.3,0.6-0.5,1.6-0.5,3v5.6h-4.4V30.1h4.4v2.5
		c0,1.1-0.1,2.4-0.2,3.8h0.2c0.4-0.7,0.9-1.1,1.5-1.4s1.2-0.4,2-0.4c1.4,0,2.5,0.4,3.3,1.2c0.8,0.8,1.2,2,1.2,3.4v8.3H240.1z"/>
	<path class="st0" d="M253.2,47.8c-2.1,0-3.8-0.6-4.9-1.7c-1.2-1.1-1.8-2.7-1.8-4.8c0-2.1,0.5-3.8,1.6-4.9c1.1-1.1,2.6-1.7,4.6-1.7
		c1.9,0,3.4,0.5,4.4,1.5c1,1,1.6,2.4,1.6,4.3v2H251c0,0.7,0.3,1.3,0.8,1.7c0.5,0.4,1.2,0.6,2,0.6c0.8,0,1.5-0.1,2.1-0.2
		c0.6-0.1,1.3-0.4,2.1-0.7v3.2c-0.7,0.4-1.4,0.6-2.1,0.7S254.3,47.8,253.2,47.8z M253,37.6c-0.5,0-0.9,0.2-1.3,0.5
		c-0.3,0.3-0.6,0.8-0.6,1.5h3.8c0-0.6-0.2-1.1-0.5-1.5C254,37.8,253.5,37.6,253,37.6z"/>
	<path class="st0" d="M272.2,47.8c-2.1,0-3.7-0.6-4.7-1.7c-1.1-1.1-1.6-2.7-1.6-4.8c0-2.1,0.6-3.7,1.7-4.9s2.8-1.7,5-1.7
		c1.5,0,2.9,0.3,4.2,1l-1.3,3.2c-0.5-0.2-1-0.4-1.5-0.6c-0.4-0.1-0.9-0.2-1.4-0.2c-0.7,0-1.3,0.3-1.7,0.8s-0.6,1.3-0.6,2.3
		c0,2,0.8,3.1,2.3,3.1c1.3,0,2.5-0.4,3.7-1.1v3.5C275.1,47.4,273.8,47.8,272.2,47.8z"/>
	<path class="st0" d="M290.5,41.2c0,2.1-0.6,3.7-1.7,4.9c-1.1,1.2-2.7,1.7-4.7,1.7c-1.9,0-3.5-0.6-4.6-1.8c-1.1-1.2-1.7-2.8-1.7-4.8
		c0-2.1,0.6-3.7,1.7-4.8c1.1-1.1,2.7-1.7,4.7-1.7c1.3,0,2.4,0.3,3.3,0.8s1.7,1.3,2.2,2.3C290.2,38.7,290.5,39.8,290.5,41.2z
		 M282.2,41.2c0,1.1,0.1,1.9,0.4,2.5c0.3,0.6,0.8,0.9,1.5,0.9c0.7,0,1.2-0.3,1.4-0.9c0.3-0.6,0.4-1.4,0.4-2.5c0-1.1-0.1-1.9-0.4-2.5
		s-0.8-0.8-1.5-0.8c-0.7,0-1.2,0.3-1.4,0.8C282.4,39.2,282.2,40.1,282.2,41.2z"/>
	<path class="st0" d="M301.6,47.5L301,46h-0.3c-0.4,0.6-0.9,1-1.5,1.3c-0.7,0.3-1.4,0.5-2.3,0.5c-1.4,0-2.5-0.4-3.3-1.2
		s-1.2-2-1.2-3.4v-8.3h4.4v7c0,0.8,0.1,1.5,0.4,1.9c0.2,0.4,0.6,0.6,1.2,0.6c0.8,0,1.3-0.3,1.6-0.9c0.3-0.6,0.5-1.6,0.5-3v-5.6h4.4
		v12.7H301.6z"/>
	<path class="st0" d="M315.5,47.5v-6.9c0-0.8-0.1-1.5-0.4-1.9c-0.2-0.4-0.6-0.6-1.2-0.6c-0.7,0-1.3,0.3-1.6,0.9s-0.5,1.6-0.5,3v5.6
		h-4.4V34.8h3.3l0.6,1.6h0.3c0.4-0.6,0.9-1,1.6-1.3c0.7-0.3,1.4-0.4,2.3-0.4c1.4,0,2.5,0.4,3.3,1.2c0.8,0.8,1.2,2,1.2,3.4v8.3H315.5
		z"/>
	<path class="st0" d="M328.7,44.3c0.6,0,1.3-0.1,2.1-0.4v3.2c-0.6,0.3-1.2,0.4-1.7,0.5c-0.5,0.1-1.2,0.2-1.9,0.2
		c-1.5,0-2.5-0.4-3.2-1.1s-1-1.8-1-3.3v-5.2h-1.5v-1.8l2-1.4l1.1-2.7h2.9v2.5h3.1v3.3h-3.1v5C327.5,43.9,327.9,44.3,328.7,44.3z"/>
	<path class="st0" d="M340.3,34.6c0.4,0,0.7,0,1.1,0.1l0.2,0l-0.4,4.1c-0.4-0.1-0.9-0.1-1.5-0.1c-1,0-1.7,0.2-2.1,0.7
		c-0.4,0.4-0.7,1.1-0.7,1.9v6.3h-4.4V34.8h3.3l0.7,2h0.2c0.4-0.7,0.9-1.2,1.5-1.6C339,34.8,339.6,34.6,340.3,34.6z"/>
	<path class="st0" d="M341.4,34.8h4.6l2.2,7.3c0.1,0.4,0.2,0.8,0.2,1.4h0.1c0.1-0.5,0.1-1,0.3-1.4l2.2-7.3h4.5l-5,13.5
		c-0.6,1.7-1.4,2.9-2.4,3.7c-0.9,0.7-2.2,1.1-3.7,1.1c-0.6,0-1.2-0.1-1.8-0.2v-3.4c0.4,0.1,0.8,0.1,1.4,0.1c0.4,0,0.7-0.1,1-0.2
		s0.5-0.4,0.8-0.6s0.4-0.7,0.7-1.3L341.4,34.8z"/>
	<path class="st0" d="M356,45.7c0-0.7,0.2-1.2,0.6-1.6c0.4-0.4,1-0.6,1.8-0.6c0.7,0,1.3,0.2,1.7,0.6s0.6,0.9,0.6,1.6
		c0,0.7-0.2,1.2-0.6,1.6c-0.4,0.4-1,0.6-1.7,0.6c-0.7,0-1.3-0.2-1.8-0.6C356.2,46.9,356,46.4,356,45.7z"/>
</g>
</svg>
