<?xml version="1.0" encoding="utf-8"?>
<!-- Generator: Adobe Illustrator 22.1.0, SVG Export Plug-In . SVG Version: 6.00 Build 0)  -->
<svg version="1.1" id="Layer_1" xmlns="http://www.w3.org/2000/svg" xmlns:xlink="http://www.w3.org/1999/xlink" x="0px" y="0px"
	 viewBox="0 0 728 90" style="enable-background:new 0 0 728 90;" xml:space="preserve">
<style type="text/css">
	.st0{fill:#FFFFFF;}
	.st1{fill:none;}
</style>
<polygon class="st0" points="470.2,36.4 490.2,36.4 495.3,51.5 493,51.5 488.6,38.6 469.5,38.6 "/>
<polygon class="st0" points="468.7,40.8 487,40.8 490.6,51.5 488.3,51.5 485.5,43 468.1,43 "/>
<polygon class="st0" points="467.5,45.4 461.4,63.9 463.3,65.3 468.7,47.5 482.4,47.5 483.1,45.4 "/>
<polygon class="st0" points="470.4,49.7 481.7,49.7 481,51.8 472,51.8 466.9,68.1 465.1,66.5 "/>
<polygon class="st0" points="469.2,69.7 485.3,80.9 486.9,79.5 471.6,68.7 475.6,55.9 473.7,54.5 "/>
<polygon class="st0" points="477.4,57.2 479.4,58.4 476.6,66.8 490.3,76.6 488.8,78.2 474.1,67.7 "/>
<polygon class="st0" points="492.5,72.9 481.2,65.3 479.6,66.4 492.4,75.6 508.6,63.8 507.7,61.7 "/>
<polygon class="st0" points="483.6,63.5 485,62.3 492.4,67.7 506.2,57.5 507.1,59.5 492.5,70.2 "/>
<polygon class="st0" points="492.2,62.5 493,64.5 505.6,55.4 499.2,36.4 497.1,36.4 503.2,54.5 "/>
<polygon class="st0" points="492.4,36.4 494.4,36.4 500.5,53.7 491.5,60.3 490.6,58.6 498.2,52.7 "/>
<polygon class="st0" points="468,10.4 466.5,12.8 465,10.4 463.2,10.4 463.2,16.7 464.9,16.7 464.9,13.1 466.5,15.5 466.5,15.5 
	468.1,13.1 468.1,16.7 469.8,16.7 469.8,10.4 "/>
<rect x="471" y="10.4" class="st0" width="1.7" height="6.3"/>
<polygon class="st0" points="473.9,10.4 473.9,16.7 478.6,16.7 478.6,15.1 475.6,15.1 475.6,10.4 "/>
<rect x="479.4" y="10.4" class="st0" width="1.7" height="6.3"/>
<polygon class="st0" points="481.9,10.4 481.9,11.9 483.8,11.9 483.8,16.7 485.6,16.7 485.6,11.9 487.4,11.9 487.4,10.4 "/>
<path class="st0" d="M490.4,12.4l0.7,1.8h-1.4L490.4,12.4z M489.6,10.4l-2.7,6.3h1.8l0.4-1.1h2.4l0.5,1.1h1.9l-2.7-6.3H489.6z"/>
<path class="st0" d="M494.5,10.4h3c1,0,1.6,0.3,2,0.7c0.4,0.4,0.6,0.8,0.6,1.5v0c0,1-0.5,1.6-1.3,1.9l1.5,2.2h-2l-1.3-1.9h0h-0.7
	v1.9h-1.7V10.4z M497.4,13.4c0.6,0,0.9-0.3,0.9-0.7v0c0-0.5-0.4-0.7-0.9-0.7h-1.1v1.5H497.4z"/>
<polygon class="st0" points="502.5,14.3 500.2,10.4 502.1,10.4 503.4,12.7 504.7,10.4 506.7,10.4 504.3,14.3 504.3,16.7 502.5,16.7 
	"/>
<path class="st0" d="M463.2,18.9h3.6c0.9,0,1.5,0.2,1.9,0.6c0.3,0.3,0.4,0.6,0.4,1.1v0c0,0.8-0.5,1.3-1.1,1.5
	c0.8,0.3,1.4,0.8,1.4,1.7v0c0,1.2-1,1.9-2.6,1.9h-3.6V18.9z M466.3,21.6c0.6,0,0.9-0.2,0.9-0.6v0c0-0.4-0.3-0.6-0.9-0.6h-1.2v1.2
	H466.3z M466.6,24.3c0.6,0,0.9-0.2,0.9-0.6v0c0-0.4-0.3-0.6-0.9-0.6h-1.5v1.3H466.6z"/>
<polygon class="st0" points="470.3,18.9 475.9,18.9 475.9,20.5 472.2,20.5 472.2,21.6 475.5,21.6 475.5,23.1 472.2,23.1 472.2,24.2 
	475.9,24.2 475.9,25.8 470.3,25.8 "/>
<polygon class="st0" points="476.9,18.9 478.7,18.9 481.6,22.5 481.6,18.9 483.5,18.9 483.5,25.8 481.8,25.8 478.8,22 478.8,25.8 
	476.9,25.8 "/>
<polygon class="st0" points="484.7,18.9 490.3,18.9 490.3,20.5 486.6,20.5 486.6,21.6 489.9,21.6 489.9,23.1 486.6,23.1 486.6,24.2 
	490.3,24.2 490.3,25.8 484.7,25.8 "/>
<polygon class="st0" points="491.3,18.9 496.8,18.9 496.8,20.6 493.2,20.6 493.2,21.7 496.5,21.7 496.5,23.3 493.2,23.3 493.2,25.8 
	491.3,25.8 "/>
<rect x="497.8" y="18.9" class="st0" width="1.9" height="6.9"/>
<polygon class="st0" points="502.7,20.6 500.6,20.6 500.6,18.9 506.7,18.9 506.7,20.6 504.6,20.6 504.6,25.8 502.7,25.8 "/>
<path class="st0" d="M464.5,28h1.1l1.8,4.3h-1.3l-0.3-0.8h-1.6l-0.3,0.8h-1.2L464.5,28z M465.5,30.6l-0.5-1.2l-0.5,1.2H465.5z"/>
<path class="st0" d="M467.4,31.7l0.7-0.8c0.4,0.3,0.9,0.5,1.4,0.5c0.3,0,0.5-0.1,0.5-0.3v0c0-0.2-0.1-0.3-0.7-0.4
	c-0.9-0.2-1.6-0.5-1.6-1.3v0c0-0.8,0.6-1.4,1.6-1.4c0.7,0,1.3,0.2,1.7,0.6l-0.6,0.8c-0.4-0.3-0.8-0.4-1.2-0.4
	c-0.3,0-0.4,0.1-0.4,0.3v0c0,0.2,0.1,0.3,0.7,0.4c1,0.2,1.6,0.5,1.6,1.3v0c0,0.9-0.7,1.4-1.7,1.4C468.7,32.4,468,32.2,467.4,31.7"/>
<path class="st0" d="M471.3,31.7l0.7-0.8c0.4,0.3,0.9,0.5,1.4,0.5c0.3,0,0.5-0.1,0.5-0.3v0c0-0.2-0.1-0.3-0.7-0.4
	c-0.9-0.2-1.6-0.5-1.6-1.3v0c0-0.8,0.6-1.4,1.6-1.4c0.7,0,1.3,0.2,1.7,0.6l-0.6,0.8c-0.4-0.3-0.8-0.4-1.2-0.4
	c-0.3,0-0.4,0.1-0.4,0.3v0c0,0.2,0.1,0.3,0.7,0.4c1,0.2,1.6,0.5,1.6,1.3v0c0,0.9-0.7,1.4-1.7,1.4C472.6,32.4,471.9,32.2,471.3,31.7"
	/>
<path class="st0" d="M475.5,30.2L475.5,30.2c0-1.2,1-2.2,2.3-2.2c1.3,0,2.3,1,2.3,2.2v0c0,1.2-1,2.2-2.3,2.2
	C476.4,32.4,475.5,31.4,475.5,30.2 M478.8,30.2L478.8,30.2c0-0.6-0.4-1.2-1.1-1.2c-0.6,0-1.1,0.5-1.1,1.1v0c0,0.6,0.4,1.1,1.1,1.1
	C478.4,31.3,478.8,30.8,478.8,30.2"/>
<path class="st0" d="M480.5,30.2L480.5,30.2c0-1.3,1-2.2,2.2-2.2c0.9,0,1.4,0.4,1.8,0.9l-0.9,0.7c-0.2-0.3-0.5-0.5-0.9-0.5
	c-0.6,0-1,0.5-1,1.1v0c0,0.6,0.4,1.1,1,1.1c0.4,0,0.7-0.2,1-0.5l0.9,0.6c-0.4,0.6-0.9,1-1.9,1C481.5,32.4,480.5,31.5,480.5,30.2"/>
<rect x="485.1" y="28.1" class="st0" width="1.2" height="4.3"/>
<path class="st0" d="M488.5,28h1.1l1.8,4.3h-1.3l-0.3-0.8h-1.6l-0.3,0.8h-1.2L488.5,28z M489.6,30.6l-0.5-1.2l-0.5,1.2H489.6z"/>
<polygon class="st0" points="492.4,29.1 491.1,29.1 491.1,28.1 494.8,28.1 494.8,29.1 493.6,29.1 493.6,32.3 492.4,32.3 "/>
<rect x="495.4" y="28.1" class="st0" width="1.2" height="4.3"/>
<path class="st0" d="M497.2,30.2L497.2,30.2c0-1.2,1-2.2,2.3-2.2c1.3,0,2.3,1,2.3,2.2v0c0,1.2-1,2.2-2.3,2.2S497.2,31.4,497.2,30.2
	 M500.6,30.2L500.6,30.2c0-0.6-0.4-1.2-1.1-1.2c-0.6,0-1.1,0.5-1.1,1.1v0c0,0.6,0.4,1.1,1.1,1.1C500.1,31.3,500.6,30.8,500.6,30.2"
	/>
<polygon class="st0" points="502.4,28.1 503.5,28.1 505.2,30.3 505.2,28.1 506.4,28.1 506.4,32.3 505.4,32.3 503.6,30 503.6,32.3 
	502.4,32.3 "/>
<rect x="461.4" y="10.4" class="st1" width="47.1" height="70.5"/>
</svg>
