<svg id="Layer_1" xmlns="http://www.w3.org/2000/svg" viewBox="0 0 160 600"><style>.st0{fill:#fff}</style><path class="st0" d="M22.4 452.9h3.7v5c-.6.2-1.2.3-1.7.4s-1.2.1-1.8.1c-1.5 0-2.7-.4-3.5-1.3-.8-.9-1.2-2.2-1.2-3.8 0-1.6.5-2.9 1.4-3.8.9-.9 2.2-1.4 3.8-1.4 1 0 2 .2 3 .6l-.6 1.4c-.8-.4-1.6-.6-2.4-.6-1.1 0-1.9.3-2.5 1s-.9 1.6-.9 2.7c0 1.2.3 2.1.8 2.8.6.6 1.4 1 2.4 1 .5 0 1.1-.1 1.7-.2v-2.6h-2.1v-1.3zM31.2 458.5c-1.2 0-2.1-.3-2.8-1-.7-.7-1-1.6-1-2.8 0-1.2.3-2.2.9-2.9s1.5-1.1 2.5-1.1 1.8.3 2.4.9.9 1.4.9 2.5v.9h-5c0 .7.2 1.3.6 1.7.4.4.9.6 1.6.6.4 0 .9 0 1.2-.1.4-.1.8-.2 1.2-.4v1.3c-.4.2-.8.3-1.2.4s-.8 0-1.3 0zm-.3-6.6c-.5 0-.9.2-1.2.5s-.5.8-.6 1.4h3.4c0-.6-.2-1.1-.5-1.4-.2-.4-.6-.5-1.1-.5zM38.4 457.2c.4 0 .8-.1 1.2-.2v1.2c-.2.1-.4.1-.7.2-.3.1-.6.1-.9.1-1.5 0-2.3-.8-2.3-2.4V452h-1v-.7l1.1-.6.5-1.6h1v1.7h2.2v1.2h-2.2v4c0 .4.1.7.3.9.2.2.5.3.8.3zM45.5 458.4h-1.6v-10.6h1.6v10.6zM47.3 448.8c0-.3.1-.5.2-.7s.4-.2.7-.2c.3 0 .5.1.7.2s.2.4.2.7c0 .3-.1.5-.2.6-.2.2-.4.2-.7.2-.3 0-.5-.1-.7-.2-.1-.1-.2-.3-.2-.6zm1.7 9.6h-1.6v-7.6H49v7.6zM54.7 452h-1.8v6.3h-1.6V452H50v-.8l1.2-.5v-.5c0-.9.2-1.6.6-2 .4-.4 1.1-.6 1.9-.6.6 0 1.1.1 1.7.3l-.4 1.2c-.4-.1-.8-.2-1.1-.2-.4 0-.6.1-.8.3-.2.2-.2.6-.2 1v.5h1.8v1.3zM58.8 458.5c-1.2 0-2.1-.3-2.8-1-.7-.7-1-1.6-1-2.8 0-1.2.3-2.2.9-2.9s1.5-1.1 2.5-1.1 1.8.3 2.4.9.9 1.4.9 2.5v.9h-5c0 .7.2 1.3.6 1.7.4.4.9.6 1.6.6.4 0 .9 0 1.2-.1.4-.1.8-.2 1.2-.4v1.3c-.4.2-.8.3-1.2.4s-.7 0-1.3 0zm-.3-6.6c-.5 0-.9.2-1.2.5s-.5.8-.6 1.4h3.4c0-.6-.2-1.1-.5-1.4-.1-.4-.5-.5-1.1-.5zM66.3 448.8c0-.3.1-.5.2-.7s.4-.2.7-.2c.3 0 .5.1.7.2s.2.4.2.7c0 .3-.1.5-.2.6-.2.2-.4.2-.7.2-.3 0-.5-.1-.7-.2-.1-.1-.2-.3-.2-.6zm1.7 9.6h-1.6v-7.6H68v7.6zM76.6 458.4H75v-4.6c0-.6-.1-1-.4-1.3s-.6-.5-1.1-.5c-.7 0-1.2.2-1.5.6s-.5 1.1-.5 2v3.8h-1.6v-7.6h1.3l.2 1h.1c.2-.4.6-.6 1-.8s.9-.3 1.4-.3c1.8 0 2.7.9 2.7 2.8v4.9zM83.5 456.2c0 .7-.3 1.3-.8 1.7-.5.4-1.3.6-2.3.6-1 0-1.8-.2-2.4-.5v-1.4c.9.4 1.7.6 2.5.6 1 0 1.5-.3 1.5-.9 0-.2-.1-.4-.2-.5s-.3-.3-.5-.4c-.3-.1-.6-.3-1-.5-.9-.3-1.5-.7-1.8-1s-.5-.8-.5-1.3c0-.6.3-1.1.8-1.5.5-.4 1.2-.5 2.1-.5.9 0 1.7.2 2.5.5l-.5 1.2c-.8-.3-1.5-.5-2.1-.5-.8 0-1.3.2-1.3.7 0 .2.1.4.3.6.2.2.7.4 1.4.7.6.2 1.1.5 1.4.7.3.2.5.4.6.7.2.3.3.6.3 1zM90.1 458.4l-.2-1h-.1c-.2.4-.5.6-1 .8-.4.2-.9.3-1.4.3-.9 0-1.6-.2-2.1-.7s-.7-1.1-.7-2.1v-4.9h1.6v4.7c0 .6.1 1 .4 1.3.2.3.6.4 1.1.4.7 0 1.2-.2 1.5-.6.3-.4.5-1.1.5-2v-3.8h1.6v7.6h-1.2zM97.1 450.7c.3 0 .6 0 .8.1l-.2 1.5c-.2-.1-.5-.1-.7-.1-.6 0-1.2.2-1.6.6-.4.4-.6 1-.6 1.6v4h-1.6v-7.6h1.3l.2 1.3h.1c.3-.5.6-.8 1-1.1.4-.2.9-.3 1.3-.3zM103.6 458.4l-.3-1.1h-.1c-.4.5-.7.8-1.1.9-.4.2-.8.2-1.4.2-.7 0-1.3-.2-1.7-.6-.4-.4-.6-1-.6-1.7 0-.8.3-1.4.9-1.8s1.5-.6 2.6-.6h1.3v-.4c0-.5-.1-.8-.3-1.1-.2-.2-.6-.4-1-.4s-.8.1-1.1.2-.7.2-1 .4l-.5-1.1c.4-.2.9-.4 1.3-.5.5-.1.9-.2 1.4-.2 1 0 1.7.2 2.2.6.5.4.7 1.1.7 2v5.1h-1.3zm-2.4-1.1c.6 0 1.1-.2 1.4-.5.4-.3.5-.8.5-1.4v-.7h-1c-.8 0-1.3.2-1.7.4-.3.2-.5.6-.5 1 0 .3.1.6.3.8.3.3.6.4 1 .4zM113.3 458.4h-1.6v-4.6c0-.6-.1-1-.4-1.3-.2-.3-.6-.4-1.1-.4-.7 0-1.2.2-1.5.6s-.5 1.1-.5 2v3.8h-1.6v-7.6h1.3l.2 1h.1c.2-.4.6-.6 1-.8s.9-.3 1.4-.3c1.8 0 2.7.9 2.7 2.8v4.8zM118.1 458.5c-1.1 0-2-.3-2.6-1-.6-.7-.9-1.6-.9-2.9 0-1.3.3-2.2.9-2.9.6-.7 1.5-1 2.7-1 .8 0 1.5.1 2.2.4l-.5 1.3c-.7-.3-1.2-.4-1.7-.4-1.3 0-2 .9-2 2.6 0 .8.2 1.5.5 1.9.3.4.8.6 1.4.6.7 0 1.4-.2 2-.5v1.4c-.3.2-.6.3-.9.4-.2.1-.6.1-1.1.1zM124.9 458.5c-1.2 0-2.1-.3-2.8-1-.7-.7-1-1.6-1-2.8 0-1.2.3-2.2.9-2.9s1.5-1.1 2.5-1.1 1.8.3 2.4.9.9 1.4.9 2.5v.9h-5c0 .7.2 1.3.6 1.7.4.4.9.6 1.6.6.4 0 .9 0 1.2-.1.4-.1.8-.2 1.2-.4v1.3c-.4.2-.8.3-1.2.4s-.8 0-1.3 0zm-.3-6.6c-.5 0-.9.2-1.2.5-.3.3-.5.8-.6 1.4h3.4c0-.6-.2-1.1-.5-1.4-.2-.4-.6-.5-1.1-.5z"/><g><path class="st0" d="M22.9 475.4l-.3-1.1h-.1c-.4.5-.7.8-1.1.9-.4.2-.8.2-1.4.2-.7 0-1.3-.2-1.7-.6s-.6-1-.6-1.7c0-.8.3-1.4.9-1.8s1.5-.6 2.6-.6h1.3v-.4c0-.5-.1-.8-.3-1.1-.2-.2-.6-.4-1-.4s-.8.1-1.1.2-.7.2-1 .4l-.5-1.1c.4-.2.9-.4 1.3-.5.5-.1.9-.2 1.4-.2 1 0 1.7.2 2.2.6s.7 1.1.7 2v5.1h-1.3zm-2.4-1.1c.6 0 1.1-.2 1.4-.5.4-.3.5-.8.5-1.4v-.7h-1c-.8 0-1.3.2-1.7.4-.3.2-.5.6-.5 1 0 .3.1.6.3.8.3.3.6.4 1 .4zM28.7 474.2c.4 0 .8-.1 1.2-.2v1.2c-.2.1-.4.1-.7.2-.3.1-.6.1-.9.1-1.5 0-2.3-.8-2.3-2.4V469h-1v-.7l1.1-.6.5-1.6h1v1.7h2.2v1.2h-2.2v4c0 .4.1.7.3.9.2.2.5.3.8.3zM37.2 475.5c-1.1 0-2-.3-2.6-1-.6-.7-.9-1.6-.9-2.9 0-1.3.3-2.2.9-2.9s1.5-1 2.7-1c.8 0 1.5.1 2.2.4l-.5 1.3c-.7-.3-1.2-.4-1.7-.4-1.3 0-2 .9-2 2.6 0 .8.2 1.5.5 1.9.3.4.8.6 1.4.6.7 0 1.4-.2 2-.5v1.4c-.3.2-.6.3-.9.4s-.6.1-1.1.1zM47.4 471.6c0 1.2-.3 2.2-1 2.9s-1.5 1-2.6 1c-.7 0-1.3-.2-1.9-.5s-1-.8-1.3-1.4-.4-1.3-.4-2.1c0-1.2.3-2.2.9-2.9s1.5-1 2.7-1c1.1 0 2 .4 2.6 1.1.7.7 1 1.7 1 2.9zm-5.5 0c0 1.7.6 2.6 1.9 2.6 1.3 0 1.9-.9 1.9-2.6 0-1.7-.6-2.6-1.9-2.6-.7 0-1.2.2-1.5.7s-.4 1-.4 1.9zM55.2 475.4h-1.6v-4.7c0-.6-.1-1-.3-1.3-.2-.3-.6-.4-1-.4-.6 0-1.1.2-1.4.6-.3.4-.4 1.1-.4 2v3.8h-1.6v-7.6h1.3l.2 1h.1c.2-.4.5-.6.9-.8s.8-.3 1.3-.3c1.2 0 1.9.4 2.3 1.2h.1c.2-.4.5-.7.9-.9s.9-.3 1.4-.3c.9 0 1.6.2 2 .7s.6 1.2.6 2.1v4.9h-1.6v-4.7c0-.6-.1-1-.3-1.3-.2-.3-.6-.4-1-.4-.6 0-1.1.2-1.4.6-.3.4-.4 1-.4 1.8v4zM65.6 475.5c-1 0-1.7-.3-2.2-1h-.1c.1.6.1 1 .1 1.2v3.1h-1.6v-10.9h1.3c0 .1.1.5.2 1h.1c.5-.8 1.3-1.1 2.3-1.1.9 0 1.7.3 2.2 1s.8 1.6.8 2.9-.3 2.2-.8 2.9-1.3.9-2.3.9zm-.4-6.5c-.6 0-1.1.2-1.4.6s-.4 1-.4 1.8v.2c0 .9.1 1.6.4 2 .3.4.8.6 1.4.6.6 0 1-.2 1.3-.7s.5-1.1.5-1.9c0-.8-.1-1.5-.4-1.9-.3-.5-.8-.7-1.4-.7zM73.4 475.5c-1.2 0-2.1-.3-2.8-1-.7-.7-1-1.6-1-2.8 0-1.2.3-2.2.9-2.9s1.5-1.1 2.5-1.1 1.8.3 2.4.9.9 1.4.9 2.5v.9h-5c0 .7.2 1.3.6 1.7.4.4.9.6 1.6.6.4 0 .9 0 1.2-.1.4-.1.8-.2 1.2-.4v1.3c-.4.2-.8.3-1.2.4s-.8 0-1.3 0zm-.3-6.6c-.5 0-.9.2-1.2.5s-.5.8-.6 1.4h3.4c0-.6-.2-1.1-.5-1.4-.2-.4-.6-.5-1.1-.5zM80.6 474.2c.4 0 .8-.1 1.2-.2v1.2c-.2.1-.4.1-.7.2-.3.1-.6.1-.9.1-1.5 0-2.3-.8-2.3-2.4V469h-1v-.7l1.1-.6.5-1.6h1v1.7h2.2v1.2h-2.2v4c0 .4.1.7.3.9.2.2.5.3.8.3zM82.7 465.8c0-.3.1-.5.2-.7.2-.2.4-.2.7-.2.3 0 .5.1.7.2.2.2.2.4.2.7 0 .3-.1.5-.2.6-.2.2-.4.2-.7.2-.3 0-.5-.1-.7-.2-.1-.1-.2-.3-.2-.6zm1.7 9.6h-1.6v-7.6h1.6v7.6zM89.1 474.2c.4 0 .8-.1 1.2-.2v1.2c-.2.1-.4.1-.7.2-.3.1-.6.1-.9.1-1.5 0-2.3-.8-2.3-2.4V469h-1v-.7l1.1-.6.5-1.6h1v1.7h2.2v1.2H88v4c0 .4.1.7.3.9.3.2.5.3.8.3zM91.3 465.8c0-.3.1-.5.2-.7.2-.2.4-.2.7-.2.3 0 .5.1.7.2.2.2.2.4.2.7 0 .3-.1.5-.2.6-.2.2-.4.2-.7.2-.3 0-.5-.1-.7-.2-.1-.1-.2-.3-.2-.6zm1.7 9.6h-1.6v-7.6H93v7.6zM96.6 475.4l-2.9-7.6h1.7l1.5 4.4c.3.7.4 1.3.5 1.8h.1c0-.3.2-.9.5-1.8l1.5-4.4h1.7l-2.9 7.6h-1.7zM105.3 475.5c-1.2 0-2.1-.3-2.8-1-.7-.7-1-1.6-1-2.8 0-1.2.3-2.2.9-2.9s1.5-1.1 2.5-1.1 1.8.3 2.4.9.9 1.4.9 2.5v.9h-5c0 .7.2 1.3.6 1.7.4.4.9.6 1.6.6.4 0 .9 0 1.2-.1.4-.1.8-.2 1.2-.4v1.3c-.4.2-.8.3-1.2.4s-.8 0-1.3 0zm-.3-6.6c-.5 0-.9.2-1.2.5-.3.3-.5.8-.6 1.4h3.4c0-.6-.2-1.1-.5-1.4-.2-.4-.6-.5-1.1-.5z"/></g><g><path class="st0" d="M24.5 484.8v.9l-1.3.2.3.6c.1.2.1.5.1.7 0 .8-.3 1.4-.8 1.8s-1.3.7-2.2.7c-.2 0-.5 0-.7-.1-.3.2-.5.5-.5.8 0 .2.1.3.2.4s.5.1.9.1h1.3c.8 0 1.5.2 1.9.5s.6.9.6 1.5c0 .9-.4 1.5-1.1 2s-1.7.7-3.1.7c-1 0-1.8-.2-2.4-.5s-.8-.9-.8-1.6c0-.5.1-.9.4-1.2.3-.3.7-.5 1.2-.7-.2-.1-.4-.2-.5-.4-.1-.2-.2-.4-.2-.6 0-.3.1-.5.2-.7s.4-.4.7-.6c-.4-.2-.7-.4-1-.8-.2-.4-.4-.8-.4-1.3 0-.8.3-1.5.8-1.9s1.3-.7 2.2-.7h.7c.2 0 .4.1.5.1h3zm-5.9 8.7c0 .3.2.6.5.8s.8.3 1.3.3c.9 0 1.5-.1 2-.4s.6-.6.6-1c0-.3-.1-.6-.4-.7-.2-.1-.7-.2-1.3-.2h-1.2c-.5 0-.8.1-1.1.3-.3.3-.4.6-.4.9zm.7-6.3c0 .5.1.8.4 1.1s.6.4 1 .4c.9 0 1.4-.5 1.4-1.5 0-.5-.1-.9-.3-1.1-.2-.3-.6-.4-1-.4-.5 0-.8.1-1.1.4s-.4.6-.4 1.1zM29.4 484.7c.3 0 .6 0 .8.1l-.2 1.5c-.2-.1-.5-.1-.7-.1-.6 0-1.2.2-1.6.6s-.6 1-.6 1.6v4h-1.6v-7.6h1.3l.2 1.3h.1c.3-.5.6-.8 1-1.1s.8-.3 1.3-.3zM37.9 488.6c0 1.2-.3 2.2-1 2.9s-1.5 1-2.6 1c-.7 0-1.3-.2-1.9-.5s-1-.8-1.3-1.4-.4-1.3-.4-2.1c0-1.2.3-2.2.9-2.9s1.5-1 2.7-1c1.1 0 2 .4 2.6 1.1.6.7 1 1.7 1 2.9zm-5.5 0c0 1.7.6 2.6 1.9 2.6 1.3 0 1.9-.9 1.9-2.6 0-1.7-.6-2.6-1.9-2.6-.7 0-1.2.2-1.5.7s-.4 1-.4 1.9zM44.6 492.4l-.2-1h-.1c-.2.4-.5.6-1 .8s-.9.3-1.4.3c-.9 0-1.6-.2-2.1-.7s-.7-1.1-.7-2.1v-4.9h1.6v4.7c0 .6.1 1 .4 1.3.2.3.6.4 1.1.4.7 0 1.2-.2 1.5-.6.3-.4.5-1.1.5-2v-3.8h1.6v7.6h-1.2zM51.6 492.5c-1 0-1.7-.3-2.2-1h-.1c.1.6.1 1 .1 1.2v3.1h-1.6v-10.9h1.3c0 .1.1.5.2 1h.1c.5-.8 1.3-1.1 2.3-1.1.9 0 1.7.3 2.2 1s.8 1.6.8 2.9-.3 2.2-.8 2.9-1.3.9-2.3.9zm-.4-6.5c-.6 0-1.1.2-1.4.6s-.4 1-.4 1.8v.2c0 .9.1 1.6.4 2 .3.4.8.6 1.4.6.6 0 1-.2 1.3-.7s.5-1.1.5-1.9c0-.8-.1-1.5-.4-1.9-.4-.5-.8-.7-1.4-.7zM63.1 492.5c-1 0-1.7-.3-2.2-1h-.1c.1.6.1 1 .1 1.2v3.1h-1.6v-10.9h1.3c0 .1.1.5.2 1h.1c.5-.8 1.3-1.1 2.3-1.1.9 0 1.7.3 2.2 1s.8 1.6.8 2.9-.3 2.2-.8 2.9-1.3.9-2.3.9zm-.3-6.5c-.6 0-1.1.2-1.4.6s-.4 1-.4 1.8v.2c0 .9.1 1.6.4 2 .3.4.8.6 1.4.6.6 0 1-.2 1.3-.7s.5-1.1.5-1.9c0-.8-.1-1.5-.4-1.9-.4-.5-.9-.7-1.4-.7zM71.4 484.7c.3 0 .6 0 .8.1l-.2 1.5c-.2-.1-.5-.1-.7-.1-.6 0-1.2.2-1.6.6s-.6 1-.6 1.6v4h-1.6v-7.6h1.3l.2 1.3h.1c.3-.5.6-.8 1-1.1s.9-.3 1.3-.3zM73.1 482.8c0-.3.1-.5.2-.7s.4-.2.7-.2c.3 0 .5.1.7.2s.2.4.2.7c0 .3-.1.5-.2.6-.2.2-.4.2-.7.2-.3 0-.5-.1-.7-.2-.1-.1-.2-.3-.2-.6zm1.7 9.6h-1.6v-7.6h1.6v7.6zM79.8 492.5c-1.1 0-2-.3-2.6-1-.6-.7-.9-1.6-.9-2.9 0-1.3.3-2.2.9-2.9s1.5-1 2.7-1c.8 0 1.5.1 2.2.4l-.5 1.3c-.7-.3-1.2-.4-1.7-.4-1.3 0-2 .9-2 2.6 0 .8.2 1.5.5 1.9.3.4.8.6 1.4.6.7 0 1.4-.2 2-.5v1.4c-.3.2-.6.3-.9.4-.3.1-.7.1-1.1.1zM83.1 482.8c0-.3.1-.5.2-.7.2-.2.4-.2.7-.2.3 0 .5.1.7.2.2.2.2.4.2.7 0 .3-.1.5-.2.6-.2.2-.4.2-.7.2-.3 0-.5-.1-.7-.2-.1-.1-.2-.3-.2-.6zm1.7 9.6h-1.6v-7.6h1.6v7.6zM93.4 492.4h-1.6v-4.6c0-.6-.1-1-.4-1.3-.2-.3-.6-.4-1.1-.4-.7 0-1.2.2-1.5.6s-.5 1.1-.5 2v3.8h-1.6v-7.6H88l.2 1h.1c.2-.4.6-.6 1-.8s.9-.3 1.4-.3c1.8 0 2.7.9 2.7 2.8v4.8zM101.6 484.8v.9l-1.3.2.3.6c.1.2.1.5.1.7 0 .8-.3 1.4-.8 1.8s-1.3.7-2.2.7c-.2 0-.5 0-.7-.1-.3.2-.5.5-.5.8 0 .2.1.3.2.4.2.1.5.1.9.1H99c.8 0 1.5.2 1.9.5s.6.9.6 1.5c0 .9-.4 1.5-1.1 2s-1.7.7-3.1.7c-1 0-1.8-.2-2.4-.5s-.8-.9-.8-1.6c0-.5.1-.9.4-1.2.3-.3.7-.5 1.2-.7-.2-.1-.4-.2-.5-.4-.1-.2-.2-.4-.2-.6 0-.3.1-.5.2-.7s.4-.4.7-.6c-.4-.2-.7-.4-1-.8-.2-.4-.4-.8-.4-1.3 0-.8.3-1.5.8-1.9.5-.5 1.3-.7 2.2-.7h.7c.2 0 .4.1.5.1h2.9zm-5.9 8.7c0 .3.2.6.5.8.3.2.8.3 1.3.3.9 0 1.5-.1 2-.4s.6-.6.6-1c0-.3-.1-.6-.4-.7-.2-.1-.7-.2-1.3-.2h-1.2c-.5 0-.8.1-1.1.3-.3.3-.4.6-.4.9zm.6-6.3c0 .5.1.8.4 1.1.2.3.6.4 1 .4.9 0 1.4-.5 1.4-1.5 0-.5-.1-.9-.3-1.1-.2-.3-.6-.4-1-.4-.5 0-.8.1-1.1.4-.2.3-.4.6-.4 1.1zM102.3 491.5c0-.3.1-.6.3-.8s.4-.3.8-.3c.3 0 .6.1.8.3.2.2.3.4.3.8 0 .3-.1.6-.3.8-.2.2-.4.3-.8.3s-.6-.1-.8-.3-.3-.5-.3-.8z"/></g></svg>