<svg id="Layer_1" xmlns="http://www.w3.org/2000/svg" viewBox="0 0 160 600"><style>.st0{fill:#fff}</style><path class="st0" d="M31.2 173.8h-4.3v-6.4H22v6.4h-4.3v-15.7H22v5.8h4.9v-5.8h4.3v15.7zM45.3 167.7c0 2-.5 3.5-1.6 4.7-1.1 1.1-2.6 1.7-4.5 1.7-1.8 0-3.3-.6-4.4-1.7-1.1-1.1-1.6-2.7-1.6-4.6 0-2 .5-3.5 1.6-4.6 1.1-1.1 2.6-1.6 4.5-1.6 1.2 0 2.3.3 3.2.8.9.5 1.6 1.2 2.1 2.2.4.7.7 1.9.7 3.1zm-7.9 0c0 1 .1 1.8.4 2.4s.7.8 1.4.8 1.1-.3 1.4-.8.4-1.3.4-2.4c0-1-.1-1.8-.4-2.4-.3-.5-.7-.8-1.4-.8-.6 0-1.1.3-1.4.8s-.4 1.4-.4 2.4zM54.7 173.8v-6.6c0-.8-.1-1.4-.3-1.8-.2-.4-.6-.6-1.1-.6-.7 0-1.2.3-1.5.8-.3.6-.5 1.5-.5 2.9v5.3H47v-12.2h3.2l.5 1.5h.3c.4-.6.9-1 1.5-1.3.6-.3 1.4-.4 2.2-.4 1.3 0 2.4.4 3.1 1.2.7.8 1.1 1.9 1.1 3.3v7.9h-4.2zM72.7 167.7c0 2-.5 3.5-1.6 4.7-1.1 1.1-2.6 1.7-4.5 1.7-1.8 0-3.3-.6-4.4-1.7-1.1-1.1-1.6-2.7-1.6-4.6 0-2 .5-3.5 1.6-4.6 1.1-1.1 2.6-1.6 4.5-1.6 1.2 0 2.3.3 3.2.8.9.5 1.6 1.2 2.1 2.2.5.7.7 1.9.7 3.1zm-7.8 0c0 1 .1 1.8.4 2.4s.7.8 1.4.8 1.1-.3 1.4-.8.4-1.3.4-2.4c0-1-.1-1.8-.4-2.4-.3-.5-.7-.8-1.4-.8-.6 0-1.1.3-1.4.8s-.4 1.4-.4 2.4zM81.8 161.4c.4 0 .7 0 1 .1h.2l-.4 4c-.3-.1-.8-.1-1.4-.1-.9 0-1.6.2-2 .6-.4.4-.6 1-.6 1.8v6h-4.2v-12.2h3.1l.7 1.9h.2c.4-.6.8-1.2 1.5-1.6.7-.3 1.3-.5 1.9-.5zM84.1 158.6c0-.6.2-1.1.5-1.4.4-.3.9-.5 1.7-.5s1.3.2 1.7.5c.4.3.5.8.5 1.4 0 1.2-.7 1.8-2.2 1.8-1.5.1-2.2-.5-2.2-1.8zm4.3 15.2h-4.2v-12.2h4.2v12.2zM98.3 173.8v-6.6c0-.8-.1-1.4-.3-1.8-.2-.4-.6-.6-1.1-.6-.7 0-1.2.3-1.5.8-.3.6-.5 1.5-.5 2.9v5.3h-4.2v-12.2h3.2l.5 1.5h.2c.4-.6.9-1 1.5-1.3.6-.3 1.4-.4 2.2-.4 1.3 0 2.4.4 3.1 1.2.7.8 1.1 1.9 1.1 3.3v7.9h-4.2zM116.2 161.7v2l-1.7.6c.2.4.3.9.3 1.5 0 1.3-.5 2.3-1.4 3.1-.9.7-2.3 1.1-4.1 1.1-.5 0-.8 0-1.1-.1-.1.2-.2.4-.2.5 0 .2.2.4.5.5.3.1.8.2 1.3.2h2c2.7 0 4.1 1.1 4.1 3.4 0 1.5-.6 2.6-1.9 3.5-1.3.8-3 1.2-5.3 1.2-1.7 0-3.1-.3-4-.9-.9-.6-1.4-1.4-1.4-2.5 0-1.5.9-2.4 2.7-2.8-.4-.2-.7-.4-1-.8-.3-.4-.4-.7-.4-1 0-.4.1-.7.3-1s.6-.6 1.3-1c-.6-.3-1.1-.7-1.5-1.3-.4-.6-.5-1.3-.5-2.2 0-1.3.5-2.4 1.4-3.1s2.2-1.1 3.9-1.1c.2 0 .6 0 1.1.1.5.1.9.1 1.2.1h4.4zm-9.2 13.6c0 .3.2.6.6.8.4.2.9.3 1.5.3 1 0 1.8-.1 2.4-.4.6-.3.9-.6.9-1 0-.3-.2-.5-.6-.7-.4-.1-.9-.2-1.6-.2h-1.6c-.5 0-.8.1-1.1.3-.3.4-.5.6-.5.9zm1.4-9.7c0 1.2.4 1.9 1.3 1.9.4 0 .7-.2.9-.5.2-.3.3-.8.3-1.4 0-1.3-.4-1.9-1.3-1.9-.8.1-1.2.7-1.2 1.9z"/><g><path class="st0" d="M23.4 194.7c.6 0 1.2-.1 2-.4v3.1c-.6.2-1.1.4-1.6.5-.5.1-1.1.2-1.8.2-1.4 0-2.4-.3-3.1-1-.6-.7-.9-1.8-.9-3.2v-5h-1.5v-1.7l1.9-1.3 1.1-2.6h2.8v2.4h3v3.1h-3v4.7c0 .8.4 1.2 1.1 1.2zM34.6 197.8v-6.6c0-1.6-.5-2.4-1.5-2.4-.7 0-1.2.3-1.5.9-.3.6-.5 1.5-.5 2.9v5.3h-4.2v-16.7h4.2v2.4c0 1.1-.1 2.3-.2 3.7h.2c.4-.6.9-1.1 1.4-1.3.6-.3 1.2-.4 1.9-.4 1.4 0 2.4.4 3.2 1.2.8.8 1.1 1.9 1.1 3.3v7.9h-4.1zM46.9 198c-2 0-3.6-.5-4.7-1.6s-1.7-2.6-1.7-4.6c0-2.1.5-3.6 1.6-4.7 1-1.1 2.5-1.6 4.4-1.6 1.8 0 3.2.5 4.2 1.4s1.5 2.3 1.5 4.1v1.9h-7.5c0 .7.3 1.2.7 1.6.5.4 1.1.6 1.9.6.7 0 1.4-.1 2-.2.6-.1 1.3-.4 2-.7v3c-.7.3-1.3.6-2 .7-.6.1-1.4.1-2.4.1zm-.2-9.7c-.5 0-.9.2-1.2.5s-.5.8-.6 1.5h3.6c0-.6-.2-1.1-.5-1.4-.4-.4-.8-.6-1.3-.6zM66.5 185.4c1.3 0 2.4.6 3.2 1.7.8 1.1 1.2 2.6 1.2 4.6 0 2-.4 3.5-1.2 4.6-.8 1.1-1.9 1.7-3.3 1.7-.5 0-.9 0-1.2-.1-.4-.1-.7-.2-.9-.4-.3-.2-.6-.5-1-.9H63l-.7 1.2H59v-16.7h4.2v3.8c0 .5-.1 1.2-.2 2.3h.2c.4-.6.9-1.1 1.4-1.4.6-.2 1.2-.4 1.9-.4zm-1.5 3.3c-.6 0-1 .2-1.3.6-.3.4-.4 1-.4 1.9v.6c0 1 .1 1.7.4 2.1.3.4.7.6 1.3.6.5 0 .9-.3 1.1-.8.3-.5.4-1.2.4-2.2 0-1.8-.5-2.8-1.5-2.8zM72.5 182.6c0-.6.2-1.1.5-1.4.4-.3.9-.5 1.7-.5.8 0 1.3.2 1.7.5.4.3.5.8.5 1.4 0 1.2-.7 1.8-2.2 1.8-1.5.1-2.2-.5-2.2-1.8zm4.3 15.2h-4.2v-12.2h4.2v12.2zM86.4 185.4c.4 0 .7 0 1 .1h.2l-.4 4c-.3-.1-.8-.1-1.4-.1-.9 0-1.6.2-2 .6-.4.4-.6 1-.6 1.8v6H79v-12.2h3.1l.7 1.9h.2c.4-.6.8-1.2 1.5-1.6s1.3-.5 1.9-.5zM94.7 194.7c.6 0 1.2-.1 2-.4v3.1c-.6.2-1.1.4-1.6.5-.5.1-1.1.2-1.8.2-1.4 0-2.4-.3-3.1-1-.6-.7-.9-1.8-.9-3.2v-5h-1.5v-1.7l1.9-1.3 1.1-2.6h2.8v2.4h3v3.1h-3v4.7c-.1.8.3 1.2 1.1 1.2zM105.8 197.8v-6.6c0-1.6-.5-2.4-1.5-2.4-.7 0-1.2.3-1.5.9-.3.6-.5 1.5-.5 2.9v5.3h-4.2v-16.7h4.2v2.4c0 1.1-.1 2.3-.2 3.7h.2c.4-.6.9-1.1 1.4-1.3s1.2-.4 1.9-.4c1.4 0 2.4.4 3.2 1.2.8.8 1.1 1.9 1.1 3.3v7.9h-4.1z"/></g><g><path class="st0" d="M29.1 219.7c0 2-.5 3.5-1.6 4.7-1.1 1.1-2.6 1.7-4.5 1.7-1.8 0-3.3-.6-4.4-1.7-1.1-1.1-1.6-2.7-1.6-4.6 0-2 .5-3.5 1.6-4.6 1.1-1.1 2.6-1.6 4.5-1.6 1.2 0 2.3.3 3.2.8.9.5 1.6 1.2 2.1 2.2.4.8.7 1.9.7 3.1zm-7.9 0c0 1 .1 1.8.4 2.4s.7.8 1.4.8 1.1-.3 1.4-.8.4-1.3.4-2.4c0-1-.1-1.8-.4-2.4-.3-.5-.7-.8-1.4-.8-.6 0-1.1.3-1.4.8s-.4 1.4-.4 2.4zM38.3 216.8h-2.6v9h-4.2v-9h-1.6v-2.1l1.7-1v-.2c0-1.6.3-2.8 1-3.5.7-.7 1.7-1.1 3.2-1.1.6 0 1.1 0 1.6.1s1.1.2 1.7.5l-.9 2.7c-.5-.1-1-.2-1.5-.2-.3 0-.6.1-.7.3-.1.2-.2.5-.2 1v.3h2.6v3.2zM50.3 222.7c.6 0 1.2-.1 2-.4v3.1c-.6.2-1.1.4-1.6.5-.5.1-1.1.2-1.8.2-1.4 0-2.4-.3-3.1-1-.6-.7-.9-1.8-.9-3.2v-5h-1.5v-1.7l1.9-1.3 1.1-2.6h2.8v2.4h3v3.1h-3v4.7c0 .8.3 1.2 1.1 1.2zM61.5 225.8v-6.6c0-1.6-.5-2.4-1.5-2.4-.7 0-1.2.3-1.5.9-.3.6-.5 1.5-.5 2.9v5.3h-4.2v-16.7H58v2.4c0 1.1-.1 2.3-.2 3.7h.2c.4-.6.9-1.1 1.4-1.3.6-.3 1.2-.4 1.9-.4 1.4 0 2.4.4 3.2 1.2.8.8 1.1 1.9 1.1 3.3v7.9h-4.1zM73.8 226.1c-2 0-3.6-.5-4.7-1.6s-1.7-2.6-1.7-4.6c0-2.1.5-3.6 1.6-4.7 1-1.1 2.5-1.6 4.4-1.6 1.8 0 3.2.5 4.2 1.4s1.5 2.3 1.5 4.1v1.9h-7.5c0 .7.3 1.2.7 1.6.5.4 1.1.6 1.9.6.7 0 1.4-.1 2-.2.6-.1 1.3-.4 2-.7v3c-.7.3-1.3.6-2 .7-.6 0-1.4.1-2.4.1zm-.3-9.8c-.5 0-.9.2-1.2.5s-.5.8-.6 1.5h3.6c0-.6-.2-1.1-.5-1.4-.3-.4-.7-.6-1.3-.6z"/></g><g><path class="st0" d="M31.1 238.1v9.5c0 2.1-.6 3.6-1.7 4.8-1.2 1.1-2.8 1.7-5 1.7-2.1 0-3.8-.5-4.9-1.6s-1.7-2.7-1.7-4.7v-9.5h4.3v9.2c0 1.1.2 1.9.6 2.4.4.5 1 .8 1.8.8.9 0 1.5-.2 1.9-.7.4-.5.6-1.3.6-2.4v-9.2h4.1zM33 252.1c0-.7.2-1.2.6-1.5.4-.4 1-.5 1.7-.5s1.3.2 1.6.5c.4.4.6.9.6 1.5s-.2 1.1-.6 1.5c-.4.4-.9.5-1.6.5-.7 0-1.3-.2-1.7-.5s-.6-.9-.6-1.5zM49.7 249.1c0 1-.2 1.8-.7 2.6-.5.8-1.2 1.3-2.1 1.8-.9.4-2 .6-3.3.6-1 0-1.9-.1-2.6-.2s-1.4-.4-2.2-.8v-3.8c.8.4 1.7.7 2.5 1 .9.2 1.7.3 2.4.3.6 0 1.1-.1 1.4-.3.3-.2.4-.5.4-.8 0-.2-.1-.4-.2-.6s-.3-.3-.6-.5-1-.5-2.1-1c-1-.5-1.8-.9-2.3-1.4-.5-.4-.9-.9-1.1-1.5-.2-.6-.4-1.2-.4-2 0-1.4.5-2.6 1.6-3.4 1.1-.8 2.5-1.2 4.3-1.2 1.6 0 3.3.4 5 1.1l-1.3 3.3c-1.5-.7-2.7-1-3.8-1-.6 0-1 .1-1.2.3-.3.2-.4.4-.4.7 0 .3.2.6.5.8.3.2 1.2.7 2.6 1.3 1.4.6 2.3 1.3 2.8 2s.8 1.6.8 2.7zM50.7 252.1c0-.7.2-1.2.6-1.5.4-.4 1-.5 1.7-.5s1.3.2 1.6.5c.4.4.6.9.6 1.5s-.2 1.1-.6 1.5c-.4.4-.9.5-1.6.5-.7 0-1.3-.2-1.7-.5s-.6-.9-.6-1.5zM71.9 253.8l-.8-2.9H66l-.8 2.9h-4.7l5.1-15.8h5.7l5.2 15.8h-4.6zm-1.7-6.4l-.7-2.6c-.2-.6-.3-1.3-.6-2.2-.2-.9-.4-1.6-.4-2-.1.4-.2 1-.4 1.8s-.6 2.5-1.3 5h3.4zM84.7 241.5c.4 0 .7 0 1 .1h.2l-.4 4c-.3-.1-.8-.1-1.4-.1-.9 0-1.6.2-2 .6s-.6 1-.6 1.8v6h-4.2v-12.2h3.1l.7 1.9h.2c.4-.6.8-1.2 1.5-1.6.6-.3 1.2-.5 1.9-.5zM101.9 253.8v-6.6c0-.8-.1-1.4-.3-1.9-.2-.4-.6-.6-1.1-.6-.6 0-1.1.3-1.4.8-.3.6-.5 1.4-.5 2.6v5.7h-4.2v-6.6c0-.8-.1-1.4-.3-1.9-.2-.4-.6-.6-1-.6-.7 0-1.1.3-1.4.9-.3.6-.5 1.5-.5 2.9v5.3H87v-12.2h3.2l.5 1.5h.2c.3-.6.8-1 1.4-1.3.6-.3 1.3-.4 2.1-.4 1.8 0 3 .5 3.7 1.6h.3c.3-.5.8-.9 1.4-1.2.6-.3 1.3-.4 2-.4 1.4 0 2.5.4 3.2 1.1.7.7 1 1.9 1 3.4v7.9h-4.1zM106.8 241.7h4.4l2.1 7c.1.4.2.8.2 1.3h.1c.1-.5.1-.9.3-1.3l2.1-7h4.3l-4.8 12.9c-.6 1.6-1.4 2.8-2.3 3.5-.9.7-2.1 1-3.5 1-.6 0-1.1-.1-1.7-.2v-3.3c.4.1.8.1 1.3.1.4 0 .7-.1 1-.2.3-.1.5-.3.7-.6.2-.3.4-.7.7-1.3l-4.9-11.9zM120.6 252.1c0-.7.2-1.2.6-1.5.4-.4 1-.5 1.7-.5s1.3.2 1.6.5c.4.4.6.9.6 1.5s-.2 1.1-.6 1.5c-.4.4-.9.5-1.6.5-.7 0-1.3-.2-1.7-.5s-.6-.9-.6-1.5z"/></g><g><path class="st0" d="M27 289.8h-9.3v-15.7H27v3.4h-5v2.5h4.7v3.4H22v3h5v3.4zM38.3 286.1c0 1.3-.4 2.3-1.3 3-.9.7-2.2 1-3.8 1-.9 0-1.7 0-2.4-.1s-1.3-.3-2-.5V286c.7.3 1.4.5 2.1.7.8.2 1.5.3 2.1.3.9 0 1.4-.2 1.4-.6 0-.2-.1-.4-.4-.6-.3-.2-1-.5-2.2-1-1.1-.5-1.9-1-2.3-1.6-.4-.6-.7-1.3-.7-2.2 0-1.1.4-2 1.3-2.6.9-.6 2.1-.9 3.7-.9.8 0 1.6.1 2.3.3.7.2 1.4.4 2.2.8l-1.1 2.7c-.6-.3-1.1-.5-1.8-.6-.6-.2-1.1-.3-1.5-.3-.7 0-1 .2-1 .5 0 .2.1.4.4.5.2.1.9.4 2.1.9.9.4 1.5.7 1.9 1 .4.3.7.7.9 1.2 0 .4.1.9.1 1.6zM45.9 286.7c.6 0 1.2-.1 2-.4v3.1c-.6.2-1.1.4-1.6.5-.5.1-1.1.2-1.8.2-1.4 0-2.4-.3-3.1-1-.6-.7-.9-1.8-.9-3.2v-5H39v-1.7l1.9-1.3 1.1-2.6h2.8v2.4h3v3.1h-3v4.7c0 .8.4 1.2 1.1 1.2zM57.4 289.8l-.8-1.6h-.1c-.6.7-1.1 1.2-1.7 1.4-.6.3-1.3.4-2.3.4-1.1 0-2-.3-2.7-1-.7-.7-1-1.7-1-2.9 0-1.3.5-2.3 1.4-2.9s2.2-1 3.9-1.1l2-.1v-.2c0-1-.5-1.5-1.5-1.5-.9 0-2 .3-3.4.9l-1.2-2.8c1.4-.7 3.2-1.1 5.4-1.1 1.6 0 2.8.4 3.6 1.2.9.8 1.3 1.9 1.3 3.2v8h-2.9zm-3.1-2.7c.5 0 .9-.2 1.3-.5s.5-.7.5-1.3v-.9h-1c-1.4.1-2.1.6-2.1 1.5.1.8.5 1.2 1.3 1.2zM69.9 277.5c1.3 0 2.4.6 3.2 1.7.8 1.1 1.2 2.6 1.2 4.6 0 2-.4 3.5-1.2 4.6-.8 1.1-1.9 1.7-3.3 1.7-.5 0-.9 0-1.2-.1-.4-.1-.7-.2-.9-.4-.3-.2-.6-.5-1-.9h-.3l-.7 1.2h-3.3v-16.7h4.2v3.8c0 .5-.1 1.2-.2 2.3h.2c.4-.6.9-1.1 1.4-1.4.6-.3 1.3-.4 1.9-.4zm-1.5 3.3c-.6 0-1 .2-1.3.6-.3.4-.4 1-.4 1.9v.6c0 1 .1 1.7.4 2.1.3.4.7.6 1.3.6.5 0 .9-.3 1.1-.8.3-.5.4-1.2.4-2.2.1-1.9-.4-2.8-1.5-2.8zM80.2 289.8H76v-16.7h4.2v16.7zM82.4 274.6c0-.6.2-1.1.5-1.4.4-.3.9-.5 1.7-.5s1.3.2 1.7.5c.4.3.5.8.5 1.4 0 1.2-.7 1.8-2.2 1.8-1.5.1-2.2-.5-2.2-1.8zm4.3 15.2h-4.2v-12.2h4.2v12.2zM98.3 286.1c0 1.3-.4 2.3-1.3 3s-2.2 1-3.8 1c-.9 0-1.7 0-2.4-.1s-1.3-.3-2-.5V286c.7.3 1.4.5 2.1.7.8.2 1.5.3 2.1.3.9 0 1.4-.2 1.4-.6 0-.2-.1-.4-.4-.6-.3-.2-1-.5-2.2-1-1.1-.5-1.9-1-2.3-1.6-.4-.6-.7-1.3-.7-2.2 0-1.1.4-2 1.3-2.6.9-.6 2.1-.9 3.7-.9.8 0 1.6.1 2.3.3.7.2 1.4.4 2.2.8l-1.1 2.7c-.6-.3-1.1-.5-1.8-.6-.6-.2-1.1-.3-1.5-.3-.7 0-1 .2-1 .5 0 .2.1.4.4.5.2.1.9.4 2.1.9.9.4 1.5.7 1.9 1 .4.3.7.7.9 1.2 0 .4.1.9.1 1.6zM107.7 289.8v-6.6c0-1.6-.5-2.4-1.5-2.4-.7 0-1.2.3-1.5.9-.3.6-.5 1.5-.5 2.9v5.3H100v-16.7h4.2v2.4c0 1.1-.1 2.3-.2 3.7h.2c.4-.6.9-1.1 1.4-1.3s1.2-.4 1.9-.4c1.4 0 2.4.4 3.2 1.2.8.8 1.1 1.9 1.1 3.3v7.9h-4.1zM120 290.1c-2 0-3.6-.5-4.7-1.6s-1.7-2.6-1.7-4.6c0-2.1.5-3.6 1.6-4.7 1-1.1 2.5-1.6 4.4-1.6 1.8 0 3.2.5 4.2 1.4 1 1 1.5 2.3 1.5 4.1v1.9h-7.5c0 .7.3 1.2.7 1.6.5.4 1.1.6 1.9.6.7 0 1.4-.1 2-.2.6-.1 1.3-.4 2-.7v3c-.7.3-1.3.6-2 .7s-1.4.1-2.4.1zm-.3-9.8c-.5 0-.9.2-1.2.5-.3.3-.5.8-.6 1.5h3.6c0-.6-.2-1.1-.5-1.4-.3-.4-.7-.6-1.3-.6zM130.8 290.1c-.9 0-1.6-.2-2.3-.7-.6-.5-1.1-1.2-1.5-2.2-.4-1-.5-2.1-.5-3.4 0-2 .4-3.5 1.2-4.6s1.9-1.7 3.3-1.7c.7 0 1.3.1 1.8.4.5.3 1 .7 1.4 1.4h.1c-.1-1-.2-1.9-.2-2.9v-3.3h4.2v16.7h-3.2l-.9-1.5h-.2c-.7 1.2-1.7 1.8-3.2 1.8zm1.7-3.4c.7 0 1.1-.2 1.4-.6.3-.4.4-1.1.4-2v-.3c0-1.1-.2-1.8-.5-2.3-.3-.5-.8-.7-1.5-.7-.6 0-1 .3-1.3.8-.3.5-.5 1.3-.5 2.2 0 .9.2 1.7.5 2.2s1 .7 1.5.7z"/></g><g><path class="st0" d="M26.1 313.8h-4.3v-8.3c0-1 0-1.9.1-2.8-.3.3-.6.7-1 1l-1.8 1.5-2.2-2.7 5.4-4.4h3.8v15.7zM30.5 313.8l5.4-12.2h-6.8v-3.5h11.3v2.5l-5.5 13.2h-4.4zM42.8 313.8l5.4-12.2h-6.8v-3.5h11.3v2.5l-5.5 13.2h-4.4zM59.9 303.5c.9 0 1.7.2 2.4.6.7.4 1.3 1 1.7 1.8.4.8.6 1.7.6 2.7 0 1.8-.5 3.1-1.6 4-1.1.9-2.7 1.4-4.8 1.4-1.8 0-3.3-.3-4.5-.8v-3.5c.6.3 1.3.5 2.1.7s1.5.3 2 .3c.8 0 1.4-.2 1.8-.5.4-.3.6-.8.6-1.5 0-.6-.2-1.1-.6-1.4s-1.1-.5-2-.5c-.7 0-1.4.1-2.2.4l-1.6-.8.6-8.3h9v3.5h-5.3l-.2 2.1c.6-.1 1-.2 1.2-.2.4.1.6 0 .8 0zM66 312.1c0-.7.2-1.2.6-1.5.4-.4 1-.5 1.7-.5s1.3.2 1.6.5c.4.4.6.9.6 1.5s-.2 1.1-.6 1.5c-.4.4-.9.5-1.6.5-.7 0-1.3-.2-1.7-.5s-.6-.9-.6-1.5z"/></g></svg>