<svg id="Layer_1" xmlns="http://www.w3.org/2000/svg" viewBox="0 0 160 600"><style>.st0{fill:#fff}.st1{fill:none}</style><path class="st0" d="M85.6 350.8h27.1l6.9 20.4h-3.1l-6-17.4H84.7z"/><path class="st0" d="M83.6 356.7h24.8l4.9 14.5h-3.1l-3.9-11.4-23.6-.1z"/><path class="st0" d="M81.9 363l-8.2 25.2 2.5 1.8 7.4-24.2h18.6l.9-2.8z"/><path class="st0" d="M85.9 368.8h15.3l-1 2.8H88.1l-6.9 22.2-2.5-2.1z"/><path class="st0" d="M84.2 395.9l21.9 15.2 2.2-1.9-20.9-14.6 5.5-17.4-2.6-1.9z"/><path class="st0" d="M95.4 379l2.6 1.6-3.7 11.5 18.6 13.2-2.1 2.1-19.9-14.2z"/><path class="st0" d="M115.8 400.4L100.5 390l-2.2 1.5 17.4 12.4 21.9-15.9-1.1-2.9z"/><path class="st0" d="M103.7 387.6l2-1.6 10 7.2 18.7-13.7 1.3 2.6-19.9 14.6z"/><path class="st0" d="M115.4 386.2l1.1 2.8 17.1-12.5-8.7-25.7H122l8.4 24.5z"/><path class="st0" d="M115.7 350.8h2.7l8.3 23.5-12.3 9-1.1-2.4 10.2-7.9zM82.6 315.6l-2 3.2-2.1-3.2h-2.4v8.5h2.3v-4.9l2.1 3.3h.1l2.1-3.3v4.9h2.4v-8.5zM86.6 315.6H89v8.5h-2.4zM90.6 315.6v8.5H97V322h-4.1v-6.4zM98.1 315.6h2.4v8.5h-2.4zM101.5 315.6v2h2.6v6.5h2.3v-6.5h2.6v-2zM113 318.3l.9 2.4H112l1-2.4zm-1.1-2.8l-3.6 8.6h2.5l.6-1.5h3.3l.6 1.5h2.5l-3.6-8.6h-2.3zM118.6 315.6h4c1.3 0 2.2.3 2.8.9.5.5.8 1.1.8 2 0 1.3-.7 2.2-1.7 2.6l2 3h-2.7l-1.7-2.6h-1v2.6h-2.4v-8.5zm3.9 4c.8 0 1.3-.4 1.3-1 0-.7-.5-1-1.3-1H121v2h1.5zM129.4 320.9l-3.2-5.3h2.7l1.7 3.1 1.8-3.1h2.6l-3.2 5.2v3.3h-2.4zM76.1 327.1H81c1.2 0 2 .3 2.6.8.4.4.6.9.6 1.5 0 1.1-.6 1.7-1.4 2.1 1.1.4 1.9 1 1.9 2.3 0 1.6-1.3 2.6-3.6 2.6h-4.8v-9.3zm4.2 3.7c.8 0 1.2-.3 1.2-.8s-.4-.8-1.2-.8h-1.7v1.7h1.7zm.4 3.6c.8 0 1.2-.3 1.2-.9 0-.5-.4-.8-1.3-.8h-2v1.7h2.1zM85.7 327.1h7.6v2.2h-5v1.4h4.5v2.1h-4.5v1.5h5.1v2.2h-7.7zM94.7 327.1h2.4l3.9 4.9v-4.9h2.6v9.4h-2.3l-4-5.2v5.2h-2.6zM105.2 327.1h7.6v2.2h-5v1.4h4.5v2.1h-4.5v1.5h5.1v2.2h-7.7zM114.2 327.1h7.5v2.3h-4.9v1.5h4.4v2.2h-4.4v3.4h-2.6zM123 327.1h2.6v9.4H123zM129.6 329.4h-2.8v-2.3h8.2v2.3h-2.8v7.1h-2.6zM77.8 339.5h1.5l2.5 5.8h-1.7l-.4-1h-2.2l-.4 1h-1.7l2.4-5.8zm1.4 3.5l-.6-1.6-.7 1.6h1.3zM81.8 344.4l.9-1.1c.6.5 1.2.7 1.9.7.4 0 .7-.1.7-.4 0-.2-.2-.4-1-.6-1.2-.3-2.2-.6-2.2-1.8 0-1.1.8-1.8 2.2-1.8 1 0 1.7.3 2.4.8l-.8 1.1c-.5-.4-1.1-.6-1.6-.6-.4 0-.6.2-.6.4 0 .3.2.4 1 .6 1.3.3 2.1.7 2.1 1.8 0 1.2-.9 1.9-2.3 1.9-1 0-2-.3-2.7-1M87.1 344.4l.9-1.1c.6.5 1.2.7 1.9.7.4 0 .7-.1.7-.4 0-.2-.2-.4-1-.6-1.2-.3-2.2-.6-2.2-1.8 0-1.1.8-1.8 2.2-1.8 1 0 1.7.3 2.4.8l-.8 1.1c-.5-.4-1.1-.6-1.6-.6-.4 0-.6.2-.6.4 0 .3.2.4 1 .6 1.3.3 2.1.7 2.1 1.8 0 1.2-.9 1.9-2.3 1.9-1 0-2-.3-2.7-1M92.7 342.4c0-1.7 1.3-3 3.1-3s3.1 1.3 3.1 3-1.3 3-3.1 3-3.1-1.3-3.1-3m4.6 0c0-.8-.6-1.6-1.5-1.6s-1.5.7-1.5 1.5.6 1.6 1.5 1.6c.9.1 1.5-.7 1.5-1.5M99.6 342.4c0-1.7 1.3-3 3-3 1.2 0 1.9.5 2.4 1.2l-1.2.9c-.3-.4-.7-.7-1.3-.7-.8 0-1.4.7-1.4 1.5 0 .9.6 1.5 1.4 1.5.6 0 1-.3 1.3-.7l1.2.9c-.5.8-1.3 1.3-2.6 1.3-1.5.1-2.8-1.2-2.8-2.9M105.8 339.5h1.6v5.8h-1.6zM110.5 339.5h1.5l2.5 5.8h-1.7l-.4-1h-2.2l-.4 1H108l2.5-5.8zm1.4 3.5l-.6-1.6-.7 1.6h1.3zM115.7 340.9H114v-1.4h5v1.4h-1.7v4.4h-1.6zM119.7 339.5h1.6v5.8h-1.6zM122.2 342.4c0-1.7 1.3-3 3.1-3s3.1 1.3 3.1 3-1.3 3-3.1 3-3.1-1.3-3.1-3m4.6 0c0-.8-.6-1.6-1.5-1.6s-1.5.7-1.5 1.5.6 1.6 1.5 1.6c.9.1 1.5-.7 1.5-1.5M129.2 339.5h1.5l2.4 3.1v-3.1h1.6v5.8h-1.4l-2.5-3.2v3.2h-1.6z"/><path class="st1" d="M73.7 315.5h63.9v95.6H73.7z"/></svg>