<svg id="Layer_1" xmlns="http://www.w3.org/2000/svg" viewBox="0 0 728 90"><style>.st0{fill:#fff}</style><path class="st0" d="M24.6 51.2l2.5-5.3h4.2l-4.7 8.7v5.6h-3.9v-5.5L18 45.9h4.2l2.4 5.3zM42.8 54.6c0 1.8-.5 3.2-1.5 4.2s-2.3 1.5-4.1 1.5c-1.7 0-3-.5-4-1.6s-1.5-2.4-1.5-4.2c0-1.8.5-3.2 1.5-4.2s2.3-1.5 4.1-1.5c1.1 0 2 .2 2.9.7s1.5 1.1 1.9 2 .7 2 .7 3.1zm-7.2 0c0 1 .1 1.7.4 2.2s.7.7 1.3.7c.6 0 1-.2 1.3-.7s.4-1.2.4-2.2c0-.9-.1-1.7-.4-2.1s-.7-.7-1.3-.7c-.6 0-1 .2-1.3.7s-.4 1.2-.4 2.1zM52.4 60.2l-.5-1.4h-.2c-.3.5-.8.9-1.3 1.2s-1.2.4-2 .4c-1.2 0-2.2-.4-2.8-1.1s-1-1.7-1-3v-7.2h3.8v6c0 .7.1 1.3.3 1.6s.5.6 1 .6c.7 0 1.1-.3 1.4-.8s.4-1.4.4-2.6v-4.8h3.8v11.1h-2.9zM69.3 60.2v-6c0-1.5-.4-2.2-1.3-2.2-.6 0-1.1.3-1.4.8s-.4 1.4-.4 2.6v4.9h-3.8V45h3.8v2.2c0 1-.1 2.1-.2 3.3h.2c.4-.6.8-1 1.3-1.2s1.1-.4 1.7-.4c1.2 0 2.2.4 2.9 1.1s1 1.7 1 3v7.2h-3.8zM80.7 60.4c-1.8 0-3.3-.5-4.3-1.5s-1.5-2.4-1.5-4.2c0-1.9.5-3.3 1.4-4.3s2.3-1.5 4-1.5c1.7 0 3 .4 3.9 1.3s1.4 2.1 1.4 3.8v1.7h-6.8c0 .6.3 1.1.7 1.5s1 .5 1.7.5 1.3-.1 1.9-.2 1.2-.3 1.8-.6v2.7c-.6.3-1.2.5-1.9.6s-1.4.2-2.3.2zm-.2-8.9c-.4 0-.8.1-1.1.4s-.5.7-.5 1.3h3.3c0-.5-.2-1-.5-1.3s-.7-.4-1.2-.4zM91.2 60.2h-3.8V45h3.8v15.2zM100.1 60.4c-.6 0-1.1-.1-1.5-.3s-.9-.5-1.3-1h-.2c.1.8.2 1.3.2 1.4V65h-3.8V49.1h3.1l.5 1.4h.2c.7-1.1 1.7-1.6 2.9-1.6s2.2.5 2.9 1.5 1 2.4 1 4.2c0 1.8-.4 3.2-1.1 4.2s-1.7 1.6-2.9 1.6zm-1.3-8.5c-.6 0-1 .2-1.2.6s-.3 1-.4 1.8v.3c0 1 .1 1.6.4 2.1s.7.6 1.2.6.8-.2 1.1-.6.3-1.1.3-2.1-.1-1.6-.3-2-.6-.7-1.1-.7zM117.3 60.4c-.6 0-1.1-.1-1.5-.3s-.9-.5-1.3-1h-.2c.1.8.2 1.3.2 1.4V65h-3.8V49.1h3.1l.5 1.4h.2c.7-1.1 1.7-1.6 2.9-1.6s2.2.5 2.9 1.5 1 2.4 1 4.2c0 1.8-.4 3.2-1.1 4.2s-1.6 1.6-2.9 1.6zm-1.2-8.5c-.6 0-1 .2-1.2.6s-.3 1-.4 1.8v.3c0 1 .1 1.6.4 2.1s.7.6 1.2.6.8-.2 1.1-.6.3-1.1.3-2.1-.1-1.6-.3-2-.6-.7-1.1-.7zM129.8 48.9c.3 0 .6 0 .9.1h.2l-.3 3.6c-.3-.1-.7-.1-1.3-.1-.8 0-1.4.2-1.8.6s-.5.9-.5 1.6v5.4h-3.8v-11h2.8l.6 1.8h.2c.3-.6.8-1.1 1.3-1.4s1.2-.6 1.7-.6zM142.7 54.6c0 1.8-.5 3.2-1.5 4.2s-2.3 1.5-4.1 1.5c-1.7 0-3-.5-4-1.6s-1.5-2.4-1.5-4.2c0-1.8.5-3.2 1.5-4.2s2.3-1.5 4.1-1.5c1.1 0 2 .2 2.9.7s1.5 1.1 1.9 2 .7 2 .7 3.1zm-7.2 0c0 1 .1 1.7.4 2.2s.7.7 1.3.7c.6 0 1-.2 1.3-.7s.4-1.2.4-2.2c0-.9-.1-1.7-.4-2.1s-.7-.7-1.3-.7c-.6 0-1 .2-1.3.7s-.4 1.2-.4 2.1zM149.9 57.4c.5 0 1.1-.1 1.8-.4v2.8c-.5.2-1 .4-1.5.5s-1 .1-1.6.1c-1.3 0-2.2-.3-2.8-.9s-.8-1.6-.8-2.9V52h-1.3v-1.6l1.7-1.2 1-2.3h2.5v2.2h2.7V52h-2.7v4.3c0 .7.3 1.1 1 1.1zM158.7 60.4c-1.8 0-3.3-.5-4.3-1.5s-1.5-2.4-1.5-4.2c0-1.9.5-3.3 1.4-4.3s2.3-1.5 4-1.5c1.7 0 3 .4 3.9 1.3s1.4 2.1 1.4 3.8v1.7h-6.8c0 .6.3 1.1.7 1.5s1 .5 1.7.5 1.3-.1 1.9-.2 1.2-.3 1.8-.6v2.7c-.6.3-1.2.5-1.9.6s-1.5.2-2.3.2zm-.3-8.9c-.4 0-.8.1-1.1.4s-.5.7-.5 1.3h3.3c0-.5-.2-1-.5-1.3s-.7-.4-1.2-.4zM170.3 60.4c-1.8 0-3.2-.5-4.1-1.5s-1.4-2.4-1.4-4.2c0-1.8.5-3.3 1.5-4.3s2.4-1.5 4.3-1.5c1.3 0 2.5.3 3.6.8l-1.1 2.8c-.5-.2-.9-.4-1.3-.5s-.8-.2-1.2-.2c-.6 0-1.1.2-1.4.7s-.5 1.2-.5 2c0 1.8.7 2.7 2 2.7 1.1 0 2.2-.3 3.2-1v3c-1 .8-2.2 1.2-3.6 1.2zM181.1 57.4c.5 0 1.1-.1 1.8-.4v2.8c-.5.2-1 .4-1.5.5s-1 .1-1.6.1c-1.3 0-2.2-.3-2.8-.9s-.8-1.6-.8-2.9V52h-1.3v-1.6l1.7-1.2 1-2.3h2.5v2.2h2.7V52H180v4.3c0 .7.4 1.1 1.1 1.1zM194.7 57.4c.5 0 1.1-.1 1.8-.4v2.8c-.5.2-1 .4-1.5.5s-1 .1-1.6.1c-1.3 0-2.2-.3-2.8-.9s-.8-1.6-.8-2.9V52h-1.3v-1.6l1.7-1.2 1-2.3h2.5v2.2h2.7V52h-2.7v4.3c0 .7.3 1.1 1 1.1zM205.1 60.2v-6c0-1.5-.4-2.2-1.3-2.2-.6 0-1.1.3-1.4.8s-.4 1.4-.4 2.6v4.9h-3.8V45h3.8v2.2c0 1-.1 2.1-.2 3.3h.2c.4-.6.8-1 1.3-1.2s1.1-.4 1.7-.4c1.2 0 2.2.4 2.9 1.1s1 1.7 1 3v7.2h-3.8zM216.5 60.4c-1.8 0-3.3-.5-4.3-1.5s-1.5-2.4-1.5-4.2c0-1.9.5-3.3 1.4-4.3s2.3-1.5 4-1.5c1.7 0 3 .4 3.9 1.3s1.4 2.1 1.4 3.8v1.7h-6.8c0 .6.3 1.1.7 1.5s1 .5 1.7.5 1.3-.1 1.9-.2 1.2-.3 1.8-.6v2.7c-.6.3-1.2.5-1.9.6s-1.4.2-2.3.2zm-.3-8.9c-.4 0-.8.1-1.1.4s-.5.7-.5 1.3h3.3c0-.5-.2-1-.5-1.3s-.7-.4-1.2-.4zM232.9 60.4c-1.8 0-3.2-.5-4.1-1.5s-1.4-2.4-1.4-4.2c0-1.8.5-3.3 1.5-4.3s2.4-1.5 4.3-1.5c1.3 0 2.5.3 3.6.8l-1.1 2.8c-.5-.2-.9-.4-1.3-.5s-.8-.2-1.2-.2c-.6 0-1.1.2-1.4.7s-.5 1.2-.5 2c0 1.8.7 2.7 2 2.7 1.1 0 2.2-.3 3.2-1v3c-1 .8-2.2 1.2-3.6 1.2zM248.9 54.6c0 1.8-.5 3.2-1.5 4.2s-2.3 1.5-4.1 1.5c-1.7 0-3-.5-4-1.6s-1.5-2.4-1.5-4.2c0-1.8.5-3.2 1.5-4.2s2.3-1.5 4.1-1.5c1.1 0 2 .2 2.9.7s1.5 1.1 1.9 2 .7 2 .7 3.1zm-7.2 0c0 1 .1 1.7.4 2.2s.7.7 1.3.7c.6 0 1-.2 1.3-.7s.4-1.2.4-2.2c0-.9-.1-1.7-.4-2.1s-.7-.7-1.3-.7c-.6 0-1 .2-1.3.7s-.4 1.2-.4 2.1zM258.5 60.2l-.5-1.4h-.2c-.3.5-.8.9-1.3 1.2s-1.2.4-2 .4c-1.2 0-2.2-.4-2.8-1.1s-1-1.7-1-3v-7.2h3.8v6c0 .7.1 1.3.3 1.6s.5.6 1 .6c.7 0 1.1-.3 1.4-.8s.4-1.4.4-2.6v-4.8h3.8v11.1h-2.9zM270.6 60.2v-6c0-.7-.1-1.3-.3-1.7s-.6-.6-1-.6c-.6 0-1.1.3-1.4.8s-.4 1.4-.4 2.6v4.8h-3.8v-11h2.9l.5 1.4h.2c.3-.5.8-.9 1.4-1.2s1.2-.4 2-.4c1.2 0 2.2.4 2.9 1.1s1 1.7 1 3v7.2h-4zM282.1 57.4c.5 0 1.1-.1 1.8-.4v2.8c-.5.2-1 .4-1.5.5s-1 .1-1.6.1c-1.3 0-2.2-.3-2.8-.9s-.8-1.6-.8-2.9V52h-1.3v-1.6l1.7-1.2 1-2.3h2.5v2.2h2.7V52h-2.7v4.3c0 .7.3 1.1 1 1.1zM292.2 48.9c.3 0 .6 0 .9.1h.2l-.3 3.6c-.3-.1-.7-.1-1.3-.1-.8 0-1.4.2-1.8.6s-.6.9-.6 1.6v5.4h-3.8v-11h2.8l.6 1.8h.2c.3-.6.8-1.1 1.3-1.4s1.2-.6 1.8-.6z"/><path class="st0" d="M293.1 49.1h4l1.9 6.3c.1.3.2.7.2 1.2h.1c.1-.4.1-.8.2-1.2l1.9-6.4h3.9L301 60.9c-.6 1.5-1.2 2.6-2.1 3.2s-1.9.9-3.2.9c-.5 0-1-.1-1.6-.2v-3c.3.1.7.1 1.2.1.3 0 .6-.1.9-.2s.5-.3.7-.6.4-.6.6-1.2l-4.4-10.8zM305.8 58.6c0-.6.2-1.1.5-1.4s.9-.5 1.5-.5 1.1.2 1.5.5.5.8.5 1.4c0 .6-.2 1-.5 1.4s-.8.5-1.5.5c-.6 0-1.2-.2-1.5-.5s-.5-.9-.5-1.4z"/></svg>