<?xml version="1.0" encoding="utf-8"?>
<!-- Generator: Adobe Illustrator 22.1.0, SVG Export Plug-In . SVG Version: 6.00 Build 0)  -->
<svg version="1.1" id="Layer_1" xmlns="http://www.w3.org/2000/svg" xmlns:xlink="http://www.w3.org/1999/xlink" x="0px" y="0px"
	 viewBox="0 0 300 250" style="enable-background:new 0 0 300 250;" xml:space="preserve">
<style type="text/css">
	.st0{fill:#FFFFFF;}
</style>
<g>
	<path class="st0" d="M38.8,117.7h-5.5l-1.6-7.5c-0.1-0.3-0.2-0.9-0.4-1.9s-0.3-1.7-0.4-2.3c-0.1,0.5-0.2,1.1-0.3,1.9
		s-0.3,1.4-0.4,2.1s-0.7,3.2-1.7,7.7h-5.5l-4.2-17.1h4.5l1.9,8.6c0.4,1.9,0.7,3.4,0.9,4.5c0.1-0.8,0.3-1.9,0.5-3.2s0.5-2.5,0.7-3.4
		l1.5-6.5h4.3l1.5,6.5c0.2,1,0.5,2.2,0.8,3.6s0.4,2.4,0.5,3c0.1-0.9,0.4-2.4,0.8-4.5l1.9-8.6H43L38.8,117.7z"/>
	<path class="st0" d="M50.9,117.9c-2.2,0-3.9-0.6-5.2-1.8s-1.8-2.8-1.8-5c0-2.2,0.6-4,1.7-5.2s2.8-1.8,4.9-1.8c2,0,3.5,0.5,4.6,1.6
		s1.6,2.5,1.6,4.5v2h-8.2c0,0.7,0.3,1.3,0.8,1.7s1.2,0.6,2.1,0.6c0.8,0,1.5-0.1,2.2-0.2s1.4-0.4,2.2-0.8v3.3
		c-0.7,0.4-1.5,0.6-2.2,0.8S52,117.9,50.9,117.9z M50.7,107.3c-0.5,0-1,0.2-1.4,0.5s-0.6,0.9-0.6,1.6h3.9c0-0.6-0.2-1.2-0.5-1.5
		S51.2,107.3,50.7,107.3z"/>
	<path class="st0" d="M70.7,117.9c-2.2,0-3.8-0.6-4.9-1.8s-1.7-2.9-1.7-5.1c0-2.2,0.6-3.9,1.8-5.1s2.9-1.8,5.2-1.8
		c1.5,0,3,0.3,4.3,1l-1.3,3.4c-0.6-0.2-1.1-0.4-1.5-0.6s-1-0.2-1.5-0.2c-0.7,0-1.3,0.3-1.7,0.9s-0.6,1.4-0.6,2.4
		c0,2.1,0.8,3.2,2.4,3.2c1.3,0,2.6-0.4,3.9-1.2v3.6C73.8,117.5,72.3,117.9,70.7,117.9z"/>
	<path class="st0" d="M85.8,117.7l-0.9-1.8h-0.1c-0.6,0.8-1.2,1.3-1.9,1.6s-1.5,0.4-2.5,0.4c-1.2,0-2.2-0.4-3-1.1s-1.1-1.8-1.1-3.2
		c0-1.4,0.5-2.5,1.5-3.2s2.4-1.1,4.3-1.2l2.2-0.1V109c0-1.1-0.5-1.6-1.6-1.6c-1,0-2.2,0.3-3.7,1l-1.3-3c1.5-0.8,3.5-1.2,5.9-1.2
		c1.7,0,3,0.4,4,1.3s1.4,2,1.4,3.5v8.7H85.8z M82.4,114.7c0.6,0,1-0.2,1.4-0.5s0.6-0.8,0.6-1.4v-1l-1.1,0c-1.5,0.1-2.3,0.6-2.3,1.7
		C81.1,114.2,81.5,114.7,82.4,114.7z"/>
	<path class="st0" d="M100,117.7v-7.2c0-0.9-0.1-1.5-0.4-2s-0.7-0.7-1.2-0.7c-0.8,0-1.3,0.3-1.7,0.9s-0.5,1.7-0.5,3.2v5.8h-4.6
		v-13.3H95l0.6,1.6h0.3c0.4-0.6,0.9-1.1,1.6-1.4s1.5-0.5,2.4-0.5c1.5,0,2.6,0.4,3.4,1.3s1.2,2.1,1.2,3.6v8.6H100z"/>
	<path class="st0" d="M121.3,117.7v-7.2c0-1.8-0.5-2.7-1.6-2.7c-0.8,0-1.3,0.3-1.7,0.9s-0.5,1.7-0.5,3.1v5.8H113V99.4h4.6v2.6
		c0,1.2-0.1,2.5-0.2,4h0.2c0.4-0.7,1-1.2,1.6-1.5s1.3-0.4,2.1-0.4c1.5,0,2.6,0.4,3.5,1.3s1.2,2.1,1.2,3.6v8.6H121.3z"/>
	<path class="st0" d="M135,117.9c-2.2,0-3.9-0.6-5.2-1.8s-1.8-2.8-1.8-5c0-2.2,0.6-4,1.7-5.2s2.8-1.8,4.9-1.8c2,0,3.5,0.5,4.6,1.6
		s1.6,2.5,1.6,4.5v2h-8.2c0,0.7,0.3,1.3,0.8,1.7s1.2,0.6,2.1,0.6c0.8,0,1.5-0.1,2.2-0.2s1.4-0.4,2.2-0.8v3.3
		c-0.7,0.4-1.5,0.6-2.2,0.8S136.1,117.9,135,117.9z M134.7,107.3c-0.5,0-1,0.2-1.4,0.5s-0.6,0.9-0.6,1.6h3.9c0-0.6-0.2-1.2-0.5-1.5
		S135.3,107.3,134.7,107.3z"/>
	<path class="st0" d="M147.5,117.7H143V99.4h4.6V117.7z"/>
	<path class="st0" d="M158.2,117.9c-0.7,0-1.3-0.1-1.8-0.3s-1.1-0.6-1.6-1.2h-0.2c0.1,0.9,0.2,1.5,0.2,1.7v5.3h-4.6v-19h3.7l0.6,1.7
		h0.2c0.9-1.3,2-1.9,3.5-1.9c1.5,0,2.6,0.6,3.5,1.8s1.3,2.9,1.3,5c0,2.1-0.4,3.8-1.3,5.1S159.7,117.9,158.2,117.9z M156.7,107.7
		c-0.7,0-1.1,0.2-1.4,0.7s-0.4,1.2-0.4,2.1v0.4c0,1.1,0.2,2,0.5,2.5s0.8,0.8,1.4,0.8c0.6,0,1-0.3,1.3-0.8s0.4-1.3,0.4-2.5
		c0-1.1-0.1-2-0.4-2.5S157.3,107.7,156.7,107.7z"/>
</g>
<g>
	<path class="st0" d="M28,143.9c-0.7,0-1.3-0.1-1.8-0.3s-1.1-0.6-1.6-1.2h-0.2c0.1,0.9,0.2,1.5,0.2,1.7v5.3h-4.6v-19h3.7l0.6,1.7
		h0.2c0.9-1.3,2-1.9,3.5-1.9c1.5,0,2.6,0.6,3.5,1.8s1.3,2.9,1.3,5c0,2.1-0.4,3.8-1.3,5.1S29.5,143.9,28,143.9z M26.5,133.7
		c-0.7,0-1.1,0.2-1.4,0.7s-0.4,1.2-0.4,2.1v0.4c0,1.1,0.2,2,0.5,2.5s0.8,0.8,1.4,0.8c0.6,0,1-0.3,1.3-0.8s0.4-1.3,0.4-2.5
		c0-1.1-0.1-2-0.4-2.5S27.1,133.7,26.5,133.7z"/>
	<path class="st0" d="M43,130.1c0.4,0,0.8,0,1.1,0.1l0.3,0l-0.4,4.3c-0.4-0.1-0.9-0.1-1.6-0.1c-1,0-1.7,0.2-2.2,0.7s-0.7,1.1-0.7,2
		v6.5H35v-13.3h3.4l0.7,2.1h0.2c0.4-0.7,0.9-1.3,1.6-1.7S42.3,130.1,43,130.1z"/>
	<path class="st0" d="M58.5,137c0,2.2-0.6,3.9-1.8,5.1s-2.8,1.8-4.9,1.8c-2,0-3.6-0.6-4.8-1.9s-1.8-2.9-1.8-5c0-2.2,0.6-3.8,1.8-5
		s2.8-1.8,4.9-1.8c1.3,0,2.5,0.3,3.5,0.8s1.8,1.3,2.3,2.4S58.5,135.6,58.5,137z M49.9,137c0,1.1,0.2,2,0.5,2.6s0.8,0.9,1.5,0.9
		c0.7,0,1.2-0.3,1.5-0.9s0.4-1.5,0.4-2.6c0-1.1-0.1-2-0.4-2.6s-0.8-0.9-1.5-0.9c-0.7,0-1.2,0.3-1.5,0.9S49.9,135.8,49.9,137z"/>
	<path class="st0" d="M67.1,140.3c0.6,0,1.4-0.2,2.2-0.5v3.3c-0.6,0.3-1.2,0.5-1.8,0.6s-1.2,0.2-2,0.2c-1.5,0-2.6-0.4-3.3-1.1
		s-1-1.9-1-3.5v-5.5h-1.6v-1.9l2-1.4l1.2-2.8h3v2.7h3.3v3.4h-3.3v5.2C65.9,139.8,66.3,140.3,67.1,140.3z"/>
	<path class="st0" d="M77.6,143.9c-2.2,0-3.9-0.6-5.2-1.8s-1.8-2.8-1.8-5c0-2.2,0.6-4,1.7-5.2s2.8-1.8,4.9-1.8c2,0,3.5,0.5,4.6,1.6
		s1.6,2.5,1.6,4.5v2h-8.2c0,0.7,0.3,1.3,0.8,1.7s1.2,0.6,2.1,0.6c0.8,0,1.5-0.1,2.2-0.2s1.4-0.4,2.2-0.8v3.3
		c-0.7,0.4-1.5,0.6-2.2,0.8S78.7,143.9,77.6,143.9z M77.3,133.3c-0.5,0-1,0.2-1.4,0.5s-0.6,0.9-0.6,1.6h3.9c0-0.6-0.2-1.2-0.5-1.5
		S77.9,133.3,77.3,133.3z"/>
	<path class="st0" d="M91.6,143.9c-2.2,0-3.8-0.6-4.9-1.8s-1.7-2.9-1.7-5.1c0-2.2,0.6-3.9,1.8-5.1s2.9-1.8,5.2-1.8
		c1.5,0,3,0.3,4.3,1l-1.3,3.4c-0.6-0.2-1.1-0.4-1.5-0.6s-1-0.2-1.5-0.2c-0.7,0-1.3,0.3-1.7,0.9s-0.6,1.4-0.6,2.4
		c0,2.1,0.8,3.2,2.4,3.2c1.3,0,2.6-0.4,3.9-1.2v3.6C94.7,143.5,93.2,143.9,91.6,143.9z"/>
	<path class="st0" d="M104.5,140.3c0.6,0,1.4-0.2,2.2-0.5v3.3c-0.6,0.3-1.2,0.5-1.8,0.6s-1.2,0.2-2,0.2c-1.5,0-2.6-0.4-3.3-1.1
		s-1-1.9-1-3.5v-5.5H97v-1.9l2-1.4l1.2-2.8h3v2.7h3.3v3.4h-3.3v5.2C103.3,139.8,103.7,140.3,104.5,140.3z"/>
	<path class="st0" d="M112.8,130.4h4.8l2.2,7.6c0.1,0.4,0.2,0.9,0.2,1.4h0.1c0.1-0.5,0.2-1,0.3-1.4l2.3-7.6h4.7l-5.2,14.1
		c-0.7,1.8-1.5,3.1-2.5,3.8s-2.3,1.1-3.8,1.1c-0.6,0-1.2-0.1-1.9-0.2v-3.6c0.4,0.1,0.9,0.1,1.4,0.1c0.4,0,0.8-0.1,1.1-0.2
		s0.6-0.4,0.8-0.7s0.5-0.8,0.7-1.4L112.8,130.4z"/>
	<path class="st0" d="M141.2,137c0,2.2-0.6,3.9-1.8,5.1s-2.8,1.8-4.9,1.8c-2,0-3.6-0.6-4.8-1.9s-1.8-2.9-1.8-5c0-2.2,0.6-3.8,1.8-5
		s2.8-1.8,4.9-1.8c1.3,0,2.5,0.3,3.5,0.8s1.8,1.3,2.3,2.4S141.2,135.6,141.2,137z M132.6,137c0,1.1,0.2,2,0.5,2.6s0.8,0.9,1.5,0.9
		c0.7,0,1.2-0.3,1.5-0.9s0.4-1.5,0.4-2.6c0-1.1-0.1-2-0.4-2.6s-0.8-0.9-1.5-0.9c-0.7,0-1.2,0.3-1.5,0.9S132.6,135.8,132.6,137z"/>
	<path class="st0" d="M152.8,143.6l-0.6-1.7H152c-0.4,0.6-0.9,1.1-1.6,1.4s-1.5,0.5-2.4,0.5c-1.5,0-2.6-0.4-3.4-1.3s-1.2-2-1.2-3.6
		v-8.6h4.6v7.3c0,0.9,0.1,1.5,0.4,2s0.7,0.7,1.2,0.7c0.8,0,1.4-0.3,1.7-0.9s0.5-1.7,0.5-3.1v-5.8h4.6v13.3H152.8z"/>
	<path class="st0" d="M167,130.1c0.4,0,0.8,0,1.1,0.1l0.3,0l-0.4,4.3c-0.4-0.1-0.9-0.1-1.6-0.1c-1,0-1.7,0.2-2.2,0.7s-0.7,1.1-0.7,2
		v6.5H159v-13.3h3.4l0.7,2.1h0.2c0.4-0.7,0.9-1.3,1.6-1.7S166.3,130.1,167,130.1z"/>
</g>
<g>
	<path class="st0" d="M28.2,159.8h-2.8v9.8h-4.6v-9.8H19v-2.2l1.9-1.1v-0.2c0-1.8,0.4-3,1.1-3.8s1.9-1.1,3.4-1.1
		c0.6,0,1.2,0,1.7,0.1s1.2,0.3,1.9,0.5l-1,3c-0.6-0.2-1.1-0.2-1.7-0.2c-0.4,0-0.6,0.1-0.8,0.3s-0.2,0.6-0.2,1v0.4h2.8V159.8z"/>
	<path class="st0" d="M38.1,169.6l-0.9-1.8h-0.1c-0.6,0.8-1.2,1.3-1.9,1.6s-1.5,0.4-2.5,0.4c-1.2,0-2.2-0.4-3-1.1s-1.1-1.8-1.1-3.2
		c0-1.4,0.5-2.5,1.5-3.2s2.4-1.1,4.3-1.2l2.2-0.1V161c0-1.1-0.5-1.6-1.6-1.6c-1,0-2.2,0.3-3.7,1l-1.3-3c1.5-0.8,3.5-1.2,5.9-1.2
		c1.7,0,3,0.4,4,1.3s1.4,2,1.4,3.5v8.7H38.1z M34.8,166.6c0.6,0,1-0.2,1.4-0.5s0.6-0.8,0.6-1.4v-1l-1.1,0c-1.5,0.1-2.3,0.6-2.3,1.7
		C33.4,166.2,33.9,166.6,34.8,166.6z"/>
	<path class="st0" d="M60.3,169.6v-7.2c0-0.9-0.1-1.6-0.4-2s-0.6-0.7-1.2-0.7c-0.7,0-1.2,0.3-1.5,0.9s-0.5,1.5-0.5,2.8v6.2h-4.6
		v-7.2c0-0.9-0.1-1.6-0.4-2s-0.6-0.7-1.1-0.7c-0.7,0-1.2,0.3-1.6,1s-0.5,1.7-0.5,3.1v5.8H44v-13.3h3.5L48,158h0.3
		c0.4-0.6,0.9-1.1,1.5-1.4s1.4-0.5,2.3-0.5c1.9,0,3.3,0.6,4,1.7h0.4c0.4-0.5,0.9-1,1.6-1.3s1.4-0.5,2.2-0.5c1.6,0,2.7,0.4,3.5,1.2
		s1.1,2,1.1,3.7v8.6H60.3z"/>
	<path class="st0" d="M67.4,153.1c0-0.7,0.2-1.2,0.6-1.5s1-0.5,1.9-0.5s1.5,0.2,1.9,0.5s0.6,0.9,0.6,1.5c0,1.3-0.8,2-2.4,2
		C68.2,155.1,67.4,154.4,67.4,153.1z M72.1,169.6h-4.6v-13.3h4.6V169.6z"/>
	<path class="st0" d="M79.4,169.6h-4.6v-18.2h4.6V169.6z"/>
	<path class="st0" d="M80.5,156.4h4.8l2.2,7.6c0.1,0.4,0.2,0.9,0.2,1.4h0.1c0.1-0.5,0.2-1,0.3-1.4l2.3-7.6h4.7l-5.2,14.1
		c-0.7,1.8-1.5,3.1-2.5,3.8s-2.3,1.1-3.8,1.1c-0.6,0-1.2-0.1-1.9-0.2v-3.6c0.4,0.1,0.9,0.1,1.4,0.1c0.4,0,0.8-0.1,1.1-0.2
		s0.6-0.4,0.8-0.7s0.5-0.8,0.7-1.4L80.5,156.4z"/>
	<path class="st0" d="M95.7,167.7c0-0.7,0.2-1.3,0.6-1.7s1-0.6,1.9-0.6c0.8,0,1.4,0.2,1.8,0.6s0.6,0.9,0.6,1.7
		c0,0.7-0.2,1.3-0.6,1.6s-1,0.6-1.8,0.6c-0.8,0-1.4-0.2-1.8-0.6S95.7,168.4,95.7,167.7z"/>
</g>
</svg>
