<?xml version="1.0" encoding="utf-8"?>
<!-- Generator: Adobe Illustrator 22.1.0, SVG Export Plug-In . SVG Version: 6.00 Build 0)  -->
<svg version="1.1" id="Layer_1" xmlns="http://www.w3.org/2000/svg" xmlns:xlink="http://www.w3.org/1999/xlink" x="0px" y="0px"
	 viewBox="0 0 300 250" style="enable-background:new 0 0 300 250;" xml:space="preserve">
<style type="text/css">
	.st0{fill:#FFFFFF;}
</style>
<g>
	<path class="st0" d="M35,114.7h-4.7v-7H25v7h-4.7V97.5H25v6.4h5.4v-6.4H35V114.7z"/>
	<path class="st0" d="M50.6,108c0,2.2-0.6,3.9-1.8,5.1s-2.8,1.8-4.9,1.8c-2,0-3.6-0.6-4.8-1.9s-1.8-2.9-1.8-5c0-2.2,0.6-3.8,1.8-5
		s2.8-1.8,4.9-1.8c1.3,0,2.5,0.3,3.5,0.8s1.8,1.3,2.3,2.4S50.6,106.6,50.6,108z M42,108c0,1.1,0.2,2,0.5,2.6s0.8,0.9,1.5,0.9
		c0.7,0,1.2-0.3,1.5-0.9s0.4-1.5,0.4-2.6c0-1.1-0.1-2-0.4-2.6s-0.8-0.9-1.5-0.9c-0.7,0-1.2,0.3-1.5,0.9S42,106.8,42,108z"/>
	<path class="st0" d="M61.2,114.7v-7.2c0-0.9-0.1-1.5-0.4-2s-0.7-0.7-1.2-0.7c-0.8,0-1.3,0.3-1.7,0.9s-0.5,1.7-0.5,3.2v5.8h-4.6
		v-13.3h3.5l0.6,1.6h0.3c0.4-0.6,0.9-1.1,1.6-1.4s1.5-0.5,2.4-0.5c1.5,0,2.6,0.4,3.4,1.3s1.2,2.1,1.2,3.6v8.6H61.2z"/>
	<path class="st0" d="M81.1,108c0,2.2-0.6,3.9-1.8,5.1s-2.8,1.8-4.9,1.8c-2,0-3.6-0.6-4.8-1.9s-1.8-2.9-1.8-5c0-2.2,0.6-3.8,1.8-5
		s2.8-1.8,4.9-1.8c1.3,0,2.5,0.3,3.5,0.8s1.8,1.3,2.3,2.4S81.1,106.6,81.1,108z M72.5,108c0,1.1,0.2,2,0.5,2.6s0.8,0.9,1.5,0.9
		c0.7,0,1.2-0.3,1.5-0.9s0.4-1.5,0.4-2.6c0-1.1-0.1-2-0.4-2.6s-0.8-0.9-1.5-0.9c-0.7,0-1.2,0.3-1.5,0.9S72.5,106.8,72.5,108z"/>
	<path class="st0" d="M91.2,101.1c0.4,0,0.8,0,1.1,0.1l0.3,0l-0.4,4.3c-0.4-0.1-0.9-0.1-1.6-0.1c-1,0-1.7,0.2-2.2,0.7
		s-0.7,1.1-0.7,2v6.5h-4.6v-13.3h3.4l0.7,2.1h0.2c0.4-0.7,0.9-1.3,1.6-1.7S90.5,101.1,91.2,101.1z"/>
	<path class="st0" d="M93.9,98.1c0-0.7,0.2-1.2,0.6-1.5s1-0.5,1.9-0.5s1.5,0.2,1.9,0.5s0.6,0.9,0.6,1.5c0,1.3-0.8,2-2.4,2
		C94.7,100.1,93.9,99.4,93.9,98.1z M98.6,114.7H94v-13.3h4.6V114.7z"/>
	<path class="st0" d="M109.7,114.7v-7.2c0-0.9-0.1-1.5-0.4-2s-0.7-0.7-1.2-0.7c-0.8,0-1.3,0.3-1.7,0.9s-0.5,1.7-0.5,3.2v5.8h-4.6
		v-13.3h3.5l0.6,1.6h0.3c0.4-0.6,0.9-1.1,1.6-1.4s1.5-0.5,2.4-0.5c1.5,0,2.6,0.4,3.4,1.3s1.2,2.1,1.2,3.6v8.6H109.7z"/>
	<path class="st0" d="M129.5,101.4v2.2l-1.8,0.7c0.2,0.5,0.4,1,0.4,1.6c0,1.4-0.5,2.5-1.5,3.3s-2.5,1.2-4.5,1.2
		c-0.5,0-0.9,0-1.2-0.1c-0.1,0.2-0.2,0.4-0.2,0.6c0,0.2,0.2,0.4,0.6,0.5s0.8,0.2,1.4,0.2h2.2c3,0,4.5,1.3,4.5,3.8
		c0,1.6-0.7,2.9-2.1,3.8s-3.3,1.3-5.8,1.3c-1.9,0-3.3-0.3-4.4-0.9s-1.5-1.5-1.5-2.7c0-1.6,1-2.6,3-3.1c-0.4-0.2-0.8-0.4-1.1-0.8
		s-0.5-0.8-0.5-1.1c0-0.4,0.1-0.8,0.3-1.1s0.7-0.7,1.4-1.1c-0.7-0.3-1.2-0.8-1.6-1.4s-0.6-1.4-0.6-2.4c0-1.4,0.5-2.6,1.5-3.4
		s2.4-1.2,4.2-1.2c0.2,0,0.7,0,1.3,0.1s1,0.1,1.3,0.2H129.5z M119.5,116.3c0,0.4,0.2,0.7,0.6,0.9s0.9,0.3,1.6,0.3
		c1.1,0,2-0.1,2.7-0.4s1-0.6,1-1.1c0-0.4-0.2-0.6-0.6-0.7s-1-0.2-1.7-0.2h-1.8c-0.5,0-0.9,0.1-1.2,0.3S119.5,116,119.5,116.3z
		 M120.9,105.7c0,1.4,0.5,2,1.4,2c0.4,0,0.8-0.2,1-0.5s0.4-0.8,0.4-1.5c0-1.4-0.5-2.1-1.4-2.1C121.4,103.7,120.9,104.4,120.9,105.7z
		"/>
	<path class="st0" d="M143.3,111.3c0.6,0,1.4-0.2,2.2-0.5v3.3c-0.6,0.3-1.2,0.5-1.8,0.6s-1.2,0.2-2,0.2c-1.5,0-2.6-0.4-3.3-1.1
		s-1-1.9-1-3.5v-5.5h-1.6v-1.9l2-1.4l1.2-2.8h3v2.7h3.3v3.4h-3.3v5.2C142.1,110.8,142.5,111.3,143.3,111.3z"/>
	<path class="st0" d="M155.7,114.7v-7.2c0-1.8-0.5-2.7-1.6-2.7c-0.8,0-1.3,0.3-1.7,0.9s-0.5,1.7-0.5,3.1v5.8h-4.6V96.4h4.6V99
		c0,1.2-0.1,2.5-0.2,4h0.2c0.4-0.7,1-1.2,1.6-1.5s1.3-0.4,2.1-0.4c1.5,0,2.6,0.4,3.5,1.3s1.2,2.1,1.2,3.6v8.6H155.7z"/>
	<path class="st0" d="M169.4,114.9c-2.2,0-3.9-0.6-5.2-1.8s-1.8-2.8-1.8-5c0-2.2,0.6-4,1.7-5.2s2.8-1.8,4.9-1.8c2,0,3.5,0.5,4.6,1.6
		s1.6,2.5,1.6,4.5v2h-8.2c0,0.7,0.3,1.3,0.8,1.7s1.2,0.6,2.1,0.6c0.8,0,1.5-0.1,2.2-0.2s1.4-0.4,2.2-0.8v3.3
		c-0.7,0.4-1.5,0.6-2.2,0.8S170.5,114.9,169.4,114.9z M169.1,104.3c-0.5,0-1,0.2-1.4,0.5s-0.6,0.9-0.6,1.6h3.9
		c0-0.6-0.2-1.2-0.5-1.5S169.7,104.3,169.1,104.3z"/>
	<path class="st0" d="M191.3,101.1c1.4,0,2.6,0.6,3.4,1.8s1.3,2.9,1.3,5c0,2.2-0.4,3.8-1.3,5.1s-2,1.8-3.6,1.8
		c-0.5,0-0.9-0.1-1.3-0.2s-0.7-0.3-1-0.4s-0.7-0.5-1-0.9h-0.3l-0.7,1.3h-3.6V96.4h4.6v4.1c0,0.5-0.1,1.3-0.2,2.5h0.2
		c0.4-0.7,1-1.2,1.5-1.5S190.5,101.1,191.3,101.1z M189.6,104.7c-0.6,0-1.1,0.2-1.4,0.7s-0.4,1.1-0.4,2.1v0.6c0,1.1,0.1,1.9,0.4,2.3
		s0.8,0.7,1.5,0.7c0.5,0,1-0.3,1.2-0.8s0.4-1.4,0.4-2.4C191.3,105.8,190.7,104.7,189.6,104.7z"/>
	<path class="st0" d="M198,98.1c0-0.7,0.2-1.2,0.6-1.5s1-0.5,1.9-0.5s1.5,0.2,1.9,0.5s0.6,0.9,0.6,1.5c0,1.3-0.8,2-2.4,2
		C198.8,100.1,198,99.4,198,98.1z M202.7,114.7h-4.6v-13.3h4.6V114.7z"/>
	<path class="st0" d="M213.4,101.1c0.4,0,0.8,0,1.1,0.1l0.3,0l-0.4,4.3c-0.4-0.1-0.9-0.1-1.6-0.1c-1,0-1.7,0.2-2.2,0.7
		s-0.7,1.1-0.7,2v6.5h-4.6v-13.3h3.4l0.7,2.1h0.2c0.4-0.7,0.9-1.3,1.6-1.7S212.7,101.1,213.4,101.1z"/>
	<path class="st0" d="M222.7,111.3c0.6,0,1.4-0.2,2.2-0.5v3.3c-0.6,0.3-1.2,0.5-1.8,0.6s-1.2,0.2-2,0.2c-1.5,0-2.6-0.4-3.3-1.1
		s-1-1.9-1-3.5v-5.5h-1.6v-1.9l2-1.4l1.2-2.8h3v2.7h3.3v3.4h-3.3v5.2C221.5,110.8,221.9,111.3,222.7,111.3z"/>
	<path class="st0" d="M235.1,114.7v-7.2c0-1.8-0.5-2.7-1.6-2.7c-0.8,0-1.3,0.3-1.7,0.9s-0.5,1.7-0.5,3.1v5.8h-4.6V96.4h4.6V99
		c0,1.2-0.1,2.5-0.2,4h0.2c0.4-0.7,1-1.2,1.6-1.5s1.3-0.4,2.1-0.4c1.5,0,2.6,0.4,3.5,1.3s1.2,2.1,1.2,3.6v8.6H235.1z"/>
</g>
<g>
	<path class="st0" d="M32.7,134c0,2.2-0.6,3.9-1.8,5.1s-2.8,1.8-4.9,1.8c-2,0-3.6-0.6-4.8-1.9s-1.8-2.9-1.8-5c0-2.2,0.6-3.8,1.8-5
		s2.8-1.8,4.9-1.8c1.3,0,2.5,0.3,3.5,0.8s1.8,1.3,2.3,2.4S32.7,132.6,32.7,134z M24.1,134c0,1.1,0.2,2,0.5,2.6s0.8,0.9,1.5,0.9
		c0.7,0,1.2-0.3,1.5-0.9s0.4-1.5,0.4-2.6c0-1.1-0.1-2-0.4-2.6s-0.8-0.9-1.5-0.9c-0.7,0-1.2,0.3-1.5,0.9S24.1,132.8,24.1,134z"/>
	<path class="st0" d="M43,130.8h-2.8v9.8h-4.6v-9.8h-1.8v-2.2l1.9-1.1v-0.2c0-1.8,0.4-3,1.1-3.8s1.9-1.1,3.4-1.1
		c0.6,0,1.2,0,1.7,0.1s1.2,0.3,1.9,0.5l-1,3c-0.6-0.2-1.1-0.2-1.7-0.2c-0.4,0-0.6,0.1-0.8,0.3s-0.2,0.6-0.2,1v0.4H43V130.8z"/>
	<path class="st0" d="M56.6,137.3c0.6,0,1.4-0.2,2.2-0.5v3.3c-0.6,0.3-1.2,0.5-1.8,0.6s-1.2,0.2-2,0.2c-1.5,0-2.6-0.4-3.3-1.1
		s-1-1.9-1-3.5v-5.5h-1.6v-1.9l2-1.4l1.2-2.8h3v2.7h3.3v3.4h-3.3v5.2C55.3,136.8,55.8,137.3,56.6,137.3z"/>
	<path class="st0" d="M69,140.6v-7.2c0-1.8-0.5-2.7-1.6-2.7c-0.8,0-1.3,0.3-1.7,0.9s-0.5,1.7-0.5,3.1v5.8h-4.6v-18.2h4.6v2.6
		c0,1.2-0.1,2.5-0.2,4h0.2c0.4-0.7,1-1.2,1.6-1.5s1.3-0.4,2.1-0.4c1.5,0,2.6,0.4,3.5,1.3s1.2,2.1,1.2,3.6v8.6H69z"/>
	<path class="st0" d="M82.7,140.9c-2.2,0-3.9-0.6-5.2-1.8s-1.8-2.8-1.8-5c0-2.2,0.6-4,1.7-5.2s2.8-1.8,4.9-1.8c2,0,3.5,0.5,4.6,1.6
		s1.6,2.5,1.6,4.5v2h-8.2c0,0.7,0.3,1.3,0.8,1.7s1.2,0.6,2.1,0.6c0.8,0,1.5-0.1,2.2-0.2s1.4-0.4,2.2-0.8v3.3
		c-0.7,0.4-1.5,0.6-2.2,0.8S83.8,140.9,82.7,140.9z M82.4,130.2c-0.5,0-1,0.2-1.4,0.5s-0.6,0.9-0.6,1.6h3.9c0-0.6-0.2-1.2-0.5-1.5
		S83,130.2,82.4,130.2z"/>
	<path class="st0" d="M111.3,123.5v10.3c0,2.2-0.6,4-1.9,5.2s-3.1,1.8-5.5,1.8c-2.3,0-4.1-0.6-5.4-1.8s-1.9-2.9-1.9-5.2v-10.4h4.7
		v10.1c0,1.2,0.2,2.1,0.7,2.6s1.1,0.8,2,0.8c0.9,0,1.6-0.3,2.1-0.8s0.6-1.4,0.6-2.7v-10H111.3z"/>
	<path class="st0" d="M113.6,138.7c0-0.7,0.2-1.3,0.6-1.7s1-0.6,1.9-0.6c0.8,0,1.4,0.2,1.8,0.6s0.6,0.9,0.6,1.7
		c0,0.7-0.2,1.3-0.6,1.6s-1,0.6-1.8,0.6c-0.8,0-1.4-0.2-1.8-0.6S113.6,139.4,113.6,138.7z"/>
	<path class="st0" d="M132.1,135.4c0,1.1-0.3,2-0.8,2.8s-1.3,1.5-2.3,1.9s-2.2,0.7-3.6,0.7c-1.1,0-2.1-0.1-2.9-0.2s-1.6-0.4-2.4-0.8
		v-4.1c0.9,0.5,1.8,0.8,2.8,1.1s1.8,0.4,2.6,0.4c0.7,0,1.2-0.1,1.5-0.4s0.5-0.5,0.5-0.9c0-0.2-0.1-0.4-0.2-0.6s-0.3-0.4-0.6-0.5
		s-1-0.5-2.3-1.1c-1.1-0.5-2-1-2.5-1.5s-1-1-1.2-1.6s-0.4-1.3-0.4-2.2c0-1.6,0.6-2.8,1.7-3.7s2.7-1.3,4.7-1.3c1.8,0,3.6,0.4,5.4,1.2
		l-1.4,3.6c-1.6-0.7-3-1.1-4.1-1.1c-0.6,0-1,0.1-1.3,0.3s-0.4,0.5-0.4,0.8c0,0.3,0.2,0.6,0.5,0.9s1.3,0.8,2.8,1.5
		c1.5,0.7,2.5,1.4,3.1,2.1S132.1,134.3,132.1,135.4z"/>
	<path class="st0" d="M133.4,138.7c0-0.7,0.2-1.3,0.6-1.7s1-0.6,1.9-0.6c0.8,0,1.4,0.2,1.8,0.6s0.6,0.9,0.6,1.7
		c0,0.7-0.2,1.3-0.6,1.6s-1,0.6-1.8,0.6c-0.8,0-1.4-0.2-1.8-0.6S133.4,139.4,133.4,138.7z"/>
	<path class="st0" d="M157,140.6l-0.8-3.2h-5.6l-0.9,3.2h-5.1l5.6-17.2h6.2l5.7,17.2H157z M155.2,133.6l-0.7-2.8
		c-0.2-0.6-0.4-1.4-0.6-2.4s-0.4-1.7-0.5-2.1c-0.1,0.4-0.2,1.1-0.4,2s-0.7,2.7-1.4,5.4H155.2z"/>
	<path class="st0" d="M163,124.1c0-0.7,0.2-1.2,0.6-1.5s1-0.5,1.9-0.5s1.5,0.2,1.9,0.5s0.6,0.9,0.6,1.5c0,1.3-0.8,2-2.4,2
		C163.9,126.1,163,125.4,163,124.1z M167.7,140.6h-4.6v-13.3h4.6V140.6z"/>
	<path class="st0" d="M178.5,127.1c0.4,0,0.8,0,1.1,0.1l0.3,0l-0.4,4.3c-0.4-0.1-0.9-0.1-1.6-0.1c-1,0-1.7,0.2-2.2,0.7
		s-0.7,1.1-0.7,2v6.5h-4.6v-13.3h3.4l0.7,2.1h0.2c0.4-0.7,0.9-1.3,1.6-1.7S177.8,127.1,178.5,127.1z"/>
	<path class="st0" d="M191.9,140.6h-4.6v-17.1h10.1v3.7h-5.6v3.3h5.1v3.7h-5.1V140.6z"/>
	<path class="st0" d="M212.2,134c0,2.2-0.6,3.9-1.8,5.1s-2.8,1.8-4.9,1.8c-2,0-3.6-0.6-4.8-1.9s-1.8-2.9-1.8-5c0-2.2,0.6-3.8,1.8-5
		s2.8-1.8,4.9-1.8c1.3,0,2.5,0.3,3.5,0.8s1.8,1.3,2.3,2.4S212.2,132.6,212.2,134z M203.6,134c0,1.1,0.2,2,0.5,2.6s0.8,0.9,1.5,0.9
		c0.7,0,1.2-0.3,1.5-0.9s0.4-1.5,0.4-2.6c0-1.1-0.1-2-0.4-2.6s-0.8-0.9-1.5-0.9c-0.7,0-1.2,0.3-1.5,0.9S203.6,132.8,203.6,134z"/>
	<path class="st0" d="M222.3,127.1c0.4,0,0.8,0,1.1,0.1l0.3,0l-0.4,4.3c-0.4-0.1-0.9-0.1-1.6-0.1c-1,0-1.7,0.2-2.2,0.7
		s-0.7,1.1-0.7,2v6.5h-4.6v-13.3h3.4l0.7,2.1h0.2c0.4-0.7,0.9-1.3,1.6-1.7S221.6,127.1,222.3,127.1z"/>
	<path class="st0" d="M231.1,140.9c-2.2,0-3.8-0.6-4.9-1.8s-1.7-2.9-1.7-5.1c0-2.2,0.6-3.9,1.8-5.1s2.9-1.8,5.2-1.8
		c1.5,0,3,0.3,4.3,1l-1.3,3.4c-0.6-0.2-1.1-0.4-1.5-0.6s-1-0.2-1.5-0.2c-0.7,0-1.3,0.3-1.7,0.9s-0.6,1.4-0.6,2.4
		c0,2.1,0.8,3.2,2.4,3.2c1.3,0,2.6-0.4,3.9-1.2v3.6C234.2,140.5,232.8,140.9,231.1,140.9z"/>
	<path class="st0" d="M243.9,140.9c-2.2,0-3.9-0.6-5.2-1.8s-1.8-2.8-1.8-5c0-2.2,0.6-4,1.7-5.2s2.8-1.8,4.9-1.8c2,0,3.5,0.5,4.6,1.6
		s1.6,2.5,1.6,4.5v2h-8.2c0,0.7,0.3,1.3,0.8,1.7s1.2,0.6,2.1,0.6c0.8,0,1.5-0.1,2.2-0.2s1.4-0.4,2.2-0.8v3.3
		c-0.7,0.4-1.5,0.6-2.2,0.8S245,140.9,243.9,140.9z M243.7,130.2c-0.5,0-1,0.2-1.4,0.5s-0.6,0.9-0.6,1.6h3.9c0-0.6-0.2-1.2-0.5-1.5
		S244.3,130.2,243.7,130.2z"/>
	<path class="st0" d="M251.3,138.7c0-0.7,0.2-1.3,0.6-1.7s1-0.6,1.9-0.6c0.8,0,1.4,0.2,1.8,0.6s0.6,0.9,0.6,1.7
		c0,0.7-0.2,1.3-0.6,1.6s-1,0.6-1.8,0.6c-0.8,0-1.4-0.2-1.8-0.6S251.3,139.4,251.3,138.7z"/>
</g>
<g>
	<path class="st0" d="M30.5,178.6H20.3v-17.1h10.2v3.7H25v2.7h5.1v3.7H25v3.2h5.5V178.6z"/>
	<path class="st0" d="M43,174.6c0,1.4-0.5,2.5-1.5,3.2s-2.4,1.1-4.2,1.1c-1,0-1.8-0.1-2.6-0.2s-1.5-0.3-2.2-0.6v-3.7
		c0.7,0.3,1.5,0.6,2.3,0.8s1.6,0.3,2.3,0.3c1,0,1.5-0.2,1.5-0.7c0-0.2-0.1-0.4-0.4-0.6s-1.1-0.5-2.4-1.1c-1.2-0.5-2.1-1.1-2.6-1.7
		s-0.7-1.4-0.7-2.4c0-1.2,0.5-2.2,1.4-2.9s2.3-1,4-1c0.9,0,1.7,0.1,2.5,0.3s1.6,0.5,2.4,0.8l-1.2,3c-0.6-0.3-1.3-0.5-1.9-0.7
		s-1.2-0.3-1.7-0.3c-0.8,0-1.1,0.2-1.1,0.6c0,0.2,0.1,0.4,0.4,0.6s1,0.5,2.3,1c0.9,0.4,1.6,0.8,2.1,1.1s0.8,0.8,1,1.3
		S43,173.8,43,174.6z"/>
	<path class="st0" d="M51.6,175.2c0.6,0,1.4-0.2,2.2-0.5v3.3c-0.6,0.3-1.2,0.5-1.8,0.6s-1.2,0.2-2,0.2c-1.5,0-2.6-0.4-3.3-1.1
		s-1-1.9-1-3.5v-5.5h-1.6v-1.9l2-1.4l1.2-2.8h3v2.7h3.3v3.4h-3.3v5.2C50.3,174.8,50.8,175.2,51.6,175.2z"/>
	<path class="st0" d="M64.3,178.6l-0.9-1.8h-0.1c-0.6,0.8-1.2,1.3-1.9,1.6s-1.5,0.4-2.5,0.4c-1.2,0-2.2-0.4-3-1.1s-1.1-1.8-1.1-3.2
		c0-1.4,0.5-2.5,1.5-3.2s2.4-1.1,4.3-1.2l2.2-0.1V170c0-1.1-0.5-1.6-1.6-1.6c-1,0-2.2,0.3-3.7,1l-1.3-3c1.5-0.8,3.5-1.2,5.9-1.2
		c1.7,0,3,0.4,4,1.3s1.4,2,1.4,3.5v8.7H64.3z M60.9,175.6c0.6,0,1-0.2,1.4-0.5s0.6-0.8,0.6-1.4v-1l-1.1,0c-1.5,0.1-2.3,0.6-2.3,1.7
		C59.6,175.2,60.1,175.6,60.9,175.6z"/>
	<path class="st0" d="M78.3,165.1c1.4,0,2.6,0.6,3.4,1.8s1.3,2.9,1.3,5c0,2.2-0.4,3.8-1.3,5.1s-2,1.8-3.6,1.8
		c-0.5,0-0.9-0.1-1.3-0.2s-0.7-0.3-1-0.4s-0.7-0.5-1-0.9h-0.3l-0.7,1.3h-3.6v-18.2h4.6v4.1c0,0.5-0.1,1.3-0.2,2.5h0.2
		c0.4-0.7,1-1.2,1.5-1.5S77.5,165.1,78.3,165.1z M76.6,168.7c-0.6,0-1.1,0.2-1.4,0.7s-0.4,1.1-0.4,2.1v0.6c0,1.1,0.1,1.9,0.4,2.3
		s0.8,0.7,1.5,0.7c0.5,0,1-0.3,1.2-0.8s0.4-1.4,0.4-2.4C78.3,169.8,77.7,168.7,76.6,168.7z"/>
	<path class="st0" d="M89.7,178.6h-4.6v-18.2h4.6V178.6z"/>
	<path class="st0" d="M92.3,162.1c0-0.7,0.2-1.2,0.6-1.5s1-0.5,1.9-0.5s1.5,0.2,1.9,0.5s0.6,0.9,0.6,1.5c0,1.3-0.8,2-2.4,2
		C93.1,164.1,92.3,163.4,92.3,162.1z M97,178.6h-4.6v-13.3H97V178.6z"/>
	<path class="st0" d="M110,174.6c0,1.4-0.5,2.5-1.5,3.2s-2.4,1.1-4.2,1.1c-1,0-1.8-0.1-2.6-0.2s-1.5-0.3-2.2-0.6v-3.7
		c0.7,0.3,1.5,0.6,2.3,0.8s1.6,0.3,2.3,0.3c1,0,1.5-0.2,1.5-0.7c0-0.2-0.1-0.4-0.4-0.6s-1.1-0.5-2.4-1.1c-1.2-0.5-2.1-1.1-2.6-1.7
		s-0.7-1.4-0.7-2.4c0-1.2,0.5-2.2,1.4-2.9s2.3-1,4-1c0.9,0,1.7,0.1,2.5,0.3s1.6,0.5,2.4,0.8l-1.2,3c-0.6-0.3-1.3-0.5-1.9-0.7
		s-1.2-0.3-1.7-0.3c-0.8,0-1.1,0.2-1.1,0.6c0,0.2,0.1,0.4,0.4,0.6s1,0.5,2.3,1c0.9,0.4,1.6,0.8,2.1,1.1s0.8,0.8,1,1.3
		S110,173.8,110,174.6z"/>
	<path class="st0" d="M120.4,178.6v-7.2c0-1.8-0.5-2.7-1.6-2.7c-0.8,0-1.3,0.3-1.7,0.9s-0.5,1.7-0.5,3.1v5.8H112v-18.2h4.6v2.6
		c0,1.2-0.1,2.5-0.2,4h0.2c0.4-0.7,1-1.2,1.6-1.5s1.3-0.4,2.1-0.4c1.5,0,2.6,0.4,3.5,1.3s1.2,2.1,1.2,3.6v8.6H120.4z"/>
	<path class="st0" d="M134,178.9c-2.2,0-3.9-0.6-5.2-1.8s-1.8-2.8-1.8-5c0-2.2,0.6-4,1.7-5.2s2.8-1.8,4.9-1.8c2,0,3.5,0.5,4.6,1.6
		s1.6,2.5,1.6,4.5v2h-8.2c0,0.7,0.3,1.3,0.8,1.7s1.2,0.6,2.1,0.6c0.8,0,1.5-0.1,2.2-0.2s1.4-0.4,2.2-0.8v3.3
		c-0.7,0.4-1.5,0.6-2.2,0.8S135.1,178.9,134,178.9z M133.8,168.2c-0.5,0-1,0.2-1.4,0.5s-0.6,0.9-0.6,1.6h3.9c0-0.6-0.2-1.2-0.5-1.5
		S134.4,168.2,133.8,168.2z"/>
	<path class="st0" d="M146.1,178.9c-0.9,0-1.8-0.3-2.5-0.8s-1.3-1.3-1.6-2.4s-0.6-2.3-0.6-3.7c0-2.2,0.4-3.8,1.3-5.1
		s2.1-1.8,3.6-1.8c0.7,0,1.4,0.1,2,0.4s1.1,0.8,1.5,1.5h0.1c-0.1-1-0.2-2.1-0.2-3.1v-3.6h4.6v18.2h-3.5l-1-1.7h-0.2
		C148.9,178.2,147.7,178.9,146.1,178.9z M148,175.2c0.7,0,1.3-0.2,1.6-0.7s0.5-1.2,0.5-2.1v-0.4c0-1.2-0.2-2-0.5-2.5
		s-0.9-0.7-1.6-0.7c-0.6,0-1.1,0.3-1.4,0.8s-0.5,1.4-0.5,2.4c0,1,0.2,1.8,0.5,2.4S147.4,175.2,148,175.2z"/>
	<path class="st0" d="M172.2,178.6h-4.7v-9.1c0-1.1,0-2.1,0.1-3c-0.3,0.4-0.6,0.7-1.1,1.1l-1.9,1.6l-2.4-3l5.9-4.8h4.2V178.6z"/>
	<path class="st0" d="M188,169.3c0,3.4-0.7,5.8-2.2,7.3s-3.8,2.2-6.9,2.2c-1,0-1.8,0-2.4-0.1v-3.7c0.7,0.1,1.3,0.2,2,0.2
		c1.7,0,2.9-0.3,3.8-1s1.4-1.8,1.5-3.2h-0.1c-0.3,0.6-0.6,1-0.9,1.2s-0.7,0.4-1.1,0.6s-1,0.2-1.6,0.2c-1.5,0-2.6-0.5-3.5-1.5
		s-1.3-2.4-1.3-4.1c0-1.9,0.5-3.4,1.6-4.5s2.6-1.6,4.4-1.6c2.1,0,3.7,0.7,4.9,2.1S188,166.8,188,169.3z M181.6,165
		c-0.5,0-0.9,0.2-1.2,0.6s-0.5,1-0.5,1.8c0,0.6,0.1,1.2,0.4,1.5s0.7,0.6,1.3,0.6c0.5,0,0.9-0.2,1.3-0.6s0.6-0.8,0.6-1.3
		c0-0.7-0.2-1.3-0.5-1.8S182.1,165,181.6,165z"/>
	<path class="st0" d="M202.1,175.3h-1.9v3.3h-4.6v-3.3h-6.8v-3.4l7.1-10.4h4.3v10.4h1.9V175.3z M195.6,171.9v-2c0-0.4,0-0.9,0-1.5
		s0-1,0.1-1h-0.1c-0.3,0.6-0.6,1.2-0.9,1.7l-1.9,2.8H195.6z"/>
	<path class="st0" d="M204.4,178.6l5.9-13.3h-7.4v-3.8h12.4v2.7l-6,14.4H204.4z"/>
	<path class="st0" d="M216.6,176.7c0-0.7,0.2-1.3,0.6-1.7s1-0.6,1.9-0.6c0.8,0,1.4,0.2,1.8,0.6s0.6,0.9,0.6,1.7
		c0,0.7-0.2,1.3-0.6,1.6s-1,0.6-1.8,0.6c-0.8,0-1.4-0.2-1.8-0.6S216.6,177.4,216.6,176.7z"/>
</g>
</svg>
