<?xml version="1.0" encoding="utf-8"?>
<!-- Generator: Adobe Illustrator 22.1.0, SVG Export Plug-In . SVG Version: 6.00 Build 0)  -->
<svg version="1.1" id="Layer_1" xmlns="http://www.w3.org/2000/svg" xmlns:xlink="http://www.w3.org/1999/xlink" x="0px" y="0px"
	 viewBox="0 0 300 250" style="enable-background:new 0 0 300 250;" xml:space="preserve">
<style type="text/css">
	.st0{fill:#FFFFFF;}
</style>
<g>
	<path class="st0" d="M23.1,212.2h3.2v4.3c-0.5,0.2-1,0.3-1.5,0.4s-1,0.1-1.5,0.1c-1.3,0-2.3-0.4-3-1.2s-1.1-1.9-1.1-3.2
		c0-1.4,0.4-2.5,1.2-3.2s1.9-1.2,3.3-1.2c0.9,0,1.7,0.2,2.5,0.5l-0.5,1.2c-0.7-0.3-1.4-0.5-2.1-0.5c-0.9,0-1.6,0.3-2.2,0.9
		s-0.8,1.4-0.8,2.4c0,1,0.2,1.8,0.7,2.4s1.2,0.8,2.1,0.8c0.5,0,0.9-0.1,1.5-0.2v-2.2h-1.8V212.2z"/>
	<path class="st0" d="M30.8,216.9c-1,0-1.8-0.3-2.4-0.9s-0.9-1.4-0.9-2.4c0-1.1,0.3-1.9,0.8-2.5s1.3-0.9,2.2-0.9
		c0.9,0,1.5,0.3,2,0.8s0.7,1.2,0.7,2.1v0.7H29c0,0.6,0.2,1.1,0.5,1.5s0.8,0.5,1.4,0.5c0.4,0,0.7,0,1.1-0.1s0.7-0.2,1.1-0.4v1.1
		c-0.3,0.2-0.7,0.3-1,0.3S31.2,216.9,30.8,216.9z M30.5,211.3c-0.4,0-0.8,0.1-1.1,0.4s-0.4,0.7-0.5,1.2h2.9c0-0.5-0.1-0.9-0.4-1.2
		S30.9,211.3,30.5,211.3z"/>
	<path class="st0" d="M37,215.8c0.3,0,0.7-0.1,1-0.2v1c-0.2,0.1-0.3,0.1-0.6,0.2s-0.5,0.1-0.7,0.1c-1.3,0-2-0.7-2-2.1v-3.5h-0.9
		v-0.6l0.9-0.5l0.5-1.4h0.8v1.4H38v1h-1.8v3.5c0,0.3,0.1,0.6,0.2,0.7S36.7,215.8,37,215.8z"/>
	<path class="st0" d="M43.3,216.8H42v-9.1h1.4V216.8z"/>
	<path class="st0" d="M45,208.6c0-0.2,0.1-0.4,0.2-0.6s0.3-0.2,0.6-0.2c0.2,0,0.4,0.1,0.6,0.2s0.2,0.3,0.2,0.6
		c0,0.2-0.1,0.4-0.2,0.6s-0.3,0.2-0.6,0.2c-0.2,0-0.4-0.1-0.6-0.2S45,208.8,45,208.6z M46.5,216.8h-1.4v-6.5h1.4V216.8z"/>
	<path class="st0" d="M51.5,211.4h-1.6v5.4h-1.4v-5.4h-1.1v-0.6l1.1-0.4v-0.4c0-0.8,0.2-1.3,0.5-1.7s0.9-0.6,1.6-0.6
		c0.5,0,1,0.1,1.4,0.2l-0.4,1c-0.3-0.1-0.7-0.2-1-0.2c-0.3,0-0.5,0.1-0.7,0.3s-0.2,0.5-0.2,0.9v0.4h1.6V211.4z"/>
	<path class="st0" d="M55.2,216.9c-1,0-1.8-0.3-2.4-0.9s-0.9-1.4-0.9-2.4c0-1.1,0.3-1.9,0.8-2.5s1.3-0.9,2.2-0.9
		c0.9,0,1.5,0.3,2,0.8s0.7,1.2,0.7,2.1v0.7h-4.3c0,0.6,0.2,1.1,0.5,1.5s0.8,0.5,1.4,0.5c0.4,0,0.7,0,1.1-0.1s0.7-0.2,1.1-0.4v1.1
		c-0.3,0.2-0.7,0.3-1,0.3S55.6,216.9,55.2,216.9z M54.9,211.3c-0.4,0-0.8,0.1-1.1,0.4s-0.4,0.7-0.5,1.2h2.9c0-0.5-0.1-0.9-0.4-1.2
		S55.3,211.3,54.9,211.3z"/>
	<path class="st0" d="M61.8,208.6c0-0.2,0.1-0.4,0.2-0.6s0.3-0.2,0.6-0.2c0.2,0,0.4,0.1,0.6,0.2s0.2,0.3,0.2,0.6
		c0,0.2-0.1,0.4-0.2,0.6s-0.3,0.2-0.6,0.2c-0.2,0-0.4-0.1-0.6-0.2S61.8,208.8,61.8,208.6z M63.3,216.8h-1.4v-6.5h1.4V216.8z"/>
	<path class="st0" d="M70.7,216.8h-1.4v-4c0-0.5-0.1-0.9-0.3-1.1s-0.5-0.4-1-0.4c-0.6,0-1,0.2-1.3,0.5s-0.4,0.9-0.4,1.7v3.2H65v-6.5
		h1.1l0.2,0.8h0.1c0.2-0.3,0.5-0.5,0.8-0.7s0.8-0.3,1.2-0.3c1.6,0,2.3,0.8,2.3,2.4V216.8z"/>
	<path class="st0" d="M76.8,215c0,0.6-0.2,1.1-0.7,1.5s-1.1,0.5-2,0.5c-0.9,0-1.6-0.1-2.1-0.4v-1.2c0.8,0.4,1.5,0.5,2.1,0.5
		c0.8,0,1.3-0.3,1.3-0.8c0-0.2,0-0.3-0.1-0.4s-0.2-0.2-0.5-0.3s-0.5-0.2-0.9-0.4c-0.7-0.3-1.3-0.6-1.5-0.9S72,212.4,72,212
		c0-0.6,0.2-1,0.7-1.3s1.1-0.5,1.8-0.5c0.8,0,1.5,0.2,2.2,0.5l-0.4,1c-0.7-0.3-1.3-0.4-1.8-0.4c-0.7,0-1.1,0.2-1.1,0.6
		c0,0.2,0.1,0.4,0.3,0.5s0.6,0.3,1.2,0.6c0.5,0.2,0.9,0.4,1.2,0.6s0.4,0.4,0.5,0.6S76.8,214.7,76.8,215z"/>
	<path class="st0" d="M82.6,216.8l-0.2-0.8h-0.1c-0.2,0.3-0.5,0.5-0.8,0.7s-0.8,0.3-1.2,0.3c-0.8,0-1.4-0.2-1.8-0.6s-0.6-1-0.6-1.8
		v-4.2h1.4v4c0,0.5,0.1,0.9,0.3,1.1s0.5,0.4,1,0.4c0.6,0,1-0.2,1.3-0.5s0.4-0.9,0.4-1.7v-3.2h1.4v6.5H82.6z"/>
	<path class="st0" d="M88.7,210.2c0.3,0,0.5,0,0.7,0.1l-0.1,1.3c-0.2,0-0.4-0.1-0.6-0.1c-0.6,0-1,0.2-1.3,0.5s-0.5,0.8-0.5,1.4v3.4
		h-1.4v-6.5h1.1l0.2,1.1h0.1c0.2-0.4,0.5-0.7,0.8-0.9S88.3,210.2,88.7,210.2z"/>
	<path class="st0" d="M94.4,216.8l-0.3-0.9h0c-0.3,0.4-0.6,0.7-0.9,0.8s-0.7,0.2-1.2,0.2c-0.6,0-1.1-0.2-1.5-0.5s-0.5-0.8-0.5-1.5
		c0-0.7,0.2-1.2,0.7-1.5s1.3-0.5,2.3-0.6l1.1,0v-0.3c0-0.4-0.1-0.7-0.3-0.9s-0.5-0.3-0.9-0.3c-0.3,0-0.7,0-1,0.1s-0.6,0.2-0.9,0.3
		l-0.4-1c0.4-0.2,0.7-0.3,1.2-0.4s0.8-0.1,1.2-0.1c0.8,0,1.4,0.2,1.9,0.5s0.6,0.9,0.6,1.7v4.4H94.4z M92.3,215.9
		c0.5,0,0.9-0.1,1.2-0.4s0.5-0.7,0.5-1.2v-0.6l-0.8,0c-0.6,0-1.1,0.1-1.4,0.3s-0.4,0.5-0.4,0.9c0,0.3,0.1,0.5,0.3,0.7
		S92,215.9,92.3,215.9z"/>
	<path class="st0" d="M102.8,216.8h-1.4v-4c0-0.5-0.1-0.9-0.3-1.1s-0.5-0.4-1-0.4c-0.6,0-1,0.2-1.3,0.5s-0.4,0.9-0.4,1.7v3.2h-1.4
		v-6.5h1.1l0.2,0.8h0.1c0.2-0.3,0.5-0.5,0.8-0.7s0.8-0.3,1.2-0.3c1.6,0,2.3,0.8,2.3,2.4V216.8z"/>
	<path class="st0" d="M107.1,216.9c-1,0-1.7-0.3-2.2-0.9s-0.8-1.4-0.8-2.5c0-1.1,0.3-1.9,0.8-2.5s1.3-0.9,2.3-0.9
		c0.7,0,1.3,0.1,1.8,0.4l-0.4,1.1c-0.6-0.2-1.1-0.3-1.4-0.3c-1.1,0-1.7,0.7-1.7,2.2c0,0.7,0.1,1.3,0.4,1.6s0.7,0.5,1.2,0.5
		c0.6,0,1.2-0.2,1.7-0.5v1.2c-0.2,0.1-0.5,0.2-0.8,0.3S107.5,216.9,107.1,216.9z"/>
	<path class="st0" d="M113,216.9c-1,0-1.8-0.3-2.4-0.9s-0.9-1.4-0.9-2.4c0-1.1,0.3-1.9,0.8-2.5s1.3-0.9,2.2-0.9c0.9,0,1.5,0.3,2,0.8
		s0.7,1.2,0.7,2.1v0.7h-4.3c0,0.6,0.2,1.1,0.5,1.5s0.8,0.5,1.4,0.5c0.4,0,0.7,0,1.1-0.1s0.7-0.2,1.1-0.4v1.1c-0.3,0.2-0.7,0.3-1,0.3
		S113.4,216.9,113,216.9z M112.7,211.3c-0.4,0-0.8,0.1-1.1,0.4s-0.4,0.7-0.5,1.2h2.9c0-0.5-0.1-0.9-0.4-1.2S113.2,211.3,112.7,211.3
		z"/>
	<path class="st0" d="M123.8,216.8l-0.3-0.9h0c-0.3,0.4-0.6,0.7-0.9,0.8s-0.7,0.2-1.2,0.2c-0.6,0-1.1-0.2-1.5-0.5s-0.5-0.8-0.5-1.5
		c0-0.7,0.2-1.2,0.7-1.5s1.3-0.5,2.3-0.6l1.1,0v-0.3c0-0.4-0.1-0.7-0.3-0.9s-0.5-0.3-0.9-0.3c-0.3,0-0.7,0-1,0.1s-0.6,0.2-0.9,0.3
		l-0.4-1c0.4-0.2,0.7-0.3,1.2-0.4s0.8-0.1,1.2-0.1c0.8,0,1.4,0.2,1.9,0.5s0.6,0.9,0.6,1.7v4.4H123.8z M121.7,215.9
		c0.5,0,0.9-0.1,1.2-0.4s0.5-0.7,0.5-1.2v-0.6l-0.8,0c-0.6,0-1.1,0.1-1.4,0.3s-0.4,0.5-0.4,0.9c0,0.3,0.1,0.5,0.3,0.7
		S121.4,215.9,121.7,215.9z"/>
	<path class="st0" d="M128.8,215.8c0.3,0,0.7-0.1,1-0.2v1c-0.2,0.1-0.3,0.1-0.6,0.2s-0.5,0.1-0.7,0.1c-1.3,0-2-0.7-2-2.1v-3.5h-0.9
		v-0.6l0.9-0.5l0.5-1.4h0.8v1.4h1.8v1h-1.8v3.5c0,0.3,0.1,0.6,0.2,0.7S128.6,215.8,128.8,215.8z"/>
</g>
<g>
	<path class="st0" d="M22.1,229.9c-1,0-1.7-0.3-2.2-0.9s-0.8-1.4-0.8-2.5c0-1.1,0.3-1.9,0.8-2.5s1.3-0.9,2.3-0.9
		c0.7,0,1.3,0.1,1.8,0.4l-0.4,1.1c-0.6-0.2-1.1-0.3-1.4-0.3c-1.1,0-1.7,0.7-1.7,2.2c0,0.7,0.1,1.3,0.4,1.6s0.7,0.5,1.2,0.5
		c0.6,0,1.2-0.2,1.7-0.5v1.2c-0.2,0.1-0.5,0.2-0.8,0.3S22.5,229.9,22.1,229.9z"/>
	<path class="st0" d="M30.9,226.6c0,1.1-0.3,1.9-0.8,2.5s-1.3,0.9-2.3,0.9c-0.6,0-1.1-0.1-1.6-0.4s-0.8-0.7-1.1-1.2
		s-0.4-1.1-0.4-1.8c0-1.1,0.3-1.9,0.8-2.5s1.3-0.9,2.3-0.9c0.9,0,1.7,0.3,2.2,0.9S30.9,225.5,30.9,226.6z M26.2,226.6
		c0,1.5,0.6,2.2,1.7,2.2c1.1,0,1.6-0.7,1.6-2.2c0-1.5-0.6-2.2-1.7-2.2c-0.6,0-1,0.2-1.3,0.6S26.2,225.8,26.2,226.6z"/>
	<path class="st0" d="M37.7,229.8h-1.4v-4c0-0.5-0.1-0.9-0.3-1.1s-0.5-0.4-0.9-0.4c-0.5,0-0.9,0.2-1.2,0.5s-0.4,0.9-0.4,1.7v3.2
		h-1.4v-6.5h1.1l0.2,0.8h0.1c0.2-0.3,0.4-0.5,0.8-0.7s0.7-0.3,1.1-0.3c1,0,1.7,0.3,2,1h0.1c0.2-0.3,0.5-0.6,0.8-0.8s0.7-0.3,1.2-0.3
		c0.8,0,1.3,0.2,1.7,0.6s0.5,1,0.5,1.8v4.2h-1.4v-4c0-0.5-0.1-0.9-0.3-1.1s-0.5-0.4-0.9-0.4c-0.5,0-0.9,0.2-1.2,0.5
		s-0.4,0.8-0.4,1.5V229.8z"/>
	<path class="st0" d="M46.8,229.9c-0.8,0-1.5-0.3-1.9-0.9h-0.1c0.1,0.5,0.1,0.9,0.1,1v2.7h-1.4v-9.4h1.1c0,0.1,0.1,0.4,0.2,0.9h0.1
		c0.4-0.7,1.1-1,1.9-1c0.8,0,1.4,0.3,1.9,0.9s0.7,1.4,0.7,2.5s-0.2,1.9-0.7,2.5S47.6,229.9,46.8,229.9z M46.4,224.3
		c-0.5,0-0.9,0.2-1.2,0.5s-0.4,0.8-0.4,1.5v0.2c0,0.8,0.1,1.4,0.4,1.7s0.7,0.5,1.2,0.5c0.5,0,0.8-0.2,1.1-0.6s0.4-0.9,0.4-1.7
		c0-0.7-0.1-1.3-0.4-1.6S46.9,224.3,46.4,224.3z"/>
	<path class="st0" d="M53.6,229.9c-1,0-1.8-0.3-2.4-0.9s-0.9-1.4-0.9-2.4c0-1.1,0.3-1.9,0.8-2.5s1.3-0.9,2.2-0.9
		c0.9,0,1.5,0.3,2,0.8s0.7,1.2,0.7,2.1v0.7h-4.3c0,0.6,0.2,1.1,0.5,1.5s0.8,0.5,1.4,0.5c0.4,0,0.7,0,1.1-0.1s0.7-0.2,1.1-0.4v1.1
		c-0.3,0.2-0.7,0.3-1,0.3S54,229.9,53.6,229.9z M53.3,224.3c-0.4,0-0.8,0.1-1.1,0.4s-0.4,0.7-0.5,1.2h2.9c0-0.5-0.1-0.9-0.4-1.2
		S53.7,224.3,53.3,224.3z"/>
	<path class="st0" d="M59.8,228.8c0.3,0,0.7-0.1,1-0.2v1c-0.2,0.1-0.3,0.1-0.6,0.2s-0.5,0.1-0.7,0.1c-1.3,0-2-0.7-2-2.1v-3.5h-0.9
		v-0.6l0.9-0.5l0.5-1.4h0.8v1.4h1.8v1h-1.8v3.5c0,0.3,0.1,0.6,0.2,0.7S59.5,228.8,59.8,228.8z"/>
	<path class="st0" d="M61.8,221.6c0-0.2,0.1-0.4,0.2-0.6s0.3-0.2,0.6-0.2c0.2,0,0.4,0.1,0.6,0.2s0.2,0.3,0.2,0.6
		c0,0.2-0.1,0.4-0.2,0.6s-0.3,0.2-0.6,0.2c-0.2,0-0.4-0.1-0.6-0.2S61.8,221.8,61.8,221.6z M63.3,229.8h-1.4v-6.5h1.4V229.8z"/>
	<path class="st0" d="M67.4,228.8c0.3,0,0.7-0.1,1-0.2v1c-0.2,0.1-0.3,0.1-0.6,0.2s-0.5,0.1-0.7,0.1c-1.3,0-2-0.7-2-2.1v-3.5h-0.9
		v-0.6l0.9-0.5l0.5-1.4h0.8v1.4h1.8v1h-1.8v3.5c0,0.3,0.1,0.6,0.2,0.7S67.1,228.8,67.4,228.8z"/>
	<path class="st0" d="M69.4,221.6c0-0.2,0.1-0.4,0.2-0.6s0.3-0.2,0.6-0.2c0.2,0,0.4,0.1,0.6,0.2s0.2,0.3,0.2,0.6
		c0,0.2-0.1,0.4-0.2,0.6s-0.3,0.2-0.6,0.2c-0.2,0-0.4-0.1-0.6-0.2S69.4,221.8,69.4,221.6z M70.9,229.8h-1.4v-6.5h1.4V229.8z"/>
	<path class="st0" d="M74.1,229.8l-2.5-6.5h1.5l1.3,3.8c0.2,0.6,0.4,1.1,0.4,1.5h0c0-0.3,0.2-0.8,0.4-1.5l1.3-3.8H78l-2.5,6.5H74.1z
		"/>
	<path class="st0" d="M81.6,229.9c-1,0-1.8-0.3-2.4-0.9s-0.9-1.4-0.9-2.4c0-1.1,0.3-1.9,0.8-2.5s1.3-0.9,2.2-0.9
		c0.9,0,1.5,0.3,2,0.8s0.7,1.2,0.7,2.1v0.7h-4.3c0,0.6,0.2,1.1,0.5,1.5s0.8,0.5,1.4,0.5c0.4,0,0.7,0,1.1-0.1s0.7-0.2,1.1-0.4v1.1
		c-0.3,0.2-0.7,0.3-1,0.3S82,229.9,81.6,229.9z M81.4,224.3c-0.4,0-0.8,0.1-1.1,0.4s-0.4,0.7-0.5,1.2h2.9c0-0.5-0.1-0.9-0.4-1.2
		S81.8,224.3,81.4,224.3z"/>
	<path class="st0" d="M93.8,223.3v0.8l-1.1,0.2c0.1,0.1,0.2,0.3,0.3,0.5s0.1,0.4,0.1,0.6c0,0.7-0.2,1.2-0.7,1.6s-1.1,0.6-1.9,0.6
		c-0.2,0-0.4,0-0.6,0c-0.3,0.2-0.4,0.4-0.4,0.6c0,0.1,0.1,0.3,0.2,0.3s0.4,0.1,0.8,0.1h1.1c0.7,0,1.3,0.2,1.6,0.5s0.6,0.7,0.6,1.3
		c0,0.7-0.3,1.3-0.9,1.7s-1.5,0.6-2.6,0.6c-0.9,0-1.6-0.2-2-0.5s-0.7-0.8-0.7-1.3c0-0.4,0.1-0.7,0.4-1s0.6-0.5,1.1-0.6
		c-0.2-0.1-0.3-0.2-0.5-0.4s-0.2-0.4-0.2-0.5c0-0.2,0.1-0.4,0.2-0.6s0.3-0.3,0.6-0.5c-0.3-0.1-0.6-0.4-0.8-0.7s-0.3-0.7-0.3-1.1
		c0-0.7,0.2-1.2,0.7-1.6s1.1-0.6,1.9-0.6c0.2,0,0.4,0,0.6,0s0.4,0.1,0.5,0.1H93.8z M88.7,230.8c0,0.3,0.1,0.5,0.4,0.7
		s0.6,0.2,1.1,0.2c0.8,0,1.3-0.1,1.7-0.3s0.6-0.5,0.6-0.9c0-0.3-0.1-0.5-0.3-0.6s-0.6-0.2-1.1-0.2h-1c-0.4,0-0.7,0.1-0.9,0.3
		S88.7,230.5,88.7,230.8z M89.3,225.4c0,0.4,0.1,0.7,0.3,0.9s0.5,0.3,0.9,0.3c0.8,0,1.2-0.4,1.2-1.3c0-0.4-0.1-0.7-0.3-1
		s-0.5-0.3-0.9-0.3c-0.4,0-0.7,0.1-0.9,0.3S89.3,225,89.3,225.4z"/>
	<path class="st0" d="M98.1,223.2c0.3,0,0.5,0,0.7,0.1l-0.1,1.3c-0.2,0-0.4-0.1-0.6-0.1c-0.6,0-1,0.2-1.3,0.5s-0.5,0.8-0.5,1.4v3.4
		h-1.4v-6.5h1.1l0.2,1.1h0.1c0.2-0.4,0.5-0.7,0.8-0.9S97.7,223.2,98.1,223.2z"/>
	<path class="st0" d="M105.5,226.6c0,1.1-0.3,1.9-0.8,2.5s-1.3,0.9-2.3,0.9c-0.6,0-1.1-0.1-1.6-0.4s-0.8-0.7-1.1-1.2
		s-0.4-1.1-0.4-1.8c0-1.1,0.3-1.9,0.8-2.5s1.3-0.9,2.3-0.9c0.9,0,1.7,0.3,2.2,0.9S105.5,225.5,105.5,226.6z M100.7,226.6
		c0,1.5,0.6,2.2,1.7,2.2c1.1,0,1.6-0.7,1.6-2.2c0-1.5-0.6-2.2-1.7-2.2c-0.6,0-1,0.2-1.3,0.6S100.7,225.8,100.7,226.6z"/>
	<path class="st0" d="M111.4,229.8l-0.2-0.8h-0.1c-0.2,0.3-0.5,0.5-0.8,0.7s-0.8,0.3-1.2,0.3c-0.8,0-1.4-0.2-1.8-0.6s-0.6-1-0.6-1.8
		v-4.2h1.4v4c0,0.5,0.1,0.9,0.3,1.1s0.5,0.4,1,0.4c0.6,0,1-0.2,1.3-0.5s0.4-0.9,0.4-1.7v-3.2h1.4v6.5H111.4z"/>
	<path class="st0" d="M117.5,229.9c-0.8,0-1.5-0.3-1.9-0.9h-0.1c0.1,0.5,0.1,0.9,0.1,1v2.7h-1.4v-9.4h1.1c0,0.1,0.1,0.4,0.2,0.9h0.1
		c0.4-0.7,1.1-1,1.9-1c0.8,0,1.4,0.3,1.9,0.9s0.7,1.4,0.7,2.5s-0.2,1.9-0.7,2.5S118.3,229.9,117.5,229.9z M117.1,224.3
		c-0.5,0-0.9,0.2-1.2,0.5s-0.4,0.8-0.4,1.5v0.2c0,0.8,0.1,1.4,0.4,1.7s0.7,0.5,1.2,0.5c0.5,0,0.8-0.2,1.1-0.6s0.4-0.9,0.4-1.7
		c0-0.7-0.1-1.3-0.4-1.6S117.6,224.3,117.1,224.3z"/>
	<path class="st0" d="M127.6,229.9c-0.8,0-1.5-0.3-1.9-0.9h-0.1c0.1,0.5,0.1,0.9,0.1,1v2.7h-1.4v-9.4h1.1c0,0.1,0.1,0.4,0.2,0.9h0.1
		c0.4-0.7,1.1-1,1.9-1c0.8,0,1.4,0.3,1.9,0.9s0.7,1.4,0.7,2.5s-0.2,1.9-0.7,2.5S128.4,229.9,127.6,229.9z M127.3,224.3
		c-0.5,0-0.9,0.2-1.2,0.5s-0.4,0.8-0.4,1.5v0.2c0,0.8,0.1,1.4,0.4,1.7s0.7,0.5,1.2,0.5c0.5,0,0.8-0.2,1.1-0.6s0.4-0.9,0.4-1.7
		c0-0.7-0.1-1.3-0.4-1.6S127.8,224.3,127.3,224.3z"/>
	<path class="st0" d="M134.8,223.2c0.3,0,0.5,0,0.7,0.1l-0.1,1.3c-0.2,0-0.4-0.1-0.6-0.1c-0.6,0-1,0.2-1.3,0.5s-0.5,0.8-0.5,1.4v3.4
		h-1.4v-6.5h1.1l0.2,1.1h0.1c0.2-0.4,0.5-0.7,0.8-0.9S134.4,223.2,134.8,223.2z"/>
	<path class="st0" d="M136.4,221.6c0-0.2,0.1-0.4,0.2-0.6s0.3-0.2,0.6-0.2c0.2,0,0.4,0.1,0.6,0.2s0.2,0.3,0.2,0.6
		c0,0.2-0.1,0.4-0.2,0.6s-0.3,0.2-0.6,0.2c-0.2,0-0.4-0.1-0.6-0.2S136.4,221.8,136.4,221.6z M137.9,229.8h-1.4v-6.5h1.4V229.8z"/>
	<path class="st0" d="M142.2,229.9c-1,0-1.7-0.3-2.2-0.9s-0.8-1.4-0.8-2.5c0-1.1,0.3-1.9,0.8-2.5s1.3-0.9,2.3-0.9
		c0.7,0,1.3,0.1,1.8,0.4l-0.4,1.1c-0.6-0.2-1.1-0.3-1.4-0.3c-1.1,0-1.7,0.7-1.7,2.2c0,0.7,0.1,1.3,0.4,1.6s0.7,0.5,1.2,0.5
		c0.6,0,1.2-0.2,1.7-0.5v1.2c-0.2,0.1-0.5,0.2-0.8,0.3S142.6,229.9,142.2,229.9z"/>
	<path class="st0" d="M145.2,221.6c0-0.2,0.1-0.4,0.2-0.6s0.3-0.2,0.6-0.2c0.2,0,0.4,0.1,0.6,0.2s0.2,0.3,0.2,0.6
		c0,0.2-0.1,0.4-0.2,0.6s-0.3,0.2-0.6,0.2c-0.2,0-0.4-0.1-0.6-0.2S145.2,221.8,145.2,221.6z M146.7,229.8h-1.4v-6.5h1.4V229.8z"/>
	<path class="st0" d="M154.1,229.8h-1.4v-4c0-0.5-0.1-0.9-0.3-1.1s-0.5-0.4-1-0.4c-0.6,0-1,0.2-1.3,0.5s-0.4,0.9-0.4,1.7v3.2h-1.4
		v-6.5h1.1l0.2,0.8h0.1c0.2-0.3,0.5-0.5,0.8-0.7s0.8-0.3,1.2-0.3c1.6,0,2.3,0.8,2.3,2.4V229.8z"/>
	<path class="st0" d="M161.3,223.3v0.8l-1.1,0.2c0.1,0.1,0.2,0.3,0.3,0.5s0.1,0.4,0.1,0.6c0,0.7-0.2,1.2-0.7,1.6s-1.1,0.6-1.9,0.6
		c-0.2,0-0.4,0-0.6,0c-0.3,0.2-0.4,0.4-0.4,0.6c0,0.1,0.1,0.3,0.2,0.3s0.4,0.1,0.8,0.1h1.1c0.7,0,1.3,0.2,1.6,0.5s0.6,0.7,0.6,1.3
		c0,0.7-0.3,1.3-0.9,1.7s-1.5,0.6-2.6,0.6c-0.9,0-1.6-0.2-2-0.5s-0.7-0.8-0.7-1.3c0-0.4,0.1-0.7,0.4-1s0.6-0.5,1.1-0.6
		c-0.2-0.1-0.3-0.2-0.5-0.4s-0.2-0.4-0.2-0.5c0-0.2,0.1-0.4,0.2-0.6s0.3-0.3,0.6-0.5c-0.3-0.1-0.6-0.4-0.8-0.7s-0.3-0.7-0.3-1.1
		c0-0.7,0.2-1.2,0.7-1.6s1.1-0.6,1.9-0.6c0.2,0,0.4,0,0.6,0s0.4,0.1,0.5,0.1H161.3z M156.2,230.8c0,0.3,0.1,0.5,0.4,0.7
		s0.6,0.2,1.1,0.2c0.8,0,1.3-0.1,1.7-0.3s0.6-0.5,0.6-0.9c0-0.3-0.1-0.5-0.3-0.6s-0.6-0.2-1.1-0.2h-1c-0.4,0-0.7,0.1-0.9,0.3
		S156.2,230.5,156.2,230.8z M156.8,225.4c0,0.4,0.1,0.7,0.3,0.9s0.5,0.3,0.9,0.3c0.8,0,1.2-0.4,1.2-1.3c0-0.4-0.1-0.7-0.3-1
		s-0.5-0.3-0.9-0.3c-0.4,0-0.7,0.1-0.9,0.3S156.8,225,156.8,225.4z"/>
	<path class="st0" d="M162,229.1c0-0.3,0.1-0.5,0.2-0.7s0.4-0.2,0.6-0.2c0.3,0,0.5,0.1,0.7,0.2s0.2,0.4,0.2,0.6
		c0,0.3-0.1,0.5-0.2,0.7s-0.4,0.2-0.6,0.2s-0.5-0.1-0.6-0.2S162,229.4,162,229.1z"/>
</g>
</svg>
