<?xml version="1.0" encoding="utf-8"?>
<!-- Generator: Adobe Illustrator 22.1.0, SVG Export Plug-In . SVG Version: 6.00 Build 0)  -->
<svg version="1.1" id="Layer_1" xmlns="http://www.w3.org/2000/svg" xmlns:xlink="http://www.w3.org/1999/xlink" x="0px" y="0px"
	 viewBox="0 0 300 250" style="enable-background:new 0 0 300 250;" xml:space="preserve">
<style type="text/css">
	.st0{fill:#FFFFFF;}
</style>
<g>
	<path class="st0" d="M25.4,105.7l3-6.4h5l-5.6,10.4v6.7h-4.7v-6.6l-5.6-10.6h5L25.4,105.7z"/>
	<path class="st0" d="M47.2,109.8c0,2.2-0.6,3.9-1.8,5.1s-2.8,1.8-4.9,1.8c-2,0-3.6-0.6-4.8-1.9s-1.8-2.9-1.8-5c0-2.2,0.6-3.8,1.8-5
		s2.8-1.8,4.9-1.8c1.3,0,2.5,0.3,3.5,0.8s1.8,1.3,2.3,2.4S47.2,108.4,47.2,109.8z M38.6,109.8c0,1.1,0.2,2,0.5,2.6s0.8,0.9,1.5,0.9
		c0.7,0,1.2-0.3,1.5-0.9s0.4-1.5,0.4-2.6c0-1.1-0.1-2-0.4-2.6s-0.8-0.9-1.5-0.9c-0.7,0-1.2,0.3-1.5,0.9S38.6,108.7,38.6,109.8z"/>
	<path class="st0" d="M58.8,116.5l-0.6-1.7h-0.3c-0.4,0.6-0.9,1.1-1.6,1.4s-1.5,0.5-2.4,0.5c-1.5,0-2.6-0.4-3.4-1.3s-1.2-2-1.2-3.6
		v-8.6h4.6v7.3c0,0.9,0.1,1.5,0.4,2s0.7,0.7,1.2,0.7c0.8,0,1.4-0.3,1.7-0.9s0.5-1.7,0.5-3.1v-5.8h4.6v13.3H58.8z"/>
	<path class="st0" d="M79.1,116.5v-7.2c0-1.8-0.5-2.7-1.6-2.7c-0.8,0-1.3,0.3-1.7,0.9s-0.5,1.7-0.5,3.1v5.8h-4.6V98.3h4.6v2.6
		c0,1.2-0.1,2.5-0.2,4h0.2c0.4-0.7,1-1.2,1.6-1.5s1.3-0.4,2.1-0.4c1.5,0,2.6,0.4,3.5,1.3s1.2,2.1,1.2,3.6v8.6H79.1z"/>
	<path class="st0" d="M92.8,116.7c-2.2,0-3.9-0.6-5.2-1.8s-1.8-2.8-1.8-5c0-2.2,0.6-4,1.7-5.2s2.8-1.8,4.9-1.8c2,0,3.5,0.5,4.6,1.6
		s1.6,2.5,1.6,4.5v2h-8.2c0,0.7,0.3,1.3,0.8,1.7s1.2,0.6,2.1,0.6c0.8,0,1.5-0.1,2.2-0.2s1.4-0.4,2.2-0.8v3.3
		c-0.7,0.4-1.5,0.6-2.2,0.8S93.8,116.7,92.8,116.7z M92.5,106.1c-0.5,0-1,0.2-1.4,0.5s-0.6,0.9-0.6,1.6h3.9c0-0.6-0.2-1.2-0.5-1.5
		S93.1,106.1,92.5,106.1z"/>
	<path class="st0" d="M105.3,116.5h-4.6V98.3h4.6V116.5z"/>
	<path class="st0" d="M116,116.7c-0.7,0-1.3-0.1-1.8-0.3s-1.1-0.6-1.6-1.2h-0.2c0.1,0.9,0.2,1.5,0.2,1.7v5.3H108v-19h3.7l0.6,1.7
		h0.2c0.9-1.3,2-1.9,3.5-1.9c1.5,0,2.6,0.6,3.5,1.8s1.3,2.9,1.3,5c0,2.1-0.4,3.8-1.3,5.1S117.4,116.7,116,116.7z M114.4,106.6
		c-0.7,0-1.1,0.2-1.4,0.7s-0.4,1.2-0.4,2.1v0.4c0,1.1,0.2,2,0.5,2.5s0.8,0.8,1.4,0.8c0.6,0,1-0.3,1.3-0.8s0.4-1.3,0.4-2.5
		c0-1.1-0.1-2-0.4-2.5S115,106.6,114.4,106.6z"/>
	<path class="st0" d="M136.7,116.7c-0.7,0-1.3-0.1-1.8-0.3s-1.1-0.6-1.6-1.2h-0.2c0.1,0.9,0.2,1.5,0.2,1.7v5.3h-4.6v-19h3.7l0.6,1.7
		h0.2c0.9-1.3,2-1.9,3.5-1.9c1.5,0,2.6,0.6,3.5,1.8s1.3,2.9,1.3,5c0,2.1-0.4,3.8-1.3,5.1S138.2,116.7,136.7,116.7z M135.1,106.6
		c-0.7,0-1.1,0.2-1.4,0.7s-0.4,1.2-0.4,2.1v0.4c0,1.1,0.2,2,0.5,2.5s0.8,0.8,1.4,0.8c0.6,0,1-0.3,1.3-0.8s0.4-1.3,0.4-2.5
		c0-1.1-0.1-2-0.4-2.5S135.8,106.6,135.1,106.6z"/>
	<path class="st0" d="M151.7,103c0.4,0,0.8,0,1.1,0.1l0.3,0l-0.4,4.3c-0.4-0.1-0.9-0.1-1.6-0.1c-1,0-1.7,0.2-2.2,0.7s-0.7,1.1-0.7,2
		v6.5h-4.6v-13.3h3.4l0.7,2.1h0.2c0.4-0.7,0.9-1.3,1.6-1.7S151,103,151.7,103z"/>
	<path class="st0" d="M167.1,109.8c0,2.2-0.6,3.9-1.8,5.1s-2.8,1.8-4.9,1.8c-2,0-3.6-0.6-4.8-1.9s-1.8-2.9-1.8-5
		c0-2.2,0.6-3.8,1.8-5s2.8-1.8,4.9-1.8c1.3,0,2.5,0.3,3.5,0.8s1.8,1.3,2.3,2.4S167.1,108.4,167.1,109.8z M158.5,109.8
		c0,1.1,0.2,2,0.5,2.6s0.8,0.9,1.5,0.9c0.7,0,1.2-0.3,1.5-0.9s0.4-1.5,0.4-2.6c0-1.1-0.1-2-0.4-2.6s-0.8-0.9-1.5-0.9
		c-0.7,0-1.2,0.3-1.5,0.9S158.5,108.7,158.5,109.8z"/>
	<path class="st0" d="M175.8,113.1c0.6,0,1.4-0.2,2.2-0.5v3.3c-0.6,0.3-1.2,0.5-1.8,0.6s-1.2,0.2-2,0.2c-1.5,0-2.6-0.4-3.3-1.1
		s-1-1.9-1-3.5v-5.5h-1.6v-1.9l2-1.4l1.2-2.8h3v2.7h3.3v3.4h-3.3v5.2C174.5,112.7,174.9,113.1,175.8,113.1z"/>
	<path class="st0" d="M186.3,116.7c-2.2,0-3.9-0.6-5.2-1.8s-1.8-2.8-1.8-5c0-2.2,0.6-4,1.7-5.2s2.8-1.8,4.9-1.8c2,0,3.5,0.5,4.6,1.6
		s1.6,2.5,1.6,4.5v2h-8.2c0,0.7,0.3,1.3,0.8,1.7s1.2,0.6,2.1,0.6c0.8,0,1.5-0.1,2.2-0.2s1.4-0.4,2.2-0.8v3.3
		c-0.7,0.4-1.5,0.6-2.2,0.8S187.3,116.7,186.3,116.7z M186,106.1c-0.5,0-1,0.2-1.4,0.5s-0.6,0.9-0.6,1.6h3.9c0-0.6-0.2-1.2-0.5-1.5
		S186.6,106.1,186,106.1z"/>
	<path class="st0" d="M200.2,116.7c-2.2,0-3.8-0.6-4.9-1.8s-1.7-2.9-1.7-5.1c0-2.2,0.6-3.9,1.8-5.1s2.9-1.8,5.2-1.8
		c1.5,0,3,0.3,4.3,1l-1.3,3.4c-0.6-0.2-1.1-0.4-1.5-0.6s-1-0.2-1.5-0.2c-0.7,0-1.3,0.3-1.7,0.9s-0.6,1.4-0.6,2.4
		c0,2.1,0.8,3.2,2.4,3.2c1.3,0,2.6-0.4,3.9-1.2v3.6C203.3,116.3,201.9,116.7,200.2,116.7z"/>
	<path class="st0" d="M213.2,113.1c0.6,0,1.4-0.2,2.2-0.5v3.3c-0.6,0.3-1.2,0.5-1.8,0.6s-1.2,0.2-2,0.2c-1.5,0-2.6-0.4-3.3-1.1
		s-1-1.9-1-3.5v-5.5h-1.6v-1.9l2-1.4l1.2-2.8h3v2.7h3.3v3.4h-3.3v5.2C211.9,112.7,212.3,113.1,213.2,113.1z"/>
</g>
<g>
	<path class="st0" d="M25.6,139.1c0.6,0,1.4-0.2,2.2-0.5v3.3c-0.6,0.3-1.2,0.5-1.8,0.6s-1.2,0.2-2,0.2c-1.5,0-2.6-0.4-3.3-1.1
		s-1-1.9-1-3.5v-5.5h-1.6v-1.9l2-1.4l1.2-2.8h3v2.7h3.3v3.4h-3.3v5.2C24.3,138.7,24.7,139.1,25.6,139.1z"/>
	<path class="st0" d="M38,142.5v-7.2c0-1.8-0.5-2.7-1.6-2.7c-0.8,0-1.3,0.3-1.7,0.9s-0.5,1.7-0.5,3.1v5.8h-4.6v-18.2h4.6v2.6
		c0,1.2-0.1,2.5-0.2,4h0.2c0.4-0.7,1-1.2,1.6-1.5s1.3-0.4,2.1-0.4c1.5,0,2.6,0.4,3.5,1.3s1.2,2.1,1.2,3.6v8.6H38z"/>
	<path class="st0" d="M51.7,142.7c-2.2,0-3.9-0.6-5.2-1.8s-1.8-2.8-1.8-5c0-2.2,0.6-4,1.7-5.2s2.8-1.8,4.9-1.8c2,0,3.5,0.5,4.6,1.6
		s1.6,2.5,1.6,4.5v2h-8.2c0,0.7,0.3,1.3,0.8,1.7s1.2,0.6,2.1,0.6c0.8,0,1.5-0.1,2.2-0.2s1.4-0.4,2.2-0.8v3.3
		c-0.7,0.4-1.5,0.6-2.2,0.8S52.7,142.7,51.7,142.7z M51.4,132.1c-0.5,0-1,0.2-1.4,0.5s-0.6,0.9-0.6,1.6h3.9c0-0.6-0.2-1.2-0.5-1.5
		S52,132.1,51.4,132.1z"/>
	<path class="st0" d="M71.4,142.7c-2.2,0-3.8-0.6-4.9-1.8s-1.7-2.9-1.7-5.1c0-2.2,0.6-3.9,1.8-5.1s2.9-1.8,5.2-1.8
		c1.5,0,3,0.3,4.3,1l-1.3,3.4c-0.6-0.2-1.1-0.4-1.5-0.6s-1-0.2-1.5-0.2c-0.7,0-1.3,0.3-1.7,0.9s-0.6,1.4-0.6,2.4
		c0,2.1,0.8,3.2,2.4,3.2c1.3,0,2.6-0.4,3.9-1.2v3.6C74.5,142.3,73.1,142.7,71.4,142.7z"/>
	<path class="st0" d="M90.5,135.8c0,2.2-0.6,3.9-1.8,5.1s-2.8,1.8-4.9,1.8c-2,0-3.6-0.6-4.8-1.9s-1.8-2.9-1.8-5c0-2.2,0.6-3.8,1.8-5
		s2.8-1.8,4.9-1.8c1.3,0,2.5,0.3,3.5,0.8s1.8,1.3,2.3,2.4S90.5,134.4,90.5,135.8z M81.9,135.8c0,1.1,0.2,2,0.5,2.6s0.8,0.9,1.5,0.9
		c0.7,0,1.2-0.3,1.5-0.9s0.4-1.5,0.4-2.6c0-1.1-0.1-2-0.4-2.6s-0.8-0.9-1.5-0.9c-0.7,0-1.2,0.3-1.5,0.9S81.9,134.7,81.9,135.8z"/>
	<path class="st0" d="M102.1,142.5l-0.6-1.7h-0.3c-0.4,0.6-0.9,1.1-1.6,1.4s-1.5,0.5-2.4,0.5c-1.5,0-2.6-0.4-3.4-1.3s-1.2-2-1.2-3.6
		v-8.6h4.6v7.3c0,0.9,0.1,1.5,0.4,2s0.7,0.7,1.2,0.7c0.8,0,1.4-0.3,1.7-0.9s0.5-1.7,0.5-3.1v-5.8h4.6v13.3H102.1z"/>
	<path class="st0" d="M116.7,142.5v-7.2c0-0.9-0.1-1.5-0.4-2s-0.7-0.7-1.2-0.7c-0.8,0-1.3,0.3-1.7,0.9s-0.5,1.7-0.5,3.2v5.8h-4.6
		v-13.3h3.5l0.6,1.6h0.3c0.4-0.6,0.9-1.1,1.6-1.4s1.5-0.5,2.4-0.5c1.5,0,2.6,0.4,3.4,1.3s1.2,2.1,1.2,3.6v8.6H116.7z"/>
	<path class="st0" d="M130.4,139.1c0.6,0,1.4-0.2,2.2-0.5v3.3c-0.6,0.3-1.2,0.5-1.8,0.6s-1.2,0.2-2,0.2c-1.5,0-2.6-0.4-3.3-1.1
		s-1-1.9-1-3.5v-5.5h-1.6v-1.9l2-1.4l1.2-2.8h3v2.7h3.3v3.4h-3.3v5.2C129.2,138.7,129.6,139.1,130.4,139.1z"/>
	<path class="st0" d="M142.5,129c0.4,0,0.8,0,1.1,0.1l0.3,0l-0.4,4.3c-0.4-0.1-0.9-0.1-1.6-0.1c-1,0-1.7,0.2-2.2,0.7s-0.7,1.1-0.7,2
		v6.5h-4.6v-13.3h3.4l0.7,2.1h0.2c0.4-0.7,0.9-1.3,1.6-1.7S141.8,129,142.5,129z"/>
	<path class="st0" d="M143.7,129.2h4.8l2.2,7.6c0.1,0.4,0.2,0.9,0.2,1.4h0.1c0.1-0.5,0.2-1,0.3-1.4l2.3-7.6h4.7l-5.2,14.1
		c-0.7,1.8-1.5,3.1-2.5,3.8s-2.3,1.1-3.8,1.1c-0.6,0-1.2-0.1-1.9-0.2v-3.6c0.4,0.1,0.9,0.1,1.4,0.1c0.4,0,0.8-0.1,1.1-0.2
		s0.6-0.4,0.8-0.7s0.5-0.8,0.7-1.4L143.7,129.2z"/>
	<path class="st0" d="M158.9,140.5c0-0.7,0.2-1.3,0.6-1.7s1-0.6,1.9-0.6c0.8,0,1.4,0.2,1.8,0.6s0.6,0.9,0.6,1.7
		c0,0.7-0.2,1.3-0.6,1.6s-1,0.6-1.8,0.6c-0.8,0-1.4-0.2-1.8-0.6S158.9,141.2,158.9,140.5z"/>
</g>
</svg>
