<?xml version="1.0" encoding="utf-8"?>
<!-- Generator: Adobe Illustrator 22.1.0, SVG Export Plug-In . SVG Version: 6.00 Build 0)  -->
<svg version="1.1" id="Layer_1" xmlns="http://www.w3.org/2000/svg" xmlns:xlink="http://www.w3.org/1999/xlink" x="0px" y="0px"
	 viewBox="0 0 300 250" style="enable-background:new 0 0 300 250;" xml:space="preserve">
<style type="text/css">
	.st0{fill:#FFFFFF;}
	.st1{fill:none;}
</style>
<polygon class="st0" points="234.6,129.7 258,129.7 263.9,147.3 261.2,147.3 256.1,132.3 233.8,132.3 "/>
<polygon class="st0" points="232.9,134.8 254.3,134.8 258.5,147.3 255.8,147.3 252.5,137.5 232.1,137.4 "/>
<polygon class="st0" points="231.4,140.3 224.3,161.9 226.5,163.5 232.9,142.7 248.9,142.7 249.7,140.3 "/>
<polygon class="st0" points="234.9,145.2 248,145.2 247.2,147.7 236.7,147.7 230.8,166.8 228.7,164.9 "/>
<polygon class="st0" points="233.4,168.6 252.2,181.7 254.1,180.1 236.2,167.5 240.9,152.5 238.6,150.8 "/>
<polygon class="st0" points="243.1,154 245.3,155.4 242.1,165.3 258.1,176.8 256.3,178.5 239.1,166.3 "/>
<polygon class="st0" points="260.7,172.4 247.5,163.5 245.6,164.8 260.5,175.5 279.4,161.8 278.5,159.3 "/>
<polygon class="st0" points="250.2,161.4 251.9,160 260.6,166.3 276.7,154.4 277.8,156.7 260.7,169.3 "/>
<polygon class="st0" points="260.3,160.2 261.2,162.6 276,151.9 268.5,129.7 266,129.7 273.2,150.8 "/>
<polygon class="st0" points="260.6,129.7 262.9,129.7 270,149.9 259.5,157.7 258.5,155.7 267.3,148.8 "/>
<polygon class="st0" points="232,99.3 230.3,102.2 228.5,99.3 226.4,99.3 226.4,106.7 228.4,106.7 228.4,102.5 230.2,105.3 
	230.3,105.3 232.1,102.5 232.1,106.7 234.2,106.7 234.2,99.3 "/>
<rect x="235.5" y="99.3" class="st0" width="2" height="7.3"/>
<polygon class="st0" points="238.9,99.3 238.9,106.7 244.4,106.7 244.4,104.9 240.9,104.9 240.9,99.3 "/>
<rect x="245.4" y="99.3" class="st0" width="2" height="7.3"/>
<polygon class="st0" points="248.3,99.3 248.3,101.1 250.5,101.1 250.5,106.7 252.5,106.7 252.5,101.1 254.7,101.1 254.7,99.3 "/>
<path class="st0" d="M258.2,101.7l0.8,2.1h-1.6L258.2,101.7z M257.2,99.3l-3.1,7.4h2.1l0.5-1.3h2.8l0.5,1.3h2.2l-3.1-7.4H257.2z"/>
<path class="st0" d="M263,99.3h3.5c1.1,0,1.9,0.3,2.4,0.8c0.4,0.4,0.6,1,0.6,1.7v0c0,1.1-0.6,1.9-1.5,2.2l1.7,2.6h-2.3l-1.5-2.2h0
	H265v2.2h-2V99.3z M266.4,102.9c0.7,0,1.1-0.3,1.1-0.9v0c0-0.6-0.4-0.9-1.1-0.9H265v1.8H266.4z"/>
<polygon class="st0" points="272.4,103.9 269.6,99.3 271.9,99.3 273.4,102 274.9,99.3 277.2,99.3 274.4,103.9 274.4,106.7 
	272.4,106.7 "/>
<path class="st0" d="M226.4,109.3h4.2c1,0,1.7,0.3,2.2,0.7c0.3,0.3,0.5,0.8,0.5,1.3v0c0,0.9-0.5,1.5-1.2,1.8c1,0.3,1.6,0.9,1.6,2v0
	c0,1.4-1.1,2.2-3.1,2.2h-4.2V109.3z M230,112.5c0.7,0,1.1-0.2,1.1-0.7v0c0-0.4-0.3-0.7-1-0.7h-1.5v1.4H230z M230.4,115.6
	c0.7,0,1.1-0.3,1.1-0.7v0c0-0.4-0.3-0.7-1.1-0.7h-1.7v1.5H230.4z"/>
<polygon class="st0" points="234.7,109.3 241.2,109.3 241.2,111.2 236.9,111.2 236.9,112.4 240.8,112.4 240.8,114.2 236.9,114.2 
	236.9,115.5 241.3,115.5 241.3,117.4 234.7,117.4 "/>
<polygon class="st0" points="242.4,109.3 244.5,109.3 247.9,113.5 247.9,109.3 250.1,109.3 250.1,117.4 248.1,117.4 244.7,112.9 
	244.7,117.4 242.4,117.4 "/>
<polygon class="st0" points="251.5,109.3 258.1,109.3 258.1,111.2 253.8,111.2 253.8,112.4 257.6,112.4 257.6,114.2 253.8,114.2 
	253.8,115.5 258.1,115.5 258.1,117.4 251.5,117.4 "/>
<polygon class="st0" points="259.3,109.3 265.7,109.3 265.7,111.2 261.5,111.2 261.5,112.6 265.3,112.6 265.3,114.5 261.5,114.5 
	261.5,117.4 259.3,117.4 "/>
<rect x="266.8" y="109.3" class="st0" width="2.3" height="8.1"/>
<polygon class="st0" points="272.5,111.2 270.1,111.2 270.1,109.3 277.2,109.3 277.2,111.2 274.8,111.2 274.8,117.4 272.5,117.4 "/>
<path class="st0" d="M227.9,120h1.3l2.1,5h-1.5l-0.4-0.9h-1.9l-0.4,0.9h-1.4L227.9,120z M229.1,123l-0.6-1.4L228,123H229.1z"/>
<path class="st0" d="M231.4,124.2l0.8-0.9c0.5,0.4,1,0.6,1.6,0.6c0.4,0,0.6-0.1,0.6-0.3v0c0-0.2-0.2-0.3-0.8-0.5
	c-1.1-0.2-1.9-0.5-1.9-1.6v0c0-0.9,0.7-1.6,1.9-1.6c0.8,0,1.5,0.2,2,0.7l-0.7,1c-0.5-0.3-1-0.5-1.4-0.5c-0.3,0-0.5,0.1-0.5,0.3v0
	c0,0.2,0.2,0.3,0.9,0.5c1.1,0.2,1.9,0.6,1.9,1.5v0c0,1-0.8,1.6-2,1.6C232.8,125,232,124.8,231.4,124.2"/>
<path class="st0" d="M235.9,124.2l0.8-0.9c0.5,0.4,1,0.6,1.6,0.6c0.4,0,0.6-0.1,0.6-0.3v0c0-0.2-0.2-0.3-0.8-0.5
	c-1.1-0.2-1.9-0.5-1.9-1.6v0c0-0.9,0.7-1.6,1.9-1.6c0.8,0,1.5,0.2,2,0.7l-0.7,1c-0.5-0.3-1-0.5-1.4-0.5c-0.3,0-0.5,0.1-0.5,0.3v0
	c0,0.2,0.2,0.3,0.9,0.5c1.1,0.2,1.9,0.6,1.9,1.5v0c0,1-0.8,1.6-2,1.6C237.4,125,236.5,124.8,235.9,124.2"/>
<path class="st0" d="M240.7,122.5L240.7,122.5c0-1.4,1.1-2.6,2.7-2.6c1.5,0,2.7,1.1,2.7,2.6v0c0,1.4-1.2,2.6-2.7,2.6
	C241.9,125.1,240.7,123.9,240.7,122.5 M244.7,122.5L244.7,122.5c0-0.7-0.5-1.4-1.3-1.4c-0.8,0-1.3,0.6-1.3,1.3v0
	c0,0.7,0.5,1.3,1.3,1.3C244.2,123.8,244.7,123.2,244.7,122.5"/>
<path class="st0" d="M246.6,122.5L246.6,122.5c0-1.5,1.1-2.6,2.6-2.6c1,0,1.7,0.4,2.1,1l-1,0.8c-0.3-0.4-0.6-0.6-1.1-0.6
	c-0.7,0-1.2,0.6-1.2,1.3v0c0,0.7,0.5,1.3,1.2,1.3c0.5,0,0.8-0.2,1.1-0.6l1,0.7c-0.5,0.6-1.1,1.1-2.2,1.1
	C247.8,125.1,246.6,124,246.6,122.5"/>
<rect x="252" y="120" class="st0" width="1.4" height="5"/>
<path class="st0" d="M256,120h1.3l2.1,5H258l-0.4-0.9h-1.9l-0.4,0.9h-1.4L256,120z M257.2,123l-0.6-1.4l-0.6,1.4H257.2z"/>
<polygon class="st0" points="260.5,121.2 259,121.2 259,120 263.4,120 263.4,121.2 261.9,121.2 261.9,125 260.5,125 "/>
<rect x="264" y="120" class="st0" width="1.4" height="5"/>
<path class="st0" d="M266.2,122.5L266.2,122.5c0-1.4,1.1-2.6,2.7-2.6c1.5,0,2.7,1.1,2.7,2.6v0c0,1.4-1.1,2.6-2.7,2.6
	C267.3,125.1,266.2,123.9,266.2,122.5 M270.1,122.5L270.1,122.5c0-0.7-0.5-1.4-1.3-1.4c-0.8,0-1.3,0.6-1.3,1.3v0
	c0,0.7,0.5,1.3,1.3,1.3C269.6,123.8,270.1,123.2,270.1,122.5"/>
<polygon class="st0" points="272.2,120 273.5,120 275.5,122.6 275.5,120 276.9,120 276.9,125 275.7,125 273.6,122.2 273.6,125 
	272.2,125 "/>
<rect x="224.3" y="99.3" class="st1" width="55.1" height="82.4"/>
</svg>
