<svg id="Layer_1" xmlns="http://www.w3.org/2000/svg" viewBox="0 0 728 90"><style>.st0{fill:#fff}</style><path class="st0" d="M230.5 72.2h2.9v3.9c-.5.2-.9.3-1.4.3-.4.1-.9.1-1.4.1-1.2 0-2.1-.4-2.8-1.1-.6-.7-1-1.7-1-3s.4-2.3 1.1-3c.7-.7 1.7-1.1 3-1.1.8 0 1.6.2 2.3.5l-.5 1.1c-.6-.3-1.3-.4-1.9-.4-.8 0-1.5.3-2 .8s-.7 1.2-.7 2.2c0 1 .2 1.7.7 2.2.4.5 1.1.7 1.9.7.4 0 .9-.1 1.3-.2v-2h-1.6v-1zM237.5 76.5c-.9 0-1.6-.3-2.2-.8-.5-.5-.8-1.3-.8-2.2 0-1 .2-1.7.7-2.3.5-.6 1.1-.8 2-.8.8 0 1.4.2 1.9.7.5.5.7 1.1.7 2v.7h-4c0 .6.2 1 .5 1.3s.7.5 1.2.5c.4 0 .7 0 1-.1.3-.1.6-.2 1-.3v1l-.9.3h-1.1zm-.2-5.2c-.4 0-.7.1-1 .4-.2.3-.4.6-.4 1.1h2.7c0-.5-.1-.9-.4-1.1-.2-.2-.5-.4-.9-.4zM243.2 75.5c.3 0 .6 0 .9-.1v1c-.1.1-.3.1-.5.2-.2 0-.4.1-.7.1-1.2 0-1.8-.6-1.8-1.9v-3.2h-.8V71l.9-.5.4-1.3h.8v1.3h1.7v1h-1.7v3.2c0 .3.1.5.2.7.2 0 .4.1.6.1zM249.1 76.4h-1.3V68h1.3v8.4zM250.6 68.9c0-.2.1-.4.2-.5.1-.1.3-.2.5-.2s.4.1.5.2c.1.1.2.3.2.5s-.1.4-.2.5c-.1.1-.3.2-.5.2s-.4-.1-.5-.2c-.2-.1-.2-.3-.2-.5zm1.3 7.5h-1.3v-5.9h1.3v5.9zM256.5 71.4H255v5h-1.3v-5h-1v-.6l1-.4V70c0-.7.2-1.2.5-1.6.3-.3.8-.5 1.5-.5.4 0 .9.1 1.3.2l-.3 1c-.3-.1-.6-.2-.9-.2-.3 0-.5.1-.6.3-.1.2-.2.4-.2.8v.4h1.5v1zM259.9 76.5c-.9 0-1.6-.3-2.2-.8-.5-.5-.8-1.3-.8-2.2 0-1 .2-1.7.7-2.3.5-.6 1.1-.8 2-.8.8 0 1.4.2 1.9.7.5.5.7 1.1.7 2v.7h-4c0 .6.2 1 .5 1.3s.7.5 1.2.5c.4 0 .7 0 1-.1.3-.1.6-.2 1-.3v1l-.9.3h-1.1zm-.3-5.2c-.4 0-.7.1-1 .4-.2.3-.4.6-.4 1.1h2.7c0-.5-.1-.9-.4-1.1-.1-.2-.4-.4-.9-.4zM266 68.9c0-.2.1-.4.2-.5.1-.1.3-.2.5-.2s.4.1.5.2c.1.1.2.3.2.5s-.1.4-.2.5c-.1.1-.3.2-.5.2s-.4-.1-.5-.2c-.2-.1-.2-.3-.2-.5zm1.3 7.5H266v-5.9h1.3v5.9zM274.1 76.4h-1.3v-3.7c0-.5-.1-.8-.3-1-.2-.2-.5-.3-.9-.3-.5 0-.9.2-1.2.5s-.4.8-.4 1.6v3h-1.3v-5.9h1l.2.8h.1c.2-.3.4-.5.8-.7.3-.2.7-.2 1.1-.2 1.4 0 2.1.7 2.1 2.2v3.7zM279.7 74.7c0 .6-.2 1-.6 1.3s-1 .5-1.8.5-1.4-.1-1.9-.4V75c.7.3 1.3.5 1.9.5.8 0 1.2-.2 1.2-.7 0-.2 0-.3-.1-.4-.1-.1-.2-.2-.4-.3s-.5-.2-.8-.4c-.7-.3-1.1-.5-1.4-.8-.2-.3-.4-.6-.4-1 0-.5.2-.9.6-1.2.4-.3 1-.4 1.7-.4s1.4.1 2 .4l-.4 1c-.6-.3-1.2-.4-1.6-.4-.7 0-1 .2-1 .6 0 .2.1.3.3.5.2.1.6.3 1.1.5.5.2.8.4 1.1.5s.4.3.5.5 0 .5 0 .8zM285 76.4l-.2-.8h-.1c-.2.3-.4.5-.7.7-.3.2-.7.2-1.1.2-.7 0-1.3-.2-1.6-.5s-.5-.9-.5-1.6v-3.9h1.3v3.7c0 .5.1.8.3 1s.5.3.9.3c.5 0 .9-.2 1.2-.5.2-.3.4-.8.4-1.6v-3h1.3v5.9H285zM290.6 70.4c.3 0 .5 0 .6.1l-.1 1.2c-.2 0-.4-.1-.6-.1-.5 0-.9.2-1.2.5-.3.3-.5.8-.5 1.3v3.1h-1.3v-5.9h1l.2 1h.1c.2-.4.5-.6.8-.8.3-.3.7-.4 1-.4zM295.8 76.4l-.3-.8c-.3.4-.6.6-.9.7s-.7.2-1.1.2c-.6 0-1-.2-1.4-.5-.3-.3-.5-.8-.5-1.3 0-.6.2-1.1.7-1.4.5-.3 1.1-.5 2.1-.5h1v-.3c0-.4-.1-.7-.3-.9-.2-.2-.5-.3-.8-.3-.3 0-.6 0-.9.1-.3.1-.5.2-.8.3l-.4-.9c.3-.2.7-.3 1.1-.4s.7-.1 1.1-.1c.8 0 1.3.2 1.7.5.4.3.6.8.6 1.6v4h-.9zm-1.8-.8c.5 0 .8-.1 1.1-.4.3-.3.4-.6.4-1.1v-.5h-.8c-.6 0-1 .1-1.3.3-.3.2-.4.4-.4.8 0 .3.1.5.2.6.2.2.4.3.8.3zM303.5 76.4h-1.3v-3.7c0-.5-.1-.8-.3-1-.2-.2-.5-.3-.9-.3-.5 0-.9.2-1.2.5s-.4.8-.4 1.6v3h-1.3v-5.9h1l.2.8h.1c.2-.3.4-.5.8-.7.3-.2.7-.2 1.1-.2 1.4 0 2.1.7 2.1 2.2v3.7zM307.5 76.5c-.9 0-1.6-.3-2-.8-.5-.5-.7-1.3-.7-2.3 0-1 .2-1.8.7-2.3.5-.5 1.2-.8 2.1-.8.6 0 1.2.1 1.7.3l-.4 1c-.5-.2-1-.3-1.3-.3-1 0-1.5.7-1.5 2 0 .7.1 1.2.4 1.5.3.3.6.5 1.1.5.6 0 1.1-.1 1.6-.4V76c-.2.1-.5.2-.7.3-.4.2-.7.2-1 .2zM312.9 76.5c-.9 0-1.6-.3-2.2-.8-.5-.5-.8-1.3-.8-2.2 0-1 .2-1.7.7-2.3.5-.6 1.1-.8 2-.8.8 0 1.4.2 1.9.7.5.5.7 1.1.7 2v.7h-4c0 .6.2 1 .5 1.3s.7.5 1.2.5c.4 0 .7 0 1-.1.3-.1.6-.2 1-.3v1l-.9.3h-1.1zm-.2-5.2c-.4 0-.7.1-1 .4-.2.3-.4.6-.4 1.1h2.7c0-.5-.1-.9-.4-1.1-.2-.2-.5-.4-.9-.4zM322.8 76.4l-.3-.8c-.3.4-.6.6-.9.7s-.7.2-1.1.2c-.6 0-1-.2-1.4-.5-.3-.3-.5-.8-.5-1.3 0-.6.2-1.1.7-1.4.5-.3 1.1-.5 2.1-.5h1v-.3c0-.4-.1-.7-.3-.9-.2-.2-.5-.3-.8-.3-.3 0-.6 0-.9.1-.3.1-.5.2-.8.3l-.4-.9c.3-.2.7-.3 1.1-.4s.7-.1 1.1-.1c.8 0 1.3.2 1.7.5.4.3.6.8.6 1.6v4h-.9zm-1.9-.8c.5 0 .8-.1 1.1-.4.3-.3.4-.6.4-1.1v-.5h-.8c-.6 0-1 .1-1.3.3-.3.2-.4.4-.4.8 0 .3.1.5.2.6.2.2.5.3.8.3zM327.4 75.5c.3 0 .6 0 .9-.1v1c-.1.1-.3.1-.5.2-.2 0-.4.1-.7.1-1.2 0-1.8-.6-1.8-1.9v-3.2h-.8V71l.9-.5.4-1.3h.8v1.3h1.7v1h-1.7v3.2c0 .3.1.5.2.7.2 0 .4.1.6.1zM334.4 76.5c-.9 0-1.6-.3-2-.8-.5-.5-.7-1.3-.7-2.3 0-1 .2-1.8.7-2.3.5-.5 1.2-.8 2.1-.8.6 0 1.2.1 1.7.3l-.4 1c-.5-.2-1-.3-1.3-.3-1 0-1.5.7-1.5 2 0 .7.1 1.2.4 1.5.3.3.6.5 1.1.5.6 0 1.1-.1 1.6-.4V76c-.2.1-.5.2-.7.3-.4.2-.7.2-1 .2zM342.5 73.4c0 1-.2 1.7-.7 2.3s-1.2.8-2.1.8c-.6 0-1-.1-1.5-.4s-.8-.6-1-1.1c-.2-.5-.3-1-.3-1.6 0-1 .2-1.7.7-2.3.5-.5 1.2-.8 2.1-.8.9 0 1.5.3 2 .8.5.7.8 1.4.8 2.3zm-4.4 0c0 1.4.5 2.1 1.5 2.1s1.5-.7 1.5-2.1c0-1.4-.5-2-1.5-2-.5 0-.9.2-1.2.5-.1.4-.3.9-.3 1.5zM348.7 76.4h-1.3v-3.7c0-.5-.1-.8-.3-1s-.4-.3-.8-.3c-.5 0-.8.2-1.1.5-.2.3-.3.8-.3 1.6v3h-1.3v-5.9h1l.2.8h.1c.2-.3.4-.5.7-.7.3-.2.7-.2 1-.2.9 0 1.5.3 1.8.9h.1c.2-.3.4-.5.7-.7s.7-.2 1.1-.2c.7 0 1.2.2 1.5.5.3.4.5.9.5 1.6v3.9H351v-3.7c0-.5-.1-.8-.3-1-.2-.2-.4-.3-.8-.3-.5 0-.8.2-1.1.5-.2.3-.3.8-.3 1.4v3zM357 76.5c-.8 0-1.3-.3-1.8-.8h-.1c.1.5.1.8.1.9V79H354v-8.6h1c0 .1.1.4.2.8h.1c.4-.6 1-.9 1.8-.9.7 0 1.3.3 1.7.8.4.5.6 1.3.6 2.3 0 1-.2 1.7-.6 2.3-.5.6-1 .8-1.8.8zm-.3-5.1c-.5 0-.9.1-1.1.4-.2.3-.3.8-.3 1.4v.2c0 .7.1 1.2.3 1.6s.6.5 1.1.5c.4 0 .8-.2 1-.5s.4-.9.4-1.5c0-.7-.1-1.2-.4-1.5-.2-.4-.5-.6-1-.6zM363.2 76.5c-.9 0-1.6-.3-2.2-.8-.5-.5-.8-1.3-.8-2.2 0-1 .2-1.7.7-2.3.5-.6 1.1-.8 2-.8.8 0 1.4.2 1.9.7.5.5.7 1.1.7 2v.7h-4c0 .6.2 1 .5 1.3s.7.5 1.2.5c.4 0 .7 0 1-.1.3-.1.6-.2 1-.3v1l-.9.3h-1.1zm-.2-5.2c-.4 0-.7.1-1 .4-.2.3-.4.6-.4 1.1h2.7c0-.5-.1-.9-.4-1.1-.2-.2-.5-.4-.9-.4zM369 75.5c.3 0 .6 0 .9-.1v1c-.1.1-.3.1-.5.2-.2 0-.4.1-.7.1-1.2 0-1.8-.6-1.8-1.9v-3.2h-.8V71l.9-.5.4-1.3h.8v1.3h1.7v1h-1.7v3.2c0 .3.1.5.2.7.1 0 .3.1.6.1zM370.8 68.9c0-.2.1-.4.2-.5.1-.1.3-.2.5-.2s.4.1.5.2c.1.1.2.3.2.5s-.1.4-.2.5c-.1.1-.3.2-.5.2s-.4-.1-.5-.2c-.2-.1-.2-.3-.2-.5zm1.3 7.5h-1.3v-5.9h1.3v5.9zM375.9 75.5c.3 0 .6 0 .9-.1v1c-.1.1-.3.1-.5.2-.2 0-.4.1-.7.1-1.2 0-1.8-.6-1.8-1.9v-3.2h-.8V71l.9-.5.4-1.3h.8v1.3h1.7v1h-1.7v3.2c0 .3.1.5.2.7.2 0 .4.1.6.1zM377.7 68.9c0-.2.1-.4.2-.5.1-.1.3-.2.5-.2s.4.1.5.2c.1.1.2.3.2.5s-.1.4-.2.5c-.1.1-.3.2-.5.2s-.4-.1-.5-.2c-.1-.1-.2-.3-.2-.5zm1.4 7.5h-1.3v-5.9h1.3v5.9zM382 76.4l-2.3-5.9h1.3l1.2 3.5c.2.6.3 1 .4 1.4 0-.3.2-.7.4-1.4l1.2-3.5h1.3l-2.3 5.9H382zM388.9 76.5c-.9 0-1.6-.3-2.2-.8-.5-.5-.8-1.3-.8-2.2 0-1 .2-1.7.7-2.3.5-.6 1.1-.8 2-.8.8 0 1.4.2 1.9.7.5.5.7 1.1.7 2v.7h-4c0 .6.2 1 .5 1.3.3.3.7.5 1.2.5.4 0 .7 0 1-.1s.6-.2 1-.3v1l-.9.3h-1.1zm-.2-5.2c-.4 0-.7.1-1 .4-.2.3-.4.6-.4 1.1h2.7c0-.5-.1-.9-.4-1.1-.2-.2-.5-.4-.9-.4zM400.1 70.5v.7l-1 .2c.1.1.2.3.2.5s.1.4.1.6c0 .6-.2 1.1-.6 1.4-.4.4-1 .5-1.7.5h-.5c-.3.2-.4.4-.4.6 0 .1.1.2.2.3s.4.1.7.1h1c.7 0 1.2.1 1.5.4.3.3.5.7.5 1.2 0 .7-.3 1.2-.8 1.6-.6.4-1.4.5-2.4.5-.8 0-1.4-.1-1.9-.4s-.6-.7-.6-1.2c0-.4.1-.7.3-.9.2-.2.6-.4 1-.5-.2-.1-.3-.2-.4-.3s-.2-.3-.2-.5.1-.4.2-.6c.1-.2.3-.3.6-.5-.3-.1-.6-.3-.7-.6s-.3-.6-.3-1c0-.6.2-1.1.6-1.5.4-.4 1-.5 1.7-.5h.5c.2 0 .3 0 .4.1h2zm-4.6 6.8c0 .3.1.5.4.6.2.1.6.2 1 .2.7 0 1.2-.1 1.5-.3.3-.2.5-.5.5-.8 0-.3-.1-.4-.3-.6s-.5-.2-1-.2h-1c-.4 0-.6.1-.9.3s-.2.5-.2.8zm.5-4.9c0 .4.1.7.3.9s.5.3.8.3c.7 0 1.1-.4 1.1-1.2 0-.4-.1-.7-.3-.9-.2-.2-.5-.3-.8-.3-.4 0-.6.1-.8.3-.2.2-.3.5-.3.9zM404 70.4c.3 0 .5 0 .6.1l-.1 1.2c-.2 0-.4-.1-.6-.1-.5 0-.9.2-1.2.5-.3.3-.5.8-.5 1.3v3.1H401v-5.9h1l.2 1h.1c.2-.4.5-.6.8-.8.2-.3.6-.4.9-.4zM410.8 73.4c0 1-.2 1.7-.7 2.3s-1.2.8-2.1.8c-.6 0-1-.1-1.5-.4-.4-.3-.8-.6-1-1.1-.2-.5-.3-1-.3-1.6 0-1 .2-1.7.7-2.3.5-.5 1.2-.8 2.1-.8.9 0 1.5.3 2 .8.5.7.8 1.4.8 2.3zm-4.3 0c0 1.4.5 2.1 1.5 2.1s1.5-.7 1.5-2.1c0-1.4-.5-2-1.5-2-.5 0-.9.2-1.2.5s-.3.9-.3 1.5zM416.2 76.4l-.2-.8c-.2.3-.4.5-.7.7s-.7.2-1.1.2c-.7 0-1.3-.2-1.6-.5-.4-.4-.5-.9-.5-1.6v-3.9h1.3v3.7c0 .5.1.8.3 1 .2.2.5.3.9.3.5 0 .9-.2 1.2-.5.2-.3.4-.8.4-1.6v-3h1.3v5.9h-1.3zM421.8 76.5c-.8 0-1.3-.3-1.8-.8 0 .5.1.8.1.9V79h-1.3v-8.6h1c0 .1.1.4.2.8h.1c.4-.6 1-.9 1.8-.9.7 0 1.3.3 1.7.8.4.5.6 1.3.6 2.3 0 1-.2 1.7-.6 2.3s-1 .8-1.8.8zm-.3-5.1c-.5 0-.9.1-1.1.4-.2.3-.3.8-.3 1.4v.2c0 .7.1 1.2.3 1.6.2.3.6.5 1.1.5.4 0 .8-.2 1-.5s.4-.9.4-1.5c0-.7-.1-1.2-.4-1.5s-.5-.6-1-.6zM431.1 76.5c-.8 0-1.3-.3-1.8-.8h-.1c0 .5.1.8.1.9V79H428v-8.6h1c0 .1.1.4.2.8h.1c.4-.6 1-.9 1.8-.9.7 0 1.3.3 1.7.8.4.5.6 1.3.6 2.3 0 1-.2 1.7-.6 2.3s-1 .8-1.7.8zm-.3-5.1c-.5 0-.9.1-1.1.4-.2.3-.3.8-.3 1.4v.2c0 .7.1 1.2.3 1.6.2.3.6.5 1.1.5.4 0 .8-.2 1-.5s.4-.9.4-1.5c0-.7-.1-1.2-.4-1.5s-.5-.6-1-.6zM437.7 70.4c.3 0 .5 0 .6.1l-.1 1.2c-.2 0-.4-.1-.6-.1-.5 0-.9.2-1.2.5-.3.3-.5.8-.5 1.3v3.1h-1.3v-5.9h1l.2 1h.1c.2-.4.5-.6.8-.8.3-.3.7-.4 1-.4zM439.2 68.9c0-.2.1-.4.2-.5.1-.1.3-.2.5-.2s.4.1.5.2c.1.1.2.3.2.5s-.1.4-.2.5c-.1.1-.3.2-.5.2s-.4-.1-.5-.2c-.2-.1-.2-.3-.2-.5zm1.3 7.5h-1.3v-5.9h1.3v5.9zM444.5 76.5c-.9 0-1.6-.3-2-.8-.5-.5-.7-1.3-.7-2.3 0-1 .2-1.8.7-2.3.5-.5 1.2-.8 2.1-.8.6 0 1.2.1 1.7.3l-.4 1c-.5-.2-1-.3-1.3-.3-1 0-1.5.7-1.5 2 0 .7.1 1.2.4 1.5s.6.5 1.1.5c.6 0 1.1-.1 1.6-.4V76c-.2.1-.5.2-.7.3s-.6.2-1 .2zM447.3 68.9c0-.2.1-.4.2-.5.1-.1.3-.2.5-.2s.4.1.5.2c.1.1.2.3.2.5s-.1.4-.2.5c-.1.1-.3.2-.5.2s-.4-.1-.5-.2c-.2-.1-.2-.3-.2-.5zm1.3 7.5h-1.3v-5.9h1.3v5.9zM455.4 76.4h-1.3v-3.7c0-.5-.1-.8-.3-1-.2-.2-.5-.3-.9-.3-.5 0-.9.2-1.2.5s-.4.8-.4 1.6v3H450v-5.9h1l.2.8h.1c.2-.3.4-.5.8-.7.3-.2.7-.2 1.1-.2 1.4 0 2.1.7 2.1 2.2v3.7zM462 70.5v.7l-1 .2c.1.1.2.3.2.5s.1.4.1.6c0 .6-.2 1.1-.6 1.4-.4.4-1 .5-1.7.5h-.5c-.3.2-.4.4-.4.6 0 .1.1.2.2.3s.4.1.7.1h1c.7 0 1.2.1 1.5.4.3.3.5.7.5 1.2 0 .7-.3 1.2-.8 1.6-.6.4-1.4.5-2.4.5-.8 0-1.4-.1-1.9-.4s-.6-.7-.6-1.2c0-.4.1-.7.3-.9.2-.2.6-.4 1-.5-.2-.1-.3-.2-.4-.3s-.2-.3-.2-.5.1-.4.2-.6c.1-.2.3-.3.6-.5-.3-.1-.6-.3-.7-.6s-.3-.6-.3-1c0-.6.2-1.1.6-1.5.4-.4 1-.5 1.7-.5h.5c.2 0 .3 0 .4.1h2zm-4.7 6.8c0 .3.1.5.4.6.2.1.6.2 1 .2.7 0 1.2-.1 1.5-.3.3-.2.5-.5.5-.8 0-.3-.1-.4-.3-.6s-.5-.2-1-.2h-1c-.4 0-.6.1-.9.3s-.2.5-.2.8zm.6-4.9c0 .4.1.7.3.9s.5.3.8.3c.7 0 1.1-.4 1.1-1.2 0-.4-.1-.7-.3-.9-.2-.2-.5-.3-.8-.3-.4 0-.6.1-.8.3-.2.2-.3.5-.3.9zM462.7 75.7c0-.3.1-.5.2-.6.1-.1.3-.2.6-.2s.5.1.6.2c.1.1.2.3.2.6s-.1.5-.2.6-.3.2-.6.2-.5-.1-.6-.2c-.2-.1-.2-.3-.2-.6z"/></svg>