<svg id="Layer_1" xmlns="http://www.w3.org/2000/svg" xmlns:xlink="http://www.w3.org/1999/xlink" viewBox="0 0 728 90"><style>.st0{clip-path:url(#SVGID_2_);fill:none;stroke:#58595b;stroke-width:.25}.st1{fill:#fff}.st2{fill:none}</style><defs><path id="SVGID_1_" d="M0-.2h728.2V90H0z"/></defs><clipPath id="SVGID_2_"><use xlink:href="#SVGID_1_" overflow="visible"/></clipPath><path class="st0" d="M.1-.1h728v90H.1z"/><path class="st1" d="M545.3 36.5h20.6l5.2 15.5h-2.4l-4.5-13.2h-19.6z"/><path class="st1" d="M543.8 41h18.8l3.7 11h-2.4l-2.9-8.7h-17.9z"/><path class="st1" d="M542.5 45.8l-6.3 19 2 1.5 5.6-18.4h14l.8-2.1z"/><path class="st1" d="M545.5 50.2h11.6l-.7 2.1h-9.2l-5.3 16.8-1.8-1.6z"/><path class="st1" d="M544.2 70.8l16.6 11.5 1.7-1.5-15.8-11 4.1-13.2-2-1.5z"/><path class="st1" d="M552.7 57.9l2 1.2-2.8 8.7L566 77.9l-1.6 1.6-15.1-10.8z"/><path class="st1" d="M568.2 74.1l-11.6-7.8-1.7 1.1 13.2 9.4 16.6-12.1-.8-2.2z"/><path class="st1" d="M559 64.4l1.5-1.2 7.6 5.5 14.2-10.5.9 2.1-15 11z"/><path class="st1" d="M567.9 63.4l.8 2.1 13-9.5-6.6-19.5h-2.2l6.3 18.6z"/><path class="st1" d="M568.1 36.5h2.1l6.3 17.8-9.4 6.8-.8-1.7 7.8-6.1zM543 9.8l-1.5 2.5-1.6-2.5H538v6.4h1.8v-3.6l1.6 2.5h.1l1.6-2.6v3.7h1.8V9.8zM546.1 9.8h1.8v6.4h-1.8zM549 9.8v6.4h4.9v-1.5h-3.1V9.8zM554.7 9.8h1.8v6.4h-1.8zM557.3 9.8v1.6h2v4.8h1.8v-4.8h1.9V9.8zM566 11.9l.7 1.8h-1.4l.7-1.8zm-.8-2.2l-2.7 6.5h1.9l.5-1.1h2.5l.5 1.1h1.9l-2.7-6.5h-1.9zM570.3 9.8h3c1 0 1.7.3 2.1.7.4.4.6.9.6 1.5 0 1-.5 1.6-1.3 2l1.5 2.2h-2.1l-1.3-2h-.8v2h-1.8V9.8zm2.9 3.1c.6 0 1-.3 1-.8s-.4-.8-1-.8H572v1.5h1.2zM578.5 13.8l-2.4-4h2l1.3 2.3 1.4-2.3h2l-2.5 4v2.4h-1.8zM538.1 18.5h3.7c.9 0 1.5.2 1.9.6.3.3.5.7.5 1.2 0 .8-.5 1.3-1.1 1.6.9.3 1.4.8 1.4 1.7 0 1.2-1 2-2.7 2h-3.7v-7.1zm3.2 2.9c.6 0 .9-.2.9-.6 0-.4-.3-.6-.9-.6H540v1.3h1.3zm.3 2.7c.6 0 .9-.2.9-.7 0-.4-.3-.6-1-.6H540v1.3h1.6zM545.4 18.5h5.7v1.7h-3.8v1.1h3.5v1.5h-3.5V24h3.9v1.7h-5.8zM552.2 18.5h1.8l3 3.8v-3.8h1.9v7.2h-1.7l-3.1-4v4h-1.9zM560.2 18.5h5.7v1.7h-3.8v1.1h3.4v1.5h-3.4V24h3.9v1.7h-5.8zM567 18.5h5.7v1.8h-3.8v1.2h3.4v1.6h-3.4v2.6H567zM573.6 18.5h2v7.1h-2zM578.6 20.3h-2.1v-1.8h6.2v1.8h-2.1v5.4h-2zM539.4 27.9h1.2l1.9 4.4h-1.3l-.3-.8h-1.7l-.3.8h-1.3l1.8-4.4zm1 2.7l-.5-1.2-.5 1.2h1zM542.4 31.7l.7-.8c.4.3.9.5 1.4.5.3 0 .5-.1.5-.3 0-.2-.1-.3-.7-.4-.9-.2-1.6-.5-1.6-1.4 0-.8.6-1.4 1.7-1.4.7 0 1.3.2 1.8.6l-.6.9c-.4-.3-.8-.4-1.2-.4-.3 0-.4.1-.4.3 0 .2.1.3.8.4 1 .2 1.6.5 1.6 1.4 0 .9-.7 1.4-1.8 1.4-.9-.1-1.6-.3-2.2-.8M546.4 31.7l.7-.8c.4.3.9.5 1.4.5.3 0 .5-.1.5-.3 0-.2-.1-.3-.7-.4-.9-.2-1.6-.5-1.6-1.4 0-.8.6-1.4 1.7-1.4.7 0 1.3.2 1.8.6l-.6.9c-.4-.3-.8-.4-1.2-.4-.3 0-.4.1-.4.3 0 .2.1.3.8.4 1 .2 1.6.5 1.6 1.4 0 .9-.7 1.4-1.8 1.4-.9-.1-1.6-.3-2.2-.8M550.7 30.2c0-1.3 1-2.3 2.4-2.3 1.3 0 2.3 1 2.3 2.3 0 1.3-1 2.3-2.4 2.3-1.3-.1-2.3-1.1-2.3-2.3m3.5 0c0-.6-.5-1.2-1.1-1.2-.7 0-1.1.5-1.1 1.2 0 .6.5 1.2 1.1 1.2.6-.1 1.1-.6 1.1-1.2M555.9 30.2c0-1.3 1-2.3 2.3-2.3.9 0 1.5.4 1.9.9l-.9.7c-.2-.3-.5-.5-1-.5-.6 0-1 .5-1 1.2s.4 1.2 1 1.2c.5 0 .7-.2 1-.5l.9.7c-.4.6-1 1-1.9 1-1.3-.2-2.3-1.1-2.3-2.4M560.6 28h1.2v4.4h-1.2zM564.1 27.9h1.2l1.9 4.4h-1.3l-.3-.8h-1.7l-.3.8h-1.3l1.8-4.4zm1.1 2.7l-.5-1.2-.5 1.2h1zM568.1 29h-1.3v-1h3.8v1h-1.3v3.3h-1.2zM571.2 28h1.2v4.4h-1.2zM573 30.2c0-1.3 1-2.3 2.4-2.3 1.3 0 2.3 1 2.3 2.3 0 1.3-1 2.3-2.4 2.3-1.3-.1-2.3-1.1-2.3-2.3m3.5 0c0-.6-.5-1.2-1.1-1.2-.7 0-1.1.5-1.1 1.2 0 .6.5 1.2 1.1 1.2.7-.1 1.1-.6 1.1-1.2M578.4 28h1.1l1.8 2.3V28h1.2v4.3h-1.1l-1.8-2.4v2.4h-1.2z"/><path class="st2" d="M536.2 9.8h48.5v72.5h-48.5z"/></svg>