<svg id="Layer_1" xmlns="http://www.w3.org/2000/svg" viewBox="0 0 728 90"><style>.st0{fill:#414042}</style><path class="st0" d="M289.6 66.5h3.2v4.3c-.5.2-1 .3-1.5.4s-1 .1-1.5.1c-1.3 0-2.3-.4-3-1.2s-1.1-1.9-1.1-3.2c0-1.4.4-2.5 1.2-3.2s1.9-1.2 3.3-1.2c.9 0 1.7.2 2.5.5l-.5 1.2c-.7-.3-1.4-.5-2.1-.5-.9 0-1.6.3-2.2.9s-.8 1.4-.8 2.4.2 1.8.7 2.4 1.2.8 2.1.8c.5 0 .9-.1 1.5-.2v-2.2h-1.8v-1.3zM297.3 71.3c-1 0-1.8-.3-2.4-.9S294 69 294 68c0-1.1.3-1.9.8-2.5s1.3-.9 2.2-.9c.9 0 1.5.3 2 .8s.7 1.2.7 2.1v.7h-4.3c0 .6.2 1.1.5 1.5s.8.5 1.4.5c.4 0 .7 0 1.1-.1s.7-.2 1.1-.4v1.1c-.3.2-.7.3-1 .3s-.8.2-1.2.2zm-.3-5.7c-.4 0-.8.1-1.1.4s-.4.7-.5 1.2h2.9c0-.5-.1-.9-.4-1.2s-.4-.4-.9-.4zM303.5 70.2c.3 0 .7-.1 1-.2v1c-.2.1-.3.1-.6.2s-.5.1-.7.1c-1.3 0-2-.7-2-2.1v-3.5h-.9v-.6l.9-.5.5-1.4h.8v1.4h1.8v1h-1.8v3.5c0 .3.1.6.2.7s.6.4.8.4zM309.9 71.2h-1.4v-9.1h1.4v9.1zM311.5 63c0-.2.1-.4.2-.6s.3-.2.6-.2c.2 0 .4.1.6.2s.2.3.2.6c0 .2-.1.4-.2.6s-.3.2-.6.2c-.2 0-.4-.1-.6-.2s-.2-.4-.2-.6zm1.5 8.2h-1.4v-6.5h1.4v6.5zM318 65.7h-1.6v5.4H315v-5.4h-1v-.6l1.1-.4v-.4c0-.8.2-1.3.5-1.7s.9-.6 1.6-.6c.5 0 1 .1 1.4.2l-.4 1c-.3-.1-.7-.2-1-.2-.3 0-.5.1-.7.3s-.2.5-.2.9v.4h1.6v1.1zM321.7 71.3c-1 0-1.8-.3-2.4-.9s-.9-1.4-.9-2.4c0-1.1.3-1.9.8-2.5s1.3-.9 2.2-.9c.9 0 1.5.3 2 .8s.7 1.2.7 2.1v.7h-4.3c0 .6.2 1.1.5 1.5s.8.5 1.4.5c.4 0 .7 0 1.1-.1s.7-.2 1.1-.4v1.1c-.3.2-.7.3-1 .3s-.8.2-1.2.2zm-.3-5.7c-.4 0-.8.1-1.1.4s-.4.7-.5 1.2h2.9c0-.5-.1-.9-.4-1.2s-.4-.4-.9-.4zM328.3 63c0-.2.1-.4.2-.6s.3-.2.6-.2c.2 0 .4.1.6.2s.2.3.2.6c0 .2-.1.4-.2.6s-.3.2-.6.2c-.2 0-.4-.1-.6-.2s-.2-.4-.2-.6zm1.5 8.2h-1.4v-6.5h1.4v6.5zM337.2 71.2h-1.4v-4c0-.5-.1-.9-.3-1.1s-.5-.4-1-.4c-.6 0-1 .2-1.3.5s-.4.9-.4 1.7v3.2h-1.4v-6.5h1.1l.2.8h.1c.2-.3.5-.5.8-.7s.8-.3 1.2-.3c1.6 0 2.3.8 2.3 2.4v4.4zM343.3 69.3c0 .6-.2 1.1-.7 1.5s-1.1.5-2 .5c-.9 0-1.6-.1-2.1-.4v-1.2c.8.4 1.5.5 2.1.5.8 0 1.3-.3 1.3-.8 0-.2 0-.3-.1-.4s-.2-.2-.5-.3-.5-.2-.9-.4c-.7-.3-1.3-.6-1.5-.9s-.4-.7-.4-1.1c0-.6.2-1 .7-1.3s1.1-.5 1.8-.5c.8 0 1.5.2 2.2.5l-.4 1c-.7-.3-1.3-.4-1.8-.4-.7 0-1.1.2-1.1.6 0 .2.1.4.3.5l1.2.6c.5.2.9.4 1.2.6s.4.4.5.6.2.5.2.8zM349.1 71.2l-.2-.8h-.1c-.2.3-.5.5-.8.7s-.8.3-1.2.3c-.8 0-1.4-.2-1.8-.6s-.6-1-.6-1.8v-4.2h1.4v4c0 .5.1.9.3 1.1s.5.4 1 .4c.6 0 1-.2 1.3-.5s.4-.9.4-1.7v-3.2h1.4v6.5h-1.1zM355.2 64.6c.3 0 .5 0 .7.1l-.1 1.3c-.2 0-.4-.1-.6-.1-.6 0-1 .2-1.3.5s-.5.8-.5 1.4v3.4H352v-6.5h1.1l.2 1.1h.1c.2-.4.5-.7.8-.9s.6-.3 1-.3zM360.9 71.2l-.3-.9c-.3.4-.6.7-.9.8s-.7.2-1.2.2c-.6 0-1.1-.2-1.5-.5s-.5-.8-.5-1.5.2-1.2.7-1.5 1.3-.5 2.3-.6h1.1v-.3c0-.4-.1-.7-.3-.9s-.5-.3-.9-.3c-.3 0-.7 0-1 .1l-.9.3-.4-1c.4-.2.7-.3 1.2-.4s.8-.1 1.2-.1c.8 0 1.4.2 1.9.5s.6.9.6 1.7v4.4h-1.1zm-2-1c.5 0 .9-.1 1.2-.4s.5-.7.5-1.2V68h-.8c-.6 0-1.1.1-1.4.3s-.4.5-.4.9c0 .3.1.5.3.7s.2.3.6.3zM369.3 71.2h-1.4v-4c0-.5-.1-.9-.3-1.1s-.5-.4-1-.4c-.6 0-1 .2-1.3.5s-.3.9-.3 1.8v3.2h-1.4v-6.5h1.1l.2.8h.1c.2-.3.5-.5.8-.7s.8-.3 1.2-.3c1.6 0 2.3.8 2.3 2.4v4.3zM373.6 71.3c-1 0-1.7-.3-2.2-.9s-.8-1.4-.8-2.5.3-1.9.8-2.5 1.3-.9 2.3-.9c.7 0 1.3.1 1.8.4l-.4 1.1c-.6-.2-1.1-.3-1.4-.3-1.1 0-1.7.7-1.7 2.2 0 .7.1 1.3.4 1.6s.7.5 1.2.5c.6 0 1.2-.2 1.7-.5v1.2c-.2.1-.5.2-.8.3s-.5.3-.9.3zM379.5 71.3c-1 0-1.8-.3-2.4-.9s-.9-1.4-.9-2.4c0-1.1.3-1.9.8-2.5s1.3-.9 2.2-.9c.9 0 1.5.3 2 .8s.7 1.2.7 2.1v.7h-4.3c0 .6.2 1.1.5 1.5s.8.5 1.4.5c.4 0 .7 0 1.1-.1s.7-.2 1.1-.4v1.1c-.3.2-.7.3-1 .3s-.8.2-1.2.2zm-.2-5.7c-.4 0-.8.1-1.1.4s-.4.7-.5 1.2h2.9c0-.5-.1-.9-.4-1.2s-.5-.4-.9-.4zM390.3 71.2l-.3-.9c-.3.4-.6.7-.9.8s-.7.2-1.2.2c-.6 0-1.1-.2-1.5-.5s-.5-.8-.5-1.5.2-1.2.7-1.5 1.3-.5 2.3-.6h1.1v-.3c0-.4-.1-.7-.3-.9s-.5-.3-.9-.3c-.3 0-.7 0-1 .1l-.9.3-.4-1c.4-.2.7-.3 1.2-.4s.8-.1 1.2-.1c.8 0 1.4.2 1.9.5s.6.9.6 1.7v4.4h-1.1zm-2.1-1c.5 0 .9-.1 1.2-.4s.5-.7.5-1.2V68h-.8c-.6 0-1.1.1-1.4.3s-.4.5-.4.9c0 .3.1.5.3.7s.3.3.6.3zM395.4 70.2c.3 0 .7-.1 1-.2v1c-.2.1-.3.1-.6.2s-.5.1-.7.1c-1.3 0-2-.7-2-2.1v-3.5h-.9v-.6l.9-.5.5-1.4h.8v1.4h1.8v1h-1.8v3.5c0 .3.1.6.2.7s.5.4.8.4zM402.9 71.3c-1 0-1.7-.3-2.2-.9s-.8-1.4-.8-2.5.3-1.9.8-2.5 1.3-.9 2.3-.9c.7 0 1.3.1 1.8.4l-.4 1.1c-.6-.2-1.1-.3-1.4-.3-1.1 0-1.7.7-1.7 2.2 0 .7.1 1.3.4 1.6s.7.5 1.2.5c.6 0 1.2-.2 1.7-.5v1.2c-.2.1-.5.2-.8.3s-.5.3-.9.3zM411.8 67.9c0 1.1-.3 1.9-.8 2.5s-1.3.9-2.3.9c-.6 0-1.1-.1-1.6-.4s-.8-.7-1.1-1.2-.4-1.1-.4-1.8c0-1.1.3-1.9.8-2.5s1.3-.9 2.3-.9c.9 0 1.7.3 2.2.9s.9 1.5.9 2.5zm-4.7 0c0 1.5.6 2.2 1.7 2.2s1.6-.7 1.6-2.2c0-1.5-.6-2.2-1.7-2.2-.6 0-1 .2-1.3.6s-.3.9-.3 1.6zM418.6 71.2h-1.4v-4c0-.5-.1-.9-.3-1.1s-.5-.4-.9-.4c-.5 0-.9.2-1.2.5s-.4.9-.4 1.7v3.2H413v-6.5h1.1l.2.8h.1c.2-.3.4-.5.8-.7s.7-.3 1.1-.3c1 0 1.7.3 2 1h.1c.2-.3.5-.6.8-.8s.7-.3 1.2-.3c.8 0 1.3.2 1.7.6s.5 1 .5 1.8v4.2h-1.4v-4c0-.5-.1-.9-.3-1.1s-.5-.4-.9-.4c-.5 0-.9.2-1.2.5s-.4.8-.4 1.5v3.8zM427.7 71.3c-.8 0-1.5-.3-1.9-.9h-.1c.1.5.1.9.1 1v2.7h-1.4v-9.4h1.1c0 .1.1.4.2.9h.1c.4-.7 1.1-1 1.9-1 .8 0 1.4.3 1.9.9s.7 1.4.7 2.5-.2 1.9-.7 2.5-1.1.8-1.9.8zm-.4-5.6c-.5 0-.9.2-1.2.5s-.4.8-.4 1.5v.2c0 .8.1 1.4.4 1.7s.7.5 1.2.5.8-.2 1.1-.6.4-.9.4-1.7c0-.7-.1-1.3-.4-1.6s-.6-.5-1.1-.5zM434.4 71.3c-1 0-1.8-.3-2.4-.9s-.9-1.4-.9-2.4c0-1.1.3-1.9.8-2.5s1.3-.9 2.2-.9c.9 0 1.5.3 2 .8s.7 1.2.7 2.1v.7h-4.3c0 .6.2 1.1.5 1.5s.8.5 1.4.5c.4 0 .7 0 1.1-.1s.7-.2 1.1-.4v1.1c-.3.2-.7.3-1 .3s-.7.2-1.2.2zm-.2-5.7c-.4 0-.8.1-1.1.4s-.4.7-.5 1.2h2.9c0-.5-.1-.9-.4-1.2s-.5-.4-.9-.4zM440.7 70.2c.3 0 .7-.1 1-.2v1c-.2.1-.3.1-.6.2s-.5.1-.7.1c-1.3 0-2-.7-2-2.1v-3.5h-.9v-.6l.9-.5.5-1.4h.8v1.4h1.8v1h-1.8v3.5c0 .3.1.6.2.7s.5.4.8.4zM442.7 63c0-.2.1-.4.2-.6s.3-.2.6-.2c.2 0 .4.1.6.2s.2.3.2.6c0 .2-.1.4-.2.6s-.3.2-.6.2c-.2 0-.4-.1-.6-.2s-.2-.4-.2-.6zm1.4 8.2h-1.4v-6.5h1.4v6.5zM448.3 70.2c.3 0 .7-.1 1-.2v1c-.2.1-.3.1-.6.2s-.5.1-.7.1c-1.3 0-2-.7-2-2.1v-3.5h-.9v-.6l.9-.5.5-1.4h.8v1.4h1.8v1h-1.8v3.5c0 .3.1.6.2.7s.5.4.8.4zM450.3 63c0-.2.1-.4.2-.6s.3-.2.6-.2c.2 0 .4.1.6.2s.2.3.2.6c0 .2-.1.4-.2.6s-.3.2-.6.2c-.2 0-.4-.1-.6-.2s-.2-.4-.2-.6zm1.4 8.2h-1.4v-6.5h1.4v6.5zM454.9 71.2l-2.5-6.5h1.5l1.3 3.8c.2.6.4 1.1.4 1.5 0-.3.2-.8.4-1.5l1.3-3.8h1.5l-2.5 6.5h-1.4zM462.5 71.3c-1 0-1.8-.3-2.4-.9s-.9-1.4-.9-2.4c0-1.1.3-1.9.8-2.5s1.3-.9 2.2-.9c.9 0 1.5.3 2 .8s.7 1.2.7 2.1v.7h-4.3c0 .6.2 1.1.5 1.5s.8.5 1.4.5c.4 0 .7 0 1.1-.1s.7-.2 1.1-.4v1.1c-.3.2-.7.3-1 .3s-.8.2-1.2.2zm-.3-5.7c-.4 0-.8.1-1.1.4s-.4.7-.5 1.2h2.9c0-.5-.1-.9-.4-1.2s-.4-.4-.9-.4zM474.7 64.7v.8l-1.1.2c.1.1.2.3.3.5s.1.4.1.6c0 .7-.2 1.2-.7 1.6s-1.1.6-1.9.6h-.6c-.3.2-.4.4-.4.6 0 .1.1.3.2.3s.4.1.8.1h1.1c.7 0 1.3.2 1.6.5s.6.7.6 1.3c0 .7-.3 1.3-.9 1.7s-1.5.6-2.6.6c-.9 0-1.6-.2-2-.5s-.7-.8-.7-1.3c0-.4.1-.7.4-1s.6-.5 1.1-.6c-.2-.1-.3-.2-.5-.4s-.2-.4-.2-.5c0-.2.1-.4.2-.6s.3-.3.6-.5c-.3-.1-.6-.4-.8-.7s-.3-.7-.3-1.1c0-.7.2-1.2.7-1.6s1.1-.6 1.9-.6h.6c.2 0 .4.1.5.1h2zm-5.1 7.5c0 .3.1.5.4.7s.6.2 1.1.2c.8 0 1.3-.1 1.7-.3s.6-.5.6-.9c0-.3-.1-.5-.3-.6s-.6-.2-1.1-.2h-1c-.4 0-.7.1-.9.3s-.5.5-.5.8zm.6-5.4c0 .4.1.7.3.9s.5.3.9.3c.8 0 1.2-.4 1.2-1.3 0-.4-.1-.7-.3-1s-.5-.3-.9-.3-.7.1-.9.3-.3.7-.3 1.1zM478.9 64.6c.3 0 .5 0 .7.1l-.1 1.3c-.2 0-.4-.1-.6-.1-.6 0-1 .2-1.3.5s-.5.8-.5 1.4v3.4h-1.4v-6.5h1.1l.2 1.1h.1c.2-.4.5-.7.8-.9s.6-.3 1-.3zM486.3 67.9c0 1.1-.3 1.9-.8 2.5s-1.3.9-2.3.9c-.6 0-1.1-.1-1.6-.4s-.8-.7-1.1-1.2-.4-1.1-.4-1.8c0-1.1.3-1.9.8-2.5s1.3-.9 2.3-.9c.9 0 1.7.3 2.2.9s.9 1.5.9 2.5zm-4.7 0c0 1.5.6 2.2 1.7 2.2s1.6-.7 1.6-2.2c0-1.5-.6-2.2-1.7-2.2-.6 0-1 .2-1.3.6s-.3.9-.3 1.6zM492.2 71.2l-.2-.8c-.2.3-.5.5-.8.7s-.8.3-1.2.3c-.8 0-1.4-.2-1.8-.6s-.6-1-.6-1.8v-4.2h1.4v4c0 .5.1.9.3 1.1s.5.4 1 .4c.6 0 1-.2 1.3-.5s.4-.9.4-1.7v-3.2h1.4v6.5h-1.2zM498.4 71.3c-.8 0-1.5-.3-1.9-.9h-.1c.1.5.1.9.1 1v2.7h-1.4v-9.4h1.1c0 .1.1.4.2.9h.1c.4-.7 1.1-1 1.9-1 .8 0 1.4.3 1.9.9s.7 1.4.7 2.5-.2 1.9-.7 2.5-1.1.8-1.9.8zm-.4-5.6c-.5 0-.9.2-1.2.5s-.4.8-.4 1.5v.2c0 .8.1 1.4.4 1.7s.7.5 1.2.5.8-.2 1.1-.6.4-.9.4-1.7c0-.7-.1-1.3-.4-1.6s-.6-.5-1.1-.5zM508.5 71.3c-.8 0-1.5-.3-1.9-.9h-.1c.1.5.1.9.1 1v2.7h-1.4v-9.4h1.1c0 .1.1.4.2.9h.1c.4-.7 1.1-1 1.9-1 .8 0 1.4.3 1.9.9s.7 1.4.7 2.5-.2 1.9-.7 2.5-1.1.8-1.9.8zm-.4-5.6c-.5 0-.9.2-1.2.5s-.4.8-.4 1.5v.2c0 .8.1 1.4.4 1.7s.7.5 1.2.5.8-.2 1.1-.6.4-.9.4-1.7c0-.7-.1-1.3-.4-1.6s-.6-.5-1.1-.5zM515.7 64.6c.3 0 .5 0 .7.1l-.1 1.3c-.2 0-.4-.1-.6-.1-.6 0-1 .2-1.3.5s-.5.8-.5 1.4v3.4h-1.4v-6.5h1.1l.2 1.1h.1c.2-.4.5-.7.8-.9s.6-.3 1-.3zM517.3 63c0-.2.1-.4.2-.6s.3-.2.6-.2c.2 0 .4.1.6.2s.2.3.2.6c0 .2-.1.4-.2.6s-.3.2-.6.2c-.2 0-.4-.1-.6-.2s-.2-.4-.2-.6zm1.4 8.2h-1.4v-6.5h1.4v6.5zM523.1 71.3c-1 0-1.7-.3-2.2-.9s-.8-1.4-.8-2.5.3-1.9.8-2.5 1.3-.9 2.3-.9c.7 0 1.3.1 1.8.4l-.4 1.1c-.6-.2-1.1-.3-1.4-.3-1.1 0-1.7.7-1.7 2.2 0 .7.1 1.3.4 1.6s.7.5 1.2.5c.6 0 1.2-.2 1.7-.5v1.2c-.2.1-.5.2-.8.3s-.5.3-.9.3zM526.1 63c0-.2.1-.4.2-.6s.3-.2.6-.2c.2 0 .4.1.6.2s.2.3.2.6c0 .2-.1.4-.2.6s-.3.2-.6.2c-.2 0-.4-.1-.6-.2s-.2-.4-.2-.6zm1.5 8.2h-1.4v-6.5h1.4v6.5zM535 71.2h-1.4v-4c0-.5-.1-.9-.3-1.1s-.5-.4-1-.4c-.6 0-1 .2-1.3.5s-.4.9-.4 1.7v3.2h-1.4v-6.5h1.1l.2.8h.1c.2-.3.5-.5.8-.7s.8-.3 1.2-.3c1.6 0 2.3.8 2.3 2.4v4.4zM542.2 64.7v.8l-1.1.2c.1.1.2.3.3.5s.1.4.1.6c0 .7-.2 1.2-.7 1.6s-1.1.6-1.9.6h-.6c-.3.2-.4.4-.4.6 0 .1.1.3.2.3s.4.1.8.1h1.1c.7 0 1.3.2 1.6.5s.6.7.6 1.3c0 .7-.3 1.3-.9 1.7s-1.5.6-2.6.6c-.9 0-1.6-.2-2-.5s-.7-.8-.7-1.3c0-.4.1-.7.4-1s.6-.5 1.1-.6c-.2-.1-.3-.2-.5-.4s-.2-.4-.2-.5c0-.2.1-.4.2-.6s.3-.3.6-.5c-.3-.1-.6-.4-.8-.7s-.3-.7-.3-1.1c0-.7.2-1.2.7-1.6s1.1-.6 1.9-.6h.6c.2 0 .4.1.5.1h2zm-5.1 7.5c0 .3.1.5.4.7s.6.2 1.1.2c.8 0 1.3-.1 1.7-.3s.6-.5.6-.9c0-.3-.1-.5-.3-.6s-.6-.2-1.1-.2h-1c-.4 0-.7.1-.9.3s-.5.5-.5.8zm.6-5.4c0 .4.1.7.3.9s.5.3.9.3c.8 0 1.2-.4 1.2-1.3 0-.4-.1-.7-.3-1s-.5-.3-.9-.3-.7.1-.9.3-.3.7-.3 1.1zM542.9 70.4c0-.3.1-.5.2-.7s.4-.2.6-.2c.3 0 .5.1.7.2s.2.4.2.6c0 .3-.1.5-.2.7s-.4.2-.6.2-.5-.1-.6-.2-.3-.3-.3-.6z"/></svg>