<svg id="Layer_1" xmlns="http://www.w3.org/2000/svg" viewBox="0 0 728 90"><style>.st0{fill:#414042}</style><path class="st0" d="M278.7 34.9h-3.9v-5.8h-4.5v5.8h-3.9V20.6h3.9v5.3h4.5v-5.3h3.9v14.3zM291.7 29.3c0 1.8-.5 3.2-1.5 4.2s-2.3 1.5-4.1 1.5c-1.7 0-3-.5-4-1.6s-1.5-2.4-1.5-4.2c0-1.8.5-3.2 1.5-4.2s2.3-1.5 4.1-1.5c1.1 0 2 .2 2.9.7s1.5 1.1 1.9 2 .7 2 .7 3.1zm-7.2 0c0 1 .1 1.7.4 2.2s.7.7 1.3.7c.6 0 1-.2 1.3-.7s.4-1.2.4-2.2c0-.9-.1-1.7-.4-2.1s-.7-.7-1.3-.7c-.6 0-1 .2-1.3.7s-.4 1.2-.4 2.1zM300.4 34.9v-6c0-.7-.1-1.3-.3-1.7s-.6-.6-1-.6c-.6 0-1.1.3-1.4.8s-.4 1.4-.4 2.6v4.8h-3.8v-11h2.9l.5 1.4h.2c.3-.5.8-.9 1.4-1.2s1.2-.4 2-.4c1.2 0 2.2.4 2.9 1.1s1 1.7 1 3v7.2h-4zM317 29.3c0 1.8-.5 3.2-1.5 4.2s-2.3 1.5-4.1 1.5c-1.7 0-3-.5-4-1.6s-1.5-2.4-1.5-4.2c0-1.8.5-3.2 1.5-4.2s2.3-1.5 4.1-1.5c1.1 0 2 .2 2.9.7s1.5 1.1 1.9 2 .7 2 .7 3.1zm-7.1 0c0 1 .1 1.7.4 2.2s.7.7 1.3.7c.6 0 1-.2 1.3-.7s.4-1.2.4-2.2c0-.9-.1-1.7-.4-2.1s-.7-.7-1.3-.7c-.6 0-1 .2-1.3.7s-.4 1.2-.4 2.1zM325.5 23.6c.3 0 .6 0 .9.1h.2l-.3 3.6c-.3-.1-.7-.1-1.3-.1-.8 0-1.4.2-1.8.6s-.6.9-.6 1.6v5.4h-3.8v-11h2.8l.6 1.8h.2c.3-.6.8-1.1 1.3-1.4s1.2-.6 1.8-.6zM327.7 21.1c0-.6.2-1 .5-1.3s.8-.4 1.5-.4 1.2.1 1.6.4.5.7.5 1.3c0 1.1-.7 1.7-2 1.7-1.4 0-2.1-.6-2.1-1.7zm3.9 13.8h-3.8V23.8h3.8v11.1zM340.9 34.9v-6c0-.7-.1-1.3-.3-1.7s-.6-.6-1-.6c-.6 0-1.1.3-1.4.8s-.4 1.4-.4 2.6v4.8H334v-11h2.9l.5 1.4h.2c.3-.5.8-.9 1.4-1.2s1.2-.4 2-.4c1.2 0 2.2.4 2.9 1.1s1 1.7 1 3v7.2h-4zM357.4 23.8v1.8l-1.5.6c.2.4.3.8.3 1.3 0 1.2-.4 2.1-1.3 2.8s-2.1 1-3.7 1c-.4 0-.7 0-1-.1-.1.2-.1.3-.1.5s.2.3.5.4.7.2 1.2.2h1.8c2.5 0 3.7 1 3.7 3.1 0 1.3-.6 2.4-1.7 3.1s-2.8 1.1-4.8 1.1c-1.6 0-2.8-.3-3.6-.8s-1.3-1.3-1.3-2.3c0-1.3.8-2.2 2.5-2.6-.3-.1-.6-.4-.9-.7s-.4-.6-.4-.9c0-.3.1-.6.3-.9s.6-.6 1.2-.9c-.6-.3-1-.7-1.4-1.2s-.5-1.2-.5-2c0-1.2.4-2.1 1.2-2.8s2-1 3.5-1c.2 0 .6 0 1 .1s.9.1 1.1.1h3.9zM349 36.3c0 .3.2.6.5.8s.8.3 1.4.3c.9 0 1.7-.1 2.2-.3s.8-.5.8-.9c0-.3-.2-.5-.5-.6s-.8-.2-1.5-.2h-1.5c-.4 0-.8.1-1 .3s-.4.3-.4.6zm1.2-8.8c0 1.1.4 1.7 1.2 1.7.4 0 .6-.1.8-.4s.3-.7.3-1.3c0-1.1-.4-1.7-1.1-1.7-.8 0-1.2.5-1.2 1.7zM368.9 32.1c.5 0 1.1-.1 1.8-.4v2.8c-.5.2-1 .4-1.5.5-.5.1-1 .1-1.6.1-1.3 0-2.2-.3-2.8-.9s-.8-1.6-.8-2.9v-4.6h-1.3v-1.6l1.7-1.2 1-2.3h2.5v2.2h2.7v2.9h-2.7V31c0 .7.3 1.1 1 1.1zM379.3 34.9v-6c0-1.5-.4-2.2-1.3-2.2-.6 0-1.1.3-1.4.8s-.4 1.4-.4 2.6V35h-3.8V19.7h3.8v2.2c0 1-.1 2.1-.2 3.3h.2c.4-.6.8-1 1.3-1.2s1.1-.4 1.7-.4c1.2 0 2.2.4 2.9 1.1s1 1.7 1 3v7.2h-3.8zM390.7 35.1c-1.8 0-3.3-.5-4.3-1.5s-1.5-2.4-1.5-4.2c0-1.9.5-3.3 1.4-4.3s2.3-1.5 4-1.5c1.7 0 3 .4 3.9 1.3s1.4 2.1 1.4 3.8v1.7h-6.8c0 .6.3 1.1.7 1.5s1 .5 1.7.5 1.3-.1 1.9-.2 1.2-.3 1.8-.6v2.7c-.6.3-1.2.5-1.9.6s-1.5.2-2.3.2zm-.3-8.9c-.4 0-.8.1-1.1.4s-.5.7-.5 1.3h3.3c0-.5-.2-1-.5-1.3s-.7-.4-1.2-.4zM408.9 23.6c1.2 0 2.2.5 2.9 1.5s1.1 2.4 1.1 4.2c0 1.8-.4 3.2-1.1 4.2s-1.7 1.5-3 1.5c-.4 0-.8 0-1.1-.1s-.6-.2-.9-.4-.5-.4-.9-.8h-.2l-.6 1.1h-3V19.7h3.8v3.4c0 .4 0 1.1-.1 2.1h.1c.4-.6.8-1 1.3-1.2s1-.4 1.7-.4zm-1.4 3c-.5 0-.9.2-1.2.6s-.4 1-.4 1.7v.5c0 .9.1 1.6.4 1.9s.7.6 1.2.6c.4 0 .8-.2 1-.7s.4-1.1.4-2c0-1.7-.5-2.6-1.4-2.6zM414.5 21.1c0-.6.2-1 .5-1.3s.8-.4 1.5-.4 1.2.1 1.6.4.5.7.5 1.3c0 1.1-.7 1.7-2 1.7-1.4 0-2.1-.6-2.1-1.7zm3.9 13.8h-3.8V23.8h3.8v11.1zM427.3 23.6c.3 0 .6 0 .9.1h.2l-.3 3.6c-.3-.1-.7-.1-1.3-.1-.8 0-1.4.2-1.8.6s-.6.9-.6 1.6v5.4h-3.8v-11h2.8l.6 1.8h.2c.3-.6.8-1.1 1.3-1.4s1.3-.6 1.8-.6zM435.1 32.1c.5 0 1.1-.1 1.8-.4v2.8c-.5.2-1 .4-1.5.5s-1 .1-1.6.1c-1.3 0-2.2-.3-2.8-.9s-.8-1.6-.8-2.9v-4.6h-1.3v-1.6l1.7-1.2 1-2.3h2.5v2.2h2.7v2.9H434V31c0 .7.4 1.1 1.1 1.1zM445.4 34.9v-6c0-1.5-.4-2.2-1.3-2.2-.6 0-1.1.3-1.4.8s-.4 1.4-.4 2.6V35h-3.8V19.7h3.8v2.2c0 1-.1 2.1-.2 3.3h.2c.4-.6.8-1 1.3-1.2s1.1-.4 1.7-.4c1.2 0 2.2.4 2.9 1.1s1 1.7 1 3v7.2h-3.8zM466.9 29.3c0 1.8-.5 3.2-1.5 4.2s-2.3 1.5-4.1 1.5c-1.7 0-3-.5-4-1.6s-1.5-2.4-1.5-4.2c0-1.8.5-3.2 1.5-4.2s2.3-1.5 4.1-1.5c1.1 0 2 .2 2.9.7s1.5 1.1 1.9 2 .7 2 .7 3.1zm-7.2 0c0 1 .1 1.7.4 2.2s.7.7 1.3.7c.6 0 1-.2 1.3-.7s.4-1.2.4-2.2c0-.9-.1-1.7-.4-2.1s-.7-.7-1.3-.7c-.6 0-1 .2-1.3.7s-.4 1.2-.4 2.1zM475.4 26.7H473v8.2h-3.8v-8.2h-1.5v-1.9l1.5-.9v-.2c0-1.5.3-2.5.9-3.1s1.6-1 2.9-1c.5 0 1 0 1.4.1s1 .2 1.6.4l-.8 2.5c-.5-.1-.9-.2-1.4-.2-.3 0-.5.1-.6.3s-.2.5-.2.9v.3h2.4v2.8zM486.7 32.1c.5 0 1.1-.1 1.8-.4v2.8c-.5.2-1 .4-1.5.5s-1 .1-1.6.1c-1.3 0-2.2-.3-2.8-.9s-.8-1.6-.8-2.9v-4.6h-1.3v-1.6l1.7-1.2 1-2.3h2.5v2.2h2.7v2.9h-2.7V31c0 .7.4 1.1 1 1.1zM497.1 34.9v-6c0-1.5-.4-2.2-1.3-2.2-.6 0-1.1.3-1.4.8s-.4 1.3-.4 2.5v4.9h-3.8V19.7h3.8v2.2c0 1-.1 2.1-.2 3.3h.2c.4-.6.8-1 1.3-1.2s1.1-.4 1.7-.4c1.2 0 2.2.4 2.9 1.1s1 1.7 1 3v7.2h-3.8zM508.5 35.1c-1.8 0-3.3-.5-4.3-1.5s-1.5-2.4-1.5-4.2c0-1.9.5-3.3 1.4-4.3s2.3-1.5 4-1.5c1.7 0 3 .4 3.9 1.3s1.4 2.1 1.4 3.8v1.7h-6.8c0 .6.3 1.1.7 1.5s1 .5 1.7.5 1.3-.1 1.9-.2 1.2-.3 1.8-.6v2.7c-.6.3-1.2.5-1.9.6s-1.4.2-2.3.2zm-.2-8.9c-.4 0-.8.1-1.1.4s-.5.7-.5 1.3h3.3c0-.5-.2-1-.5-1.3s-.7-.4-1.2-.4zM532.3 20.6v8.6c0 1.9-.5 3.3-1.6 4.3s-2.6 1.5-4.6 1.5c-1.9 0-3.4-.5-4.5-1.5s-1.6-2.4-1.6-4.3v-8.7h3.9V29c0 1 .2 1.7.6 2.2s.9.7 1.7.7c.8 0 1.4-.2 1.7-.7s.5-1.2.5-2.2v-8.4h3.9zM534.2 33.3c0-.6.2-1.1.5-1.4s.9-.5 1.5-.5 1.1.2 1.5.5.5.8.5 1.4c0 .6-.2 1-.5 1.4s-.8.5-1.5.5c-.6 0-1.2-.2-1.5-.5s-.5-.8-.5-1.4zM549.6 30.6c0 .9-.2 1.7-.7 2.4s-1.1 1.2-1.9 1.6-1.8.6-3 .6c-1 0-1.7-.1-2.4-.2s-1.3-.4-2-.7v-3.4c.7.4 1.5.7 2.3.9s1.5.3 2.2.3c.6 0 1-.1 1.3-.3s.4-.5.4-.8c0-.2-.1-.4-.2-.5s-.3-.3-.5-.4-.9-.5-1.9-.9c-.9-.4-1.6-.8-2.1-1.2s-.8-.9-1-1.4-.3-1.1-.3-1.8c0-1.3.5-2.3 1.4-3.1s2.3-1.1 3.9-1.1c1.5 0 3 .3 4.5 1l-1.2 3c-1.3-.6-2.5-.9-3.5-.9-.5 0-.9.1-1.1.3s-.3.4-.3.7c0 .3.1.5.4.8s1.1.6 2.4 1.2c1.2.6 2.1 1.1 2.6 1.8s.7 1.1.7 2.1zM550.7 33.3c0-.6.2-1.1.5-1.4s.9-.5 1.5-.5 1.1.2 1.5.5.5.8.5 1.4c0 .6-.2 1-.5 1.4s-.8.5-1.5.5c-.6 0-1.2-.2-1.5-.5s-.5-.8-.5-1.4zM567.9 34.9L565 24.6h-.1c.1 1.8.2 3.1.2 4.1v6.2h-3.4V20.6h5.1l3 10.1h.1l2.9-10.1h5.1v14.3h-3.5v-6.3-1.1c0-.4.1-1.4.1-2.9h-.1l-2.9 10.3h-3.6zM587.6 34.9l-.7-1.5h-.1c-.5.6-1 1.1-1.6 1.3s-1.2.4-2.1.4c-1 0-1.9-.3-2.5-.9s-.9-1.5-.9-2.6c0-1.2.4-2.1 1.2-2.6s2-.9 3.6-1l1.8-.1v-.2c0-.9-.4-1.4-1.3-1.4-.8 0-1.8.3-3.1.8l-1.1-2.5c1.3-.7 2.9-1 4.9-1 1.4 0 2.5.4 3.3 1.1s1.2 1.7 1.2 2.9v7.3h-2.6zm-2.8-2.5c.5 0 .9-.1 1.2-.4s.5-.7.5-1.1V30h-.9c-1.3 0-1.9.5-1.9 1.4 0 .7.3 1 1.1 1zM599.1 23.6c.3 0 .6 0 .9.1h.2l-.3 3.6c-.3-.1-.7-.1-1.3-.1-.8 0-1.4.2-1.8.6s-.6.9-.6 1.6v5.4h-3.8v-11h2.8l.6 1.8h.2c.3-.6.8-1.1 1.3-1.4s1.2-.6 1.8-.6zM601.3 21.1c0-.6.2-1 .5-1.3s.8-.4 1.5-.4 1.2.1 1.6.4.5.7.5 1.3c0 1.1-.7 1.7-2 1.7-1.4 0-2.1-.6-2.1-1.7zm4 13.8h-3.8V23.8h3.8v11.1zM614.5 34.9v-6c0-.7-.1-1.3-.3-1.7s-.6-.6-1-.6c-.6 0-1.1.3-1.4.8s-.4 1.4-.4 2.6v4.8h-3.8v-11h2.9l.5 1.4h.2c.3-.5.8-.9 1.4-1.2s1.2-.4 2-.4c1.2 0 2.2.4 2.9 1.1s1 1.7 1 3v7.2h-4zM625.9 35.1c-1.8 0-3.3-.5-4.3-1.5s-1.5-2.4-1.5-4.2c0-1.9.5-3.3 1.4-4.3s2.3-1.5 4-1.5c1.7 0 3 .4 3.9 1.3s1.4 2.1 1.4 3.8v1.7H624c0 .6.3 1.1.7 1.5s1 .5 1.7.5 1.3-.1 1.9-.2 1.2-.3 1.8-.6v2.7c-.6.3-1.2.5-1.9.6s-1.4.2-2.3.2zm-.2-8.9c-.4 0-.8.1-1.1.4s-.5.7-.5 1.3h3.3c0-.5-.2-1-.5-1.3s-.8-.4-1.2-.4z"/><g><path class="st0" d="M272.8 45.6c-.9 0-1.6.4-2.1 1.1-.5.8-.8 1.8-.8 3.1 0 2.7 1 4.1 3.1 4.1.6 0 1.2-.1 1.8-.3l1.8-.6v3.3c-1.2.5-2.5.8-4 .8-2.2 0-3.8-.6-5-1.9s-1.7-3.1-1.7-5.4c0-1.5.3-2.8.8-3.9s1.4-2 2.4-2.6 2.3-.9 3.7-.9c1.5 0 3 .3 4.4 1l-1.2 3c-.5-.2-1.1-.5-1.6-.6s-1-.2-1.6-.2zM289.4 51.3c0 1.8-.5 3.2-1.5 4.2s-2.3 1.5-4.1 1.5c-1.7 0-3-.5-4-1.6s-1.5-2.4-1.5-4.2c0-1.8.5-3.2 1.5-4.2s2.3-1.5 4.1-1.5c1.1 0 2 .2 2.9.7.8.5 1.5 1.1 1.9 2 .4 1 .7 2 .7 3.1zm-7.2 0c0 1 .1 1.7.4 2.2s.7.7 1.3.7c.6 0 1-.2 1.3-.7s.4-1.2.4-2.2c0-.9-.1-1.7-.4-2.1-.2-.5-.7-.7-1.3-.7-.6 0-1 .2-1.3.7s-.4 1.2-.4 2.1zM297.8 45.6c.3 0 .6 0 .9.1h.2l-.3 3.6c-.3-.1-.7-.1-1.3-.1-.8 0-1.4.2-1.8.6s-.6.9-.6 1.6v5.4h-3.8v-11h2.8l.6 1.8h.2c.3-.6.8-1.1 1.3-1.4.7-.4 1.2-.6 1.8-.6zM306.8 57.1c-.6 0-1.1-.1-1.5-.3s-.9-.5-1.3-1h-.2c.1.8.2 1.3.2 1.4v4.4h-3.8V45.8h3.1l.5 1.4h.2c.7-1.1 1.7-1.6 2.9-1.6s2.2.5 2.9 1.5 1 2.4 1 4.2c0 1.8-.4 3.2-1.1 4.2s-1.7 1.6-2.9 1.6zm-1.3-8.5c-.6 0-1 .2-1.2.6s-.3 1-.4 1.8v.3c0 1 .1 1.6.4 2.1.3.4.7.6 1.2.6s.8-.2 1.1-.6.3-1.1.3-2.1-.1-1.6-.3-2c-.2-.5-.6-.7-1.1-.7zM321.1 53.5c0 1.2-.4 2.1-1.2 2.7s-2 .9-3.5.9c-.8 0-1.5 0-2.1-.1s-1.2-.2-1.9-.5v-3.1c.6.3 1.2.5 1.9.6.7.2 1.3.3 1.9.3.8 0 1.2-.2 1.2-.6 0-.2-.1-.4-.3-.5-.2-.2-.9-.5-2-.9-1-.4-1.7-.9-2.1-1.4-.4-.5-.6-1.2-.6-2 0-1 .4-1.8 1.2-2.4.8-.6 1.9-.9 3.4-.9.7 0 1.4.1 2.1.2s1.3.4 2 .7l-1 2.5c-.5-.2-1-.4-1.6-.6-.6-.2-1-.2-1.4-.2-.6 0-.9.2-.9.5 0 .2.1.3.3.5.2.1.8.4 1.9.8.8.3 1.4.6 1.7.9.4.3.7.7.8 1.1.1.4.2.9.2 1.5zM331.7 51.7v5.2h-3.9V42.6h4.7c3.9 0 5.8 1.4 5.8 4.2 0 1.7-.8 2.9-2.4 3.8l4.2 6.2h-4.4l-3-5.2h-1zm0-2.9h.7c1.3 0 2-.6 2-1.8 0-1-.7-1.5-2-1.5h-.8v3.3zM346.2 57.1c-1.8 0-3.3-.5-4.3-1.5s-1.5-2.4-1.5-4.2c0-1.9.5-3.3 1.4-4.3.9-1 2.3-1.5 4-1.5 1.7 0 3 .4 3.9 1.3s1.4 2.1 1.4 3.8v1.7h-6.8c0 .6.3 1.1.7 1.5s1 .5 1.7.5 1.3-.1 1.9-.2 1.2-.3 1.8-.6v2.7c-.6.3-1.2.5-1.9.6s-1.5.2-2.3.2zm-.3-8.9c-.4 0-.8.1-1.1.4s-.5.7-.5 1.3h3.3c0-.5-.2-1-.5-1.3-.3-.2-.7-.4-1.2-.4zM361.3 53.5c0 1.2-.4 2.1-1.2 2.7s-2 .9-3.5.9c-.8 0-1.5 0-2.1-.1s-1.2-.2-1.9-.5v-3.1c.6.3 1.2.5 1.9.6.7.2 1.3.3 1.9.3.8 0 1.2-.2 1.2-.6 0-.2-.1-.4-.3-.5-.2-.2-.9-.5-2-.9-1-.4-1.7-.9-2.1-1.4-.4-.5-.6-1.2-.6-2 0-1 .4-1.8 1.2-2.4.8-.6 1.9-.9 3.4-.9.7 0 1.4.1 2.1.2s1.3.4 2 .7l-1 2.5c-.5-.2-1-.4-1.6-.6-.6-.2-1-.2-1.4-.2-.6 0-.9.2-.9.5 0 .2.1.3.3.5.2.1.8.4 1.9.8.8.3 1.4.6 1.7.9.4.3.7.7.8 1.1.1.4.2.9.2 1.5zM368.4 57.1c-1.8 0-3.3-.5-4.3-1.5s-1.5-2.4-1.5-4.2c0-1.9.5-3.3 1.4-4.3.9-1 2.3-1.5 4-1.5 1.7 0 3 .4 3.9 1.3s1.4 2.1 1.4 3.8v1.7h-6.8c0 .6.3 1.1.7 1.5s1 .5 1.7.5 1.3-.1 1.9-.2 1.2-.3 1.8-.6v2.7c-.6.3-1.2.5-1.9.6s-1.4.2-2.3.2zm-.2-8.9c-.4 0-.8.1-1.1.4s-.5.7-.5 1.3h3.3c0-.5-.2-1-.5-1.3-.4-.2-.8-.4-1.2-.4zM381.7 45.6c.3 0 .6 0 .9.1h.2l-.3 3.6c-.3-.1-.7-.1-1.3-.1-.8 0-1.4.2-1.8.6s-.6.9-.6 1.6v5.4H375v-11h2.8l.6 1.8h.2c.3-.6.8-1.1 1.3-1.4.6-.4 1.2-.6 1.8-.6z"/><path class="st0" d="M386.9 56.9l-4.2-11.1h4l1.9 6.5v.2c0 .1 0 .2.1.3s0 .2.1.3v.3h.1c0-.3.1-.7.2-1.1l2-6.6h4l-4.2 11.1h-4zM401.2 57.1c-1.8 0-3.3-.5-4.3-1.5s-1.5-2.4-1.5-4.2c0-1.9.5-3.3 1.4-4.3.9-1 2.3-1.5 4-1.5 1.7 0 3 .4 3.9 1.3s1.4 2.1 1.4 3.8v1.7h-6.8c0 .6.3 1.1.7 1.5s1 .5 1.7.5 1.3-.1 1.9-.2 1.2-.3 1.8-.6v2.7c-.6.3-1.2.5-1.9.6s-1.4.2-2.3.2zm-.3-8.9c-.4 0-.8.1-1.1.4s-.5.7-.5 1.3h3.3c0-.5-.2-1-.5-1.3-.3-.2-.7-.4-1.2-.4zM416.3 53.5c0 1.2-.4 2.1-1.2 2.7s-2 .9-3.5.9c-.8 0-1.5 0-2.1-.1s-1.2-.2-1.9-.5v-3.1c.6.3 1.2.5 1.9.6.7.2 1.3.3 1.9.3.8 0 1.2-.2 1.2-.6 0-.2-.1-.4-.3-.5-.2-.2-.9-.5-2-.9-1-.4-1.7-.9-2.1-1.4-.4-.5-.6-1.2-.6-2 0-1 .4-1.8 1.2-2.4.8-.6 1.9-.9 3.4-.9.7 0 1.4.1 2.1.2s1.3.4 2 .7l-1 2.5c-.5-.2-1-.4-1.6-.6-.6-.2-1-.2-1.4-.2-.6 0-.9.2-.9.5 0 .2.1.3.3.5.2.1.8.4 1.9.8.8.3 1.4.6 1.7.9.4.3.7.7.8 1.1.1.4.2.9.2 1.5zM417.6 55.3c0-.6.2-1.1.5-1.4.4-.3.9-.5 1.5-.5s1.1.2 1.5.5c.3.3.5.8.5 1.4 0 .6-.2 1-.5 1.4-.4.3-.8.5-1.5.5-.6 0-1.2-.2-1.5-.5-.3-.4-.5-.8-.5-1.4zM437 56.9h-8.5V42.6h8.5v3.1h-4.6V48h4.3v3.1h-4.3v2.7h4.6v3.1zM447.4 53.5c0 1.2-.4 2.1-1.2 2.7s-2 .9-3.5.9c-.8 0-1.5 0-2.1-.1s-1.2-.2-1.9-.5v-3.1c.6.3 1.2.5 1.9.6.7.2 1.3.3 1.9.3.8 0 1.2-.2 1.2-.6 0-.2-.1-.4-.3-.5-.2-.2-.9-.5-2-.9-1-.4-1.7-.9-2.1-1.4-.4-.5-.6-1.2-.6-2 0-1 .4-1.8 1.2-2.4.8-.6 1.9-.9 3.4-.9.7 0 1.4.1 2.1.2s1.3.4 2 .7l-1 2.5c-.5-.2-1-.4-1.6-.6-.6-.2-1-.2-1.4-.2-.6 0-.9.2-.9.5 0 .2.1.3.3.5.2.1.8.4 1.9.8.8.3 1.4.6 1.7.9.4.3.7.7.8 1.1.1.4.2.9.2 1.5zM454.5 54.1c.5 0 1.1-.1 1.8-.4v2.8c-.5.2-1 .4-1.5.5-.5.1-1 .1-1.6.1-1.3 0-2.2-.3-2.8-.9-.6-.6-.8-1.6-.8-2.9v-4.6h-1.3v-1.6l1.7-1.2 1-2.3h2.5v2.2h2.7v2.9h-2.7V53c0 .7.3 1.1 1 1.1zM465.1 56.9l-.7-1.5h-.1c-.5.6-1 1.1-1.6 1.3s-1.2.4-2.1.4c-1 0-1.9-.3-2.5-.9s-.9-1.5-.9-2.6c0-1.2.4-2.1 1.2-2.6s2-.9 3.6-1l1.8-.1v-.2c0-.9-.4-1.4-1.3-1.4-.8 0-1.8.3-3.1.8l-1.1-2.5c1.3-.7 2.9-1 4.9-1 1.4 0 2.5.4 3.3 1.1.8.7 1.2 1.7 1.2 2.9v7.3h-2.6zm-2.8-2.5c.5 0 .9-.1 1.2-.4s.5-.7.5-1.1V52h-.9c-1.3 0-1.9.5-1.9 1.4 0 .7.4 1 1.1 1zM476.8 45.6c1.2 0 2.2.5 2.9 1.5.7 1 1.1 2.4 1.1 4.2 0 1.8-.4 3.2-1.1 4.2-.7 1-1.7 1.5-3 1.5-.4 0-.8 0-1.1-.1s-.6-.2-.9-.4-.5-.4-.9-.8h-.2l-.6 1.1h-3V41.7h3.8v3.4c0 .4 0 1.1-.1 2.1h.1c.4-.6.8-1 1.3-1.2.5-.2 1-.4 1.7-.4zm-1.4 3c-.5 0-.9.2-1.2.6s-.4 1-.4 1.7v.5c0 .9.1 1.6.4 1.9.2.4.7.6 1.2.6.4 0 .8-.2 1-.7s.4-1.1.4-2c0-1.7-.5-2.6-1.4-2.6zM486.3 56.9h-3.8V41.7h3.8v15.2zM488.4 43.1c0-.6.2-1 .5-1.3s.8-.4 1.5-.4 1.2.1 1.6.4.5.7.5 1.3c0 1.1-.7 1.7-2 1.7-1.4 0-2.1-.6-2.1-1.7zm4 13.8h-3.8V45.8h3.8v11.1zM503.2 53.5c0 1.2-.4 2.1-1.2 2.7s-2 .9-3.5.9c-.8 0-1.5 0-2.1-.1s-1.2-.2-1.9-.5v-3.1c.6.3 1.2.5 1.9.6.7.2 1.3.3 1.9.3.8 0 1.2-.2 1.2-.6 0-.2-.1-.4-.3-.5-.2-.2-.9-.5-2-.9-1-.4-1.7-.9-2.1-1.4-.4-.5-.6-1.2-.6-2 0-1 .4-1.8 1.2-2.4.8-.6 1.9-.9 3.4-.9.7 0 1.4.1 2.1.2s1.3.4 2 .7l-1 2.5c-.5-.2-1-.4-1.6-.6-.6-.2-1-.2-1.4-.2-.6 0-.9.2-.9.5 0 .2.1.3.3.5.2.1.8.4 1.9.8.8.3 1.4.6 1.7.9.4.3.7.7.8 1.1.1.4.2.9.2 1.5zM511.9 56.9v-6c0-1.5-.4-2.2-1.3-2.2-.6 0-1.1.3-1.4.8-.3.5-.4 1.4-.4 2.6V57H505V41.7h3.8v2.2c0 1-.1 2.1-.2 3.3h.2c.4-.6.8-1 1.3-1.2.5-.2 1.1-.4 1.7-.4 1.2 0 2.2.4 2.9 1.1s1 1.7 1 3v7.2h-3.8zM523.2 57.1c-1.8 0-3.3-.5-4.3-1.5s-1.5-2.4-1.5-4.2c0-1.9.5-3.3 1.4-4.3.9-1 2.3-1.5 4-1.5 1.7 0 3 .4 3.9 1.3s1.4 2.1 1.4 3.8v1.7h-6.8c0 .6.3 1.1.7 1.5s1 .5 1.7.5 1.3-.1 1.9-.2 1.2-.3 1.8-.6v2.7c-.6.3-1.2.5-1.9.6s-1.4.2-2.3.2zm-.2-8.9c-.4 0-.8.1-1.1.4s-.5.7-.5 1.3h3.3c0-.5-.2-1-.5-1.3-.3-.2-.7-.4-1.2-.4zM533.3 57.1c-.8 0-1.5-.2-2.1-.7s-1-1.1-1.4-2c-.3-.9-.5-1.9-.5-3.1 0-1.8.4-3.2 1.1-4.2s1.7-1.5 3-1.5c.6 0 1.2.1 1.6.4.5.2.9.7 1.3 1.2h.1c-.1-.9-.2-1.7-.2-2.6v-3h3.8v15.2h-2.9l-.8-1.4h-.1c-.6 1.2-1.6 1.7-2.9 1.7zm1.6-3c.6 0 1-.2 1.3-.6.3-.4.4-1 .4-1.8v-.3c0-1-.1-1.7-.4-2.1-.3-.4-.7-.6-1.3-.6-.5 0-.9.2-1.2.7-.3.5-.4 1.1-.4 2 0 .9.1 1.5.4 2s.6.7 1.2.7zM555 56.9h-3.9v-7.6c0-.9 0-1.8.1-2.5-.2.3-.5.6-.9.9l-1.6 1.3-2-2.5 4.9-4h3.5v14.4zM568.2 49.2c0 2.8-.6 4.8-1.8 6.1s-3.1 1.9-5.8 1.9c-.9 0-1.5 0-2-.1V54c.6.1 1.1.2 1.7.2 1.4 0 2.4-.3 3.2-.9.7-.6 1.2-1.5 1.2-2.7h-.1c-.3.5-.5.8-.8 1-.2.2-.5.4-.9.5-.4.1-.8.2-1.3.2-1.2 0-2.2-.4-2.9-1.2-.7-.8-1-2-1-3.4 0-1.6.5-2.8 1.4-3.7s2.1-1.3 3.7-1.3c1.7 0 3.1.6 4.1 1.7s1.3 2.6 1.3 4.8zm-5.4-3.6c-.4 0-.8.2-1 .5-.3.3-.4.8-.4 1.5 0 .5.1 1 .3 1.3.2.3.6.5 1 .5s.8-.2 1.1-.5c.3-.3.5-.7.5-1.1 0-.6-.1-1.1-.4-1.5-.2-.5-.6-.7-1.1-.7zM577.7 56.9h-3.9v-7.6c0-.9 0-1.8.1-2.5-.2.3-.5.6-.9.9l-1.6 1.3-2-2.5 4.9-4h3.5v14.4zM580.5 50.9c0-2 .3-3.6.9-4.8.6-1.2 1.4-2.1 2.5-2.7s2.5-.9 4.1-.9c.6 0 1.3.1 2 .2v3c-.7-.1-1.4-.2-2.1-.2-1.3 0-2.2.3-2.9.9-.6.6-1 1.5-1 2.8h.1c.6-1.1 1.5-1.7 2.8-1.7 1.3 0 2.3.4 3 1.2.7.8 1 2 1 3.4 0 1.6-.4 2.8-1.3 3.7s-2.1 1.4-3.7 1.4c-1.7 0-3-.5-4-1.6s-1.4-2.8-1.4-4.7zm5.3 3.1c.4 0 .7-.2 1-.5.3-.3.4-.8.4-1.5 0-1.2-.4-1.7-1.3-1.7-.4 0-.8.1-1.1.4-.3.3-.4.7-.4 1.1 0 .6.1 1.1.4 1.5s.6.7 1 .7zM592 55.3c0-.6.2-1.1.5-1.4.4-.3.9-.5 1.5-.5s1.1.2 1.5.5c.3.3.5.8.5 1.4 0 .6-.2 1-.5 1.4-.4.3-.8.5-1.5.5-.6 0-1.2-.2-1.5-.5-.3-.4-.5-.8-.5-1.4z"/></g></svg>