<?xml version="1.0" encoding="utf-8"?>
<!-- Generator: Adobe Illustrator 22.1.0, SVG Export Plug-In . SVG Version: 6.00 Build 0)  -->
<svg version="1.1" id="Layer_1" xmlns="http://www.w3.org/2000/svg" xmlns:xlink="http://www.w3.org/1999/xlink" x="0px" y="0px"
	 viewBox="0 0 160 600" style="enable-background:new 0 0 160 600;" xml:space="preserve">
<style type="text/css">
	.st0{fill:#FFFFFF;}
</style>
<g>
	<path class="st0" d="M24.3,171.2l2.7-5.8h4.6l-5.2,9.6v6.1h-4.3v-6l-5.2-9.7h4.6L24.3,171.2z"/>
	<path class="st0" d="M44,175c0,2-0.5,3.5-1.6,4.7c-1.1,1.1-2.6,1.7-4.5,1.7c-1.8,0-3.3-0.6-4.4-1.7c-1.1-1.1-1.6-2.7-1.6-4.6
		c0-2,0.5-3.5,1.6-4.6c1.1-1.1,2.6-1.6,4.5-1.6c1.2,0,2.3,0.3,3.2,0.8c0.9,0.5,1.6,1.2,2.1,2.2C43.8,172.6,44,173.7,44,175z
		 M36.2,175c0,1,0.1,1.8,0.4,2.4s0.7,0.8,1.4,0.8c0.7,0,1.1-0.3,1.4-0.8s0.4-1.3,0.4-2.4c0-1-0.1-1.8-0.4-2.4
		c-0.3-0.5-0.7-0.8-1.4-0.8c-0.6,0-1.1,0.3-1.4,0.8S36.2,173.9,36.2,175z"/>
	<path class="st0" d="M54.4,181.1l-0.5-1.5h-0.2c-0.4,0.6-0.8,1-1.5,1.3c-0.6,0.3-1.4,0.4-2.2,0.4c-1.3,0-2.4-0.4-3.1-1.2
		c-0.7-0.8-1.1-1.9-1.1-3.3v-7.9H50v6.6c0,0.8,0.1,1.4,0.3,1.8s0.6,0.6,1.1,0.6c0.7,0,1.2-0.3,1.5-0.9c0.3-0.6,0.5-1.5,0.5-2.9v-5.3
		h4.2v12.2H54.4z"/>
	<path class="st0" d="M72.6,181.1v-6.6c0-1.6-0.5-2.4-1.5-2.4c-0.7,0-1.2,0.3-1.5,0.9c-0.3,0.6-0.5,1.5-0.5,2.9v5.3H65v-16.7h4.2
		v2.4c0,1.1-0.1,2.3-0.2,3.7h0.2c0.4-0.6,0.9-1.1,1.4-1.3c0.6-0.3,1.2-0.4,1.9-0.4c1.4,0,2.4,0.4,3.2,1.2c0.8,0.8,1.1,1.9,1.1,3.3
		v7.9H72.6z"/>
	<path class="st0" d="M84.9,181.3c-2,0-3.6-0.5-4.7-1.6c-1.1-1.1-1.7-2.6-1.7-4.6c0-2.1,0.5-3.6,1.6-4.7c1-1.1,2.5-1.6,4.4-1.6
		c1.8,0,3.2,0.5,4.2,1.4c1,1,1.5,2.3,1.5,4.1v1.9h-7.5c0,0.7,0.3,1.2,0.7,1.6s1.1,0.6,1.9,0.6c0.7,0,1.4-0.1,2-0.2s1.3-0.4,2-0.7v3
		c-0.7,0.3-1.3,0.6-2,0.7C86.7,181.2,85.9,181.3,84.9,181.3z M84.7,171.5c-0.5,0-0.9,0.2-1.2,0.5c-0.3,0.3-0.5,0.8-0.6,1.5h3.6
		c0-0.6-0.2-1.1-0.5-1.4C85.6,171.7,85.2,171.5,84.7,171.5z"/>
	<path class="st0" d="M96.2,181.1H92v-16.7h4.2V181.1z"/>
	<path class="st0" d="M105.7,181.3c-0.6,0-1.2-0.1-1.7-0.3s-1-0.6-1.5-1.1h-0.2c0.1,0.9,0.2,1.4,0.2,1.6v4.9h-4.2v-17.5h3.4l0.6,1.5
		h0.2c0.8-1.2,1.9-1.8,3.2-1.8c1.3,0,2.4,0.6,3.2,1.7s1.1,2.6,1.1,4.6c0,2-0.4,3.5-1.2,4.6C108.2,180.7,107.1,181.3,105.7,181.3z
		 M104.3,172c-0.6,0-1,0.2-1.3,0.7c-0.2,0.4-0.4,1.1-0.4,2v0.3c0,1,0.1,1.8,0.4,2.3c0.3,0.5,0.7,0.7,1.3,0.7c0.5,0,0.9-0.2,1.2-0.7
		s0.4-1.2,0.4-2.3c0-1-0.1-1.8-0.4-2.3C105.3,172.2,104.9,172,104.3,172z"/>
</g>
<g>
	<path class="st0" d="M25.8,205.3c-0.6,0-1.2-0.1-1.7-0.3c-0.5-0.2-1-0.6-1.5-1.1h-0.2c0.1,0.9,0.2,1.4,0.2,1.6v4.9h-4.2v-17.5h3.4
		l0.6,1.5h0.2c0.8-1.2,1.9-1.8,3.2-1.8c1.3,0,2.4,0.6,3.2,1.7c0.8,1.1,1.1,2.6,1.1,4.6c0,2-0.4,3.5-1.2,4.6
		C28.2,204.7,27.1,205.3,25.8,205.3z M24.4,196c-0.6,0-1,0.2-1.3,0.7s-0.4,1.1-0.4,2v0.3c0,1,0.1,1.8,0.4,2.3
		c0.3,0.5,0.7,0.7,1.3,0.7c0.5,0,0.9-0.2,1.2-0.7c0.2-0.5,0.4-1.2,0.4-2.3c0-1-0.1-1.8-0.4-2.3C25.3,196.2,24.9,196,24.4,196z"/>
	<path class="st0" d="M39.3,192.7c0.4,0,0.7,0,1,0.1l0.2,0l-0.4,4c-0.3-0.1-0.8-0.1-1.4-0.1c-0.9,0-1.6,0.2-2,0.6
		c-0.4,0.4-0.6,1-0.6,1.8v6H32v-12.2h3.1l0.7,1.9h0.2c0.4-0.6,0.8-1.2,1.5-1.6C38,192.9,38.7,192.7,39.3,192.7z"/>
	<path class="st0" d="M53.2,199c0,2-0.5,3.5-1.6,4.7c-1.1,1.1-2.6,1.7-4.5,1.7c-1.8,0-3.3-0.6-4.4-1.7c-1.1-1.1-1.6-2.7-1.6-4.6
		c0-2,0.5-3.5,1.6-4.6c1.1-1.1,2.6-1.6,4.5-1.6c1.2,0,2.3,0.3,3.2,0.8c0.9,0.5,1.6,1.2,2.1,2.2C53,196.6,53.2,197.7,53.2,199z
		 M45.4,199c0,1,0.1,1.8,0.4,2.4s0.7,0.8,1.4,0.8c0.7,0,1.1-0.3,1.4-0.8S49,200,49,199c0-1-0.1-1.8-0.4-2.4
		c-0.3-0.5-0.7-0.8-1.4-0.8c-0.6,0-1.1,0.3-1.4,0.8S45.4,197.9,45.4,199z"/>
	<path class="st0" d="M60.9,202c0.6,0,1.2-0.1,2-0.4v3.1c-0.6,0.2-1.1,0.4-1.6,0.5c-0.5,0.1-1.1,0.2-1.8,0.2c-1.4,0-2.4-0.3-3.1-1
		c-0.6-0.7-0.9-1.8-0.9-3.2v-5h-1.5v-1.7L56,193l1.1-2.6h2.8v2.4h3v3.1h-3v4.7C59.8,201.6,60.2,202,60.9,202z"/>
	<path class="st0" d="M70.3,205.3c-2,0-3.6-0.5-4.7-1.6c-1.1-1.1-1.7-2.6-1.7-4.6c0-2.1,0.5-3.6,1.6-4.7c1-1.1,2.5-1.6,4.4-1.6
		c1.8,0,3.2,0.5,4.2,1.4s1.5,2.3,1.5,4.1v1.9h-7.5c0,0.7,0.3,1.2,0.7,1.6c0.5,0.4,1.1,0.6,1.9,0.6c0.7,0,1.4-0.1,2-0.2
		c0.6-0.1,1.3-0.4,2-0.7v3c-0.7,0.3-1.3,0.6-2,0.7C72.1,205.2,71.3,205.3,70.3,205.3z M70.1,195.5c-0.5,0-0.9,0.2-1.2,0.5
		s-0.5,0.8-0.6,1.5h3.6c0-0.6-0.2-1.1-0.5-1.4C71.1,195.7,70.6,195.5,70.1,195.5z"/>
	<path class="st0" d="M82.9,205.3c-2,0-3.5-0.5-4.5-1.6c-1-1.1-1.5-2.6-1.5-4.6c0-2,0.6-3.6,1.7-4.7c1.1-1.1,2.7-1.7,4.7-1.7
		c1.4,0,2.7,0.3,4,0.9l-1.2,3.1c-0.5-0.2-1-0.4-1.4-0.5c-0.4-0.1-0.9-0.2-1.3-0.2c-0.7,0-1.2,0.3-1.6,0.8c-0.4,0.5-0.6,1.3-0.6,2.2
		c0,1.9,0.7,2.9,2.2,2.9c1.2,0,2.4-0.4,3.5-1.1v3.3C85.8,204.9,84.5,205.3,82.9,205.3z"/>
	<path class="st0" d="M94.6,202c0.6,0,1.2-0.1,2-0.4v3.1c-0.6,0.2-1.1,0.4-1.6,0.5c-0.5,0.1-1.1,0.2-1.8,0.2c-1.4,0-2.4-0.3-3.1-1
		c-0.6-0.7-0.9-1.8-0.9-3.2v-5h-1.5v-1.7l1.9-1.3l1.1-2.6h2.8v2.4h3v3.1h-3v4.7C93.4,201.6,93.8,202,94.6,202z"/>
	<path class="st0" d="M109.1,202c0.6,0,1.2-0.1,2-0.4v3.1c-0.6,0.2-1.1,0.4-1.6,0.5c-0.5,0.1-1.1,0.2-1.8,0.2c-1.4,0-2.4-0.3-3.1-1
		c-0.6-0.7-0.9-1.8-0.9-3.2v-5h-1.5v-1.7l1.9-1.3l1.1-2.6h2.8v2.4h3v3.1h-3v4.7C108,201.6,108.4,202,109.1,202z"/>
	<path class="st0" d="M120.3,205.1v-6.6c0-1.6-0.5-2.4-1.5-2.4c-0.7,0-1.2,0.3-1.5,0.9c-0.3,0.6-0.5,1.5-0.5,2.9v5.3h-4.2v-16.7h4.2
		v2.4c0,1.1-0.1,2.3-0.2,3.7h0.2c0.4-0.6,0.9-1.1,1.4-1.3s1.2-0.4,1.9-0.4c1.4,0,2.4,0.4,3.2,1.2c0.8,0.8,1.1,1.9,1.1,3.3v7.9H120.3
		z"/>
	<path class="st0" d="M132.6,205.3c-2,0-3.6-0.5-4.7-1.6c-1.1-1.1-1.7-2.6-1.7-4.6c0-2.1,0.5-3.6,1.6-4.7c1-1.1,2.5-1.6,4.4-1.6
		c1.8,0,3.2,0.5,4.2,1.4c1,1,1.5,2.3,1.5,4.1v1.9h-7.5c0,0.7,0.3,1.2,0.7,1.6c0.5,0.4,1.1,0.6,1.9,0.6c0.7,0,1.4-0.1,2-0.2
		c0.6-0.1,1.3-0.4,2-0.7v3c-0.7,0.3-1.3,0.6-2,0.7S133.6,205.3,132.6,205.3z M132.4,195.5c-0.5,0-0.9,0.2-1.2,0.5
		c-0.3,0.3-0.5,0.8-0.6,1.5h3.6c0-0.6-0.2-1.1-0.5-1.4C133.3,195.7,132.9,195.5,132.4,195.5z"/>
</g>
<g>
	<path class="st0" d="M24,229.3c-2,0-3.5-0.5-4.5-1.6c-1-1.1-1.5-2.6-1.5-4.6c0-2,0.6-3.6,1.7-4.7c1.1-1.1,2.7-1.7,4.7-1.7
		c1.4,0,2.7,0.3,4,0.9l-1.2,3.1c-0.5-0.2-1-0.4-1.4-0.5c-0.4-0.1-0.9-0.2-1.3-0.2c-0.7,0-1.2,0.3-1.6,0.8c-0.4,0.5-0.6,1.3-0.6,2.2
		c0,1.9,0.7,2.9,2.2,2.9c1.2,0,2.4-0.4,3.5-1.1v3.3C26.8,228.9,25.5,229.3,24,229.3z"/>
	<path class="st0" d="M41.3,223c0,2-0.5,3.5-1.6,4.7c-1.1,1.1-2.6,1.7-4.5,1.7c-1.8,0-3.3-0.6-4.4-1.7c-1.1-1.1-1.6-2.7-1.6-4.6
		c0-2,0.5-3.5,1.6-4.6c1.1-1.1,2.6-1.6,4.5-1.6c1.2,0,2.3,0.3,3.2,0.8c0.9,0.5,1.6,1.2,2.1,2.2C41,220.6,41.3,221.7,41.3,223z
		 M33.4,223c0,1,0.1,1.8,0.4,2.4s0.7,0.8,1.4,0.8c0.7,0,1.1-0.3,1.4-0.8S37,224,37,223c0-1-0.1-1.8-0.4-2.4
		c-0.3-0.5-0.7-0.8-1.4-0.8c-0.6,0-1.1,0.3-1.4,0.8S33.4,221.9,33.4,223z"/>
	<path class="st0" d="M51.7,229.1l-0.5-1.5h-0.2c-0.4,0.6-0.8,1-1.5,1.3c-0.6,0.3-1.4,0.4-2.2,0.4c-1.3,0-2.4-0.4-3.1-1.2
		c-0.7-0.8-1.1-1.9-1.1-3.3v-7.9h4.2v6.6c0,0.8,0.1,1.4,0.3,1.8s0.6,0.6,1.1,0.6c0.7,0,1.2-0.3,1.5-0.9c0.3-0.6,0.5-1.5,0.5-2.9
		v-5.3h4.2v12.2H51.7z"/>
	<path class="st0" d="M64.8,229.1v-6.6c0-0.8-0.1-1.4-0.3-1.8c-0.2-0.4-0.6-0.6-1.1-0.6c-0.7,0-1.2,0.3-1.5,0.8
		c-0.3,0.6-0.5,1.5-0.5,2.9v5.3h-4.2v-12.2h3.2l0.5,1.5h0.2c0.4-0.6,0.9-1,1.5-1.3c0.6-0.3,1.4-0.4,2.2-0.4c1.3,0,2.4,0.4,3.1,1.2
		c0.7,0.8,1.1,1.9,1.1,3.3v7.9H64.8z"/>
	<path class="st0" d="M77.2,226c0.6,0,1.2-0.1,2-0.4v3.1c-0.6,0.2-1.1,0.4-1.6,0.5c-0.5,0.1-1.1,0.2-1.8,0.2c-1.4,0-2.4-0.3-3.1-1
		c-0.6-0.7-0.9-1.8-0.9-3.2v-5h-1.5v-1.7l1.9-1.3l1.1-2.6H76v2.4h3v3.1h-3v4.7C76,225.6,76.4,226,77.2,226z"/>
	<path class="st0" d="M88.1,216.7c0.4,0,0.7,0,1,0.1l0.2,0l-0.4,4c-0.3-0.1-0.8-0.1-1.4-0.1c-0.9,0-1.6,0.2-2,0.6
		c-0.4,0.4-0.6,1-0.6,1.8v6h-4.2v-12.2h3.1l0.7,1.9h0.2c0.4-0.6,0.8-1.2,1.5-1.6S87.4,216.7,88.1,216.7z"/>
	<path class="st0" d="M88.9,216.9h4.4l2.1,7c0.1,0.4,0.2,0.8,0.2,1.3h0.1c0.1-0.5,0.1-0.9,0.3-1.3l2.1-7h4.3l-4.8,12.9
		c-0.6,1.6-1.4,2.8-2.3,3.5c-0.9,0.7-2.1,1-3.5,1c-0.6,0-1.1-0.1-1.7-0.2v-3.3c0.4,0.1,0.8,0.1,1.3,0.1c0.4,0,0.7-0.1,1-0.2
		c0.3-0.1,0.5-0.3,0.7-0.6c0.2-0.3,0.4-0.7,0.7-1.3L88.9,216.9z"/>
	<path class="st0" d="M102.6,227.3c0-0.7,0.2-1.2,0.6-1.5c0.4-0.4,1-0.5,1.7-0.5c0.7,0,1.3,0.2,1.6,0.5c0.4,0.4,0.6,0.9,0.6,1.5
		c0,0.6-0.2,1.1-0.6,1.5c-0.4,0.4-0.9,0.5-1.6,0.5c-0.7,0-1.3-0.2-1.7-0.5S102.6,227.9,102.6,227.3z"/>
</g>
</svg>
