<?xml version="1.0" encoding="utf-8"?>
<!-- Generator: Adobe Illustrator 22.1.0, SVG Export Plug-In . SVG Version: 6.00 Build 0)  -->
<svg version="1.1" id="Layer_1" xmlns="http://www.w3.org/2000/svg" xmlns:xlink="http://www.w3.org/1999/xlink" x="0px" y="0px"
	 viewBox="0 0 160 600" style="enable-background:new 0 0 160 600;" xml:space="preserve">
<style type="text/css">
	.st0{fill:#FFFFFF;}
</style>
<g>
	<path class="st0" d="M32.2,181.1h-4.3v-6.4H23v6.4h-4.3v-15.7H23v5.8h4.9v-5.8h4.3V181.1z"/>
	<path class="st0" d="M46.3,175c0,2-0.5,3.5-1.6,4.7c-1.1,1.1-2.6,1.7-4.5,1.7c-1.8,0-3.3-0.6-4.4-1.7c-1.1-1.1-1.6-2.7-1.6-4.6
		c0-2,0.5-3.5,1.6-4.6c1.1-1.1,2.6-1.6,4.5-1.6c1.2,0,2.3,0.3,3.2,0.8c0.9,0.5,1.6,1.2,2.1,2.2C46,172.6,46.3,173.7,46.3,175z
		 M38.4,175c0,1,0.1,1.8,0.4,2.4s0.7,0.8,1.4,0.8c0.7,0,1.1-0.3,1.4-0.8S42,176,42,175c0-1-0.1-1.8-0.4-2.4
		c-0.3-0.5-0.7-0.8-1.4-0.8c-0.6,0-1.1,0.3-1.4,0.8S38.4,173.9,38.4,175z"/>
	<path class="st0" d="M55.7,181.1v-6.6c0-0.8-0.1-1.4-0.3-1.8c-0.2-0.4-0.6-0.6-1.1-0.6c-0.7,0-1.2,0.3-1.5,0.8
		c-0.3,0.6-0.5,1.5-0.5,2.9v5.3H48v-12.2h3.2l0.5,1.5H52c0.4-0.6,0.9-1,1.5-1.3c0.6-0.3,1.4-0.4,2.2-0.4c1.3,0,2.4,0.4,3.1,1.2
		c0.7,0.8,1.1,1.9,1.1,3.3v7.9H55.7z"/>
	<path class="st0" d="M73.7,175c0,2-0.5,3.5-1.6,4.7c-1.1,1.1-2.6,1.7-4.5,1.7c-1.8,0-3.3-0.6-4.4-1.7c-1.1-1.1-1.6-2.7-1.6-4.6
		c0-2,0.5-3.5,1.6-4.6c1.1-1.1,2.6-1.6,4.5-1.6c1.2,0,2.3,0.3,3.2,0.8c0.9,0.5,1.6,1.2,2.1,2.2C73.5,172.6,73.7,173.7,73.7,175z
		 M65.9,175c0,1,0.1,1.8,0.4,2.4s0.7,0.8,1.4,0.8c0.7,0,1.1-0.3,1.4-0.8s0.4-1.3,0.4-2.4c0-1-0.1-1.8-0.4-2.4
		c-0.3-0.5-0.7-0.8-1.4-0.8c-0.6,0-1.1,0.3-1.4,0.8S65.9,173.9,65.9,175z"/>
	<path class="st0" d="M82.8,168.7c0.4,0,0.7,0,1,0.1l0.2,0l-0.4,4c-0.3-0.1-0.8-0.1-1.4-0.1c-0.9,0-1.6,0.2-2,0.6
		c-0.4,0.4-0.6,1-0.6,1.8v6h-4.2v-12.2h3.1l0.7,1.9h0.2c0.4-0.6,0.8-1.2,1.5-1.6C81.6,168.9,82.2,168.7,82.8,168.7z"/>
	<path class="st0" d="M85.1,165.9c0-0.6,0.2-1.1,0.5-1.4c0.4-0.3,0.9-0.5,1.7-0.5s1.3,0.2,1.7,0.5c0.4,0.3,0.5,0.8,0.5,1.4
		c0,1.2-0.7,1.8-2.2,1.8C85.8,167.7,85.1,167.1,85.1,165.9z M89.4,181.1h-4.2v-12.2h4.2V181.1z"/>
	<path class="st0" d="M99.3,181.1v-6.6c0-0.8-0.1-1.4-0.3-1.8c-0.2-0.4-0.6-0.6-1.1-0.6c-0.7,0-1.2,0.3-1.5,0.8
		c-0.3,0.6-0.5,1.5-0.5,2.9v5.3h-4.2v-12.2h3.2l0.5,1.5h0.2c0.4-0.6,0.9-1,1.5-1.3c0.6-0.3,1.4-0.4,2.2-0.4c1.3,0,2.4,0.4,3.1,1.2
		c0.7,0.8,1.1,1.9,1.1,3.3v7.9H99.3z"/>
	<path class="st0" d="M117.2,168.9v2l-1.7,0.6c0.2,0.4,0.3,0.9,0.3,1.5c0,1.3-0.5,2.3-1.4,3.1c-0.9,0.7-2.3,1.1-4.1,1.1
		c-0.5,0-0.8,0-1.1-0.1c-0.1,0.2-0.2,0.4-0.2,0.5c0,0.2,0.2,0.4,0.5,0.5c0.3,0.1,0.8,0.2,1.3,0.2h2c2.7,0,4.1,1.1,4.1,3.4
		c0,1.5-0.6,2.6-1.9,3.5c-1.3,0.8-3,1.2-5.3,1.2c-1.7,0-3.1-0.3-4-0.9c-0.9-0.6-1.4-1.4-1.4-2.5c0-1.5,0.9-2.4,2.7-2.8
		c-0.4-0.2-0.7-0.4-1-0.8c-0.3-0.4-0.4-0.7-0.4-1c0-0.4,0.1-0.7,0.3-1s0.6-0.6,1.3-1c-0.6-0.3-1.1-0.7-1.5-1.3
		c-0.4-0.6-0.5-1.3-0.5-2.2c0-1.3,0.5-2.4,1.4-3.1s2.2-1.1,3.9-1.1c0.2,0,0.6,0,1.1,0.1c0.5,0.1,0.9,0.1,1.2,0.1H117.2z M108,182.6
		c0,0.3,0.2,0.6,0.6,0.8c0.4,0.2,0.9,0.3,1.5,0.3c1,0,1.8-0.1,2.4-0.4c0.6-0.3,0.9-0.6,0.9-1c0-0.3-0.2-0.5-0.6-0.7
		c-0.4-0.1-0.9-0.2-1.6-0.2h-1.6c-0.5,0-0.8,0.1-1.1,0.3C108.2,182,108,182.3,108,182.6z M109.4,172.9c0,1.2,0.4,1.9,1.3,1.9
		c0.4,0,0.7-0.2,0.9-0.5c0.2-0.3,0.3-0.8,0.3-1.4c0-1.3-0.4-1.9-1.3-1.9C109.8,171,109.4,171.6,109.4,172.9z"/>
</g>
<g>
	<path class="st0" d="M24.4,202c0.6,0,1.2-0.1,2-0.4v3.1c-0.6,0.2-1.1,0.4-1.6,0.5c-0.5,0.1-1.1,0.2-1.8,0.2c-1.4,0-2.4-0.3-3.1-1
		c-0.6-0.7-0.9-1.8-0.9-3.2v-5h-1.5v-1.7l1.9-1.3l1.1-2.6h2.8v2.4h3v3.1h-3v4.7C23.3,201.6,23.7,202,24.4,202z"/>
	<path class="st0" d="M35.6,205.1v-6.6c0-1.6-0.5-2.4-1.5-2.4c-0.7,0-1.2,0.3-1.5,0.9c-0.3,0.6-0.5,1.5-0.5,2.9v5.3h-4.2v-16.7h4.2
		v2.4c0,1.1-0.1,2.3-0.2,3.7h0.2c0.4-0.6,0.9-1.1,1.4-1.3c0.6-0.3,1.2-0.4,1.9-0.4c1.4,0,2.4,0.4,3.2,1.2c0.8,0.8,1.1,1.9,1.1,3.3
		v7.9H35.6z"/>
	<path class="st0" d="M47.9,205.3c-2,0-3.6-0.5-4.7-1.6c-1.1-1.1-1.7-2.6-1.7-4.6c0-2.1,0.5-3.6,1.6-4.7c1-1.1,2.5-1.6,4.4-1.6
		c1.8,0,3.2,0.5,4.2,1.4s1.5,2.3,1.5,4.1v1.9h-7.5c0,0.7,0.3,1.2,0.7,1.6c0.5,0.4,1.1,0.6,1.9,0.6c0.7,0,1.4-0.1,2-0.2
		c0.6-0.1,1.3-0.4,2-0.7v3c-0.7,0.3-1.3,0.6-2,0.7C49.7,205.2,48.9,205.3,47.9,205.3z M47.7,195.5c-0.5,0-0.9,0.2-1.2,0.5
		s-0.5,0.8-0.6,1.5h3.6c0-0.6-0.2-1.1-0.5-1.4C48.6,195.7,48.2,195.5,47.7,195.5z"/>
	<path class="st0" d="M67.5,192.7c1.3,0,2.4,0.6,3.2,1.7c0.8,1.1,1.2,2.6,1.2,4.6c0,2-0.4,3.5-1.2,4.6c-0.8,1.1-1.9,1.7-3.3,1.7
		c-0.5,0-0.9,0-1.2-0.1c-0.4-0.1-0.7-0.2-0.9-0.4c-0.3-0.2-0.6-0.5-1-0.9H64l-0.7,1.2h-3.3v-16.7h4.2v3.8c0,0.5-0.1,1.2-0.2,2.3h0.2
		c0.4-0.6,0.9-1.1,1.4-1.4C66.2,192.8,66.8,192.7,67.5,192.7z M66,196c-0.6,0-1,0.2-1.3,0.6c-0.3,0.4-0.4,1-0.4,1.9v0.6
		c0,1,0.1,1.7,0.4,2.1c0.3,0.4,0.7,0.6,1.3,0.6c0.5,0,0.9-0.3,1.1-0.8c0.3-0.5,0.4-1.2,0.4-2.2C67.5,197,67,196,66,196z"/>
	<path class="st0" d="M73.5,189.9c0-0.6,0.2-1.1,0.5-1.4c0.4-0.3,0.9-0.5,1.7-0.5c0.8,0,1.3,0.2,1.7,0.5c0.4,0.3,0.5,0.8,0.5,1.4
		c0,1.2-0.7,1.8-2.2,1.8C74.2,191.7,73.5,191.1,73.5,189.9z M77.8,205.1h-4.2v-12.2h4.2V205.1z"/>
	<path class="st0" d="M87.4,192.7c0.4,0,0.7,0,1,0.1l0.2,0l-0.4,4c-0.3-0.1-0.8-0.1-1.4-0.1c-0.9,0-1.6,0.2-2,0.6
		c-0.4,0.4-0.6,1-0.6,1.8v6H80v-12.2h3.1l0.7,1.9H84c0.4-0.6,0.8-1.2,1.5-1.6S86.8,192.7,87.4,192.7z"/>
	<path class="st0" d="M95.7,202c0.6,0,1.2-0.1,2-0.4v3.1c-0.6,0.2-1.1,0.4-1.6,0.5c-0.5,0.1-1.1,0.2-1.8,0.2c-1.4,0-2.4-0.3-3.1-1
		c-0.6-0.7-0.9-1.8-0.9-3.2v-5h-1.5v-1.7l1.9-1.3l1.1-2.6h2.8v2.4h3v3.1h-3v4.7C94.5,201.6,94.9,202,95.7,202z"/>
	<path class="st0" d="M106.8,205.1v-6.6c0-1.6-0.5-2.4-1.5-2.4c-0.7,0-1.2,0.3-1.5,0.9c-0.3,0.6-0.5,1.5-0.5,2.9v5.3h-4.2v-16.7h4.2
		v2.4c0,1.1-0.1,2.3-0.2,3.7h0.2c0.4-0.6,0.9-1.1,1.4-1.3s1.2-0.4,1.9-0.4c1.4,0,2.4,0.4,3.2,1.2c0.8,0.8,1.1,1.9,1.1,3.3v7.9H106.8
		z"/>
</g>
<g>
	<path class="st0" d="M30.1,223c0,2-0.5,3.5-1.6,4.7c-1.1,1.1-2.6,1.7-4.5,1.7c-1.8,0-3.3-0.6-4.4-1.7c-1.1-1.1-1.6-2.7-1.6-4.6
		c0-2,0.5-3.5,1.6-4.6c1.1-1.1,2.6-1.6,4.5-1.6c1.2,0,2.3,0.3,3.2,0.8c0.9,0.5,1.6,1.2,2.1,2.2C29.8,220.6,30.1,221.7,30.1,223z
		 M22.2,223c0,1,0.1,1.8,0.4,2.4s0.7,0.8,1.4,0.8c0.7,0,1.1-0.3,1.4-0.8s0.4-1.3,0.4-2.4c0-1-0.1-1.8-0.4-2.4
		c-0.3-0.5-0.7-0.8-1.4-0.8c-0.6,0-1.1,0.3-1.4,0.8S22.2,221.9,22.2,223z"/>
	<path class="st0" d="M39.3,220h-2.6v9h-4.2v-9h-1.6V218l1.7-1v-0.2c0-1.6,0.3-2.8,1-3.5c0.7-0.7,1.7-1.1,3.2-1.1
		c0.6,0,1.1,0,1.6,0.1c0.5,0.1,1.1,0.2,1.7,0.5l-0.9,2.7c-0.5-0.1-1-0.2-1.5-0.2c-0.3,0-0.6,0.1-0.7,0.3c-0.1,0.2-0.2,0.5-0.2,1v0.3
		h2.6V220z"/>
	<path class="st0" d="M51.3,226c0.6,0,1.2-0.1,2-0.4v3.1c-0.6,0.2-1.1,0.4-1.6,0.5c-0.5,0.1-1.1,0.2-1.8,0.2c-1.4,0-2.4-0.3-3.1-1
		c-0.6-0.7-0.9-1.8-0.9-3.2v-5h-1.5v-1.7l1.9-1.3l1.1-2.6h2.8v2.4h3v3.1h-3v4.7C50.2,225.6,50.5,226,51.3,226z"/>
	<path class="st0" d="M62.5,229.1v-6.6c0-1.6-0.5-2.4-1.5-2.4c-0.7,0-1.2,0.3-1.5,0.9c-0.3,0.6-0.5,1.5-0.5,2.9v5.3h-4.2v-16.7H59
		v2.4c0,1.1-0.1,2.3-0.2,3.7H59c0.4-0.6,0.9-1.1,1.4-1.3c0.6-0.3,1.2-0.4,1.9-0.4c1.4,0,2.4,0.4,3.2,1.2c0.8,0.8,1.1,1.9,1.1,3.3
		v7.9H62.5z"/>
	<path class="st0" d="M74.8,229.3c-2,0-3.6-0.5-4.7-1.6c-1.1-1.1-1.7-2.6-1.7-4.6c0-2.1,0.5-3.6,1.6-4.7c1-1.1,2.5-1.6,4.4-1.6
		c1.8,0,3.2,0.5,4.2,1.4s1.5,2.3,1.5,4.1v1.9h-7.5c0,0.7,0.3,1.2,0.7,1.6c0.5,0.4,1.1,0.6,1.9,0.6c0.7,0,1.4-0.1,2-0.2
		c0.6-0.1,1.3-0.4,2-0.7v3c-0.7,0.3-1.3,0.6-2,0.7C76.6,229.2,75.8,229.3,74.8,229.3z M74.5,219.5c-0.5,0-0.9,0.2-1.2,0.5
		s-0.5,0.8-0.6,1.5h3.6c0-0.6-0.2-1.1-0.5-1.4C75.5,219.7,75.1,219.5,74.5,219.5z"/>
	<path class="st0" d="M100.5,213.4v9.5c0,2.1-0.6,3.6-1.7,4.8c-1.2,1.1-2.8,1.7-5,1.7c-2.1,0-3.8-0.5-4.9-1.6
		c-1.2-1.1-1.7-2.7-1.7-4.7v-9.5h4.3v9.2c0,1.1,0.2,1.9,0.6,2.4c0.4,0.5,1,0.8,1.8,0.8c0.9,0,1.5-0.2,1.9-0.7
		c0.4-0.5,0.6-1.3,0.6-2.4v-9.2H100.5z"/>
	<path class="st0" d="M102.4,227.3c0-0.7,0.2-1.2,0.6-1.5c0.4-0.4,1-0.5,1.7-0.5c0.7,0,1.3,0.2,1.6,0.5c0.4,0.4,0.6,0.9,0.6,1.5
		c0,0.6-0.2,1.1-0.6,1.5c-0.4,0.4-0.9,0.5-1.6,0.5c-0.7,0-1.3-0.2-1.7-0.5S102.4,227.9,102.4,227.3z"/>
	<path class="st0" d="M119.2,224.3c0,1-0.2,1.8-0.7,2.6c-0.5,0.8-1.2,1.3-2.1,1.8s-2,0.6-3.3,0.6c-1,0-1.9-0.1-2.6-0.2
		s-1.4-0.4-2.2-0.8v-3.8c0.8,0.4,1.7,0.7,2.5,1c0.9,0.2,1.7,0.3,2.4,0.3c0.6,0,1.1-0.1,1.4-0.3c0.3-0.2,0.4-0.5,0.4-0.8
		c0-0.2-0.1-0.4-0.2-0.6c-0.1-0.2-0.3-0.3-0.6-0.5c-0.3-0.2-1-0.5-2.1-1c-1-0.5-1.8-0.9-2.3-1.4c-0.5-0.4-0.9-0.9-1.1-1.5
		c-0.2-0.6-0.4-1.2-0.4-2c0-1.4,0.5-2.6,1.6-3.4c1.1-0.8,2.5-1.2,4.3-1.2c1.6,0,3.3,0.4,5,1.1l-1.3,3.3c-1.5-0.7-2.7-1-3.8-1
		c-0.6,0-1,0.1-1.2,0.3s-0.4,0.4-0.4,0.7c0,0.3,0.2,0.6,0.5,0.8c0.3,0.2,1.2,0.7,2.6,1.3c1.4,0.6,2.3,1.3,2.8,2
		C118.9,222.4,119.2,223.2,119.2,224.3z"/>
	<path class="st0" d="M120.2,227.3c0-0.7,0.2-1.2,0.6-1.5c0.4-0.4,1-0.5,1.7-0.5c0.7,0,1.3,0.2,1.6,0.5c0.4,0.4,0.6,0.9,0.6,1.5
		c0,0.6-0.2,1.1-0.6,1.5c-0.4,0.4-0.9,0.5-1.6,0.5c-0.7,0-1.3-0.2-1.7-0.5S120.2,227.9,120.2,227.3z"/>
</g>
<g>
	<path class="st0" d="M28.3,253.1l-0.8-2.9h-5.1l-0.8,2.9H17l5.1-15.8h5.7l5.2,15.8H28.3z M26.7,246.7l-0.7-2.6
		c-0.2-0.6-0.3-1.3-0.6-2.2c-0.2-0.9-0.4-1.6-0.4-2c-0.1,0.4-0.2,1-0.4,1.8c-0.2,0.8-0.6,2.5-1.3,5H26.7z"/>
	<path class="st0" d="M33.7,237.9c0-0.6,0.2-1.1,0.5-1.4c0.4-0.3,0.9-0.5,1.7-0.5c0.8,0,1.3,0.2,1.7,0.5c0.4,0.3,0.5,0.8,0.5,1.4
		c0,1.2-0.7,1.8-2.2,1.8C34.4,239.7,33.7,239.1,33.7,237.9z M38,253.1h-4.2v-12.2H38V253.1z"/>
	<path class="st0" d="M47.6,240.7c0.4,0,0.7,0,1,0.1l0.2,0l-0.4,4c-0.3-0.1-0.8-0.1-1.4-0.1c-0.9,0-1.6,0.2-2,0.6
		c-0.4,0.4-0.6,1-0.6,1.8v6h-4.2v-12.2h3.1l0.7,1.9h0.2c0.4-0.6,0.8-1.2,1.5-1.6C46.4,240.9,47,240.7,47.6,240.7z"/>
	<path class="st0" d="M59.4,253.1h-4.2v-15.7h9.3v3.4h-5.1v3h4.7v3.4h-4.7V253.1z"/>
	<path class="st0" d="M77.8,247c0,2-0.5,3.5-1.6,4.7c-1.1,1.1-2.6,1.7-4.5,1.7c-1.8,0-3.3-0.6-4.4-1.7c-1.1-1.1-1.6-2.7-1.6-4.6
		c0-2,0.5-3.5,1.6-4.6c1.1-1.1,2.6-1.6,4.5-1.6c1.2,0,2.3,0.3,3.2,0.8c0.9,0.5,1.6,1.2,2.1,2.2C77.6,244.6,77.8,245.7,77.8,247z
		 M70,247c0,1,0.1,1.8,0.4,2.4s0.7,0.8,1.4,0.8c0.7,0,1.1-0.3,1.4-0.8s0.4-1.3,0.4-2.4c0-1-0.1-1.8-0.4-2.4
		c-0.3-0.5-0.7-0.8-1.4-0.8c-0.6,0-1.1,0.3-1.4,0.8S70,245.9,70,247z"/>
	<path class="st0" d="M86.9,240.7c0.4,0,0.7,0,1,0.1l0.2,0l-0.4,4c-0.3-0.1-0.8-0.1-1.4-0.1c-0.9,0-1.6,0.2-2,0.6
		c-0.4,0.4-0.6,1-0.6,1.8v6h-4.2v-12.2h3.1l0.7,1.9h0.2c0.3-0.6,0.8-1.2,1.5-1.6C85.7,240.9,86.3,240.7,86.9,240.7z"/>
	<path class="st0" d="M94.8,253.3c-2,0-3.5-0.5-4.5-1.6c-1-1.1-1.5-2.6-1.5-4.6c0-2,0.6-3.6,1.7-4.7c1.1-1.1,2.7-1.7,4.7-1.7
		c1.4,0,2.7,0.3,4,0.9l-1.2,3.1c-0.5-0.2-1-0.4-1.4-0.5c-0.4-0.1-0.9-0.2-1.3-0.2c-0.7,0-1.2,0.3-1.6,0.8c-0.4,0.5-0.6,1.3-0.6,2.2
		c0,1.9,0.7,2.9,2.2,2.9c1.2,0,2.4-0.4,3.5-1.1v3.3C97.6,252.9,96.3,253.3,94.8,253.3z"/>
	<path class="st0" d="M106.3,253.3c-2,0-3.6-0.5-4.7-1.6c-1.1-1.1-1.7-2.6-1.7-4.6c0-2.1,0.5-3.6,1.6-4.7c1-1.1,2.5-1.6,4.4-1.6
		c1.8,0,3.2,0.5,4.2,1.4c1,1,1.5,2.3,1.5,4.1v1.9h-7.5c0,0.7,0.3,1.2,0.7,1.6c0.5,0.4,1.1,0.6,1.9,0.6c0.7,0,1.4-0.1,2-0.2
		c0.6-0.1,1.3-0.4,2-0.7v3c-0.7,0.3-1.3,0.6-2,0.7S107.3,253.3,106.3,253.3z M106.1,243.5c-0.5,0-0.9,0.2-1.2,0.5
		c-0.3,0.3-0.5,0.8-0.6,1.5h3.6c0-0.6-0.2-1.1-0.5-1.4C107,243.7,106.6,243.5,106.1,243.5z"/>
</g>
<g>
	<path class="st0" d="M23,271.4v5.7h-4.2v-15.7h5.1c4.3,0,6.4,1.5,6.4,4.6c0,1.8-0.9,3.2-2.7,4.2l4.6,6.8h-4.8l-3.3-5.7H23z
		 M23,268.2h0.8c1.5,0,2.2-0.7,2.2-2c0-1.1-0.7-1.6-2.2-1.6H23V268.2z"/>
	<path class="st0" d="M38.6,277.3c-2,0-3.6-0.5-4.7-1.6c-1.1-1.1-1.7-2.6-1.7-4.6c0-2.1,0.5-3.6,1.6-4.7c1-1.1,2.5-1.6,4.4-1.6
		c1.8,0,3.2,0.5,4.2,1.4s1.5,2.3,1.5,4.1v1.9h-7.5c0,0.7,0.3,1.2,0.7,1.6c0.5,0.4,1.1,0.6,1.9,0.6c0.7,0,1.4-0.1,2-0.2
		c0.6-0.1,1.3-0.4,2-0.7v3c-0.7,0.3-1.3,0.6-2,0.7C40.4,277.2,39.6,277.3,38.6,277.3z M38.3,267.5c-0.5,0-0.9,0.2-1.2,0.5
		s-0.5,0.8-0.6,1.5h3.6c0-0.6-0.2-1.1-0.5-1.4C39.3,267.7,38.9,267.5,38.3,267.5z"/>
	<path class="st0" d="M55.1,273.3c0,1.3-0.4,2.3-1.3,3c-0.9,0.7-2.2,1-3.8,1c-0.9,0-1.7,0-2.4-0.1s-1.3-0.3-2-0.5v-3.4
		c0.7,0.3,1.4,0.5,2.1,0.7c0.8,0.2,1.5,0.3,2.1,0.3c0.9,0,1.4-0.2,1.4-0.6c0-0.2-0.1-0.4-0.4-0.6c-0.3-0.2-1-0.5-2.2-1
		c-1.1-0.5-1.9-1-2.3-1.6c-0.4-0.6-0.7-1.3-0.7-2.2c0-1.1,0.4-2,1.3-2.6c0.9-0.6,2.1-0.9,3.7-0.9c0.8,0,1.6,0.1,2.3,0.3
		c0.7,0.2,1.4,0.4,2.2,0.8l-1.1,2.7c-0.6-0.3-1.1-0.5-1.8-0.6c-0.6-0.2-1.1-0.3-1.5-0.3c-0.7,0-1,0.2-1,0.5c0,0.2,0.1,0.4,0.4,0.5
		c0.2,0.1,0.9,0.4,2.1,0.9c0.9,0.4,1.5,0.7,1.9,1c0.4,0.3,0.7,0.7,0.9,1.2C55,272.1,55.1,272.7,55.1,273.3z"/>
	<path class="st0" d="M62.6,277.3c-2,0-3.6-0.5-4.7-1.6c-1.1-1.1-1.7-2.6-1.7-4.6c0-2.1,0.5-3.6,1.6-4.7c1-1.1,2.5-1.6,4.4-1.6
		c1.8,0,3.2,0.5,4.2,1.4s1.5,2.3,1.5,4.1v1.9h-7.5c0,0.7,0.3,1.2,0.7,1.6c0.5,0.4,1.1,0.6,1.9,0.6c0.7,0,1.4-0.1,2-0.2
		c0.6-0.1,1.3-0.4,2-0.7v3c-0.7,0.3-1.3,0.6-2,0.7C64.4,277.2,63.6,277.3,62.6,277.3z M62.4,267.5c-0.5,0-0.9,0.2-1.2,0.5
		s-0.5,0.8-0.6,1.5h3.6c0-0.6-0.2-1.1-0.5-1.4C63.3,267.7,62.9,267.5,62.4,267.5z"/>
	<path class="st0" d="M77,264.7c0.4,0,0.7,0,1,0.1l0.2,0l-0.4,4c-0.3-0.1-0.8-0.1-1.4-0.1c-0.9,0-1.6,0.2-2,0.6
		c-0.4,0.4-0.6,1-0.6,1.8v6h-4.2v-12.2h3.1l0.7,1.9h0.2c0.4-0.6,0.8-1.2,1.5-1.6C75.7,264.9,76.4,264.7,77,264.7z"/>
	<path class="st0" d="M82.5,277.1l-4.6-12.2h4.4l2.1,7.2c0,0,0,0.1,0,0.2s0,0.2,0.1,0.3s0,0.2,0.1,0.4c0,0.1,0,0.3,0,0.4h0.1
		c0-0.4,0.1-0.8,0.2-1.2l2.2-7.2h4.4l-4.6,12.2H82.5z"/>
	<path class="st0" d="M98,277.3c-2,0-3.6-0.5-4.7-1.6c-1.1-1.1-1.7-2.6-1.7-4.6c0-2.1,0.5-3.6,1.6-4.7c1-1.1,2.5-1.6,4.4-1.6
		c1.8,0,3.2,0.5,4.2,1.4c1,1,1.5,2.3,1.5,4.1v1.9h-7.5c0,0.7,0.3,1.2,0.7,1.6c0.5,0.4,1.1,0.6,1.9,0.6c0.7,0,1.4-0.1,2-0.2
		c0.6-0.1,1.3-0.4,2-0.7v3c-0.7,0.3-1.3,0.6-2,0.7S99,277.3,98,277.3z M97.8,267.5c-0.5,0-0.9,0.2-1.2,0.5c-0.3,0.3-0.5,0.8-0.6,1.5
		h3.6c0-0.6-0.2-1.1-0.5-1.4C98.7,267.7,98.3,267.5,97.8,267.5z"/>
	<path class="st0" d="M114.5,273.3c0,1.3-0.4,2.3-1.3,3s-2.2,1-3.8,1c-0.9,0-1.7,0-2.4-0.1s-1.3-0.3-2-0.5v-3.4
		c0.7,0.3,1.4,0.5,2.1,0.7c0.8,0.2,1.5,0.3,2.1,0.3c0.9,0,1.4-0.2,1.4-0.6c0-0.2-0.1-0.4-0.4-0.6c-0.3-0.2-1-0.5-2.2-1
		c-1.1-0.5-1.9-1-2.3-1.6c-0.4-0.6-0.7-1.3-0.7-2.2c0-1.1,0.4-2,1.3-2.6c0.9-0.6,2.1-0.9,3.7-0.9c0.8,0,1.6,0.1,2.3,0.3
		c0.7,0.2,1.4,0.4,2.2,0.8l-1.1,2.7c-0.6-0.3-1.1-0.5-1.8-0.6c-0.6-0.2-1.1-0.3-1.5-0.3c-0.7,0-1,0.2-1,0.5c0,0.2,0.1,0.4,0.4,0.5
		c0.2,0.1,0.9,0.4,2.1,0.9c0.9,0.4,1.5,0.7,1.9,1c0.4,0.3,0.7,0.7,0.9,1.2C114.4,272.1,114.5,272.7,114.5,273.3z"/>
	<path class="st0" d="M115.6,275.3c0-0.7,0.2-1.2,0.6-1.5c0.4-0.4,1-0.5,1.7-0.5c0.7,0,1.3,0.2,1.6,0.5c0.4,0.4,0.6,0.9,0.6,1.5
		c0,0.6-0.2,1.1-0.6,1.5c-0.4,0.4-0.9,0.5-1.6,0.5c-0.7,0-1.3-0.2-1.7-0.5S115.6,275.9,115.6,275.3z"/>
</g>
<g>
	<path class="st0" d="M28,311.1h-9.3v-15.7H28v3.4H23v2.5h4.7v3.4H23v3H28V311.1z"/>
	<path class="st0" d="M39.3,307.3c0,1.3-0.4,2.3-1.3,3c-0.9,0.7-2.2,1-3.8,1c-0.9,0-1.7,0-2.4-0.1c-0.7-0.1-1.3-0.3-2-0.5v-3.4
		c0.7,0.3,1.4,0.5,2.1,0.7c0.8,0.2,1.5,0.3,2.1,0.3c0.9,0,1.4-0.2,1.4-0.6c0-0.2-0.1-0.4-0.4-0.6c-0.3-0.2-1-0.5-2.2-1
		c-1.1-0.5-1.9-1-2.3-1.6c-0.4-0.6-0.7-1.3-0.7-2.2c0-1.1,0.4-2,1.3-2.6c0.9-0.6,2.1-0.9,3.7-0.9c0.8,0,1.6,0.1,2.3,0.3
		c0.7,0.2,1.4,0.4,2.2,0.8l-1.1,2.7c-0.6-0.3-1.1-0.5-1.8-0.6c-0.6-0.2-1.1-0.3-1.5-0.3c-0.7,0-1,0.2-1,0.5c0,0.2,0.1,0.4,0.4,0.5
		c0.2,0.1,0.9,0.4,2.1,0.9c0.9,0.4,1.5,0.7,1.9,1s0.7,0.7,0.9,1.2C39.2,306.1,39.3,306.7,39.3,307.3z"/>
	<path class="st0" d="M46.9,308c0.6,0,1.2-0.1,2-0.4v3.1c-0.6,0.2-1.1,0.4-1.6,0.5c-0.5,0.1-1.1,0.2-1.8,0.2c-1.4,0-2.4-0.3-3.1-1
		c-0.6-0.7-0.9-1.8-0.9-3.2v-5h-1.5v-1.7L42,299l1.1-2.6h2.8v2.4h3v3.1h-3v4.7C45.8,307.6,46.2,308,46.9,308z"/>
	<path class="st0" d="M58.4,311.1l-0.8-1.6h-0.1c-0.6,0.7-1.1,1.2-1.7,1.4c-0.6,0.3-1.3,0.4-2.3,0.4c-1.1,0-2-0.3-2.7-1
		c-0.7-0.7-1-1.7-1-2.9c0-1.3,0.5-2.3,1.4-2.9c0.9-0.6,2.2-1,3.9-1.1l2-0.1v-0.2c0-1-0.5-1.5-1.5-1.5c-0.9,0-2,0.3-3.4,0.9l-1.2-2.8
		c1.4-0.7,3.2-1.1,5.4-1.1c1.6,0,2.8,0.4,3.6,1.2c0.9,0.8,1.3,1.9,1.3,3.2v8H58.4z M55.3,308.3c0.5,0,0.9-0.2,1.3-0.5
		c0.4-0.3,0.5-0.7,0.5-1.3v-0.9l-1,0c-1.4,0-2.1,0.6-2.1,1.5C54.1,307.9,54.5,308.3,55.3,308.3z"/>
	<path class="st0" d="M70.9,298.7c1.3,0,2.4,0.6,3.2,1.7c0.8,1.1,1.2,2.6,1.2,4.6c0,2-0.4,3.5-1.2,4.6c-0.8,1.1-1.9,1.7-3.3,1.7
		c-0.5,0-0.9,0-1.2-0.1c-0.4-0.1-0.7-0.2-0.9-0.4c-0.3-0.2-0.6-0.5-1-0.9h-0.3l-0.7,1.2h-3.3v-16.7h4.2v3.8c0,0.5-0.1,1.2-0.2,2.3
		h0.2c0.4-0.6,0.9-1.1,1.4-1.4C69.6,298.8,70.3,298.7,70.9,298.7z M69.4,302c-0.6,0-1,0.2-1.3,0.6c-0.3,0.4-0.4,1-0.4,1.9v0.6
		c0,1,0.1,1.7,0.4,2.1c0.3,0.4,0.7,0.6,1.3,0.6c0.5,0,0.9-0.3,1.1-0.8c0.3-0.5,0.4-1.2,0.4-2.2C71,303,70.5,302,69.4,302z"/>
	<path class="st0" d="M81.2,311.1H77v-16.7h4.2V311.1z"/>
	<path class="st0" d="M83.4,295.9c0-0.6,0.2-1.1,0.5-1.4c0.4-0.3,0.9-0.5,1.7-0.5s1.3,0.2,1.7,0.5c0.4,0.3,0.5,0.8,0.5,1.4
		c0,1.2-0.7,1.8-2.2,1.8C84.1,297.7,83.4,297.1,83.4,295.9z M87.7,311.1h-4.2v-12.2h4.2V311.1z"/>
	<path class="st0" d="M99.3,307.3c0,1.3-0.4,2.3-1.3,3s-2.2,1-3.8,1c-0.9,0-1.7,0-2.4-0.1c-0.7-0.1-1.3-0.3-2-0.5v-3.4
		c0.7,0.3,1.4,0.5,2.1,0.7c0.8,0.2,1.5,0.3,2.1,0.3c0.9,0,1.4-0.2,1.4-0.6c0-0.2-0.1-0.4-0.4-0.6c-0.3-0.2-1-0.5-2.2-1
		c-1.1-0.5-1.9-1-2.3-1.6c-0.4-0.6-0.7-1.3-0.7-2.2c0-1.1,0.4-2,1.3-2.6s2.1-0.9,3.7-0.9c0.8,0,1.6,0.1,2.3,0.3
		c0.7,0.2,1.4,0.4,2.2,0.8l-1.1,2.7c-0.6-0.3-1.1-0.5-1.8-0.6c-0.6-0.2-1.1-0.3-1.5-0.3c-0.7,0-1,0.2-1,0.5c0,0.2,0.1,0.4,0.4,0.5
		c0.2,0.1,0.9,0.4,2.1,0.9c0.9,0.4,1.5,0.7,1.9,1c0.4,0.3,0.7,0.7,0.9,1.2C99.2,306.1,99.3,306.7,99.3,307.3z"/>
	<path class="st0" d="M108.7,311.1v-6.6c0-1.6-0.5-2.4-1.5-2.4c-0.7,0-1.2,0.3-1.5,0.9c-0.3,0.6-0.5,1.5-0.5,2.9v5.3H101v-16.7h4.2
		v2.4c0,1.1-0.1,2.3-0.2,3.7h0.2c0.4-0.6,0.9-1.1,1.4-1.3s1.2-0.4,1.9-0.4c1.4,0,2.4,0.4,3.2,1.2c0.8,0.8,1.1,1.9,1.1,3.3v7.9H108.7
		z"/>
	<path class="st0" d="M121,311.3c-2,0-3.6-0.5-4.7-1.6c-1.1-1.1-1.7-2.6-1.7-4.6c0-2.1,0.5-3.6,1.6-4.7c1-1.1,2.5-1.6,4.4-1.6
		c1.8,0,3.2,0.5,4.2,1.4c1,1,1.5,2.3,1.5,4.1v1.9h-7.5c0,0.7,0.3,1.2,0.7,1.6c0.5,0.4,1.1,0.6,1.9,0.6c0.7,0,1.4-0.1,2-0.2
		c0.6-0.1,1.3-0.4,2-0.7v3c-0.7,0.3-1.3,0.6-2,0.7S122,311.3,121,311.3z M120.7,301.5c-0.5,0-0.9,0.2-1.2,0.5
		c-0.3,0.3-0.5,0.8-0.6,1.5h3.6c0-0.6-0.2-1.1-0.5-1.4C121.7,301.7,121.3,301.5,120.7,301.5z"/>
	<path class="st0" d="M131.8,311.3c-0.9,0-1.6-0.2-2.3-0.7c-0.6-0.5-1.1-1.2-1.5-2.2c-0.4-1-0.5-2.1-0.5-3.4c0-2,0.4-3.5,1.2-4.6
		s1.9-1.7,3.3-1.7c0.7,0,1.3,0.1,1.8,0.4c0.5,0.3,1,0.7,1.4,1.4h0.1c-0.1-1-0.2-1.9-0.2-2.9v-3.3h4.2v16.7h-3.2l-0.9-1.5h-0.2
		C134.3,310.7,133.3,311.3,131.8,311.3z M133.5,308c0.7,0,1.1-0.2,1.4-0.6c0.3-0.4,0.4-1.1,0.4-2V305c0-1.1-0.2-1.8-0.5-2.3
		c-0.3-0.5-0.8-0.7-1.5-0.7c-0.6,0-1,0.3-1.3,0.8c-0.3,0.5-0.5,1.3-0.5,2.2c0,0.9,0.2,1.7,0.5,2.2S133,308,133.5,308z"/>
</g>
<g>
	<path class="st0" d="M27.1,335.1h-4.3v-8.3c0-1,0-1.9,0.1-2.8c-0.3,0.3-0.6,0.7-1,1l-1.8,1.5l-2.2-2.7l5.4-4.4h3.8V335.1z"/>
	<path class="st0" d="M41.4,326.6c0,3.1-0.7,5.3-2,6.7c-1.3,1.4-3.4,2.1-6.4,2.1c-1,0-1.7,0-2.2-0.1v-3.4c0.6,0.1,1.2,0.2,1.8,0.2
		c1.5,0,2.7-0.3,3.5-0.9c0.8-0.6,1.3-1.6,1.3-3h-0.1c-0.3,0.5-0.6,0.9-0.8,1.1c-0.3,0.2-0.6,0.4-1,0.5c-0.4,0.1-0.9,0.2-1.5,0.2
		c-1.4,0-2.4-0.5-3.2-1.4c-0.8-0.9-1.1-2.2-1.1-3.8c0-1.7,0.5-3.1,1.5-4.1c1-1,2.4-1.5,4.1-1.5c1.9,0,3.4,0.6,4.5,1.9
		S41.4,324.2,41.4,326.6z M35.5,322.6c-0.5,0-0.8,0.2-1.1,0.5S34,324,34,324.7c0,0.6,0.1,1.1,0.4,1.4c0.3,0.3,0.6,0.5,1.1,0.5
		c0.5,0,0.9-0.2,1.2-0.5s0.5-0.7,0.5-1.2c0-0.6-0.2-1.2-0.5-1.6C36.4,322.8,36,322.6,35.5,322.6z"/>
	<path class="st0" d="M42.3,328.4c0-2.2,0.3-4,0.9-5.3c0.6-1.4,1.6-2.4,2.8-3c1.2-0.6,2.7-1,4.5-1c0.6,0,1.4,0.1,2.2,0.2v3.3
		c-0.7-0.1-1.5-0.2-2.3-0.2c-1.4,0-2.5,0.3-3.2,0.9c-0.7,0.6-1.1,1.6-1.1,3.1h0.1c0.6-1.2,1.7-1.8,3.1-1.8c1.4,0,2.5,0.4,3.2,1.3
		c0.8,0.9,1.2,2.1,1.2,3.8c0,1.7-0.5,3.1-1.5,4.1c-1,1-2.3,1.5-4.1,1.5c-1.9,0-3.3-0.6-4.4-1.8C42.8,332.3,42.3,330.6,42.3,328.4z
		 M48.1,331.9c0.5,0,0.8-0.2,1.1-0.5c0.3-0.3,0.4-0.9,0.4-1.6c0-1.3-0.5-1.9-1.5-1.9c-0.5,0-0.9,0.2-1.2,0.5
		c-0.3,0.3-0.5,0.7-0.5,1.2c0,0.7,0.1,1.3,0.4,1.7C47.2,331.7,47.6,331.9,48.1,331.9z"/>
	<path class="st0" d="M60.3,319.1c1.7,0,2.9,0.3,3.9,1c0.9,0.7,1.4,1.6,1.4,2.8c0,0.8-0.2,1.6-0.6,2.2c-0.4,0.6-1.1,1.2-2.1,1.6
		c1.2,0.7,2,1.3,2.5,2c0.5,0.7,0.7,1.4,0.7,2.1c0,1.4-0.5,2.5-1.5,3.2s-2.4,1.1-4.2,1.1c-1.8,0-3.3-0.4-4.2-1.1
		c-1-0.7-1.5-1.8-1.5-3.2c0-0.9,0.2-1.7,0.7-2.3c0.4-0.6,1.2-1.2,2.2-1.7c-0.8-0.6-1.4-1.2-1.8-1.8c-0.4-0.6-0.6-1.3-0.6-2.1
		c0-1.2,0.5-2.1,1.4-2.8C57.3,319.5,58.6,319.1,60.3,319.1z M58.4,330.8c0,0.4,0.2,0.8,0.5,1.1c0.3,0.3,0.8,0.4,1.3,0.4
		c1.3,0,1.9-0.5,1.9-1.4c0-0.4-0.1-0.7-0.4-1c-0.3-0.3-0.8-0.7-1.5-1.1c-0.6,0.3-1.1,0.7-1.4,1C58.5,330,58.4,330.4,58.4,330.8z
		 M60.2,322.2c-0.4,0-0.7,0.1-0.9,0.3c-0.3,0.2-0.4,0.5-0.4,0.8c0,0.6,0.4,1.2,1.3,1.6c0.5-0.3,0.9-0.6,1-0.8
		c0.2-0.2,0.3-0.5,0.3-0.8c0-0.3-0.1-0.6-0.4-0.8C60.9,322.3,60.6,322.2,60.2,322.2z"/>
	<path class="st0" d="M67,333.3c0-0.7,0.2-1.2,0.6-1.5c0.4-0.4,1-0.5,1.7-0.5c0.7,0,1.3,0.2,1.6,0.5c0.4,0.4,0.6,0.9,0.6,1.5
		c0,0.6-0.2,1.1-0.6,1.5c-0.4,0.4-0.9,0.5-1.6,0.5c-0.7,0-1.3-0.2-1.7-0.5S67,333.9,67,333.3z"/>
</g>
</svg>
