<?xml version="1.0" encoding="utf-8"?>
<!-- Generator: Adobe Illustrator 22.1.0, SVG Export Plug-In . SVG Version: 6.00 Build 0)  -->
<svg version="1.1" id="Layer_1" xmlns="http://www.w3.org/2000/svg" xmlns:xlink="http://www.w3.org/1999/xlink" x="0px" y="0px"
	 viewBox="0 0 160 600" style="enable-background:new 0 0 160 600;" xml:space="preserve">
<style type="text/css">
	.st0{fill:#FFFFFF;}
	.st1{fill:none;}
</style>
<polygon class="st0" points="88.7,365.6 114.2,365.6 120.7,384.9 117.7,384.9 112.2,368.5 87.9,368.4 "/>
<polygon class="st0" points="86.9,371.3 110.2,371.3 114.8,384.9 111.8,384.9 108.2,374.1 86,374.1 "/>
<polygon class="st0" points="85.3,377.2 77.5,400.8 79.9,402.5 86.9,379.8 104.3,379.8 105.2,377.2 "/>
<polygon class="st0" points="89,382.6 103.4,382.6 102.5,385.3 91.1,385.3 84.6,406.1 82.3,404.1 "/>
<polygon class="st0" points="87.4,408.1 108,422.3 110,420.6 90.5,406.9 95.6,390.5 93.1,388.7 "/>
<polygon class="st0" points="97.9,392.1 100.4,393.7 96.9,404.4 114.4,416.9 112.4,418.9 93.7,405.5 "/>
<polygon class="st0" points="117.1,412.2 102.8,402.5 100.7,403.9 117,415.6 137.6,400.6 136.5,397.9 "/>
<polygon class="st0" points="105.7,400.2 107.6,398.7 117.1,405.5 134.6,392.6 135.8,395.1 117.1,408.8 "/>
<polygon class="st0" points="116.7,398.9 117.7,401.5 133.9,389.8 125.7,365.6 122.9,365.6 130.8,388.7 "/>
<polygon class="st0" points="117.1,365.6 119.6,365.6 127.4,387.7 115.8,396.2 114.8,394 124.4,386.5 "/>
<polygon class="st0" points="85.9,332.5 84,335.6 82.1,332.5 79.8,332.5 79.8,340.5 81.9,340.5 81.9,336 83.9,339.1 84,339.1 
	86,335.9 86,340.5 88.2,340.5 88.2,332.5 "/>
<rect x="89.7" y="332.5" class="st0" width="2.2" height="8"/>
<polygon class="st0" points="93.4,332.5 93.4,340.5 99.5,340.5 99.5,338.6 95.6,338.6 95.6,332.5 "/>
<rect x="100.4" y="332.5" class="st0" width="2.2" height="8"/>
<polygon class="st0" points="103.7,332.5 103.7,334.5 106.1,334.5 106.1,340.5 108.3,340.5 108.3,334.5 110.7,334.5 110.7,332.5 "/>
<path class="st0" d="M114.4,335.1l0.9,2.3h-1.8L114.4,335.1z M113.4,332.5l-3.4,8h2.3l0.6-1.4h3.1l0.6,1.4h2.4l-3.4-8H113.4z"/>
<path class="st0" d="M119.7,332.5h3.8c1.2,0,2.1,0.3,2.6,0.9c0.5,0.5,0.7,1.1,0.7,1.9v0c0,1.2-0.6,2-1.6,2.5l1.9,2.8h-2.6l-1.6-2.4
	h0h-0.9v2.4h-2.2V332.5z M123.4,336.4c0.8,0,1.2-0.4,1.2-0.9v0c0-0.6-0.5-0.9-1.2-0.9h-1.4v1.9H123.4z"/>
<polygon class="st0" points="129.9,337.5 126.9,332.5 129.4,332.5 131,335.4 132.7,332.5 135.2,332.5 132.1,337.5 132.1,340.5 
	129.9,340.5 "/>
<path class="st0" d="M79.8,343.4h4.5c1.1,0,1.9,0.3,2.4,0.8c0.4,0.4,0.6,0.8,0.6,1.4v0c0,1-0.6,1.6-1.4,2c1.1,0.4,1.8,1,1.8,2.2v0
	c0,1.5-1.2,2.4-3.3,2.4h-4.6V343.4z M83.8,346.9c0.7,0,1.2-0.3,1.2-0.8v0c0-0.5-0.4-0.8-1.1-0.8h-1.6v1.6H83.8z M84.1,350.2
	c0.7,0,1.2-0.3,1.2-0.8v0c0-0.5-0.4-0.8-1.2-0.8h-1.9v1.6H84.1z"/>
<polygon class="st0" points="88.9,343.4 96,343.4 96,345.4 91.3,345.4 91.3,346.8 95.5,346.8 95.5,348.7 91.3,348.7 91.3,350.1 
	96,350.1 96,352.2 88.9,352.2 "/>
<polygon class="st0" points="97.3,343.4 99.6,343.4 103.2,348 103.2,343.4 105.6,343.4 105.6,352.2 103.5,352.2 99.7,347.3 
	99.7,352.2 97.3,352.2 "/>
<polygon class="st0" points="107.2,343.4 114.3,343.4 114.3,345.4 109.6,345.4 109.6,346.8 113.8,346.8 113.8,348.7 109.6,348.7 
	109.6,350.1 114.4,350.1 114.4,352.2 107.2,352.2 "/>
<polygon class="st0" points="115.6,343.4 122.7,343.4 122.7,345.5 118.1,345.5 118.1,347 122.2,347 122.2,349 118.1,349 
	118.1,352.2 115.6,352.2 "/>
<rect x="123.8" y="343.4" class="st0" width="2.5" height="8.8"/>
<polygon class="st0" points="130.1,345.5 127.4,345.5 127.4,343.4 135.2,343.4 135.2,345.5 132.5,345.5 132.5,352.2 130.1,352.2 "/>
<path class="st0" d="M81.4,355h1.4l2.3,5.5h-1.6l-0.4-1h-2.1l-0.4,1h-1.6L81.4,355z M82.7,358.3l-0.6-1.5l-0.6,1.5H82.7z"/>
<path class="st0" d="M85.2,359.7l0.8-1c0.5,0.4,1.1,0.7,1.8,0.7c0.4,0,0.6-0.1,0.6-0.4v0c0-0.2-0.2-0.3-0.9-0.5
	c-1.2-0.3-2-0.6-2-1.7v0c0-1,0.8-1.7,2.1-1.7c0.9,0,1.6,0.2,2.2,0.7l-0.8,1.1c-0.5-0.3-1-0.5-1.5-0.5c-0.4,0-0.5,0.2-0.5,0.3v0
	c0,0.2,0.2,0.4,0.9,0.5c1.2,0.3,2,0.7,2,1.7v0c0,1.1-0.9,1.8-2.2,1.8C86.8,360.6,85.9,360.3,85.2,359.7"/>
<path class="st0" d="M90.2,359.7l0.8-1c0.5,0.4,1.1,0.7,1.8,0.7c0.4,0,0.6-0.1,0.6-0.4v0c0-0.2-0.2-0.3-0.9-0.5
	c-1.2-0.3-2-0.6-2-1.7v0c0-1,0.8-1.7,2.1-1.7c0.9,0,1.6,0.2,2.2,0.7l-0.8,1.1c-0.5-0.3-1-0.5-1.5-0.5c-0.4,0-0.5,0.2-0.5,0.3v0
	c0,0.2,0.2,0.4,0.9,0.5c1.2,0.3,2,0.7,2,1.7v0c0,1.1-0.9,1.8-2.2,1.8C91.7,360.6,90.8,360.3,90.2,359.7"/>
<path class="st0" d="M95.4,357.8L95.4,357.8c0-1.6,1.3-2.8,2.9-2.8c1.7,0,2.9,1.2,2.9,2.8v0c0,1.6-1.3,2.8-2.9,2.8
	C96.7,360.6,95.4,359.3,95.4,357.8 M99.7,357.8L99.7,357.8c0-0.8-0.6-1.5-1.4-1.5c-0.8,0-1.4,0.7-1.4,1.4v0c0,0.8,0.6,1.5,1.4,1.5
	C99.2,359.2,99.7,358.6,99.7,357.8"/>
<path class="st0" d="M101.9,357.8L101.9,357.8c0-1.6,1.2-2.8,2.9-2.8c1.1,0,1.8,0.5,2.3,1.1l-1.1,0.9c-0.3-0.4-0.7-0.6-1.2-0.6
	c-0.8,0-1.3,0.6-1.3,1.4v0c0,0.8,0.5,1.4,1.3,1.4c0.6,0,0.9-0.3,1.2-0.7l1.1,0.8c-0.5,0.7-1.2,1.2-2.4,1.2
	C103.1,360.6,101.9,359.4,101.9,357.8"/>
<rect x="107.7" y="355.1" class="st0" width="1.5" height="5.4"/>
<path class="st0" d="M112.1,355h1.4l2.3,5.5h-1.6l-0.4-1h-2.1l-0.4,1h-1.6L112.1,355z M113.4,358.3l-0.6-1.5l-0.6,1.5H113.4z"/>
<polygon class="st0" points="117,356.4 115.4,356.4 115.4,355.1 120.1,355.1 120.1,356.4 118.5,356.4 118.5,360.5 117,360.5 "/>
<rect x="120.8" y="355.1" class="st0" width="1.5" height="5.4"/>
<path class="st0" d="M123.1,357.8L123.1,357.8c0-1.6,1.3-2.8,2.9-2.8c1.7,0,2.9,1.2,2.9,2.8v0c0,1.6-1.3,2.8-2.9,2.8
	C124.4,360.6,123.1,359.3,123.1,357.8 M127.4,357.8L127.4,357.8c0-0.8-0.6-1.5-1.4-1.5c-0.8,0-1.4,0.7-1.4,1.4v0
	c0,0.8,0.6,1.5,1.4,1.5C126.9,359.2,127.4,358.6,127.4,357.8"/>
<polygon class="st0" points="129.7,355.1 131.1,355.1 133.4,357.9 133.4,355.1 134.9,355.1 134.9,360.5 133.5,360.5 131.2,357.5 
	131.2,360.5 129.7,360.5 "/>
<rect x="77.5" y="332.5" class="st1" width="60.1" height="89.9"/>
</svg>
