<svg id="Layer_1" xmlns="http://www.w3.org/2000/svg" viewBox="0 0 300 250"><style>.st0{fill:#fff}</style><path class="st0" d="M25.4 105.7l3-6.4h5l-5.6 10.4v6.7h-4.7v-6.6l-5.6-10.6h5l2.9 6.5zM47.2 109.8c0 2.2-.6 3.9-1.8 5.1s-2.8 1.8-4.9 1.8c-2 0-3.6-.6-4.8-1.9s-1.8-2.9-1.8-5c0-2.2.6-3.8 1.8-5s2.8-1.8 4.9-1.8c1.3 0 2.5.3 3.5.8s1.8 1.3 2.3 2.4.8 2.2.8 3.6zm-8.6 0c0 1.1.2 2 .5 2.6s.8.9 1.5.9 1.2-.3 1.5-.9.4-1.5.4-2.6-.1-2-.4-2.6-.8-.9-1.5-.9-1.2.3-1.5.9-.5 1.5-.5 2.6zM58.8 116.5l-.6-1.7h-.3c-.4.6-.9 1.1-1.6 1.4s-1.5.5-2.4.5c-1.5 0-2.6-.4-3.4-1.3s-1.2-2-1.2-3.6v-8.6h4.6v7.3c0 .9.1 1.5.4 2s.7.7 1.2.7c.8 0 1.4-.3 1.7-.9s.5-1.7.5-3.1v-5.8h4.6v13.3h-3.5zM79.1 116.5v-7.2c0-1.8-.5-2.7-1.6-2.7-.8 0-1.3.3-1.7.9s-.5 1.7-.5 3.1v5.8h-4.6V98.3h4.6v2.6c0 1.2-.1 2.5-.2 4h.2c.4-.7 1-1.2 1.6-1.5s1.3-.4 2.1-.4c1.5 0 2.6.4 3.5 1.3s1.2 2.1 1.2 3.6v8.6h-4.6zM92.8 116.7c-2.2 0-3.9-.6-5.2-1.8s-1.8-2.8-1.8-5 .6-4 1.7-5.2 2.8-1.8 4.9-1.8c2 0 3.5.5 4.6 1.6s1.6 2.5 1.6 4.5v2h-8.2c0 .7.3 1.3.8 1.7s1.2.6 2.1.6c.8 0 1.5-.1 2.2-.2s1.4-.4 2.2-.8v3.3c-.7.4-1.5.6-2.2.8s-1.7.3-2.7.3zm-.3-10.6c-.5 0-1 .2-1.4.5s-.6.9-.6 1.6h3.9c0-.6-.2-1.2-.5-1.5s-.8-.6-1.4-.6zM105.3 116.5h-4.6V98.3h4.6v18.2zM116 116.7c-.7 0-1.3-.1-1.8-.3s-1.1-.6-1.6-1.2h-.2c.1.9.2 1.5.2 1.7v5.3H108v-19h3.7l.6 1.7h.2c.9-1.3 2-1.9 3.5-1.9s2.6.6 3.5 1.8 1.3 2.9 1.3 5-.4 3.8-1.3 5.1-2.1 1.8-3.5 1.8zm-1.6-10.1c-.7 0-1.1.2-1.4.7s-.4 1.2-.4 2.1v.4c0 1.1.2 2 .5 2.5s.8.8 1.4.8c.6 0 1-.3 1.3-.8s.4-1.3.4-2.5c0-1.1-.1-2-.4-2.5s-.8-.7-1.4-.7zM136.7 116.7c-.7 0-1.3-.1-1.8-.3s-1.1-.6-1.6-1.2h-.2c.1.9.2 1.5.2 1.7v5.3h-4.6v-19h3.7l.6 1.7h.2c.9-1.3 2-1.9 3.5-1.9s2.6.6 3.5 1.8 1.3 2.9 1.3 5-.4 3.8-1.3 5.1-2 1.8-3.5 1.8zm-1.6-10.1c-.7 0-1.1.2-1.4.7s-.4 1.2-.4 2.1v.4c0 1.1.2 2 .5 2.5s.8.8 1.4.8c.6 0 1-.3 1.3-.8s.4-1.3.4-2.5c0-1.1-.1-2-.4-2.5s-.7-.7-1.4-.7zM151.7 103c.4 0 .8 0 1.1.1h.3l-.4 4.3c-.4-.1-.9-.1-1.6-.1-1 0-1.7.2-2.2.7s-.7 1.1-.7 2v6.5h-4.6v-13.3h3.4l.7 2.1h.2c.4-.7.9-1.3 1.6-1.7s1.5-.6 2.2-.6zM167.1 109.8c0 2.2-.6 3.9-1.8 5.1s-2.8 1.8-4.9 1.8c-2 0-3.6-.6-4.8-1.9s-1.8-2.9-1.8-5c0-2.2.6-3.8 1.8-5s2.8-1.8 4.9-1.8c1.3 0 2.5.3 3.5.8s1.8 1.3 2.3 2.4.8 2.2.8 3.6zm-8.6 0c0 1.1.2 2 .5 2.6s.8.9 1.5.9 1.2-.3 1.5-.9.4-1.5.4-2.6-.1-2-.4-2.6-.8-.9-1.5-.9-1.2.3-1.5.9-.5 1.5-.5 2.6zM175.8 113.1c.6 0 1.4-.2 2.2-.5v3.3c-.6.3-1.2.5-1.8.6s-1.2.2-2 .2c-1.5 0-2.6-.4-3.3-1.1s-1-1.9-1-3.5v-5.5h-1.6v-1.9l2-1.4 1.2-2.8h3v2.7h3.3v3.4h-3.3v5.2c0 .9.4 1.3 1.3 1.3zM186.3 116.7c-2.2 0-3.9-.6-5.2-1.8s-1.8-2.8-1.8-5 .6-4 1.7-5.2 2.8-1.8 4.9-1.8c2 0 3.5.5 4.6 1.6s1.6 2.5 1.6 4.5v2h-8.2c0 .7.3 1.3.8 1.7s1.2.6 2.1.6c.8 0 1.5-.1 2.2-.2s1.4-.4 2.2-.8v3.3c-.7.4-1.5.6-2.2.8s-1.7.3-2.7.3zm-.3-10.6c-.5 0-1 .2-1.4.5s-.6.9-.6 1.6h3.9c0-.6-.2-1.2-.5-1.5s-.8-.6-1.4-.6zM200.2 116.7c-2.2 0-3.8-.6-4.9-1.8s-1.7-2.9-1.7-5.1c0-2.2.6-3.9 1.8-5.1s2.9-1.8 5.2-1.8c1.5 0 3 .3 4.3 1l-1.3 3.4c-.6-.2-1.1-.4-1.5-.6s-1-.2-1.5-.2c-.7 0-1.3.3-1.7.9s-.6 1.4-.6 2.4c0 2.1.8 3.2 2.4 3.2 1.3 0 2.6-.4 3.9-1.2v3.6c-1.3.9-2.7 1.3-4.4 1.3zM213.2 113.1c.6 0 1.4-.2 2.2-.5v3.3c-.6.3-1.2.5-1.8.6s-1.2.2-2 .2c-1.5 0-2.6-.4-3.3-1.1s-1-1.9-1-3.5v-5.5h-1.6v-1.9l2-1.4 1.2-2.8h3v2.7h3.3v3.4h-3.3v5.2c0 .9.4 1.3 1.3 1.3z"/><g><path class="st0" d="M25.6 139.1c.6 0 1.4-.2 2.2-.5v3.3c-.6.3-1.2.5-1.8.6s-1.2.2-2 .2c-1.5 0-2.6-.4-3.3-1.1s-1-1.9-1-3.5v-5.5h-1.6v-1.9l2-1.4 1.2-2.8h3v2.7h3.3v3.4h-3.3v5.2c0 .9.4 1.3 1.3 1.3zM38 142.5v-7.2c0-1.8-.5-2.7-1.6-2.7-.8 0-1.3.3-1.7.9s-.5 1.7-.5 3.1v5.8h-4.6v-18.2h4.6v2.6c0 1.2-.1 2.5-.2 4h.2c.4-.7 1-1.2 1.6-1.5s1.3-.4 2.1-.4c1.5 0 2.6.4 3.5 1.3s1.2 2.1 1.2 3.6v8.6H38zM51.7 142.7c-2.2 0-3.9-.6-5.2-1.8s-1.8-2.8-1.8-5 .6-4 1.7-5.2 2.8-1.8 4.9-1.8c2 0 3.5.5 4.6 1.6s1.6 2.5 1.6 4.5v2h-8.2c0 .7.3 1.3.8 1.7s1.2.6 2.1.6c.8 0 1.5-.1 2.2-.2s1.4-.4 2.2-.8v3.3c-.7.4-1.5.6-2.2.8s-1.7.3-2.7.3zm-.3-10.6c-.5 0-1 .2-1.4.5s-.6.9-.6 1.6h3.9c0-.6-.2-1.2-.5-1.5s-.8-.6-1.4-.6zM71.4 142.7c-2.2 0-3.8-.6-4.9-1.8s-1.7-2.9-1.7-5.1c0-2.2.6-3.9 1.8-5.1s2.9-1.8 5.2-1.8c1.5 0 3 .3 4.3 1l-1.3 3.4c-.6-.2-1.1-.4-1.5-.6s-1-.2-1.5-.2c-.7 0-1.3.3-1.7.9s-.6 1.4-.6 2.4c0 2.1.8 3.2 2.4 3.2 1.3 0 2.6-.4 3.9-1.2v3.6c-1.3.9-2.7 1.3-4.4 1.3zM90.5 135.8c0 2.2-.6 3.9-1.8 5.1s-2.8 1.8-4.9 1.8c-2 0-3.6-.6-4.8-1.9s-1.8-2.9-1.8-5c0-2.2.6-3.8 1.8-5s2.8-1.8 4.9-1.8c1.3 0 2.5.3 3.5.8s1.8 1.3 2.3 2.4.8 2.2.8 3.6zm-8.6 0c0 1.1.2 2 .5 2.6s.8.9 1.5.9 1.2-.3 1.5-.9.4-1.5.4-2.6-.1-2-.4-2.6-.8-.9-1.5-.9-1.2.3-1.5.9-.5 1.5-.5 2.6zM102.1 142.5l-.6-1.7h-.3c-.4.6-.9 1.1-1.6 1.4s-1.5.5-2.4.5c-1.5 0-2.6-.4-3.4-1.3s-1.2-2-1.2-3.6v-8.6h4.6v7.3c0 .9.1 1.5.4 2s.7.7 1.2.7c.8 0 1.4-.3 1.7-.9s.5-1.7.5-3.1v-5.8h4.6v13.3h-3.5zM116.7 142.5v-7.2c0-.9-.1-1.5-.4-2s-.7-.7-1.2-.7c-.8 0-1.3.3-1.7.9s-.5 1.7-.5 3.2v5.8h-4.6v-13.3h3.5l.6 1.6h.3c.4-.6.9-1.1 1.6-1.4s1.5-.5 2.4-.5c1.5 0 2.6.4 3.4 1.3s1.2 2.1 1.2 3.6v8.6h-4.6zM130.4 139.1c.6 0 1.4-.2 2.2-.5v3.3c-.6.3-1.2.5-1.8.6s-1.2.2-2 .2c-1.5 0-2.6-.4-3.3-1.1s-1-1.9-1-3.5v-5.5h-1.6v-1.9l2-1.4 1.2-2.8h3v2.7h3.3v3.4h-3.3v5.2c.1.9.5 1.3 1.3 1.3zM142.5 129c.4 0 .8 0 1.1.1h.3l-.4 4.3c-.4-.1-.9-.1-1.6-.1-1 0-1.7.2-2.2.7s-.7 1.1-.7 2v6.5h-4.6v-13.3h3.4l.7 2.1h.2c.4-.7.9-1.3 1.6-1.7s1.5-.6 2.2-.6z"/><path class="st0" d="M143.7 129.2h4.8l2.2 7.6c.1.4.2.9.2 1.4h.1c.1-.5.2-1 .3-1.4l2.3-7.6h4.7l-5.2 14.1c-.7 1.8-1.5 3.1-2.5 3.8s-2.3 1.1-3.8 1.1c-.6 0-1.2-.1-1.9-.2v-3.6c.4.1.9.1 1.4.1.4 0 .8-.1 1.1-.2s.6-.4.8-.7.5-.8.7-1.4l-5.2-13zM158.9 140.5c0-.7.2-1.3.6-1.7s1-.6 1.9-.6c.8 0 1.4.2 1.8.6s.6.9.6 1.7c0 .7-.2 1.3-.6 1.6s-1 .6-1.8.6-1.4-.2-1.8-.6-.7-.9-.7-1.6z"/></g></svg>