<svg id="Layer_1" xmlns="http://www.w3.org/2000/svg" viewBox="0 0 160 600"><style>.st0{fill:#fff}</style><path class="st0" d="M30.2 173.8h-4.3v-6.4H21v6.4h-4.3v-15.7H21v5.8h4.9v-5.8h4.3v15.7zM44.3 167.7c0 2-.5 3.5-1.6 4.7-1.1 1.1-2.6 1.7-4.5 1.7-1.8 0-3.3-.6-4.4-1.7-1.1-1.1-1.6-2.7-1.6-4.6 0-2 .5-3.5 1.6-4.6 1.1-1.1 2.6-1.6 4.5-1.6 1.2 0 2.3.3 3.2.8.9.5 1.6 1.2 2.1 2.2.4.7.7 1.9.7 3.1zm-7.9 0c0 1 .1 1.8.4 2.4s.7.8 1.4.8 1.1-.3 1.4-.8.4-1.3.4-2.4c0-1-.1-1.8-.4-2.4-.3-.5-.7-.8-1.4-.8-.6 0-1.1.3-1.4.8s-.4 1.4-.4 2.4zM53.7 173.8v-6.6c0-.8-.1-1.4-.3-1.8-.2-.4-.6-.6-1.1-.6-.7 0-1.2.3-1.5.8-.3.6-.5 1.5-.5 2.9v5.3H46v-12.2h3.2l.5 1.5h.3c.4-.6.9-1 1.5-1.3.6-.3 1.4-.4 2.2-.4 1.3 0 2.4.4 3.1 1.2.7.8 1.1 1.9 1.1 3.3v7.9h-4.2zM71.7 167.7c0 2-.5 3.5-1.6 4.7-1.1 1.1-2.6 1.7-4.5 1.7-1.8 0-3.3-.6-4.4-1.7-1.1-1.1-1.6-2.7-1.6-4.6 0-2 .5-3.5 1.6-4.6 1.1-1.1 2.6-1.6 4.5-1.6 1.2 0 2.3.3 3.2.8.9.5 1.6 1.2 2.1 2.2.5.7.7 1.9.7 3.1zm-7.8 0c0 1 .1 1.8.4 2.4s.7.8 1.4.8 1.1-.3 1.4-.8.4-1.3.4-2.4c0-1-.1-1.8-.4-2.4-.3-.5-.7-.8-1.4-.8-.6 0-1.1.3-1.4.8s-.4 1.4-.4 2.4zM80.8 161.4c.4 0 .7 0 1 .1h.2l-.4 4c-.3-.1-.8-.1-1.4-.1-.9 0-1.6.2-2 .6-.4.4-.6 1-.6 1.8v6h-4.2v-12.2h3.1l.7 1.9h.2c.4-.6.8-1.2 1.5-1.6.7-.3 1.3-.5 1.9-.5zM83.1 158.6c0-.6.2-1.1.5-1.4.4-.3.9-.5 1.7-.5s1.3.2 1.7.5c.4.3.5.8.5 1.4 0 1.2-.7 1.8-2.2 1.8-1.5.1-2.2-.5-2.2-1.8zm4.3 15.2h-4.2v-12.2h4.2v12.2zM97.3 173.8v-6.6c0-.8-.1-1.4-.3-1.8-.2-.4-.6-.6-1.1-.6-.7 0-1.2.3-1.5.8-.3.6-.5 1.5-.5 2.9v5.3h-4.2v-12.2h3.2l.5 1.5h.2c.4-.6.9-1 1.5-1.3.6-.3 1.4-.4 2.2-.4 1.3 0 2.4.4 3.1 1.2.7.8 1.1 1.9 1.1 3.3v7.9h-4.2zM115.2 161.7v2l-1.7.6c.2.4.3.9.3 1.5 0 1.3-.5 2.3-1.4 3.1-.9.7-2.3 1.1-4.1 1.1-.5 0-.8 0-1.1-.1-.1.2-.2.4-.2.5 0 .2.2.4.5.5.3.1.8.2 1.3.2h2c2.7 0 4.1 1.1 4.1 3.4 0 1.5-.6 2.6-1.9 3.5-1.3.8-3 1.2-5.3 1.2-1.7 0-3.1-.3-4-.9-.9-.6-1.4-1.4-1.4-2.5 0-1.5.9-2.4 2.7-2.8-.4-.2-.7-.4-1-.8-.3-.4-.4-.7-.4-1 0-.4.1-.7.3-1s.6-.6 1.3-1c-.6-.3-1.1-.7-1.5-1.3-.4-.6-.5-1.3-.5-2.2 0-1.3.5-2.4 1.4-3.1s2.2-1.1 3.9-1.1c.2 0 .6 0 1.1.1.5.1.9.1 1.2.1h4.4zm-9.2 13.6c0 .3.2.6.6.8.4.2.9.3 1.5.3 1 0 1.8-.1 2.4-.4.6-.3.9-.6.9-1 0-.3-.2-.5-.6-.7-.4-.1-.9-.2-1.6-.2h-1.6c-.5 0-.8.1-1.1.3-.3.4-.5.6-.5.9zm1.4-9.7c0 1.2.4 1.9 1.3 1.9.4 0 .7-.2.9-.5.2-.3.3-.8.3-1.4 0-1.3-.4-1.9-1.3-1.9-.8.1-1.2.7-1.2 1.9z"/><g><path class="st0" d="M22.4 194.7c.6 0 1.2-.1 2-.4v3.1c-.6.2-1.1.4-1.6.5-.5.1-1.1.2-1.8.2-1.4 0-2.4-.3-3.1-1-.6-.7-.9-1.8-.9-3.2v-5h-1.5v-1.7l1.9-1.3 1.1-2.6h2.8v2.4h3v3.1h-3v4.7c0 .8.4 1.2 1.1 1.2zM33.6 197.8v-6.6c0-1.6-.5-2.4-1.5-2.4-.7 0-1.2.3-1.5.9-.3.6-.5 1.5-.5 2.9v5.3h-4.2v-16.7h4.2v2.4c0 1.1-.1 2.3-.2 3.7h.2c.4-.6.9-1.1 1.4-1.3.6-.3 1.2-.4 1.9-.4 1.4 0 2.4.4 3.2 1.2.8.8 1.1 1.9 1.1 3.3v7.9h-4.1zM45.9 198c-2 0-3.6-.5-4.7-1.6s-1.7-2.6-1.7-4.6c0-2.1.5-3.6 1.6-4.7 1-1.1 2.5-1.6 4.4-1.6 1.8 0 3.2.5 4.2 1.4s1.5 2.3 1.5 4.1v1.9h-7.5c0 .7.3 1.2.7 1.6.5.4 1.1.6 1.9.6.7 0 1.4-.1 2-.2.6-.1 1.3-.4 2-.7v3c-.7.3-1.3.6-2 .7-.6.1-1.4.1-2.4.1zm-.2-9.7c-.5 0-.9.2-1.2.5s-.5.8-.6 1.5h3.6c0-.6-.2-1.1-.5-1.4-.4-.4-.8-.6-1.3-.6zM65.5 185.4c1.3 0 2.4.6 3.2 1.7.8 1.1 1.2 2.6 1.2 4.6 0 2-.4 3.5-1.2 4.6-.8 1.1-1.9 1.7-3.3 1.7-.5 0-.9 0-1.2-.1-.4-.1-.7-.2-.9-.4-.3-.2-.6-.5-1-.9H62l-.7 1.2H58v-16.7h4.2v3.8c0 .5-.1 1.2-.2 2.3h.2c.4-.6.9-1.1 1.4-1.4.6-.2 1.2-.4 1.9-.4zm-1.5 3.3c-.6 0-1 .2-1.3.6-.3.4-.4 1-.4 1.9v.6c0 1 .1 1.7.4 2.1.3.4.7.6 1.3.6.5 0 .9-.3 1.1-.8.3-.5.4-1.2.4-2.2 0-1.8-.5-2.8-1.5-2.8zM71.5 182.6c0-.6.2-1.1.5-1.4.4-.3.9-.5 1.7-.5.8 0 1.3.2 1.7.5.4.3.5.8.5 1.4 0 1.2-.7 1.8-2.2 1.8-1.5.1-2.2-.5-2.2-1.8zm4.3 15.2h-4.2v-12.2h4.2v12.2zM85.4 185.4c.4 0 .7 0 1 .1h.2l-.4 4c-.3-.1-.8-.1-1.4-.1-.9 0-1.6.2-2 .6-.4.4-.6 1-.6 1.8v6H78v-12.2h3.1l.7 1.9h.2c.4-.6.8-1.2 1.5-1.6s1.3-.5 1.9-.5zM93.7 194.7c.6 0 1.2-.1 2-.4v3.1c-.6.2-1.1.4-1.6.5-.5.1-1.1.2-1.8.2-1.4 0-2.4-.3-3.1-1-.6-.7-.9-1.8-.9-3.2v-5h-1.5v-1.7l1.9-1.3 1.1-2.6h2.8v2.4h3v3.1h-3v4.7c-.1.8.3 1.2 1.1 1.2zM104.8 197.8v-6.6c0-1.6-.5-2.4-1.5-2.4-.7 0-1.2.3-1.5.9-.3.6-.5 1.5-.5 2.9v5.3h-4.2v-16.7h4.2v2.4c0 1.1-.1 2.3-.2 3.7h.2c.4-.6.9-1.1 1.4-1.3s1.2-.4 1.9-.4c1.4 0 2.4.4 3.2 1.2.8.8 1.1 1.9 1.1 3.3v7.9h-4.1z"/></g><g><path class="st0" d="M28.1 215.7c0 2-.5 3.5-1.6 4.7-1.1 1.1-2.6 1.7-4.5 1.7-1.8 0-3.3-.6-4.4-1.7-1.1-1.1-1.6-2.7-1.6-4.6 0-2 .5-3.5 1.6-4.6 1.1-1.1 2.6-1.6 4.5-1.6 1.2 0 2.3.3 3.2.8.9.5 1.6 1.2 2.1 2.2.4.7.7 1.9.7 3.1zm-7.9 0c0 1 .1 1.8.4 2.4s.7.8 1.4.8 1.1-.3 1.4-.8.4-1.3.4-2.4c0-1-.1-1.8-.4-2.4-.3-.5-.7-.8-1.4-.8-.6 0-1.1.3-1.4.8s-.4 1.4-.4 2.4zM37.3 212.8h-2.6v9h-4.2v-9h-1.6v-2.1l1.7-1v-.2c0-1.6.3-2.8 1-3.5.7-.7 1.7-1.1 3.2-1.1.6 0 1.1 0 1.6.1s1.1.2 1.7.5l-.9 2.7c-.5-.1-1-.2-1.5-.2-.3 0-.6.1-.7.3-.1.2-.2.5-.2 1v.3h2.6v3.2zM49.3 218.7c.6 0 1.2-.1 2-.4v3.1c-.6.2-1.1.4-1.6.5-.5.1-1.1.2-1.8.2-1.4 0-2.4-.3-3.1-1-.6-.7-.9-1.8-.9-3.2v-5h-1.5v-1.7l1.9-1.3 1.1-2.6h2.8v2.4h3v3.1h-3v4.7c0 .8.3 1.2 1.1 1.2zM60.5 221.8v-6.6c0-1.6-.5-2.4-1.5-2.4-.7 0-1.2.3-1.5.9-.3.6-.5 1.5-.5 2.9v5.3h-4.2v-16.7H57v2.4c0 1.1-.1 2.3-.2 3.7h.2c.4-.6.9-1.1 1.4-1.3.6-.3 1.2-.4 1.9-.4 1.4 0 2.4.4 3.2 1.2.8.8 1.1 1.9 1.1 3.3v7.9h-4.1zM72.8 222.1c-2 0-3.6-.5-4.7-1.6s-1.7-2.6-1.7-4.6c0-2.1.5-3.6 1.6-4.7 1-1.1 2.5-1.6 4.4-1.6 1.8 0 3.2.5 4.2 1.4s1.5 2.3 1.5 4.1v1.9h-7.5c0 .7.3 1.2.7 1.6.5.4 1.1.6 1.9.6.7 0 1.4-.1 2-.2.6-.1 1.3-.4 2-.7v3c-.7.3-1.3.6-2 .7-.6 0-1.4.1-2.4.1zm-.3-9.8c-.5 0-.9.2-1.2.5s-.5.8-.6 1.5h3.6c0-.6-.2-1.1-.5-1.4-.3-.4-.7-.6-1.3-.6z"/></g><g><path class="st0" d="M30.1 230.1v9.5c0 2.1-.6 3.6-1.7 4.8-1.2 1.1-2.8 1.7-5 1.7-2.1 0-3.8-.5-4.9-1.6s-1.7-2.7-1.7-4.7v-9.5h4.3v9.2c0 1.1.2 1.9.6 2.4.4.5 1 .8 1.8.8.9 0 1.5-.2 1.9-.7.4-.5.6-1.3.6-2.4v-9.2h4.1zM32 244.1c0-.7.2-1.2.6-1.5.4-.4 1-.5 1.7-.5s1.3.2 1.6.5c.4.4.6.9.6 1.5s-.2 1.1-.6 1.5c-.4.4-.9.5-1.6.5-.7 0-1.3-.2-1.7-.5s-.6-.9-.6-1.5zM48.7 241.1c0 1-.2 1.8-.7 2.6-.5.8-1.2 1.3-2.1 1.8-.9.4-2 .6-3.3.6-1 0-1.9-.1-2.6-.2s-1.4-.4-2.2-.8v-3.8c.8.4 1.7.7 2.5 1 .9.2 1.7.3 2.4.3.6 0 1.1-.1 1.4-.3.3-.2.4-.5.4-.8 0-.2-.1-.4-.2-.6s-.3-.3-.6-.5-1-.5-2.1-1c-1-.5-1.8-.9-2.3-1.4-.5-.4-.9-.9-1.1-1.5-.2-.6-.4-1.2-.4-2 0-1.4.5-2.6 1.6-3.4 1.1-.8 2.5-1.2 4.3-1.2 1.6 0 3.3.4 5 1.1l-1.3 3.3c-1.5-.7-2.7-1-3.8-1-.6 0-1 .1-1.2.3-.3.2-.4.4-.4.7 0 .3.2.6.5.8.3.2 1.2.7 2.6 1.3 1.4.6 2.3 1.3 2.8 2s.8 1.6.8 2.7zM49.7 244.1c0-.7.2-1.2.6-1.5.4-.4 1-.5 1.7-.5s1.3.2 1.6.5c.4.4.6.9.6 1.5s-.2 1.1-.6 1.5c-.4.4-.9.5-1.6.5-.7 0-1.3-.2-1.7-.5s-.6-.9-.6-1.5zM68.2 233.4c-1 0-1.8.4-2.4 1.2-.6.8-.8 2-.8 3.4 0 3 1.1 4.5 3.4 4.5.7 0 1.4-.1 2-.3.7-.2 1.3-.4 2-.7v3.6c-1.3.6-2.8.9-4.4.9-2.4 0-4.2-.7-5.5-2.1-1.3-1.4-1.9-3.4-1.9-6 0-1.6.3-3.1.9-4.3.6-1.2 1.5-2.2 2.6-2.8 1.1-.7 2.5-1 4.1-1 1.7 0 3.3.4 4.9 1.1l-1.3 3.3c-.6-.3-1.2-.5-1.7-.7-.6 0-1.2-.1-1.9-.1zM86.3 239.7c0 2-.5 3.5-1.6 4.7-1.1 1.1-2.6 1.7-4.5 1.7-1.8 0-3.3-.6-4.4-1.7-1.1-1.1-1.6-2.7-1.6-4.6 0-2 .5-3.5 1.6-4.6 1.1-1.1 2.6-1.6 4.5-1.6 1.2 0 2.3.3 3.2.8.9.5 1.6 1.2 2.1 2.2.4.8.7 1.9.7 3.1zm-7.9 0c0 1 .1 1.8.4 2.4s.7.8 1.4.8 1.1-.3 1.4-.8c.3-.5.4-1.3.4-2.4 0-1-.1-1.8-.4-2.4-.3-.5-.7-.8-1.4-.8-.6 0-1.1.3-1.4.8s-.4 1.4-.4 2.4zM95.9 245.8l-.8-1.6H95c-.6.7-1.1 1.2-1.7 1.4s-1.3.4-2.3.4c-1.1 0-2-.3-2.7-1s-1-1.7-1-2.9c0-1.3.5-2.3 1.4-2.9s2.2-1 3.9-1.1l2-.1v-.2c0-1-.5-1.5-1.5-1.5-.9 0-2 .3-3.4.9l-1.2-2.8c1.4-.7 3.2-1.1 5.4-1.1 1.6 0 2.8.4 3.6 1.2.9.8 1.3 1.9 1.3 3.2v8h-2.9zm-3.1-2.7c.5 0 .9-.2 1.3-.5s.5-.7.5-1.3v-.9h-1c-1.4.1-2.1.6-2.1 1.5.1.8.5 1.2 1.3 1.2zM110.4 242.1c0 1.3-.4 2.3-1.3 3s-2.2 1-3.8 1c-.9 0-1.7 0-2.4-.1s-1.3-.3-2-.5V242c.7.3 1.4.5 2.1.7.8.2 1.5.3 2.1.3.9 0 1.4-.2 1.4-.6 0-.2-.1-.4-.4-.6-.3-.2-1-.5-2.2-1-1.1-.5-1.9-1-2.3-1.6-.4-.6-.7-1.3-.7-2.2 0-1.1.4-2 1.3-2.6.9-.6 2.1-.9 3.7-.9.8 0 1.6.1 2.3.3.7.2 1.4.4 2.2.8l-1.1 2.7c-.6-.3-1.1-.5-1.8-.6-.6-.2-1.1-.3-1.5-.3-.7 0-1 .2-1 .5 0 .2.1.4.4.5.2.1.9.4 2.1.9.9.4 1.5.7 1.9 1 .4.3.7.7.9 1.2 0 .4.1.9.1 1.6zM118.1 242.7c.6 0 1.2-.1 2-.4v3.1c-.6.2-1.1.4-1.6.5-.5.1-1.1.2-1.8.2-1.4 0-2.4-.3-3.1-1-.6-.7-.9-1.8-.9-3.2v-5h-1.5v-1.7l1.9-1.3 1.1-2.6h2.8v2.4h3v3.1h-3v4.7c-.1.8.3 1.2 1.1 1.2z"/></g><g><path class="st0" d="M23 260.6h6.8v8.5c-1.8.6-3.9.9-6.1.9-2.4 0-4.3-.7-5.6-2.1-1.3-1.4-2-3.4-2-6 0-2.5.7-4.5 2.2-5.9 1.4-1.4 3.5-2.1 6.1-2.1 1 0 1.9.1 2.8.3.9.2 1.6.4 2.3.7l-1.3 3.3c-1.1-.6-2.4-.8-3.7-.8-1.2 0-2.2.4-2.9 1.2s-1 2-1 3.5.3 2.6.9 3.4c.6.8 1.5 1.2 2.6 1.2.6 0 1.2-.1 1.7-.2V264H23v-3.4zM40.8 269.8l-.5-1.5H40c-.4.6-.8 1-1.5 1.3-.6.3-1.4.4-2.2.4-1.3 0-2.4-.4-3.1-1.2-.7-.8-1.1-1.9-1.1-3.3v-7.9h4.2v6.6c0 .8.1 1.4.3 1.8s.6.6 1.1.6c.7 0 1.2-.3 1.5-.9.3-.6.5-1.5.5-2.9v-5.3h4.2v12.2h-3.1zM54.1 269.8l-.8-1.6h-.1c-.6.7-1.1 1.2-1.7 1.4-.6.3-1.3.4-2.3.4-1.1 0-2-.3-2.7-1-.7-.7-1-1.7-1-2.9 0-1.3.5-2.3 1.4-2.9s2.2-1 3.9-1.1l2-.1v-.2c0-1-.5-1.5-1.5-1.5-.9 0-2 .3-3.4.9l-1.2-2.8c1.4-.7 3.2-1.1 5.4-1.1 1.6 0 2.8.4 3.6 1.2.9.8 1.3 1.9 1.3 3.2v8h-2.9zm-3.1-2.7c.5 0 .9-.2 1.3-.5s.5-.7.5-1.3v-.9h-1c-1.4.1-2.1.6-2.1 1.5.1.8.5 1.2 1.3 1.2zM66.6 257.5c.4 0 .7 0 1 .1h.2l-.4 4c-.3-.1-.8-.1-1.4-.1-.9 0-1.6.2-2 .6-.4.4-.6 1-.6 1.8v6h-4.2v-12.2h3.1l.7 1.9h.2c.4-.6.8-1.2 1.5-1.6.6-.3 1.2-.5 1.9-.5zM72.7 270.1c-.9 0-1.6-.2-2.3-.7-.6-.5-1.1-1.2-1.5-2.2-.4-1-.5-2.1-.5-3.4 0-2 .4-3.5 1.2-4.6s1.9-1.7 3.3-1.7c.7 0 1.3.1 1.8.4.5.3 1 .7 1.4 1.4h.1c-.1-1-.2-1.9-.2-2.9v-3.3h4.2v16.7H77l-.9-1.5h-.2c-.7 1.2-1.8 1.8-3.2 1.8zm1.7-3.4c.7 0 1.1-.2 1.4-.6.3-.4.4-1.1.4-2v-.3c0-1.1-.2-1.8-.5-2.3-.3-.5-.8-.7-1.5-.7-.6 0-1 .3-1.3.8-.3.5-.5 1.3-.5 2.2 0 .9.2 1.7.5 2.2.5.5.9.7 1.5.7zM81.9 268.1c0-.7.2-1.2.6-1.5.4-.4 1-.5 1.7-.5s1.3.2 1.6.5c.4.4.6.9.6 1.5s-.2 1.1-.6 1.5c-.4.4-.9.5-1.6.5-.7 0-1.3-.2-1.7-.5s-.6-.9-.6-1.5z"/></g><g><path class="st0" d="M26 305.8h-9.3v-15.7H26v3.4h-5v2.5h4.7v3.4H21v3h5v3.4zM37.3 302.1c0 1.3-.4 2.3-1.3 3-.9.7-2.2 1-3.8 1-.9 0-1.7 0-2.4-.1s-1.3-.3-2-.5V302c.7.3 1.4.5 2.1.7.8.2 1.5.3 2.1.3.9 0 1.4-.2 1.4-.6 0-.2-.1-.4-.4-.6-.3-.2-1-.5-2.2-1-1.1-.5-1.9-1-2.3-1.6-.4-.6-.7-1.3-.7-2.2 0-1.1.4-2 1.3-2.6.9-.6 2.1-.9 3.7-.9.8 0 1.6.1 2.3.3.7.2 1.4.4 2.2.8l-1.1 2.7c-.6-.3-1.1-.5-1.8-.6-.6-.2-1.1-.3-1.5-.3-.7 0-1 .2-1 .5 0 .2.1.4.4.5.2.1.9.4 2.1.9.9.4 1.5.7 1.9 1 .4.3.7.7.9 1.2 0 .4.1.9.1 1.6zM44.9 302.7c.6 0 1.2-.1 2-.4v3.1c-.6.2-1.1.4-1.6.5-.5.1-1.1.2-1.8.2-1.4 0-2.4-.3-3.1-1-.6-.7-.9-1.8-.9-3.2v-5H38v-1.7l1.9-1.3 1.1-2.6h2.8v2.4h3v3.1h-3v4.7c0 .8.4 1.2 1.1 1.2zM56.4 305.8l-.8-1.6h-.1c-.6.7-1.1 1.2-1.7 1.4-.6.3-1.3.4-2.3.4-1.1 0-2-.3-2.7-1-.7-.7-1-1.7-1-2.9 0-1.3.5-2.3 1.4-2.9s2.2-1 3.9-1.1l2-.1v-.2c0-1-.5-1.5-1.5-1.5-.9 0-2 .3-3.4.9l-1.2-2.8c1.4-.7 3.2-1.1 5.4-1.1 1.6 0 2.8.4 3.6 1.2.9.8 1.3 1.9 1.3 3.2v8h-2.9zm-3.1-2.7c.5 0 .9-.2 1.3-.5s.5-.7.5-1.3v-.9h-1c-1.4 0-2.1.6-2.1 1.5.1.8.5 1.2 1.3 1.2zM68.9 293.4c1.3 0 2.4.6 3.2 1.7.8 1.1 1.2 2.6 1.2 4.6 0 2-.4 3.5-1.2 4.6-.8 1.1-1.9 1.7-3.3 1.7-.5 0-.9 0-1.2-.1-.4-.1-.7-.2-.9-.4-.3-.2-.6-.5-1-.9h-.3l-.7 1.2h-3.3v-16.7h4.2v3.8c0 .5-.1 1.2-.2 2.3h.2c.4-.6.9-1.1 1.4-1.4.6-.2 1.3-.4 1.9-.4zm-1.5 3.3c-.6 0-1 .2-1.3.6-.3.4-.4 1-.4 1.9v.6c0 1 .1 1.7.4 2.1.3.4.7.6 1.3.6.5 0 .9-.3 1.1-.8.3-.5.4-1.2.4-2.2.1-1.8-.4-2.8-1.5-2.8zM79.2 305.8H75v-16.7h4.2v16.7zM81.4 290.6c0-.6.2-1.1.5-1.4.4-.3.9-.5 1.7-.5s1.3.2 1.7.5c.4.3.5.8.5 1.4 0 1.2-.7 1.8-2.2 1.8-1.5.1-2.2-.5-2.2-1.8zm4.3 15.2h-4.2v-12.2h4.2v12.2zM97.3 302.1c0 1.3-.4 2.3-1.3 3s-2.2 1-3.8 1c-.9 0-1.7 0-2.4-.1s-1.3-.3-2-.5V302c.7.3 1.4.5 2.1.7.8.2 1.5.3 2.1.3.9 0 1.4-.2 1.4-.6 0-.2-.1-.4-.4-.6-.3-.2-1-.5-2.2-1-1.1-.5-1.9-1-2.3-1.6-.4-.6-.7-1.3-.7-2.2 0-1.1.4-2 1.3-2.6.9-.6 2.1-.9 3.7-.9.8 0 1.6.1 2.3.3.7.2 1.4.4 2.2.8l-1.1 2.7c-.6-.3-1.1-.5-1.8-.6-.6-.2-1.1-.3-1.5-.3-.7 0-1 .2-1 .5 0 .2.1.4.4.5.2.1.9.4 2.1.9.9.4 1.5.7 1.9 1 .4.3.7.7.9 1.2 0 .4.1.9.1 1.6zM106.7 305.8v-6.6c0-1.6-.5-2.4-1.5-2.4-.7 0-1.2.3-1.5.9-.3.6-.5 1.5-.5 2.9v5.3H99v-16.7h4.2v2.4c0 1.1-.1 2.3-.2 3.7h.2c.4-.6.9-1.1 1.4-1.3s1.2-.4 1.9-.4c1.4 0 2.4.4 3.2 1.2.8.8 1.1 1.9 1.1 3.3v7.9h-4.1zM119 306c-2 0-3.6-.5-4.7-1.6s-1.7-2.6-1.7-4.6c0-2.1.5-3.6 1.6-4.7 1-1.1 2.5-1.6 4.4-1.6 1.8 0 3.2.5 4.2 1.4 1 1 1.5 2.3 1.5 4.1v1.9h-7.5c0 .7.3 1.2.7 1.6.5.4 1.1.6 1.9.6.7 0 1.4-.1 2-.2.6-.1 1.3-.4 2-.7v3c-.7.3-1.3.6-2 .7s-1.4.1-2.4.1zm-.3-9.7c-.5 0-.9.2-1.2.5-.3.3-.5.8-.6 1.5h3.6c0-.6-.2-1.1-.5-1.4-.3-.4-.7-.6-1.3-.6zM129.8 306c-.9 0-1.6-.2-2.3-.7-.6-.5-1.1-1.2-1.5-2.2-.4-1-.5-2.1-.5-3.4 0-2 .4-3.5 1.2-4.6s1.9-1.7 3.3-1.7c.7 0 1.3.1 1.8.4.5.3 1 .7 1.4 1.4h.1c-.1-1-.2-1.9-.2-2.9V289h4.2v16.7h-3.2l-.9-1.5h-.2c-.7 1.3-1.7 1.8-3.2 1.8zm1.7-3.3c.7 0 1.1-.2 1.4-.6.3-.4.4-1.1.4-2v-.3c0-1.1-.2-1.8-.5-2.3-.3-.5-.8-.7-1.5-.7-.6 0-1 .3-1.3.8-.3.5-.5 1.3-.5 2.2 0 .9.2 1.7.5 2.2s1 .7 1.5.7z"/></g><g><path class="st0" d="M25.1 329.8h-4.3v-8.3c0-1 0-1.9.1-2.8-.3.3-.6.7-1 1l-1.8 1.5-2.2-2.7 5.4-4.4h3.8v15.7zM29.5 329.8l5.4-12.2h-6.8v-3.5h11.3v2.5l-5.5 13.2h-4.4zM51.7 321.3c0 3.1-.7 5.3-2 6.7-1.3 1.4-3.4 2.1-6.4 2.1-1 0-1.7 0-2.2-.1v-3.4c.6.1 1.2.2 1.8.2 1.5 0 2.7-.3 3.5-.9.8-.6 1.3-1.6 1.3-3h-.1c-.3.5-.6.9-.8 1.1-.3.2-.6.4-1 .5-.4.1-.9.2-1.5.2-1.4 0-2.4-.5-3.2-1.4-.8-.9-1.1-2.2-1.1-3.8 0-1.7.5-3.1 1.5-4.1 1-1 2.4-1.5 4.1-1.5 1.9 0 3.4.6 4.5 1.9s1.6 3.2 1.6 5.5zm-5.9-3.9c-.5 0-.8.2-1.1.5s-.4.9-.4 1.6c0 .6.1 1.1.4 1.4.3.3.6.5 1.1.5.5 0 .9-.2 1.2-.5s.5-.7.5-1.2c0-.6-.2-1.2-.5-1.6-.3-.5-.7-.7-1.2-.7zM63.9 322c0 2.8-.5 4.8-1.4 6.1-.9 1.3-2.4 1.9-4.3 1.9s-3.3-.7-4.2-2c-1-1.3-1.4-3.4-1.4-6 0-2.8.5-4.8 1.4-6.1.9-1.3 2.4-2 4.3-2s3.3.7 4.2 2c.9 1.4 1.4 3.4 1.4 6.1zm-7.1 0c0 1.8.1 3 .3 3.7.2.7.6 1 1.1 1 .5 0 .9-.3 1.1-1 .2-.7.3-1.9.3-3.6 0-1.7-.1-3-.3-3.7-.2-.7-.6-1-1.1-1-.5 0-.9.3-1.1 1-.2.6-.3 1.8-.3 3.6zM65 328.1c0-.7.2-1.2.6-1.5.4-.4 1-.5 1.7-.5s1.3.2 1.6.5c.4.4.6.9.6 1.5s-.2 1.1-.6 1.5c-.4.4-.9.5-1.6.5-.7 0-1.3-.2-1.7-.5s-.6-.9-.6-1.5z"/></g></svg>