<?xml version="1.0" encoding="utf-8"?>
<!-- Generator: Adobe Illustrator 22.1.0, SVG Export Plug-In . SVG Version: 6.00 Build 0)  -->
<svg version="1.1" id="Layer_1" xmlns="http://www.w3.org/2000/svg" xmlns:xlink="http://www.w3.org/1999/xlink" x="0px" y="0px"
	 viewBox="0 0 728 90" style="enable-background:new 0 0 728 90;" xml:space="preserve">
<style type="text/css">
	.st0{fill:#FFFFFF;}
</style>
<g>
	<path class="st0" d="M35,60.2h-4.6L29,54c-0.1-0.3-0.2-0.8-0.3-1.6s-0.2-1.4-0.3-1.9c-0.1,0.4-0.1,0.9-0.3,1.6s-0.2,1.2-0.3,1.7
		s-0.6,2.7-1.4,6.4h-4.6l-3.5-14.3H22l1.6,7.2c0.4,1.6,0.6,2.8,0.7,3.8c0.1-0.7,0.2-1.6,0.5-2.7s0.4-2.1,0.6-2.8l1.3-5.4h3.6
		l1.2,5.4c0.2,0.9,0.4,1.9,0.6,3s0.4,2,0.4,2.5c0.1-0.7,0.3-2,0.7-3.8l1.6-7.2h3.7L35,60.2z"/>
	<path class="st0" d="M45,60.4c-1.8,0-3.3-0.5-4.3-1.5s-1.5-2.4-1.5-4.2c0-1.9,0.5-3.3,1.4-4.3s2.3-1.5,4-1.5c1.7,0,3,0.4,3.9,1.3
		s1.4,2.1,1.4,3.8v1.7h-6.8c0,0.6,0.3,1.1,0.7,1.5s1,0.5,1.7,0.5c0.7,0,1.3-0.1,1.9-0.2s1.2-0.3,1.8-0.6v2.7
		c-0.6,0.3-1.2,0.5-1.9,0.6S45.9,60.4,45,60.4z M44.8,51.5c-0.4,0-0.8,0.1-1.1,0.4s-0.5,0.7-0.5,1.3h3.3c0-0.5-0.2-1-0.5-1.3
		S45.3,51.5,44.8,51.5z"/>
	<path class="st0" d="M61.5,60.4c-1.8,0-3.2-0.5-4.1-1.5S56,56.5,56,54.7c0-1.8,0.5-3.3,1.5-4.3s2.4-1.5,4.3-1.5
		c1.3,0,2.5,0.3,3.6,0.8l-1.1,2.8c-0.5-0.2-0.9-0.4-1.3-0.5s-0.8-0.2-1.2-0.2c-0.6,0-1.1,0.2-1.4,0.7s-0.5,1.2-0.5,2
		c0,1.8,0.7,2.7,2,2.7c1.1,0,2.2-0.3,3.2-1v3C64.1,60,62.9,60.4,61.5,60.4z"/>
	<path class="st0" d="M74.1,60.2l-0.7-1.5h-0.1c-0.5,0.6-1,1.1-1.6,1.3s-1.2,0.4-2.1,0.4c-1,0-1.9-0.3-2.5-0.9s-0.9-1.5-0.9-2.6
		c0-1.2,0.4-2.1,1.2-2.6s2-0.9,3.6-1l1.8-0.1V53c0-0.9-0.4-1.4-1.3-1.4c-0.8,0-1.8,0.3-3.1,0.8l-1.1-2.5c1.3-0.7,2.9-1,4.9-1
		c1.4,0,2.5,0.4,3.3,1.1s1.2,1.7,1.2,2.9v7.3H74.1z M71.2,57.7c0.5,0,0.9-0.1,1.2-0.4s0.5-0.7,0.5-1.1v-0.9l-0.9,0
		c-1.3,0-1.9,0.5-1.9,1.4C70.2,57.3,70.5,57.7,71.2,57.7z"/>
	<path class="st0" d="M85.9,60.2v-6c0-0.7-0.1-1.3-0.3-1.7s-0.6-0.6-1-0.6c-0.6,0-1.1,0.3-1.4,0.8s-0.4,1.4-0.4,2.6v4.8h-3.8V49.1
		h2.9l0.5,1.4h0.2c0.3-0.5,0.8-0.9,1.4-1.2s1.2-0.4,2-0.4c1.2,0,2.2,0.4,2.9,1.1s1,1.7,1,3v7.2H85.9z"/>
	<path class="st0" d="M103.7,60.2v-6c0-1.5-0.4-2.2-1.3-2.2c-0.6,0-1.1,0.3-1.4,0.8s-0.4,1.4-0.4,2.6v4.9h-3.8V45h3.8v2.2
		c0,1-0.1,2.1-0.2,3.3h0.2c0.4-0.6,0.8-1,1.3-1.2s1.1-0.4,1.7-0.4c1.2,0,2.2,0.4,2.9,1.1s1,1.7,1,3v7.2H103.7z"/>
	<path class="st0" d="M115.1,60.4c-1.8,0-3.3-0.5-4.3-1.5s-1.5-2.4-1.5-4.2c0-1.9,0.5-3.3,1.4-4.3s2.3-1.5,4-1.5
		c1.7,0,3,0.4,3.9,1.3s1.4,2.1,1.4,3.8v1.7h-6.8c0,0.6,0.3,1.1,0.7,1.5s1,0.5,1.7,0.5c0.7,0,1.3-0.1,1.9-0.2s1.2-0.3,1.8-0.6v2.7
		c-0.6,0.3-1.2,0.5-1.9,0.6S116,60.4,115.1,60.4z M114.9,51.5c-0.4,0-0.8,0.1-1.1,0.4s-0.5,0.7-0.5,1.3h3.3c0-0.5-0.2-1-0.5-1.3
		S115.4,51.5,114.9,51.5z"/>
	<path class="st0" d="M125.6,60.2h-3.8V45h3.8V60.2z"/>
	<path class="st0" d="M134.4,60.4c-0.6,0-1.1-0.1-1.5-0.3s-0.9-0.5-1.3-1h-0.2c0.1,0.8,0.2,1.3,0.2,1.4V65h-3.8V49.1h3.1l0.5,1.4
		h0.2c0.7-1.1,1.7-1.6,2.9-1.6c1.2,0,2.2,0.5,2.9,1.5s1,2.4,1,4.2c0,1.8-0.4,3.2-1.1,4.2S135.7,60.4,134.4,60.4z M133.2,51.9
		c-0.6,0-1,0.2-1.2,0.6s-0.3,1-0.4,1.8v0.3c0,1,0.1,1.6,0.4,2.1s0.7,0.6,1.2,0.6c0.5,0,0.8-0.2,1.1-0.6s0.3-1.1,0.3-2.1
		c0-1-0.1-1.6-0.3-2S133.7,51.9,133.2,51.9z"/>
	<path class="st0" d="M151.7,60.4c-0.6,0-1.1-0.1-1.5-0.3s-0.9-0.5-1.3-1h-0.2c0.1,0.8,0.2,1.3,0.2,1.4V65h-3.8V49.1h3.1l0.5,1.4
		h0.2c0.7-1.1,1.7-1.6,2.9-1.6c1.2,0,2.2,0.5,2.9,1.5s1,2.4,1,4.2c0,1.8-0.4,3.2-1.1,4.2S153,60.4,151.7,60.4z M150.4,51.9
		c-0.6,0-1,0.2-1.2,0.6s-0.3,1-0.4,1.8v0.3c0,1,0.1,1.6,0.4,2.1s0.7,0.6,1.2,0.6c0.5,0,0.8-0.2,1.1-0.6s0.3-1.1,0.3-2.1
		c0-1-0.1-1.6-0.3-2S151,51.9,150.4,51.9z"/>
	<path class="st0" d="M164.2,48.9c0.3,0,0.6,0,0.9,0.1l0.2,0l-0.3,3.6c-0.3-0.1-0.7-0.1-1.3-0.1c-0.8,0-1.4,0.2-1.8,0.6
		s-0.6,0.9-0.6,1.6v5.4h-3.8V49.1h2.8l0.6,1.8h0.2c0.3-0.6,0.8-1.1,1.3-1.4S163.6,48.9,164.2,48.9z"/>
	<path class="st0" d="M177.1,54.6c0,1.8-0.5,3.2-1.5,4.2s-2.3,1.5-4.1,1.5c-1.7,0-3-0.5-4-1.6s-1.5-2.4-1.5-4.2
		c0-1.8,0.5-3.2,1.5-4.2s2.3-1.5,4.1-1.5c1.1,0,2,0.2,2.9,0.7s1.5,1.1,1.9,2S177.1,53.5,177.1,54.6z M169.9,54.6
		c0,1,0.1,1.7,0.4,2.2s0.7,0.7,1.3,0.7c0.6,0,1-0.2,1.3-0.7s0.4-1.2,0.4-2.2c0-0.9-0.1-1.7-0.4-2.1s-0.7-0.7-1.3-0.7
		c-0.6,0-1,0.2-1.3,0.7S169.9,53.7,169.9,54.6z"/>
	<path class="st0" d="M184.3,57.4c0.5,0,1.1-0.1,1.8-0.4v2.8c-0.5,0.2-1,0.4-1.5,0.5s-1,0.1-1.6,0.1c-1.3,0-2.2-0.3-2.8-0.9
		s-0.8-1.6-0.8-2.9V52h-1.3v-1.6l1.7-1.2l1-2.3h2.5v2.2h2.7V52h-2.7v4.3C183.3,57,183.6,57.4,184.3,57.4z"/>
	<path class="st0" d="M193,60.4c-1.8,0-3.3-0.5-4.3-1.5s-1.5-2.4-1.5-4.2c0-1.9,0.5-3.3,1.4-4.3s2.3-1.5,4-1.5c1.7,0,3,0.4,3.9,1.3
		s1.4,2.1,1.4,3.8v1.7h-6.8c0,0.6,0.3,1.1,0.7,1.5s1,0.5,1.7,0.5c0.7,0,1.3-0.1,1.9-0.2s1.2-0.3,1.8-0.6v2.7
		c-0.6,0.3-1.2,0.5-1.9,0.6S193.9,60.4,193,60.4z M192.8,51.5c-0.4,0-0.8,0.1-1.1,0.4s-0.5,0.7-0.5,1.3h3.3c0-0.5-0.2-1-0.5-1.3
		S193.3,51.5,192.8,51.5z"/>
	<path class="st0" d="M204.7,60.4c-1.8,0-3.2-0.5-4.1-1.5s-1.4-2.4-1.4-4.2c0-1.8,0.5-3.3,1.5-4.3s2.4-1.5,4.3-1.5
		c1.3,0,2.5,0.3,3.6,0.8l-1.1,2.8c-0.5-0.2-0.9-0.4-1.3-0.5s-0.8-0.2-1.2-0.2c-0.6,0-1.1,0.2-1.4,0.7s-0.5,1.2-0.5,2
		c0,1.8,0.7,2.7,2,2.7c1.1,0,2.2-0.3,3.2-1v3C207.3,60,206.1,60.4,204.7,60.4z"/>
	<path class="st0" d="M215.5,57.4c0.5,0,1.1-0.1,1.8-0.4v2.8c-0.5,0.2-1,0.4-1.5,0.5s-1,0.1-1.6,0.1c-1.3,0-2.2-0.3-2.8-0.9
		s-0.8-1.6-0.8-2.9V52h-1.3v-1.6l1.7-1.2l1-2.3h2.5v2.2h2.7V52h-2.7v4.3C214.4,57,214.8,57.4,215.5,57.4z"/>
	<path class="st0" d="M222.3,49.1h4l1.9,6.3c0.1,0.3,0.2,0.7,0.2,1.2h0.1c0.1-0.4,0.1-0.8,0.2-1.2l1.9-6.4h3.9l-4.4,11.8
		c-0.6,1.5-1.2,2.6-2.1,3.2s-1.9,0.9-3.2,0.9c-0.5,0-1-0.1-1.6-0.2v-3c0.3,0.1,0.7,0.1,1.2,0.1c0.3,0,0.6-0.1,0.9-0.2
		s0.5-0.3,0.7-0.6s0.4-0.6,0.6-1.2L222.3,49.1z"/>
	<path class="st0" d="M246,54.6c0,1.8-0.5,3.2-1.5,4.2s-2.3,1.5-4.1,1.5c-1.7,0-3-0.5-4-1.6s-1.5-2.4-1.5-4.2c0-1.8,0.5-3.2,1.5-4.2
		s2.3-1.5,4.1-1.5c1.1,0,2,0.2,2.9,0.7s1.5,1.1,1.9,2S246,53.5,246,54.6z M238.9,54.6c0,1,0.1,1.7,0.4,2.2s0.7,0.7,1.3,0.7
		c0.6,0,1-0.2,1.3-0.7s0.4-1.2,0.4-2.2c0-0.9-0.1-1.7-0.4-2.1s-0.7-0.7-1.3-0.7c-0.6,0-1,0.2-1.3,0.7S238.9,53.7,238.9,54.6z"/>
	<path class="st0" d="M255.7,60.2l-0.5-1.4H255c-0.3,0.5-0.8,0.9-1.3,1.2s-1.2,0.4-2,0.4c-1.2,0-2.2-0.4-2.8-1.1s-1-1.7-1-3v-7.2
		h3.8v6c0,0.7,0.1,1.3,0.3,1.6s0.5,0.6,1,0.6c0.7,0,1.1-0.3,1.4-0.8s0.4-1.4,0.4-2.6v-4.8h3.8v11.1H255.7z"/>
	<path class="st0" d="M267.5,48.9c0.3,0,0.6,0,0.9,0.1l0.2,0l-0.3,3.6c-0.3-0.1-0.7-0.1-1.3-0.1c-0.8,0-1.4,0.2-1.8,0.6
		s-0.6,0.9-0.6,1.6v5.4h-3.8V49.1h2.8l0.6,1.8h0.2c0.3-0.6,0.8-1.1,1.3-1.4S266.9,48.9,267.5,48.9z"/>
	<path class="st0" d="M281.4,52h-2.4v8.2h-3.8V52h-1.5v-1.9l1.5-0.9V49c0-1.5,0.3-2.5,0.9-3.1s1.6-1,2.9-1c0.5,0,1,0,1.4,0.1
		s1,0.2,1.6,0.4l-0.8,2.5c-0.5-0.1-0.9-0.2-1.4-0.2c-0.3,0-0.5,0.1-0.6,0.3s-0.2,0.5-0.2,0.9v0.3h2.4V52z"/>
	<path class="st0" d="M289.7,60.2l-0.7-1.5h-0.1c-0.5,0.6-1,1.1-1.6,1.3s-1.2,0.4-2.1,0.4c-1,0-1.9-0.3-2.5-0.9s-0.9-1.5-0.9-2.6
		c0-1.2,0.4-2.1,1.2-2.6s2-0.9,3.6-1l1.8-0.1V53c0-0.9-0.4-1.4-1.3-1.4c-0.8,0-1.8,0.3-3.1,0.8l-1.1-2.5c1.3-0.7,2.9-1,4.9-1
		c1.4,0,2.5,0.4,3.3,1.1s1.2,1.7,1.2,2.9v7.3H289.7z M286.9,57.7c0.5,0,0.9-0.1,1.2-0.4s0.5-0.7,0.5-1.1v-0.9l-0.9,0
		c-1.3,0-1.9,0.5-1.9,1.4C285.8,57.3,286.2,57.7,286.9,57.7z"/>
	<path class="st0" d="M308.2,60.2v-6c0-0.7-0.1-1.3-0.3-1.7s-0.5-0.6-1-0.6c-0.6,0-1,0.3-1.3,0.8s-0.4,1.3-0.4,2.4v5.2h-3.8v-6
		c0-0.7-0.1-1.3-0.3-1.7s-0.5-0.6-0.9-0.6c-0.6,0-1,0.3-1.3,0.8s-0.4,1.4-0.4,2.6v4.8h-3.8V49.1h2.9l0.5,1.4h0.2
		c0.3-0.5,0.7-0.9,1.3-1.2s1.2-0.4,1.9-0.4c1.6,0,2.7,0.5,3.4,1.5h0.3c0.3-0.5,0.7-0.8,1.3-1.1s1.2-0.4,1.8-0.4c1.3,0,2.3,0.3,2.9,1
		s0.9,1.7,0.9,3.1v7.2H308.2z"/>
	<path class="st0" d="M314.1,46.4c0-0.6,0.2-1,0.5-1.3c0.3-0.3,0.8-0.4,1.5-0.4s1.2,0.1,1.6,0.4c0.3,0.3,0.5,0.7,0.5,1.3
		c0,1.1-0.7,1.7-2,1.7C314.8,48,314.1,47.5,314.1,46.4z M318,60.2h-3.8V49.1h3.8V60.2z"/>
	<path class="st0" d="M324.1,60.2h-3.8V45h3.8V60.2z"/>
	<path class="st0" d="M325,49.1h4l1.9,6.3c0.1,0.3,0.2,0.7,0.2,1.2h0.1c0.1-0.4,0.1-0.8,0.2-1.2l1.9-6.4h3.9l-4.4,11.8
		c-0.6,1.5-1.2,2.6-2.1,3.2s-1.9,0.9-3.2,0.9c-0.5,0-1-0.1-1.6-0.2v-3c0.3,0.1,0.7,0.1,1.2,0.1c0.3,0,0.6-0.1,0.9-0.2
		s0.5-0.3,0.7-0.6s0.4-0.6,0.6-1.2L325,49.1z"/>
	<path class="st0" d="M337.7,58.6c0-0.6,0.2-1.1,0.5-1.4s0.9-0.5,1.5-0.5c0.6,0,1.1,0.2,1.5,0.5s0.5,0.8,0.5,1.4
		c0,0.6-0.2,1-0.5,1.4s-0.8,0.5-1.5,0.5c-0.6,0-1.2-0.2-1.5-0.5S337.7,59.1,337.7,58.6z"/>
</g>
</svg>
