<?xml version="1.0" encoding="utf-8"?>
<!-- Generator: Adobe Illustrator 22.1.0, SVG Export Plug-In . SVG Version: 6.00 Build 0)  -->
<svg version="1.1" id="Layer_1" xmlns="http://www.w3.org/2000/svg" xmlns:xlink="http://www.w3.org/1999/xlink" x="0px" y="0px"
	 viewBox="0 0 728 90" style="enable-background:new 0 0 728 90;" xml:space="preserve">
<style type="text/css">
	.st0{fill:#FFFFFF;}
</style>
<g>
	<path class="st0" d="M31.8,45h-3.9v-5.8h-4.5V45h-3.9V30.8h3.9V36h4.5v-5.3h3.9V45z"/>
	<path class="st0" d="M44.8,39.5c0,1.8-0.5,3.2-1.5,4.2s-2.3,1.5-4.1,1.5c-1.7,0-3-0.5-4-1.6s-1.5-2.4-1.5-4.2
		c0-1.8,0.5-3.2,1.5-4.2s2.3-1.5,4.1-1.5c1.1,0,2,0.2,2.9,0.7s1.5,1.1,1.9,2S44.8,38.3,44.8,39.5z M37.6,39.5c0,1,0.1,1.7,0.4,2.2
		s0.7,0.7,1.3,0.7c0.6,0,1-0.2,1.3-0.7s0.4-1.2,0.4-2.2c0-0.9-0.1-1.7-0.4-2.1s-0.7-0.7-1.3-0.7c-0.6,0-1,0.2-1.3,0.7
		S37.6,38.5,37.6,39.5z"/>
	<path class="st0" d="M53.6,45v-6c0-0.7-0.1-1.3-0.3-1.7s-0.6-0.6-1-0.6c-0.6,0-1.1,0.3-1.4,0.8s-0.4,1.4-0.4,2.6V45h-3.8V34h2.9
		l0.5,1.4h0.2c0.3-0.5,0.8-0.9,1.4-1.2s1.2-0.4,2-0.4c1.2,0,2.2,0.4,2.9,1.1s1,1.7,1,3V45H53.6z"/>
	<path class="st0" d="M70.2,39.5c0,1.8-0.5,3.2-1.5,4.2s-2.3,1.5-4.1,1.5c-1.7,0-3-0.5-4-1.6s-1.5-2.4-1.5-4.2
		c0-1.8,0.5-3.2,1.5-4.2s2.3-1.5,4.1-1.5c1.1,0,2,0.2,2.9,0.7s1.5,1.1,1.9,2S70.2,38.3,70.2,39.5z M63,39.5c0,1,0.1,1.7,0.4,2.2
		s0.7,0.7,1.3,0.7c0.6,0,1-0.2,1.3-0.7s0.4-1.2,0.4-2.2c0-0.9-0.1-1.7-0.4-2.1s-0.7-0.7-1.3-0.7c-0.6,0-1,0.2-1.3,0.7
		S63,38.5,63,39.5z"/>
	<path class="st0" d="M78.6,33.8c0.3,0,0.6,0,0.9,0.1l0.2,0l-0.3,3.6c-0.3-0.1-0.7-0.1-1.3-0.1c-0.8,0-1.4,0.2-1.8,0.6
		s-0.6,0.9-0.6,1.6V45h-3.8V34h2.8l0.6,1.8h0.2c0.3-0.6,0.8-1.1,1.3-1.4S78,33.8,78.6,33.8z"/>
	<path class="st0" d="M80.9,31.2c0-0.6,0.2-1,0.5-1.3s0.8-0.4,1.5-0.4s1.2,0.1,1.6,0.4s0.5,0.7,0.5,1.3c0,1.1-0.7,1.7-2,1.7
		C81.5,32.9,80.9,32.3,80.9,31.2z M84.8,45H81V34h3.8V45z"/>
	<path class="st0" d="M94,45v-6c0-0.7-0.1-1.3-0.3-1.7s-0.6-0.6-1-0.6c-0.6,0-1.1,0.3-1.4,0.8s-0.4,1.4-0.4,2.6V45H87V34h2.9
		l0.5,1.4h0.2c0.3-0.5,0.8-0.9,1.4-1.2s1.2-0.4,2-0.4c1.2,0,2.2,0.4,2.9,1.1s1,1.7,1,3V45H94z"/>
	<path class="st0" d="M110.5,34v1.8l-1.5,0.6c0.2,0.4,0.3,0.8,0.3,1.3c0,1.2-0.4,2.1-1.3,2.8s-2.1,1-3.7,1c-0.4,0-0.7,0-1-0.1
		c-0.1,0.2-0.1,0.3-0.1,0.5c0,0.2,0.2,0.3,0.5,0.4s0.7,0.2,1.2,0.2h1.8c2.5,0,3.7,1,3.7,3.1c0,1.3-0.6,2.4-1.7,3.1s-2.8,1.1-4.8,1.1
		c-1.6,0-2.8-0.3-3.6-0.8s-1.3-1.3-1.3-2.3c0-1.3,0.8-2.2,2.5-2.6c-0.3-0.1-0.6-0.4-0.9-0.7s-0.4-0.6-0.4-0.9c0-0.3,0.1-0.6,0.3-0.9
		s0.6-0.6,1.2-0.9c-0.6-0.3-1-0.7-1.4-1.2s-0.5-1.2-0.5-2c0-1.2,0.4-2.1,1.2-2.8s2-1,3.5-1c0.2,0,0.6,0,1,0.1s0.9,0.1,1.1,0.1H110.5
		z M102.2,46.4c0,0.3,0.2,0.6,0.5,0.8s0.8,0.3,1.4,0.3c0.9,0,1.7-0.1,2.2-0.3s0.8-0.5,0.8-0.9c0-0.3-0.2-0.5-0.5-0.6
		s-0.8-0.2-1.5-0.2h-1.5c-0.4,0-0.8,0.1-1,0.3S102.2,46.1,102.2,46.4z M103.4,37.6c0,1.1,0.4,1.7,1.2,1.7c0.4,0,0.6-0.1,0.8-0.4
		s0.3-0.7,0.3-1.3c0-1.1-0.4-1.7-1.1-1.7C103.7,35.9,103.4,36.5,103.4,37.6z"/>
	<path class="st0" d="M122,42.2c0.5,0,1.1-0.1,1.8-0.4v2.8c-0.5,0.2-1,0.4-1.5,0.5c-0.5,0.1-1,0.1-1.6,0.1c-1.3,0-2.2-0.3-2.8-0.9
		s-0.8-1.6-0.8-2.9v-4.6h-1.3v-1.6l1.7-1.2l1-2.3h2.5V34h2.7v2.9H121v4.3C121,41.9,121.3,42.2,122,42.2z"/>
	<path class="st0" d="M132.4,45v-6c0-1.5-0.4-2.2-1.3-2.2c-0.6,0-1.1,0.3-1.4,0.8s-0.4,1.4-0.4,2.6V45h-3.8V29.8h3.8V32
		c0,1-0.1,2.1-0.2,3.3h0.2c0.4-0.6,0.8-1,1.3-1.2s1.1-0.4,1.7-0.4c1.2,0,2.2,0.4,2.9,1.1s1,1.7,1,3V45H132.4z"/>
	<path class="st0" d="M143.8,45.2c-1.8,0-3.3-0.5-4.3-1.5s-1.5-2.4-1.5-4.2c0-1.9,0.5-3.3,1.4-4.3s2.3-1.5,4-1.5
		c1.7,0,3,0.4,3.9,1.3s1.4,2.1,1.4,3.8v1.7h-6.8c0,0.6,0.3,1.1,0.7,1.5s1,0.5,1.7,0.5c0.7,0,1.3-0.1,1.9-0.2s1.2-0.3,1.8-0.6v2.7
		c-0.6,0.3-1.2,0.5-1.9,0.6S144.7,45.2,143.8,45.2z M143.6,36.4c-0.4,0-0.8,0.1-1.1,0.4s-0.5,0.7-0.5,1.3h3.3c0-0.5-0.2-1-0.5-1.3
		S144.1,36.4,143.6,36.4z"/>
	<path class="st0" d="M162,33.8c1.2,0,2.2,0.5,2.9,1.5s1.1,2.4,1.1,4.2c0,1.8-0.4,3.2-1.1,4.2s-1.7,1.5-3,1.5c-0.4,0-0.8,0-1.1-0.1
		s-0.6-0.2-0.9-0.4s-0.5-0.4-0.9-0.8h-0.2l-0.6,1.1h-3V29.8h3.8v3.4c0,0.4,0,1.1-0.1,2.1h0.1c0.4-0.6,0.8-1,1.3-1.2
		S161.4,33.8,162,33.8z M160.6,36.8c-0.5,0-0.9,0.2-1.2,0.6s-0.4,1-0.4,1.7v0.5c0,0.9,0.1,1.6,0.4,1.9s0.7,0.6,1.2,0.6
		c0.4,0,0.8-0.2,1-0.7s0.4-1.1,0.4-2C162,37.7,161.5,36.8,160.6,36.8z"/>
	<path class="st0" d="M167.6,31.2c0-0.6,0.2-1,0.5-1.3s0.8-0.4,1.5-0.4s1.2,0.1,1.6,0.4s0.5,0.7,0.5,1.3c0,1.1-0.7,1.7-2,1.7
		C168.3,32.9,167.6,32.3,167.6,31.2z M171.5,45h-3.8V34h3.8V45z"/>
	<path class="st0" d="M180.5,33.8c0.3,0,0.6,0,0.9,0.1l0.2,0l-0.3,3.6c-0.3-0.1-0.7-0.1-1.3-0.1c-0.8,0-1.4,0.2-1.8,0.6
		s-0.6,0.9-0.6,1.6V45h-3.8V34h2.8l0.6,1.8h0.2c0.3-0.6,0.8-1.1,1.3-1.4S179.9,33.8,180.5,33.8z"/>
	<path class="st0" d="M188.2,42.2c0.5,0,1.1-0.1,1.8-0.4v2.8c-0.5,0.2-1,0.4-1.5,0.5c-0.5,0.1-1,0.1-1.6,0.1c-1.3,0-2.2-0.3-2.8-0.9
		s-0.8-1.6-0.8-2.9v-4.6H182v-1.6l1.7-1.2l1-2.3h2.5V34h2.7v2.9h-2.7v4.3C187.2,41.9,187.5,42.2,188.2,42.2z"/>
	<path class="st0" d="M198.6,45v-6c0-1.5-0.4-2.2-1.3-2.2c-0.6,0-1.1,0.3-1.4,0.8s-0.4,1.4-0.4,2.6V45h-3.8V29.8h3.8V32
		c0,1-0.1,2.1-0.2,3.3h0.2c0.4-0.6,0.8-1,1.3-1.2s1.1-0.4,1.7-0.4c1.2,0,2.2,0.4,2.9,1.1s1,1.7,1,3V45H198.6z"/>
	<path class="st0" d="M220,39.5c0,1.8-0.5,3.2-1.5,4.2s-2.3,1.5-4.1,1.5c-1.7,0-3-0.5-4-1.6s-1.5-2.4-1.5-4.2c0-1.8,0.5-3.2,1.5-4.2
		s2.3-1.5,4.1-1.5c1.1,0,2,0.2,2.9,0.7s1.5,1.1,1.9,2S220,38.3,220,39.5z M212.8,39.5c0,1,0.1,1.7,0.4,2.2s0.7,0.7,1.3,0.7
		c0.6,0,1-0.2,1.3-0.7s0.4-1.2,0.4-2.2c0-0.9-0.1-1.7-0.4-2.1s-0.7-0.7-1.3-0.7c-0.6,0-1,0.2-1.3,0.7S212.8,38.5,212.8,39.5z"/>
	<path class="st0" d="M228.5,36.8h-2.4V45h-3.8v-8.2h-1.5V35l1.5-0.9v-0.2c0-1.5,0.3-2.5,0.9-3.1s1.6-1,2.9-1c0.5,0,1,0,1.4,0.1
		s1,0.2,1.6,0.4l-0.8,2.5c-0.5-0.1-0.9-0.2-1.4-0.2c-0.3,0-0.5,0.1-0.6,0.3s-0.2,0.5-0.2,0.9V34h2.4V36.8z"/>
	<path class="st0" d="M239.9,42.2c0.5,0,1.1-0.1,1.8-0.4v2.8c-0.5,0.2-1,0.4-1.5,0.5c-0.5,0.1-1,0.1-1.6,0.1c-1.3,0-2.2-0.3-2.8-0.9
		s-0.8-1.6-0.8-2.9v-4.6h-1.3v-1.6l1.7-1.2l1-2.3h2.5V34h2.7v2.9h-2.7v4.3C238.8,41.9,239.2,42.2,239.9,42.2z"/>
	<path class="st0" d="M250.2,45v-6c0-1.5-0.4-2.2-1.3-2.2c-0.6,0-1.1,0.3-1.4,0.8s-0.4,1.4-0.4,2.6V45h-3.8V29.8h3.8V32
		c0,1-0.1,2.1-0.2,3.3h0.2c0.4-0.6,0.8-1,1.3-1.2s1.1-0.4,1.7-0.4c1.2,0,2.2,0.4,2.9,1.1s1,1.7,1,3V45H250.2z"/>
	<path class="st0" d="M261.6,45.2c-1.8,0-3.3-0.5-4.3-1.5s-1.5-2.4-1.5-4.2c0-1.9,0.5-3.3,1.4-4.3s2.3-1.5,4-1.5
		c1.7,0,3,0.4,3.9,1.3s1.4,2.1,1.4,3.8v1.7h-6.8c0,0.6,0.3,1.1,0.7,1.5s1,0.5,1.7,0.5c0.7,0,1.3-0.1,1.9-0.2s1.2-0.3,1.8-0.6v2.7
		c-0.6,0.3-1.2,0.5-1.9,0.6S262.5,45.2,261.6,45.2z M261.4,36.4c-0.4,0-0.8,0.1-1.1,0.4s-0.5,0.7-0.5,1.3h3.3c0-0.5-0.2-1-0.5-1.3
		S261.9,36.4,261.4,36.4z"/>
	<path class="st0" d="M285.4,30.8v8.6c0,1.9-0.5,3.3-1.6,4.3s-2.6,1.5-4.6,1.5c-1.9,0-3.4-0.5-4.5-1.5s-1.6-2.4-1.6-4.3v-8.7h3.9
		v8.4c0,1,0.2,1.7,0.6,2.2s0.9,0.7,1.7,0.7c0.8,0,1.4-0.2,1.7-0.7s0.5-1.2,0.5-2.2v-8.4H285.4z"/>
	<path class="st0" d="M287.3,43.4c0-0.6,0.2-1.1,0.5-1.4s0.9-0.5,1.5-0.5c0.6,0,1.1,0.2,1.5,0.5s0.5,0.8,0.5,1.4
		c0,0.6-0.2,1-0.5,1.4c-0.4,0.3-0.8,0.5-1.5,0.5c-0.6,0-1.2-0.2-1.5-0.5C287.5,44.5,287.3,44,287.3,43.4z"/>
	<path class="st0" d="M302.8,40.7c0,0.9-0.2,1.7-0.7,2.4s-1.1,1.2-1.9,1.6s-1.8,0.6-3,0.6c-1,0-1.7-0.1-2.4-0.2
		c-0.6-0.1-1.3-0.4-2-0.7v-3.4c0.7,0.4,1.5,0.7,2.3,0.9s1.5,0.3,2.2,0.3c0.6,0,1-0.1,1.3-0.3s0.4-0.5,0.4-0.8c0-0.2-0.1-0.4-0.2-0.5
		s-0.3-0.3-0.5-0.4s-0.9-0.5-1.9-0.9c-0.9-0.4-1.6-0.8-2.1-1.2s-0.8-0.9-1-1.4s-0.3-1.1-0.3-1.8c0-1.3,0.5-2.3,1.4-3.1
		s2.3-1.1,3.9-1.1c1.5,0,3,0.3,4.5,1l-1.2,3c-1.3-0.6-2.5-0.9-3.5-0.9c-0.5,0-0.9,0.1-1.1,0.3s-0.3,0.4-0.3,0.7
		c0,0.3,0.1,0.5,0.4,0.8s1.1,0.6,2.4,1.2c1.2,0.6,2.1,1.1,2.6,1.8S302.8,39.7,302.8,40.7z"/>
	<path class="st0" d="M303.9,43.4c0-0.6,0.2-1.1,0.5-1.4s0.9-0.5,1.5-0.5c0.6,0,1.1,0.2,1.5,0.5s0.5,0.8,0.5,1.4
		c0,0.6-0.2,1-0.5,1.4c-0.4,0.3-0.8,0.5-1.5,0.5c-0.6,0-1.2-0.2-1.5-0.5C304.1,44.5,303.9,44,303.9,43.4z"/>
	<path class="st0" d="M323.5,45l-0.7-2.7h-4.6l-0.7,2.7h-4.2l4.7-14.3h5.1l4.7,14.3H323.5z M322,39.2l-0.6-2.3
		c-0.1-0.5-0.3-1.2-0.5-2s-0.3-1.4-0.4-1.8c-0.1,0.3-0.2,0.9-0.3,1.6s-0.6,2.3-1.1,4.5H322z"/>
	<path class="st0" d="M328.6,31.2c0-0.6,0.2-1,0.5-1.3s0.8-0.4,1.5-0.4s1.2,0.1,1.6,0.4s0.5,0.7,0.5,1.3c0,1.1-0.7,1.7-2,1.7
		C329.3,32.9,328.6,32.3,328.6,31.2z M332.5,45h-3.8V34h3.8V45z"/>
	<path class="st0" d="M341.4,33.8c0.3,0,0.6,0,0.9,0.1l0.2,0l-0.3,3.6c-0.3-0.1-0.7-0.1-1.3-0.1c-0.8,0-1.4,0.2-1.8,0.6
		s-0.6,0.9-0.6,1.6V45h-3.8V34h2.8l0.6,1.8h0.2c0.3-0.6,0.8-1.1,1.3-1.4S340.9,33.8,341.4,33.8z"/>
	<path class="st0" d="M352.6,45h-3.8V30.8h8.4v3.1h-4.6v2.7h4.3v3.1h-4.3V45z"/>
	<path class="st0" d="M369.5,39.5c0,1.8-0.5,3.2-1.5,4.2c-1,1-2.3,1.5-4.1,1.5c-1.7,0-3-0.5-4-1.6s-1.5-2.4-1.5-4.2
		c0-1.8,0.5-3.2,1.5-4.2s2.3-1.5,4.1-1.5c1.1,0,2,0.2,2.9,0.7c0.8,0.5,1.5,1.1,1.9,2C369.3,37.3,369.5,38.3,369.5,39.5z M362.3,39.5
		c0,1,0.1,1.7,0.4,2.2s0.7,0.7,1.3,0.7c0.6,0,1-0.2,1.3-0.7s0.4-1.2,0.4-2.2c0-0.9-0.1-1.7-0.4-2.1c-0.2-0.5-0.7-0.7-1.3-0.7
		c-0.6,0-1,0.2-1.3,0.7S362.3,38.5,362.3,39.5z"/>
	<path class="st0" d="M378,33.8c0.3,0,0.6,0,0.9,0.1l0.2,0l-0.3,3.6c-0.3-0.1-0.7-0.1-1.3-0.1c-0.8,0-1.4,0.2-1.8,0.6
		s-0.6,0.9-0.6,1.6V45h-3.8V34h2.8l0.6,1.8h0.2c0.3-0.6,0.8-1.1,1.3-1.4S377.4,33.8,378,33.8z"/>
	<path class="st0" d="M385.3,45.2c-1.8,0-3.2-0.5-4.1-1.5s-1.4-2.4-1.4-4.2c0-1.8,0.5-3.3,1.5-4.3s2.4-1.5,4.3-1.5
		c1.3,0,2.5,0.3,3.6,0.8l-1.1,2.8c-0.5-0.2-0.9-0.4-1.3-0.5s-0.8-0.2-1.2-0.2c-0.6,0-1.1,0.2-1.4,0.7s-0.5,1.2-0.5,2
		c0,1.8,0.7,2.7,2,2.7c1.1,0,2.2-0.3,3.2-1v3C387.9,44.9,386.7,45.2,385.3,45.2z"/>
	<path class="st0" d="M396,45.2c-1.8,0-3.3-0.5-4.3-1.5s-1.5-2.4-1.5-4.2c0-1.9,0.5-3.3,1.4-4.3s2.3-1.5,4-1.5c1.7,0,3,0.4,3.9,1.3
		s1.4,2.1,1.4,3.8v1.7H394c0,0.6,0.3,1.1,0.7,1.5s1,0.5,1.7,0.5c0.7,0,1.3-0.1,1.9-0.2s1.2-0.3,1.8-0.6v2.7
		c-0.6,0.3-1.2,0.5-1.9,0.6S396.9,45.2,396,45.2z M395.8,36.4c-0.4,0-0.8,0.1-1.1,0.4s-0.5,0.7-0.5,1.3h3.3c0-0.5-0.2-1-0.5-1.3
		S396.3,36.4,395.8,36.4z"/>
	<path class="st0" d="M402.1,43.4c0-0.6,0.2-1.1,0.5-1.4s0.9-0.5,1.5-0.5c0.6,0,1.1,0.2,1.5,0.5s0.5,0.8,0.5,1.4
		c0,0.6-0.2,1-0.5,1.4c-0.4,0.3-0.8,0.5-1.5,0.5c-0.6,0-1.2-0.2-1.5-0.5C402.3,44.5,402.1,44,402.1,43.4z"/>
</g>
<g>
	<path class="st0" d="M28,67h-8.5V52.8H28v3.1h-4.6v2.2h4.3v3.1h-4.3v2.7H28V67z"/>
	<path class="st0" d="M38.5,63.6c0,1.2-0.4,2.1-1.2,2.7s-2,0.9-3.5,0.9c-0.8,0-1.5,0-2.1-0.1s-1.2-0.2-1.9-0.5v-3.1
		c0.6,0.3,1.2,0.5,1.9,0.6s1.3,0.3,1.9,0.3c0.8,0,1.2-0.2,1.2-0.6c0-0.2-0.1-0.4-0.3-0.5s-0.9-0.5-2-0.9c-1-0.4-1.7-0.9-2.1-1.4
		s-0.6-1.2-0.6-2c0-1,0.4-1.8,1.2-2.4s1.9-0.9,3.4-0.9c0.7,0,1.4,0.1,2.1,0.2s1.3,0.4,2,0.7l-1,2.5c-0.5-0.2-1-0.4-1.6-0.6
		s-1-0.2-1.4-0.2c-0.6,0-0.9,0.2-0.9,0.5c0,0.2,0.1,0.3,0.3,0.5s0.8,0.4,1.9,0.8c0.8,0.3,1.4,0.6,1.7,0.9s0.7,0.7,0.8,1.1
		S38.5,63,38.5,63.6z"/>
	<path class="st0" d="M45.6,64.2c0.5,0,1.1-0.1,1.8-0.4v2.8c-0.5,0.2-1,0.4-1.5,0.5s-1,0.1-1.6,0.1c-1.3,0-2.2-0.3-2.8-0.9
		s-0.8-1.6-0.8-2.9v-4.6h-1.3v-1.6l1.7-1.2l1-2.3h2.5V56h2.7v2.9h-2.7v4.3C44.6,63.9,44.9,64.2,45.6,64.2z"/>
	<path class="st0" d="M56.2,67l-0.7-1.5h-0.1c-0.5,0.6-1,1.1-1.6,1.3s-1.2,0.4-2.1,0.4c-1,0-1.9-0.3-2.5-0.9s-0.9-1.5-0.9-2.6
		c0-1.2,0.4-2.1,1.2-2.6s2-0.9,3.6-1L55,60v-0.2c0-0.9-0.4-1.4-1.3-1.4c-0.8,0-1.8,0.3-3.1,0.8l-1.1-2.5c1.3-0.7,2.9-1,4.9-1
		c1.4,0,2.5,0.4,3.3,1.1s1.2,1.7,1.2,2.9V67H56.2z M53.4,64.5c0.5,0,0.9-0.1,1.2-0.4s0.5-0.7,0.5-1.1v-0.9l-0.9,0
		c-1.3,0-1.9,0.5-1.9,1.4C52.3,64.2,52.7,64.5,53.4,64.5z"/>
	<path class="st0" d="M67.8,55.8c1.2,0,2.2,0.5,2.9,1.5s1.1,2.4,1.1,4.2c0,1.8-0.4,3.2-1.1,4.2s-1.7,1.5-3,1.5c-0.4,0-0.8,0-1.1-0.1
		s-0.6-0.2-0.9-0.4s-0.5-0.4-0.9-0.8h-0.2L64,67h-3V51.8h3.8v3.4c0,0.4,0,1.1-0.1,2.1h0.1c0.4-0.6,0.8-1,1.3-1.2
		S67.2,55.8,67.8,55.8z M66.4,58.8c-0.5,0-0.9,0.2-1.2,0.6s-0.4,1-0.4,1.7v0.5c0,0.9,0.1,1.6,0.4,1.9s0.7,0.6,1.2,0.6
		c0.4,0,0.8-0.2,1-0.7s0.4-1.1,0.4-2C67.9,59.7,67.4,58.8,66.4,58.8z"/>
	<path class="st0" d="M77.3,67h-3.8V51.8h3.8V67z"/>
	<path class="st0" d="M79.5,53.2c0-0.6,0.2-1,0.5-1.3s0.8-0.4,1.5-0.4s1.2,0.1,1.6,0.4s0.5,0.7,0.5,1.3c0,1.1-0.7,1.7-2,1.7
		C80.2,54.9,79.5,54.3,79.5,53.2z M83.4,67h-3.8V56h3.8V67z"/>
	<path class="st0" d="M94.2,63.6c0,1.2-0.4,2.1-1.2,2.7s-2,0.9-3.5,0.9c-0.8,0-1.5,0-2.1-0.1s-1.2-0.2-1.9-0.5v-3.1
		c0.6,0.3,1.2,0.5,1.9,0.6s1.3,0.3,1.9,0.3c0.8,0,1.2-0.2,1.2-0.6c0-0.2-0.1-0.4-0.3-0.5s-0.9-0.5-2-0.9c-1-0.4-1.7-0.9-2.1-1.4
		s-0.6-1.2-0.6-2c0-1,0.4-1.8,1.2-2.4s1.9-0.9,3.4-0.9c0.7,0,1.4,0.1,2.1,0.2s1.3,0.4,2,0.7l-1,2.5c-0.5-0.2-1-0.4-1.6-0.6
		s-1-0.2-1.4-0.2c-0.6,0-0.9,0.2-0.9,0.5c0,0.2,0.1,0.3,0.3,0.5s0.8,0.4,1.9,0.8c0.8,0.3,1.4,0.6,1.7,0.9s0.7,0.7,0.8,1.1
		S94.2,63,94.2,63.6z"/>
	<path class="st0" d="M102.9,67v-6c0-1.5-0.4-2.2-1.3-2.2c-0.6,0-1.1,0.3-1.4,0.8s-0.4,1.4-0.4,2.6V67H96V51.8h3.8V54
		c0,1-0.1,2.1-0.2,3.3h0.2c0.4-0.6,0.8-1,1.3-1.2s1.1-0.4,1.7-0.4c1.2,0,2.2,0.4,2.9,1.1s1,1.7,1,3V67H102.9z"/>
	<path class="st0" d="M114.3,67.2c-1.8,0-3.3-0.5-4.3-1.5s-1.5-2.4-1.5-4.2c0-1.9,0.5-3.3,1.4-4.3s2.3-1.5,4-1.5
		c1.7,0,3,0.4,3.9,1.3s1.4,2.1,1.4,3.8v1.7h-6.8c0,0.6,0.3,1.1,0.7,1.5s1,0.5,1.7,0.5c0.7,0,1.3-0.1,1.9-0.2s1.2-0.3,1.8-0.6v2.7
		c-0.6,0.3-1.2,0.5-1.9,0.6S115.2,67.2,114.3,67.2z M114.1,58.4c-0.4,0-0.8,0.1-1.1,0.4s-0.5,0.7-0.5,1.3h3.3c0-0.5-0.2-1-0.5-1.3
		S114.6,58.4,114.1,58.4z"/>
	<path class="st0" d="M124.4,67.2c-0.8,0-1.5-0.2-2.1-0.7s-1-1.1-1.4-2s-0.5-1.9-0.5-3.1c0-1.8,0.4-3.2,1.1-4.2s1.7-1.5,3-1.5
		c0.6,0,1.2,0.1,1.6,0.4s0.9,0.7,1.3,1.2h0.1c-0.1-0.9-0.2-1.7-0.2-2.6v-3h3.8V67h-2.9l-0.8-1.4h-0.1
		C126.7,66.7,125.7,67.2,124.4,67.2z M125.9,64.2c0.6,0,1-0.2,1.3-0.6s0.4-1,0.4-1.8v-0.3c0-1-0.1-1.7-0.4-2.1s-0.7-0.6-1.3-0.6
		c-0.5,0-0.9,0.2-1.2,0.7s-0.4,1.1-0.4,2c0,0.9,0.1,1.5,0.4,2S125.4,64.2,125.9,64.2z"/>
	<path class="st0" d="M146.1,67h-3.9v-7.6c0-0.9,0-1.8,0.1-2.5c-0.2,0.3-0.5,0.6-0.9,0.9l-1.6,1.3l-2-2.5l4.9-4h3.5V67z"/>
	<path class="st0" d="M159.3,59.3c0,2.8-0.6,4.8-1.8,6.1s-3.1,1.9-5.8,1.9c-0.9,0-1.5,0-2-0.1v-3.1c0.6,0.1,1.1,0.2,1.7,0.2
		c1.4,0,2.4-0.3,3.2-0.9s1.2-1.5,1.2-2.7h-0.1c-0.3,0.5-0.5,0.8-0.8,1s-0.6,0.4-0.9,0.5s-0.8,0.2-1.3,0.2c-1.2,0-2.2-0.4-2.9-1.2
		s-1-2-1-3.4c0-1.6,0.5-2.8,1.4-3.7s2.1-1.3,3.7-1.3c1.7,0,3.1,0.6,4.1,1.7S159.3,57.2,159.3,59.3z M153.9,55.7
		c-0.4,0-0.8,0.2-1,0.5s-0.4,0.8-0.4,1.5c0,0.5,0.1,1,0.3,1.3s0.6,0.5,1,0.5c0.4,0,0.8-0.2,1.1-0.5s0.5-0.7,0.5-1.1
		c0-0.6-0.1-1.1-0.4-1.5S154.4,55.7,153.9,55.7z"/>
	<path class="st0" d="M171,64.3h-1.6V67h-3.8v-2.8h-5.7v-2.8l5.9-8.7h3.6v8.6h1.6V64.3z M165.6,61.4v-1.7c0-0.3,0-0.7,0-1.3
		s0-0.8,0.1-0.8h-0.1c-0.2,0.5-0.5,1-0.8,1.4l-1.6,2.4H165.6z"/>
	<path class="st0" d="M173,67l4.9-11.1h-6.2v-3.2H182V55l-5,12H173z"/>
	<path class="st0" d="M183.1,65.4c0-0.6,0.2-1.1,0.5-1.4s0.9-0.5,1.5-0.5c0.6,0,1.1,0.2,1.5,0.5s0.5,0.8,0.5,1.4
		c0,0.6-0.2,1-0.5,1.4s-0.8,0.5-1.5,0.5c-0.6,0-1.2-0.2-1.5-0.5S183.1,66,183.1,65.4z"/>
</g>
</svg>
