<?xml version="1.0" encoding="utf-8"?>
<!-- Generator: Adobe Illustrator 22.1.0, SVG Export Plug-In . SVG Version: 6.00 Build 0)  -->
<svg version="1.1" id="Layer_1" xmlns="http://www.w3.org/2000/svg" xmlns:xlink="http://www.w3.org/1999/xlink" x="0px" y="0px"
	 viewBox="0 0 728 90" style="enable-background:new 0 0 728 90;" xml:space="preserve">
<style type="text/css">
	.st0{fill:#FFFFFF;}
</style>
<g>
	<path class="st0" d="M24.6,51.2l2.5-5.3h4.2l-4.7,8.7v5.6h-3.9v-5.5L18,45.9h4.2L24.6,51.2z"/>
	<path class="st0" d="M42.8,54.6c0,1.8-0.5,3.2-1.5,4.2s-2.3,1.5-4.1,1.5c-1.7,0-3-0.5-4-1.6s-1.5-2.4-1.5-4.2
		c0-1.8,0.5-3.2,1.5-4.2s2.3-1.5,4.1-1.5c1.1,0,2,0.2,2.9,0.7s1.5,1.1,1.9,2S42.8,53.5,42.8,54.6z M35.6,54.6c0,1,0.1,1.7,0.4,2.2
		s0.7,0.7,1.3,0.7c0.6,0,1-0.2,1.3-0.7s0.4-1.2,0.4-2.2c0-0.9-0.1-1.7-0.4-2.1s-0.7-0.7-1.3-0.7c-0.6,0-1,0.2-1.3,0.7
		S35.6,53.7,35.6,54.6z"/>
	<path class="st0" d="M52.4,60.2l-0.5-1.4h-0.2c-0.3,0.5-0.8,0.9-1.3,1.2s-1.2,0.4-2,0.4c-1.2,0-2.2-0.4-2.8-1.1s-1-1.7-1-3v-7.2
		h3.8v6c0,0.7,0.1,1.3,0.3,1.6s0.5,0.6,1,0.6c0.7,0,1.1-0.3,1.4-0.8s0.4-1.4,0.4-2.6v-4.8h3.8v11.1H52.4z"/>
	<path class="st0" d="M69.3,60.2v-6c0-1.5-0.4-2.2-1.3-2.2c-0.6,0-1.1,0.3-1.4,0.8s-0.4,1.4-0.4,2.6v4.9h-3.8V45h3.8v2.2
		c0,1-0.1,2.1-0.2,3.3h0.2c0.4-0.6,0.8-1,1.3-1.2s1.1-0.4,1.7-0.4c1.2,0,2.2,0.4,2.9,1.1s1,1.7,1,3v7.2H69.3z"/>
	<path class="st0" d="M80.7,60.4c-1.8,0-3.3-0.5-4.3-1.5s-1.5-2.4-1.5-4.2c0-1.9,0.5-3.3,1.4-4.3s2.3-1.5,4-1.5c1.7,0,3,0.4,3.9,1.3
		s1.4,2.1,1.4,3.8v1.7h-6.8c0,0.6,0.3,1.1,0.7,1.5s1,0.5,1.7,0.5c0.7,0,1.3-0.1,1.9-0.2s1.2-0.3,1.8-0.6v2.7
		c-0.6,0.3-1.2,0.5-1.9,0.6S81.6,60.4,80.7,60.4z M80.5,51.5c-0.4,0-0.8,0.1-1.1,0.4s-0.5,0.7-0.5,1.3h3.3c0-0.5-0.2-1-0.5-1.3
		S81,51.5,80.5,51.5z"/>
	<path class="st0" d="M91.2,60.2h-3.8V45h3.8V60.2z"/>
	<path class="st0" d="M100.1,60.4c-0.6,0-1.1-0.1-1.5-0.3s-0.9-0.5-1.3-1h-0.2c0.1,0.8,0.2,1.3,0.2,1.4V65h-3.8V49.1h3.1l0.5,1.4
		h0.2c0.7-1.1,1.7-1.6,2.9-1.6c1.2,0,2.2,0.5,2.9,1.5s1,2.4,1,4.2c0,1.8-0.4,3.2-1.1,4.2S101.3,60.4,100.1,60.4z M98.8,51.9
		c-0.6,0-1,0.2-1.2,0.6s-0.3,1-0.4,1.8v0.3c0,1,0.1,1.6,0.4,2.1s0.7,0.6,1.2,0.6c0.5,0,0.8-0.2,1.1-0.6s0.3-1.1,0.3-2.1
		c0-1-0.1-1.6-0.3-2S99.3,51.9,98.8,51.9z"/>
	<path class="st0" d="M117.3,60.4c-0.6,0-1.1-0.1-1.5-0.3s-0.9-0.5-1.3-1h-0.2c0.1,0.8,0.2,1.3,0.2,1.4V65h-3.8V49.1h3.1l0.5,1.4
		h0.2c0.7-1.1,1.7-1.6,2.9-1.6c1.2,0,2.2,0.5,2.9,1.5s1,2.4,1,4.2c0,1.8-0.4,3.2-1.1,4.2S118.6,60.4,117.3,60.4z M116.1,51.9
		c-0.6,0-1,0.2-1.2,0.6s-0.3,1-0.4,1.8v0.3c0,1,0.1,1.6,0.4,2.1s0.7,0.6,1.2,0.6c0.5,0,0.8-0.2,1.1-0.6s0.3-1.1,0.3-2.1
		c0-1-0.1-1.6-0.3-2S116.6,51.9,116.1,51.9z"/>
	<path class="st0" d="M129.8,48.9c0.3,0,0.6,0,0.9,0.1l0.2,0l-0.3,3.6c-0.3-0.1-0.7-0.1-1.3-0.1c-0.8,0-1.4,0.2-1.8,0.6
		S127,54,127,54.7v5.4h-3.8V49.1h2.8l0.6,1.8h0.2c0.3-0.6,0.8-1.1,1.3-1.4S129.3,48.9,129.8,48.9z"/>
	<path class="st0" d="M142.7,54.6c0,1.8-0.5,3.2-1.5,4.2s-2.3,1.5-4.1,1.5c-1.7,0-3-0.5-4-1.6s-1.5-2.4-1.5-4.2
		c0-1.8,0.5-3.2,1.5-4.2s2.3-1.5,4.1-1.5c1.1,0,2,0.2,2.9,0.7s1.5,1.1,1.9,2S142.7,53.5,142.7,54.6z M135.5,54.6
		c0,1,0.1,1.7,0.4,2.2s0.7,0.7,1.3,0.7c0.6,0,1-0.2,1.3-0.7s0.4-1.2,0.4-2.2c0-0.9-0.1-1.7-0.4-2.1s-0.7-0.7-1.3-0.7
		c-0.6,0-1,0.2-1.3,0.7S135.5,53.7,135.5,54.6z"/>
	<path class="st0" d="M149.9,57.4c0.5,0,1.1-0.1,1.8-0.4v2.8c-0.5,0.2-1,0.4-1.5,0.5s-1,0.1-1.6,0.1c-1.3,0-2.2-0.3-2.8-0.9
		s-0.8-1.6-0.8-2.9V52h-1.3v-1.6l1.7-1.2l1-2.3h2.5v2.2h2.7V52h-2.7v4.3C148.9,57,149.2,57.4,149.9,57.4z"/>
	<path class="st0" d="M158.7,60.4c-1.8,0-3.3-0.5-4.3-1.5s-1.5-2.4-1.5-4.2c0-1.9,0.5-3.3,1.4-4.3s2.3-1.5,4-1.5
		c1.7,0,3,0.4,3.9,1.3s1.4,2.1,1.4,3.8v1.7h-6.8c0,0.6,0.3,1.1,0.7,1.5s1,0.5,1.7,0.5c0.7,0,1.3-0.1,1.9-0.2s1.2-0.3,1.8-0.6v2.7
		c-0.6,0.3-1.2,0.5-1.9,0.6S159.5,60.4,158.7,60.4z M158.4,51.5c-0.4,0-0.8,0.1-1.1,0.4s-0.5,0.7-0.5,1.3h3.3c0-0.5-0.2-1-0.5-1.3
		S158.9,51.5,158.4,51.5z"/>
	<path class="st0" d="M170.3,60.4c-1.8,0-3.2-0.5-4.1-1.5s-1.4-2.4-1.4-4.2c0-1.8,0.5-3.3,1.5-4.3s2.4-1.5,4.3-1.5
		c1.3,0,2.5,0.3,3.6,0.8l-1.1,2.8c-0.5-0.2-0.9-0.4-1.3-0.5s-0.8-0.2-1.2-0.2c-0.6,0-1.1,0.2-1.4,0.7s-0.5,1.2-0.5,2
		c0,1.8,0.7,2.7,2,2.7c1.1,0,2.2-0.3,3.2-1v3C172.9,60,171.7,60.4,170.3,60.4z"/>
	<path class="st0" d="M181.1,57.4c0.5,0,1.1-0.1,1.8-0.4v2.8c-0.5,0.2-1,0.4-1.5,0.5s-1,0.1-1.6,0.1c-1.3,0-2.2-0.3-2.8-0.9
		s-0.8-1.6-0.8-2.9V52h-1.3v-1.6l1.7-1.2l1-2.3h2.5v2.2h2.7V52H180v4.3C180,57,180.4,57.4,181.1,57.4z"/>
	<path class="st0" d="M194.7,57.4c0.5,0,1.1-0.1,1.8-0.4v2.8c-0.5,0.2-1,0.4-1.5,0.5s-1,0.1-1.6,0.1c-1.3,0-2.2-0.3-2.8-0.9
		s-0.8-1.6-0.8-2.9V52h-1.3v-1.6l1.7-1.2l1-2.3h2.5v2.2h2.7V52h-2.7v4.3C193.7,57,194,57.4,194.7,57.4z"/>
	<path class="st0" d="M205.1,60.2v-6c0-1.5-0.4-2.2-1.3-2.2c-0.6,0-1.1,0.3-1.4,0.8s-0.4,1.4-0.4,2.6v4.9h-3.8V45h3.8v2.2
		c0,1-0.1,2.1-0.2,3.3h0.2c0.4-0.6,0.8-1,1.3-1.2s1.1-0.4,1.7-0.4c1.2,0,2.2,0.4,2.9,1.1s1,1.7,1,3v7.2H205.1z"/>
	<path class="st0" d="M216.5,60.4c-1.8,0-3.3-0.5-4.3-1.5s-1.5-2.4-1.5-4.2c0-1.9,0.5-3.3,1.4-4.3s2.3-1.5,4-1.5
		c1.7,0,3,0.4,3.9,1.3s1.4,2.1,1.4,3.8v1.7h-6.8c0,0.6,0.3,1.1,0.7,1.5s1,0.5,1.7,0.5c0.7,0,1.3-0.1,1.9-0.2s1.2-0.3,1.8-0.6v2.7
		c-0.6,0.3-1.2,0.5-1.9,0.6S217.4,60.4,216.5,60.4z M216.2,51.5c-0.4,0-0.8,0.1-1.1,0.4s-0.5,0.7-0.5,1.3h3.3c0-0.5-0.2-1-0.5-1.3
		S216.7,51.5,216.2,51.5z"/>
	<path class="st0" d="M232.9,60.4c-1.8,0-3.2-0.5-4.1-1.5s-1.4-2.4-1.4-4.2c0-1.8,0.5-3.3,1.5-4.3s2.4-1.5,4.3-1.5
		c1.3,0,2.5,0.3,3.6,0.8l-1.1,2.8c-0.5-0.2-0.9-0.4-1.3-0.5s-0.8-0.2-1.2-0.2c-0.6,0-1.1,0.2-1.4,0.7s-0.5,1.2-0.5,2
		c0,1.8,0.7,2.7,2,2.7c1.1,0,2.2-0.3,3.2-1v3C235.5,60,234.3,60.4,232.9,60.4z"/>
	<path class="st0" d="M248.9,54.6c0,1.8-0.5,3.2-1.5,4.2s-2.3,1.5-4.1,1.5c-1.7,0-3-0.5-4-1.6s-1.5-2.4-1.5-4.2
		c0-1.8,0.5-3.2,1.5-4.2s2.3-1.5,4.1-1.5c1.1,0,2,0.2,2.9,0.7s1.5,1.1,1.9,2S248.9,53.5,248.9,54.6z M241.7,54.6
		c0,1,0.1,1.7,0.4,2.2s0.7,0.7,1.3,0.7c0.6,0,1-0.2,1.3-0.7s0.4-1.2,0.4-2.2c0-0.9-0.1-1.7-0.4-2.1s-0.7-0.7-1.3-0.7
		c-0.6,0-1,0.2-1.3,0.7S241.7,53.7,241.7,54.6z"/>
	<path class="st0" d="M258.5,60.2l-0.5-1.4h-0.2c-0.3,0.5-0.8,0.9-1.3,1.2s-1.2,0.4-2,0.4c-1.2,0-2.2-0.4-2.8-1.1s-1-1.7-1-3v-7.2
		h3.8v6c0,0.7,0.1,1.3,0.3,1.6s0.5,0.6,1,0.6c0.7,0,1.1-0.3,1.4-0.8s0.4-1.4,0.4-2.6v-4.8h3.8v11.1H258.5z"/>
	<path class="st0" d="M270.6,60.2v-6c0-0.7-0.1-1.3-0.3-1.7s-0.6-0.6-1-0.6c-0.6,0-1.1,0.3-1.4,0.8s-0.4,1.4-0.4,2.6v4.8h-3.8V49.1
		h2.9l0.5,1.4h0.2c0.3-0.5,0.8-0.9,1.4-1.2s1.2-0.4,2-0.4c1.2,0,2.2,0.4,2.9,1.1s1,1.7,1,3v7.2H270.6z"/>
	<path class="st0" d="M282.1,57.4c0.5,0,1.1-0.1,1.8-0.4v2.8c-0.5,0.2-1,0.4-1.5,0.5s-1,0.1-1.6,0.1c-1.3,0-2.2-0.3-2.8-0.9
		s-0.8-1.6-0.8-2.9V52h-1.3v-1.6l1.7-1.2l1-2.3h2.5v2.2h2.7V52h-2.7v4.3C281.1,57,281.4,57.4,282.1,57.4z"/>
	<path class="st0" d="M292.2,48.9c0.3,0,0.6,0,0.9,0.1l0.2,0l-0.3,3.6c-0.3-0.1-0.7-0.1-1.3-0.1c-0.8,0-1.4,0.2-1.8,0.6
		s-0.6,0.9-0.6,1.6v5.4h-3.8V49.1h2.8l0.6,1.8h0.2c0.3-0.6,0.8-1.1,1.3-1.4S291.6,48.9,292.2,48.9z"/>
	<path class="st0" d="M293.1,49.1h4l1.9,6.3c0.1,0.3,0.2,0.7,0.2,1.2h0.1c0.1-0.4,0.1-0.8,0.2-1.2l1.9-6.4h3.9L301,60.9
		c-0.6,1.5-1.2,2.6-2.1,3.2S297,65,295.7,65c-0.5,0-1-0.1-1.6-0.2v-3c0.3,0.1,0.7,0.1,1.2,0.1c0.3,0,0.6-0.1,0.9-0.2
		s0.5-0.3,0.7-0.6s0.4-0.6,0.6-1.2L293.1,49.1z"/>
	<path class="st0" d="M305.8,58.6c0-0.6,0.2-1.1,0.5-1.4s0.9-0.5,1.5-0.5c0.6,0,1.1,0.2,1.5,0.5s0.5,0.8,0.5,1.4
		c0,0.6-0.2,1-0.5,1.4s-0.8,0.5-1.5,0.5c-0.6,0-1.2-0.2-1.5-0.5S305.8,59.1,305.8,58.6z"/>
</g>
</svg>
