<?xml version="1.0" encoding="utf-8"?>
<!-- Generator: Adobe Illustrator 22.1.0, SVG Export Plug-In . SVG Version: 6.00 Build 0)  -->
<svg version="1.1" id="Layer_1" xmlns="http://www.w3.org/2000/svg" xmlns:xlink="http://www.w3.org/1999/xlink" x="0px" y="0px"
	 viewBox="0 0 728 90" style="enable-background:new 0 0 728 90;" xml:space="preserve">
<style type="text/css">
	.st0{fill:#FFFFFF;}
	.st1{fill:none;}
</style>
<polygon class="st0" points="484.3,35.4 504.9,35.4 510.1,50.9 507.7,50.9 503.2,37.7 483.6,37.6 "/>
<polygon class="st0" points="482.8,39.9 501.6,39.9 505.3,50.9 502.9,50.9 500,42.2 482.1,42.2 "/>
<polygon class="st0" points="481.5,44.7 475.3,63.7 477.2,65.1 482.8,46.8 496.8,46.8 497.6,44.7 "/>
<polygon class="st0" points="484.5,49 496.1,49 495.4,51.2 486.2,51.2 480.9,68 479.1,66.4 "/>
<polygon class="st0" points="483.2,69.6 499.8,81.1 501.5,79.7 485.7,68.6 489.8,55.4 487.8,54 "/>
<polygon class="st0" points="491.7,56.8 493.7,58 490.9,66.7 505,76.8 503.4,78.3 488.3,67.6 "/>
<polygon class="st0" points="507.2,73 495.6,65.1 494,66.3 507.1,75.7 523.7,63.6 522.9,61.4 "/>
<polygon class="st0" points="498,63.3 499.5,62.1 507.1,67.5 521.3,57.1 522.3,59.2 507.2,70.2 "/>
<polygon class="st0" points="506.9,62.2 507.7,64.3 520.7,54.9 514.1,35.4 511.9,35.4 518.2,54 "/>
<polygon class="st0" points="507.1,35.4 509.2,35.4 515.5,53.2 506.2,60 505.3,58.3 513.1,52.2 "/>
<polygon class="st0" points="482,8.7 480.5,11.2 478.9,8.7 477.1,8.7 477.1,15.1 478.8,15.1 478.8,11.4 480.4,13.9 480.5,13.9 
	482.1,11.4 482.1,15.1 483.9,15.1 483.9,8.7 "/>
<rect x="485.1" y="8.7" class="st0" width="1.8" height="6.4"/>
<polygon class="st0" points="488,8.7 488,15.1 492.9,15.1 492.9,13.5 489.8,13.5 489.8,8.7 "/>
<rect x="493.8" y="8.7" class="st0" width="1.8" height="6.4"/>
<polygon class="st0" points="496.4,8.7 496.4,10.2 498.3,10.2 498.3,15.1 500.1,15.1 500.1,10.2 502,10.2 502,8.7 "/>
<path class="st0" d="M505,10.7l0.7,1.8h-1.4L505,10.7z M504.2,8.6l-2.7,6.5h1.9l0.5-1.1h2.5l0.5,1.1h1.9l-2.7-6.5H504.2z"/>
<path class="st0" d="M509.3,8.7h3c1,0,1.7,0.3,2.1,0.7c0.4,0.4,0.6,0.9,0.6,1.5v0c0,1-0.5,1.6-1.3,2l1.5,2.2h-2.1l-1.3-2h0h-0.8v2
	h-1.8V8.7z M512.2,11.8c0.6,0,1-0.3,1-0.8v0c0-0.5-0.4-0.8-1-0.8h-1.2v1.5H512.2z"/>
<polygon class="st0" points="517.5,12.7 515.1,8.7 517.1,8.7 518.4,11 519.8,8.7 521.8,8.7 519.3,12.7 519.3,15.1 517.5,15.1 "/>
<path class="st0" d="M477.1,17.4h3.7c0.9,0,1.5,0.2,1.9,0.6c0.3,0.3,0.5,0.7,0.5,1.2v0c0,0.8-0.5,1.3-1.1,1.6
	c0.9,0.3,1.4,0.8,1.4,1.7v0c0,1.2-1,2-2.7,2h-3.7V17.4z M480.3,20.2c0.6,0,0.9-0.2,0.9-0.6v0c0-0.4-0.3-0.6-0.9-0.6H479v1.3H480.3z
	 M480.6,22.9c0.6,0,0.9-0.2,0.9-0.7v0c0-0.4-0.3-0.6-1-0.6H479v1.3H480.6z"/>
<polygon class="st0" points="484.4,17.4 490.1,17.4 490.1,19.1 486.4,19.1 486.4,20.2 489.8,20.2 489.8,21.7 486.4,21.7 486.4,22.8 
	490.2,22.8 490.2,24.5 484.4,24.5 "/>
<polygon class="st0" points="491.2,17.4 493,17.4 496,21.2 496,17.4 497.9,17.4 497.9,24.5 496.2,24.5 493.1,20.6 493.1,24.5 
	491.2,24.5 "/>
<polygon class="st0" points="499.2,17.4 504.9,17.4 504.9,19.1 501.1,19.1 501.1,20.2 504.6,20.2 504.6,21.7 501.1,21.7 501.1,22.8 
	505,22.8 505,24.5 499.2,24.5 "/>
<polygon class="st0" points="506,17.4 511.7,17.4 511.7,19.1 508,19.1 508,20.3 511.3,20.3 511.3,22 508,22 508,24.5 506,24.5 "/>
<rect x="512.6" y="17.4" class="st0" width="2" height="7.1"/>
<polygon class="st0" points="517.6,19.1 515.5,19.1 515.5,17.4 521.8,17.4 521.8,19.1 519.6,19.1 519.6,24.5 517.6,24.5 "/>
<path class="st0" d="M478.4,26.8h1.2l1.9,4.4h-1.3l-0.3-0.8h-1.7l-0.3,0.8h-1.3L478.4,26.8z M479.4,29.5l-0.5-1.2l-0.5,1.2H479.4z"
	/>
<path class="st0" d="M481.4,30.6l0.7-0.8c0.4,0.3,0.9,0.5,1.4,0.5c0.3,0,0.5-0.1,0.5-0.3v0c0-0.2-0.1-0.3-0.7-0.4
	c-0.9-0.2-1.6-0.5-1.6-1.4v0c0-0.8,0.6-1.4,1.7-1.4c0.7,0,1.3,0.2,1.8,0.6l-0.6,0.9c-0.4-0.3-0.8-0.4-1.2-0.4
	c-0.3,0-0.4,0.1-0.4,0.3v0c0,0.2,0.1,0.3,0.8,0.4c1,0.2,1.6,0.5,1.6,1.4v0c0,0.9-0.7,1.4-1.8,1.4C482.7,31.3,482,31,481.4,30.6"/>
<path class="st0" d="M485.4,30.6l0.7-0.8c0.4,0.3,0.9,0.5,1.4,0.5c0.3,0,0.5-0.1,0.5-0.3v0c0-0.2-0.1-0.3-0.7-0.4
	c-0.9-0.2-1.6-0.5-1.6-1.4v0c0-0.8,0.6-1.4,1.7-1.4c0.7,0,1.3,0.2,1.8,0.6l-0.6,0.9c-0.4-0.3-0.8-0.4-1.2-0.4
	c-0.3,0-0.4,0.1-0.4,0.3v0c0,0.2,0.1,0.3,0.8,0.4c1,0.2,1.6,0.5,1.6,1.4v0c0,0.9-0.7,1.4-1.8,1.4C486.7,31.3,486,31,485.4,30.6"/>
<path class="st0" d="M489.7,29L489.7,29c0-1.3,1-2.3,2.4-2.3c1.3,0,2.3,1,2.3,2.3v0c0,1.3-1,2.3-2.4,2.3
	C490.7,31.3,489.7,30.3,489.7,29 M493.2,29L493.2,29c0-0.6-0.5-1.2-1.1-1.2c-0.7,0-1.1,0.5-1.1,1.2v0c0,0.6,0.5,1.2,1.1,1.2
	C492.7,30.2,493.2,29.7,493.2,29"/>
<path class="st0" d="M494.9,29L494.9,29c0-1.3,1-2.3,2.3-2.3c0.9,0,1.5,0.4,1.9,0.9l-0.9,0.7c-0.2-0.3-0.5-0.5-1-0.5
	c-0.6,0-1,0.5-1,1.2v0c0,0.7,0.4,1.2,1,1.2c0.5,0,0.7-0.2,1-0.5l0.9,0.7c-0.4,0.6-1,1-1.9,1C495.9,31.3,494.9,30.3,494.9,29"/>
<rect x="499.6" y="26.8" class="st0" width="1.2" height="4.4"/>
<path class="st0" d="M503.1,26.8h1.2l1.9,4.4h-1.3l-0.3-0.8h-1.7l-0.3,0.8h-1.3L503.1,26.8z M504.2,29.5l-0.5-1.2l-0.5,1.2H504.2z"
	/>
<polygon class="st0" points="507.1,27.9 505.8,27.9 505.8,26.8 509.6,26.8 509.6,27.9 508.3,27.9 508.3,31.2 507.1,31.2 "/>
<rect x="510.2" y="26.8" class="st0" width="1.2" height="4.4"/>
<path class="st0" d="M512,29L512,29c0-1.3,1-2.3,2.4-2.3c1.3,0,2.3,1,2.3,2.3v0c0,1.3-1,2.3-2.4,2.3C513,31.3,512,30.3,512,29
	 M515.5,29L515.5,29c0-0.6-0.5-1.2-1.1-1.2c-0.7,0-1.1,0.5-1.1,1.2v0c0,0.6,0.5,1.2,1.1,1.2C515.1,30.2,515.5,29.7,515.5,29"/>
<polygon class="st0" points="517.4,26.8 518.5,26.8 520.3,29.1 520.3,26.8 521.5,26.8 521.5,31.2 520.4,31.2 518.6,28.8 518.6,31.2 
	517.4,31.2 "/>
<rect x="475.3" y="8.6" class="st1" width="48.5" height="72.5"/>
</svg>
