<?xml version="1.0" encoding="utf-8"?>
<!-- Generator: Adobe Illustrator 22.1.0, SVG Export Plug-In . SVG Version: 6.00 Build 0)  -->
<svg version="1.1" id="Layer_1" xmlns="http://www.w3.org/2000/svg" xmlns:xlink="http://www.w3.org/1999/xlink" x="0px" y="0px"
	 viewBox="0 0 728 90" style="enable-background:new 0 0 728 90;" xml:space="preserve">
<style type="text/css">
	.st0{fill:#FFFFFF;}
</style>
<g>
	<path class="st0" d="M230.5,72.2h2.9v3.9c-0.5,0.2-0.9,0.3-1.4,0.3c-0.4,0.1-0.9,0.1-1.4,0.1c-1.2,0-2.1-0.4-2.8-1.1
		c-0.6-0.7-1-1.7-1-3c0-1.3,0.4-2.3,1.1-3c0.7-0.7,1.7-1.1,3-1.1c0.8,0,1.6,0.2,2.3,0.5l-0.5,1.1c-0.6-0.3-1.3-0.4-1.9-0.4
		c-0.8,0-1.5,0.3-2,0.8c-0.5,0.5-0.7,1.2-0.7,2.2c0,1,0.2,1.7,0.7,2.2c0.4,0.5,1.1,0.7,1.9,0.7c0.4,0,0.9-0.1,1.3-0.2v-2h-1.6V72.2z
		"/>
	<path class="st0" d="M237.5,76.5c-0.9,0-1.6-0.3-2.2-0.8c-0.5-0.5-0.8-1.3-0.8-2.2c0-1,0.2-1.7,0.7-2.3c0.5-0.6,1.1-0.8,2-0.8
		c0.8,0,1.4,0.2,1.9,0.7c0.5,0.5,0.7,1.1,0.7,2v0.7h-4c0,0.6,0.2,1,0.5,1.3s0.7,0.5,1.2,0.5c0.4,0,0.7,0,1-0.1
		c0.3-0.1,0.6-0.2,1-0.3v1c-0.3,0.1-0.6,0.2-0.9,0.3C238.3,76.5,237.9,76.5,237.5,76.5z M237.3,71.3c-0.4,0-0.7,0.1-1,0.4
		c-0.2,0.3-0.4,0.6-0.4,1.1h2.7c0-0.5-0.1-0.9-0.4-1.1C238,71.5,237.7,71.3,237.3,71.3z"/>
	<path class="st0" d="M243.2,75.5c0.3,0,0.6,0,0.9-0.1v1c-0.1,0.1-0.3,0.1-0.5,0.2c-0.2,0-0.4,0.1-0.7,0.1c-1.2,0-1.8-0.6-1.8-1.9
		v-3.2h-0.8v-0.6l0.9-0.5l0.4-1.3h0.8v1.3h1.7v1h-1.7v3.2c0,0.3,0.1,0.5,0.2,0.7C242.8,75.4,243,75.5,243.2,75.5z"/>
	<path class="st0" d="M249.1,76.4h-1.3v-8.4h1.3V76.4z"/>
	<path class="st0" d="M250.6,68.9c0-0.2,0.1-0.4,0.2-0.5c0.1-0.1,0.3-0.2,0.5-0.2c0.2,0,0.4,0.1,0.5,0.2c0.1,0.1,0.2,0.3,0.2,0.5
		c0,0.2-0.1,0.4-0.2,0.5c-0.1,0.1-0.3,0.2-0.5,0.2c-0.2,0-0.4-0.1-0.5-0.2C250.6,69.3,250.6,69.1,250.6,68.9z M251.9,76.4h-1.3v-5.9
		h1.3V76.4z"/>
	<path class="st0" d="M256.5,71.4H255v5h-1.3v-5h-1v-0.6l1-0.4v-0.4c0-0.7,0.2-1.2,0.5-1.6c0.3-0.3,0.8-0.5,1.5-0.5
		c0.4,0,0.9,0.1,1.3,0.2l-0.3,1c-0.3-0.1-0.6-0.2-0.9-0.2c-0.3,0-0.5,0.1-0.6,0.3c-0.1,0.2-0.2,0.4-0.2,0.8v0.4h1.5V71.4z"/>
	<path class="st0" d="M259.9,76.5c-0.9,0-1.6-0.3-2.2-0.8c-0.5-0.5-0.8-1.3-0.8-2.2c0-1,0.2-1.7,0.7-2.3c0.5-0.6,1.1-0.8,2-0.8
		c0.8,0,1.4,0.2,1.9,0.7c0.5,0.5,0.7,1.1,0.7,2v0.7h-4c0,0.6,0.2,1,0.5,1.3s0.7,0.5,1.2,0.5c0.4,0,0.7,0,1-0.1
		c0.3-0.1,0.6-0.2,1-0.3v1c-0.3,0.1-0.6,0.2-0.9,0.3C260.6,76.5,260.3,76.5,259.9,76.5z M259.6,71.3c-0.4,0-0.7,0.1-1,0.4
		c-0.2,0.3-0.4,0.6-0.4,1.1h2.7c0-0.5-0.1-0.9-0.4-1.1C260.4,71.5,260.1,71.3,259.6,71.3z"/>
	<path class="st0" d="M266,68.9c0-0.2,0.1-0.4,0.2-0.5c0.1-0.1,0.3-0.2,0.5-0.2c0.2,0,0.4,0.1,0.5,0.2c0.1,0.1,0.2,0.3,0.2,0.5
		c0,0.2-0.1,0.4-0.2,0.5c-0.1,0.1-0.3,0.2-0.5,0.2c-0.2,0-0.4-0.1-0.5-0.2C266,69.3,266,69.1,266,68.9z M267.3,76.4h-1.3v-5.9h1.3
		V76.4z"/>
	<path class="st0" d="M274.1,76.4h-1.3v-3.7c0-0.5-0.1-0.8-0.3-1c-0.2-0.2-0.5-0.3-0.9-0.3c-0.5,0-0.9,0.2-1.2,0.5s-0.4,0.8-0.4,1.6
		v3h-1.3v-5.9h1l0.2,0.8h0.1c0.2-0.3,0.4-0.5,0.8-0.7c0.3-0.2,0.7-0.2,1.1-0.2c1.4,0,2.1,0.7,2.1,2.2V76.4z"/>
	<path class="st0" d="M279.7,74.7c0,0.6-0.2,1-0.6,1.3s-1,0.5-1.8,0.5c-0.8,0-1.4-0.1-1.9-0.4v-1.1c0.7,0.3,1.3,0.5,1.9,0.5
		c0.8,0,1.2-0.2,1.2-0.7c0-0.2,0-0.3-0.1-0.4c-0.1-0.1-0.2-0.2-0.4-0.3s-0.5-0.2-0.8-0.4c-0.7-0.3-1.1-0.5-1.4-0.8
		c-0.2-0.3-0.4-0.6-0.4-1c0-0.5,0.2-0.9,0.6-1.2c0.4-0.3,1-0.4,1.7-0.4c0.7,0,1.4,0.1,2,0.4l-0.4,1c-0.6-0.3-1.2-0.4-1.6-0.4
		c-0.7,0-1,0.2-1,0.6c0,0.2,0.1,0.3,0.3,0.5c0.2,0.1,0.6,0.3,1.1,0.5c0.5,0.2,0.8,0.4,1.1,0.5s0.4,0.3,0.5,0.5
		S279.7,74.4,279.7,74.7z"/>
	<path class="st0" d="M285,76.4l-0.2-0.8h-0.1c-0.2,0.3-0.4,0.5-0.7,0.7c-0.3,0.2-0.7,0.2-1.1,0.2c-0.7,0-1.3-0.2-1.6-0.5
		s-0.5-0.9-0.5-1.6v-3.9h1.3v3.7c0,0.5,0.1,0.8,0.3,1s0.5,0.3,0.9,0.3c0.5,0,0.9-0.2,1.2-0.5c0.2-0.3,0.4-0.8,0.4-1.6v-3h1.3v5.9
		H285z"/>
	<path class="st0" d="M290.6,70.4c0.3,0,0.5,0,0.6,0.1l-0.1,1.2c-0.2,0-0.4-0.1-0.6-0.1c-0.5,0-0.9,0.2-1.2,0.5
		c-0.3,0.3-0.5,0.8-0.5,1.3v3.1h-1.3v-5.9h1l0.2,1h0.1c0.2-0.4,0.5-0.6,0.8-0.8C289.9,70.5,290.3,70.4,290.6,70.4z"/>
	<path class="st0" d="M295.8,76.4l-0.3-0.8h0c-0.3,0.4-0.6,0.6-0.9,0.7s-0.7,0.2-1.1,0.2c-0.6,0-1-0.2-1.4-0.5
		c-0.3-0.3-0.5-0.8-0.5-1.3c0-0.6,0.2-1.1,0.7-1.4c0.5-0.3,1.1-0.5,2.1-0.5l1,0v-0.3c0-0.4-0.1-0.7-0.3-0.9
		c-0.2-0.2-0.5-0.3-0.8-0.3c-0.3,0-0.6,0-0.9,0.1c-0.3,0.1-0.5,0.2-0.8,0.3l-0.4-0.9c0.3-0.2,0.7-0.3,1.1-0.4s0.7-0.1,1.1-0.1
		c0.8,0,1.3,0.2,1.7,0.5c0.4,0.3,0.6,0.8,0.6,1.6v4H295.8z M294,75.6c0.5,0,0.8-0.1,1.1-0.4c0.3-0.3,0.4-0.6,0.4-1.1v-0.5l-0.8,0
		c-0.6,0-1,0.1-1.3,0.3c-0.3,0.2-0.4,0.4-0.4,0.8c0,0.3,0.1,0.5,0.2,0.6C293.4,75.5,293.6,75.6,294,75.6z"/>
	<path class="st0" d="M303.5,76.4h-1.3v-3.7c0-0.5-0.1-0.8-0.3-1c-0.2-0.2-0.5-0.3-0.9-0.3c-0.5,0-0.9,0.2-1.2,0.5s-0.4,0.8-0.4,1.6
		v3h-1.3v-5.9h1l0.2,0.8h0.1c0.2-0.3,0.4-0.5,0.8-0.7c0.3-0.2,0.7-0.2,1.1-0.2c1.4,0,2.1,0.7,2.1,2.2V76.4z"/>
	<path class="st0" d="M307.5,76.5c-0.9,0-1.6-0.3-2-0.8c-0.5-0.5-0.7-1.3-0.7-2.3c0-1,0.2-1.8,0.7-2.3c0.5-0.5,1.2-0.8,2.1-0.8
		c0.6,0,1.2,0.1,1.7,0.3l-0.4,1c-0.5-0.2-1-0.3-1.3-0.3c-1,0-1.5,0.7-1.5,2c0,0.7,0.1,1.2,0.4,1.5c0.3,0.3,0.6,0.5,1.1,0.5
		c0.6,0,1.1-0.1,1.6-0.4v1.1c-0.2,0.1-0.5,0.2-0.7,0.3C308.1,76.5,307.8,76.5,307.5,76.5z"/>
	<path class="st0" d="M312.9,76.5c-0.9,0-1.6-0.3-2.2-0.8c-0.5-0.5-0.8-1.3-0.8-2.2c0-1,0.2-1.7,0.7-2.3c0.5-0.6,1.1-0.8,2-0.8
		c0.8,0,1.4,0.2,1.9,0.7c0.5,0.5,0.7,1.1,0.7,2v0.7h-4c0,0.6,0.2,1,0.5,1.3s0.7,0.5,1.2,0.5c0.4,0,0.7,0,1-0.1
		c0.3-0.1,0.6-0.2,1-0.3v1c-0.3,0.1-0.6,0.2-0.9,0.3C313.6,76.5,313.3,76.5,312.9,76.5z M312.7,71.3c-0.4,0-0.7,0.1-1,0.4
		c-0.2,0.3-0.4,0.6-0.4,1.1h2.7c0-0.5-0.1-0.9-0.4-1.1C313.4,71.5,313.1,71.3,312.7,71.3z"/>
	<path class="st0" d="M322.8,76.4l-0.3-0.8h0c-0.3,0.4-0.6,0.6-0.9,0.7s-0.7,0.2-1.1,0.2c-0.6,0-1-0.2-1.4-0.5
		c-0.3-0.3-0.5-0.8-0.5-1.3c0-0.6,0.2-1.1,0.7-1.4c0.5-0.3,1.1-0.5,2.1-0.5l1,0v-0.3c0-0.4-0.1-0.7-0.3-0.9
		c-0.2-0.2-0.5-0.3-0.8-0.3c-0.3,0-0.6,0-0.9,0.1c-0.3,0.1-0.5,0.2-0.8,0.3l-0.4-0.9c0.3-0.2,0.7-0.3,1.1-0.4s0.7-0.1,1.1-0.1
		c0.8,0,1.3,0.2,1.7,0.5c0.4,0.3,0.6,0.8,0.6,1.6v4H322.8z M320.9,75.6c0.5,0,0.8-0.1,1.1-0.4c0.3-0.3,0.4-0.6,0.4-1.1v-0.5l-0.8,0
		c-0.6,0-1,0.1-1.3,0.3c-0.3,0.2-0.4,0.4-0.4,0.8c0,0.3,0.1,0.5,0.2,0.6C320.3,75.5,320.6,75.6,320.9,75.6z"/>
	<path class="st0" d="M327.4,75.5c0.3,0,0.6,0,0.9-0.1v1c-0.1,0.1-0.3,0.1-0.5,0.2c-0.2,0-0.4,0.1-0.7,0.1c-1.2,0-1.8-0.6-1.8-1.9
		v-3.2h-0.8v-0.6l0.9-0.5l0.4-1.3h0.8v1.3h1.7v1h-1.7v3.2c0,0.3,0.1,0.5,0.2,0.7C327,75.4,327.2,75.5,327.4,75.5z"/>
	<path class="st0" d="M334.4,76.5c-0.9,0-1.6-0.3-2-0.8c-0.5-0.5-0.7-1.3-0.7-2.3c0-1,0.2-1.8,0.7-2.3c0.5-0.5,1.2-0.8,2.1-0.8
		c0.6,0,1.2,0.1,1.7,0.3l-0.4,1c-0.5-0.2-1-0.3-1.3-0.3c-1,0-1.5,0.7-1.5,2c0,0.7,0.1,1.2,0.4,1.5c0.3,0.3,0.6,0.5,1.1,0.5
		c0.6,0,1.1-0.1,1.6-0.4v1.1c-0.2,0.1-0.5,0.2-0.7,0.3C335,76.5,334.7,76.5,334.4,76.5z"/>
	<path class="st0" d="M342.5,73.4c0,1-0.2,1.7-0.7,2.3s-1.2,0.8-2.1,0.8c-0.6,0-1-0.1-1.5-0.4s-0.8-0.6-1-1.1
		c-0.2-0.5-0.3-1-0.3-1.6c0-1,0.2-1.7,0.7-2.3c0.5-0.5,1.2-0.8,2.1-0.8c0.9,0,1.5,0.3,2,0.8C342.2,71.8,342.5,72.5,342.5,73.4z
		 M338.1,73.4c0,1.4,0.5,2.1,1.5,2.1c1,0,1.5-0.7,1.5-2.1c0-1.4-0.5-2-1.5-2c-0.5,0-0.9,0.2-1.2,0.5
		C338.3,72.3,338.1,72.8,338.1,73.4z"/>
	<path class="st0" d="M348.7,76.4h-1.3v-3.7c0-0.5-0.1-0.8-0.3-1s-0.4-0.3-0.8-0.3c-0.5,0-0.8,0.2-1.1,0.5c-0.2,0.3-0.3,0.8-0.3,1.6
		v3h-1.3v-5.9h1l0.2,0.8h0.1c0.2-0.3,0.4-0.5,0.7-0.7c0.3-0.2,0.7-0.2,1-0.2c0.9,0,1.5,0.3,1.8,0.9h0.1c0.2-0.3,0.4-0.5,0.7-0.7
		s0.7-0.2,1.1-0.2c0.7,0,1.2,0.2,1.5,0.5c0.3,0.4,0.5,0.9,0.5,1.6v3.9h-1.3v-3.7c0-0.5-0.1-0.8-0.3-1c-0.2-0.2-0.4-0.3-0.8-0.3
		c-0.5,0-0.8,0.2-1.1,0.5c-0.2,0.3-0.3,0.8-0.3,1.4V76.4z"/>
	<path class="st0" d="M357,76.5c-0.8,0-1.3-0.3-1.8-0.8h-0.1c0.1,0.5,0.1,0.8,0.1,0.9v2.4H354v-8.6h1c0,0.1,0.1,0.4,0.2,0.8h0.1
		c0.4-0.6,1-0.9,1.8-0.9c0.7,0,1.3,0.3,1.7,0.8c0.4,0.5,0.6,1.3,0.6,2.3c0,1-0.2,1.7-0.6,2.3C358.3,76.3,357.8,76.5,357,76.5z
		 M356.7,71.4c-0.5,0-0.9,0.1-1.1,0.4c-0.2,0.3-0.3,0.8-0.3,1.4v0.2c0,0.7,0.1,1.2,0.3,1.6s0.6,0.5,1.1,0.5c0.4,0,0.8-0.2,1-0.5
		s0.4-0.9,0.4-1.5c0-0.7-0.1-1.2-0.4-1.5C357.5,71.6,357.2,71.4,356.7,71.4z"/>
	<path class="st0" d="M363.2,76.5c-0.9,0-1.6-0.3-2.2-0.8c-0.5-0.5-0.8-1.3-0.8-2.2c0-1,0.2-1.7,0.7-2.3c0.5-0.6,1.1-0.8,2-0.8
		c0.8,0,1.4,0.2,1.9,0.7c0.5,0.5,0.7,1.1,0.7,2v0.7h-4c0,0.6,0.2,1,0.5,1.3s0.7,0.5,1.2,0.5c0.4,0,0.7,0,1-0.1
		c0.3-0.1,0.6-0.2,1-0.3v1c-0.3,0.1-0.6,0.2-0.9,0.3C364,76.5,363.6,76.5,363.2,76.5z M363,71.3c-0.4,0-0.7,0.1-1,0.4
		c-0.2,0.3-0.4,0.6-0.4,1.1h2.7c0-0.5-0.1-0.9-0.4-1.1C363.7,71.5,363.4,71.3,363,71.3z"/>
	<path class="st0" d="M369,75.5c0.3,0,0.6,0,0.9-0.1v1c-0.1,0.1-0.3,0.1-0.5,0.2c-0.2,0-0.4,0.1-0.7,0.1c-1.2,0-1.8-0.6-1.8-1.9
		v-3.2h-0.8v-0.6l0.9-0.5l0.4-1.3h0.8v1.3h1.7v1h-1.7v3.2c0,0.3,0.1,0.5,0.2,0.7C368.5,75.4,368.7,75.5,369,75.5z"/>
	<path class="st0" d="M370.8,68.9c0-0.2,0.1-0.4,0.2-0.5c0.1-0.1,0.3-0.2,0.5-0.2c0.2,0,0.4,0.1,0.5,0.2c0.1,0.1,0.2,0.3,0.2,0.5
		c0,0.2-0.1,0.4-0.2,0.5c-0.1,0.1-0.3,0.2-0.5,0.2c-0.2,0-0.4-0.1-0.5-0.2C370.8,69.3,370.8,69.1,370.8,68.9z M372.1,76.4h-1.3v-5.9
		h1.3V76.4z"/>
	<path class="st0" d="M375.9,75.5c0.3,0,0.6,0,0.9-0.1v1c-0.1,0.1-0.3,0.1-0.5,0.2c-0.2,0-0.4,0.1-0.7,0.1c-1.2,0-1.8-0.6-1.8-1.9
		v-3.2H373v-0.6l0.9-0.5l0.4-1.3h0.8v1.3h1.7v1h-1.7v3.2c0,0.3,0.1,0.5,0.2,0.7C375.5,75.4,375.7,75.5,375.9,75.5z"/>
	<path class="st0" d="M377.7,68.9c0-0.2,0.1-0.4,0.2-0.5c0.1-0.1,0.3-0.2,0.5-0.2c0.2,0,0.4,0.1,0.5,0.2c0.1,0.1,0.2,0.3,0.2,0.5
		c0,0.2-0.1,0.4-0.2,0.5c-0.1,0.1-0.3,0.2-0.5,0.2c-0.2,0-0.4-0.1-0.5-0.2C377.8,69.3,377.7,69.1,377.7,68.9z M379.1,76.4h-1.3v-5.9
		h1.3V76.4z"/>
	<path class="st0" d="M382,76.4l-2.3-5.9h1.3l1.2,3.5c0.2,0.6,0.3,1,0.4,1.4h0c0-0.3,0.2-0.7,0.4-1.4l1.2-3.5h1.3l-2.3,5.9H382z"/>
	<path class="st0" d="M388.9,76.5c-0.9,0-1.6-0.3-2.2-0.8c-0.5-0.5-0.8-1.3-0.8-2.2c0-1,0.2-1.7,0.7-2.3c0.5-0.6,1.1-0.8,2-0.8
		c0.8,0,1.4,0.2,1.9,0.7c0.5,0.5,0.7,1.1,0.7,2v0.7h-4c0,0.6,0.2,1,0.5,1.3c0.3,0.3,0.7,0.5,1.2,0.5c0.4,0,0.7,0,1-0.1
		s0.6-0.2,1-0.3v1c-0.3,0.1-0.6,0.2-0.9,0.3C389.7,76.5,389.3,76.5,388.9,76.5z M388.7,71.3c-0.4,0-0.7,0.1-1,0.4
		c-0.2,0.3-0.4,0.6-0.4,1.1h2.7c0-0.5-0.1-0.9-0.4-1.1C389.4,71.5,389.1,71.3,388.7,71.3z"/>
	<path class="st0" d="M400.1,70.5v0.7l-1,0.2c0.1,0.1,0.2,0.3,0.2,0.5s0.1,0.4,0.1,0.6c0,0.6-0.2,1.1-0.6,1.4
		c-0.4,0.4-1,0.5-1.7,0.5c-0.2,0-0.4,0-0.5,0c-0.3,0.2-0.4,0.4-0.4,0.6c0,0.1,0.1,0.2,0.2,0.3s0.4,0.1,0.7,0.1h1
		c0.7,0,1.2,0.1,1.5,0.4c0.3,0.3,0.5,0.7,0.5,1.2c0,0.7-0.3,1.2-0.8,1.6c-0.6,0.4-1.4,0.5-2.4,0.5c-0.8,0-1.4-0.1-1.9-0.4
		s-0.6-0.7-0.6-1.2c0-0.4,0.1-0.7,0.3-0.9c0.2-0.2,0.6-0.4,1-0.5c-0.2-0.1-0.3-0.2-0.4-0.3s-0.2-0.3-0.2-0.5c0-0.2,0.1-0.4,0.2-0.6
		c0.1-0.2,0.3-0.3,0.6-0.5c-0.3-0.1-0.6-0.3-0.7-0.6s-0.3-0.6-0.3-1c0-0.6,0.2-1.1,0.6-1.5c0.4-0.4,1-0.5,1.7-0.5c0.2,0,0.3,0,0.5,0
		s0.3,0,0.4,0.1H400.1z M395.5,77.3c0,0.3,0.1,0.5,0.4,0.6c0.2,0.1,0.6,0.2,1,0.2c0.7,0,1.2-0.1,1.5-0.3c0.3-0.2,0.5-0.5,0.5-0.8
		c0-0.3-0.1-0.4-0.3-0.6s-0.5-0.2-1-0.2h-1c-0.4,0-0.6,0.1-0.9,0.3S395.5,77,395.5,77.3z M396,72.4c0,0.4,0.1,0.7,0.3,0.9
		s0.5,0.3,0.8,0.3c0.7,0,1.1-0.4,1.1-1.2c0-0.4-0.1-0.7-0.3-0.9c-0.2-0.2-0.5-0.3-0.8-0.3c-0.4,0-0.6,0.1-0.8,0.3
		C396.1,71.7,396,72,396,72.4z"/>
	<path class="st0" d="M404,70.4c0.3,0,0.5,0,0.6,0.1l-0.1,1.2c-0.2,0-0.4-0.1-0.6-0.1c-0.5,0-0.9,0.2-1.2,0.5
		c-0.3,0.3-0.5,0.8-0.5,1.3v3.1H401v-5.9h1l0.2,1h0.1c0.2-0.4,0.5-0.6,0.8-0.8C403.3,70.5,403.7,70.4,404,70.4z"/>
	<path class="st0" d="M410.8,73.4c0,1-0.2,1.7-0.7,2.3s-1.2,0.8-2.1,0.8c-0.6,0-1-0.1-1.5-0.4c-0.4-0.3-0.8-0.6-1-1.1
		c-0.2-0.5-0.3-1-0.3-1.6c0-1,0.2-1.7,0.7-2.3c0.5-0.5,1.2-0.8,2.1-0.8c0.9,0,1.5,0.3,2,0.8C410.5,71.8,410.8,72.5,410.8,73.4z
		 M406.5,73.4c0,1.4,0.5,2.1,1.5,2.1c1,0,1.5-0.7,1.5-2.1c0-1.4-0.5-2-1.5-2c-0.5,0-0.9,0.2-1.2,0.5S406.5,72.8,406.5,73.4z"/>
	<path class="st0" d="M416.2,76.4l-0.2-0.8H416c-0.2,0.3-0.4,0.5-0.7,0.7s-0.7,0.2-1.1,0.2c-0.7,0-1.3-0.2-1.6-0.5
		c-0.4-0.4-0.5-0.9-0.5-1.6v-3.9h1.3v3.7c0,0.5,0.1,0.8,0.3,1c0.2,0.2,0.5,0.3,0.9,0.3c0.5,0,0.9-0.2,1.2-0.5
		c0.2-0.3,0.4-0.8,0.4-1.6v-3h1.3v5.9H416.2z"/>
	<path class="st0" d="M421.8,76.5c-0.8,0-1.3-0.3-1.8-0.8H420c0,0.5,0.1,0.8,0.1,0.9v2.4h-1.3v-8.6h1c0,0.1,0.1,0.4,0.2,0.8h0.1
		c0.4-0.6,1-0.9,1.8-0.9c0.7,0,1.3,0.3,1.7,0.8c0.4,0.5,0.6,1.3,0.6,2.3c0,1-0.2,1.7-0.6,2.3S422.6,76.5,421.8,76.5z M421.5,71.4
		c-0.5,0-0.9,0.1-1.1,0.4c-0.2,0.3-0.3,0.8-0.3,1.4v0.2c0,0.7,0.1,1.2,0.3,1.6c0.2,0.3,0.6,0.5,1.1,0.5c0.4,0,0.8-0.2,1-0.5
		s0.4-0.9,0.4-1.5c0-0.7-0.1-1.2-0.4-1.5S422,71.4,421.5,71.4z"/>
	<path class="st0" d="M431.1,76.5c-0.8,0-1.3-0.3-1.8-0.8h-0.1c0,0.5,0.1,0.8,0.1,0.9v2.4h-1.3v-8.6h1c0,0.1,0.1,0.4,0.2,0.8h0.1
		c0.4-0.6,1-0.9,1.8-0.9c0.7,0,1.3,0.3,1.7,0.8c0.4,0.5,0.6,1.3,0.6,2.3c0,1-0.2,1.7-0.6,2.3S431.8,76.5,431.1,76.5z M430.8,71.4
		c-0.5,0-0.9,0.1-1.1,0.4c-0.2,0.3-0.3,0.8-0.3,1.4v0.2c0,0.7,0.1,1.2,0.3,1.6c0.2,0.3,0.6,0.5,1.1,0.5c0.4,0,0.8-0.2,1-0.5
		s0.4-0.9,0.4-1.5c0-0.7-0.1-1.2-0.4-1.5S431.3,71.4,430.8,71.4z"/>
	<path class="st0" d="M437.7,70.4c0.3,0,0.5,0,0.6,0.1l-0.1,1.2c-0.2,0-0.4-0.1-0.6-0.1c-0.5,0-0.9,0.2-1.2,0.5
		c-0.3,0.3-0.5,0.8-0.5,1.3v3.1h-1.3v-5.9h1l0.2,1h0.1c0.2-0.4,0.5-0.6,0.8-0.8C437,70.5,437.4,70.4,437.7,70.4z"/>
	<path class="st0" d="M439.2,68.9c0-0.2,0.1-0.4,0.2-0.5c0.1-0.1,0.3-0.2,0.5-0.2c0.2,0,0.4,0.1,0.5,0.2c0.1,0.1,0.2,0.3,0.2,0.5
		c0,0.2-0.1,0.4-0.2,0.5c-0.1,0.1-0.3,0.2-0.5,0.2c-0.2,0-0.4-0.1-0.5-0.2C439.2,69.3,439.2,69.1,439.2,68.9z M440.5,76.4h-1.3v-5.9
		h1.3V76.4z"/>
	<path class="st0" d="M444.5,76.5c-0.9,0-1.6-0.3-2-0.8c-0.5-0.5-0.7-1.3-0.7-2.3c0-1,0.2-1.8,0.7-2.3c0.5-0.5,1.2-0.8,2.1-0.8
		c0.6,0,1.2,0.1,1.7,0.3l-0.4,1c-0.5-0.2-1-0.3-1.3-0.3c-1,0-1.5,0.7-1.5,2c0,0.7,0.1,1.2,0.4,1.5s0.6,0.5,1.1,0.5
		c0.6,0,1.1-0.1,1.6-0.4v1.1c-0.2,0.1-0.5,0.2-0.7,0.3S444.9,76.5,444.5,76.5z"/>
	<path class="st0" d="M447.3,68.9c0-0.2,0.1-0.4,0.2-0.5c0.1-0.1,0.3-0.2,0.5-0.2c0.2,0,0.4,0.1,0.5,0.2c0.1,0.1,0.2,0.3,0.2,0.5
		c0,0.2-0.1,0.4-0.2,0.5c-0.1,0.1-0.3,0.2-0.5,0.2c-0.2,0-0.4-0.1-0.5-0.2C447.3,69.3,447.3,69.1,447.3,68.9z M448.6,76.4h-1.3v-5.9
		h1.3V76.4z"/>
	<path class="st0" d="M455.4,76.4h-1.3v-3.7c0-0.5-0.1-0.8-0.3-1c-0.2-0.2-0.5-0.3-0.9-0.3c-0.5,0-0.9,0.2-1.2,0.5s-0.4,0.8-0.4,1.6
		v3h-1.3v-5.9h1l0.2,0.8h0.1c0.2-0.3,0.4-0.5,0.8-0.7c0.3-0.2,0.7-0.2,1.1-0.2c1.4,0,2.1,0.7,2.1,2.2V76.4z"/>
	<path class="st0" d="M462,70.5v0.7l-1,0.2c0.1,0.1,0.2,0.3,0.2,0.5s0.1,0.4,0.1,0.6c0,0.6-0.2,1.1-0.6,1.4c-0.4,0.4-1,0.5-1.7,0.5
		c-0.2,0-0.4,0-0.5,0c-0.3,0.2-0.4,0.4-0.4,0.6c0,0.1,0.1,0.2,0.2,0.3s0.4,0.1,0.7,0.1h1c0.7,0,1.2,0.1,1.5,0.4
		c0.3,0.3,0.5,0.7,0.5,1.2c0,0.7-0.3,1.2-0.8,1.6c-0.6,0.4-1.4,0.5-2.4,0.5c-0.8,0-1.4-0.1-1.9-0.4s-0.6-0.7-0.6-1.2
		c0-0.4,0.1-0.7,0.3-0.9c0.2-0.2,0.6-0.4,1-0.5c-0.2-0.1-0.3-0.2-0.4-0.3s-0.2-0.3-0.2-0.5c0-0.2,0.1-0.4,0.2-0.6
		c0.1-0.2,0.3-0.3,0.6-0.5c-0.3-0.1-0.6-0.3-0.7-0.6s-0.3-0.6-0.3-1c0-0.6,0.2-1.1,0.6-1.5c0.4-0.4,1-0.5,1.7-0.5c0.2,0,0.3,0,0.5,0
		s0.3,0,0.4,0.1H462z M457.3,77.3c0,0.3,0.1,0.5,0.4,0.6c0.2,0.1,0.6,0.2,1,0.2c0.7,0,1.2-0.1,1.5-0.3c0.3-0.2,0.5-0.5,0.5-0.8
		c0-0.3-0.1-0.4-0.3-0.6s-0.5-0.2-1-0.2h-1c-0.4,0-0.6,0.1-0.9,0.3S457.3,77,457.3,77.3z M457.9,72.4c0,0.4,0.1,0.7,0.3,0.9
		s0.5,0.3,0.8,0.3c0.7,0,1.1-0.4,1.1-1.2c0-0.4-0.1-0.7-0.3-0.9c-0.2-0.2-0.5-0.3-0.8-0.3c-0.4,0-0.6,0.1-0.8,0.3
		C458,71.7,457.9,72,457.9,72.4z"/>
	<path class="st0" d="M462.7,75.7c0-0.3,0.1-0.5,0.2-0.6c0.1-0.1,0.3-0.2,0.6-0.2c0.3,0,0.5,0.1,0.6,0.2c0.1,0.1,0.2,0.3,0.2,0.6
		c0,0.3-0.1,0.5-0.2,0.6s-0.3,0.2-0.6,0.2s-0.5-0.1-0.6-0.2C462.7,76.2,462.7,76,462.7,75.7z"/>
</g>
</svg>
