<?xml version="1.0" encoding="utf-8"?>
<!-- Generator: Adobe Illustrator 22.1.0, SVG Export Plug-In . SVG Version: 6.00 Build 0)  -->
<svg version="1.1" id="Layer_1" xmlns="http://www.w3.org/2000/svg" xmlns:xlink="http://www.w3.org/1999/xlink" x="0px" y="0px"
	 viewBox="0 0 107.7 26" style="enable-background:new 0 0 107.7 26;" xml:space="preserve">
<style type="text/css">
	.st0{fill:#FF5100;}
	.st1{fill:#FFFFFF;}
</style>
<path class="st0" d="M3.1,0C3.1,0,0,0,0,3.1v19.7c0,0,0,3.1,3.1,3.1h101.5c0,0,3.1,0,3.1-3.1V3.1c0,0,0-3.1-3.1-3.1H3.1z"/>
<g>
	<path class="st1" d="M10,17.5V7.9h1.6v8.3h4.1v1.4H10z"/>
	<path class="st1" d="M20.3,17.7c-1.1,0-2-0.3-2.7-1c-0.6-0.7-1-1.6-1-2.7c0-1.2,0.3-2.1,0.9-2.8c0.6-0.7,1.4-1,2.4-1
		c1,0,1.7,0.3,2.3,0.9c0.6,0.6,0.8,1.4,0.8,2.4v0.8h-4.9c0,0.7,0.2,1.3,0.6,1.6s0.9,0.6,1.5,0.6c0.4,0,0.8,0,1.2-0.1
		c0.4-0.1,0.8-0.2,1.2-0.4v1.3c-0.4,0.2-0.8,0.3-1.1,0.4C21.2,17.6,20.8,17.7,20.3,17.7z M20,11.3c-0.5,0-0.9,0.2-1.2,0.5
		c-0.3,0.3-0.5,0.8-0.5,1.4h3.3c0-0.6-0.2-1.1-0.4-1.4S20.5,11.3,20,11.3z"/>
	<path class="st1" d="M29.5,17.5l-0.3-1h-0.1c-0.4,0.4-0.7,0.7-1.1,0.9c-0.4,0.2-0.8,0.2-1.4,0.2c-0.7,0-1.3-0.2-1.7-0.6
		c-0.4-0.4-0.6-0.9-0.6-1.6c0-0.8,0.3-1.3,0.8-1.7c0.6-0.4,1.4-0.6,2.6-0.6l1.3,0v-0.4c0-0.5-0.1-0.8-0.3-1s-0.6-0.3-1-0.3
		c-0.4,0-0.7,0.1-1.1,0.2c-0.3,0.1-0.7,0.2-1,0.4l-0.5-1.1c0.4-0.2,0.8-0.4,1.3-0.5c0.5-0.1,0.9-0.2,1.3-0.2c0.9,0,1.6,0.2,2.1,0.6
		s0.7,1,0.7,1.9v4.9H29.5z M27.2,16.5c0.6,0,1-0.2,1.4-0.5s0.5-0.8,0.5-1.3v-0.6l-0.9,0c-0.7,0-1.3,0.1-1.6,0.4S26,15,26,15.5
		c0,0.3,0.1,0.6,0.3,0.8C26.5,16.4,26.8,16.5,27.2,16.5z"/>
	<path class="st1" d="M36.4,10.1c0.3,0,0.6,0,0.8,0.1l-0.2,1.4c-0.2-0.1-0.4-0.1-0.7-0.1c-0.6,0-1.1,0.2-1.5,0.6
		c-0.4,0.4-0.6,0.9-0.6,1.6v3.8h-1.5v-7.3h1.2l0.2,1.3h0.1c0.2-0.4,0.6-0.8,0.9-1S36,10.1,36.4,10.1z"/>
	<path class="st1" d="M45,17.5h-1.6v-4.5c0-0.6-0.1-1-0.3-1.3c-0.2-0.3-0.6-0.4-1.1-0.4c-0.7,0-1.1,0.2-1.4,0.6s-0.5,1-0.5,1.9v3.6
		h-1.5v-7.3h1.2l0.2,1h0.1c0.2-0.3,0.5-0.6,0.9-0.8c0.4-0.2,0.9-0.3,1.3-0.3c1.7,0,2.6,0.9,2.6,2.7V17.5z"/>
	<path class="st1" d="M56.8,17.5h-1.6V13c0-0.6-0.1-1-0.3-1.2c-0.2-0.3-0.5-0.4-1-0.4c-0.6,0-1,0.2-1.3,0.6s-0.4,1-0.4,1.9v3.6h-1.5
		v-7.3h1.2l0.2,1h0.1c0.2-0.3,0.5-0.6,0.9-0.8c0.4-0.2,0.8-0.3,1.3-0.3c1.1,0,1.9,0.4,2.2,1.1h0.1c0.2-0.4,0.5-0.6,0.9-0.8
		c0.4-0.2,0.8-0.3,1.3-0.3c0.9,0,1.5,0.2,1.9,0.7c0.4,0.4,0.6,1.1,0.6,2v4.8h-1.5V13c0-0.6-0.1-1-0.3-1.2c-0.2-0.3-0.5-0.4-1-0.4
		c-0.6,0-1,0.2-1.3,0.6s-0.4,1-0.4,1.7V17.5z"/>
	<path class="st1" d="M70,13.9c0,1.2-0.3,2.1-0.9,2.8c-0.6,0.7-1.5,1-2.6,1c-0.7,0-1.3-0.2-1.8-0.5c-0.5-0.3-0.9-0.7-1.2-1.3
		c-0.3-0.6-0.4-1.2-0.4-2c0-1.2,0.3-2.1,0.9-2.8c0.6-0.7,1.5-1,2.6-1c1.1,0,1.9,0.3,2.5,1C69.7,11.8,70,12.7,70,13.9z M64.7,13.9
		c0,1.7,0.6,2.5,1.9,2.5c1.2,0,1.8-0.8,1.8-2.5c0-1.7-0.6-2.5-1.9-2.5c-0.7,0-1.1,0.2-1.4,0.6C64.9,12.5,64.7,13.1,64.7,13.9z"/>
	<path class="st1" d="M75.5,10.1c0.3,0,0.6,0,0.8,0.1l-0.2,1.4c-0.2-0.1-0.4-0.1-0.7-0.1c-0.6,0-1.1,0.2-1.5,0.6
		c-0.4,0.4-0.6,0.9-0.6,1.6v3.8h-1.5v-7.3H73l0.2,1.3h0.1c0.2-0.4,0.6-0.8,0.9-1S75,10.1,75.5,10.1z"/>
	<path class="st1" d="M80.8,17.7c-1.1,0-2-0.3-2.7-1c-0.6-0.7-1-1.6-1-2.7c0-1.2,0.3-2.1,0.9-2.8c0.6-0.7,1.4-1,2.4-1
		c1,0,1.7,0.3,2.3,0.9c0.6,0.6,0.8,1.4,0.8,2.4v0.8h-4.9c0,0.7,0.2,1.3,0.6,1.6s0.9,0.6,1.5,0.6c0.4,0,0.8,0,1.2-0.1
		c0.4-0.1,0.8-0.2,1.2-0.4v1.3c-0.4,0.2-0.8,0.3-1.1,0.4C81.7,17.6,81.3,17.7,80.8,17.7z M80.5,11.3c-0.5,0-0.9,0.2-1.2,0.5
		c-0.3,0.3-0.5,0.8-0.5,1.4h3.3c0-0.6-0.2-1.1-0.4-1.4S81,11.3,80.5,11.3z"/>
</g>
</svg>
