<svg id="Layer_1" xmlns="http://www.w3.org/2000/svg" viewBox="0 0 728 90"><style>.st0{fill:#fff}</style><path class="st0" d="M201.8 35h-4.5v-6.7h-5.2V35h-4.5V18.6h4.5v6.1h5.2v-6.1h4.5V35zM216.8 28.6c0 2.1-.6 3.7-1.7 4.9-1.1 1.2-2.7 1.7-4.7 1.7-1.9 0-3.5-.6-4.6-1.8-1.1-1.2-1.7-2.8-1.7-4.8 0-2.1.6-3.7 1.7-4.8 1.1-1.1 2.7-1.7 4.7-1.7 1.3 0 2.4.3 3.3.8s1.7 1.3 2.2 2.3c.6.9.8 2.1.8 3.4zm-8.2 0c0 1.1.1 1.9.4 2.5.3.6.8.9 1.5.9s1.2-.3 1.4-.9c.3-.6.4-1.4.4-2.5s-.1-1.9-.4-2.5-.8-.8-1.5-.8-1.2.3-1.4.8c-.3.6-.4 1.4-.4 2.5zM226.9 35v-7c0-.8-.1-1.5-.4-1.9-.2-.4-.6-.6-1.2-.6-.7 0-1.3.3-1.6.9s-.5 1.6-.5 3V35h-4.4V22.2h3.3l.6 1.6h.3c.4-.6.9-1 1.6-1.3.7-.3 1.4-.4 2.3-.4 1.4 0 2.5.4 3.3 1.2.8.8 1.2 2 1.2 3.4V35h-4.5zM246 28.6c0 2.1-.6 3.7-1.7 4.9-1.1 1.2-2.7 1.7-4.7 1.7-1.9 0-3.5-.6-4.6-1.8-1.1-1.2-1.7-2.8-1.7-4.8 0-2.1.6-3.7 1.7-4.8 1.1-1.1 2.7-1.7 4.7-1.7 1.3 0 2.4.3 3.3.8s1.7 1.3 2.2 2.3c.5.9.8 2.1.8 3.4zm-8.2 0c0 1.1.1 1.9.4 2.5.3.6.8.9 1.5.9s1.2-.3 1.4-.9c.3-.6.4-1.4.4-2.5s-.1-1.9-.4-2.5-.8-.8-1.5-.8-1.2.3-1.4.8c-.3.6-.4 1.4-.4 2.5zM255.7 22c.4 0 .7 0 1.1.1h.2l-.4 4.1c-.4-.1-.9-.1-1.5-.1-1 0-1.7.2-2.1.7-.4.4-.7 1.1-.7 1.9V35H248V22.2h3.3l.7 2h.2c.4-.7.9-1.2 1.5-1.6.7-.4 1.4-.6 2-.6zM258.3 19.1c0-.7.2-1.1.6-1.5s1-.5 1.8-.5 1.4.2 1.8.5.6.8.6 1.5c0 1.3-.8 1.9-2.3 1.9-1.7 0-2.5-.6-2.5-1.9zm4.5 15.9h-4.4V22.2h4.4V35zM273.4 35v-7c0-.8-.1-1.5-.4-1.9-.2-.4-.6-.6-1.2-.6-.7 0-1.3.3-1.6.9s-.5 1.6-.5 3V35h-4.4V22.2h3.3l.6 1.6h.3c.4-.6.9-1 1.6-1.3.7-.3 1.4-.4 2.3-.4 1.4 0 2.5.4 3.3 1.2.8.8 1.2 2 1.2 3.4V35h-4.5zM292.4 22.2v2.1l-1.7.6c.2.4.4.9.4 1.5 0 1.4-.5 2.4-1.4 3.2-1 .8-2.4 1.1-4.3 1.1-.5 0-.8 0-1.1-.1-.1.2-.2.4-.2.6 0 .2.2.4.5.5.4.1.8.2 1.4.2h2.1c2.9 0 4.3 1.2 4.3 3.6 0 1.5-.7 2.8-2 3.6-1.3.9-3.2 1.3-5.6 1.3-1.8 0-3.2-.3-4.2-.9-1-.6-1.5-1.5-1.5-2.6 0-1.5.9-2.5 2.8-2.9-.4-.2-.7-.4-1-.8-.3-.4-.4-.7-.4-1.1 0-.4.1-.7.3-1 .2-.3.7-.7 1.4-1.1-.7-.3-1.2-.7-1.6-1.4-.4-.6-.6-1.4-.6-2.3 0-1.4.5-2.5 1.4-3.2s2.3-1.1 4-1.1c.2 0 .6 0 1.2.1s1 .1 1.3.1h4.5zm-9.6 14.4c0 .4.2.6.6.9.4.2.9.3 1.6.3 1.1 0 1.9-.1 2.6-.4.6-.3 1-.6 1-1 0-.3-.2-.6-.6-.7-.4-.1-.9-.2-1.7-.2h-1.7c-.5 0-.9.1-1.2.3-.5.2-.6.4-.6.8zm1.4-10.2c0 1.3.5 2 1.4 2 .4 0 .7-.2 1-.5.2-.3.3-.8.3-1.4 0-1.3-.4-2-1.3-2-1 0-1.4.6-1.4 1.9zM305.6 31.7c.6 0 1.3-.1 2.1-.4v3.2c-.6.3-1.2.4-1.7.5-.5.1-1.2.2-1.9.2-1.5 0-2.5-.4-3.2-1.1-.7-.7-1-1.8-1-3.3v-5.2h-1.5v-1.8l2-1.4 1.1-2.7h2.9v2.5h3.1v3.3h-3.1v5c0 .8.4 1.2 1.2 1.2zM317.5 35v-7c0-1.7-.5-2.6-1.5-2.6-.7 0-1.2.3-1.6.9-.3.6-.5 1.6-.5 3V35h-4.4V17.5h4.4V20c0 1.1-.1 2.4-.2 3.8h.2c.4-.7.9-1.1 1.5-1.4s1.2-.4 2-.4c1.4 0 2.5.4 3.3 1.2.8.8 1.2 2 1.2 3.4V35h-4.4zM330.7 35.2c-2.1 0-3.8-.6-4.9-1.7-1.2-1.1-1.8-2.7-1.8-4.8 0-2.1.5-3.8 1.6-4.9 1.1-1.1 2.6-1.7 4.6-1.7 1.9 0 3.4.5 4.4 1.5 1 1 1.6 2.4 1.6 4.3v2h-7.9c0 .7.3 1.3.8 1.7.5.4 1.2.6 2 .6s1.5-.1 2.1-.2c.6-.1 1.3-.4 2.1-.7v3.2c-.7.4-1.4.6-2.1.7s-1.5 0-2.5 0zm-.3-10.2c-.5 0-.9.2-1.3.5-.3.3-.6.8-.6 1.5h3.8c0-.6-.2-1.1-.5-1.5-.4-.3-.8-.5-1.4-.5zM351.6 22c1.4 0 2.5.6 3.3 1.7.8 1.2 1.2 2.8 1.2 4.8 0 2.1-.4 3.7-1.2 4.9-.8 1.2-2 1.8-3.4 1.8-.5 0-.9-.1-1.3-.2s-.7-.2-1-.4c-.3-.2-.6-.5-1-.9h-.3l-.7 1.2h-3.4V17.5h4.4v4c0 .5-.1 1.3-.2 2.4h.2c.4-.7.9-1.1 1.5-1.4.5-.3 1.2-.5 1.9-.5zm-1.6 3.5c-.6 0-1.1.2-1.3.6s-.4 1.1-.4 2v.6c0 1 .1 1.8.4 2.2.3.5.7.7 1.4.7.5 0 .9-.3 1.2-.8.3-.5.4-1.3.4-2.3-.1-2-.6-3-1.7-3zM358 19.1c0-.7.2-1.1.6-1.5s1-.5 1.8-.5 1.4.2 1.8.5.6.8.6 1.5c0 1.3-.8 1.9-2.3 1.9-1.7 0-2.5-.6-2.5-1.9zm4.6 15.9h-4.4V22.2h4.4V35zM372.8 22c.4 0 .7 0 1.1.1h.2l-.4 4.1c-.4-.1-.9-.1-1.5-.1-1 0-1.7.2-2.1.7-.4.4-.7 1.1-.7 1.9V35H365V22.2h3.3l.7 2h.2c.4-.7.9-1.2 1.5-1.6.8-.4 1.5-.6 2.1-.6zM381.7 31.7c.6 0 1.3-.1 2.1-.4v3.2c-.6.3-1.2.4-1.7.5-.5.1-1.2.2-1.9.2-1.5 0-2.5-.4-3.2-1.1-.7-.7-1-1.8-1-3.3v-5.2h-1.5v-1.8l2-1.4 1.1-2.7h2.9v2.5h3.1v3.3h-3.1v5c0 .8.4 1.2 1.2 1.2zM393.6 35v-7c0-1.7-.5-2.6-1.5-2.6-.7 0-1.2.3-1.6.9-.3.6-.5 1.6-.5 3V35h-4.4V17.5h4.4V20c0 1.1-.1 2.4-.2 3.8h.2c.4-.7.9-1.1 1.5-1.4.6-.3 1.2-.4 2-.4 1.4 0 2.5.4 3.3 1.2.8.8 1.2 2 1.2 3.4V35h-4.4zM418.3 28.6c0 2.1-.6 3.7-1.7 4.9-1.1 1.2-2.7 1.7-4.7 1.7-1.9 0-3.5-.6-4.6-1.8s-1.7-2.8-1.7-4.8c0-2.1.6-3.7 1.7-4.8 1.1-1.1 2.7-1.7 4.7-1.7 1.3 0 2.4.3 3.3.8s1.7 1.3 2.2 2.3c.5.9.8 2.1.8 3.4zm-8.3 0c0 1.1.1 1.9.4 2.5.3.6.8.9 1.5.9s1.2-.3 1.4-.9c.3-.6.4-1.4.4-2.5s-.1-1.9-.4-2.5c-.3-.6-.8-.8-1.5-.8s-1.2.3-1.4.8c-.2.6-.4 1.4-.4 2.5zM428.1 25.5h-2.7V35H421v-9.4h-1.7v-2.2l1.8-1.1v-.2c0-1.7.3-2.9 1-3.6.7-.7 1.8-1.1 3.3-1.1.6 0 1.1 0 1.7.1s1.1.2 1.8.5l-.9 2.8c-.5-.1-1.1-.2-1.6-.2-.3 0-.6.1-.7.3-.2.2-.2.5-.2 1v.3h2.7v3.3zM441.1 31.7c.6 0 1.3-.1 2.1-.4v3.2c-.6.3-1.2.4-1.7.5-.5.1-1.2.2-1.9.2-1.5 0-2.5-.4-3.2-1.1-.7-.7-1-1.8-1-3.3v-5.2H434v-1.8l2-1.4 1.1-2.7h2.9v2.5h3.1v3.3H440v5c0 .8.4 1.2 1.1 1.2zM453.1 35v-7c0-1.7-.5-2.6-1.5-2.6-.7 0-1.2.3-1.6.9-.3.6-.5 1.6-.5 3V35h-4.4V17.5h4.4V20c0 1.1-.1 2.4-.2 3.8h.2c.4-.7.9-1.1 1.5-1.4.6-.3 1.2-.4 2-.4 1.4 0 2.5.4 3.3 1.2.8.8 1.2 2 1.2 3.4V35h-4.4zM466.2 35.2c-2.1 0-3.8-.6-4.9-1.7-1.2-1.1-1.8-2.7-1.8-4.8 0-2.1.5-3.8 1.6-4.9 1.1-1.1 2.6-1.7 4.7-1.7 1.9 0 3.4.5 4.4 1.5 1 1 1.6 2.4 1.6 4.3v2H464c0 .7.3 1.3.8 1.7s1.2.6 2 .6 1.5-.1 2.1-.2c.6-.1 1.3-.4 2.1-.7v3.2c-.7.4-1.4.6-2.1.7s-1.7 0-2.7 0zm-.3-10.2c-.5 0-.9.2-1.3.5-.3.3-.6.8-.6 1.5h3.8c0-.6-.2-1.1-.5-1.5s-.8-.5-1.4-.5zM493.5 18.6v9.9c0 2.1-.6 3.8-1.8 5-1.2 1.2-3 1.8-5.3 1.8-2.2 0-4-.6-5.2-1.7-1.2-1.1-1.8-2.8-1.8-4.9v-10h4.5v9.6c0 1.2.2 2 .7 2.5.4.5 1.1.8 1.9.8.9 0 1.6-.3 2-.8.4-.5.6-1.4.6-2.6v-9.6h4.4zM495.7 33.1c0-.7.2-1.2.6-1.6s1-.6 1.8-.6c.7 0 1.3.2 1.7.6.4.4.6.9.6 1.6 0 .7-.2 1.2-.6 1.6-.4.4-1 .6-1.7.6s-1.3-.2-1.8-.6c-.3-.4-.6-.9-.6-1.6zM513.5 30c0 1-.3 1.9-.8 2.7-.5.8-1.3 1.4-2.2 1.8-1 .4-2.1.7-3.4.7-1.1 0-2-.1-2.8-.2-.7-.2-1.5-.4-2.3-.8v-4c.8.4 1.7.8 2.6 1 .9.2 1.8.4 2.5.4s1.1-.1 1.4-.3c.3-.2.5-.5.5-.9 0-.2-.1-.4-.2-.6-.1-.2-.3-.3-.6-.5s-1-.5-2.2-1.1c-1.1-.5-1.9-1-2.4-1.4s-.9-1-1.2-1.6c-.3-.6-.4-1.3-.4-2.1 0-1.5.6-2.7 1.7-3.5 1.1-.8 2.6-1.3 4.5-1.3 1.7 0 3.4.4 5.2 1.2l-1.4 3.4c-1.5-.7-2.9-1.1-4-1.1-.6 0-1 .1-1.3.3-.3.2-.4.5-.4.8 0 .3.2.6.5.9s1.2.7 2.7 1.4c1.4.6 2.4 1.3 2.9 2 .8.8 1.1 1.7 1.1 2.8zM514.7 33.1c0-.7.2-1.2.6-1.6s1-.6 1.8-.6c.7 0 1.3.2 1.7.6.4.4.6.9.6 1.6 0 .7-.2 1.2-.6 1.6-.4.4-1 .6-1.7.6s-1.3-.2-1.8-.6c-.3-.4-.6-.9-.6-1.6zM534.6 22c-1.1 0-1.9.4-2.5 1.3-.6.9-.9 2.1-.9 3.6 0 3.2 1.2 4.7 3.6 4.7.7 0 1.4-.1 2.1-.3.7-.2 1.4-.4 2.1-.7v3.8c-1.4.6-2.9.9-4.6.9-2.5 0-4.4-.7-5.7-2.2s-2-3.5-2-6.2c0-1.7.3-3.2 1-4.5.6-1.3 1.6-2.3 2.8-3 1.2-.7 2.6-1 4.2-1 1.8 0 3.5.4 5.1 1.2l-1.4 3.5c-.6-.3-1.2-.5-1.8-.7-.7-.3-1.3-.4-2-.4zM553.7 28.6c0 2.1-.6 3.7-1.7 4.9-1.1 1.2-2.7 1.7-4.7 1.7-1.9 0-3.5-.6-4.6-1.8s-1.7-2.8-1.7-4.8c0-2.1.6-3.7 1.7-4.8 1.1-1.1 2.7-1.7 4.7-1.7 1.3 0 2.4.3 3.3.8s1.7 1.3 2.2 2.3c.5.9.8 2.1.8 3.4zm-8.3 0c0 1.1.1 1.9.4 2.5.3.6.8.9 1.5.9s1.2-.3 1.4-.9c.3-.6.4-1.4.4-2.5s-.1-1.9-.4-2.5c-.3-.6-.8-.8-1.5-.8s-1.2.3-1.4.8c-.2.6-.4 1.4-.4 2.5zM564 35l-.8-1.7h-.1c-.6.7-1.2 1.2-1.8 1.5s-1.4.4-2.4.4c-1.2 0-2.1-.4-2.8-1.1s-1-1.7-1-3c0-1.4.5-2.4 1.4-3 .9-.7 2.3-1 4.1-1.1l2.1-.1v-.2c0-1-.5-1.6-1.5-1.6-.9 0-2.1.3-3.5.9l-1.3-2.9c1.5-.8 3.4-1.1 5.6-1.1 1.6 0 2.9.4 3.8 1.2s1.3 1.9 1.3 3.4V35H564zm-3.2-2.9c.5 0 1-.2 1.4-.5s.6-.8.6-1.3v-1h-1c-1.4.1-2.2.6-2.2 1.6-.1.8.3 1.2 1.2 1.2zM579.4 31.1c0 1.4-.5 2.4-1.4 3.1s-2.3 1-4 1c-.9 0-1.8-.1-2.5-.2s-1.4-.3-2.1-.6V31c.7.3 1.4.5 2.2.7s1.5.3 2.2.3c1 0 1.4-.2 1.4-.7 0-.2-.1-.4-.4-.6-.3-.2-1-.5-2.3-1-1.2-.5-2-1-2.4-1.6-.5-.6-.7-1.4-.7-2.3 0-1.2.5-2.1 1.4-2.8.9-.7 2.2-1 3.9-1 .8 0 1.6.1 2.4.3.7.2 1.5.5 2.3.8l-1.2 2.8c-.6-.3-1.2-.5-1.9-.7-.7-.2-1.2-.3-1.6-.3-.7 0-1.1.2-1.1.5 0 .2.1.4.4.6.3.2 1 .5 2.2.9.9.4 1.6.7 2 1.1.4.4.8.8 1 1.2.1.6.2 1.2.2 1.9zM587.6 31.7c.6 0 1.3-.1 2.1-.4v3.2c-.6.3-1.2.4-1.7.5-.5.1-1.2.2-1.9.2-1.5 0-2.5-.4-3.2-1.1-.7-.7-1-1.8-1-3.3v-5.2h-1.5v-1.8l2-1.4 1.1-2.7h2.9v2.5h3.1v3.3h-3.1v5c0 .8.4 1.2 1.2 1.2zM603.9 25.4h7.1v8.8c-1.9.7-4 1-6.3 1-2.5 0-4.5-.7-5.9-2.2-1.4-1.5-2.1-3.6-2.1-6.3 0-2.7.8-4.7 2.3-6.2s3.6-2.2 6.4-2.2c1 0 2 .1 2.9.3s1.7.4 2.4.7l-1.4 3.5c-1.2-.6-2.5-.9-3.9-.9-1.3 0-2.3.4-3 1.3-.7.8-1.1 2-1.1 3.6 0 1.5.3 2.7 1 3.5.6.8 1.6 1.2 2.8 1.2.7 0 1.3-.1 1.8-.2v-2.6H604v-3.3zM622.7 35l-.5-1.6h-.3c-.4.6-.9 1-1.5 1.3-.7.3-1.4.5-2.3.5-1.4 0-2.5-.4-3.3-1.2-.8-.8-1.2-2-1.2-3.4v-8.3h4.4v7c0 .8.1 1.5.4 1.9.2.4.6.6 1.2.6.8 0 1.3-.3 1.6-.9.3-.6.5-1.6.5-3v-5.6h4.4V35h-3.4zM636.9 35l-.8-1.7h-.1c-.6.7-1.2 1.2-1.8 1.5s-1.4.4-2.4.4c-1.2 0-2.1-.4-2.8-1.1s-1-1.7-1-3c0-1.4.5-2.4 1.4-3 .9-.7 2.3-1 4.1-1.1l2.1-.1v-.2c0-1-.5-1.6-1.5-1.6-.9 0-2.1.3-3.5.9l-1.3-2.9c1.5-.8 3.4-1.1 5.6-1.1 1.6 0 2.9.4 3.8 1.2s1.3 1.9 1.3 3.4V35h-3.1zm-3.3-2.9c.5 0 1-.2 1.4-.5s.6-.8.6-1.3v-1h-1c-1.4.1-2.2.6-2.2 1.6 0 .8.4 1.2 1.2 1.2zM650.1 22c.4 0 .7 0 1.1.1h.2l-.4 4.1c-.4-.1-.9-.1-1.5-.1-1 0-1.7.2-2.1.7-.4.4-.7 1.1-.7 1.9V35h-4.4V22.2h3.3l.7 2h.2c.4-.7.9-1.2 1.5-1.6.8-.4 1.5-.6 2.1-.6zM656.8 35.2c-.9 0-1.7-.3-2.4-.8s-1.2-1.3-1.6-2.3c-.4-1-.6-2.2-.6-3.5 0-2.1.4-3.7 1.2-4.9.8-1.2 2-1.8 3.4-1.8.7 0 1.3.1 1.9.4s1 .8 1.5 1.4h.1c-.1-1-.2-2-.2-3v-3.4h4.4V35h-3.3l-.9-1.6h-.2c-.7 1.2-1.8 1.8-3.3 1.8zm1.8-3.5c.7 0 1.2-.2 1.5-.7s.4-1.1.5-2v-.3c0-1.1-.2-1.9-.5-2.4s-.8-.7-1.5-.7c-.6 0-1 .3-1.3.8-.3.5-.5 1.3-.5 2.3 0 1 .2 1.7.5 2.3s.7.7 1.3.7zM666.6 33.1c0-.7.2-1.2.6-1.6s1-.6 1.8-.6c.7 0 1.3.2 1.7.6.4.4.6.9.6 1.6 0 .7-.2 1.2-.6 1.6-.4.4-1 .6-1.7.6s-1.3-.2-1.8-.6c-.4-.4-.6-.9-.6-1.6z"/><g><path class="st0" d="M197.5 62h-9.7V45.6h9.7v3.6h-5.3v2.6h4.9v3.6h-4.9v3.1h5.3V62zM209.5 58.1c0 1.4-.5 2.4-1.4 3.1-.9.7-2.3 1-4 1-.9 0-1.8-.1-2.5-.2s-1.4-.3-2.1-.6V58c.7.3 1.4.5 2.2.7.8.2 1.5.3 2.2.3 1 0 1.4-.2 1.4-.7 0-.2-.1-.4-.4-.6-.3-.2-1-.5-2.3-1-1.2-.5-2-1-2.4-1.6s-.7-1.4-.7-2.3c0-1.2.5-2.1 1.4-2.8.9-.7 2.2-1 3.9-1 .8 0 1.6.1 2.4.3.7.2 1.5.5 2.3.8l-1.2 2.8c-.6-.3-1.2-.5-1.9-.7s-1.2-.3-1.6-.3c-.7 0-1.1.2-1.1.5 0 .2.1.4.4.6.3.2 1 .5 2.2.9.9.4 1.6.7 2 1.1.4.4.8.8 1 1.2.1.6.2 1.2.2 1.9zM217.7 58.7c.6 0 1.3-.1 2.1-.4v3.2c-.6.3-1.2.4-1.7.5-.5.1-1.2.2-1.9.2-1.5 0-2.5-.4-3.2-1.1s-1-1.8-1-3.3v-5.2h-1.5v-1.8l2-1.4 1.1-2.7h2.9v2.5h3.1v3.3h-3.1v5c0 .8.4 1.2 1.2 1.2zM229.9 62l-.8-1.7h-.1c-.6.7-1.2 1.2-1.8 1.5s-1.4.4-2.4.4c-1.2 0-2.1-.4-2.8-1.1s-1-1.7-1-3c0-1.4.5-2.4 1.4-3 .9-.7 2.3-1 4.1-1.1l2.1-.1v-.2c0-1-.5-1.6-1.5-1.6-.9 0-2.1.3-3.5.9l-1.3-2.9c1.5-.8 3.4-1.1 5.6-1.1 1.6 0 2.9.4 3.8 1.2.9.8 1.3 1.9 1.3 3.4V62h-3.1zm-3.2-2.9c.5 0 1-.2 1.4-.5.4-.3.6-.8.6-1.3v-1h-1c-1.4.1-2.2.6-2.2 1.6-.1.8.4 1.2 1.2 1.2zM243.3 49c1.4 0 2.5.6 3.3 1.7.8 1.2 1.2 2.8 1.2 4.8 0 2.1-.4 3.7-1.2 4.9-.8 1.2-2 1.8-3.4 1.8-.5 0-.9-.1-1.3-.2s-.7-.2-1-.4c-.3-.2-.6-.5-1-.9h-.3l-.7 1.2h-3.4V44.5h4.4v4c0 .5-.1 1.3-.2 2.4h.2c.4-.7.9-1.1 1.5-1.4.5-.3 1.2-.5 1.9-.5zm-1.6 3.5c-.6 0-1.1.2-1.3.6-.3.4-.4 1.1-.4 2v.6c0 1 .1 1.8.4 2.2s.7.7 1.4.7c.5 0 .9-.3 1.2-.8.3-.5.4-1.3.4-2.3-.1-2-.6-3-1.7-3zM254.2 62h-4.4V44.5h4.4V62zM256.7 46.1c0-.7.2-1.1.6-1.5s1-.5 1.8-.5 1.4.2 1.8.5.6.8.6 1.5c0 1.3-.8 1.9-2.3 1.9-1.7 0-2.5-.6-2.5-1.9zm4.5 15.9h-4.4V49.3h4.4V62zM273.7 58.1c0 1.4-.5 2.4-1.4 3.1-.9.7-2.3 1-4 1-.9 0-1.8-.1-2.5-.2s-1.4-.3-2.1-.6V58c.7.3 1.4.5 2.2.7.8.2 1.5.3 2.2.3 1 0 1.4-.2 1.4-.7 0-.2-.1-.4-.4-.6-.3-.2-1-.5-2.3-1-1.2-.5-2-1-2.4-1.6s-.7-1.4-.7-2.3c0-1.2.5-2.1 1.4-2.8.9-.7 2.2-1 3.9-1 .8 0 1.6.1 2.4.3.7.2 1.5.5 2.3.8l-1.2 2.8c-.6-.3-1.2-.5-1.9-.7s-1.2-.3-1.6-.3c-.7 0-1.1.2-1.1.5 0 .2.1.4.4.6.3.2 1 .5 2.2.9.9.4 1.6.7 2 1.1.4.4.8.8 1 1.2.1.6.2 1.2.2 1.9zM283.7 62v-7c0-1.7-.5-2.6-1.5-2.6-.7 0-1.2.3-1.6.9-.3.6-.5 1.6-.5 3V62h-4.4V44.5h4.4V47c0 1.1-.1 2.4-.2 3.8h.2c.4-.7.9-1.1 1.5-1.4s1.2-.4 2-.4c1.4 0 2.5.4 3.3 1.2.8.8 1.2 2 1.2 3.4V62h-4.4zM296.8 62.2c-2.1 0-3.8-.6-4.9-1.7-1.2-1.1-1.8-2.7-1.8-4.8 0-2.1.5-3.8 1.6-4.9s2.6-1.7 4.6-1.7c1.9 0 3.4.5 4.4 1.5 1 1 1.6 2.4 1.6 4.3v2h-7.9c0 .7.3 1.3.8 1.7.5.4 1.2.6 2 .6s1.5-.1 2.1-.2c.6-.1 1.3-.4 2.1-.7v3.2c-.7.4-1.4.6-2.1.7s-1.5 0-2.5 0zm-.3-10.2c-.5 0-.9.2-1.3.5-.3.3-.6.8-.6 1.5h3.8c0-.6-.2-1.1-.5-1.5-.4-.3-.8-.5-1.4-.5zM308.3 62.2c-.9 0-1.7-.3-2.4-.8s-1.2-1.3-1.6-2.3c-.4-1-.6-2.2-.6-3.5 0-2.1.4-3.7 1.2-4.9s2-1.8 3.4-1.8c.7 0 1.3.1 1.9.4.5.3 1 .8 1.5 1.4h.1c-.1-1-.2-2-.2-3v-3.4h4.4V62h-3.3l-.9-1.6h-.2c-.6 1.2-1.8 1.8-3.3 1.8zm1.8-3.5c.7 0 1.2-.2 1.5-.7.3-.4.4-1.1.5-2v-.3c0-1.1-.2-1.9-.5-2.4s-.8-.7-1.5-.7c-.6 0-1 .3-1.3.8-.3.5-.5 1.3-.5 2.3 0 1 .2 1.7.5 2.3s.7.7 1.3.7zM333.3 62h-4.5v-8.7c0-1.1 0-2 .1-2.9-.3.3-.6.7-1 1.1L326 53l-2.3-2.8 5.6-4.6h4V62zM338.1 62l5.6-12.7h-7.1v-3.7h11.8v2.6L342.7 62h-4.6zM361.5 53.1c0 3.2-.7 5.5-2.1 7s-3.6 2.2-6.6 2.2c-1 0-1.8 0-2.3-.1v-3.5c.6.1 1.3.2 1.9.2 1.6 0 2.8-.3 3.7-1s1.3-1.7 1.4-3.1h-.1c-.3.5-.6.9-.9 1.2-.3.2-.6.4-1 .5s-.9.2-1.5.2c-1.4 0-2.5-.5-3.3-1.4s-1.2-2.3-1.2-3.9c0-1.8.5-3.2 1.6-4.3 1-1 2.5-1.5 4.3-1.5 2 0 3.6.7 4.7 2 .9 1.1 1.4 3 1.4 5.5zm-6.2-4.2c-.5 0-.9.2-1.2.5-.3.4-.5.9-.5 1.7 0 .6.1 1.1.4 1.5s.7.5 1.2.5.9-.2 1.3-.5c.4-.4.5-.8.5-1.3 0-.7-.2-1.2-.5-1.7-.2-.4-.6-.7-1.2-.7zM374.5 53.8c0 2.9-.5 5-1.5 6.4-1 1.4-2.5 2-4.5 2s-3.4-.7-4.4-2.1c-1-1.4-1.5-3.5-1.5-6.3 0-2.9.5-5.1 1.5-6.4 1-1.4 2.5-2 4.5-2s3.4.7 4.4 2.1c1 1.4 1.5 3.5 1.5 6.3zm-7.4 0c0 1.9.1 3.1.3 3.8s.6 1 1.2 1 .9-.4 1.2-1.1.3-2 .3-3.8c0-1.8-.1-3.1-.3-3.8-.2-.7-.6-1.1-1.2-1.1s-.9.4-1.2 1.1c-.2.7-.3 2-.3 3.9zM375.9 60.1c0-.7.2-1.2.6-1.6s1-.6 1.8-.6c.7 0 1.3.2 1.7.6.4.4.6.9.6 1.6 0 .7-.2 1.2-.6 1.6s-1 .6-1.7.6-1.3-.2-1.8-.6c-.4-.4-.6-.9-.6-1.6z"/></g></svg>