<svg id="Layer_1" xmlns="http://www.w3.org/2000/svg" viewBox="0 0 728 90"><style>.st0{fill:#fff}</style><path class="st0" d="M252.6 20.8l2.8-6.1h4.8l-5.4 10v6.4h-4.5v-6.3L245 14.7h4.8l2.8 6.1zM273.5 24.7c0 2.1-.6 3.7-1.7 4.9-1.1 1.2-2.7 1.7-4.7 1.7-1.9 0-3.5-.6-4.6-1.8-1.1-1.2-1.7-2.8-1.7-4.8 0-2.1.6-3.7 1.7-4.8 1.1-1.1 2.7-1.7 4.7-1.7 1.3 0 2.4.3 3.3.8s1.7 1.3 2.2 2.3c.5.9.8 2.1.8 3.4zm-8.3 0c0 1.1.1 1.9.4 2.5.3.6.8.9 1.5.9s1.2-.3 1.4-.9c.3-.6.4-1.4.4-2.5s-.1-1.9-.4-2.5-.8-.8-1.5-.8-1.2.3-1.4.8c-.2.6-.4 1.4-.4 2.5zM284.6 31.1l-.6-1.6h-.3c-.4.6-.9 1-1.5 1.3-.7.3-1.4.5-2.3.5-1.4 0-2.5-.4-3.3-1.2-.8-.8-1.2-2-1.2-3.4v-8.3h4.4v7c0 .8.1 1.5.4 1.9.2.4.6.6 1.2.6.8 0 1.3-.3 1.6-.9.3-.6.5-1.6.5-3v-5.6h4.4v12.7h-3.3zM294.3 14.7l.2.2c-.7 2.7-1.4 4.8-2 6.3h-3.1c.5-2.4.9-4.6 1.1-6.5h3.8zM303.5 18.1c.4 0 .7 0 1.1.1h.2l-.4 4.1c-.4-.1-.9-.1-1.5-.1-1 0-1.7.2-2.1.7-.4.4-.7 1.1-.7 1.9v6.3h-4.4V18.4h3.3l.7 2h.2c.4-.7.9-1.2 1.5-1.6.8-.5 1.4-.7 2.1-.7zM312.3 31.3c-2.1 0-3.8-.6-4.9-1.7-1.2-1.1-1.8-2.7-1.8-4.8 0-2.1.5-3.8 1.6-4.9 1.1-1.1 2.6-1.7 4.6-1.7 1.9 0 3.4.5 4.4 1.5 1 1 1.6 2.4 1.6 4.3v2H310c0 .7.3 1.3.8 1.7.5.4 1.2.6 2 .6s1.5-.1 2.1-.2c.6-.1 1.3-.4 2.1-.7v3.2c-.7.4-1.4.6-2.1.7s-1.6 0-2.6 0zm-.3-10.2c-.5 0-.9.2-1.3.5-.3.3-.6.8-.6 1.5h3.8c0-.6-.2-1.1-.5-1.5-.4-.3-.8-.5-1.4-.5zM333.7 31.1l-.8-1.7h-.1c-.6.7-1.2 1.2-1.8 1.5s-1.4.4-2.4.4c-1.2 0-2.1-.4-2.8-1.1s-1-1.7-1-3c0-1.4.5-2.4 1.4-3 .9-.7 2.3-1 4.1-1.1l2.1-.1v-.2c0-1-.5-1.6-1.5-1.6-.9 0-2.1.3-3.5.9l-1.3-2.9c1.5-.8 3.4-1.1 5.6-1.1 1.6 0 2.9.4 3.8 1.2.9.8 1.3 1.9 1.3 3.4V31h-3.1zm-3.2-2.9c.5 0 1-.2 1.4-.5.4-.3.6-.8.6-1.3v-1h-1c-1.4.1-2.2.6-2.2 1.6-.1.8.3 1.2 1.2 1.2zM343.7 31.1h-4.4V13.6h4.4v17.5zM357.2 31.1l-1.4-6.1-.3-1.8-.2-1.5h-.1c-.4 2.1-.6 3.4-.7 4l-1.3 5.4h-4.6L345 18.4h4.3l1 4.9c.3 1.7.5 3.1.6 4.2h.1c0-.7.2-2 .6-3.9l1.2-5.1h4.9l1.1 5.2c.3 1.7.6 2.9.7 3.9h.1c0-.6.1-1.3.2-2.1.1-.9.2-1.5.3-2l1.1-4.9h4.2l-3.5 12.7h-4.7zM375.1 31.1l-.8-1.7h-.1c-.6.7-1.2 1.2-1.8 1.5s-1.4.4-2.4.4c-1.2 0-2.1-.4-2.8-1.1s-1-1.7-1-3c0-1.4.5-2.4 1.4-3 .9-.7 2.3-1 4.1-1.1l2.1-.1v-.2c0-1-.5-1.6-1.5-1.6-.9 0-2.1.3-3.5.9l-1.3-2.9c1.5-.8 3.4-1.1 5.6-1.1 1.6 0 2.9.4 3.8 1.2s1.3 1.9 1.3 3.4V31h-3.1zm-3.3-2.9c.5 0 1-.2 1.4-.5s.6-.8.6-1.3v-1h-1c-1.4.1-2.2.6-2.2 1.6 0 .8.4 1.2 1.2 1.2zM379.1 18.4h4.6l2.2 7.3c.1.4.2.8.2 1.4h.1c.1-.5.1-1 .3-1.4l2.2-7.3h4.5l-5 13.5c-.6 1.7-1.4 2.9-2.4 3.6s-2.2 1.1-3.7 1.1c-.6 0-1.2-.1-1.8-.2V33c.4.1.8.1 1.4.1.4 0 .7-.1 1-.2s.5-.4.8-.6c.2-.3.4-.7.7-1.3l-5.1-12.6zM404 27.2c0 1.4-.5 2.4-1.4 3.1s-2.3 1-4 1c-.9 0-1.8-.1-2.5-.2s-1.4-.3-2.1-.6V27c.7.3 1.4.5 2.2.7s1.5.3 2.2.3c1 0 1.4-.2 1.4-.7 0-.2-.1-.4-.4-.6-.3-.2-1-.5-2.3-1-1.2-.5-2-1-2.4-1.6-.5-.6-.7-1.4-.7-2.3 0-1.2.5-2.1 1.4-2.8.9-.7 2.2-1 3.9-1 .8 0 1.6.1 2.4.3.7.2 1.5.5 2.3.8l-1.2 2.8c-.6-.3-1.2-.5-1.9-.7-.7-.2-1.2-.3-1.6-.3-.7 0-1.1.2-1.1.5 0 .2.1.4.4.6.3.2 1 .5 2.2.9.9.4 1.6.7 2 1.1.4.4.8.8 1 1.2.1.7.2 1.3.2 2zM419.2 18.1c.4 0 .7 0 1.1.1h.2l-.4 4.1c-.4-.1-.9-.1-1.5-.1-1 0-1.7.2-2.1.7-.4.4-.7 1.1-.7 1.9v6.3h-4.4V18.4h3.3l.7 2h.2c.4-.7.9-1.2 1.5-1.6.8-.5 1.5-.7 2.1-.7zM428 31.3c-2.1 0-3.8-.6-4.9-1.7-1.2-1.1-1.8-2.7-1.8-4.8 0-2.1.5-3.8 1.6-4.9 1.1-1.1 2.6-1.7 4.7-1.7 1.9 0 3.4.5 4.4 1.5 1 1 1.6 2.4 1.6 4.3v2h-7.8c0 .7.3 1.3.8 1.7s1.2.6 2 .6 1.5-.1 2.1-.2c.6-.1 1.3-.4 2.1-.7v3.2c-.7.4-1.4.6-2.1.7s-1.6 0-2.7 0zm-.2-10.2c-.5 0-.9.2-1.3.5-.3.3-.6.8-.6 1.5h3.8c0-.6-.2-1.1-.5-1.5s-.9-.5-1.4-.5zM443.9 31.1l-.8-1.7h-.1c-.6.7-1.2 1.2-1.8 1.5s-1.4.4-2.4.4c-1.2 0-2.1-.4-2.8-1.1s-1-1.7-1-3c0-1.4.5-2.4 1.4-3 .9-.7 2.3-1 4.1-1.1l2.1-.1v-.2c0-1-.5-1.6-1.5-1.6-.9 0-2.1.3-3.5.9l-1.3-2.9c1.5-.8 3.4-1.1 5.6-1.1 1.6 0 2.9.4 3.8 1.2s1.3 1.9 1.3 3.4V31h-3.1zm-3.2-2.9c.5 0 1-.2 1.4-.5s.6-.8.6-1.3v-1h-1c-1.4.1-2.2.6-2.2 1.6-.1.8.4 1.2 1.2 1.2zM453.5 31.3c-.9 0-1.7-.3-2.4-.8s-1.2-1.3-1.6-2.3c-.4-1-.6-2.2-.6-3.5 0-2.1.4-3.7 1.2-4.9.8-1.2 2-1.8 3.4-1.8.7 0 1.3.1 1.9.4s1 .8 1.5 1.4h.1c-.1-1-.2-2-.2-3v-3.4h4.4v17.5H458l-.9-1.6h-.2c-.8 1.4-1.9 2-3.4 2zm1.8-3.5c.7 0 1.2-.2 1.5-.7s.4-1.1.5-2v-.3c0-1.1-.2-1.9-.5-2.4s-.8-.7-1.5-.7c-.6 0-1 .3-1.3.8-.3.5-.5 1.3-.5 2.3 0 1 .2 1.7.5 2.3s.7.7 1.3.7zM462.3 18.4h4.6l2.2 7.3c.1.4.2.8.2 1.4h.1c.1-.5.1-1 .3-1.4l2.2-7.3h4.5l-5 13.5c-.6 1.7-1.4 2.9-2.4 3.6s-2.2 1.1-3.7 1.1c-.6 0-1.2-.1-1.8-.2V33c.4.1.8.1 1.4.1.4 0 .7-.1 1-.2s.5-.4.8-.6c.2-.3.4-.7.7-1.3l-5.1-12.6zM489.2 27.8c.6 0 1.3-.1 2.1-.4v3.2c-.6.3-1.2.4-1.7.5-.5.1-1.2.2-1.9.2-1.5 0-2.5-.4-3.2-1.1-.7-.7-1-1.8-1-3.3v-5.2H482v-1.8l2-1.4 1.1-2.7h2.9v2.5h3.1v3.3H488v5c0 .8.4 1.2 1.2 1.2zM505.3 24.7c0 2.1-.6 3.7-1.7 4.9-1.1 1.2-2.7 1.7-4.7 1.7-1.9 0-3.5-.6-4.6-1.8s-1.7-2.8-1.7-4.8c0-2.1.6-3.7 1.7-4.8 1.1-1.1 2.7-1.7 4.7-1.7 1.3 0 2.4.3 3.3.8s1.7 1.3 2.2 2.3c.5.9.8 2.1.8 3.4zm-8.3 0c0 1.1.1 1.9.4 2.5.3.6.8.9 1.5.9s1.2-.3 1.4-.9c.3-.6.4-1.4.4-2.5s-.1-1.9-.4-2.5c-.3-.6-.8-.8-1.5-.8s-1.2.3-1.4.8c-.2.6-.4 1.4-.4 2.5z"/><g><path class="st0" d="M254.2 58.3c-.6 0-1.2-.1-1.7-.3-.5-.2-1-.6-1.5-1.2h-.2c.1.9.2 1.4.2 1.7v5.1h-4.4V45.4h3.6l.6 1.6h.2c.8-1.2 1.9-1.8 3.4-1.8 1.4 0 2.5.6 3.3 1.8.8 1.2 1.2 2.8 1.2 4.8 0 2.1-.4 3.7-1.3 4.8-.9 1.1-2 1.7-3.4 1.7zm-1.5-9.7c-.6 0-1.1.2-1.4.7-.3.5-.4 1.1-.4 2v.3c0 1.1.1 1.9.4 2.4s.8.7 1.4.7c.6 0 1-.2 1.2-.7.3-.5.4-1.3.4-2.4 0-1.1-.1-1.9-.4-2.4s-.6-.6-1.2-.6zM268.5 45.1c.4 0 .7 0 1.1.1h.2l-.4 4.1c-.4-.1-.9-.1-1.5-.1-1 0-1.7.2-2.1.7-.4.4-.7 1.1-.7 1.9v6.3h-4.4V45.4h3.3l.7 2h.2c.4-.7.9-1.2 1.5-1.6.8-.4 1.5-.7 2.1-.7zM283.3 51.7c0 2.1-.6 3.7-1.7 4.9-1.1 1.2-2.7 1.7-4.7 1.7-1.9 0-3.5-.6-4.6-1.8-1.1-1.2-1.7-2.8-1.7-4.8 0-2.1.6-3.7 1.7-4.8 1.1-1.1 2.7-1.7 4.7-1.7 1.3 0 2.4.3 3.3.8 1 .5 1.7 1.3 2.2 2.3.6.9.8 2.1.8 3.4zm-8.2 0c0 1.1.1 1.9.4 2.5.3.6.8.9 1.5.9s1.2-.3 1.4-.9c.3-.6.4-1.4.4-2.5s-.1-1.9-.4-2.5-.8-.8-1.5-.8-1.2.3-1.4.8c-.3.6-.4 1.4-.4 2.5zM291.6 54.8c.6 0 1.3-.1 2.1-.4v3.2c-.6.3-1.2.4-1.7.5-.5.1-1.2.2-1.9.2-1.5 0-2.5-.4-3.2-1.1s-1-1.8-1-3.3v-5.2h-1.5v-1.8l2-1.4 1.1-2.7h2.9v2.5h3.1v3.3h-3.1v5c0 .8.4 1.2 1.2 1.2zM301.7 58.3c-2.1 0-3.8-.6-4.9-1.7-1.2-1.1-1.8-2.7-1.8-4.8 0-2.1.5-3.8 1.6-4.9 1.1-1.1 2.6-1.7 4.6-1.7 1.9 0 3.4.5 4.4 1.5 1 1 1.6 2.4 1.6 4.3v2h-7.9c0 .7.3 1.3.8 1.7.5.4 1.2.6 2 .6s1.5-.1 2.1-.2c.6-.1 1.3-.4 2.1-.7v3.2c-.7.4-1.4.6-2.1.7s-1.5 0-2.5 0zm-.3-10.2c-.5 0-.9.2-1.3.5-.3.3-.6.8-.6 1.5h3.8c0-.6-.2-1.1-.5-1.5-.4-.3-.8-.5-1.4-.5zM315.1 58.3c-2.1 0-3.7-.6-4.7-1.7-1.1-1.1-1.6-2.7-1.6-4.8 0-2.1.6-3.7 1.7-4.9 1.2-1.2 2.8-1.7 5-1.7 1.5 0 2.9.3 4.2 1l-1.3 3.2-1.5-.6c-.5-.2-.9-.2-1.4-.2-.7 0-1.3.3-1.7.8s-.6 1.3-.6 2.3c0 2 .8 3.1 2.3 3.1 1.3 0 2.5-.4 3.7-1.1v3.5c-1.2.7-2.5 1.1-4.1 1.1zM327.4 54.8c.6 0 1.3-.1 2.1-.4v3.2c-.6.3-1.2.4-1.7.5-.5.1-1.2.2-1.9.2-1.5 0-2.5-.4-3.2-1.1s-1-1.8-1-3.3v-5.2h-1.5v-1.8l2-1.4 1.1-2.7h2.9v2.5h3.1v3.3h-3.1v5c.1.8.5 1.2 1.2 1.2zM349 51.7c0 2.1-.6 3.7-1.7 4.9-1.1 1.2-2.7 1.7-4.7 1.7-1.9 0-3.5-.6-4.6-1.8-1.1-1.2-1.7-2.8-1.7-4.8 0-2.1.6-3.7 1.7-4.8 1.1-1.1 2.7-1.7 4.7-1.7 1.3 0 2.4.3 3.3.8 1 .5 1.7 1.3 2.2 2.3.6.9.8 2.1.8 3.4zm-8.2 0c0 1.1.1 1.9.4 2.5.3.6.8.9 1.5.9s1.2-.3 1.4-.9c.3-.6.4-1.4.4-2.5s-.1-1.9-.4-2.5-.8-.8-1.5-.8-1.2.3-1.4.8c-.3.6-.4 1.4-.4 2.5zM360.2 58.1l-.6-1.6h-.3c-.4.6-.9 1-1.5 1.3-.7.3-1.4.5-2.3.5-1.4 0-2.5-.4-3.3-1.2s-1.2-2-1.2-3.4v-8.3h4.4v7c0 .8.1 1.5.4 1.9.2.4.6.6 1.2.6.8 0 1.3-.3 1.6-.9.3-.6.5-1.6.5-3v-5.6h4.4v12.7h-3.3zM373.7 45.1c.4 0 .7 0 1.1.1h.2l-.4 4.1c-.4-.1-.9-.1-1.5-.1-1 0-1.7.2-2.1.7-.4.4-.7 1.1-.7 1.9v6.3h-4.4V45.4h3.3l.7 2h.2c.4-.7.9-1.2 1.5-1.6.8-.4 1.5-.7 2.1-.7zM389.9 58.1v-6.9c0-1.7-.5-2.6-1.5-2.6-.7 0-1.2.3-1.6.9s-.5 1.6-.5 3v5.6h-4.4V40.6h4.4v2.5c0 1.1-.1 2.4-.2 3.8h.2c.4-.7.9-1.1 1.5-1.4.6-.3 1.2-.4 2-.4 1.4 0 2.5.4 3.3 1.2.8.8 1.2 2 1.2 3.4V58h-4.4zM409.1 51.7c0 2.1-.6 3.7-1.7 4.9s-2.7 1.7-4.7 1.7c-1.9 0-3.5-.6-4.6-1.8-1.1-1.2-1.7-2.8-1.7-4.8 0-2.1.6-3.7 1.7-4.8 1.1-1.1 2.7-1.7 4.7-1.7 1.3 0 2.4.3 3.3.8 1 .5 1.7 1.3 2.2 2.3.5.9.8 2.1.8 3.4zm-8.3 0c0 1.1.1 1.9.4 2.5.3.6.8.9 1.5.9s1.2-.3 1.4-.9c.3-.6.4-1.4.4-2.5s-.1-1.9-.4-2.5c-.3-.6-.8-.8-1.5-.8s-1.2.3-1.4.8c-.2.6-.4 1.4-.4 2.5zM426.7 58.1v-6.9c0-.9-.1-1.5-.4-1.9-.2-.4-.6-.6-1.1-.6-.7 0-1.2.3-1.5.9-.3.6-.5 1.5-.5 2.7v5.9h-4.4v-6.9c0-.9-.1-1.5-.3-1.9-.2-.4-.6-.6-1.1-.6-.7 0-1.2.3-1.5.9s-.5 1.6-.5 3v5.6H411V45.4h3.3l.5 1.6h.3c.3-.6.8-1 1.5-1.3.6-.3 1.4-.5 2.2-.5 1.8 0 3.1.6 3.9 1.7h.3c.4-.5.9-.9 1.5-1.2.6-.3 1.3-.4 2.1-.4 1.5 0 2.6.4 3.3 1.2.7.8 1.1 1.9 1.1 3.5v8.3h-4.3zM439.8 58.3c-2.1 0-3.8-.6-4.9-1.7-1.2-1.1-1.8-2.7-1.8-4.8 0-2.1.5-3.8 1.6-4.9 1.1-1.1 2.6-1.7 4.7-1.7 1.9 0 3.4.5 4.4 1.5 1 1 1.6 2.4 1.6 4.3v2h-7.8c0 .7.3 1.3.8 1.7s1.2.6 2 .6 1.5-.1 2.1-.2c.6-.1 1.3-.4 2.1-.7v3.2c-.7.4-1.4.6-2.1.7s-1.7 0-2.7 0zm-.3-10.2c-.5 0-.9.2-1.3.5-.3.3-.6.8-.6 1.5h3.8c0-.6-.2-1.1-.5-1.5s-.8-.5-1.4-.5zM451.8 58.1h-4.4V40.6h4.4v17.5zM462.7 58.1l-.8-1.7h-.1c-.6.7-1.2 1.2-1.8 1.5s-1.4.4-2.4.4c-1.2 0-2.1-.4-2.8-1.1s-1-1.7-1-3c0-1.4.5-2.4 1.4-3 .9-.7 2.3-1 4.1-1.1l2.1-.1v-.2c0-1-.5-1.6-1.5-1.6-.9 0-2.1.3-3.5.9l-1.3-2.9c1.5-.8 3.4-1.1 5.6-1.1 1.6 0 2.9.4 3.8 1.2.9.8 1.3 1.9 1.3 3.4V58h-3.1zm-3.3-2.9c.5 0 1-.2 1.4-.5.4-.3.6-.8.6-1.3v-1h-1c-1.4.1-2.2.6-2.2 1.6 0 .8.4 1.2 1.2 1.2zM476.3 58.1v-6.9c0-.8-.1-1.5-.4-1.9-.2-.4-.6-.6-1.2-.6-.7 0-1.3.3-1.6.9-.3.6-.5 1.6-.5 3v5.6h-4.4V45.4h3.3l.5 1.6h.3c.4-.6.9-1 1.6-1.3.7-.3 1.4-.4 2.3-.4 1.4 0 2.5.4 3.3 1.2.8.8 1.2 2 1.2 3.4v8.3h-4.4zM487.2 58.3c-.9 0-1.7-.3-2.4-.8s-1.2-1.3-1.6-2.3c-.4-1-.6-2.2-.6-3.5 0-2.1.4-3.7 1.2-4.9.8-1.2 2-1.8 3.4-1.8.7 0 1.3.1 1.9.4s1 .8 1.5 1.4h.1c-.1-1-.2-2-.2-3v-3.4h4.4v17.5h-3.3l-.9-1.6h-.2c-.7 1.4-1.8 2-3.3 2zm1.8-3.5c.7 0 1.2-.2 1.5-.7s.4-1.1.5-2v-.3c0-1.1-.2-1.9-.5-2.4s-.8-.7-1.5-.7c-.6 0-1 .3-1.3.8-.3.5-.5 1.3-.5 2.3 0 1 .2 1.7.5 2.3s.7.7 1.3.7zM497 56.2c0-.7.2-1.2.6-1.6s1-.6 1.8-.6c.7 0 1.3.2 1.7.6.4.4.6.9.6 1.6 0 .7-.2 1.2-.6 1.6s-1 .6-1.7.6-1.3-.2-1.8-.6c-.4-.4-.6-.9-.6-1.6z"/></g></svg>