<?xml version="1.0" encoding="utf-8"?>
<!-- Generator: Adobe Illustrator 22.1.0, SVG Export Plug-In . SVG Version: 6.00 Build 0)  -->
<svg version="1.1" id="Layer_1" xmlns="http://www.w3.org/2000/svg" xmlns:xlink="http://www.w3.org/1999/xlink" x="0px" y="0px"
	 viewBox="0 0 728 90" style="enable-background:new 0 0 728 90;" xml:space="preserve">
<style type="text/css">
	.st0{fill:#414042;}
</style>
<g>
	<path class="st0" d="M282.5,25.9l2.5-5.3h4.2l-4.7,8.7v5.6h-3.9v-5.5l-4.7-8.8h4.2L282.5,25.9z"/>
	<path class="st0" d="M300.6,29.3c0,1.8-0.5,3.2-1.5,4.2s-2.3,1.5-4.1,1.5c-1.7,0-3-0.5-4-1.6s-1.5-2.4-1.5-4.2
		c0-1.8,0.5-3.2,1.5-4.2s2.3-1.5,4.1-1.5c1.1,0,2,0.2,2.9,0.7s1.5,1.1,1.9,2S300.6,28.2,300.6,29.3z M293.5,29.3
		c0,1,0.1,1.7,0.4,2.2s0.7,0.7,1.3,0.7c0.6,0,1-0.2,1.3-0.7s0.4-1.2,0.4-2.2c0-0.9-0.1-1.7-0.4-2.1s-0.7-0.7-1.3-0.7
		c-0.6,0-1,0.2-1.3,0.7S293.5,28.4,293.5,29.3z"/>
	<path class="st0" d="M310.3,34.9l-0.5-1.4h-0.2c-0.3,0.5-0.8,0.9-1.3,1.2s-1.2,0.4-2,0.4c-1.2,0-2.2-0.4-2.8-1.1s-1-1.7-1-3v-7.2
		h3.8v6c0,0.7,0.1,1.3,0.3,1.6s0.5,0.6,1,0.6c0.7,0,1.1-0.3,1.4-0.8s0.4-1.4,0.4-2.6v-4.8h3.8v11.1H310.3z"/>
	<path class="st0" d="M327.2,34.9v-6c0-1.5-0.4-2.2-1.3-2.2c-0.6,0-1.1,0.3-1.4,0.8s-0.4,1.4-0.4,2.6v4.9h-3.8V19.7h3.8v2.2
		c0,1-0.1,2.1-0.2,3.3h0.2c0.4-0.6,0.8-1,1.3-1.2s1.1-0.4,1.7-0.4c1.2,0,2.2,0.4,2.9,1.1s1,1.7,1,3v7.2H327.2z"/>
	<path class="st0" d="M338.6,35.1c-1.8,0-3.3-0.5-4.3-1.5s-1.5-2.4-1.5-4.2c0-1.9,0.5-3.3,1.4-4.3s2.3-1.5,4-1.5
		c1.7,0,3,0.4,3.9,1.3s1.4,2.1,1.4,3.8v1.7h-6.8c0,0.6,0.3,1.1,0.7,1.5s1,0.5,1.7,0.5c0.7,0,1.3-0.1,1.9-0.2s1.2-0.3,1.8-0.6v2.7
		c-0.6,0.3-1.2,0.5-1.9,0.6S339.5,35.1,338.6,35.1z M338.4,26.2c-0.4,0-0.8,0.1-1.1,0.4s-0.5,0.7-0.5,1.3h3.3c0-0.5-0.2-1-0.5-1.3
		S338.9,26.2,338.4,26.2z"/>
	<path class="st0" d="M349.1,34.9h-3.8V19.7h3.8V34.9z"/>
	<path class="st0" d="M357.9,35.1c-0.6,0-1.1-0.1-1.5-0.3s-0.9-0.5-1.3-1h-0.2c0.1,0.8,0.2,1.3,0.2,1.4v4.4h-3.8V23.8h3.1l0.5,1.4
		h0.2c0.7-1.1,1.7-1.6,2.9-1.6c1.2,0,2.2,0.5,2.9,1.5s1,2.4,1,4.2c0,1.8-0.4,3.2-1.1,4.2S359.2,35.1,357.9,35.1z M356.7,26.6
		c-0.6,0-1,0.2-1.2,0.6s-0.3,1-0.4,1.8v0.3c0,1,0.1,1.6,0.4,2.1s0.7,0.6,1.2,0.6c0.5,0,0.8-0.2,1.1-0.6s0.3-1.1,0.3-2.1
		c0-1-0.1-1.6-0.3-2S357.2,26.6,356.7,26.6z"/>
	<path class="st0" d="M375.2,35.1c-0.6,0-1.1-0.1-1.5-0.3s-0.9-0.5-1.3-1h-0.2c0.1,0.8,0.2,1.3,0.2,1.4v4.4h-3.8V23.8h3.1l0.5,1.4
		h0.2c0.7-1.1,1.7-1.6,2.9-1.6c1.2,0,2.2,0.5,2.9,1.5s1,2.4,1,4.2c0,1.8-0.4,3.2-1.1,4.2S376.5,35.1,375.2,35.1z M373.9,26.6
		c-0.6,0-1,0.2-1.2,0.6s-0.3,1-0.4,1.8v0.3c0,1,0.1,1.6,0.4,2.1s0.7,0.6,1.2,0.6c0.5,0,0.8-0.2,1.1-0.6s0.3-1.1,0.3-2.1
		c0-1-0.1-1.6-0.3-2S374.5,26.6,373.9,26.6z"/>
	<path class="st0" d="M387.7,23.6c0.3,0,0.6,0,0.9,0.1l0.2,0l-0.3,3.6c-0.3-0.1-0.7-0.1-1.3-0.1c-0.8,0-1.4,0.2-1.8,0.6
		s-0.6,0.9-0.6,1.6v5.4H381V23.8h2.8l0.6,1.8h0.2c0.3-0.6,0.8-1.1,1.3-1.4S387.1,23.6,387.7,23.6z"/>
	<path class="st0" d="M400.6,29.3c0,1.8-0.5,3.2-1.5,4.2s-2.3,1.5-4.1,1.5c-1.7,0-3-0.5-4-1.6s-1.5-2.4-1.5-4.2
		c0-1.8,0.5-3.2,1.5-4.2s2.3-1.5,4.1-1.5c1.1,0,2,0.2,2.9,0.7s1.5,1.1,1.9,2S400.6,28.2,400.6,29.3z M393.4,29.3
		c0,1,0.1,1.7,0.4,2.2s0.7,0.7,1.3,0.7c0.6,0,1-0.2,1.3-0.7s0.4-1.2,0.4-2.2c0-0.9-0.1-1.7-0.4-2.1s-0.7-0.7-1.3-0.7
		c-0.6,0-1,0.2-1.3,0.7S393.4,28.4,393.4,29.3z"/>
	<path class="st0" d="M407.8,32.1c0.5,0,1.1-0.1,1.8-0.4v2.8c-0.5,0.2-1,0.4-1.5,0.5s-1,0.1-1.6,0.1c-1.3,0-2.2-0.3-2.8-0.9
		s-0.8-1.6-0.8-2.9v-4.6h-1.3v-1.6l1.7-1.2l1-2.3h2.5v2.2h2.7v2.9h-2.7V31C406.8,31.7,407.1,32.1,407.8,32.1z"/>
	<path class="st0" d="M416.5,35.1c-1.8,0-3.3-0.5-4.3-1.5s-1.5-2.4-1.5-4.2c0-1.9,0.5-3.3,1.4-4.3s2.3-1.5,4-1.5
		c1.7,0,3,0.4,3.9,1.3s1.4,2.1,1.4,3.8v1.7h-6.8c0,0.6,0.3,1.1,0.7,1.5s1,0.5,1.7,0.5c0.7,0,1.3-0.1,1.9-0.2s1.2-0.3,1.8-0.6v2.7
		c-0.6,0.3-1.2,0.5-1.9,0.6S417.4,35.1,416.5,35.1z M416.3,26.2c-0.4,0-0.8,0.1-1.1,0.4s-0.5,0.7-0.5,1.3h3.3c0-0.5-0.2-1-0.5-1.3
		S416.8,26.2,416.3,26.2z"/>
	<path class="st0" d="M428.2,35.1c-1.8,0-3.2-0.5-4.1-1.5s-1.4-2.4-1.4-4.2c0-1.8,0.5-3.3,1.5-4.3s2.4-1.5,4.3-1.5
		c1.3,0,2.5,0.3,3.6,0.8l-1.1,2.8c-0.5-0.2-0.9-0.4-1.3-0.5s-0.8-0.2-1.2-0.2c-0.6,0-1.1,0.2-1.4,0.7s-0.5,1.2-0.5,2
		c0,1.8,0.7,2.7,2,2.7c1.1,0,2.2-0.3,3.2-1v3C430.7,34.8,429.6,35.1,428.2,35.1z"/>
	<path class="st0" d="M438.9,32.1c0.5,0,1.1-0.1,1.8-0.4v2.8c-0.5,0.2-1,0.4-1.5,0.5s-1,0.1-1.6,0.1c-1.3,0-2.2-0.3-2.8-0.9
		s-0.8-1.6-0.8-2.9v-4.6h-1.3v-1.6l1.7-1.2l1-2.3h2.5v2.2h2.7v2.9h-2.7V31C437.9,31.7,438.3,32.1,438.9,32.1z"/>
	<path class="st0" d="M452.6,32.1c0.5,0,1.1-0.1,1.8-0.4v2.8c-0.5,0.2-1,0.4-1.5,0.5s-1,0.1-1.6,0.1c-1.3,0-2.2-0.3-2.8-0.9
		s-0.8-1.6-0.8-2.9v-4.6h-1.3v-1.6l1.7-1.2l1-2.3h2.5v2.2h2.7v2.9h-2.7V31C451.5,31.7,451.9,32.1,452.6,32.1z"/>
	<path class="st0" d="M462.9,34.9v-6c0-1.5-0.4-2.2-1.3-2.2c-0.6,0-1.1,0.3-1.4,0.8s-0.4,1.4-0.4,2.6v4.9H456V19.7h3.8v2.2
		c0,1-0.1,2.1-0.2,3.3h0.2c0.4-0.6,0.8-1,1.3-1.2s1.1-0.4,1.7-0.4c1.2,0,2.2,0.4,2.9,1.1s1,1.7,1,3v7.2H462.9z"/>
	<path class="st0" d="M474.3,35.1c-1.8,0-3.3-0.5-4.3-1.5s-1.5-2.4-1.5-4.2c0-1.9,0.5-3.3,1.4-4.3s2.3-1.5,4-1.5
		c1.7,0,3,0.4,3.9,1.3s1.4,2.1,1.4,3.8v1.7h-6.8c0,0.6,0.3,1.1,0.7,1.5s1,0.5,1.7,0.5c0.7,0,1.3-0.1,1.9-0.2s1.2-0.3,1.8-0.6v2.7
		c-0.6,0.3-1.2,0.5-1.9,0.6S475.2,35.1,474.3,35.1z M474.1,26.2c-0.4,0-0.8,0.1-1.1,0.4s-0.5,0.7-0.5,1.3h3.3c0-0.5-0.2-1-0.5-1.3
		S474.6,26.2,474.1,26.2z"/>
	<path class="st0" d="M490.8,35.1c-1.8,0-3.2-0.5-4.1-1.5s-1.4-2.4-1.4-4.2c0-1.8,0.5-3.3,1.5-4.3s2.4-1.5,4.3-1.5
		c1.3,0,2.5,0.3,3.6,0.8l-1.1,2.8c-0.5-0.2-0.9-0.4-1.3-0.5s-0.8-0.2-1.2-0.2c-0.6,0-1.1,0.2-1.4,0.7s-0.5,1.2-0.5,2
		c0,1.8,0.7,2.7,2,2.7c1.1,0,2.2-0.3,3.2-1v3C493.4,34.8,492.2,35.1,490.8,35.1z"/>
	<path class="st0" d="M506.7,29.3c0,1.8-0.5,3.2-1.5,4.2s-2.3,1.5-4.1,1.5c-1.7,0-3-0.5-4-1.6s-1.5-2.4-1.5-4.2
		c0-1.8,0.5-3.2,1.5-4.2s2.3-1.5,4.1-1.5c1.1,0,2,0.2,2.9,0.7s1.5,1.1,1.9,2S506.7,28.2,506.7,29.3z M499.6,29.3
		c0,1,0.1,1.7,0.4,2.2s0.7,0.7,1.3,0.7c0.6,0,1-0.2,1.3-0.7s0.4-1.2,0.4-2.2c0-0.9-0.1-1.7-0.4-2.1s-0.7-0.7-1.3-0.7
		c-0.6,0-1,0.2-1.3,0.7S499.6,28.4,499.6,29.3z"/>
	<path class="st0" d="M516.4,34.9l-0.5-1.4h-0.2c-0.3,0.5-0.8,0.9-1.3,1.2s-1.2,0.4-2,0.4c-1.2,0-2.2-0.4-2.8-1.1s-1-1.7-1-3v-7.2
		h3.8v6c0,0.7,0.1,1.3,0.3,1.6s0.5,0.6,1,0.6c0.7,0,1.1-0.3,1.4-0.8s0.4-1.4,0.4-2.6v-4.8h3.8v11.1H516.4z"/>
	<path class="st0" d="M528.5,34.9v-6c0-0.7-0.1-1.3-0.3-1.7s-0.6-0.6-1-0.6c-0.6,0-1.1,0.3-1.4,0.8s-0.4,1.4-0.4,2.6v4.8h-3.8V23.8
		h2.9l0.5,1.4h0.2c0.3-0.5,0.8-0.9,1.4-1.2s1.2-0.4,2-0.4c1.2,0,2.2,0.4,2.9,1.1s1,1.7,1,3v7.2H528.5z"/>
	<path class="st0" d="M540,32.1c0.5,0,1.1-0.1,1.8-0.4v2.8c-0.5,0.2-1,0.4-1.5,0.5s-1,0.1-1.6,0.1c-1.3,0-2.2-0.3-2.8-0.9
		s-0.8-1.6-0.8-2.9v-4.6h-1.3v-1.6l1.7-1.2l1-2.3h2.5v2.2h2.7v2.9h-2.7V31C538.9,31.7,539.3,32.1,540,32.1z"/>
	<path class="st0" d="M550,23.6c0.3,0,0.6,0,0.9,0.1l0.2,0l-0.3,3.6c-0.3-0.1-0.7-0.1-1.3-0.1c-0.8,0-1.4,0.2-1.8,0.6
		s-0.6,0.9-0.6,1.6v5.4h-3.8V23.8h2.8l0.6,1.8h0.2c0.3-0.6,0.8-1.1,1.3-1.4S549.5,23.6,550,23.6z"/>
	<path class="st0" d="M551,23.8h4l1.9,6.3c0.1,0.3,0.2,0.7,0.2,1.2h0.1c0.1-0.4,0.1-0.8,0.2-1.2l1.9-6.4h3.9l-4.4,11.8
		c-0.6,1.5-1.2,2.6-2.1,3.2s-1.9,0.9-3.2,0.9c-0.5,0-1-0.1-1.6-0.2v-3c0.3,0.1,0.7,0.1,1.2,0.1c0.3,0,0.6-0.1,0.9-0.2
		s0.5-0.3,0.7-0.6s0.4-0.6,0.6-1.2L551,23.8z"/>
	<path class="st0" d="M563.7,33.3c0-0.6,0.2-1.1,0.5-1.4s0.9-0.5,1.5-0.5c0.6,0,1.1,0.2,1.5,0.5s0.5,0.8,0.5,1.4
		c0,0.6-0.2,1-0.5,1.4s-0.8,0.5-1.5,0.5c-0.6,0-1.2-0.2-1.5-0.5S563.7,33.9,563.7,33.3z"/>
</g>
</svg>
