<?xml version="1.0" encoding="utf-8"?>
<!-- Generator: Adobe Illustrator 22.1.0, SVG Export Plug-In . SVG Version: 6.00 Build 0)  -->
<svg version="1.1" id="Layer_1" xmlns="http://www.w3.org/2000/svg" xmlns:xlink="http://www.w3.org/1999/xlink" x="0px" y="0px"
	 viewBox="0 0 728 90" style="enable-background:new 0 0 728 90;" xml:space="preserve">
<style type="text/css">
	.st0{fill:#414042;}
</style>
<g>
	<path class="st0" d="M302,33.9h-4.6l-1.4-6.2c-0.1-0.3-0.2-0.8-0.3-1.6s-0.2-1.4-0.3-1.9c-0.1,0.4-0.1,0.9-0.3,1.6
		s-0.2,1.2-0.3,1.7s-0.6,2.7-1.4,6.4h-4.6l-3.5-14.3h3.7l1.6,7.2c0.4,1.6,0.6,2.8,0.7,3.8c0.1-0.7,0.2-1.6,0.5-2.7s0.4-2.1,0.6-2.8
		l1.3-5.4h3.6l1.2,5.4c0.2,0.9,0.4,1.9,0.6,3s0.4,2,0.4,2.5c0.1-0.7,0.3-2,0.7-3.8l1.6-7.2h3.7L302,33.9z"/>
	<path class="st0" d="M312,34.1c-1.8,0-3.3-0.5-4.3-1.5s-1.5-2.4-1.5-4.2c0-1.9,0.5-3.3,1.4-4.3s2.3-1.5,4-1.5c1.7,0,3,0.4,3.9,1.3
		s1.4,2.1,1.4,3.8v1.7h-6.8c0,0.6,0.3,1.1,0.7,1.5s1,0.5,1.7,0.5c0.7,0,1.3-0.1,1.9-0.2s1.2-0.3,1.8-0.6v2.7
		c-0.6,0.3-1.2,0.5-1.9,0.6S312.9,34.1,312,34.1z M311.8,25.2c-0.4,0-0.8,0.1-1.1,0.4s-0.5,0.7-0.5,1.3h3.3c0-0.5-0.2-1-0.5-1.3
		S312.3,25.2,311.8,25.2z"/>
	<path class="st0" d="M328.5,34.1c-1.8,0-3.2-0.5-4.1-1.5s-1.4-2.4-1.4-4.2c0-1.8,0.5-3.3,1.5-4.3s2.4-1.5,4.3-1.5
		c1.3,0,2.5,0.3,3.6,0.8l-1.1,2.8c-0.5-0.2-0.9-0.4-1.3-0.5s-0.8-0.2-1.2-0.2c-0.6,0-1.1,0.2-1.4,0.7s-0.5,1.2-0.5,2
		c0,1.8,0.7,2.7,2,2.7c1.1,0,2.2-0.3,3.2-1v3C331.1,33.7,329.9,34.1,328.5,34.1z"/>
	<path class="st0" d="M341.1,33.9l-0.7-1.5h-0.1c-0.5,0.6-1,1.1-1.6,1.3s-1.2,0.4-2.1,0.4c-1,0-1.9-0.3-2.5-0.9s-0.9-1.5-0.9-2.6
		c0-1.2,0.4-2.1,1.2-2.6s2-0.9,3.6-1l1.8-0.1v-0.2c0-0.9-0.4-1.4-1.3-1.4c-0.8,0-1.8,0.3-3.1,0.8l-1.1-2.5c1.3-0.7,2.9-1,4.9-1
		c1.4,0,2.5,0.4,3.3,1.1s1.2,1.7,1.2,2.9v7.3H341.1z M338.2,31.4c0.5,0,0.9-0.1,1.2-0.4s0.5-0.7,0.5-1.1v-0.9l-0.9,0
		c-1.3,0-1.9,0.5-1.9,1.4C337.2,31,337.5,31.4,338.2,31.4z"/>
	<path class="st0" d="M352.9,33.9v-6c0-0.7-0.1-1.3-0.3-1.7s-0.6-0.6-1-0.6c-0.6,0-1.1,0.3-1.4,0.8s-0.4,1.4-0.4,2.6v4.8h-3.8V22.8
		h2.9l0.5,1.4h0.2c0.3-0.5,0.8-0.9,1.4-1.2s1.2-0.4,2-0.4c1.2,0,2.2,0.4,2.9,1.1s1,1.7,1,3v7.2H352.9z"/>
	<path class="st0" d="M370.7,33.9v-6c0-1.5-0.4-2.2-1.3-2.2c-0.6,0-1.1,0.3-1.4,0.8s-0.4,1.4-0.4,2.6v4.9h-3.8V18.7h3.8v2.2
		c0,1-0.1,2.1-0.2,3.3h0.2c0.4-0.6,0.8-1,1.3-1.2s1.1-0.4,1.7-0.4c1.2,0,2.2,0.4,2.9,1.1s1,1.7,1,3v7.2H370.7z"/>
	<path class="st0" d="M382.1,34.1c-1.8,0-3.3-0.5-4.3-1.5s-1.5-2.4-1.5-4.2c0-1.9,0.5-3.3,1.4-4.3s2.3-1.5,4-1.5
		c1.7,0,3,0.4,3.9,1.3s1.4,2.1,1.4,3.8v1.7h-6.8c0,0.6,0.3,1.1,0.7,1.5s1,0.5,1.7,0.5c0.7,0,1.3-0.1,1.9-0.2s1.2-0.3,1.8-0.6v2.7
		c-0.6,0.3-1.2,0.5-1.9,0.6S383,34.1,382.1,34.1z M381.9,25.2c-0.4,0-0.8,0.1-1.1,0.4s-0.5,0.7-0.5,1.3h3.3c0-0.5-0.2-1-0.5-1.3
		S382.4,25.2,381.9,25.2z"/>
	<path class="st0" d="M392.6,33.9h-3.8V18.7h3.8V33.9z"/>
	<path class="st0" d="M401.4,34.1c-0.6,0-1.1-0.1-1.5-0.3s-0.9-0.5-1.3-1h-0.2c0.1,0.8,0.2,1.3,0.2,1.4v4.4h-3.8V22.8h3.1l0.5,1.4
		h0.2c0.7-1.1,1.7-1.6,2.9-1.6c1.2,0,2.2,0.5,2.9,1.5s1,2.4,1,4.2c0,1.8-0.4,3.2-1.1,4.2S402.7,34.1,401.4,34.1z M400.2,25.6
		c-0.6,0-1,0.2-1.2,0.6s-0.3,1-0.4,1.8v0.3c0,1,0.1,1.6,0.4,2.1s0.7,0.6,1.2,0.6c0.5,0,0.8-0.2,1.1-0.6s0.3-1.1,0.3-2.1
		c0-1-0.1-1.6-0.3-2S400.7,25.6,400.2,25.6z"/>
	<path class="st0" d="M410.7,22.8h4l1.9,6.3c0.1,0.3,0.2,0.7,0.2,1.2h0.1c0.1-0.4,0.1-0.8,0.2-1.2l1.9-6.4h3.9l-4.4,11.8
		c-0.6,1.5-1.2,2.6-2.1,3.2s-1.9,0.9-3.2,0.9c-0.5,0-1-0.1-1.6-0.2v-3c0.3,0.1,0.7,0.1,1.2,0.1c0.3,0,0.6-0.1,0.9-0.2
		s0.5-0.3,0.7-0.6s0.4-0.6,0.6-1.2L410.7,22.8z"/>
	<path class="st0" d="M434.5,28.3c0,1.8-0.5,3.2-1.5,4.2s-2.3,1.5-4.1,1.5c-1.7,0-3-0.5-4-1.6s-1.5-2.4-1.5-4.2
		c0-1.8,0.5-3.2,1.5-4.2s2.3-1.5,4.1-1.5c1.1,0,2,0.2,2.9,0.7s1.5,1.1,1.9,2S434.5,27.2,434.5,28.3z M427.3,28.3
		c0,1,0.1,1.7,0.4,2.2s0.7,0.7,1.3,0.7c0.6,0,1-0.2,1.3-0.7s0.4-1.2,0.4-2.2c0-0.9-0.1-1.7-0.4-2.1s-0.7-0.7-1.3-0.7
		c-0.6,0-1,0.2-1.3,0.7S427.3,27.4,427.3,28.3z"/>
	<path class="st0" d="M444.1,33.9l-0.5-1.4h-0.2c-0.3,0.5-0.8,0.9-1.3,1.2s-1.2,0.4-2,0.4c-1.2,0-2.2-0.4-2.8-1.1s-1-1.7-1-3v-7.2
		h3.8v6c0,0.7,0.1,1.3,0.3,1.6s0.5,0.6,1,0.6c0.7,0,1.1-0.3,1.4-0.8s0.4-1.4,0.4-2.6v-4.8h3.8v11.1H444.1z"/>
	<path class="st0" d="M460.7,34.1c-0.6,0-1.1-0.1-1.5-0.3s-0.9-0.5-1.3-1h-0.2c0.1,0.8,0.2,1.3,0.2,1.4v4.4h-3.8V22.8h3.1l0.5,1.4
		h0.2c0.7-1.1,1.7-1.6,2.9-1.6c1.2,0,2.2,0.5,2.9,1.5s1,2.4,1,4.2c0,1.8-0.4,3.2-1.1,4.2S462,34.1,460.7,34.1z M459.4,25.6
		c-0.6,0-1,0.2-1.2,0.6s-0.3,1-0.4,1.8v0.3c0,1,0.1,1.6,0.4,2.1s0.7,0.6,1.2,0.6c0.5,0,0.8-0.2,1.1-0.6s0.3-1.1,0.3-2.1
		c0-1-0.1-1.6-0.3-2S459.9,25.6,459.4,25.6z"/>
	<path class="st0" d="M473.2,22.6c0.3,0,0.6,0,0.9,0.1l0.2,0l-0.3,3.6c-0.3-0.1-0.7-0.1-1.3-0.1c-0.8,0-1.4,0.2-1.8,0.6
		s-0.6,0.9-0.6,1.6v5.4h-3.8V22.8h2.8l0.6,1.8h0.2c0.3-0.6,0.8-1.1,1.3-1.4S472.6,22.6,473.2,22.6z"/>
	<path class="st0" d="M486.1,28.3c0,1.8-0.5,3.2-1.5,4.2s-2.3,1.5-4.1,1.5c-1.7,0-3-0.5-4-1.6s-1.5-2.4-1.5-4.2
		c0-1.8,0.5-3.2,1.5-4.2s2.3-1.5,4.1-1.5c1.1,0,2,0.2,2.9,0.7s1.5,1.1,1.9,2S486.1,27.2,486.1,28.3z M478.9,28.3
		c0,1,0.1,1.7,0.4,2.2s0.7,0.7,1.3,0.7c0.6,0,1-0.2,1.3-0.7s0.4-1.2,0.4-2.2c0-0.9-0.1-1.7-0.4-2.1s-0.7-0.7-1.3-0.7
		c-0.6,0-1,0.2-1.3,0.7S478.9,27.4,478.9,28.3z"/>
	<path class="st0" d="M493.3,31.1c0.5,0,1.1-0.1,1.8-0.4v2.8c-0.5,0.2-1,0.4-1.5,0.5s-1,0.1-1.6,0.1c-1.3,0-2.2-0.3-2.8-0.9
		s-0.8-1.6-0.8-2.9v-4.6h-1.3v-1.6l1.7-1.2l1-2.3h2.5v2.2h2.7v2.9h-2.7V30C492.2,30.7,492.6,31.1,493.3,31.1z"/>
	<path class="st0" d="M502,34.1c-1.8,0-3.3-0.5-4.3-1.5s-1.5-2.4-1.5-4.2c0-1.9,0.5-3.3,1.4-4.3s2.3-1.5,4-1.5c1.7,0,3,0.4,3.9,1.3
		s1.4,2.1,1.4,3.8v1.7h-6.8c0,0.6,0.3,1.1,0.7,1.5s1,0.5,1.7,0.5c0.7,0,1.3-0.1,1.9-0.2s1.2-0.3,1.8-0.6v2.7
		c-0.6,0.3-1.2,0.5-1.9,0.6S502.9,34.1,502,34.1z M501.8,25.2c-0.4,0-0.8,0.1-1.1,0.4s-0.5,0.7-0.5,1.3h3.3c0-0.5-0.2-1-0.5-1.3
		S502.3,25.2,501.8,25.2z"/>
	<path class="st0" d="M513.7,34.1c-1.8,0-3.2-0.5-4.1-1.5s-1.4-2.4-1.4-4.2c0-1.8,0.5-3.3,1.5-4.3s2.4-1.5,4.3-1.5
		c1.3,0,2.5,0.3,3.6,0.8l-1.1,2.8c-0.5-0.2-0.9-0.4-1.3-0.5s-0.8-0.2-1.2-0.2c-0.6,0-1.1,0.2-1.4,0.7s-0.5,1.2-0.5,2
		c0,1.8,0.7,2.7,2,2.7c1.1,0,2.2-0.3,3.2-1v3C516.2,33.7,515.1,34.1,513.7,34.1z"/>
	<path class="st0" d="M524.4,31.1c0.5,0,1.1-0.1,1.8-0.4v2.8c-0.5,0.2-1,0.4-1.5,0.5s-1,0.1-1.6,0.1c-1.3,0-2.2-0.3-2.8-0.9
		s-0.8-1.6-0.8-2.9v-4.6h-1.3v-1.6l1.7-1.2l1-2.3h2.5v2.2h2.7v2.9h-2.7V30C523.4,30.7,523.8,31.1,524.4,31.1z"/>
	<path class="st0" d="M531.3,22.8h4l1.9,6.3c0.1,0.3,0.2,0.7,0.2,1.2h0.1c0.1-0.4,0.1-0.8,0.2-1.2l1.9-6.4h3.9l-4.4,11.8
		c-0.6,1.5-1.2,2.6-2.1,3.2s-1.9,0.9-3.2,0.9c-0.5,0-1-0.1-1.6-0.2v-3c0.3,0.1,0.7,0.1,1.2,0.1c0.3,0,0.6-0.1,0.9-0.2
		s0.5-0.3,0.7-0.6s0.4-0.6,0.6-1.2L531.3,22.8z"/>
	<path class="st0" d="M555,28.3c0,1.8-0.5,3.2-1.5,4.2s-2.3,1.5-4.1,1.5c-1.7,0-3-0.5-4-1.6s-1.5-2.4-1.5-4.2c0-1.8,0.5-3.2,1.5-4.2
		s2.3-1.5,4.1-1.5c1.1,0,2,0.2,2.9,0.7s1.5,1.1,1.9,2S555,27.2,555,28.3z M547.9,28.3c0,1,0.1,1.7,0.4,2.2s0.7,0.7,1.3,0.7
		c0.6,0,1-0.2,1.3-0.7s0.4-1.2,0.4-2.2c0-0.9-0.1-1.7-0.4-2.1s-0.7-0.7-1.3-0.7c-0.6,0-1,0.2-1.3,0.7S547.9,27.4,547.9,28.3z"/>
	<path class="st0" d="M564.7,33.9l-0.5-1.4H564c-0.3,0.5-0.8,0.9-1.3,1.2s-1.2,0.4-2,0.4c-1.2,0-2.2-0.4-2.8-1.1s-1-1.7-1-3v-7.2
		h3.8v6c0,0.7,0.1,1.3,0.3,1.6s0.5,0.6,1,0.6c0.7,0,1.1-0.3,1.4-0.8s0.4-1.4,0.4-2.6v-4.8h3.8v11.1H564.7z"/>
	<path class="st0" d="M576.5,22.6c0.3,0,0.6,0,0.9,0.1l0.2,0l-0.3,3.6c-0.3-0.1-0.7-0.1-1.3-0.1c-0.8,0-1.4,0.2-1.8,0.6
		s-0.6,0.9-0.6,1.6v5.4h-3.8V22.8h2.8l0.6,1.8h0.2c0.3-0.6,0.8-1.1,1.3-1.4S575.9,22.6,576.5,22.6z"/>
	<path class="st0" d="M590.4,25.7H588v8.2h-3.8v-8.2h-1.5v-1.9l1.5-0.9v-0.2c0-1.5,0.3-2.5,0.9-3.1s1.6-1,2.9-1c0.5,0,1,0,1.4,0.1
		s1,0.2,1.6,0.4l-0.8,2.5c-0.5-0.1-0.9-0.2-1.4-0.2c-0.3,0-0.5,0.1-0.6,0.3s-0.2,0.5-0.2,0.9v0.3h2.4V25.7z"/>
	<path class="st0" d="M598.7,33.9l-0.7-1.5h-0.1c-0.5,0.6-1,1.1-1.6,1.3s-1.2,0.4-2.1,0.4c-1,0-1.9-0.3-2.5-0.9s-0.9-1.5-0.9-2.6
		c0-1.2,0.4-2.1,1.2-2.6s2-0.9,3.6-1l1.8-0.1v-0.2c0-0.9-0.4-1.4-1.3-1.4c-0.8,0-1.8,0.3-3.1,0.8l-1.1-2.5c1.3-0.7,2.9-1,4.9-1
		c1.4,0,2.5,0.4,3.3,1.1s1.2,1.7,1.2,2.9v7.3H598.7z M595.9,31.4c0.5,0,0.9-0.1,1.2-0.4s0.5-0.7,0.5-1.1v-0.9l-0.9,0
		c-1.3,0-1.9,0.5-1.9,1.4C594.8,31,595.2,31.4,595.9,31.4z"/>
	<path class="st0" d="M617.1,33.9v-6c0-0.7-0.1-1.3-0.3-1.7s-0.5-0.6-1-0.6c-0.6,0-1,0.3-1.3,0.8s-0.4,1.3-0.4,2.4v5.2h-3.8v-6
		c0-0.7-0.1-1.3-0.3-1.7s-0.5-0.6-0.9-0.6c-0.6,0-1,0.3-1.3,0.8s-0.4,1.4-0.4,2.6v4.8h-3.8V22.8h2.9l0.5,1.4h0.2
		c0.3-0.5,0.7-0.9,1.3-1.2s1.2-0.4,1.9-0.4c1.6,0,2.7,0.5,3.4,1.5h0.3c0.3-0.5,0.7-0.8,1.3-1.1s1.2-0.4,1.8-0.4c1.3,0,2.3,0.3,2.9,1
		s0.9,1.7,0.9,3.1v7.2H617.1z"/>
	<path class="st0" d="M623.1,20.1c0-0.6,0.2-1,0.5-1.3s0.8-0.4,1.5-0.4s1.2,0.1,1.6,0.4s0.5,0.7,0.5,1.3c0,1.1-0.7,1.7-2,1.7
		C623.8,21.7,623.1,21.2,623.1,20.1z M627,33.9h-3.8V22.8h3.8V33.9z"/>
	<path class="st0" d="M633.1,33.9h-3.8V18.7h3.8V33.9z"/>
	<path class="st0" d="M634,22.8h4l1.9,6.3c0.1,0.3,0.2,0.7,0.2,1.2h0.1c0.1-0.4,0.1-0.8,0.2-1.2l1.9-6.4h3.9l-4.4,11.8
		c-0.6,1.5-1.2,2.6-2.1,3.2s-1.9,0.9-3.2,0.9c-0.5,0-1-0.1-1.6-0.2v-3c0.3,0.1,0.7,0.1,1.2,0.1c0.3,0,0.6-0.1,0.9-0.2
		s0.5-0.3,0.7-0.6s0.4-0.6,0.6-1.2L634,22.8z"/>
	<path class="st0" d="M646.7,32.3c0-0.6,0.2-1.1,0.5-1.4s0.9-0.5,1.5-0.5c0.6,0,1.1,0.2,1.5,0.5s0.5,0.8,0.5,1.4
		c0,0.6-0.2,1-0.5,1.4s-0.8,0.5-1.5,0.5c-0.6,0-1.2-0.2-1.5-0.5S646.7,32.9,646.7,32.3z"/>
</g>
</svg>
