<?xml version="1.0" encoding="utf-8"?>
<!-- Generator: Adobe Illustrator 22.1.0, SVG Export Plug-In . SVG Version: 6.00 Build 0)  -->
<svg version="1.1" id="Layer_1" xmlns="http://www.w3.org/2000/svg" xmlns:xlink="http://www.w3.org/1999/xlink" x="0px" y="0px"
	 viewBox="0 0 728 90" style="enable-background:new 0 0 728 90;" xml:space="preserve">
<style type="text/css">
	.st0{fill:#414042;}
</style>
<g>
	<path class="st0" d="M278.7,34.9h-3.9v-5.8h-4.5v5.8h-3.9V20.6h3.9v5.3h4.5v-5.3h3.9V34.9z"/>
	<path class="st0" d="M291.7,29.3c0,1.8-0.5,3.2-1.5,4.2s-2.3,1.5-4.1,1.5c-1.7,0-3-0.5-4-1.6s-1.5-2.4-1.5-4.2
		c0-1.8,0.5-3.2,1.5-4.2s2.3-1.5,4.1-1.5c1.1,0,2,0.2,2.9,0.7s1.5,1.1,1.9,2S291.7,28.2,291.7,29.3z M284.5,29.3
		c0,1,0.1,1.7,0.4,2.2s0.7,0.7,1.3,0.7c0.6,0,1-0.2,1.3-0.7s0.4-1.2,0.4-2.2c0-0.9-0.1-1.7-0.4-2.1s-0.7-0.7-1.3-0.7
		c-0.6,0-1,0.2-1.3,0.7S284.5,28.4,284.5,29.3z"/>
	<path class="st0" d="M300.4,34.9v-6c0-0.7-0.1-1.3-0.3-1.7s-0.6-0.6-1-0.6c-0.6,0-1.1,0.3-1.4,0.8s-0.4,1.4-0.4,2.6v4.8h-3.8V23.8
		h2.9l0.5,1.4h0.2c0.3-0.5,0.8-0.9,1.4-1.2s1.2-0.4,2-0.4c1.2,0,2.2,0.4,2.9,1.1s1,1.7,1,3v7.2H300.4z"/>
	<path class="st0" d="M317,29.3c0,1.8-0.5,3.2-1.5,4.2s-2.3,1.5-4.1,1.5c-1.7,0-3-0.5-4-1.6s-1.5-2.4-1.5-4.2c0-1.8,0.5-3.2,1.5-4.2
		s2.3-1.5,4.1-1.5c1.1,0,2,0.2,2.9,0.7s1.5,1.1,1.9,2S317,28.2,317,29.3z M309.9,29.3c0,1,0.1,1.7,0.4,2.2s0.7,0.7,1.3,0.7
		c0.6,0,1-0.2,1.3-0.7s0.4-1.2,0.4-2.2c0-0.9-0.1-1.7-0.4-2.1s-0.7-0.7-1.3-0.7c-0.6,0-1,0.2-1.3,0.7S309.9,28.4,309.9,29.3z"/>
	<path class="st0" d="M325.5,23.6c0.3,0,0.6,0,0.9,0.1l0.2,0l-0.3,3.6c-0.3-0.1-0.7-0.1-1.3-0.1c-0.8,0-1.4,0.2-1.8,0.6
		s-0.6,0.9-0.6,1.6v5.4h-3.8V23.8h2.8l0.6,1.8h0.2c0.3-0.6,0.8-1.1,1.3-1.4S324.9,23.6,325.5,23.6z"/>
	<path class="st0" d="M327.7,21.1c0-0.6,0.2-1,0.5-1.3s0.8-0.4,1.5-0.4s1.2,0.1,1.6,0.4s0.5,0.7,0.5,1.3c0,1.1-0.7,1.7-2,1.7
		C328.4,22.8,327.7,22.2,327.7,21.1z M331.6,34.9h-3.8V23.8h3.8V34.9z"/>
	<path class="st0" d="M340.9,34.9v-6c0-0.7-0.1-1.3-0.3-1.7s-0.6-0.6-1-0.6c-0.6,0-1.1,0.3-1.4,0.8s-0.4,1.4-0.4,2.6v4.8h-3.8V23.8
		h2.9l0.5,1.4h0.2c0.3-0.5,0.8-0.9,1.4-1.2s1.2-0.4,2-0.4c1.2,0,2.2,0.4,2.9,1.1s1,1.7,1,3v7.2H340.9z"/>
	<path class="st0" d="M357.4,23.8v1.8l-1.5,0.6c0.2,0.4,0.3,0.8,0.3,1.3c0,1.2-0.4,2.1-1.3,2.8s-2.1,1-3.7,1c-0.4,0-0.7,0-1-0.1
		c-0.1,0.2-0.1,0.3-0.1,0.5c0,0.2,0.2,0.3,0.5,0.4s0.7,0.2,1.2,0.2h1.8c2.5,0,3.7,1,3.7,3.1c0,1.3-0.6,2.4-1.7,3.1s-2.8,1.1-4.8,1.1
		c-1.6,0-2.8-0.3-3.6-0.8s-1.3-1.3-1.3-2.3c0-1.3,0.8-2.2,2.5-2.6c-0.3-0.1-0.6-0.4-0.9-0.7s-0.4-0.6-0.4-0.9c0-0.3,0.1-0.6,0.3-0.9
		s0.6-0.6,1.2-0.9c-0.6-0.3-1-0.7-1.4-1.2s-0.5-1.2-0.5-2c0-1.2,0.4-2.1,1.2-2.8s2-1,3.5-1c0.2,0,0.6,0,1,0.1s0.9,0.1,1.1,0.1H357.4
		z M349,36.3c0,0.3,0.2,0.6,0.5,0.8s0.8,0.3,1.4,0.3c0.9,0,1.7-0.1,2.2-0.3s0.8-0.5,0.8-0.9c0-0.3-0.2-0.5-0.5-0.6s-0.8-0.2-1.5-0.2
		h-1.5c-0.4,0-0.8,0.1-1,0.3S349,36,349,36.3z M350.2,27.5c0,1.1,0.4,1.7,1.2,1.7c0.4,0,0.6-0.1,0.8-0.4s0.3-0.7,0.3-1.3
		c0-1.1-0.4-1.7-1.1-1.7C350.6,25.8,350.2,26.3,350.2,27.5z"/>
	<path class="st0" d="M368.9,32.1c0.5,0,1.1-0.1,1.8-0.4v2.8c-0.5,0.2-1,0.4-1.5,0.5c-0.5,0.1-1,0.1-1.6,0.1c-1.3,0-2.2-0.3-2.8-0.9
		s-0.8-1.6-0.8-2.9v-4.6h-1.3v-1.6l1.7-1.2l1-2.3h2.5v2.2h2.7v2.9h-2.7V31C367.9,31.7,368.2,32.1,368.9,32.1z"/>
	<path class="st0" d="M379.3,34.9v-6c0-1.5-0.4-2.2-1.3-2.2c-0.6,0-1.1,0.3-1.4,0.8s-0.4,1.4-0.4,2.6v4.9h-3.8V19.7h3.8v2.2
		c0,1-0.1,2.1-0.2,3.3h0.2c0.4-0.6,0.8-1,1.3-1.2s1.1-0.4,1.7-0.4c1.2,0,2.2,0.4,2.9,1.1s1,1.7,1,3v7.2H379.3z"/>
	<path class="st0" d="M390.7,35.1c-1.8,0-3.3-0.5-4.3-1.5s-1.5-2.4-1.5-4.2c0-1.9,0.5-3.3,1.4-4.3s2.3-1.5,4-1.5
		c1.7,0,3,0.4,3.9,1.3s1.4,2.1,1.4,3.8v1.7h-6.8c0,0.6,0.3,1.1,0.7,1.5s1,0.5,1.7,0.5c0.7,0,1.3-0.1,1.9-0.2s1.2-0.3,1.8-0.6v2.7
		c-0.6,0.3-1.2,0.5-1.9,0.6S391.5,35.1,390.7,35.1z M390.4,26.2c-0.4,0-0.8,0.1-1.1,0.4s-0.5,0.7-0.5,1.3h3.3c0-0.5-0.2-1-0.5-1.3
		S390.9,26.2,390.4,26.2z"/>
	<path class="st0" d="M408.9,23.6c1.2,0,2.2,0.5,2.9,1.5s1.1,2.4,1.1,4.2c0,1.8-0.4,3.2-1.1,4.2s-1.7,1.5-3,1.5
		c-0.4,0-0.8,0-1.1-0.1s-0.6-0.2-0.9-0.4s-0.5-0.4-0.9-0.8h-0.2l-0.6,1.1h-3V19.7h3.8v3.4c0,0.4,0,1.1-0.1,2.1h0.1
		c0.4-0.6,0.8-1,1.3-1.2S408.2,23.6,408.9,23.6z M407.5,26.6c-0.5,0-0.9,0.2-1.2,0.6s-0.4,1-0.4,1.7v0.5c0,0.9,0.1,1.6,0.4,1.9
		s0.7,0.6,1.2,0.6c0.4,0,0.8-0.2,1-0.7s0.4-1.1,0.4-2C408.9,27.5,408.4,26.6,407.5,26.6z"/>
	<path class="st0" d="M414.5,21.1c0-0.6,0.2-1,0.5-1.3s0.8-0.4,1.5-0.4s1.2,0.1,1.6,0.4s0.5,0.7,0.5,1.3c0,1.1-0.7,1.7-2,1.7
		C415.2,22.8,414.5,22.2,414.5,21.1z M418.4,34.9h-3.8V23.8h3.8V34.9z"/>
	<path class="st0" d="M427.3,23.6c0.3,0,0.6,0,0.9,0.1l0.2,0l-0.3,3.6c-0.3-0.1-0.7-0.1-1.3-0.1c-0.8,0-1.4,0.2-1.8,0.6
		s-0.6,0.9-0.6,1.6v5.4h-3.8V23.8h2.8l0.6,1.8h0.2c0.3-0.6,0.8-1.1,1.3-1.4S426.8,23.6,427.3,23.6z"/>
	<path class="st0" d="M435.1,32.1c0.5,0,1.1-0.1,1.8-0.4v2.8c-0.5,0.2-1,0.4-1.5,0.5s-1,0.1-1.6,0.1c-1.3,0-2.2-0.3-2.8-0.9
		s-0.8-1.6-0.8-2.9v-4.6h-1.3v-1.6l1.7-1.2l1-2.3h2.5v2.2h2.7v2.9H434V31C434,31.7,434.4,32.1,435.1,32.1z"/>
	<path class="st0" d="M445.4,34.9v-6c0-1.5-0.4-2.2-1.3-2.2c-0.6,0-1.1,0.3-1.4,0.8s-0.4,1.4-0.4,2.6v4.9h-3.8V19.7h3.8v2.2
		c0,1-0.1,2.1-0.2,3.3h0.2c0.4-0.6,0.8-1,1.3-1.2s1.1-0.4,1.7-0.4c1.2,0,2.2,0.4,2.9,1.1s1,1.7,1,3v7.2H445.4z"/>
	<path class="st0" d="M466.9,29.3c0,1.8-0.5,3.2-1.5,4.2s-2.3,1.5-4.1,1.5c-1.7,0-3-0.5-4-1.6s-1.5-2.4-1.5-4.2
		c0-1.8,0.5-3.2,1.5-4.2s2.3-1.5,4.1-1.5c1.1,0,2,0.2,2.9,0.7s1.5,1.1,1.9,2S466.9,28.2,466.9,29.3z M459.7,29.3
		c0,1,0.1,1.7,0.4,2.2s0.7,0.7,1.3,0.7c0.6,0,1-0.2,1.3-0.7s0.4-1.2,0.4-2.2c0-0.9-0.1-1.7-0.4-2.1s-0.7-0.7-1.3-0.7
		c-0.6,0-1,0.2-1.3,0.7S459.7,28.4,459.7,29.3z"/>
	<path class="st0" d="M475.4,26.7h-2.4v8.2h-3.8v-8.2h-1.5v-1.9l1.5-0.9v-0.2c0-1.5,0.3-2.5,0.9-3.1s1.6-1,2.9-1c0.5,0,1,0,1.4,0.1
		s1,0.2,1.6,0.4l-0.8,2.5c-0.5-0.1-0.9-0.2-1.4-0.2c-0.3,0-0.5,0.1-0.6,0.3s-0.2,0.5-0.2,0.9v0.3h2.4V26.7z"/>
	<path class="st0" d="M486.7,32.1c0.5,0,1.1-0.1,1.8-0.4v2.8c-0.5,0.2-1,0.4-1.5,0.5s-1,0.1-1.6,0.1c-1.3,0-2.2-0.3-2.8-0.9
		s-0.8-1.6-0.8-2.9v-4.6h-1.3v-1.6l1.7-1.2l1-2.3h2.5v2.2h2.7v2.9h-2.7V31C485.7,31.7,486.1,32.1,486.7,32.1z"/>
	<path class="st0" d="M497.1,34.9v-6c0-1.5-0.4-2.2-1.3-2.2c-0.6,0-1.1,0.3-1.4,0.8S494,28.8,494,30v4.9h-3.8V19.7h3.8v2.2
		c0,1-0.1,2.1-0.2,3.3h0.2c0.4-0.6,0.8-1,1.3-1.2s1.1-0.4,1.7-0.4c1.2,0,2.2,0.4,2.9,1.1s1,1.7,1,3v7.2H497.1z"/>
	<path class="st0" d="M508.5,35.1c-1.8,0-3.3-0.5-4.3-1.5s-1.5-2.4-1.5-4.2c0-1.9,0.5-3.3,1.4-4.3s2.3-1.5,4-1.5
		c1.7,0,3,0.4,3.9,1.3s1.4,2.1,1.4,3.8v1.7h-6.8c0,0.6,0.3,1.1,0.7,1.5s1,0.5,1.7,0.5c0.7,0,1.3-0.1,1.9-0.2s1.2-0.3,1.8-0.6v2.7
		c-0.6,0.3-1.2,0.5-1.9,0.6S509.4,35.1,508.5,35.1z M508.3,26.2c-0.4,0-0.8,0.1-1.1,0.4s-0.5,0.7-0.5,1.3h3.3c0-0.5-0.2-1-0.5-1.3
		S508.8,26.2,508.3,26.2z"/>
	<path class="st0" d="M532.3,20.6v8.6c0,1.9-0.5,3.3-1.6,4.3s-2.6,1.5-4.6,1.5c-1.9,0-3.4-0.5-4.5-1.5s-1.6-2.4-1.6-4.3v-8.7h3.9V29
		c0,1,0.2,1.7,0.6,2.2s0.9,0.7,1.7,0.7c0.8,0,1.4-0.2,1.7-0.7s0.5-1.2,0.5-2.2v-8.4H532.3z"/>
	<path class="st0" d="M534.2,33.3c0-0.6,0.2-1.1,0.5-1.4s0.9-0.5,1.5-0.5c0.6,0,1.1,0.2,1.5,0.5s0.5,0.8,0.5,1.4
		c0,0.6-0.2,1-0.5,1.4s-0.8,0.5-1.5,0.5c-0.6,0-1.2-0.2-1.5-0.5S534.2,33.9,534.2,33.3z"/>
	<path class="st0" d="M549.6,30.6c0,0.9-0.2,1.7-0.7,2.4s-1.1,1.2-1.9,1.6s-1.8,0.6-3,0.6c-1,0-1.7-0.1-2.4-0.2s-1.3-0.4-2-0.7v-3.4
		c0.7,0.4,1.5,0.7,2.3,0.9s1.5,0.3,2.2,0.3c0.6,0,1-0.1,1.3-0.3s0.4-0.5,0.4-0.8c0-0.2-0.1-0.4-0.2-0.5s-0.3-0.3-0.5-0.4
		s-0.9-0.5-1.9-0.9c-0.9-0.4-1.6-0.8-2.1-1.2s-0.8-0.9-1-1.4s-0.3-1.1-0.3-1.8c0-1.3,0.5-2.3,1.4-3.1s2.3-1.1,3.9-1.1
		c1.5,0,3,0.3,4.5,1l-1.2,3c-1.3-0.6-2.5-0.9-3.5-0.9c-0.5,0-0.9,0.1-1.1,0.3s-0.3,0.4-0.3,0.7c0,0.3,0.1,0.5,0.4,0.8
		s1.1,0.6,2.4,1.2c1.2,0.6,2.1,1.1,2.6,1.8S549.6,29.6,549.6,30.6z"/>
	<path class="st0" d="M550.7,33.3c0-0.6,0.2-1.1,0.5-1.4s0.9-0.5,1.5-0.5c0.6,0,1.1,0.2,1.5,0.5s0.5,0.8,0.5,1.4
		c0,0.6-0.2,1-0.5,1.4s-0.8,0.5-1.5,0.5c-0.6,0-1.2-0.2-1.5-0.5S550.7,33.9,550.7,33.3z"/>
	<path class="st0" d="M567.9,34.9l-2.9-10.3h-0.1c0.1,1.8,0.2,3.1,0.2,4.1v6.2h-3.4V20.6h5.1l3,10.1h0.1l2.9-10.1h5.1v14.3h-3.5
		v-6.3c0-0.3,0-0.7,0-1.1s0.1-1.4,0.1-2.9h-0.1l-2.9,10.3H567.9z"/>
	<path class="st0" d="M587.6,34.9l-0.7-1.5h-0.1c-0.5,0.6-1,1.1-1.6,1.3s-1.2,0.4-2.1,0.4c-1,0-1.9-0.3-2.5-0.9s-0.9-1.5-0.9-2.6
		c0-1.2,0.4-2.1,1.2-2.6s2-0.9,3.6-1l1.8-0.1v-0.2c0-0.9-0.4-1.4-1.3-1.4c-0.8,0-1.8,0.3-3.1,0.8l-1.1-2.5c1.3-0.7,2.9-1,4.9-1
		c1.4,0,2.5,0.4,3.3,1.1s1.2,1.7,1.2,2.9v7.3H587.6z M584.8,32.4c0.5,0,0.9-0.1,1.2-0.4s0.5-0.7,0.5-1.1V30l-0.9,0
		c-1.3,0-1.9,0.5-1.9,1.4C583.7,32.1,584,32.4,584.8,32.4z"/>
	<path class="st0" d="M599.1,23.6c0.3,0,0.6,0,0.9,0.1l0.2,0l-0.3,3.6c-0.3-0.1-0.7-0.1-1.3-0.1c-0.8,0-1.4,0.2-1.8,0.6
		s-0.6,0.9-0.6,1.6v5.4h-3.8V23.8h2.8l0.6,1.8h0.2c0.3-0.6,0.8-1.1,1.3-1.4S598.5,23.6,599.1,23.6z"/>
	<path class="st0" d="M601.3,21.1c0-0.6,0.2-1,0.5-1.3s0.8-0.4,1.5-0.4s1.2,0.1,1.6,0.4s0.5,0.7,0.5,1.3c0,1.1-0.7,1.7-2,1.7
		C602,22.8,601.3,22.2,601.3,21.1z M605.3,34.9h-3.8V23.8h3.8V34.9z"/>
	<path class="st0" d="M614.5,34.9v-6c0-0.7-0.1-1.3-0.3-1.7s-0.6-0.6-1-0.6c-0.6,0-1.1,0.3-1.4,0.8s-0.4,1.4-0.4,2.6v4.8h-3.8V23.8
		h2.9l0.5,1.4h0.2c0.3-0.5,0.8-0.9,1.4-1.2s1.2-0.4,2-0.4c1.2,0,2.2,0.4,2.9,1.1s1,1.7,1,3v7.2H614.5z"/>
	<path class="st0" d="M625.9,35.1c-1.8,0-3.3-0.5-4.3-1.5s-1.5-2.4-1.5-4.2c0-1.9,0.5-3.3,1.4-4.3s2.3-1.5,4-1.5
		c1.7,0,3,0.4,3.9,1.3s1.4,2.1,1.4,3.8v1.7h-6.8c0,0.6,0.3,1.1,0.7,1.5s1,0.5,1.7,0.5c0.7,0,1.3-0.1,1.9-0.2s1.2-0.3,1.8-0.6v2.7
		c-0.6,0.3-1.2,0.5-1.9,0.6S626.8,35.1,625.9,35.1z M625.7,26.2c-0.4,0-0.8,0.1-1.1,0.4s-0.5,0.7-0.5,1.3h3.3c0-0.5-0.2-1-0.5-1.3
		S626.1,26.2,625.7,26.2z"/>
</g>
<g>
	<path class="st0" d="M272.8,45.6c-0.9,0-1.6,0.4-2.1,1.1c-0.5,0.8-0.8,1.8-0.8,3.1c0,2.7,1,4.1,3.1,4.1c0.6,0,1.2-0.1,1.8-0.3
		s1.2-0.4,1.8-0.6v3.3c-1.2,0.5-2.5,0.8-4,0.8c-2.2,0-3.8-0.6-5-1.9s-1.7-3.1-1.7-5.4c0-1.5,0.3-2.8,0.8-3.9s1.4-2,2.4-2.6
		s2.3-0.9,3.7-0.9c1.5,0,3,0.3,4.4,1l-1.2,3c-0.5-0.2-1.1-0.5-1.6-0.6S273.4,45.6,272.8,45.6z"/>
	<path class="st0" d="M289.4,51.3c0,1.8-0.5,3.2-1.5,4.2c-1,1-2.3,1.5-4.1,1.5c-1.7,0-3-0.5-4-1.6s-1.5-2.4-1.5-4.2
		c0-1.8,0.5-3.2,1.5-4.2c1-1,2.3-1.5,4.1-1.5c1.1,0,2,0.2,2.9,0.7c0.8,0.5,1.5,1.1,1.9,2C289.1,49.2,289.4,50.2,289.4,51.3z
		 M282.2,51.3c0,1,0.1,1.7,0.4,2.2s0.7,0.7,1.3,0.7c0.6,0,1-0.2,1.3-0.7s0.4-1.2,0.4-2.2c0-0.9-0.1-1.7-0.4-2.1
		c-0.2-0.5-0.7-0.7-1.3-0.7c-0.6,0-1,0.2-1.3,0.7S282.2,50.4,282.2,51.3z"/>
	<path class="st0" d="M297.8,45.6c0.3,0,0.6,0,0.9,0.1l0.2,0l-0.3,3.6c-0.3-0.1-0.7-0.1-1.3-0.1c-0.8,0-1.4,0.2-1.8,0.6
		s-0.6,0.9-0.6,1.6v5.4h-3.8V45.8h2.8l0.6,1.8h0.2c0.3-0.6,0.8-1.1,1.3-1.4C296.7,45.8,297.2,45.6,297.8,45.6z"/>
	<path class="st0" d="M306.8,57.1c-0.6,0-1.1-0.1-1.5-0.3s-0.9-0.5-1.3-1h-0.2c0.1,0.8,0.2,1.3,0.2,1.4v4.4h-3.8V45.8h3.1l0.5,1.4
		h0.2c0.7-1.1,1.7-1.6,2.9-1.6c1.2,0,2.2,0.5,2.9,1.5s1,2.4,1,4.2c0,1.8-0.4,3.2-1.1,4.2S308,57.1,306.8,57.1z M305.5,48.6
		c-0.6,0-1,0.2-1.2,0.6s-0.3,1-0.4,1.8v0.3c0,1,0.1,1.6,0.4,2.1c0.3,0.4,0.7,0.6,1.2,0.6c0.5,0,0.8-0.2,1.1-0.6s0.3-1.1,0.3-2.1
		c0-1-0.1-1.6-0.3-2C306.4,48.8,306,48.6,305.5,48.6z"/>
	<path class="st0" d="M321.1,53.5c0,1.2-0.4,2.1-1.2,2.7s-2,0.9-3.5,0.9c-0.8,0-1.5,0-2.1-0.1s-1.2-0.2-1.9-0.5v-3.1
		c0.6,0.3,1.2,0.5,1.9,0.6c0.7,0.2,1.3,0.3,1.9,0.3c0.8,0,1.2-0.2,1.2-0.6c0-0.2-0.1-0.4-0.3-0.5c-0.2-0.2-0.9-0.5-2-0.9
		c-1-0.4-1.7-0.9-2.1-1.4c-0.4-0.5-0.6-1.2-0.6-2c0-1,0.4-1.8,1.2-2.4c0.8-0.6,1.9-0.9,3.4-0.9c0.7,0,1.4,0.1,2.1,0.2s1.3,0.4,2,0.7
		l-1,2.5c-0.5-0.2-1-0.4-1.6-0.6c-0.6-0.2-1-0.2-1.4-0.2c-0.6,0-0.9,0.2-0.9,0.5c0,0.2,0.1,0.3,0.3,0.5c0.2,0.1,0.8,0.4,1.9,0.8
		c0.8,0.3,1.4,0.6,1.7,0.9c0.4,0.3,0.7,0.7,0.8,1.1C321,52.4,321.1,52.9,321.1,53.5z"/>
	<path class="st0" d="M331.7,51.7v5.2h-3.9V42.6h4.7c3.9,0,5.8,1.4,5.8,4.2c0,1.7-0.8,2.9-2.4,3.8l4.2,6.2h-4.4l-3-5.2H331.7z
		 M331.7,48.8h0.7c1.3,0,2-0.6,2-1.8c0-1-0.7-1.5-2-1.5h-0.8V48.8z"/>
	<path class="st0" d="M346.2,57.1c-1.8,0-3.3-0.5-4.3-1.5c-1-1-1.5-2.4-1.5-4.2c0-1.9,0.5-3.3,1.4-4.3c0.9-1,2.3-1.5,4-1.5
		c1.7,0,3,0.4,3.9,1.3s1.4,2.1,1.4,3.8v1.7h-6.8c0,0.6,0.3,1.1,0.7,1.5s1,0.5,1.7,0.5c0.7,0,1.3-0.1,1.9-0.2s1.2-0.3,1.8-0.6v2.7
		c-0.6,0.3-1.2,0.5-1.9,0.6S347,57.1,346.2,57.1z M345.9,48.2c-0.4,0-0.8,0.1-1.1,0.4s-0.5,0.7-0.5,1.3h3.3c0-0.5-0.2-1-0.5-1.3
		C346.8,48.4,346.4,48.2,345.9,48.2z"/>
	<path class="st0" d="M361.3,53.5c0,1.2-0.4,2.1-1.2,2.7s-2,0.9-3.5,0.9c-0.8,0-1.5,0-2.1-0.1s-1.2-0.2-1.9-0.5v-3.1
		c0.6,0.3,1.2,0.5,1.9,0.6c0.7,0.2,1.3,0.3,1.9,0.3c0.8,0,1.2-0.2,1.2-0.6c0-0.2-0.1-0.4-0.3-0.5c-0.2-0.2-0.9-0.5-2-0.9
		c-1-0.4-1.7-0.9-2.1-1.4c-0.4-0.5-0.6-1.2-0.6-2c0-1,0.4-1.8,1.2-2.4c0.8-0.6,1.9-0.9,3.4-0.9c0.7,0,1.4,0.1,2.1,0.2s1.3,0.4,2,0.7
		l-1,2.5c-0.5-0.2-1-0.4-1.6-0.6c-0.6-0.2-1-0.2-1.4-0.2c-0.6,0-0.9,0.2-0.9,0.5c0,0.2,0.1,0.3,0.3,0.5c0.2,0.1,0.8,0.4,1.9,0.8
		c0.8,0.3,1.4,0.6,1.7,0.9c0.4,0.3,0.7,0.7,0.8,1.1C361.2,52.4,361.3,52.9,361.3,53.5z"/>
	<path class="st0" d="M368.4,57.1c-1.8,0-3.3-0.5-4.3-1.5c-1-1-1.5-2.4-1.5-4.2c0-1.9,0.5-3.3,1.4-4.3c0.9-1,2.3-1.5,4-1.5
		c1.7,0,3,0.4,3.9,1.3s1.4,2.1,1.4,3.8v1.7h-6.8c0,0.6,0.3,1.1,0.7,1.5s1,0.5,1.7,0.5c0.7,0,1.3-0.1,1.9-0.2s1.2-0.3,1.8-0.6v2.7
		c-0.6,0.3-1.2,0.5-1.9,0.6S369.3,57.1,368.4,57.1z M368.2,48.2c-0.4,0-0.8,0.1-1.1,0.4s-0.5,0.7-0.5,1.3h3.3c0-0.5-0.2-1-0.5-1.3
		C369,48.4,368.6,48.2,368.2,48.2z"/>
	<path class="st0" d="M381.7,45.6c0.3,0,0.6,0,0.9,0.1l0.2,0l-0.3,3.6c-0.3-0.1-0.7-0.1-1.3-0.1c-0.8,0-1.4,0.2-1.8,0.6
		s-0.6,0.9-0.6,1.6v5.4H375V45.8h2.8l0.6,1.8h0.2c0.3-0.6,0.8-1.1,1.3-1.4C380.5,45.8,381.1,45.6,381.7,45.6z"/>
	<path class="st0" d="M386.9,56.9l-4.2-11.1h4l1.9,6.5c0,0,0,0.1,0,0.2s0,0.2,0.1,0.3s0,0.2,0.1,0.3c0,0.1,0,0.2,0,0.3h0.1
		c0-0.3,0.1-0.7,0.2-1.1l2-6.6h4l-4.2,11.1H386.9z"/>
	<path class="st0" d="M401.2,57.1c-1.8,0-3.3-0.5-4.3-1.5c-1-1-1.5-2.4-1.5-4.2c0-1.9,0.5-3.3,1.4-4.3c0.9-1,2.3-1.5,4-1.5
		c1.7,0,3,0.4,3.9,1.3s1.4,2.1,1.4,3.8v1.7h-6.8c0,0.6,0.3,1.1,0.7,1.5s1,0.5,1.7,0.5c0.7,0,1.3-0.1,1.9-0.2s1.2-0.3,1.8-0.6v2.7
		c-0.6,0.3-1.2,0.5-1.9,0.6S402.1,57.1,401.2,57.1z M400.9,48.2c-0.4,0-0.8,0.1-1.1,0.4s-0.5,0.7-0.5,1.3h3.3c0-0.5-0.2-1-0.5-1.3
		C401.8,48.4,401.4,48.2,400.9,48.2z"/>
	<path class="st0" d="M416.3,53.5c0,1.2-0.4,2.1-1.2,2.7s-2,0.9-3.5,0.9c-0.8,0-1.5,0-2.1-0.1s-1.2-0.2-1.9-0.5v-3.1
		c0.6,0.3,1.2,0.5,1.9,0.6c0.7,0.2,1.3,0.3,1.9,0.3c0.8,0,1.2-0.2,1.2-0.6c0-0.2-0.1-0.4-0.3-0.5c-0.2-0.2-0.9-0.5-2-0.9
		c-1-0.4-1.7-0.9-2.1-1.4c-0.4-0.5-0.6-1.2-0.6-2c0-1,0.4-1.8,1.2-2.4c0.8-0.6,1.9-0.9,3.4-0.9c0.7,0,1.4,0.1,2.1,0.2s1.3,0.4,2,0.7
		l-1,2.5c-0.5-0.2-1-0.4-1.6-0.6c-0.6-0.2-1-0.2-1.4-0.2c-0.6,0-0.9,0.2-0.9,0.5c0,0.2,0.1,0.3,0.3,0.5c0.2,0.1,0.8,0.4,1.9,0.8
		c0.8,0.3,1.4,0.6,1.7,0.9c0.4,0.3,0.7,0.7,0.8,1.1C416.2,52.4,416.3,52.9,416.3,53.5z"/>
	<path class="st0" d="M417.6,55.3c0-0.6,0.2-1.1,0.5-1.4c0.4-0.3,0.9-0.5,1.5-0.5c0.6,0,1.1,0.2,1.5,0.5c0.3,0.3,0.5,0.8,0.5,1.4
		c0,0.6-0.2,1-0.5,1.4c-0.4,0.3-0.8,0.5-1.5,0.5c-0.6,0-1.2-0.2-1.5-0.5C417.8,56.3,417.6,55.9,417.6,55.3z"/>
	<path class="st0" d="M437,56.9h-8.5V42.6h8.5v3.1h-4.6V48h4.3v3.1h-4.3v2.7h4.6V56.9z"/>
	<path class="st0" d="M447.4,53.5c0,1.2-0.4,2.1-1.2,2.7s-2,0.9-3.5,0.9c-0.8,0-1.5,0-2.1-0.1s-1.2-0.2-1.9-0.5v-3.1
		c0.6,0.3,1.2,0.5,1.9,0.6c0.7,0.2,1.3,0.3,1.9,0.3c0.8,0,1.2-0.2,1.2-0.6c0-0.2-0.1-0.4-0.3-0.5c-0.2-0.2-0.9-0.5-2-0.9
		c-1-0.4-1.7-0.9-2.1-1.4c-0.4-0.5-0.6-1.2-0.6-2c0-1,0.4-1.8,1.2-2.4c0.8-0.6,1.9-0.9,3.4-0.9c0.7,0,1.4,0.1,2.1,0.2s1.3,0.4,2,0.7
		l-1,2.5c-0.5-0.2-1-0.4-1.6-0.6c-0.6-0.2-1-0.2-1.4-0.2c-0.6,0-0.9,0.2-0.9,0.5c0,0.2,0.1,0.3,0.3,0.5c0.2,0.1,0.8,0.4,1.9,0.8
		c0.8,0.3,1.4,0.6,1.7,0.9c0.4,0.3,0.7,0.7,0.8,1.1C447.3,52.4,447.4,52.9,447.4,53.5z"/>
	<path class="st0" d="M454.5,54.1c0.5,0,1.1-0.1,1.8-0.4v2.8c-0.5,0.2-1,0.4-1.5,0.5c-0.5,0.1-1,0.1-1.6,0.1c-1.3,0-2.2-0.3-2.8-0.9
		c-0.6-0.6-0.8-1.6-0.8-2.9v-4.6h-1.3v-1.6l1.7-1.2l1-2.3h2.5v2.2h2.7v2.9h-2.7V53C453.5,53.7,453.8,54.1,454.5,54.1z"/>
	<path class="st0" d="M465.1,56.9l-0.7-1.5h-0.1c-0.5,0.6-1,1.1-1.6,1.3s-1.2,0.4-2.1,0.4c-1,0-1.9-0.3-2.5-0.9s-0.9-1.5-0.9-2.6
		c0-1.2,0.4-2.1,1.2-2.6s2-0.9,3.6-1l1.8-0.1v-0.2c0-0.9-0.4-1.4-1.3-1.4c-0.8,0-1.8,0.3-3.1,0.8l-1.1-2.5c1.3-0.7,2.9-1,4.9-1
		c1.4,0,2.5,0.4,3.3,1.1c0.8,0.7,1.2,1.7,1.2,2.9v7.3H465.1z M462.3,54.4c0.5,0,0.9-0.1,1.2-0.4s0.5-0.7,0.5-1.1V52l-0.9,0
		c-1.3,0-1.9,0.5-1.9,1.4C461.2,54.1,461.6,54.4,462.3,54.4z"/>
	<path class="st0" d="M476.8,45.6c1.2,0,2.2,0.5,2.9,1.5c0.7,1,1.1,2.4,1.1,4.2c0,1.8-0.4,3.2-1.1,4.2c-0.7,1-1.7,1.5-3,1.5
		c-0.4,0-0.8,0-1.1-0.1s-0.6-0.2-0.9-0.4s-0.5-0.4-0.9-0.8h-0.2l-0.6,1.1h-3V41.7h3.8v3.4c0,0.4,0,1.1-0.1,2.1h0.1
		c0.4-0.6,0.8-1,1.3-1.2C475.6,45.8,476.1,45.6,476.8,45.6z M475.4,48.6c-0.5,0-0.9,0.2-1.2,0.6s-0.4,1-0.4,1.7v0.5
		c0,0.9,0.1,1.6,0.4,1.9c0.2,0.4,0.7,0.6,1.2,0.6c0.4,0,0.8-0.2,1-0.7s0.4-1.1,0.4-2C476.8,49.5,476.3,48.6,475.4,48.6z"/>
	<path class="st0" d="M486.3,56.9h-3.8V41.7h3.8V56.9z"/>
	<path class="st0" d="M488.4,43.1c0-0.6,0.2-1,0.5-1.3s0.8-0.4,1.5-0.4s1.2,0.1,1.6,0.4s0.5,0.7,0.5,1.3c0,1.1-0.7,1.7-2,1.7
		C489.1,44.8,488.4,44.2,488.4,43.1z M492.4,56.9h-3.8V45.8h3.8V56.9z"/>
	<path class="st0" d="M503.2,53.5c0,1.2-0.4,2.1-1.2,2.7s-2,0.9-3.5,0.9c-0.8,0-1.5,0-2.1-0.1s-1.2-0.2-1.9-0.5v-3.1
		c0.6,0.3,1.2,0.5,1.9,0.6c0.7,0.2,1.3,0.3,1.9,0.3c0.8,0,1.2-0.2,1.2-0.6c0-0.2-0.1-0.4-0.3-0.5c-0.2-0.2-0.9-0.5-2-0.9
		c-1-0.4-1.7-0.9-2.1-1.4c-0.4-0.5-0.6-1.2-0.6-2c0-1,0.4-1.8,1.2-2.4c0.8-0.6,1.9-0.9,3.4-0.9c0.7,0,1.4,0.1,2.1,0.2s1.3,0.4,2,0.7
		l-1,2.5c-0.5-0.2-1-0.4-1.6-0.6c-0.6-0.2-1-0.2-1.4-0.2c-0.6,0-0.9,0.2-0.9,0.5c0,0.2,0.1,0.3,0.3,0.5c0.2,0.1,0.8,0.4,1.9,0.8
		c0.8,0.3,1.4,0.6,1.7,0.9c0.4,0.3,0.7,0.7,0.8,1.1C503.1,52.4,503.2,52.9,503.2,53.5z"/>
	<path class="st0" d="M511.9,56.9v-6c0-1.5-0.4-2.2-1.3-2.2c-0.6,0-1.1,0.3-1.4,0.8c-0.3,0.5-0.4,1.4-0.4,2.6v4.9h-3.8V41.7h3.8v2.2
		c0,1-0.1,2.1-0.2,3.3h0.2c0.4-0.6,0.8-1,1.3-1.2c0.5-0.2,1.1-0.4,1.7-0.4c1.2,0,2.2,0.4,2.9,1.1s1,1.7,1,3v7.2H511.9z"/>
	<path class="st0" d="M523.2,57.1c-1.8,0-3.3-0.5-4.3-1.5c-1-1-1.5-2.4-1.5-4.2c0-1.9,0.5-3.3,1.4-4.3c0.9-1,2.3-1.5,4-1.5
		c1.7,0,3,0.4,3.9,1.3s1.4,2.1,1.4,3.8v1.7h-6.8c0,0.6,0.3,1.1,0.7,1.5s1,0.5,1.7,0.5c0.7,0,1.3-0.1,1.9-0.2s1.2-0.3,1.8-0.6v2.7
		c-0.6,0.3-1.2,0.5-1.9,0.6S524.1,57.1,523.2,57.1z M523,48.2c-0.4,0-0.8,0.1-1.1,0.4s-0.5,0.7-0.5,1.3h3.3c0-0.5-0.2-1-0.5-1.3
		C523.9,48.4,523.5,48.2,523,48.2z"/>
	<path class="st0" d="M533.3,57.1c-0.8,0-1.5-0.2-2.1-0.7s-1-1.1-1.4-2c-0.3-0.9-0.5-1.9-0.5-3.1c0-1.8,0.4-3.2,1.1-4.2
		s1.7-1.5,3-1.5c0.6,0,1.2,0.1,1.6,0.4c0.5,0.2,0.9,0.7,1.3,1.2h0.1c-0.1-0.9-0.2-1.7-0.2-2.6v-3h3.8v15.2h-2.9l-0.8-1.4h-0.1
		C535.6,56.6,534.6,57.1,533.3,57.1z M534.9,54.1c0.6,0,1-0.2,1.3-0.6c0.3-0.4,0.4-1,0.4-1.8v-0.3c0-1-0.1-1.7-0.4-2.1
		c-0.3-0.4-0.7-0.6-1.3-0.6c-0.5,0-0.9,0.2-1.2,0.7c-0.3,0.5-0.4,1.1-0.4,2c0,0.9,0.1,1.5,0.4,2S534.3,54.1,534.9,54.1z"/>
	<path class="st0" d="M555,56.9h-3.9v-7.6c0-0.9,0-1.8,0.1-2.5c-0.2,0.3-0.5,0.6-0.9,0.9l-1.6,1.3l-2-2.5l4.9-4h3.5V56.9z"/>
	<path class="st0" d="M568.2,49.2c0,2.8-0.6,4.8-1.8,6.1s-3.1,1.9-5.8,1.9c-0.9,0-1.5,0-2-0.1v-3.1c0.6,0.1,1.1,0.2,1.7,0.2
		c1.4,0,2.4-0.3,3.2-0.9c0.7-0.6,1.2-1.5,1.2-2.7h-0.1c-0.3,0.5-0.5,0.8-0.8,1c-0.2,0.2-0.5,0.4-0.9,0.5c-0.4,0.1-0.8,0.2-1.3,0.2
		c-1.2,0-2.2-0.4-2.9-1.2c-0.7-0.8-1-2-1-3.4c0-1.6,0.5-2.8,1.4-3.7s2.1-1.3,3.7-1.3c1.7,0,3.1,0.6,4.1,1.7S568.2,47,568.2,49.2z
		 M562.8,45.6c-0.4,0-0.8,0.2-1,0.5c-0.3,0.3-0.4,0.8-0.4,1.5c0,0.5,0.1,1,0.3,1.3c0.2,0.3,0.6,0.5,1,0.5c0.4,0,0.8-0.2,1.1-0.5
		c0.3-0.3,0.5-0.7,0.5-1.1c0-0.6-0.1-1.1-0.4-1.5C563.7,45.8,563.3,45.6,562.8,45.6z"/>
	<path class="st0" d="M577.7,56.9h-3.9v-7.6c0-0.9,0-1.8,0.1-2.5c-0.2,0.3-0.5,0.6-0.9,0.9l-1.6,1.3l-2-2.5l4.9-4h3.5V56.9z"/>
	<path class="st0" d="M580.5,50.9c0-2,0.3-3.6,0.9-4.8c0.6-1.2,1.4-2.1,2.5-2.7s2.5-0.9,4.1-0.9c0.6,0,1.3,0.1,2,0.2v3
		c-0.7-0.1-1.4-0.2-2.1-0.2c-1.3,0-2.2,0.3-2.9,0.9c-0.6,0.6-1,1.5-1,2.8h0.1c0.6-1.1,1.5-1.7,2.8-1.7c1.3,0,2.3,0.4,3,1.2
		c0.7,0.8,1,2,1,3.4c0,1.6-0.4,2.8-1.3,3.7s-2.1,1.4-3.7,1.4c-1.7,0-3-0.5-4-1.6S580.5,52.8,580.5,50.9z M585.8,54
		c0.4,0,0.7-0.2,1-0.5c0.3-0.3,0.4-0.8,0.4-1.5c0-1.2-0.4-1.7-1.3-1.7c-0.4,0-0.8,0.1-1.1,0.4c-0.3,0.3-0.4,0.7-0.4,1.1
		c0,0.6,0.1,1.1,0.4,1.5S585.4,54,585.8,54z"/>
	<path class="st0" d="M592,55.3c0-0.6,0.2-1.1,0.5-1.4c0.4-0.3,0.9-0.5,1.5-0.5c0.6,0,1.1,0.2,1.5,0.5c0.3,0.3,0.5,0.8,0.5,1.4
		c0,0.6-0.2,1-0.5,1.4c-0.4,0.3-0.8,0.5-1.5,0.5c-0.6,0-1.2-0.2-1.5-0.5C592.2,56.3,592,55.9,592,55.3z"/>
</g>
</svg>
