<?xml version="1.0" encoding="utf-8"?>
<!-- Generator: Adobe Illustrator 22.1.0, SVG Export Plug-In . SVG Version: 6.00 Build 0)  -->
<svg version="1.1" id="Layer_1" xmlns="http://www.w3.org/2000/svg" xmlns:xlink="http://www.w3.org/1999/xlink" x="0px" y="0px"
	 viewBox="0 0 728 90" style="enable-background:new 0 0 728 90;" xml:space="preserve">
<style type="text/css">
	.st0{fill:#2D58A7;}
	.st1{fill:none;}
</style>
<polygon class="st0" points="24.6,36.4 44.7,36.4 49.8,51.5 47.4,51.5 43.1,38.7 24,38.6 "/>
<polygon class="st0" points="23.2,40.8 41.5,40.8 45.1,51.5 42.8,51.5 39.9,43.1 22.5,43 "/>
<polygon class="st0" points="21.9,45.4 15.9,64 17.7,65.4 23.2,47.5 36.9,47.5 37.6,45.4 "/>
<polygon class="st0" points="24.9,49.7 36.2,49.7 35.4,51.8 26.5,51.8 21.4,68.1 19.6,66.6 "/>
<polygon class="st0" points="23.6,69.7 39.8,80.9 41.4,79.5 26,68.8 30,55.9 28.1,54.5 "/>
<polygon class="st0" points="31.9,57.2 33.8,58.4 31.1,66.9 44.8,76.7 43.2,78.2 28.5,67.7 "/>
<polygon class="st0" points="46.9,73 35.7,65.4 34.1,66.4 46.8,75.6 63,63.9 62.2,61.7 "/>
<polygon class="st0" points="38,63.6 39.5,62.4 46.9,67.7 60.7,57.6 61.6,59.5 46.9,70.3 "/>
<polygon class="st0" points="46.6,62.5 47.4,64.6 60.1,55.4 53.7,36.4 51.5,36.4 57.7,54.5 "/>
<polygon class="st0" points="46.9,36.4 48.9,36.4 55,53.7 45.9,60.4 45.1,58.7 52.6,52.8 "/>
<polygon class="st0" points="22.4,10.4 20.9,12.8 19.5,10.4 17.6,10.4 17.6,16.7 19.3,16.7 19.3,13.1 20.9,15.5 20.9,15.5 
	22.5,13.1 22.5,16.7 24.3,16.7 24.3,10.4 "/>
<rect x="25.4" y="10.4" class="st0" width="1.7" height="6.3"/>
<polygon class="st0" points="28.3,10.4 28.3,16.7 33.1,16.7 33.1,15.2 30,15.2 30,10.4 "/>
<rect x="33.9" y="10.4" class="st0" width="1.7" height="6.3"/>
<polygon class="st0" points="36.4,10.4 36.4,11.9 38.3,11.9 38.3,16.7 40,16.7 40,11.9 41.9,11.9 41.9,10.4 "/>
<path class="st0" d="M44.8,12.4l0.7,1.8h-1.4L44.8,12.4z M44,10.4l-2.7,6.3h1.8l0.4-1.1H46l0.5,1.1h1.9l-2.7-6.3H44z"/>
<path class="st0" d="M49,10.4h3c1,0,1.6,0.3,2,0.7c0.4,0.4,0.6,0.8,0.6,1.5v0c0,1-0.5,1.6-1.3,1.9l1.5,2.2h-2l-1.3-1.9h0h-0.7v1.9
	H49V10.4z M51.9,13.4c0.6,0,0.9-0.3,0.9-0.7v0c0-0.5-0.4-0.7-0.9-0.7h-1.1v1.5H51.9z"/>
<polygon class="st0" points="57,14.3 54.6,10.4 56.6,10.4 57.9,12.7 59.2,10.4 61.1,10.4 58.7,14.3 58.7,16.7 57,16.7 "/>
<path class="st0" d="M17.7,18.9h3.6c0.9,0,1.5,0.2,1.9,0.6c0.3,0.3,0.4,0.6,0.4,1.1v0c0,0.8-0.5,1.3-1.1,1.5
	c0.8,0.3,1.4,0.8,1.4,1.7v0c0,1.2-1,1.9-2.6,1.9h-3.6V18.9z M20.8,21.7c0.6,0,0.9-0.2,0.9-0.6v0c0-0.4-0.3-0.6-0.9-0.6h-1.2v1.2
	H20.8z M21,24.3c0.6,0,0.9-0.2,0.9-0.6v0c0-0.4-0.3-0.6-0.9-0.6h-1.5v1.3H21z"/>
<polygon class="st0" points="24.8,18.9 30.3,18.9 30.3,20.5 26.7,20.5 26.7,21.6 30,21.6 30,23.1 26.7,23.1 26.7,24.2 30.4,24.2 
	30.4,25.8 24.8,25.8 "/>
<polygon class="st0" points="31.4,18.9 33.2,18.9 36,22.6 36,18.9 37.9,18.9 37.9,25.8 36.2,25.8 33.3,22 33.3,25.8 31.4,25.8 "/>
<polygon class="st0" points="39.1,18.9 44.7,18.9 44.7,20.5 41,20.5 41,21.6 44.4,21.6 44.4,23.1 41,23.1 41,24.2 44.8,24.2 
	44.8,25.8 39.1,25.8 "/>
<polygon class="st0" points="45.8,18.9 51.3,18.9 51.3,20.6 47.7,20.6 47.7,21.8 51,21.8 51,23.4 47.7,23.4 47.7,25.8 45.8,25.8 "/>
<rect x="52.2" y="18.9" class="st0" width="1.9" height="6.9"/>
<polygon class="st0" points="57.1,20.6 55,20.6 55,18.9 61.1,18.9 61.1,20.6 59,20.6 59,25.8 57.1,25.8 "/>
<path class="st0" d="M21.9,31.7l0.7-0.8c0.4,0.3,0.9,0.5,1.4,0.5c0.3,0,0.5-0.1,0.5-0.3v0c0-0.2-0.1-0.3-0.7-0.4
	c-0.9-0.2-1.6-0.5-1.6-1.3v0c0-0.8,0.6-1.4,1.6-1.4c0.7,0,1.3,0.2,1.7,0.6l-0.6,0.8c-0.4-0.3-0.8-0.4-1.2-0.4
	c-0.3,0-0.4,0.1-0.4,0.3v0c0,0.2,0.1,0.3,0.7,0.4c1,0.2,1.6,0.5,1.6,1.3v0c0,0.9-0.7,1.4-1.7,1.4C23.1,32.4,22.4,32.2,21.9,31.7"/>
<path class="st0" d="M25.8,31.7l0.7-0.8c0.4,0.3,0.9,0.5,1.4,0.5c0.3,0,0.5-0.1,0.5-0.3v0c0-0.2-0.1-0.3-0.7-0.4
	c-0.9-0.2-1.6-0.5-1.6-1.3v0c0-0.8,0.6-1.4,1.6-1.4c0.7,0,1.3,0.2,1.7,0.6l-0.6,0.8C28.4,29.1,28,29,27.6,29c-0.3,0-0.4,0.1-0.4,0.3
	v0c0,0.2,0.1,0.3,0.7,0.4c1,0.2,1.6,0.5,1.6,1.3v0c0,0.9-0.7,1.4-1.7,1.4C27,32.4,26.3,32.2,25.8,31.7"/>
<path class="st0" d="M29.9,30.2L29.9,30.2c0-1.2,1-2.2,2.3-2.2s2.3,1,2.3,2.2v0c0,1.2-1,2.2-2.3,2.2C30.9,32.4,29.9,31.4,29.9,30.2
	 M33.3,30.2L33.3,30.2c0-0.6-0.4-1.2-1.1-1.2c-0.6,0-1.1,0.5-1.1,1.1v0c0,0.6,0.4,1.1,1.1,1.1C32.9,31.4,33.3,30.8,33.3,30.2"/>
<path class="st0" d="M35,30.2L35,30.2c0-1.3,1-2.2,2.2-2.2c0.9,0,1.4,0.4,1.8,0.9l-0.9,0.7c-0.2-0.3-0.5-0.5-0.9-0.5
	c-0.6,0-1,0.5-1,1.1v0c0,0.6,0.4,1.1,1,1.1c0.4,0,0.7-0.2,1-0.5l0.9,0.6c-0.4,0.6-0.9,1-1.9,1C35.9,32.4,35,31.5,35,30.2"/>
<rect x="39.6" y="28.1" class="st0" width="1.2" height="4.3"/>
<path class="st0" d="M43,28.1h1.1l1.8,4.3h-1.3l-0.3-0.8h-1.6l-0.3,0.8h-1.2L43,28.1z M44,30.7l-0.5-1.2l-0.5,1.2H44z"/>
<polygon class="st0" points="46.8,29.1 45.6,29.1 45.6,28.1 49.3,28.1 49.3,29.1 48,29.1 48,32.3 46.8,32.3 "/>
<rect x="49.8" y="28.1" class="st0" width="1.2" height="4.3"/>
<path class="st0" d="M51.7,30.2L51.7,30.2c0-1.2,1-2.2,2.3-2.2s2.3,1,2.3,2.2v0c0,1.2-1,2.2-2.3,2.2S51.7,31.4,51.7,30.2 M55,30.2
	L55,30.2c0-0.6-0.4-1.2-1.1-1.2c-0.6,0-1.1,0.5-1.1,1.1v0c0,0.6,0.4,1.1,1.1,1.1C54.6,31.4,55,30.8,55,30.2"/>
<polygon class="st0" points="56.8,28.1 57.9,28.1 59.7,30.3 59.7,28.1 60.9,28.1 60.9,32.3 59.8,32.3 58,30 58,32.3 56.8,32.3 "/>
<rect x="15.9" y="10.4" class="st1" width="47.2" height="70.5"/>
</svg>
