<svg id="Layer_1" xmlns="http://www.w3.org/2000/svg" viewBox="0 0 728 90"><style>.st0{fill:#fff}</style><path class="st0" d="M31.8 45h-3.9v-5.8h-4.5V45h-3.9V30.8h3.9V36h4.5v-5.3h3.9V45zM44.8 39.5c0 1.8-.5 3.2-1.5 4.2s-2.3 1.5-4.1 1.5c-1.7 0-3-.5-4-1.6s-1.5-2.4-1.5-4.2c0-1.8.5-3.2 1.5-4.2s2.3-1.5 4.1-1.5c1.1 0 2 .2 2.9.7s1.5 1.1 1.9 2 .7 1.9.7 3.1zm-7.2 0c0 1 .1 1.7.4 2.2s.7.7 1.3.7c.6 0 1-.2 1.3-.7s.4-1.2.4-2.2c0-.9-.1-1.7-.4-2.1s-.7-.7-1.3-.7c-.6 0-1 .2-1.3.7s-.4 1.1-.4 2.1zM53.6 45v-6c0-.7-.1-1.3-.3-1.7s-.6-.6-1-.6c-.6 0-1.1.3-1.4.8s-.4 1.4-.4 2.6V45h-3.8V34h2.9l.5 1.4h.2c.3-.5.8-.9 1.4-1.2s1.2-.4 2-.4c1.2 0 2.2.4 2.9 1.1s1 1.7 1 3V45h-4zM70.2 39.5c0 1.8-.5 3.2-1.5 4.2s-2.3 1.5-4.1 1.5c-1.7 0-3-.5-4-1.6s-1.5-2.4-1.5-4.2c0-1.8.5-3.2 1.5-4.2s2.3-1.5 4.1-1.5c1.1 0 2 .2 2.9.7s1.5 1.1 1.9 2 .7 1.9.7 3.1zm-7.2 0c0 1 .1 1.7.4 2.2s.7.7 1.3.7c.6 0 1-.2 1.3-.7s.4-1.2.4-2.2c0-.9-.1-1.7-.4-2.1s-.7-.7-1.3-.7c-.6 0-1 .2-1.3.7s-.4 1.1-.4 2.1zM78.6 33.8c.3 0 .6 0 .9.1h.2l-.3 3.6c-.3-.1-.7-.1-1.3-.1-.8 0-1.4.2-1.8.6s-.6.9-.6 1.6V45h-3.8V34h2.8l.6 1.8h.2c.3-.6.8-1.1 1.3-1.4s1.2-.6 1.8-.6zM80.9 31.2c0-.6.2-1 .5-1.3s.8-.4 1.5-.4 1.2.1 1.6.4.5.7.5 1.3c0 1.1-.7 1.7-2 1.7-1.5 0-2.1-.6-2.1-1.7zM84.8 45H81V34h3.8v11zM94 45v-6c0-.7-.1-1.3-.3-1.7s-.6-.6-1-.6c-.6 0-1.1.3-1.4.8s-.4 1.4-.4 2.6V45H87V34h2.9l.5 1.4h.2c.3-.5.8-.9 1.4-1.2s1.2-.4 2-.4c1.2 0 2.2.4 2.9 1.1s1 1.7 1 3V45H94zM110.5 34v1.8l-1.5.6c.2.4.3.8.3 1.3 0 1.2-.4 2.1-1.3 2.8s-2.1 1-3.7 1c-.4 0-.7 0-1-.1-.1.2-.1.3-.1.5s.2.3.5.4.7.2 1.2.2h1.8c2.5 0 3.7 1 3.7 3.1 0 1.3-.6 2.4-1.7 3.1s-2.8 1.1-4.8 1.1c-1.6 0-2.8-.3-3.6-.8S99 47.7 99 46.7c0-1.3.8-2.2 2.5-2.6-.3-.1-.6-.4-.9-.7s-.4-.6-.4-.9c0-.3.1-.6.3-.9s.6-.6 1.2-.9c-.6-.3-1-.7-1.4-1.2s-.5-1.2-.5-2c0-1.2.4-2.1 1.2-2.8s2-1 3.5-1c.2 0 .6 0 1 .1s.9.1 1.1.1h3.9zm-8.3 12.4c0 .3.2.6.5.8s.8.3 1.4.3c.9 0 1.7-.1 2.2-.3s.8-.5.8-.9c0-.3-.2-.5-.5-.6s-.8-.2-1.5-.2h-1.5c-.4 0-.8.1-1 .3s-.4.3-.4.6zm1.2-8.8c0 1.1.4 1.7 1.2 1.7.4 0 .6-.1.8-.4s.3-.7.3-1.3c0-1.1-.4-1.7-1.1-1.7-.9 0-1.2.6-1.2 1.7zM122 42.2c.5 0 1.1-.1 1.8-.4v2.8c-.5.2-1 .4-1.5.5-.5.1-1 .1-1.6.1-1.3 0-2.2-.3-2.8-.9s-.8-1.6-.8-2.9v-4.6h-1.3v-1.6l1.7-1.2 1-2.3h2.5V34h2.7v2.9H121v4.3c0 .7.3 1 1 1zM132.4 45v-6c0-1.5-.4-2.2-1.3-2.2-.6 0-1.1.3-1.4.8s-.4 1.4-.4 2.6V45h-3.8V29.8h3.8V32c0 1-.1 2.1-.2 3.3h.2c.4-.6.8-1 1.3-1.2s1.1-.4 1.7-.4c1.2 0 2.2.4 2.9 1.1s1 1.7 1 3V45h-3.8zM143.8 45.2c-1.8 0-3.3-.5-4.3-1.5s-1.5-2.4-1.5-4.2c0-1.9.5-3.3 1.4-4.3s2.3-1.5 4-1.5c1.7 0 3 .4 3.9 1.3s1.4 2.1 1.4 3.8v1.7h-6.8c0 .6.3 1.1.7 1.5s1 .5 1.7.5 1.3-.1 1.9-.2 1.2-.3 1.8-.6v2.7c-.6.3-1.2.5-1.9.6s-1.4.2-2.3.2zm-.2-8.8c-.4 0-.8.1-1.1.4s-.5.7-.5 1.3h3.3c0-.5-.2-1-.5-1.3s-.7-.4-1.2-.4zM162 33.8c1.2 0 2.2.5 2.9 1.5s1.1 2.4 1.1 4.2c0 1.8-.4 3.2-1.1 4.2s-1.7 1.5-3 1.5c-.4 0-.8 0-1.1-.1s-.6-.2-.9-.4-.5-.4-.9-.8h-.2l-.6 1.1h-3V29.8h3.8v3.4c0 .4 0 1.1-.1 2.1h.1c.4-.6.8-1 1.3-1.2s1.1-.3 1.7-.3zm-1.4 3c-.5 0-.9.2-1.2.6s-.4 1-.4 1.7v.5c0 .9.1 1.6.4 1.9s.7.6 1.2.6c.4 0 .8-.2 1-.7s.4-1.1.4-2c0-1.7-.5-2.6-1.4-2.6zM167.6 31.2c0-.6.2-1 .5-1.3s.8-.4 1.5-.4 1.2.1 1.6.4.5.7.5 1.3c0 1.1-.7 1.7-2 1.7-1.4 0-2.1-.6-2.1-1.7zm3.9 13.8h-3.8V34h3.8v11zM180.5 33.8c.3 0 .6 0 .9.1h.2l-.3 3.6c-.3-.1-.7-.1-1.3-.1-.8 0-1.4.2-1.8.6s-.6.9-.6 1.6V45h-3.8V34h2.8l.6 1.8h.2c.3-.6.8-1.1 1.3-1.4s1.2-.6 1.8-.6zM188.2 42.2c.5 0 1.1-.1 1.8-.4v2.8c-.5.2-1 .4-1.5.5-.5.1-1 .1-1.6.1-1.3 0-2.2-.3-2.8-.9s-.8-1.6-.8-2.9v-4.6H182v-1.6l1.7-1.2 1-2.3h2.5V34h2.7v2.9h-2.7v4.3c0 .7.3 1 1 1zM198.6 45v-6c0-1.5-.4-2.2-1.3-2.2-.6 0-1.1.3-1.4.8s-.4 1.4-.4 2.6V45h-3.8V29.8h3.8V32c0 1-.1 2.1-.2 3.3h.2c.4-.6.8-1 1.3-1.2s1.1-.4 1.7-.4c1.2 0 2.2.4 2.9 1.1s1 1.7 1 3V45h-3.8zM220 39.5c0 1.8-.5 3.2-1.5 4.2s-2.3 1.5-4.1 1.5c-1.7 0-3-.5-4-1.6s-1.5-2.4-1.5-4.2c0-1.8.5-3.2 1.5-4.2s2.3-1.5 4.1-1.5c1.1 0 2 .2 2.9.7s1.5 1.1 1.9 2 .7 1.9.7 3.1zm-7.2 0c0 1 .1 1.7.4 2.2s.7.7 1.3.7c.6 0 1-.2 1.3-.7s.4-1.2.4-2.2c0-.9-.1-1.7-.4-2.1s-.7-.7-1.3-.7c-.6 0-1 .2-1.3.7s-.4 1.1-.4 2.1zM228.5 36.8h-2.4V45h-3.8v-8.2h-1.5V35l1.5-.9v-.2c0-1.5.3-2.5.9-3.1s1.6-1 2.9-1c.5 0 1 0 1.4.1s1 .2 1.6.4l-.8 2.5c-.5-.1-.9-.2-1.4-.2-.3 0-.5.1-.6.3s-.2.5-.2.9v.2h2.4v2.8zM239.9 42.2c.5 0 1.1-.1 1.8-.4v2.8c-.5.2-1 .4-1.5.5-.5.1-1 .1-1.6.1-1.3 0-2.2-.3-2.8-.9s-.8-1.6-.8-2.9v-4.6h-1.3v-1.6l1.7-1.2 1-2.3h2.5V34h2.7v2.9h-2.7v4.3c-.1.7.3 1 1 1zM250.2 45v-6c0-1.5-.4-2.2-1.3-2.2-.6 0-1.1.3-1.4.8s-.4 1.4-.4 2.6V45h-3.8V29.8h3.8V32c0 1-.1 2.1-.2 3.3h.2c.4-.6.8-1 1.3-1.2s1.1-.4 1.7-.4c1.2 0 2.2.4 2.9 1.1s1 1.7 1 3V45h-3.8zM261.6 45.2c-1.8 0-3.3-.5-4.3-1.5s-1.5-2.4-1.5-4.2c0-1.9.5-3.3 1.4-4.3s2.3-1.5 4-1.5c1.7 0 3 .4 3.9 1.3s1.4 2.1 1.4 3.8v1.7h-6.8c0 .6.3 1.1.7 1.5s1 .5 1.7.5 1.3-.1 1.9-.2 1.2-.3 1.8-.6v2.7c-.6.3-1.2.5-1.9.6s-1.4.2-2.3.2zm-.2-8.8c-.4 0-.8.1-1.1.4s-.5.7-.5 1.3h3.3c0-.5-.2-1-.5-1.3s-.7-.4-1.2-.4zM285.4 30.8v8.6c0 1.9-.5 3.3-1.6 4.3s-2.6 1.5-4.6 1.5c-1.9 0-3.4-.5-4.5-1.5s-1.6-2.4-1.6-4.3v-8.7h3.9v8.4c0 1 .2 1.7.6 2.2s.9.7 1.7.7c.8 0 1.4-.2 1.7-.7s.5-1.2.5-2.2v-8.4h3.9zM287.3 43.4c0-.6.2-1.1.5-1.4s.9-.5 1.5-.5 1.1.2 1.5.5.5.8.5 1.4c0 .6-.2 1-.5 1.4-.4.3-.8.5-1.5.5-.6 0-1.2-.2-1.5-.5-.3-.3-.5-.8-.5-1.4zM302.8 40.7c0 .9-.2 1.7-.7 2.4s-1.1 1.2-1.9 1.6-1.8.6-3 .6c-1 0-1.7-.1-2.4-.2-.6-.1-1.3-.4-2-.7V41c.7.4 1.5.7 2.3.9s1.5.3 2.2.3c.6 0 1-.1 1.3-.3s.4-.5.4-.8c0-.2-.1-.4-.2-.5s-.3-.3-.5-.4-.9-.5-1.9-.9c-.9-.4-1.6-.8-2.1-1.2s-.8-.9-1-1.4-.3-1.1-.3-1.8c0-1.3.5-2.3 1.4-3.1s2.3-1.1 3.9-1.1c1.5 0 3 .3 4.5 1l-1.2 3c-1.3-.6-2.5-.9-3.5-.9-.5 0-.9.1-1.1.3s-.3.4-.3.7c0 .3.1.5.4.8s1.1.6 2.4 1.2c1.2.6 2.1 1.1 2.6 1.8s.7 1.1.7 2.1zM303.9 43.4c0-.6.2-1.1.5-1.4s.9-.5 1.5-.5 1.1.2 1.5.5.5.8.5 1.4c0 .6-.2 1-.5 1.4-.4.3-.8.5-1.5.5-.6 0-1.2-.2-1.5-.5-.3-.3-.5-.8-.5-1.4zM323.5 45l-.7-2.7h-4.6l-.7 2.7h-4.2l4.7-14.3h5.1l4.7 14.3h-4.3zm-1.5-5.8l-.6-2.3c-.1-.5-.3-1.2-.5-2s-.3-1.4-.4-1.8c-.1.3-.2.9-.3 1.6s-.6 2.3-1.1 4.5h2.9zM328.6 31.2c0-.6.2-1 .5-1.3s.8-.4 1.5-.4 1.2.1 1.6.4.5.7.5 1.3c0 1.1-.7 1.7-2 1.7-1.4 0-2.1-.6-2.1-1.7zm3.9 13.8h-3.8V34h3.8v11zM341.4 33.8c.3 0 .6 0 .9.1h.2l-.3 3.6c-.3-.1-.7-.1-1.3-.1-.8 0-1.4.2-1.8.6s-.6.9-.6 1.6V45h-3.8V34h2.8l.6 1.8h.2c.3-.6.8-1.1 1.3-1.4s1.3-.6 1.8-.6zM352.6 45h-3.8V30.8h8.4v3.1h-4.6v2.7h4.3v3.1h-4.3V45zM369.5 39.5c0 1.8-.5 3.2-1.5 4.2s-2.3 1.5-4.1 1.5c-1.7 0-3-.5-4-1.6s-1.5-2.4-1.5-4.2c0-1.8.5-3.2 1.5-4.2s2.3-1.5 4.1-1.5c1.1 0 2 .2 2.9.7.8.5 1.5 1.1 1.9 2 .5.9.7 1.9.7 3.1zm-7.2 0c0 1 .1 1.7.4 2.2s.7.7 1.3.7c.6 0 1-.2 1.3-.7s.4-1.2.4-2.2c0-.9-.1-1.7-.4-2.1-.2-.5-.7-.7-1.3-.7-.6 0-1 .2-1.3.7s-.4 1.1-.4 2.1zM378 33.8c.3 0 .6 0 .9.1h.2l-.3 3.6c-.3-.1-.7-.1-1.3-.1-.8 0-1.4.2-1.8.6s-.6.9-.6 1.6V45h-3.8V34h2.8l.6 1.8h.2c.3-.6.8-1.1 1.3-1.4s1.2-.6 1.8-.6zM385.3 45.2c-1.8 0-3.2-.5-4.1-1.5s-1.4-2.4-1.4-4.2c0-1.8.5-3.3 1.5-4.3s2.4-1.5 4.3-1.5c1.3 0 2.5.3 3.6.8l-1.1 2.8c-.5-.2-.9-.4-1.3-.5s-.8-.2-1.2-.2c-.6 0-1.1.2-1.4.7s-.5 1.2-.5 2c0 1.8.7 2.7 2 2.7 1.1 0 2.2-.3 3.2-1v3c-1 .9-2.2 1.2-3.6 1.2zM396 45.2c-1.8 0-3.3-.5-4.3-1.5s-1.5-2.4-1.5-4.2c0-1.9.5-3.3 1.4-4.3s2.3-1.5 4-1.5c1.7 0 3 .4 3.9 1.3s1.4 2.1 1.4 3.8v1.7H394c0 .6.3 1.1.7 1.5s1 .5 1.7.5 1.3-.1 1.9-.2 1.2-.3 1.8-.6v2.7c-.6.3-1.2.5-1.9.6s-1.3.2-2.2.2zm-.2-8.8c-.4 0-.8.1-1.1.4s-.5.7-.5 1.3h3.3c0-.5-.2-1-.5-1.3s-.7-.4-1.2-.4zM402.1 43.4c0-.6.2-1.1.5-1.4s.9-.5 1.5-.5 1.1.2 1.5.5.5.8.5 1.4c0 .6-.2 1-.5 1.4-.4.3-.8.5-1.5.5-.6 0-1.2-.2-1.5-.5-.3-.3-.5-.8-.5-1.4z"/><g><path class="st0" d="M28 67h-8.5V52.8H28v3.1h-4.6v2.2h4.3v3.1h-4.3v2.7H28V67zM38.5 63.6c0 1.2-.4 2.1-1.2 2.7s-2 .9-3.5.9c-.8 0-1.5 0-2.1-.1s-1.2-.2-1.9-.5v-3.1c.6.3 1.2.5 1.9.6s1.3.3 1.9.3c.8 0 1.2-.2 1.2-.6 0-.2-.1-.4-.3-.5s-.9-.5-2-.9c-1-.4-1.7-.9-2.1-1.4s-.6-1.2-.6-2c0-1 .4-1.8 1.2-2.4s1.9-.9 3.4-.9c.7 0 1.4.1 2.1.2s1.3.4 2 .7l-1 2.5c-.5-.2-1-.4-1.6-.6s-1-.2-1.4-.2c-.6 0-.9.2-.9.5 0 .2.1.3.3.5s.8.4 1.9.8c.8.3 1.4.6 1.7.9s.7.7.8 1.1.2.9.2 1.5zM45.6 64.2c.5 0 1.1-.1 1.8-.4v2.8c-.5.2-1 .4-1.5.5s-1 .1-1.6.1c-1.3 0-2.2-.3-2.8-.9s-.8-1.6-.8-2.9v-4.6h-1.3v-1.6l1.7-1.2 1-2.3h2.5V56h2.7v2.9h-2.7v4.3c0 .7.3 1 1 1zM56.2 67l-.7-1.5h-.1c-.5.6-1 1.1-1.6 1.3s-1.2.4-2.1.4c-1 0-1.9-.3-2.5-.9s-.9-1.5-.9-2.6c0-1.2.4-2.1 1.2-2.6s2-.9 3.6-1L55 60v-.2c0-.9-.4-1.4-1.3-1.4-.8 0-1.8.3-3.1.8l-1.1-2.5c1.3-.7 2.9-1 4.9-1 1.4 0 2.5.4 3.3 1.1s1.2 1.7 1.2 2.9V67h-2.7zm-2.8-2.5c.5 0 .9-.1 1.2-.4s.5-.7.5-1.1v-.9h-.9c-1.3 0-1.9.5-1.9 1.4 0 .7.4 1 1.1 1zM67.8 55.8c1.2 0 2.2.5 2.9 1.5s1.1 2.4 1.1 4.2c0 1.8-.4 3.2-1.1 4.2s-1.7 1.5-3 1.5c-.4 0-.8 0-1.1-.1s-.6-.2-.9-.4-.5-.4-.9-.8h-.2L64 67h-3V51.8h3.8v3.4c0 .4 0 1.1-.1 2.1h.1c.4-.6.8-1 1.3-1.2s1.1-.3 1.7-.3zm-1.4 3c-.5 0-.9.2-1.2.6s-.4 1-.4 1.7v.5c0 .9.1 1.6.4 1.9s.7.6 1.2.6c.4 0 .8-.2 1-.7s.4-1.1.4-2c.1-1.7-.4-2.6-1.4-2.6zM77.3 67h-3.8V51.8h3.8V67zM79.5 53.2c0-.6.2-1 .5-1.3s.8-.4 1.5-.4 1.2.1 1.6.4.5.7.5 1.3c0 1.1-.7 1.7-2 1.7-1.4 0-2.1-.6-2.1-1.7zM83.4 67h-3.8V56h3.8v11zM94.2 63.6c0 1.2-.4 2.1-1.2 2.7s-2 .9-3.5.9c-.8 0-1.5 0-2.1-.1s-1.2-.2-1.9-.5v-3.1c.6.3 1.2.5 1.9.6s1.3.3 1.9.3c.8 0 1.2-.2 1.2-.6 0-.2-.1-.4-.3-.5s-.9-.5-2-.9c-1-.4-1.7-.9-2.1-1.4s-.6-1.2-.6-2c0-1 .4-1.8 1.2-2.4s1.9-.9 3.4-.9c.7 0 1.4.1 2.1.2s1.3.4 2 .7l-1 2.5c-.5-.2-1-.4-1.6-.6s-1-.2-1.4-.2c-.6 0-.9.2-.9.5 0 .2.1.3.3.5s.8.4 1.9.8c.8.3 1.4.6 1.7.9s.7.7.8 1.1.2.9.2 1.5zM102.9 67v-6c0-1.5-.4-2.2-1.3-2.2-.6 0-1.1.3-1.4.8s-.4 1.4-.4 2.6V67H96V51.8h3.8V54c0 1-.1 2.1-.2 3.3h.2c.4-.6.8-1 1.3-1.2s1.1-.4 1.7-.4c1.2 0 2.2.4 2.9 1.1s1 1.7 1 3V67h-3.8zM114.3 67.2c-1.8 0-3.3-.5-4.3-1.5s-1.5-2.4-1.5-4.2c0-1.9.5-3.3 1.4-4.3s2.3-1.5 4-1.5c1.7 0 3 .4 3.9 1.3s1.4 2.1 1.4 3.8v1.7h-6.8c0 .6.3 1.1.7 1.5s1 .5 1.7.5 1.3-.1 1.9-.2 1.2-.3 1.8-.6v2.7c-.6.3-1.2.5-1.9.6s-1.4.2-2.3.2zm-.2-8.8c-.4 0-.8.1-1.1.4s-.5.7-.5 1.3h3.3c0-.5-.2-1-.5-1.3s-.7-.4-1.2-.4zM124.4 67.2c-.8 0-1.5-.2-2.1-.7s-1-1.1-1.4-2-.5-1.9-.5-3.1c0-1.8.4-3.2 1.1-4.2s1.7-1.5 3-1.5c.6 0 1.2.1 1.6.4s.9.7 1.3 1.2h.1c-.1-.9-.2-1.7-.2-2.6v-3h3.8V67h-2.9l-.8-1.4h-.1c-.6 1.1-1.6 1.6-2.9 1.6zm1.5-3c.6 0 1-.2 1.3-.6s.4-1 .4-1.8v-.3c0-1-.1-1.7-.4-2.1s-.7-.6-1.3-.6c-.5 0-.9.2-1.2.7s-.4 1.1-.4 2c0 .9.1 1.5.4 2s.7.7 1.2.7zM146.1 67h-3.9v-7.6c0-.9 0-1.8.1-2.5-.2.3-.5.6-.9.9l-1.6 1.3-2-2.5 4.9-4h3.5V67zM159.3 59.3c0 2.8-.6 4.8-1.8 6.1s-3.1 1.9-5.8 1.9c-.9 0-1.5 0-2-.1v-3.1c.6.1 1.1.2 1.7.2 1.4 0 2.4-.3 3.2-.9s1.2-1.5 1.2-2.7h-.1c-.3.5-.5.8-.8 1s-.6.4-.9.5-.8.2-1.3.2c-1.2 0-2.2-.4-2.9-1.2s-1-2-1-3.4c0-1.6.5-2.8 1.4-3.7s2.1-1.3 3.7-1.3c1.7 0 3.1.6 4.1 1.7s1.3 2.7 1.3 4.8zm-5.4-3.6c-.4 0-.8.2-1 .5s-.4.8-.4 1.5c0 .5.1 1 .3 1.3s.6.5 1 .5.8-.2 1.1-.5.5-.7.5-1.1c0-.6-.1-1.1-.4-1.5s-.6-.7-1.1-.7zM171 64.3h-1.6V67h-3.8v-2.8h-5.7v-2.8l5.9-8.7h3.6v8.6h1.6v3zm-5.4-2.9v-1.7-1.3c0-.6 0-.8.1-.8h-.1c-.2.5-.5 1-.8 1.4l-1.6 2.4h2.4zM173 67l4.9-11.1h-6.2v-3.2H182V55l-5 12h-4zM183.1 65.4c0-.6.2-1.1.5-1.4s.9-.5 1.5-.5 1.1.2 1.5.5.5.8.5 1.4c0 .6-.2 1-.5 1.4s-.8.5-1.5.5c-.6 0-1.2-.2-1.5-.5s-.5-.8-.5-1.4z"/></g></svg>