<svg id="Layer_1" xmlns="http://www.w3.org/2000/svg" viewBox="0 0 728 90"><style>.st0{fill:#fff}.st1{fill:none}</style><path class="st0" d="M484.3 35.4h20.6l5.2 15.5h-2.4l-4.5-13.2-19.6-.1z"/><path class="st0" d="M482.8 39.9h18.8l3.7 11h-2.4l-2.9-8.7h-17.9z"/><path class="st0" d="M481.5 44.7l-6.2 19 1.9 1.4 5.6-18.3h14l.8-2.1z"/><path class="st0" d="M484.5 49h11.6l-.7 2.2h-9.2L480.9 68l-1.8-1.6z"/><path class="st0" d="M483.2 69.6l16.6 11.5 1.7-1.4-15.8-11.1 4.1-13.2-2-1.4z"/><path class="st0" d="M491.7 56.8l2 1.2-2.8 8.7L505 76.8l-1.6 1.5-15.1-10.7z"/><path class="st0" d="M507.2 73l-11.6-7.9-1.6 1.2 13.1 9.4 16.6-12.1-.8-2.2z"/><path class="st0" d="M498 63.3l1.5-1.2 7.6 5.4 14.2-10.4 1 2.1-15.1 11z"/><path class="st0" d="M506.9 62.2l.8 2.1 13-9.4-6.6-19.5h-2.2l6.3 18.6z"/><path class="st0" d="M507.1 35.4h2.1l6.3 17.8-9.3 6.8-.9-1.7 7.8-6.1zM482 8.7l-1.5 2.5-1.6-2.5h-1.8v6.4h1.7v-3.7l1.6 2.5h.1l1.6-2.5v3.7h1.8V8.7zM485.1 8.7h1.8v6.4h-1.8zM488 8.7v6.4h4.9v-1.6h-3.1V8.7zM493.8 8.7h1.8v6.4h-1.8zM496.4 8.7v1.5h1.9v4.9h1.8v-4.9h1.9V8.7zM505 10.7l.7 1.8h-1.4l.7-1.8zm-.8-2.1l-2.7 6.5h1.9l.5-1.1h2.5l.5 1.1h1.9l-2.7-6.5h-1.9zM509.3 8.7h3c1 0 1.7.3 2.1.7.4.4.6.9.6 1.5 0 1-.5 1.6-1.3 2l1.5 2.2h-2.1l-1.3-2h-.8v2h-1.8V8.7zm2.9 3.1c.6 0 1-.3 1-.8s-.4-.8-1-.8H511v1.5h1.2zM517.5 12.7l-2.4-4h2l1.3 2.3 1.4-2.3h2l-2.5 4v2.4h-1.8zM477.1 17.4h3.7c.9 0 1.5.2 1.9.6.3.3.5.7.5 1.2 0 .8-.5 1.3-1.1 1.6.9.3 1.4.8 1.4 1.7 0 1.2-1 2-2.7 2h-3.7v-7.1zm3.2 2.8c.6 0 .9-.2.9-.6 0-.4-.3-.6-.9-.6H479v1.3h1.3zm.3 2.7c.6 0 .9-.2.9-.7 0-.4-.3-.6-1-.6H479v1.3h1.6zM484.4 17.4h5.7v1.7h-3.7v1.1h3.4v1.5h-3.4v1.1h3.8v1.7h-5.8zM491.2 17.4h1.8l3 3.8v-3.8h1.9v7.1h-1.7l-3.1-3.9v3.9h-1.9zM499.2 17.4h5.7v1.7h-3.8v1.1h3.5v1.5h-3.5v1.1h3.9v1.7h-5.8zM506 17.4h5.7v1.7H508v1.2h3.3V22H508v2.5h-2zM512.6 17.4h2v7.1h-2zM517.6 19.1h-2.1v-1.7h6.3v1.7h-2.2v5.4h-2zM478.4 26.8h1.2l1.9 4.4h-1.3l-.3-.8h-1.7l-.3.8h-1.3l1.8-4.4zm1 2.7l-.5-1.2-.5 1.2h1zM481.4 30.6l.7-.8c.4.3.9.5 1.4.5.3 0 .5-.1.5-.3 0-.2-.1-.3-.7-.4-.9-.2-1.6-.5-1.6-1.4 0-.8.6-1.4 1.7-1.4.7 0 1.3.2 1.8.6l-.6.9c-.4-.3-.8-.4-1.2-.4-.3 0-.4.1-.4.3 0 .2.1.3.8.4 1 .2 1.6.5 1.6 1.4 0 .9-.7 1.4-1.8 1.4-.9-.1-1.6-.4-2.2-.8M485.4 30.6l.7-.8c.4.3.9.5 1.4.5.3 0 .5-.1.5-.3 0-.2-.1-.3-.7-.4-.9-.2-1.6-.5-1.6-1.4 0-.8.6-1.4 1.7-1.4.7 0 1.3.2 1.8.6l-.6.9c-.4-.3-.8-.4-1.2-.4-.3 0-.4.1-.4.3 0 .2.1.3.8.4 1 .2 1.6.5 1.6 1.4 0 .9-.7 1.4-1.8 1.4-.9-.1-1.6-.4-2.2-.8M489.7 29c0-1.3 1-2.3 2.4-2.3 1.3 0 2.3 1 2.3 2.3 0 1.3-1 2.3-2.4 2.3-1.3 0-2.3-1-2.3-2.3m3.5 0c0-.6-.5-1.2-1.1-1.2-.7 0-1.1.5-1.1 1.2 0 .6.5 1.2 1.1 1.2.6 0 1.1-.5 1.1-1.2M494.9 29c0-1.3 1-2.3 2.3-2.3.9 0 1.5.4 1.9.9l-.9.7c-.2-.3-.5-.5-1-.5-.6 0-1 .5-1 1.2s.4 1.2 1 1.2c.5 0 .7-.2 1-.5l.9.7c-.4.6-1 1-1.9 1-1.3-.1-2.3-1.1-2.3-2.4M499.6 26.8h1.2v4.4h-1.2zM503.1 26.8h1.2l1.9 4.4h-1.3l-.3-.8h-1.7l-.3.8h-1.3l1.8-4.4zm1.1 2.7l-.5-1.2-.5 1.2h1zM507.1 27.9h-1.3v-1.1h3.8v1.1h-1.3v3.3h-1.2zM510.2 26.8h1.2v4.4h-1.2zM512 29c0-1.3 1-2.3 2.4-2.3 1.3 0 2.3 1 2.3 2.3 0 1.3-1 2.3-2.4 2.3-1.3 0-2.3-1-2.3-2.3m3.5 0c0-.6-.5-1.2-1.1-1.2-.7 0-1.1.5-1.1 1.2 0 .6.5 1.2 1.1 1.2.7 0 1.1-.5 1.1-1.2M517.4 26.8h1.1l1.8 2.3v-2.3h1.2v4.4h-1.1l-1.8-2.4v2.4h-1.2z"/><path class="st1" d="M475.3 8.6h48.5v72.5h-48.5z"/></svg>