<svg id="Layer_1" xmlns="http://www.w3.org/2000/svg" viewBox="0 0 160 600"><style>.st0{fill:#fff}</style><path class="st0" d="M30.7 177l2.7-5.8H38l-5.2 9.6v6.1h-4.3v-6l-5.2-9.7H28l2.7 5.8zM50.4 180.7c0 2-.5 3.5-1.6 4.7-1.1 1.1-2.6 1.7-4.5 1.7-1.8 0-3.3-.6-4.4-1.7-1.1-1.1-1.6-2.7-1.6-4.6 0-2 .5-3.5 1.6-4.6 1.1-1.1 2.6-1.6 4.5-1.6 1.2 0 2.3.3 3.2.8.9.5 1.6 1.2 2.1 2.2.5.7.7 1.9.7 3.1zm-7.9 0c0 1 .1 1.8.4 2.4s.7.8 1.4.8 1.1-.3 1.4-.8.4-1.3.4-2.4c0-1-.1-1.8-.4-2.4-.3-.5-.7-.8-1.4-.8-.6 0-1.1.3-1.4.8s-.4 1.4-.4 2.4zM60.8 186.8l-.5-1.5h-.2c-.4.6-.8 1-1.5 1.3-.6.3-1.4.4-2.2.4-1.3 0-2.4-.4-3.1-1.2-.7-.8-1.1-1.9-1.1-3.3v-7.9h4.2v6.6c0 .8.1 1.4.3 1.8s.6.6 1.1.6c.7 0 1.2-.3 1.5-.9.3-.6.5-1.5.5-2.9v-5.3H64v12.2h-3.2zM79 186.8v-6.6c0-1.6-.5-2.4-1.5-2.4-.7 0-1.2.3-1.5.9-.3.6-.5 1.5-.5 2.9v5.3h-4.2v-16.7h4.2v2.4c0 1.1-.1 2.3-.2 3.7h.2c.4-.6.9-1.1 1.4-1.3.6-.3 1.2-.4 1.9-.4 1.4 0 2.4.4 3.2 1.2s1.1 1.9 1.1 3.3v7.9H79zM91.3 187c-2 0-3.6-.5-4.7-1.6s-1.7-2.6-1.7-4.6c0-2.1.5-3.6 1.6-4.7 1-1.1 2.5-1.6 4.4-1.6 1.8 0 3.2.5 4.2 1.4 1 1 1.5 2.3 1.5 4.1v1.9h-7.5c0 .7.3 1.2.7 1.6.5.4 1.1.6 1.9.6.7 0 1.4-.1 2-.2.6-.1 1.3-.4 2-.7v3c-.7.3-1.3.6-2 .7s-1.4.1-2.4.1zm-.2-9.7c-.5 0-.9.2-1.2.5-.3.3-.5.8-.6 1.5h3.6c0-.6-.2-1.1-.5-1.4-.4-.4-.8-.6-1.3-.6zM102.6 186.8h-4.2v-16.7h4.2v16.7zM112.1 187c-.6 0-1.2-.1-1.7-.3s-1-.6-1.5-1.1h-.2c.1.9.2 1.4.2 1.6v4.9h-4.2v-17.5h3.4l.6 1.5h.2c.8-1.2 1.9-1.8 3.2-1.8 1.3 0 2.4.6 3.2 1.7s1.1 2.6 1.1 4.6c0 2-.4 3.5-1.2 4.6-.6 1.3-1.7 1.8-3.1 1.8zm-1.4-9.3c-.6 0-1 .2-1.3.7-.2.4-.4 1.1-.4 2v.3c0 1 .1 1.8.4 2.3.3.5.7.7 1.3.7.5 0 .9-.2 1.2-.7s.4-1.2.4-2.3c0-1-.1-1.8-.4-2.3-.2-.4-.6-.7-1.2-.7z"/><g><path class="st0" d="M32.2 211c-.6 0-1.2-.1-1.7-.3-.5-.2-1-.6-1.5-1.1h-.2c.1.9.2 1.4.2 1.6v4.9h-4.2v-17.5h3.4l.6 1.5h.2c.8-1.2 1.9-1.8 3.2-1.8 1.3 0 2.4.6 3.2 1.7.8 1.1 1.1 2.6 1.1 4.6 0 2-.4 3.5-1.2 4.6-.7 1.3-1.8 1.8-3.1 1.8zm-1.5-9.3c-.6 0-1 .2-1.3.7s-.4 1.1-.4 2v.3c0 1 .1 1.8.4 2.3.3.5.7.7 1.3.7.5 0 .9-.2 1.2-.7.2-.5.4-1.2.4-2.3 0-1-.1-1.8-.4-2.3-.2-.4-.6-.7-1.2-.7zM45.7 198.4c.4 0 .7 0 1 .1h.2l-.4 4c-.3-.1-.8-.1-1.4-.1-.9 0-1.6.2-2 .6-.4.4-.6 1-.6 1.8v6h-4.2v-12.2h3.1l.7 1.9h.2c.4-.6.8-1.2 1.5-1.6.6-.3 1.2-.5 1.9-.5zM59.6 204.7c0 2-.5 3.5-1.6 4.7-1.1 1.1-2.6 1.7-4.5 1.7-1.8 0-3.3-.6-4.4-1.7-1.1-1.1-1.6-2.7-1.6-4.6 0-2 .5-3.5 1.6-4.6 1.1-1.1 2.6-1.6 4.5-1.6 1.2 0 2.3.3 3.2.8.9.5 1.6 1.2 2.1 2.2.5.7.7 1.9.7 3.1zm-7.9 0c0 1 .1 1.8.4 2.4s.7.8 1.4.8 1.1-.3 1.4-.8.4-1.3.4-2.4c0-1-.1-1.8-.4-2.4-.3-.5-.7-.8-1.4-.8-.6 0-1.1.3-1.4.8s-.4 1.4-.4 2.4zM67.3 207.7c.6 0 1.2-.1 2-.4v3.1c-.6.2-1.1.4-1.6.5-.5.1-1.1.2-1.8.2-1.4 0-2.4-.3-3.1-1-.6-.7-.9-1.8-.9-3.2v-5h-1.5v-1.7l1.9-1.3 1.1-2.6h2.8v2.4h3v3.1h-3v4.7c0 .8.4 1.2 1.1 1.2zM76.7 211c-2 0-3.6-.5-4.7-1.6s-1.7-2.6-1.7-4.6c0-2.1.5-3.6 1.6-4.7 1-1.1 2.5-1.6 4.4-1.6 1.8 0 3.2.5 4.2 1.4 1 1 1.5 2.3 1.5 4.1v1.9h-7.5c0 .7.3 1.2.7 1.6.5.4 1.1.6 1.9.6.7 0 1.4-.1 2-.2.6-.1 1.3-.4 2-.7v3c-.7.3-1.3.6-2 .7-.6.1-1.4.1-2.4.1zm-.2-9.7c-.5 0-.9.2-1.2.5s-.5.8-.6 1.5h3.6c0-.6-.2-1.1-.5-1.4-.4-.4-.8-.6-1.3-.6zM89.3 211c-2 0-3.5-.5-4.5-1.6s-1.5-2.6-1.5-4.6c0-2 .6-3.6 1.7-4.7s2.7-1.7 4.7-1.7c1.4 0 2.7.3 4 .9l-1.2 3.1c-.5-.2-1-.4-1.4-.5-.4-.1-.9-.2-1.3-.2-.7 0-1.2.3-1.6.8-.4.5-.6 1.3-.6 2.2 0 1.9.7 2.9 2.2 2.9 1.2 0 2.4-.4 3.5-1.1v3.3c-1.2.9-2.5 1.2-4 1.2zM100.9 207.7c.6 0 1.2-.1 2-.4v3.1c-.6.2-1.1.4-1.6.5-.5.1-1.1.2-1.8.2-1.4 0-2.4-.3-3.1-1-.6-.7-.9-1.8-.9-3.2v-5H94v-1.7l1.9-1.3 1.1-2.6h2.8v2.4h3v3.1h-3v4.7c0 .8.4 1.2 1.1 1.2zM115.5 207.7c.6 0 1.2-.1 2-.4v3.1c-.6.2-1.1.4-1.6.5-.5.1-1.1.2-1.8.2-1.4 0-2.4-.3-3.1-1-.6-.7-.9-1.8-.9-3.2v-5h-1.5v-1.7l1.9-1.3 1.1-2.6h2.8v2.4h3v3.1h-3v4.7c0 .8.3 1.2 1.1 1.2zM126.7 210.8v-6.6c0-1.6-.5-2.4-1.5-2.4-.7 0-1.2.3-1.5.9-.3.6-.5 1.5-.5 2.9v5.3H119v-16.7h4.2v2.4c0 1.1-.1 2.3-.2 3.7h.2c.4-.6.9-1.1 1.4-1.3s1.2-.4 1.9-.4c1.4 0 2.4.4 3.2 1.2.8.8 1.1 1.9 1.1 3.3v7.9h-4.1zM139 211c-2 0-3.6-.5-4.7-1.6s-1.7-2.6-1.7-4.6c0-2.1.5-3.6 1.6-4.7 1-1.1 2.5-1.6 4.4-1.6 1.8 0 3.2.5 4.2 1.4 1 1 1.5 2.3 1.5 4.1v1.9h-7.5c0 .7.3 1.2.7 1.6.5.4 1.1.6 1.9.6.7 0 1.4-.1 2-.2.6-.1 1.3-.4 2-.7v3c-.7.3-1.3.6-2 .7s-1.4.1-2.4.1zm-.3-9.7c-.5 0-.9.2-1.2.5-.3.3-.5.8-.6 1.5h3.6c0-.6-.2-1.1-.5-1.4-.3-.4-.7-.6-1.3-.6z"/></g><g><path class="st0" d="M30.4 235.1c-2 0-3.5-.5-4.5-1.6s-1.5-2.6-1.5-4.6c0-2 .6-3.6 1.7-4.7s2.7-1.7 4.7-1.7c1.4 0 2.7.3 4 .9l-1.2 3.1c-.5-.2-1-.4-1.4-.5-.4-.1-.9-.2-1.3-.2-.7 0-1.2.3-1.6.8-.4.5-.6 1.3-.6 2.2 0 1.9.7 2.9 2.2 2.9 1.2 0 2.4-.4 3.5-1.1v3.3c-1.2.8-2.5 1.2-4 1.2zM47.7 228.7c0 2-.5 3.5-1.6 4.7-1.1 1.1-2.6 1.7-4.5 1.7-1.8 0-3.3-.6-4.4-1.7-1.1-1.1-1.6-2.7-1.6-4.6 0-2 .5-3.5 1.6-4.6 1.1-1.1 2.6-1.6 4.5-1.6 1.2 0 2.3.3 3.2.8.9.5 1.6 1.2 2.1 2.2.4.7.7 1.9.7 3.1zm-7.9 0c0 1 .1 1.8.4 2.4s.7.8 1.4.8 1.1-.3 1.4-.8.4-1.3.4-2.4c0-1-.1-1.8-.4-2.4-.3-.5-.7-.8-1.4-.8-.6 0-1.1.3-1.4.8s-.4 1.4-.4 2.4zM58.1 234.8l-.5-1.5h-.2c-.4.6-.8 1-1.5 1.3-.6.3-1.4.4-2.2.4-1.3 0-2.4-.4-3.1-1.2-.7-.8-1.1-1.9-1.1-3.3v-7.9h4.2v6.6c0 .8.1 1.4.3 1.8s.6.6 1.1.6c.7 0 1.2-.3 1.5-.9.3-.6.5-1.5.5-2.9v-5.3h4.2v12.2h-3.2zM71.2 234.8v-6.6c0-.8-.1-1.4-.3-1.8-.2-.4-.6-.6-1.1-.6-.7 0-1.2.3-1.5.8-.3.6-.5 1.5-.5 2.9v5.3h-4.2v-12.2h3.2l.5 1.5h.2c.4-.6.9-1 1.5-1.3.6-.3 1.4-.4 2.2-.4 1.3 0 2.4.4 3.1 1.2.7.8 1.1 1.9 1.1 3.3v7.9h-4.2zM83.6 231.7c.6 0 1.2-.1 2-.4v3.1c-.6.2-1.1.4-1.6.5-.5.1-1.1.2-1.8.2-1.4 0-2.4-.3-3.1-1-.6-.7-.9-1.8-.9-3.2v-5h-1.5v-1.7l1.9-1.3 1.1-2.6h2.8v2.4h3v3.1h-3v4.7c-.1.8.3 1.2 1.1 1.2zM94.4 222.5c.4 0 .7 0 1 .1h.2l-.4 4c-.3-.1-.8-.1-1.4-.1-.9 0-1.6.2-2 .6s-.6 1-.6 1.8v6H87v-12.2h3.1l.7 1.9h.2c.4-.6.8-1.2 1.5-1.6.7-.4 1.3-.5 1.9-.5z"/><path class="st0" d="M95.3 222.7h4.4l2.1 7c.1.4.2.8.2 1.3h.1c.1-.5.1-.9.3-1.3l2.1-7h4.3l-4.8 12.9c-.6 1.6-1.4 2.8-2.3 3.5-.9.7-2.1 1-3.5 1-.6 0-1.1-.1-1.7-.2v-3.3c.4.1.8.1 1.3.1.4 0 .7-.1 1-.2.3-.1.5-.3.7-.6.2-.3.4-.7.7-1.3l-4.9-11.9zM109 233.1c0-.7.2-1.2.6-1.5.4-.4 1-.5 1.7-.5s1.3.2 1.6.5c.4.4.6.9.6 1.5s-.2 1.1-.6 1.5c-.4.4-.9.5-1.6.5-.7 0-1.3-.2-1.7-.5s-.6-.9-.6-1.5z"/></g></svg>