<svg id="Layer_1" xmlns="http://www.w3.org/2000/svg" viewBox="0 0 113.2 27.3"><style>.st0{fill:#ff5100}.st1{fill:#fff}.st2{font-family:&apos;OpenSans-Semibold&apos;}.st3{font-size:15.2816px}</style><path class="st0" d="M3.3 0S0 0 0 3.3V24s0 3.3 3.3 3.3h106.6s3.3 0 3.3-3.3V3.3s0-3.3-3.3-3.3H3.3z"/><path class="st1" d="M10.5 18.4V8.3h1.7V17h4.3v1.4h-6zM21.3 18.6c-1.2 0-2.1-.3-2.8-1s-1-1.7-1-2.9c0-1.3.3-2.2.9-3s1.5-1.1 2.6-1.1c1 0 1.8.3 2.4.9.6.6.9 1.5.9 2.5v1h-5.1c0 .7.2 1.3.6 1.7.4.4.9.6 1.6.6.5 0 .9 0 1.3-.1s.8-.2 1.3-.4V18c-.4.2-.8.3-1.2.4-.5.1-.9.2-1.5.2zm-.3-6.7c-.5 0-.9.2-1.2.5-.3.3-.5.8-.6 1.4h3.5c0-.6-.2-1.1-.5-1.4-.2-.4-.6-.5-1.2-.5zM31 18.4l-.3-1.1h-.1c-.4.5-.7.8-1.1 1-.4.2-.9.3-1.4.3-.8 0-1.3-.2-1.8-.6-.4-.4-.6-1-.6-1.7 0-.8.3-1.4.9-1.8.6-.4 1.5-.6 2.7-.7h1.3v-.4c0-.5-.1-.9-.3-1.1-.2-.2-.6-.4-1.1-.4-.4 0-.8.1-1.1.2-.4.1-.7.3-1 .4l-.5-1.2c.4-.2.9-.4 1.4-.5s1-.2 1.4-.2c1 0 1.7.2 2.2.6s.7 1.1.7 2v5.2H31zm-2.5-1.1c.6 0 1.1-.2 1.4-.5.4-.3.5-.8.5-1.4v-.7h-1c-.8 0-1.3.2-1.7.4-.3.2-.5.6-.5 1 0 .3.1.6.3.8.3.3.6.4 1 .4zM38.3 10.6c.3 0 .6 0 .8.1l-.2 1.5c-.2-.1-.5-.1-.7-.1-.7 0-1.2.2-1.6.6-.4.4-.6 1-.6 1.7v4h-1.6v-7.7h1.3l.2 1.4h.1c.3-.5.6-.8 1-1.1.4-.2.8-.4 1.3-.4zM47.3 18.4h-1.6v-4.7c0-.6-.1-1-.4-1.3s-.6-.4-1.2-.4c-.7 0-1.2.2-1.5.6-.3.4-.5 1.1-.5 2v3.8h-1.6v-7.7h1.3l.2 1h.1c.2-.4.6-.6 1-.8.4-.2.9-.3 1.4-.3 1.8 0 2.8.9 2.8 2.8v5zM59.7 18.4H58v-4.7c0-.6-.1-1-.3-1.3-.2-.3-.6-.4-1-.4-.6 0-1.1.2-1.4.6-.3.4-.4 1.1-.4 2v3.8h-1.6v-7.7h1.3l.2 1h.1c.2-.4.5-.6.9-.8.4-.2.8-.3 1.3-.3 1.2 0 2 .4 2.3 1.2h.1c.2-.4.5-.7 1-.9.4-.2.9-.3 1.4-.3.9 0 1.6.2 2 .7s.6 1.2.6 2.1v5h-1.6v-4.7c0-.6-.1-1-.3-1.3-.2-.3-.6-.4-1-.4-.6 0-1.1.2-1.4.6-.3.4-.4 1-.4 1.8v4zM73.6 14.6c0 1.3-.3 2.2-1 2.9-.6.7-1.5 1.1-2.7 1.1-.7 0-1.3-.2-1.9-.5s-1-.8-1.3-1.4c-.3-.6-.4-1.3-.4-2.1 0-1.2.3-2.2 1-2.9.6-.7 1.5-1 2.7-1 1.1 0 2 .4 2.6 1.1s1 1.6 1 2.8zm-5.6 0c0 1.8.7 2.7 2 2.7s1.9-.9 1.9-2.7c0-1.8-.7-2.6-2-2.6-.7 0-1.2.2-1.5.7-.3.4-.4 1-.4 1.9zM79.3 10.6c.3 0 .6 0 .8.1l-.1 1.5c-.2-.1-.5-.1-.7-.1-.7 0-1.2.2-1.6.6-.4.4-.6 1-.6 1.7v4h-1.6v-7.7h1.3l.2 1.4c.3-.5.6-.8 1-1.1.4-.2.9-.4 1.3-.4zM84.9 18.6c-1.2 0-2.1-.3-2.8-1s-1-1.7-1-2.9c0-1.3.3-2.2.9-3 .6-.7 1.5-1.1 2.6-1.1 1 0 1.8.3 2.4.9.6.6.9 1.5.9 2.5v1h-5.1c0 .7.2 1.3.6 1.7.4.4.9.6 1.6.6.5 0 .9 0 1.3-.1s.8-.2 1.3-.4V18c-.4.2-.8.3-1.2.4-.5.1-1 .2-1.5.2zm-.3-6.7c-.5 0-.9.2-1.2.5s-.5.8-.6 1.4h3.5c0-.6-.2-1.1-.5-1.4-.3-.4-.7-.5-1.2-.5z"/><text transform="translate(88.573 18.43)" class="st1 st2 st3"></text></svg>