<svg id="Layer_1" xmlns="http://www.w3.org/2000/svg" viewBox="0 0 160 600"><style>.st0{fill:#fff}.st1{fill:none}</style><path class="st0" d="M88 374h25.3l6.5 19.1h-3l-5.5-16.3H87.1z"/><path class="st0" d="M86.1 379.5h23.2l4.6 13.6h-3l-3.6-10.7-22-.1z"/><path class="st0" d="M84.5 385.4l-7.6 23.5 2.3 1.8 6.9-22.7h17.4l.9-2.6z"/><path class="st0" d="M88.3 390.8h14.3l-1 2.7H90.3l-6.4 20.6-2.3-1.9z"/><path class="st0" d="M86.7 416.2l20.4 14.1 2.1-1.7L89.7 415l5.1-16.3-2.4-1.8z"/><path class="st0" d="M97.2 400.3l2.4 1.5-3.5 10.8 17.4 12.4-2 1.9-18.6-13.3z"/><path class="st0" d="M116.2 420.3l-14.3-9.6-2 1.3 16.2 11.6 20.5-14.8-1.1-2.8z"/><path class="st0" d="M104.9 408.4l1.8-1.5 9.5 6.7 17.4-12.8 1.2 2.5-18.6 13.6z"/><path class="st0" d="M115.9 407.1l.9 2.6 16.1-11.7-8.2-24H122l7.8 22.9z"/><path class="st0" d="M116.2 374h2.5l7.7 21.9-11.5 8.4-1-2.1 9.6-7.5zM79.1 341.1h2.3l1.9 3 1.9-3h2.3v7.9h-2.2v-4.6l-2 3.1h-.1l-2-3v4.5h-2.1zM89 341.1h2.2v7.9H89zM92.6 341.1h2.2v6h3.9v1.9h-6.1z"/><path transform="rotate(-79.333 100.75 345.032)" class="st0" d="M96.8 343.9h7.9v2.2h-7.9z"/><path class="st0" d="M105.2 343h-2.3v-1.9h6.9v1.9h-2.4v6h-2.2zM113.6 343.6l.9 2.3h-1.8l.9-2.3zm-1.1-2.6l-3.4 8h2.3l.6-1.4h3.1l.6 1.4h2.4l-3.4-8h-2.2zM118.8 341.1h3.8c1.2 0 2.1.3 2.6.9.5.5.7 1.1.7 1.8 0 1.2-.6 2-1.6 2.4l1.9 2.8h-2.5l-1.6-2.4H121v2.4h-2.2v-7.9zm3.6 3.8c.7 0 1.2-.4 1.2-.9 0-.6-.5-.9-1.2-.9H121v1.9h1.4zM128.9 346l-3-4.9h2.5l1.7 2.8 1.6-2.8h2.5l-3 4.9v3h-2.3zM79.1 351.8h4.5c1.1 0 1.9.3 2.4.8.4.4.6.8.6 1.4 0 1-.6 1.6-1.4 2 1.1.4 1.7 1 1.7 2.1 0 1.5-1.2 2.4-3.3 2.4h-4.5v-8.7zm3.9 3.5c.7 0 1.2-.3 1.2-.8s-.4-.8-1.1-.8h-1.6v1.5H83zm.4 3.3c.7 0 1.2-.3 1.2-.8s-.4-.8-1.2-.8h-1.9v1.6h1.9zM88.1 351.8h7.1v2.1h-4.7v1.3h4.2v1.9h-4.2v1.4h4.7v2.1h-7.1zM96.5 351.8h2.3l3.6 4.7v-4.7h2.4v8.8h-2.1l-3.8-4.8v4.8h-2.4zM106.3 351.8h7.1v2.1h-4.6v1.3h4.2v1.9h-4.2v1.4h4.7v2.1h-7.2zM114.7 351.8h7v2.1h-4.6v1.5h4.2v2.1h-4.2v3.1h-2.4zM122.9 351.8h2.4v8.8h-2.4zM129.1 353.9h-2.6v-2.1h7.7v2.1h-2.7v6.7h-2.4zM80.7 363.4h1.4l2.3 5.4h-1.6l-.4-1h-2.1l-.4 1h-1.6l2.4-5.4zm1.3 3.3l-.6-1.5-.6 1.5H82zM84.5 368l.8-1c.5.4 1.1.6 1.7.6.4 0 .6-.1.6-.4 0-.2-.2-.3-.9-.5-1.1-.3-2-.6-2-1.7 0-1 .8-1.7 2.1-1.7.9 0 1.6.2 2.2.7l-.7 1.1c-.5-.3-1-.5-1.5-.5-.4 0-.5.2-.5.3 0 .2.2.4.9.5 1.2.3 2 .7 2 1.7 0 1.1-.9 1.8-2.2 1.8-1 0-1.9-.3-2.5-.9M89.4 368l.8-1c.5.4 1.1.6 1.7.6.4 0 .6-.1.6-.4 0-.2-.2-.3-.9-.5-1.1-.3-2-.6-2-1.7 0-1 .8-1.7 2.1-1.7.9 0 1.6.2 2.2.7l-.7 1.1c-.5-.3-1-.5-1.5-.5-.4 0-.5.2-.5.3 0 .2.2.4.9.5 1.2.3 2 .7 2 1.7 0 1.1-.9 1.8-2.2 1.8-.9 0-1.8-.3-2.5-.9M94.7 366.2c0-1.6 1.2-2.8 2.9-2.8s2.9 1.2 2.9 2.8c0 1.5-1.2 2.8-2.9 2.8-1.7-.1-2.9-1.3-2.9-2.8m4.2 0c0-.8-.6-1.5-1.4-1.5-.8 0-1.4.7-1.4 1.4 0 .8.6 1.5 1.4 1.5.9 0 1.4-.7 1.4-1.4M101 366.2c0-1.6 1.2-2.8 2.8-2.8 1.1 0 1.8.5 2.3 1.1l-1.1.9c-.3-.4-.7-.6-1.2-.6-.8 0-1.3.6-1.3 1.4 0 .8.5 1.4 1.3 1.4.6 0 .9-.3 1.2-.7l1.1.8c-.5.7-1.2 1.2-2.4 1.2-1.4 0-2.7-1.1-2.7-2.7M106.9 363.4h1.5v5.4h-1.5zM111.2 363.4h1.4l2.3 5.4h-1.6l-.4-1h-2.1l-.4 1h-1.6l2.4-5.4zm1.3 3.3l-.6-1.5-.6 1.5h1.2zM116.1 364.8h-1.6v-1.4h4.7v1.4h-1.6v4h-1.5zM119.9 363.4h1.5v5.4h-1.5zM122.2 366.2c0-1.6 1.2-2.8 2.9-2.8s2.9 1.2 2.9 2.8c0 1.5-1.2 2.8-2.9 2.8-1.7-.1-2.9-1.3-2.9-2.8m4.3 0c0-.8-.6-1.5-1.4-1.5-.8 0-1.4.7-1.4 1.4 0 .8.6 1.5 1.4 1.5.8 0 1.4-.7 1.4-1.4M128.8 363.4h1.4l2.2 2.9v-2.9h1.5v5.4h-1.4l-2.3-2.9v2.9h-1.4z"/><path class="st1" d="M76.9 341h59.7v89.4H76.9z"/></svg>