<svg id="Layer_1" xmlns="http://www.w3.org/2000/svg" viewBox="0 0 160 600"><style>.st0{fill:#fff}</style><path class="st0" d="M35.7 181.1h-5l-1.5-6.8c-.1-.3-.2-.9-.3-1.7-.2-.9-.3-1.6-.3-2.1-.1.5-.2 1-.3 1.7-.1.7-.3 1.3-.4 1.9-.1.6-.6 2.9-1.6 7h-5l-3.9-15.7h4.1l1.7 7.9c.4 1.7.7 3.1.8 4.2.1-.7.3-1.7.5-3s.5-2.3.7-3.1l1.4-5.9h3.9l1.3 5.9c.2 1 .5 2.1.7 3.3s.4 2.2.5 2.8c.1-.8.3-2.2.8-4.1l1.7-7.9h4.1l-3.9 15.6zM46.5 181.3c-2 0-3.6-.5-4.7-1.6s-1.7-2.6-1.7-4.6c0-2.1.5-3.6 1.6-4.7 1-1.1 2.5-1.6 4.4-1.6 1.8 0 3.2.5 4.2 1.4s1.5 2.3 1.5 4.1v1.9h-7.5c0 .7.3 1.2.7 1.6.5.4 1.1.6 1.9.6.7 0 1.4-.1 2-.2.6-.1 1.3-.4 2-.7v3c-.7.3-1.3.6-2 .7-.5 0-1.4.1-2.4.1zm-.2-9.8c-.5 0-.9.2-1.2.5s-.5.8-.6 1.5h3.6c0-.6-.2-1.1-.5-1.4-.3-.4-.8-.6-1.3-.6zM64.2 181.3c-2 0-3.5-.5-4.5-1.6s-1.5-2.6-1.5-4.6c0-2 .6-3.6 1.7-4.7s2.7-1.7 4.7-1.7c1.4 0 2.7.3 4 .9l-1.2 3.1c-.5-.2-1-.4-1.4-.5-.4-.1-.9-.2-1.3-.2-.7 0-1.2.3-1.6.8-.4.5-.6 1.3-.6 2.2 0 1.9.7 2.9 2.2 2.9 1.2 0 2.4-.4 3.5-1.1v3.3c-1.2.8-2.5 1.2-4 1.2zM77.8 181.1l-.8-1.6h-.1c-.6.7-1.1 1.2-1.7 1.4-.6.3-1.3.4-2.3.4-1.1 0-2-.3-2.7-1-.7-.7-1-1.7-1-2.9 0-1.3.5-2.3 1.4-2.9s2.2-1 3.9-1.1l2-.1v-.2c0-1-.5-1.5-1.5-1.5-.9 0-2 .3-3.4.9l-1.2-2.8c1.4-.7 3.2-1.1 5.4-1.1 1.6 0 2.8.4 3.6 1.2.9.8 1.3 1.9 1.3 3.2v8h-2.9zm-3.1-2.8c.5 0 .9-.2 1.3-.5s.5-.7.5-1.3v-.9h-1c-1.4.1-2.1.6-2.1 1.5.1.8.5 1.2 1.3 1.2zM90.6 181.1v-6.6c0-.8-.1-1.4-.3-1.8-.2-.4-.6-.6-1.1-.6-.7 0-1.2.3-1.5.8-.3.6-.5 1.5-.5 2.9v5.3H83v-12.2h3.2l.5 1.5h.2c.4-.6.9-1 1.5-1.3.6-.3 1.4-.4 2.2-.4 1.3 0 2.4.4 3.1 1.2.7.8 1.1 1.9 1.1 3.3v7.9h-4.2z"/><g><path class="st0" d="M26.1 205.1v-6.6c0-1.6-.5-2.4-1.5-2.4-.7 0-1.2.3-1.5.9-.3.6-.5 1.5-.5 2.9v5.3h-4.2v-16.7h4.2v2.4c0 1.1-.1 2.3-.2 3.7h.2c.4-.6.9-1.1 1.4-1.3.6-.3 1.2-.4 1.9-.4 1.4 0 2.4.4 3.2 1.2.8.8 1.1 1.9 1.1 3.3v7.9h-4.1zM38.4 205.3c-2 0-3.6-.5-4.7-1.6s-1.7-2.6-1.7-4.6c0-2.1.5-3.6 1.6-4.7 1-1.1 2.5-1.6 4.4-1.6 1.8 0 3.2.5 4.2 1.4s1.5 2.3 1.5 4.1v1.9h-7.5c0 .7.3 1.2.7 1.6.5.4 1.1.6 1.9.6.7 0 1.4-.1 2-.2.6-.1 1.3-.4 2-.7v3c-.7.3-1.3.6-2 .7-.5 0-1.4.1-2.4.1zm-.2-9.8c-.5 0-.9.2-1.2.5s-.5.8-.6 1.5H40c0-.6-.2-1.1-.5-1.4-.3-.4-.8-.6-1.3-.6zM49.7 205.1h-4.2v-16.7h4.2v16.7zM59.3 205.3c-.6 0-1.2-.1-1.7-.3-.5-.2-1-.6-1.5-1.1H56c.1.9.2 1.4.2 1.6v4.9H52v-17.5h3.4l.6 1.5h.2c.8-1.2 1.9-1.8 3.2-1.8 1.3 0 2.4.6 3.2 1.7.8 1.1 1.1 2.6 1.1 4.6 0 2-.4 3.5-1.2 4.6-.8 1.2-1.9 1.8-3.2 1.8zm-1.4-9.3c-.6 0-1 .2-1.3.7s-.4 1.1-.4 2v.3c0 1 .1 1.8.4 2.3.3.5.7.7 1.3.7.5 0 .9-.2 1.2-.7.2-.5.4-1.2.4-2.3 0-1-.1-1.8-.4-2.3-.3-.5-.7-.7-1.2-.7z"/></g><g><path class="st0" d="M25.8 229.3c-.6 0-1.2-.1-1.7-.3-.5-.2-1-.6-1.5-1.1h-.2c.1.9.2 1.4.2 1.6v4.9h-4.2v-17.5h3.4l.6 1.5h.2c.8-1.2 1.9-1.8 3.2-1.8 1.3 0 2.4.6 3.2 1.7.8 1.1 1.1 2.6 1.1 4.6 0 2-.4 3.5-1.2 4.6-.7 1.2-1.8 1.8-3.1 1.8zm-1.4-9.3c-.6 0-1 .2-1.3.7s-.4 1.1-.4 2v.3c0 1 .1 1.8.4 2.3.3.5.7.7 1.3.7.5 0 .9-.2 1.2-.7.2-.5.4-1.2.4-2.3 0-1-.1-1.8-.4-2.3-.3-.5-.7-.7-1.2-.7zM39.3 216.7c.4 0 .7 0 1 .1h.2l-.4 4c-.3-.1-.8-.1-1.4-.1-.9 0-1.6.2-2 .6-.4.4-.6 1-.6 1.8v6H32v-12.2h3.1l.7 1.9h.2c.4-.6.8-1.2 1.5-1.6.5-.3 1.2-.5 1.8-.5zM53.2 223c0 2-.5 3.5-1.6 4.7-1.1 1.1-2.6 1.7-4.5 1.7-1.8 0-3.3-.6-4.4-1.7-1.1-1.1-1.6-2.7-1.6-4.6 0-2 .5-3.5 1.6-4.6 1.1-1.1 2.6-1.6 4.5-1.6 1.2 0 2.3.3 3.2.8.9.5 1.6 1.2 2.1 2.2.5.7.7 1.8.7 3.1zm-7.8 0c0 1 .1 1.8.4 2.4s.7.8 1.4.8 1.1-.3 1.4-.8.4-1.4.4-2.4-.1-1.8-.4-2.4c-.3-.5-.7-.8-1.4-.8-.6 0-1.1.3-1.4.8s-.4 1.3-.4 2.4zM60.9 226c.6 0 1.2-.1 2-.4v3.1c-.6.2-1.1.4-1.6.5-.5.1-1.1.2-1.8.2-1.4 0-2.4-.3-3.1-1-.6-.7-.9-1.8-.9-3.2v-5H54v-1.7l2-1.5 1.1-2.6h2.8v2.4h3v3.1h-3v4.7c-.1 1 .3 1.4 1 1.4zM70.3 229.3c-2 0-3.6-.5-4.7-1.6s-1.7-2.6-1.7-4.6c0-2.1.5-3.6 1.6-4.7 1-1.1 2.5-1.6 4.4-1.6 1.8 0 3.2.5 4.2 1.4s1.5 2.3 1.5 4.1v1.9h-7.5c0 .7.3 1.2.7 1.6.5.4 1.1.6 1.9.6.7 0 1.4-.1 2-.2.6-.1 1.3-.4 2-.7v3c-.7.3-1.3.6-2 .7-.6 0-1.4.1-2.4.1zm-.2-9.8c-.5 0-.9.2-1.2.5s-.5.8-.6 1.5h3.6c0-.6-.2-1.1-.5-1.4-.3-.4-.8-.6-1.3-.6zM82.9 229.3c-2 0-3.5-.5-4.5-1.6s-1.5-2.6-1.5-4.6c0-2 .6-3.6 1.7-4.7s2.7-1.7 4.7-1.7c1.4 0 2.7.3 4 .9l-1.2 3.1c-.5-.2-1-.4-1.4-.5-.4-.1-.9-.2-1.3-.2-.7 0-1.2.3-1.6.8-.4.5-.6 1.3-.6 2.2 0 1.9.7 2.9 2.2 2.9 1.2 0 2.4-.4 3.5-1.1v3.3c-1.1.8-2.4 1.2-4 1.2zM94.6 226c.6 0 1.2-.1 2-.4v3.1c-.6.2-1.1.4-1.6.5-.5.1-1.1.2-1.8.2-1.4 0-2.4-.3-3.1-1-.6-.7-.9-1.8-.9-3.2v-5h-1.5v-1.7l1.9-1.3 1.1-2.6h2.8v2.4h3v3.1h-3v4.7c-.1.8.3 1.2 1.1 1.2z"/></g><g><path class="st0" d="M17 240.9h4.4l2.1 7c.1.4.2.8.2 1.3h.1c.1-.5.1-.9.3-1.3l2.1-7h4.3l-4.8 12.9c-.6 1.6-1.4 2.8-2.3 3.5-.9.7-2.1 1-3.5 1-.6 0-1.1-.1-1.7-.2v-3.3c.4.1.8.1 1.3.1.4 0 .7-.1 1-.2.3-.1.5-.3.7-.6.2-.3.4-.7.7-1.3L17 240.9zM42.9 247c0 2-.5 3.5-1.6 4.7-1.1 1.1-2.6 1.7-4.5 1.7-1.8 0-3.3-.6-4.4-1.7-1.1-1.1-1.6-2.7-1.6-4.6 0-2 .5-3.5 1.6-4.6 1.1-1.1 2.6-1.6 4.5-1.6 1.2 0 2.3.3 3.2.8.9.5 1.6 1.2 2.1 2.2.4.7.7 1.8.7 3.1zm-7.9 0c0 1 .1 1.8.4 2.4s.7.8 1.4.8 1.1-.3 1.4-.8.4-1.3.4-2.4c0-1-.1-1.8-.4-2.4-.3-.5-.7-.8-1.4-.8-.6 0-1.1.3-1.4.8s-.4 1.3-.4 2.4zM53.3 253.1l-.5-1.5h-.2c-.4.6-.8 1-1.5 1.3-.6.3-1.4.4-2.2.4-1.3 0-2.4-.4-3.1-1.2-.7-.8-1.1-1.9-1.1-3.3v-7.9h4.2v6.6c0 .8.1 1.4.3 1.8s.6.6 1.1.6c.7 0 1.2-.3 1.5-.9.3-.6.5-1.5.5-2.9v-5.3h4.2V253h-3.2zM66.1 240.7c.4 0 .7 0 1 .1h.2l-.4 4c-.3-.1-.8-.1-1.4-.1-.9 0-1.6.2-2 .6-.4.4-.6 1-.6 1.8v6h-4.2v-12.2h3.1l.7 1.9h.2c.4-.6.8-1.2 1.5-1.6.6-.3 1.2-.5 1.9-.5z"/></g><g><path class="st0" d="M25.9 268.1h-2.6v9h-4.2v-9h-1.6V266l1.7-1v-.2c0-1.6.3-2.8 1-3.5.7-.7 1.7-1.1 3.2-1.1.6 0 1.1 0 1.6.1s1.1.2 1.7.5l-.9 2.7c-.5-.1-1-.2-1.5-.2-.3 0-.6.1-.7.3-.1.2-.2.5-.2 1v.3H26v3.2zM34.8 277.1l-.8-1.6h-.1c-.6.7-1.1 1.2-1.7 1.4-.6.3-1.3.4-2.3.4-1.1 0-2-.3-2.7-1-.7-.7-1-1.7-1-2.9 0-1.3.5-2.3 1.4-2.9s2.2-1 3.9-1.1l2-.1v-.2c0-1-.5-1.5-1.5-1.5-.9 0-2 .3-3.4.9l-1.2-2.8c1.4-.7 3.2-1.1 5.4-1.1 1.6 0 2.8.4 3.6 1.2.9.8 1.3 1.9 1.3 3.2v8h-2.9zm-3.1-2.8c.5 0 .9-.2 1.3-.5s.5-.7.5-1.3v-.9h-1c-1.4.1-2.1.6-2.1 1.5.1.9.5 1.2 1.3 1.2zM54.9 277.1v-6.6c0-.8-.1-1.4-.3-1.9-.2-.4-.6-.6-1.1-.6-.6 0-1.1.3-1.4.8-.3.6-.5 1.4-.5 2.6v5.7h-4.2v-6.6c0-.8-.1-1.4-.3-1.9-.2-.4-.6-.6-1-.6-.7 0-1.1.3-1.4.9-.3.6-.5 1.5-.5 2.9v5.3H40v-12.2h3.2l.5 1.5h.2c.3-.6.8-1 1.4-1.3.6-.3 1.3-.4 2.1-.4 1.8 0 3 .5 3.7 1.6h.3c.3-.5.8-.9 1.4-1.2.6-.3 1.3-.4 2-.4 1.4 0 2.5.4 3.2 1.1.7.7 1 1.9 1 3.4v7.9h-4.1zM61.2 261.9c0-.6.2-1.1.5-1.4.4-.3.9-.5 1.7-.5.8 0 1.3.2 1.7.5.4.3.5.8.5 1.4 0 1.2-.7 1.8-2.2 1.8-1.5 0-2.2-.6-2.2-1.8zm4.3 15.2h-4.2v-12.2h4.2v12.2zM72 277.1h-4.2v-16.7H72v16.7zM72.8 264.9h4.4l2.1 7c.1.4.2.8.2 1.3h.1c.1-.5.1-.9.3-1.3l2.1-7h4.3l-4.8 12.9c-.6 1.6-1.4 2.8-2.3 3.5-.9.7-2.1 1-3.5 1-.6 0-1.1-.1-1.7-.2v-3.3c.4.1.8.1 1.3.1.4 0 .7-.1 1-.2.3-.1.5-.3.7-.6.2-.3.4-.7.7-1.3l-4.9-11.9zM86.5 275.3c0-.7.2-1.2.6-1.5.4-.4 1-.5 1.7-.5s1.3.2 1.6.5c.4.4.6.9.6 1.5s-.2 1.1-.6 1.5c-.4.4-.9.5-1.6.5-.7 0-1.3-.2-1.7-.5s-.6-.9-.6-1.5z"/></g></svg>