<svg id="Layer_1" xmlns="http://www.w3.org/2000/svg" viewBox="0 0 160 600"><style>.st0{fill:#fff}.st1{fill:none}</style><path class="st0" d="M88.7 365.6h25.5l6.5 19.3h-3l-5.5-16.4-24.3-.1z"/><path class="st0" d="M86.9 371.3h23.3l4.6 13.6h-3l-3.6-10.8H86z"/><path class="st0" d="M85.3 377.2l-7.8 23.6 2.4 1.7 7-22.7h17.4l.9-2.6z"/><path class="st0" d="M89 382.6h14.4l-.9 2.7H91.1l-6.5 20.8-2.3-2z"/><path class="st0" d="M87.4 408.1l20.6 14.2 2-1.7-19.5-13.7 5.1-16.4-2.5-1.8z"/><path class="st0" d="M97.9 392.1l2.5 1.6-3.5 10.7 17.5 12.5-2 2-18.7-13.4z"/><path class="st0" d="M117.1 412.2l-14.3-9.7-2.1 1.4 16.3 11.7 20.6-15-1.1-2.7z"/><path class="st0" d="M105.7 400.2l1.9-1.5 9.5 6.8 17.5-12.9 1.2 2.5-18.7 13.7z"/><path class="st0" d="M116.7 398.9l1 2.6 16.2-11.7-8.2-24.2h-2.8l7.9 23.1z"/><path class="st0" d="M117.1 365.6h2.5l7.8 22.1-11.6 8.5-1-2.2 9.6-7.5zM85.9 332.5l-1.9 3.1-1.9-3.1h-2.3v8h2.1V336l2 3.1h.1l2-3.2v4.6h2.2v-8zM89.7 332.5h2.2v8h-2.2zM93.4 332.5v8h6.1v-1.9h-3.9v-6.1zM100.4 332.5h2.2v8h-2.2zM103.7 332.5v2h2.4v6h2.2v-6h2.4v-2zM114.4 335.1l.9 2.3h-1.8l.9-2.3zm-1-2.6l-3.4 8h2.3l.6-1.4h3.1l.6 1.4h2.4l-3.4-8h-2.2zM119.7 332.5h3.8c1.2 0 2.1.3 2.6.9.5.5.7 1.1.7 1.9 0 1.2-.6 2-1.6 2.5l1.9 2.8h-2.6l-1.6-2.4h-.9v2.4h-2.2v-8.1zm3.7 3.9c.8 0 1.2-.4 1.2-.9 0-.6-.5-.9-1.2-.9H122v1.9h1.4zM129.9 337.5l-3-5h2.5l1.6 2.9 1.7-2.9h2.5l-3.1 5v3h-2.2zM79.8 343.4h4.5c1.1 0 1.9.3 2.4.8.4.4.6.8.6 1.4 0 1-.6 1.6-1.4 2 1.1.4 1.8 1 1.8 2.2 0 1.5-1.2 2.4-3.3 2.4h-4.6v-8.8zm4 3.5c.7 0 1.2-.3 1.2-.8s-.4-.8-1.1-.8h-1.6v1.6h1.5zm.3 3.3c.7 0 1.2-.3 1.2-.8s-.4-.8-1.2-.8h-1.9v1.6h1.9zM88.9 343.4H96v2h-4.7v1.4h4.2v1.9h-4.2v1.4H96v2.1h-7.1zM97.3 343.4h2.3l3.6 4.6v-4.6h2.4v8.8h-2.1l-3.8-4.9v4.9h-2.4zM107.2 343.4h7.1v2h-4.7v1.4h4.2v1.9h-4.2v1.4h4.8v2.1h-7.2zM115.6 343.4h7.1v2.1h-4.6v1.5h4.1v2h-4.1v3.2h-2.5zM123.8 343.4h2.5v8.8h-2.5zM130.1 345.5h-2.7v-2.1h7.8v2.1h-2.7v6.7h-2.4zM81.4 355h1.4l2.3 5.5h-1.6l-.4-1H81l-.4 1H79l2.4-5.5zm1.3 3.3l-.6-1.5-.6 1.5h1.2zM85.2 359.7l.8-1c.5.4 1.1.7 1.8.7.4 0 .6-.1.6-.4 0-.2-.2-.3-.9-.5-1.2-.3-2-.6-2-1.7 0-1 .8-1.7 2.1-1.7.9 0 1.6.2 2.2.7l-.8 1.1c-.5-.3-1-.5-1.5-.5-.4 0-.5.2-.5.3 0 .2.2.4.9.5 1.2.3 2 .7 2 1.7 0 1.1-.9 1.8-2.2 1.8-.9-.1-1.8-.4-2.5-1M90.2 359.7l.8-1c.5.4 1.1.7 1.8.7.4 0 .6-.1.6-.4 0-.2-.2-.3-.9-.5-1.2-.3-2-.6-2-1.7 0-1 .8-1.7 2.1-1.7.9 0 1.6.2 2.2.7l-.8 1.1c-.5-.3-1-.5-1.5-.5-.4 0-.5.2-.5.3 0 .2.2.4.9.5 1.2.3 2 .7 2 1.7 0 1.1-.9 1.8-2.2 1.8-1-.1-1.9-.4-2.5-1M95.4 357.8c0-1.6 1.3-2.8 2.9-2.8 1.7 0 2.9 1.2 2.9 2.8 0 1.6-1.3 2.8-2.9 2.8-1.6 0-2.9-1.3-2.9-2.8m4.3 0c0-.8-.6-1.5-1.4-1.5-.8 0-1.4.7-1.4 1.4 0 .8.6 1.5 1.4 1.5.9 0 1.4-.6 1.4-1.4M101.9 357.8c0-1.6 1.2-2.8 2.9-2.8 1.1 0 1.8.5 2.3 1.1l-1.1.9c-.3-.4-.7-.6-1.2-.6-.8 0-1.3.6-1.3 1.4 0 .8.5 1.4 1.3 1.4.6 0 .9-.3 1.2-.7l1.1.8c-.5.7-1.2 1.2-2.4 1.2-1.6.1-2.8-1.1-2.8-2.7M107.7 355.1h1.5v5.4h-1.5zM112.1 355h1.4l2.3 5.5h-1.6l-.4-1h-2.1l-.4 1h-1.6l2.4-5.5zm1.3 3.3l-.6-1.5-.6 1.5h1.2zM117 356.4h-1.6v-1.3h4.7v1.3h-1.6v4.1H117zM120.8 355.1h1.5v5.4h-1.5zM123.1 357.8c0-1.6 1.3-2.8 2.9-2.8 1.7 0 2.9 1.2 2.9 2.8 0 1.6-1.3 2.8-2.9 2.8-1.6 0-2.9-1.3-2.9-2.8m4.3 0c0-.8-.6-1.5-1.4-1.5-.8 0-1.4.7-1.4 1.4 0 .8.6 1.5 1.4 1.5.9 0 1.4-.6 1.4-1.4M129.7 355.1h1.4l2.3 2.8v-2.8h1.5v5.4h-1.4l-2.3-3v3h-1.5z"/><path class="st1" d="M77.5 332.5h60.1v89.9H77.5z"/></svg>