<?xml version="1.0" encoding="utf-8"?>
<!-- Generator: Adobe Illustrator 22.1.0, SVG Export Plug-In . SVG Version: 6.00 Build 0)  -->
<svg version="1.1" id="Layer_1" xmlns="http://www.w3.org/2000/svg" xmlns:xlink="http://www.w3.org/1999/xlink" x="0px" y="0px"
	 viewBox="0 0 300 250" style="enable-background:new 0 0 300 250;" xml:space="preserve">
<style type="text/css">
	.st0{fill:#0033A1;}
	.st1{fill:none;}
</style>
<polygon class="st0" points="239.2,45.5 262.7,45.5 268.6,63.2 265.9,63.2 260.8,48.2 238.5,48.1 "/>
<polygon class="st0" points="237.6,50.7 258.9,50.7 263.2,63.2 260.4,63.2 257.1,53.3 236.8,53.3 "/>
<polygon class="st0" points="236.1,56.1 229,77.8 231.2,79.4 237.6,58.5 253.5,58.5 254.4,56.1 "/>
<polygon class="st0" points="239.5,61.1 252.7,61.1 251.9,63.5 241.4,63.5 235.5,82.6 233.4,80.8 "/>
<polygon class="st0" points="238.1,84.5 256.9,97.6 258.8,95.9 240.9,83.4 245.6,68.4 243.3,66.7 "/>
<polygon class="st0" points="247.7,69.8 250,71.3 246.7,81.1 262.8,92.6 261,94.4 243.8,82.1 "/>
<polygon class="st0" points="265.3,88.3 252.1,79.4 250.3,80.6 265.2,91.4 284.1,77.6 283.1,75.1 "/>
<polygon class="st0" points="254.9,77.3 256.6,75.9 265.3,82.1 281.4,70.3 282.4,72.6 265.3,85.1 "/>
<polygon class="st0" points="265,76.1 265.9,78.5 280.7,67.7 273.2,45.5 270.7,45.5 277.9,66.7 "/>
<polygon class="st0" points="265.3,45.5 267.6,45.5 274.7,65.8 264.1,73.6 263.2,71.6 272,64.7 "/>
<polygon class="st0" points="236.7,15.2 234.9,18 233.2,15.2 231,15.2 231,22.5 233,22.5 233,18.3 234.9,21.2 234.9,21.2 
	236.8,18.3 236.8,22.5 238.8,22.5 238.8,15.2 "/>
<rect x="240.2" y="15.2" class="st0" width="2" height="7.3"/>
<polygon class="st0" points="243.5,15.2 243.5,22.5 249.1,22.5 249.1,20.7 245.6,20.7 245.6,15.2 "/>
<rect x="250" y="15.2" class="st0" width="2" height="7.3"/>
<polygon class="st0" points="253,15.2 253,17 255.2,17 255.2,22.5 257.2,22.5 257.2,17 259.4,17 259.4,15.2 "/>
<path class="st0" d="M262.9,17.5l0.8,2.1H262L262.9,17.5z M261.9,15.1l-3.1,7.4h2.1l0.5-1.3h2.8l0.5,1.3h2.2l-3.1-7.4H261.9z"/>
<path class="st0" d="M267.7,15.2h3.5c1.1,0,1.9,0.3,2.4,0.8c0.4,0.4,0.6,1,0.6,1.7v0c0,1.1-0.6,1.9-1.5,2.2l1.7,2.6h-2.3l-1.5-2.2h0
	h-0.9v2.2h-2V15.2z M271.1,18.7c0.7,0,1.1-0.3,1.1-0.9v0c0-0.6-0.4-0.9-1.1-0.9h-1.3v1.8H271.1z"/>
<polygon class="st0" points="277.1,19.8 274.3,15.2 276.6,15.2 278.1,17.8 279.6,15.2 281.9,15.2 279.1,19.7 279.1,22.5 277.1,22.5 
	"/>
<path class="st0" d="M231.1,25.1h4.2c1,0,1.7,0.3,2.2,0.7c0.3,0.3,0.5,0.8,0.5,1.3v0c0,0.9-0.5,1.5-1.2,1.8c1,0.3,1.6,0.9,1.6,2v0
	c0,1.4-1.1,2.2-3.1,2.2h-4.2V25.1z M234.7,28.3c0.7,0,1.1-0.2,1.1-0.7v0c0-0.4-0.3-0.7-1-0.7h-1.5v1.4H234.7z M235,31.4
	c0.7,0,1.1-0.3,1.1-0.7v0c0-0.4-0.3-0.7-1.1-0.7h-1.7v1.5H235z"/>
<polygon class="st0" points="239.4,25.1 245.9,25.1 245.9,27 241.6,27 241.6,28.2 245.5,28.2 245.5,30 241.6,30 241.6,31.3 
	246,31.3 246,33.2 239.4,33.2 "/>
<polygon class="st0" points="247.1,25.1 249.2,25.1 252.5,29.4 252.5,25.1 254.8,25.1 254.8,33.2 252.8,33.2 249.3,28.8 249.3,33.2 
	247.1,33.2 "/>
<polygon class="st0" points="256.2,25.1 262.7,25.1 262.7,27 258.4,27 258.4,28.2 262.3,28.2 262.3,30 258.4,30 258.4,31.3 
	262.8,31.3 262.8,33.2 256.2,33.2 "/>
<polygon class="st0" points="263.9,25.1 270.4,25.1 270.4,27.1 266.2,27.1 266.2,28.4 270,28.4 270,30.3 266.2,30.3 266.2,33.2 
	263.9,33.2 "/>
<rect x="271.5" y="25.1" class="st0" width="2.3" height="8.1"/>
<polygon class="st0" points="277.2,27.1 274.8,27.1 274.8,25.1 281.9,25.1 281.9,27.1 279.4,27.1 279.4,33.2 277.2,33.2 "/>
<path class="st0" d="M232.6,35.8h1.3l2.1,5h-1.5l-0.4-0.9h-1.9l-0.4,0.9h-1.4L232.6,35.8z M233.8,38.8l-0.6-1.4l-0.6,1.4H233.8z"/>
<path class="st0" d="M236,40.1l0.8-0.9c0.5,0.4,1,0.6,1.6,0.6c0.4,0,0.6-0.1,0.6-0.3v0c0-0.2-0.2-0.3-0.8-0.5
	c-1.1-0.2-1.9-0.5-1.9-1.6v0c0-0.9,0.7-1.6,1.9-1.6c0.8,0,1.5,0.2,2,0.7l-0.7,1c-0.5-0.3-1-0.5-1.4-0.5c-0.3,0-0.5,0.1-0.5,0.3v0
	c0,0.2,0.2,0.3,0.9,0.5c1.1,0.2,1.9,0.6,1.9,1.5v0c0,1-0.8,1.6-2,1.6C237.5,40.9,236.6,40.6,236,40.1"/>
<path class="st0" d="M240.6,40.1l0.8-0.9c0.5,0.4,1,0.6,1.6,0.6c0.4,0,0.6-0.1,0.6-0.3v0c0-0.2-0.2-0.3-0.8-0.5
	c-1.1-0.2-1.9-0.5-1.9-1.6v0c0-0.9,0.7-1.6,1.9-1.6c0.8,0,1.5,0.2,2,0.7l-0.7,1c-0.5-0.3-1-0.5-1.4-0.5c-0.3,0-0.5,0.1-0.5,0.3v0
	c0,0.2,0.2,0.3,0.9,0.5c1.1,0.2,1.9,0.6,1.9,1.5v0c0,1-0.8,1.6-2,1.6C242,40.9,241.2,40.6,240.6,40.1"/>
<path class="st0" d="M245.4,38.3L245.4,38.3c0-1.4,1.1-2.6,2.7-2.6c1.5,0,2.7,1.1,2.7,2.6v0c0,1.4-1.2,2.6-2.7,2.6
	C246.6,40.9,245.4,39.8,245.4,38.3 M249.4,38.3L249.4,38.3c0-0.7-0.5-1.4-1.3-1.4c-0.8,0-1.3,0.6-1.3,1.3v0c0,0.7,0.5,1.3,1.3,1.3
	C248.9,39.7,249.4,39,249.4,38.3"/>
<path class="st0" d="M251.3,38.3L251.3,38.3c0-1.5,1.1-2.6,2.6-2.6c1,0,1.7,0.4,2.1,1l-1,0.8c-0.3-0.4-0.6-0.6-1.1-0.6
	c-0.7,0-1.2,0.6-1.2,1.3v0c0,0.7,0.5,1.3,1.2,1.3c0.5,0,0.8-0.2,1.1-0.6l1,0.7c-0.5,0.6-1.1,1.1-2.2,1.1
	C252.5,40.9,251.3,39.8,251.3,38.3"/>
<rect x="256.7" y="35.8" class="st0" width="1.4" height="5"/>
<path class="st0" d="M260.7,35.8h1.3l2.1,5h-1.5l-0.4-0.9h-1.9l-0.4,0.9h-1.4L260.7,35.8z M261.9,38.8l-0.6-1.4l-0.6,1.4H261.9z"/>
<polygon class="st0" points="265.2,37 263.7,37 263.7,35.8 268.1,35.8 268.1,37 266.6,37 266.6,40.8 265.2,40.8 "/>
<rect x="268.7" y="35.8" class="st0" width="1.4" height="5"/>
<path class="st0" d="M270.8,38.3L270.8,38.3c0-1.4,1.1-2.6,2.7-2.6c1.5,0,2.7,1.1,2.7,2.6v0c0,1.4-1.1,2.6-2.7,2.6
	C272,40.9,270.8,39.8,270.8,38.3 M274.8,38.3L274.8,38.3c0-0.7-0.5-1.4-1.3-1.4c-0.8,0-1.3,0.6-1.3,1.3v0c0,0.7,0.5,1.3,1.3,1.3
	C274.3,39.7,274.8,39,274.8,38.3"/>
<polygon class="st0" points="276.9,35.8 278.2,35.8 280.2,38.5 280.2,35.8 281.6,35.8 281.6,40.8 280.4,40.8 278.3,38.1 278.3,40.8 
	276.9,40.8 "/>
<rect x="229" y="15.1" class="st1" width="55.1" height="82.4"/>
</svg>
