<?xml version="1.0" encoding="utf-8"?>
<!-- Generator: Adobe Illustrator 22.1.0, SVG Export Plug-In . SVG Version: 6.00 Build 0)  -->
<svg version="1.1" id="Layer_1" xmlns="http://www.w3.org/2000/svg" xmlns:xlink="http://www.w3.org/1999/xlink" x="0px" y="0px"
	 viewBox="0 0 160 600" style="enable-background:new 0 0 160 600;" xml:space="preserve">
<style type="text/css">
	.st0{fill:#FFFFFF;}
</style>
<g>
	<path class="st0" d="M42.1,186.8h-5l-1.5-6.8c-0.1-0.3-0.2-0.9-0.3-1.7c-0.2-0.9-0.3-1.6-0.3-2.1c-0.1,0.5-0.2,1-0.3,1.7
		c-0.1,0.7-0.3,1.3-0.4,1.9c-0.1,0.6-0.6,2.9-1.6,7h-5l-3.9-15.7h4.1l1.7,7.9c0.4,1.7,0.7,3.1,0.8,4.2c0.1-0.7,0.3-1.7,0.5-3
		c0.2-1.3,0.5-2.3,0.7-3.1l1.4-5.9h3.9l1.3,5.9c0.2,1,0.5,2.1,0.7,3.3s0.4,2.2,0.5,2.8c0.1-0.8,0.3-2.2,0.8-4.1l1.7-7.9h4.1
		L42.1,186.8z"/>
	<path class="st0" d="M52.9,187c-2,0-3.6-0.5-4.7-1.6c-1.1-1.1-1.7-2.6-1.7-4.6c0-2.1,0.5-3.6,1.6-4.7c1-1.1,2.5-1.6,4.4-1.6
		c1.8,0,3.2,0.5,4.2,1.4s1.5,2.3,1.5,4.1v1.9h-7.5c0,0.7,0.3,1.2,0.7,1.6c0.5,0.4,1.1,0.6,1.9,0.6c0.7,0,1.4-0.1,2-0.2
		c0.6-0.1,1.3-0.4,2-0.7v3c-0.7,0.3-1.3,0.6-2,0.7C54.7,187,53.9,187,52.9,187z M52.7,177.3c-0.5,0-0.9,0.2-1.2,0.5
		s-0.5,0.8-0.6,1.5h3.6c0-0.6-0.2-1.1-0.5-1.4C53.6,177.5,53.2,177.3,52.7,177.3z"/>
	<path class="st0" d="M70.6,187c-2,0-3.5-0.5-4.5-1.6c-1-1.1-1.5-2.6-1.5-4.6c0-2,0.6-3.6,1.7-4.7c1.1-1.1,2.7-1.7,4.7-1.7
		c1.4,0,2.7,0.3,4,0.9l-1.2,3.1c-0.5-0.2-1-0.4-1.4-0.5c-0.4-0.1-0.9-0.2-1.3-0.2c-0.7,0-1.2,0.3-1.6,0.8c-0.4,0.5-0.6,1.3-0.6,2.2
		c0,1.9,0.7,2.9,2.2,2.9c1.2,0,2.4-0.4,3.5-1.1v3.3C73.4,186.7,72.1,187,70.6,187z"/>
	<path class="st0" d="M84.2,186.8l-0.8-1.6h-0.1c-0.6,0.7-1.1,1.2-1.7,1.4s-1.3,0.4-2.3,0.4c-1.1,0-2-0.3-2.7-1
		c-0.7-0.7-1-1.7-1-2.9c0-1.3,0.5-2.3,1.4-2.9s2.2-1,3.9-1.1l2-0.1v-0.2c0-1-0.5-1.5-1.5-1.5c-0.9,0-2,0.3-3.4,0.9l-1.2-2.8
		c1.4-0.7,3.2-1.1,5.4-1.1c1.6,0,2.8,0.4,3.6,1.2c0.9,0.8,1.3,1.9,1.3,3.2v8H84.2z M81.1,184.1c0.5,0,0.9-0.2,1.3-0.5
		c0.4-0.3,0.5-0.7,0.5-1.3v-0.9l-1,0c-1.4,0.1-2.1,0.6-2.1,1.5C79.9,183.7,80.3,184.1,81.1,184.1z"/>
	<path class="st0" d="M97,186.8v-6.6c0-0.8-0.1-1.4-0.3-1.8c-0.2-0.4-0.6-0.6-1.1-0.6c-0.7,0-1.2,0.3-1.5,0.8
		c-0.3,0.6-0.5,1.5-0.5,2.9v5.3h-4.2v-12.2h3.2l0.5,1.5h0.2c0.4-0.6,0.9-1,1.5-1.3c0.6-0.3,1.4-0.4,2.2-0.4c1.3,0,2.4,0.4,3.1,1.2
		c0.7,0.8,1.1,1.9,1.1,3.3v7.9H97z"/>
</g>
<g>
	<path class="st0" d="M32.5,211.8v-6.6c0-1.6-0.5-2.4-1.5-2.4c-0.7,0-1.2,0.3-1.5,0.9c-0.3,0.6-0.5,1.5-0.5,2.9v5.3h-4.2v-16.7h4.2
		v2.4c0,1.1-0.1,2.3-0.2,3.7h0.2c0.4-0.6,0.9-1.1,1.4-1.3c0.6-0.3,1.2-0.4,1.9-0.4c1.4,0,2.4,0.4,3.2,1.2c0.8,0.8,1.1,1.9,1.1,3.3
		v7.9H32.5z"/>
	<path class="st0" d="M44.8,212c-2,0-3.6-0.5-4.7-1.6c-1.1-1.1-1.7-2.6-1.7-4.6c0-2.1,0.5-3.6,1.6-4.7c1-1.1,2.5-1.6,4.4-1.6
		c1.8,0,3.2,0.5,4.2,1.4s1.5,2.3,1.5,4.1v1.9h-7.5c0,0.7,0.3,1.2,0.7,1.6c0.5,0.4,1.1,0.6,1.9,0.6c0.7,0,1.4-0.1,2-0.2
		c0.6-0.1,1.3-0.4,2-0.7v3c-0.7,0.3-1.3,0.6-2,0.7C46.6,212,45.8,212,44.8,212z M44.6,202.3c-0.5,0-0.9,0.2-1.2,0.5
		s-0.5,0.8-0.6,1.5h3.6c0-0.6-0.2-1.1-0.5-1.4C45.5,202.5,45.1,202.3,44.6,202.3z"/>
	<path class="st0" d="M56.1,211.8h-4.2v-16.7h4.2V211.8z"/>
	<path class="st0" d="M65.6,212c-0.6,0-1.2-0.1-1.7-0.3c-0.5-0.2-1-0.6-1.5-1.1h-0.2c0.1,0.9,0.2,1.4,0.2,1.6v4.9h-4.2v-17.5h3.4
		l0.6,1.5h0.2c0.8-1.2,1.9-1.8,3.2-1.8c1.3,0,2.4,0.6,3.2,1.7c0.8,1.1,1.1,2.6,1.1,4.6c0,2-0.4,3.5-1.2,4.6
		C68.1,211.5,67,212,65.6,212z M64.2,202.7c-0.6,0-1,0.2-1.3,0.7s-0.4,1.1-0.4,2v0.3c0,1,0.1,1.8,0.4,2.3c0.3,0.5,0.7,0.7,1.3,0.7
		c0.5,0,0.9-0.2,1.2-0.7c0.2-0.5,0.4-1.2,0.4-2.3c0-1-0.1-1.8-0.4-2.3C65.2,203,64.8,202.7,64.2,202.7z"/>
</g>
<g>
	<path class="st0" d="M32.2,237c-0.6,0-1.2-0.1-1.7-0.3c-0.5-0.2-1-0.6-1.5-1.1h-0.2c0.1,0.9,0.2,1.4,0.2,1.6v4.9h-4.2v-17.5h3.4
		l0.6,1.5h0.2c0.8-1.2,1.9-1.8,3.2-1.8c1.3,0,2.4,0.6,3.2,1.7c0.8,1.1,1.1,2.6,1.1,4.6c0,2-0.4,3.5-1.2,4.6
		C34.6,236.5,33.5,237,32.2,237z M30.7,227.7c-0.6,0-1,0.2-1.3,0.7s-0.4,1.1-0.4,2v0.3c0,1,0.1,1.8,0.4,2.3c0.3,0.5,0.7,0.7,1.3,0.7
		c0.5,0,0.9-0.2,1.2-0.7c0.2-0.5,0.4-1.2,0.4-2.3c0-1-0.1-1.8-0.4-2.3C31.7,228,31.3,227.7,30.7,227.7z"/>
	<path class="st0" d="M45.7,224.4c0.4,0,0.7,0,1,0.1l0.2,0l-0.4,4c-0.3-0.1-0.8-0.1-1.4-0.1c-0.9,0-1.6,0.2-2,0.6
		c-0.4,0.4-0.6,1-0.6,1.8v6h-4.2v-12.2h3.1l0.7,1.9h0.2c0.4-0.6,0.8-1.2,1.5-1.6C44.4,224.6,45,224.4,45.7,224.4z"/>
	<path class="st0" d="M59.6,230.7c0,2-0.5,3.5-1.6,4.7c-1.1,1.1-2.6,1.7-4.5,1.7c-1.8,0-3.3-0.6-4.4-1.7c-1.1-1.1-1.6-2.7-1.6-4.6
		c0-2,0.5-3.5,1.6-4.6c1.1-1.1,2.6-1.6,4.5-1.6c1.2,0,2.3,0.3,3.2,0.8c0.9,0.5,1.6,1.2,2.1,2.2C59.4,228.3,59.6,229.4,59.6,230.7z
		 M51.7,230.7c0,1,0.1,1.8,0.4,2.4s0.7,0.8,1.4,0.8c0.7,0,1.1-0.3,1.4-0.8s0.4-1.3,0.4-2.4c0-1-0.1-1.8-0.4-2.4
		c-0.3-0.5-0.7-0.8-1.4-0.8c-0.6,0-1.1,0.3-1.4,0.8S51.7,229.7,51.7,230.7z"/>
	<path class="st0" d="M67.3,233.7c0.6,0,1.2-0.1,2-0.4v3.1c-0.6,0.2-1.1,0.4-1.6,0.5c-0.5,0.1-1.1,0.2-1.8,0.2c-1.4,0-2.4-0.3-3.1-1
		c-0.6-0.7-0.9-1.8-0.9-3.2v-5h-1.5v-1.7l1.9-1.3l1.1-2.6h2.8v2.4h3v3.1h-3v4.7C66.2,233.3,66.6,233.7,67.3,233.7z"/>
	<path class="st0" d="M76.7,237c-2,0-3.6-0.5-4.7-1.6c-1.1-1.1-1.7-2.6-1.7-4.6c0-2.1,0.5-3.6,1.6-4.7c1-1.1,2.5-1.6,4.4-1.6
		c1.8,0,3.2,0.5,4.2,1.4c1,1,1.5,2.3,1.5,4.1v1.9h-7.5c0,0.7,0.3,1.2,0.7,1.6c0.5,0.4,1.1,0.6,1.9,0.6c0.7,0,1.4-0.1,2-0.2
		c0.6-0.1,1.3-0.4,2-0.7v3c-0.7,0.3-1.3,0.6-2,0.7C78.5,237,77.7,237,76.7,237z M76.5,227.3c-0.5,0-0.9,0.2-1.2,0.5
		s-0.5,0.8-0.6,1.5h3.6c0-0.6-0.2-1.1-0.5-1.4C77.4,227.5,77,227.3,76.5,227.3z"/>
	<path class="st0" d="M89.3,237c-2,0-3.5-0.5-4.5-1.6c-1-1.1-1.5-2.6-1.5-4.6c0-2,0.6-3.6,1.7-4.7c1.1-1.1,2.7-1.7,4.7-1.7
		c1.4,0,2.7,0.3,4,0.9l-1.2,3.1c-0.5-0.2-1-0.4-1.4-0.5c-0.4-0.1-0.9-0.2-1.3-0.2c-0.7,0-1.2,0.3-1.6,0.8c-0.4,0.5-0.6,1.3-0.6,2.2
		c0,1.9,0.7,2.9,2.2,2.9c1.2,0,2.4-0.4,3.5-1.1v3.3C92.1,236.7,90.8,237,89.3,237z"/>
	<path class="st0" d="M100.9,233.7c0.6,0,1.2-0.1,2-0.4v3.1c-0.6,0.2-1.1,0.4-1.6,0.5c-0.5,0.1-1.1,0.2-1.8,0.2
		c-1.4,0-2.4-0.3-3.1-1c-0.6-0.7-0.9-1.8-0.9-3.2v-5h-1.5v-1.7l1.9-1.3l1.1-2.6h2.8v2.4h3v3.1h-3v4.7
		C99.8,233.3,100.2,233.7,100.9,233.7z"/>
</g>
<g>
	<path class="st0" d="M23.4,249.6h4.4l2.1,7c0.1,0.4,0.2,0.8,0.2,1.3h0.1c0.1-0.5,0.1-0.9,0.3-1.3l2.1-7h4.3L32,262.6
		c-0.6,1.6-1.4,2.8-2.3,3.5c-0.9,0.7-2.1,1-3.5,1c-0.6,0-1.1-0.1-1.7-0.2v-3.3c0.4,0.1,0.8,0.1,1.3,0.1c0.4,0,0.7-0.1,1-0.2
		c0.3-0.1,0.5-0.3,0.7-0.6c0.2-0.3,0.4-0.7,0.7-1.3L23.4,249.6z"/>
	<path class="st0" d="M49.3,255.7c0,2-0.5,3.5-1.6,4.7c-1.1,1.1-2.6,1.7-4.5,1.7c-1.8,0-3.3-0.6-4.4-1.7c-1.1-1.1-1.6-2.7-1.6-4.6
		c0-2,0.5-3.5,1.6-4.6c1.1-1.1,2.6-1.6,4.5-1.6c1.2,0,2.3,0.3,3.2,0.8c0.9,0.5,1.6,1.2,2.1,2.2C49,253.3,49.3,254.4,49.3,255.7z
		 M41.4,255.7c0,1,0.1,1.8,0.4,2.4s0.7,0.8,1.4,0.8c0.7,0,1.1-0.3,1.4-0.8s0.4-1.3,0.4-2.4c0-1-0.1-1.8-0.4-2.4
		c-0.3-0.5-0.7-0.8-1.4-0.8c-0.6,0-1.1,0.3-1.4,0.8S41.4,254.7,41.4,255.7z"/>
	<path class="st0" d="M59.7,261.8l-0.5-1.5h-0.2c-0.4,0.6-0.8,1-1.5,1.3c-0.6,0.3-1.4,0.4-2.2,0.4c-1.3,0-2.4-0.4-3.1-1.2
		c-0.7-0.8-1.1-1.9-1.1-3.3v-7.9h4.2v6.6c0,0.8,0.1,1.4,0.3,1.8s0.6,0.6,1.1,0.6c0.7,0,1.2-0.3,1.5-0.9c0.3-0.6,0.5-1.5,0.5-2.9
		v-5.3h4.2v12.2H59.7z"/>
	<path class="st0" d="M72.4,249.4c0.4,0,0.7,0,1,0.1l0.2,0l-0.4,4c-0.3-0.1-0.8-0.1-1.4-0.1c-0.9,0-1.6,0.2-2,0.6
		c-0.4,0.4-0.6,1-0.6,1.8v6h-4.2v-12.2h3.1l0.7,1.9h0.2c0.4-0.6,0.8-1.2,1.5-1.6C71.2,249.6,71.8,249.4,72.4,249.4z"/>
</g>
<g>
	<path class="st0" d="M32.3,277.8h-2.6v9h-4.2v-9h-1.6v-2.1l1.7-1v-0.2c0-1.6,0.3-2.8,1-3.5c0.7-0.7,1.7-1.1,3.2-1.1
		c0.6,0,1.1,0,1.6,0.1c0.5,0.1,1.1,0.2,1.7,0.5l-0.9,2.7c-0.5-0.1-1-0.2-1.5-0.2c-0.3,0-0.6,0.1-0.7,0.3c-0.1,0.2-0.2,0.5-0.2,1v0.3
		h2.6V277.8z"/>
	<path class="st0" d="M41.2,286.8l-0.8-1.6h-0.1c-0.6,0.7-1.1,1.2-1.7,1.4c-0.6,0.3-1.3,0.4-2.3,0.4c-1.1,0-2-0.3-2.7-1
		c-0.7-0.7-1-1.7-1-2.9c0-1.3,0.5-2.3,1.4-2.9s2.2-1,3.9-1.1l2-0.1v-0.2c0-1-0.5-1.5-1.5-1.5c-0.9,0-2,0.3-3.4,0.9l-1.2-2.8
		c1.4-0.7,3.2-1.1,5.4-1.1c1.6,0,2.8,0.4,3.6,1.2c0.9,0.8,1.3,1.9,1.3,3.2v8H41.2z M38.1,284.1c0.5,0,0.9-0.2,1.3-0.5
		c0.4-0.3,0.5-0.7,0.5-1.3v-0.9l-1,0c-1.4,0.1-2.1,0.6-2.1,1.5C36.9,283.7,37.3,284.1,38.1,284.1z"/>
	<path class="st0" d="M61.3,286.8v-6.6c0-0.8-0.1-1.4-0.3-1.9c-0.2-0.4-0.6-0.6-1.1-0.6c-0.6,0-1.1,0.3-1.4,0.8
		c-0.3,0.6-0.5,1.4-0.5,2.6v5.7h-4.2v-6.6c0-0.8-0.1-1.4-0.3-1.9c-0.2-0.4-0.6-0.6-1-0.6c-0.7,0-1.1,0.3-1.4,0.9
		c-0.3,0.6-0.5,1.5-0.5,2.9v5.3h-4.2v-12.2h3.2l0.5,1.5h0.2c0.3-0.6,0.8-1,1.4-1.3c0.6-0.3,1.3-0.4,2.1-0.4c1.8,0,3,0.5,3.7,1.6h0.3
		c0.3-0.5,0.8-0.9,1.4-1.2c0.6-0.3,1.3-0.4,2-0.4c1.4,0,2.5,0.4,3.2,1.1c0.7,0.7,1,1.9,1,3.4v7.9H61.3z"/>
	<path class="st0" d="M67.6,271.6c0-0.6,0.2-1.1,0.5-1.4c0.4-0.3,0.9-0.5,1.7-0.5c0.8,0,1.3,0.2,1.7,0.5c0.4,0.3,0.5,0.8,0.5,1.4
		c0,1.2-0.7,1.8-2.2,1.8C68.3,273.4,67.6,272.8,67.6,271.6z M71.9,286.8h-4.2v-12.2h4.2V286.8z"/>
	<path class="st0" d="M78.4,286.8h-4.2v-16.7h4.2V286.8z"/>
	<path class="st0" d="M79.2,274.6h4.4l2.1,7c0.1,0.4,0.2,0.8,0.2,1.3h0.1c0.1-0.5,0.1-0.9,0.3-1.3l2.1-7h4.3l-4.8,12.9
		c-0.6,1.6-1.4,2.8-2.3,3.5c-0.9,0.7-2.1,1-3.5,1c-0.6,0-1.1-0.1-1.7-0.2v-3.3c0.4,0.1,0.8,0.1,1.3,0.1c0.4,0,0.7-0.1,1-0.2
		c0.3-0.1,0.5-0.3,0.7-0.6c0.2-0.3,0.4-0.7,0.7-1.3L79.2,274.6z"/>
	<path class="st0" d="M92.9,285c0-0.7,0.2-1.2,0.6-1.5c0.4-0.4,1-0.5,1.7-0.5c0.7,0,1.3,0.2,1.6,0.5c0.4,0.4,0.6,0.9,0.6,1.5
		c0,0.6-0.2,1.1-0.6,1.5c-0.4,0.4-0.9,0.5-1.6,0.5c-0.7,0-1.3-0.2-1.7-0.5S92.9,285.7,92.9,285z"/>
</g>
</svg>
