<?xml version="1.0" encoding="utf-8"?>
<!-- Generator: Adobe Illustrator 22.1.0, SVG Export Plug-In . SVG Version: 6.00 Build 0)  -->
<svg version="1.1" id="Layer_1" xmlns="http://www.w3.org/2000/svg" xmlns:xlink="http://www.w3.org/1999/xlink" x="0px" y="0px"
	 viewBox="0 0 160 600" style="enable-background:new 0 0 160 600;" xml:space="preserve">
<style type="text/css">
	.st0{fill:#FFFFFF;}
</style>
<g>
	<path class="st0" d="M38.6,186.8h-4.3v-6.4h-4.9v6.4h-4.3v-15.7h4.3v5.8h4.9v-5.8h4.3V186.8z"/>
	<path class="st0" d="M52.7,180.7c0,2-0.5,3.5-1.6,4.7c-1.1,1.1-2.6,1.7-4.5,1.7c-1.8,0-3.3-0.6-4.4-1.7c-1.1-1.1-1.6-2.7-1.6-4.6
		c0-2,0.5-3.5,1.6-4.6c1.1-1.1,2.6-1.6,4.5-1.6c1.2,0,2.3,0.3,3.2,0.8c0.9,0.5,1.6,1.2,2.1,2.2C52.4,178.3,52.7,179.5,52.7,180.7z
		 M44.8,180.7c0,1,0.1,1.8,0.4,2.4s0.7,0.8,1.4,0.8c0.7,0,1.1-0.3,1.4-0.8s0.4-1.3,0.4-2.4c0-1-0.1-1.8-0.4-2.4
		c-0.3-0.5-0.7-0.8-1.4-0.8c-0.6,0-1.1,0.3-1.4,0.8S44.8,179.7,44.8,180.7z"/>
	<path class="st0" d="M62.1,186.8v-6.6c0-0.8-0.1-1.4-0.3-1.8c-0.2-0.4-0.6-0.6-1.1-0.6c-0.7,0-1.2,0.3-1.5,0.8
		c-0.3,0.6-0.5,1.5-0.5,2.9v5.3h-4.2v-12.2h3.2l0.5,1.5h0.2c0.4-0.6,0.9-1,1.5-1.3c0.6-0.3,1.4-0.4,2.2-0.4c1.3,0,2.4,0.4,3.1,1.2
		c0.7,0.8,1.1,1.9,1.1,3.3v7.9H62.1z"/>
	<path class="st0" d="M80.1,180.7c0,2-0.5,3.5-1.6,4.7c-1.1,1.1-2.6,1.7-4.5,1.7c-1.8,0-3.3-0.6-4.4-1.7c-1.1-1.1-1.6-2.7-1.6-4.6
		c0-2,0.5-3.5,1.6-4.6c1.1-1.1,2.6-1.6,4.5-1.6c1.2,0,2.3,0.3,3.2,0.8c0.9,0.5,1.6,1.2,2.1,2.2C79.9,178.3,80.1,179.5,80.1,180.7z
		 M72.2,180.7c0,1,0.1,1.8,0.4,2.4s0.7,0.8,1.4,0.8c0.7,0,1.1-0.3,1.4-0.8s0.4-1.3,0.4-2.4c0-1-0.1-1.8-0.4-2.4
		c-0.3-0.5-0.7-0.8-1.4-0.8c-0.6,0-1.1,0.3-1.4,0.8S72.2,179.7,72.2,180.7z"/>
	<path class="st0" d="M89.2,174.4c0.4,0,0.7,0,1,0.1l0.2,0l-0.4,4c-0.3-0.1-0.8-0.1-1.4-0.1c-0.9,0-1.6,0.2-2,0.6s-0.6,1-0.6,1.8v6
		h-4.2v-12.2H85l0.7,1.9h0.2c0.4-0.6,0.8-1.2,1.5-1.6C87.9,174.6,88.6,174.4,89.2,174.4z"/>
	<path class="st0" d="M91.4,171.6c0-0.6,0.2-1.1,0.5-1.4c0.4-0.3,0.9-0.5,1.7-0.5s1.3,0.2,1.7,0.5c0.4,0.3,0.5,0.8,0.5,1.4
		c0,1.2-0.7,1.8-2.2,1.8C92.2,173.5,91.4,172.9,91.4,171.6z M95.7,186.8h-4.2v-12.2h4.2V186.8z"/>
	<path class="st0" d="M105.7,186.8v-6.6c0-0.8-0.1-1.4-0.3-1.8c-0.2-0.4-0.6-0.6-1.1-0.6c-0.7,0-1.2,0.3-1.5,0.8
		c-0.3,0.6-0.5,1.5-0.5,2.9v5.3H98v-12.2h3.2l0.5,1.5h0.2c0.4-0.6,0.9-1,1.5-1.3c0.6-0.3,1.4-0.4,2.2-0.4c1.3,0,2.4,0.4,3.1,1.2
		c0.7,0.8,1.1,1.9,1.1,3.3v7.9H105.7z"/>
	<path class="st0" d="M123.6,174.7v2l-1.7,0.6c0.2,0.4,0.3,0.9,0.3,1.5c0,1.3-0.5,2.3-1.4,3.1c-0.9,0.7-2.3,1.1-4.1,1.1
		c-0.5,0-0.8,0-1.1-0.1c-0.1,0.2-0.2,0.4-0.2,0.5c0,0.2,0.2,0.4,0.5,0.5c0.3,0.1,0.8,0.2,1.3,0.2h2c2.7,0,4.1,1.1,4.1,3.4
		c0,1.5-0.6,2.6-1.9,3.5c-1.3,0.8-3,1.2-5.3,1.2c-1.7,0-3.1-0.3-4-0.9c-0.9-0.6-1.4-1.4-1.4-2.5c0-1.5,0.9-2.4,2.7-2.8
		c-0.4-0.2-0.7-0.4-1-0.8c-0.3-0.4-0.4-0.7-0.4-1c0-0.4,0.1-0.7,0.3-1s0.6-0.6,1.3-1c-0.6-0.3-1.1-0.7-1.5-1.3
		c-0.4-0.6-0.5-1.3-0.5-2.2c0-1.3,0.5-2.4,1.4-3.1s2.2-1.1,3.9-1.1c0.2,0,0.6,0,1.1,0.1c0.5,0.1,0.9,0.1,1.2,0.1H123.6z
		 M114.4,188.3c0,0.3,0.2,0.6,0.6,0.8c0.4,0.2,0.9,0.3,1.5,0.3c1,0,1.8-0.1,2.4-0.4c0.6-0.3,0.9-0.6,0.9-1c0-0.3-0.2-0.5-0.6-0.7
		c-0.4-0.1-0.9-0.2-1.6-0.2H116c-0.5,0-0.8,0.1-1.1,0.3C114.6,187.8,114.4,188,114.4,188.3z M115.8,178.6c0,1.2,0.4,1.9,1.3,1.9
		c0.4,0,0.7-0.2,0.9-0.5c0.2-0.3,0.3-0.8,0.3-1.4c0-1.3-0.4-1.9-1.3-1.9C116.2,176.8,115.8,177.4,115.8,178.6z"/>
</g>
<g>
	<path class="st0" d="M30.8,207.7c0.6,0,1.2-0.1,2-0.4v3.1c-0.6,0.2-1.1,0.4-1.6,0.5c-0.5,0.1-1.1,0.2-1.8,0.2c-1.4,0-2.4-0.3-3.1-1
		c-0.6-0.7-0.9-1.8-0.9-3.2v-5H24v-1.7l1.9-1.3l1.1-2.6h2.8v2.4h3v3.1h-3v4.7C29.7,207.3,30.1,207.7,30.8,207.7z"/>
	<path class="st0" d="M42,210.8v-6.6c0-1.6-0.5-2.4-1.5-2.4c-0.7,0-1.2,0.3-1.5,0.9c-0.3,0.6-0.5,1.5-0.5,2.9v5.3h-4.2v-16.7h4.2
		v2.4c0,1.1-0.1,2.3-0.2,3.7h0.2c0.4-0.6,0.9-1.1,1.4-1.3c0.6-0.3,1.2-0.4,1.9-0.4c1.4,0,2.4,0.4,3.2,1.2c0.8,0.8,1.1,1.9,1.1,3.3
		v7.9H42z"/>
	<path class="st0" d="M54.3,211c-2,0-3.6-0.5-4.7-1.6c-1.1-1.1-1.7-2.6-1.7-4.6c0-2.1,0.5-3.6,1.6-4.7c1-1.1,2.5-1.6,4.4-1.6
		c1.8,0,3.2,0.5,4.2,1.4s1.5,2.3,1.5,4.1v1.9h-7.5c0,0.7,0.3,1.2,0.7,1.6c0.5,0.4,1.1,0.6,1.9,0.6c0.7,0,1.4-0.1,2-0.2
		c0.6-0.1,1.3-0.4,2-0.7v3c-0.7,0.3-1.3,0.6-2,0.7C56.1,211,55.3,211,54.3,211z M54.1,201.3c-0.5,0-0.9,0.2-1.2,0.5
		s-0.5,0.8-0.6,1.5h3.6c0-0.6-0.2-1.1-0.5-1.4C55,201.5,54.6,201.3,54.1,201.3z"/>
	<path class="st0" d="M73.9,198.4c1.3,0,2.4,0.6,3.2,1.7c0.8,1.1,1.2,2.6,1.2,4.6c0,2-0.4,3.5-1.2,4.6c-0.8,1.1-1.9,1.7-3.3,1.7
		c-0.5,0-0.9,0-1.2-0.1c-0.4-0.1-0.7-0.2-0.9-0.4c-0.3-0.2-0.6-0.5-1-0.9h-0.3l-0.7,1.2h-3.3v-16.7h4.2v3.8c0,0.5-0.1,1.2-0.2,2.3
		h0.2c0.4-0.6,0.9-1.1,1.4-1.4C72.6,198.6,73.2,198.4,73.9,198.4z M72.3,201.7c-0.6,0-1,0.2-1.3,0.6c-0.3,0.4-0.4,1-0.4,1.9v0.6
		c0,1,0.1,1.7,0.4,2.1c0.3,0.4,0.7,0.6,1.3,0.6c0.5,0,0.9-0.3,1.1-0.8c0.3-0.5,0.4-1.2,0.4-2.2C73.9,202.7,73.4,201.7,72.3,201.7z"
		/>
	<path class="st0" d="M79.9,195.6c0-0.6,0.2-1.1,0.5-1.4c0.4-0.3,0.9-0.5,1.7-0.5c0.8,0,1.3,0.2,1.7,0.5c0.4,0.3,0.5,0.8,0.5,1.4
		c0,1.2-0.7,1.8-2.2,1.8C80.6,197.5,79.9,196.9,79.9,195.6z M84.2,210.8H80v-12.2h4.2V210.8z"/>
	<path class="st0" d="M93.8,198.4c0.4,0,0.7,0,1,0.1l0.2,0l-0.4,4c-0.3-0.1-0.8-0.1-1.4-0.1c-0.9,0-1.6,0.2-2,0.6s-0.6,1-0.6,1.8v6
		h-4.2v-12.2h3.1l0.7,1.9h0.2c0.4-0.6,0.8-1.2,1.5-1.6C92.5,198.6,93.1,198.4,93.8,198.4z"/>
	<path class="st0" d="M102.1,207.7c0.6,0,1.2-0.1,2-0.4v3.1c-0.6,0.2-1.1,0.4-1.6,0.5c-0.5,0.1-1.1,0.2-1.8,0.2
		c-1.4,0-2.4-0.3-3.1-1c-0.6-0.7-0.9-1.8-0.9-3.2v-5h-1.5v-1.7l1.9-1.3l1.1-2.6h2.8v2.4h3v3.1h-3v4.7
		C100.9,207.3,101.3,207.7,102.1,207.7z"/>
	<path class="st0" d="M113.2,210.8v-6.6c0-1.6-0.5-2.4-1.5-2.4c-0.7,0-1.2,0.3-1.5,0.9c-0.3,0.6-0.5,1.5-0.5,2.9v5.3h-4.2v-16.7h4.2
		v2.4c0,1.1-0.1,2.3-0.2,3.7h0.2c0.4-0.6,0.9-1.1,1.4-1.3s1.2-0.4,1.9-0.4c1.4,0,2.4,0.4,3.2,1.2c0.8,0.8,1.1,1.9,1.1,3.3v7.9H113.2
		z"/>
	<path class="st0" d="M136.4,204.7c0,2-0.5,3.5-1.6,4.7c-1.1,1.1-2.6,1.7-4.5,1.7c-1.8,0-3.3-0.6-4.4-1.7c-1.1-1.1-1.6-2.7-1.6-4.6
		c0-2,0.5-3.5,1.6-4.6c1.1-1.1,2.6-1.6,4.5-1.6c1.2,0,2.3,0.3,3.2,0.8c0.9,0.5,1.6,1.2,2.1,2.2C136.1,202.3,136.4,203.5,136.4,204.7
		z M128.5,204.7c0,1,0.1,1.8,0.4,2.4s0.7,0.8,1.4,0.8c0.7,0,1.1-0.3,1.4-0.8c0.3-0.5,0.4-1.3,0.4-2.4c0-1-0.1-1.8-0.4-2.4
		c-0.3-0.5-0.7-0.8-1.4-0.8c-0.6,0-1.1,0.3-1.4,0.8S128.5,203.7,128.5,204.7z"/>
	<path class="st0" d="M145.5,201.8H143v9h-4.2v-9h-1.6v-2.1l1.7-1v-0.2c0-1.6,0.3-2.8,1-3.5c0.7-0.7,1.7-1.1,3.2-1.1
		c0.6,0,1.1,0,1.6,0.1c0.5,0.1,1.1,0.2,1.7,0.5l-0.9,2.7c-0.5-0.1-1-0.2-1.5-0.2c-0.3,0-0.6,0.1-0.7,0.3c-0.1,0.2-0.2,0.5-0.2,1v0.3
		h2.6V201.8z"/>
</g>
<g>
	<path class="st0" d="M30.8,231.7c0.6,0,1.2-0.1,2-0.4v3.1c-0.6,0.2-1.1,0.4-1.6,0.5c-0.5,0.1-1.1,0.2-1.8,0.2c-1.4,0-2.4-0.3-3.1-1
		c-0.6-0.7-0.9-1.8-0.9-3.2v-5H24v-1.7l1.9-1.3l1.1-2.6h2.8v2.4h3v3.1h-3v4.7C29.7,231.3,30.1,231.7,30.8,231.7z"/>
	<path class="st0" d="M42,234.8v-6.6c0-1.6-0.5-2.4-1.5-2.4c-0.7,0-1.2,0.3-1.5,0.9c-0.3,0.6-0.5,1.5-0.5,2.9v5.3h-4.2v-16.7h4.2
		v2.4c0,1.1-0.1,2.3-0.2,3.7h0.2c0.4-0.6,0.9-1.1,1.4-1.3c0.6-0.3,1.2-0.4,1.9-0.4c1.4,0,2.4,0.4,3.2,1.2c0.8,0.8,1.1,1.9,1.1,3.3
		v7.9H42z"/>
	<path class="st0" d="M54.3,235.1c-2,0-3.6-0.5-4.7-1.6c-1.1-1.1-1.7-2.6-1.7-4.6c0-2.1,0.5-3.6,1.6-4.7c1-1.1,2.5-1.6,4.4-1.6
		c1.8,0,3.2,0.5,4.2,1.4s1.5,2.3,1.5,4.1v1.9h-7.5c0,0.7,0.3,1.2,0.7,1.6c0.5,0.4,1.1,0.6,1.9,0.6c0.7,0,1.4-0.1,2-0.2
		c0.6-0.1,1.3-0.4,2-0.7v3c-0.7,0.3-1.3,0.6-2,0.7C56.1,235,55.3,235.1,54.3,235.1z M54.1,225.3c-0.5,0-0.9,0.2-1.2,0.5
		s-0.5,0.8-0.6,1.5h3.6c0-0.6-0.2-1.1-0.5-1.4C55,225.5,54.6,225.3,54.1,225.3z"/>
	<path class="st0" d="M80,219.1v9.5c0,2.1-0.6,3.6-1.7,4.8c-1.2,1.1-2.8,1.7-5,1.7c-2.1,0-3.8-0.5-4.9-1.6s-1.7-2.7-1.7-4.7v-9.5
		h4.3v9.2c0,1.1,0.2,1.9,0.6,2.4c0.4,0.5,1,0.8,1.8,0.8c0.9,0,1.5-0.2,1.9-0.7c0.4-0.5,0.6-1.3,0.6-2.4v-9.2H80z"/>
	<path class="st0" d="M81.9,233.1c0-0.7,0.2-1.2,0.6-1.5c0.4-0.4,1-0.5,1.7-0.5c0.7,0,1.3,0.2,1.6,0.5c0.4,0.4,0.6,0.9,0.6,1.5
		c0,0.6-0.2,1.1-0.6,1.5c-0.4,0.4-0.9,0.5-1.6,0.5c-0.7,0-1.3-0.2-1.7-0.5S81.9,233.7,81.9,233.1z"/>
	<path class="st0" d="M98.7,230.1c0,1-0.2,1.8-0.7,2.6c-0.5,0.8-1.2,1.3-2.1,1.8s-2,0.6-3.3,0.6c-1,0-1.9-0.1-2.6-0.2
		s-1.4-0.4-2.2-0.8v-3.8c0.8,0.4,1.7,0.7,2.5,1c0.9,0.2,1.7,0.3,2.4,0.3c0.6,0,1.1-0.1,1.4-0.3c0.3-0.2,0.4-0.5,0.4-0.8
		c0-0.2-0.1-0.4-0.2-0.6c-0.1-0.2-0.3-0.3-0.6-0.5c-0.3-0.2-1-0.5-2.1-1c-1-0.5-1.8-0.9-2.3-1.4c-0.5-0.4-0.9-0.9-1.1-1.5
		c-0.2-0.6-0.4-1.2-0.4-2c0-1.4,0.5-2.6,1.6-3.4c1.1-0.8,2.5-1.2,4.3-1.2c1.6,0,3.3,0.4,5,1.1l-1.3,3.3c-1.5-0.7-2.7-1-3.8-1
		c-0.6,0-1,0.1-1.2,0.3S92,223,92,223.3c0,0.3,0.2,0.6,0.5,0.8c0.3,0.2,1.2,0.7,2.6,1.3c1.4,0.6,2.3,1.3,2.8,2
		C98.4,228.1,98.7,229,98.7,230.1z"/>
	<path class="st0" d="M99.7,233.1c0-0.7,0.2-1.2,0.6-1.5c0.4-0.4,1-0.5,1.7-0.5c0.7,0,1.3,0.2,1.6,0.5c0.4,0.4,0.6,0.9,0.6,1.5
		c0,0.6-0.2,1.1-0.6,1.5c-0.4,0.4-0.9,0.5-1.6,0.5c-0.7,0-1.3-0.2-1.7-0.5S99.7,233.7,99.7,233.1z"/>
</g>
<g>
	<path class="st0" d="M40.1,258.8h-5.6l-5.7-11.1h-0.1c0.1,1.7,0.2,3.1,0.2,4v7.1h-3.8v-15.7h5.5l5.7,10.9h0.1
		c-0.1-1.6-0.2-2.9-0.2-3.8v-7.1h3.8V258.8z"/>
	<path class="st0" d="M50.5,258.8l-0.8-1.6h-0.1c-0.6,0.7-1.1,1.2-1.7,1.4c-0.6,0.3-1.3,0.4-2.3,0.4c-1.1,0-2-0.3-2.7-1
		c-0.7-0.7-1-1.7-1-2.9c0-1.3,0.5-2.3,1.4-2.9s2.2-1,3.9-1.1l2-0.1v-0.2c0-1-0.5-1.5-1.5-1.5c-0.9,0-2,0.3-3.4,0.9l-1.2-2.8
		c1.4-0.7,3.2-1.1,5.4-1.1c1.6,0,2.8,0.4,3.6,1.2c0.9,0.8,1.3,1.9,1.3,3.2v8H50.5z M47.4,256.1c0.5,0,0.9-0.2,1.3-0.5
		c0.4-0.3,0.5-0.7,0.5-1.3v-0.9l-1,0c-1.4,0.1-2.1,0.6-2.1,1.5C46.2,255.7,46.6,256.1,47.4,256.1z"/>
	<path class="st0" d="M61.6,255.7c0.6,0,1.2-0.1,2-0.4v3.1c-0.6,0.2-1.1,0.4-1.6,0.5c-0.5,0.1-1.1,0.2-1.8,0.2c-1.4,0-2.4-0.3-3.1-1
		c-0.6-0.7-0.9-1.8-0.9-3.2v-5h-1.5v-1.7l1.9-1.3l1.1-2.6h2.8v2.4h3v3.1h-3v4.7C60.4,255.3,60.8,255.7,61.6,255.7z"/>
	<path class="st0" d="M65,243.6c0-0.6,0.2-1.1,0.5-1.4c0.4-0.3,0.9-0.5,1.7-0.5c0.8,0,1.3,0.2,1.7,0.5c0.4,0.3,0.5,0.8,0.5,1.4
		c0,1.2-0.7,1.8-2.2,1.8C65.7,245.5,65,244.9,65,243.6z M69.3,258.8h-4.2v-12.2h4.2V258.8z"/>
	<path class="st0" d="M83.2,252.7c0,2-0.5,3.5-1.6,4.7c-1.1,1.1-2.6,1.7-4.5,1.7c-1.8,0-3.3-0.6-4.4-1.7c-1.1-1.1-1.6-2.7-1.6-4.6
		c0-2,0.5-3.5,1.6-4.6c1.1-1.1,2.6-1.6,4.5-1.6c1.2,0,2.3,0.3,3.2,0.8c0.9,0.5,1.6,1.2,2.1,2.2C83,250.4,83.2,251.5,83.2,252.7z
		 M75.3,252.7c0,1,0.1,1.8,0.4,2.4s0.7,0.8,1.4,0.8c0.7,0,1.1-0.3,1.4-0.8s0.4-1.3,0.4-2.4c0-1-0.1-1.8-0.4-2.4
		c-0.3-0.5-0.7-0.8-1.4-0.8c-0.6,0-1.1,0.3-1.4,0.8S75.3,251.7,75.3,252.7z"/>
	<path class="st0" d="M92.6,258.8v-6.6c0-0.8-0.1-1.4-0.3-1.8c-0.2-0.4-0.6-0.6-1.1-0.6c-0.7,0-1.2,0.3-1.5,0.8
		c-0.3,0.6-0.5,1.5-0.5,2.9v5.3h-4.2v-12.2h3.2l0.5,1.5h0.2c0.4-0.6,0.9-1,1.5-1.3c0.6-0.3,1.4-0.4,2.2-0.4c1.3,0,2.4,0.4,3.1,1.2
		c0.7,0.8,1.1,1.9,1.1,3.3v7.9H92.6z"/>
	<path class="st0" d="M107,258.8l-0.8-1.6h-0.1c-0.6,0.7-1.1,1.2-1.7,1.4s-1.3,0.4-2.3,0.4c-1.1,0-2-0.3-2.7-1s-1-1.7-1-2.9
		c0-1.3,0.5-2.3,1.4-2.9s2.2-1,3.9-1.1l2-0.1v-0.2c0-1-0.5-1.5-1.5-1.5c-0.9,0-2,0.3-3.4,0.9l-1.2-2.8c1.4-0.7,3.2-1.1,5.4-1.1
		c1.6,0,2.8,0.4,3.6,1.2c0.9,0.8,1.3,1.9,1.3,3.2v8H107z M103.9,256.1c0.5,0,0.9-0.2,1.3-0.5c0.4-0.3,0.5-0.7,0.5-1.3v-0.9l-1,0
		c-1.4,0.1-2.1,0.6-2.1,1.5C102.7,255.7,103.1,256.1,103.9,256.1z"/>
	<path class="st0" d="M116.3,258.8h-4.2v-16.7h4.2V258.8z"/>
</g>
<g>
	<path class="st0" d="M31.4,273.6h6.8v8.5c-1.8,0.6-3.9,0.9-6.1,0.9c-2.4,0-4.3-0.7-5.6-2.1c-1.3-1.4-2-3.4-2-6
		c0-2.5,0.7-4.5,2.2-5.9c1.4-1.4,3.5-2.1,6.1-2.1c1,0,1.9,0.1,2.8,0.3c0.9,0.2,1.6,0.4,2.3,0.7l-1.3,3.3c-1.1-0.6-2.4-0.8-3.7-0.8
		c-1.2,0-2.2,0.4-2.9,1.2s-1,2-1,3.5c0,1.5,0.3,2.6,0.9,3.4c0.6,0.8,1.5,1.2,2.6,1.2c0.6,0,1.2-0.1,1.7-0.2v-2.5h-2.8V273.6z"/>
	<path class="st0" d="M49.1,282.8l-0.5-1.5h-0.2c-0.4,0.6-0.8,1-1.5,1.3c-0.6,0.3-1.4,0.4-2.2,0.4c-1.3,0-2.4-0.4-3.1-1.2
		c-0.7-0.8-1.1-1.9-1.1-3.3v-7.9h4.2v6.6c0,0.8,0.1,1.4,0.3,1.8s0.6,0.6,1.1,0.6c0.7,0,1.2-0.3,1.5-0.9c0.3-0.6,0.5-1.5,0.5-2.9
		v-5.3h4.2v12.2H49.1z"/>
	<path class="st0" d="M62.5,282.8l-0.8-1.6h-0.1c-0.6,0.7-1.1,1.2-1.7,1.4c-0.6,0.3-1.3,0.4-2.3,0.4c-1.1,0-2-0.3-2.7-1
		c-0.7-0.7-1-1.7-1-2.9c0-1.3,0.5-2.3,1.4-2.9s2.2-1,3.9-1.1l2-0.1v-0.2c0-1-0.5-1.5-1.5-1.5c-0.9,0-2,0.3-3.4,0.9l-1.2-2.8
		c1.4-0.7,3.2-1.1,5.4-1.1c1.6,0,2.8,0.4,3.6,1.2c0.9,0.8,1.3,1.9,1.3,3.2v8H62.5z M59.4,280.1c0.5,0,0.9-0.2,1.3-0.5
		c0.4-0.3,0.5-0.7,0.5-1.3v-0.9l-1,0c-1.4,0.1-2.1,0.6-2.1,1.5C58.2,279.7,58.6,280.1,59.4,280.1z"/>
	<path class="st0" d="M75,270.5c0.4,0,0.7,0,1,0.1l0.2,0l-0.4,4c-0.3-0.1-0.8-0.1-1.4-0.1c-0.9,0-1.6,0.2-2,0.6
		c-0.4,0.4-0.6,1-0.6,1.8v6h-4.2v-12.2h3.1l0.7,1.9h0.2c0.4-0.6,0.8-1.2,1.5-1.6C73.7,270.7,74.3,270.5,75,270.5z"/>
	<path class="st0" d="M81.1,283.1c-0.9,0-1.6-0.2-2.3-0.7c-0.6-0.5-1.1-1.2-1.5-2.2c-0.4-1-0.5-2.1-0.5-3.4c0-2,0.4-3.5,1.2-4.6
		s1.9-1.7,3.3-1.7c0.7,0,1.3,0.1,1.8,0.4c0.5,0.3,1,0.7,1.4,1.4h0.1c-0.1-1-0.2-1.9-0.2-2.9v-3.3h4.2v16.7h-3.2l-0.9-1.5h-0.2
		C83.6,282.5,82.5,283.1,81.1,283.1z M82.8,279.7c0.7,0,1.1-0.2,1.4-0.6c0.3-0.4,0.4-1.1,0.4-2v-0.3c0-1.1-0.2-1.8-0.5-2.3
		c-0.3-0.5-0.8-0.7-1.5-0.7c-0.6,0-1,0.3-1.3,0.8c-0.3,0.5-0.5,1.3-0.5,2.2c0,0.9,0.2,1.7,0.5,2.2S82.2,279.7,82.8,279.7z"/>
	<path class="st0" d="M90.2,281.1c0-0.7,0.2-1.2,0.6-1.5c0.4-0.4,1-0.5,1.7-0.5c0.7,0,1.3,0.2,1.6,0.5c0.4,0.4,0.6,0.9,0.6,1.5
		c0,0.6-0.2,1.1-0.6,1.5c-0.4,0.4-0.9,0.5-1.6,0.5c-0.7,0-1.3-0.2-1.7-0.5S90.2,281.7,90.2,281.1z"/>
</g>
<g>
	<path class="st0" d="M34.4,316.8h-9.3v-15.7h9.3v3.4h-5.1v2.5H34v3.4h-4.7v3h5.1V316.8z"/>
	<path class="st0" d="M45.7,313.1c0,1.3-0.4,2.3-1.3,3c-0.9,0.7-2.2,1-3.8,1c-0.9,0-1.7,0-2.4-0.1c-0.7-0.1-1.3-0.3-2-0.5V313
		c0.7,0.3,1.4,0.5,2.1,0.7c0.8,0.2,1.5,0.3,2.1,0.3c0.9,0,1.4-0.2,1.4-0.6c0-0.2-0.1-0.4-0.4-0.6c-0.3-0.2-1-0.5-2.2-1
		c-1.1-0.5-1.9-1-2.3-1.6c-0.4-0.6-0.7-1.3-0.7-2.2c0-1.1,0.4-2,1.3-2.6c0.9-0.6,2.1-0.9,3.7-0.9c0.8,0,1.6,0.1,2.3,0.3
		c0.7,0.2,1.4,0.4,2.2,0.8l-1.1,2.7c-0.6-0.3-1.1-0.5-1.8-0.6c-0.6-0.2-1.1-0.3-1.5-0.3c-0.7,0-1,0.2-1,0.5c0,0.2,0.1,0.4,0.4,0.5
		c0.2,0.1,0.9,0.4,2.1,0.9c0.9,0.4,1.5,0.7,1.9,1s0.7,0.7,0.9,1.2C45.6,311.9,45.7,312.4,45.7,313.1z"/>
	<path class="st0" d="M53.3,313.7c0.6,0,1.2-0.1,2-0.4v3.1c-0.6,0.2-1.1,0.4-1.6,0.5c-0.5,0.1-1.1,0.2-1.8,0.2c-1.4,0-2.4-0.3-3.1-1
		c-0.6-0.7-0.9-1.8-0.9-3.2v-5h-1.5v-1.7l1.9-1.3l1.1-2.6h2.8v2.4h3v3.1h-3v4.7C52.2,313.3,52.6,313.7,53.3,313.7z"/>
	<path class="st0" d="M64.8,316.8l-0.8-1.6h-0.1c-0.6,0.7-1.1,1.2-1.7,1.4c-0.6,0.3-1.3,0.4-2.3,0.4c-1.1,0-2-0.3-2.7-1
		c-0.7-0.7-1-1.7-1-2.9c0-1.3,0.5-2.3,1.4-2.9c0.9-0.6,2.2-1,3.9-1.1l2-0.1v-0.2c0-1-0.5-1.5-1.5-1.5c-0.9,0-2,0.3-3.4,0.9l-1.2-2.8
		c1.4-0.7,3.2-1.1,5.4-1.1c1.6,0,2.8,0.4,3.6,1.2c0.9,0.8,1.3,1.9,1.3,3.2v8H64.8z M61.7,314.1c0.5,0,0.9-0.2,1.3-0.5
		c0.4-0.3,0.5-0.7,0.5-1.3v-0.9l-1,0c-1.4,0-2.1,0.6-2.1,1.5C60.5,313.7,60.9,314.1,61.7,314.1z"/>
	<path class="st0" d="M77.3,304.4c1.3,0,2.4,0.6,3.2,1.7s1.2,2.6,1.2,4.6c0,2-0.4,3.5-1.2,4.6c-0.8,1.1-1.9,1.7-3.3,1.7
		c-0.5,0-0.9,0-1.2-0.1c-0.4-0.1-0.7-0.2-0.9-0.4c-0.3-0.2-0.6-0.5-1-0.9h-0.3l-0.7,1.2h-3.3v-16.7h4.2v3.8c0,0.5-0.1,1.2-0.2,2.3
		h0.2c0.4-0.6,0.9-1.1,1.4-1.4C76,304.6,76.6,304.4,77.3,304.4z M75.8,307.7c-0.6,0-1,0.2-1.3,0.6c-0.3,0.4-0.4,1-0.4,1.9v0.6
		c0,1,0.1,1.7,0.4,2.1c0.3,0.4,0.7,0.6,1.3,0.6c0.5,0,0.9-0.3,1.1-0.8c0.3-0.5,0.4-1.2,0.4-2.2C77.4,308.7,76.8,307.7,75.8,307.7z"
		/>
	<path class="st0" d="M87.6,316.8h-4.2v-16.7h4.2V316.8z"/>
	<path class="st0" d="M89.7,301.6c0-0.6,0.2-1.1,0.5-1.4s0.9-0.5,1.7-0.5s1.3,0.2,1.7,0.5c0.4,0.3,0.5,0.8,0.5,1.4
		c0,1.2-0.7,1.8-2.2,1.8C90.5,303.5,89.7,302.9,89.7,301.6z M94,316.8h-4.2v-12.2H94V316.8z"/>
	<path class="st0" d="M105.7,313.1c0,1.3-0.4,2.3-1.3,3s-2.2,1-3.8,1c-0.9,0-1.7,0-2.4-0.1c-0.7-0.1-1.3-0.3-2-0.5V313
		c0.7,0.3,1.4,0.5,2.1,0.7c0.8,0.2,1.5,0.3,2.1,0.3c0.9,0,1.4-0.2,1.4-0.6c0-0.2-0.1-0.4-0.4-0.6c-0.3-0.2-1-0.5-2.2-1
		c-1.1-0.5-1.9-1-2.3-1.6c-0.4-0.6-0.7-1.3-0.7-2.2c0-1.1,0.4-2,1.3-2.6s2.1-0.9,3.7-0.9c0.8,0,1.6,0.1,2.3,0.3
		c0.7,0.2,1.4,0.4,2.2,0.8l-1.1,2.7c-0.6-0.3-1.1-0.5-1.8-0.6c-0.6-0.2-1.1-0.3-1.5-0.3c-0.7,0-1,0.2-1,0.5c0,0.2,0.1,0.4,0.4,0.5
		c0.2,0.1,0.9,0.4,2.1,0.9c0.9,0.4,1.5,0.7,1.9,1c0.4,0.3,0.7,0.7,0.9,1.2C105.6,311.9,105.7,312.4,105.7,313.1z"/>
	<path class="st0" d="M115,316.8v-6.6c0-1.6-0.5-2.4-1.5-2.4c-0.7,0-1.2,0.3-1.5,0.9c-0.3,0.6-0.5,1.5-0.5,2.9v5.3h-4.2v-16.7h4.2
		v2.4c0,1.1-0.1,2.3-0.2,3.7h0.2c0.4-0.6,0.9-1.1,1.4-1.3s1.2-0.4,1.9-0.4c1.4,0,2.4,0.4,3.2,1.2c0.8,0.8,1.1,1.9,1.1,3.3v7.9H115z"
		/>
	<path class="st0" d="M127.4,317c-2,0-3.6-0.5-4.7-1.6c-1.1-1.1-1.7-2.6-1.7-4.6c0-2.1,0.5-3.6,1.6-4.7c1-1.1,2.5-1.6,4.4-1.6
		c1.8,0,3.2,0.5,4.2,1.4c1,1,1.5,2.3,1.5,4.1v1.9h-7.5c0,0.7,0.3,1.2,0.7,1.6c0.5,0.4,1.1,0.6,1.9,0.6c0.7,0,1.4-0.1,2-0.2
		c0.6-0.1,1.3-0.4,2-0.7v3c-0.7,0.3-1.3,0.6-2,0.7S128.3,317,127.4,317z M127.1,307.3c-0.5,0-0.9,0.2-1.2,0.5
		c-0.3,0.3-0.5,0.8-0.6,1.5h3.6c0-0.6-0.2-1.1-0.5-1.4C128.1,307.5,127.7,307.3,127.1,307.3z"/>
	<path class="st0" d="M138.2,317c-0.9,0-1.6-0.2-2.3-0.7c-0.6-0.5-1.1-1.2-1.5-2.2c-0.4-1-0.5-2.1-0.5-3.4c0-2,0.4-3.5,1.2-4.6
		s1.9-1.7,3.3-1.7c0.7,0,1.3,0.1,1.8,0.4c0.5,0.3,1,0.7,1.4,1.4h0.1c-0.1-1-0.2-1.9-0.2-2.9v-3.3h4.2v16.7h-3.2l-0.9-1.5h-0.2
		C140.7,316.5,139.6,317,138.2,317z M139.9,313.7c0.7,0,1.1-0.2,1.4-0.6c0.3-0.4,0.4-1.1,0.4-2v-0.3c0-1.1-0.2-1.8-0.5-2.3
		c-0.3-0.5-0.8-0.7-1.5-0.7c-0.6,0-1,0.3-1.3,0.8c-0.3,0.5-0.5,1.3-0.5,2.2c0,0.9,0.2,1.7,0.5,2.2S139.4,313.7,139.9,313.7z"/>
</g>
<g>
	<path class="st0" d="M33.5,340.8h-4.3v-8.3c0-1,0-1.9,0.1-2.8c-0.3,0.3-0.6,0.7-1,1l-1.8,1.5l-2.2-2.7l5.4-4.4h3.8V340.8z"/>
	<path class="st0" d="M36.4,334.2c0-2.2,0.3-4,0.9-5.3c0.6-1.4,1.6-2.4,2.8-3c1.2-0.6,2.7-1,4.5-1c0.6,0,1.4,0.1,2.2,0.2v3.3
		c-0.7-0.1-1.5-0.2-2.3-0.2c-1.4,0-2.5,0.3-3.2,0.9c-0.7,0.6-1.1,1.6-1.1,3.1h0.1c0.6-1.2,1.7-1.8,3.1-1.8c1.4,0,2.5,0.4,3.2,1.3
		c0.8,0.9,1.2,2.1,1.2,3.8c0,1.7-0.5,3.1-1.5,4.1c-1,1-2.3,1.5-4.1,1.5c-1.9,0-3.3-0.6-4.4-1.8C36.9,338,36.4,336.4,36.4,334.2z
		 M42.2,337.7c0.5,0,0.8-0.2,1.1-0.5c0.3-0.3,0.4-0.9,0.4-1.6c0-1.3-0.5-1.9-1.5-1.9c-0.5,0-0.9,0.2-1.2,0.5
		c-0.3,0.3-0.5,0.7-0.5,1.2c0,0.7,0.1,1.3,0.4,1.7C41.4,337.5,41.7,337.7,42.2,337.7z"/>
	<path class="st0" d="M59.4,328.5c0,1-0.3,1.8-0.9,2.5c-0.6,0.7-1.5,1.2-2.6,1.5v0.1c2.6,0.3,3.9,1.6,3.9,3.7c0,1.5-0.6,2.6-1.7,3.4
		c-1.2,0.8-2.8,1.3-4.8,1.3c-0.8,0-1.6-0.1-2.3-0.2s-1.5-0.3-2.3-0.7v-3.5c0.7,0.4,1.4,0.6,2.1,0.8c0.7,0.2,1.4,0.3,2,0.3
		c0.9,0,1.6-0.1,2-0.4c0.4-0.3,0.6-0.7,0.6-1.2c0-0.4-0.1-0.8-0.3-1c-0.2-0.2-0.6-0.4-1.1-0.5c-0.5-0.1-1.1-0.2-1.9-0.2h-1v-3.2h1
		c2.2,0,3.2-0.6,3.2-1.7c0-0.4-0.2-0.7-0.5-0.9c-0.3-0.2-0.7-0.3-1.3-0.3c-1,0-2,0.3-3.1,1l-1.8-2.8c0.8-0.6,1.7-1,2.6-1.2
		s1.9-0.4,3-0.4c1.6,0,2.9,0.3,3.8,1S59.4,327.4,59.4,328.5z"/>
	<path class="st0" d="M60.9,334.2c0-2.2,0.3-4,0.9-5.3c0.6-1.4,1.6-2.4,2.8-3c1.2-0.6,2.7-1,4.5-1c0.6,0,1.4,0.1,2.2,0.2v3.3
		c-0.7-0.1-1.5-0.2-2.3-0.2c-1.4,0-2.5,0.3-3.2,0.9c-0.7,0.6-1.1,1.6-1.1,3.1h0.1c0.6-1.2,1.7-1.8,3.1-1.8c1.4,0,2.5,0.4,3.2,1.3
		c0.8,0.9,1.2,2.1,1.2,3.8c0,1.7-0.5,3.1-1.5,4.1c-1,1-2.3,1.5-4.1,1.5c-1.9,0-3.3-0.6-4.4-1.8C61.4,338,60.9,336.4,60.9,334.2z
		 M66.7,337.7c0.5,0,0.8-0.2,1.1-0.5c0.3-0.3,0.4-0.9,0.4-1.6c0-1.3-0.5-1.9-1.5-1.9c-0.5,0-0.9,0.2-1.2,0.5
		c-0.3,0.3-0.5,0.7-0.5,1.2c0,0.7,0.1,1.3,0.4,1.7C65.9,337.5,66.3,337.7,66.7,337.7z"/>
	<path class="st0" d="M73.3,339c0-0.7,0.2-1.2,0.6-1.5c0.4-0.4,1-0.5,1.7-0.5c0.7,0,1.3,0.2,1.6,0.5c0.4,0.4,0.6,0.9,0.6,1.5
		c0,0.6-0.2,1.1-0.6,1.5c-0.4,0.4-0.9,0.5-1.6,0.5c-0.7,0-1.3-0.2-1.7-0.5S73.3,339.7,73.3,339z"/>
</g>
</svg>
