<?xml version="1.0" encoding="utf-8"?>
<!-- Generator: Adobe Illustrator 22.1.0, SVG Export Plug-In . SVG Version: 6.00 Build 0)  -->
<svg version="1.1" id="Layer_1" xmlns="http://www.w3.org/2000/svg" xmlns:xlink="http://www.w3.org/1999/xlink" x="0px" y="0px"
	 viewBox="0 0 160 600" style="enable-background:new 0 0 160 600;" xml:space="preserve">
<style type="text/css">
	.st0{fill:#FFFFFF;}
	.st1{fill:none;}
</style>
<polygon class="st0" points="88,374 113.3,374 119.8,393.1 116.8,393.1 111.3,376.8 87.1,376.8 "/>
<polygon class="st0" points="86.1,379.5 109.3,379.5 113.9,393.1 110.9,393.1 107.3,382.4 85.3,382.3 "/>
<polygon class="st0" points="84.5,385.4 76.9,408.9 79.2,410.7 86.1,388 103.5,388 104.4,385.4 "/>
<polygon class="st0" points="88.3,390.8 102.6,390.8 101.6,393.5 90.3,393.5 83.9,414.1 81.6,412.2 "/>
<polygon class="st0" points="86.7,416.2 107.1,430.3 109.2,428.6 89.7,415 94.8,398.7 92.4,396.9 "/>
<polygon class="st0" points="97.2,400.3 99.6,401.8 96.1,412.6 113.5,425 111.5,426.9 92.9,413.6 "/>
<polygon class="st0" points="116.2,420.3 101.9,410.7 99.9,412 116.1,423.6 136.6,408.8 135.5,406 "/>
<polygon class="st0" points="104.9,408.4 106.7,406.9 116.2,413.6 133.6,400.8 134.8,403.3 116.2,416.9 "/>
<polygon class="st0" points="115.9,407.1 116.8,409.7 132.9,398 124.7,374 122,374 129.8,396.9 "/>
<polygon class="st0" points="116.2,374 118.7,374 126.4,395.9 114.9,404.3 113.9,402.2 123.5,394.7 "/>
<polygon class="st0" points="79.1,341.1 81.4,341.1 83.3,344.1 85.2,341.1 87.5,341.1 87.5,349 85.3,349 85.3,344.4 83.3,347.5 
	83.2,347.5 81.2,344.5 81.2,349 79.1,349 "/>
<rect x="89" y="341.1" class="st0" width="2.2" height="7.9"/>
<polygon class="st0" points="92.6,341.1 94.8,341.1 94.8,347.1 98.7,347.1 98.7,349 92.6,349 "/>
<rect x="96.8" y="343.9" transform="matrix(0.1851 -0.9827 0.9827 0.1851 -256.961 380.1738)" class="st0" width="7.9" height="2.2"/>
<polygon class="st0" points="105.2,343 102.9,343 102.9,341.1 109.8,341.1 109.8,343 107.4,343 107.4,349 105.2,349 "/>
<path class="st0" d="M113.6,343.6l0.9,2.3h-1.8L113.6,343.6z M112.5,341l-3.4,8h2.3l0.6-1.4h3.1l0.6,1.4h2.4l-3.4-8H112.5z"/>
<path class="st0" d="M118.8,341.1h3.8c1.2,0,2.1,0.3,2.6,0.9c0.5,0.5,0.7,1.1,0.7,1.8v0c0,1.2-0.6,2-1.6,2.4l1.9,2.8h-2.5l-1.6-2.4
	h0H121v2.4h-2.2V341.1z M122.4,344.9c0.7,0,1.2-0.4,1.2-0.9v0c0-0.6-0.5-0.9-1.2-0.9H121v1.9H122.4z"/>
<polygon class="st0" points="128.9,346 125.9,341.1 128.4,341.1 130.1,343.9 131.7,341.1 134.2,341.1 131.2,346 131.2,349 
	128.9,349 "/>
<path class="st0" d="M79.1,351.8h4.5c1.1,0,1.9,0.3,2.4,0.8c0.4,0.4,0.6,0.8,0.6,1.4v0c0,1-0.6,1.6-1.4,2c1.1,0.4,1.7,1,1.7,2.1v0
	c0,1.5-1.2,2.4-3.3,2.4h-4.5V351.8z M83,355.3c0.7,0,1.2-0.3,1.2-0.8v0c0-0.5-0.4-0.8-1.1-0.8h-1.6v1.5H83z M83.4,358.6
	c0.7,0,1.2-0.3,1.2-0.8v0c0-0.5-0.4-0.8-1.2-0.8h-1.9v1.6H83.4z"/>
<polygon class="st0" points="88.1,351.8 95.2,351.8 95.2,353.9 90.5,353.9 90.5,355.2 94.7,355.2 94.7,357.1 90.5,357.1 90.5,358.5 
	95.2,358.5 95.2,360.6 88.1,360.6 "/>
<polygon class="st0" points="96.5,351.8 98.8,351.8 102.4,356.5 102.4,351.8 104.8,351.8 104.8,360.6 102.7,360.6 98.9,355.8 
	98.9,360.6 96.5,360.6 "/>
<polygon class="st0" points="106.3,351.8 113.4,351.8 113.4,353.9 108.8,353.9 108.8,355.2 113,355.2 113,357.1 108.8,357.1 
	108.8,358.5 113.5,358.5 113.5,360.6 106.3,360.6 "/>
<polygon class="st0" points="114.7,351.8 121.7,351.8 121.7,353.9 117.1,353.9 117.1,355.4 121.3,355.4 121.3,357.5 117.1,357.5 
	117.1,360.6 114.7,360.6 "/>
<rect x="122.9" y="351.8" class="st0" width="2.4" height="8.8"/>
<polygon class="st0" points="129.1,353.9 126.5,353.9 126.5,351.8 134.2,351.8 134.2,353.9 131.5,353.9 131.5,360.6 129.1,360.6 "/>
<path class="st0" d="M80.7,363.4h1.4l2.3,5.4h-1.6l-0.4-1h-2.1l-0.4,1h-1.6L80.7,363.4z M82,366.7l-0.6-1.5l-0.6,1.5H82z"/>
<path class="st0" d="M84.5,368l0.8-1c0.5,0.4,1.1,0.6,1.7,0.6c0.4,0,0.6-0.1,0.6-0.4v0c0-0.2-0.2-0.3-0.9-0.5c-1.1-0.3-2-0.6-2-1.7
	v0c0-1,0.8-1.7,2.1-1.7c0.9,0,1.6,0.2,2.2,0.7l-0.7,1.1c-0.5-0.3-1-0.5-1.5-0.5c-0.4,0-0.5,0.2-0.5,0.3v0c0,0.2,0.2,0.4,0.9,0.5
	c1.2,0.3,2,0.7,2,1.7v0c0,1.1-0.9,1.8-2.2,1.8C86,368.9,85.1,368.6,84.5,368"/>
<path class="st0" d="M89.4,368l0.8-1c0.5,0.4,1.1,0.6,1.7,0.6c0.4,0,0.6-0.1,0.6-0.4v0c0-0.2-0.2-0.3-0.9-0.5c-1.1-0.3-2-0.6-2-1.7
	v0c0-1,0.8-1.7,2.1-1.7c0.9,0,1.6,0.2,2.2,0.7l-0.7,1.1c-0.5-0.3-1-0.5-1.5-0.5c-0.4,0-0.5,0.2-0.5,0.3v0c0,0.2,0.2,0.4,0.9,0.5
	c1.2,0.3,2,0.7,2,1.7v0c0,1.1-0.9,1.8-2.2,1.8C91,368.9,90.1,368.6,89.4,368"/>
<path class="st0" d="M94.7,366.2L94.7,366.2c0-1.6,1.2-2.8,2.9-2.8s2.9,1.2,2.9,2.8v0c0,1.5-1.2,2.8-2.9,2.8
	C95.9,368.9,94.7,367.7,94.7,366.2 M98.9,366.2L98.9,366.2c0-0.8-0.6-1.5-1.4-1.5c-0.8,0-1.4,0.7-1.4,1.4v0c0,0.8,0.6,1.5,1.4,1.5
	C98.4,367.6,98.9,366.9,98.9,366.2"/>
<path class="st0" d="M101,366.2L101,366.2c0-1.6,1.2-2.8,2.8-2.8c1.1,0,1.8,0.5,2.3,1.1l-1.1,0.9c-0.3-0.4-0.7-0.6-1.2-0.6
	c-0.8,0-1.3,0.6-1.3,1.4v0c0,0.8,0.5,1.4,1.3,1.4c0.6,0,0.9-0.3,1.2-0.7l1.1,0.8c-0.5,0.7-1.2,1.2-2.4,1.2
	C102.3,368.9,101,367.8,101,366.2"/>
<rect x="106.9" y="363.4" class="st0" width="1.5" height="5.4"/>
<path class="st0" d="M111.2,363.4h1.4l2.3,5.4h-1.6l-0.4-1h-2.1l-0.4,1h-1.6L111.2,363.4z M112.5,366.7l-0.6-1.5l-0.6,1.5H112.5z"/>
<polygon class="st0" points="116.1,364.8 114.5,364.8 114.5,363.4 119.2,363.4 119.2,364.8 117.6,364.8 117.6,368.8 116.1,368.8 "/>
<rect x="119.9" y="363.4" class="st0" width="1.5" height="5.4"/>
<path class="st0" d="M122.2,366.2L122.2,366.2c0-1.6,1.2-2.8,2.9-2.8c1.7,0,2.9,1.2,2.9,2.8v0c0,1.5-1.2,2.8-2.9,2.8
	C123.4,368.9,122.2,367.7,122.2,366.2 M126.5,366.2L126.5,366.2c0-0.8-0.6-1.5-1.4-1.5c-0.8,0-1.4,0.7-1.4,1.4v0
	c0,0.8,0.6,1.5,1.4,1.5C125.9,367.6,126.5,366.9,126.5,366.2"/>
<polygon class="st0" points="128.8,363.4 130.2,363.4 132.4,366.3 132.4,363.4 133.9,363.4 133.9,368.8 132.5,368.8 130.2,365.9 
	130.2,368.8 128.8,368.8 "/>
<rect x="76.9" y="341" class="st1" width="59.7" height="89.4"/>
</svg>
