<?xml version="1.0" encoding="utf-8"?>
<!-- Generator: Adobe Illustrator 22.1.0, SVG Export Plug-In . SVG Version: 6.00 Build 0)  -->
<svg version="1.1" id="Layer_1" xmlns="http://www.w3.org/2000/svg" xmlns:xlink="http://www.w3.org/1999/xlink" x="0px" y="0px"
	 viewBox="0 0 160 600" style="enable-background:new 0 0 160 600;" xml:space="preserve">
<style type="text/css">
	.st0{fill:#FFFFFF;}
	.st1{fill:none;}
</style>
<polygon class="st0" points="85.6,350.8 112.7,350.8 119.6,371.2 116.5,371.2 110.5,353.8 84.7,353.8 "/>
<polygon class="st0" points="83.6,356.7 108.4,356.7 113.3,371.2 110.2,371.2 106.3,359.8 82.7,359.7 "/>
<polygon class="st0" points="81.9,363 73.7,388.2 76.2,390 83.6,365.8 102.2,365.8 103.1,363 "/>
<polygon class="st0" points="85.9,368.8 101.2,368.8 100.2,371.6 88.1,371.6 81.2,393.8 78.7,391.7 "/>
<polygon class="st0" points="84.2,395.9 106.1,411.1 108.3,409.2 87.4,394.6 92.9,377.2 90.3,375.3 "/>
<polygon class="st0" points="95.4,379 98,380.6 94.3,392.1 112.9,405.3 110.8,407.4 90.9,393.2 "/>
<polygon class="st0" points="115.8,400.4 100.5,390 98.3,391.5 115.7,403.9 137.6,388 136.5,385.1 "/>
<polygon class="st0" points="103.7,387.6 105.7,386 115.7,393.2 134.4,379.5 135.7,382.1 115.8,396.7 "/>
<polygon class="st0" points="115.4,386.2 116.5,389 133.6,376.5 124.9,350.8 122,350.8 130.4,375.3 "/>
<polygon class="st0" points="115.7,350.8 118.4,350.8 126.7,374.3 114.4,383.3 113.3,380.9 123.5,373 "/>
<polygon class="st0" points="82.6,315.6 80.6,318.8 78.5,315.6 76.1,315.6 76.1,324.1 78.4,324.1 78.4,319.2 80.5,322.5 80.6,322.5 
	82.7,319.2 82.7,324.1 85.1,324.1 85.1,315.6 "/>
<rect x="86.6" y="315.6" class="st0" width="2.4" height="8.5"/>
<polygon class="st0" points="90.6,315.6 90.6,324.1 97,324.1 97,322 92.9,322 92.9,315.6 "/>
<rect x="98.1" y="315.6" class="st0" width="2.4" height="8.5"/>
<polygon class="st0" points="101.5,315.6 101.5,317.6 104.1,317.6 104.1,324.1 106.4,324.1 106.4,317.6 109,317.6 109,315.6 "/>
<path class="st0" d="M113,318.3l0.9,2.4H112L113,318.3z M111.9,315.5l-3.6,8.6h2.5l0.6-1.5h3.3l0.6,1.5h2.5l-3.6-8.6H111.9z"/>
<path class="st0" d="M118.6,315.6h4c1.3,0,2.2,0.3,2.8,0.9c0.5,0.5,0.8,1.1,0.8,2v0c0,1.3-0.7,2.2-1.7,2.6l2,3h-2.7l-1.7-2.6h0h-1
	v2.6h-2.4V315.6z M122.5,319.6c0.8,0,1.3-0.4,1.3-1v0c0-0.7-0.5-1-1.3-1h-1.5v2H122.5z"/>
<polygon class="st0" points="129.4,320.9 126.2,315.6 128.9,315.6 130.6,318.7 132.4,315.6 135,315.6 131.8,320.8 131.8,324.1 
	129.4,324.1 "/>
<path class="st0" d="M76.1,327.1H81c1.2,0,2,0.3,2.6,0.8c0.4,0.4,0.6,0.9,0.6,1.5v0c0,1.1-0.6,1.7-1.4,2.1c1.1,0.4,1.9,1,1.9,2.3v0
	c0,1.6-1.3,2.6-3.6,2.6h-4.8V327.1z M80.3,330.8c0.8,0,1.2-0.3,1.2-0.8v0c0-0.5-0.4-0.8-1.2-0.8h-1.7v1.7H80.3z M80.7,334.4
	c0.8,0,1.2-0.3,1.2-0.9v0c0-0.5-0.4-0.8-1.3-0.8h-2v1.7H80.7z"/>
<polygon class="st0" points="85.7,327.1 93.3,327.1 93.3,329.3 88.3,329.3 88.3,330.7 92.8,330.7 92.8,332.8 88.3,332.8 88.3,334.3 
	93.4,334.3 93.4,336.5 85.7,336.5 "/>
<polygon class="st0" points="94.7,327.1 97.1,327.1 101,332 101,327.1 103.6,327.1 103.6,336.5 101.3,336.5 97.3,331.3 97.3,336.5 
	94.7,336.5 "/>
<polygon class="st0" points="105.2,327.1 112.8,327.1 112.8,329.3 107.8,329.3 107.8,330.7 112.3,330.7 112.3,332.8 107.8,332.8 
	107.8,334.3 112.9,334.3 112.9,336.5 105.2,336.5 "/>
<polygon class="st0" points="114.2,327.1 121.7,327.1 121.7,329.4 116.8,329.4 116.8,330.9 121.2,330.9 121.2,333.1 116.8,333.1 
	116.8,336.5 114.2,336.5 "/>
<rect x="123" y="327.1" class="st0" width="2.6" height="9.4"/>
<polygon class="st0" points="129.6,329.4 126.8,329.4 126.8,327.1 135,327.1 135,329.4 132.2,329.4 132.2,336.5 129.6,336.5 "/>
<path class="st0" d="M77.8,339.5h1.5l2.5,5.8h-1.7l-0.4-1h-2.2l-0.4,1h-1.7L77.8,339.5z M79.2,343l-0.6-1.6l-0.7,1.6H79.2z"/>
<path class="st0" d="M81.8,344.4l0.9-1.1c0.6,0.5,1.2,0.7,1.9,0.7c0.4,0,0.7-0.1,0.7-0.4v0c0-0.2-0.2-0.4-1-0.6
	c-1.2-0.3-2.2-0.6-2.2-1.8v0c0-1.1,0.8-1.8,2.2-1.8c1,0,1.7,0.3,2.4,0.8l-0.8,1.1c-0.5-0.4-1.1-0.6-1.6-0.6c-0.4,0-0.6,0.2-0.6,0.4
	v0c0,0.3,0.2,0.4,1,0.6c1.3,0.3,2.1,0.7,2.1,1.8v0c0,1.2-0.9,1.9-2.3,1.9C83.5,345.4,82.5,345.1,81.8,344.4"/>
<path class="st0" d="M87.1,344.4l0.9-1.1c0.6,0.5,1.2,0.7,1.9,0.7c0.4,0,0.7-0.1,0.7-0.4v0c0-0.2-0.2-0.4-1-0.6
	c-1.2-0.3-2.2-0.6-2.2-1.8v0c0-1.1,0.8-1.8,2.2-1.8c1,0,1.7,0.3,2.4,0.8l-0.8,1.1c-0.5-0.4-1.1-0.6-1.6-0.6c-0.4,0-0.6,0.2-0.6,0.4
	v0c0,0.3,0.2,0.4,1,0.6c1.3,0.3,2.1,0.7,2.1,1.8v0c0,1.2-0.9,1.9-2.3,1.9C88.8,345.4,87.8,345.1,87.1,344.4"/>
<path class="st0" d="M92.7,342.4L92.7,342.4c0-1.7,1.3-3,3.1-3c1.8,0,3.1,1.3,3.1,3v0c0,1.7-1.3,3-3.1,3S92.7,344.1,92.7,342.4
	 M97.3,342.4L97.3,342.4c0-0.8-0.6-1.6-1.5-1.6c-0.9,0-1.5,0.7-1.5,1.5v0c0,0.8,0.6,1.6,1.5,1.6C96.7,344,97.3,343.2,97.3,342.4"/>
<path class="st0" d="M99.6,342.4L99.6,342.4c0-1.7,1.3-3,3-3c1.2,0,1.9,0.5,2.4,1.2l-1.2,0.9c-0.3-0.4-0.7-0.7-1.3-0.7
	c-0.8,0-1.4,0.7-1.4,1.5v0c0,0.9,0.6,1.5,1.4,1.5c0.6,0,1-0.3,1.3-0.7l1.2,0.9c-0.5,0.8-1.3,1.3-2.6,1.3
	C100.9,345.4,99.6,344.1,99.6,342.4"/>
<rect x="105.8" y="339.5" class="st0" width="1.6" height="5.8"/>
<path class="st0" d="M110.5,339.5h1.5l2.5,5.8h-1.7l-0.4-1h-2.2l-0.4,1H108L110.5,339.5z M111.9,343l-0.6-1.6l-0.7,1.6H111.9z"/>
<polygon class="st0" points="115.7,340.9 114,340.9 114,339.5 119,339.5 119,340.9 117.3,340.9 117.3,345.3 115.7,345.3 "/>
<rect x="119.7" y="339.5" class="st0" width="1.6" height="5.8"/>
<path class="st0" d="M122.2,342.4L122.2,342.4c0-1.7,1.3-3,3.1-3c1.8,0,3.1,1.3,3.1,3v0c0,1.7-1.3,3-3.1,3S122.2,344.1,122.2,342.4
	 M126.8,342.4L126.8,342.4c0-0.8-0.6-1.6-1.5-1.6c-0.9,0-1.5,0.7-1.5,1.5v0c0,0.8,0.6,1.6,1.5,1.6
	C126.2,344,126.8,343.2,126.8,342.4"/>
<polygon class="st0" points="129.2,339.5 130.7,339.5 133.1,342.6 133.1,339.5 134.7,339.5 134.7,345.3 133.3,345.3 130.8,342.1 
	130.8,345.3 129.2,345.3 "/>
<rect x="73.7" y="315.5" class="st1" width="63.9" height="95.6"/>
</svg>
