<?xml version="1.0" encoding="utf-8"?>
<!-- Generator: Adobe Illustrator 22.1.0, SVG Export Plug-In . SVG Version: 6.00 Build 0)  -->
<svg version="1.1" id="Layer_1" xmlns="http://www.w3.org/2000/svg" xmlns:xlink="http://www.w3.org/1999/xlink" x="0px" y="0px"
	 viewBox="0 0 300 250" style="enable-background:new 0 0 300 250;" xml:space="preserve">
<style type="text/css">
	.st0{fill:#FFFFFF;}
</style>
<g>
	<path class="st0" d="M35.8,41.5h-5.5L28.7,34c-0.1-0.3-0.2-0.9-0.4-1.9s-0.3-1.7-0.4-2.3c-0.1,0.5-0.2,1.1-0.3,1.9
		s-0.3,1.4-0.4,2.1s-0.7,3.2-1.7,7.7h-5.5l-4.2-17.1h4.5l1.9,8.6c0.4,1.9,0.7,3.4,0.9,4.5c0.1-0.8,0.3-1.9,0.5-3.2s0.5-2.5,0.7-3.4
		l1.5-6.5h4.3l1.5,6.5c0.2,1,0.5,2.2,0.8,3.6s0.4,2.4,0.5,3c0.1-0.9,0.4-2.4,0.8-4.5l1.9-8.6H40L35.8,41.5z"/>
	<path class="st0" d="M47.9,41.7c-2.2,0-3.9-0.6-5.2-1.8s-1.8-2.8-1.8-5c0-2.2,0.6-4,1.7-5.2s2.8-1.8,4.9-1.8c2,0,3.5,0.5,4.6,1.6
		s1.6,2.5,1.6,4.5v2h-8.2c0,0.7,0.3,1.3,0.8,1.7s1.2,0.6,2.1,0.6c0.8,0,1.5-0.1,2.2-0.2s1.4-0.4,2.2-0.8v3.3
		c-0.7,0.4-1.5,0.6-2.2,0.8S49,41.7,47.9,41.7z M47.7,31.1c-0.5,0-1,0.2-1.4,0.5s-0.6,0.9-0.6,1.6h3.9c0-0.6-0.2-1.2-0.5-1.5
		S48.2,31.1,47.7,31.1z"/>
	<path class="st0" d="M67.7,41.7c-2.2,0-3.8-0.6-4.9-1.8s-1.7-2.9-1.7-5.1c0-2.2,0.6-3.9,1.8-5.1s2.9-1.8,5.2-1.8c1.5,0,3,0.3,4.3,1
		l-1.3,3.4c-0.6-0.2-1.1-0.4-1.5-0.6s-1-0.2-1.5-0.2c-0.7,0-1.3,0.3-1.7,0.9s-0.6,1.4-0.6,2.4c0,2.1,0.8,3.2,2.4,3.2
		c1.3,0,2.6-0.4,3.9-1.2v3.6C70.8,41.4,69.3,41.7,67.7,41.7z"/>
	<path class="st0" d="M82.8,41.5l-0.9-1.8h-0.1c-0.6,0.8-1.2,1.3-1.9,1.6s-1.5,0.4-2.5,0.4c-1.2,0-2.2-0.4-3-1.1s-1.1-1.8-1.1-3.2
		c0-1.4,0.5-2.5,1.5-3.2s2.4-1.1,4.3-1.2l2.2-0.1v-0.2c0-1.1-0.5-1.6-1.6-1.6c-1,0-2.2,0.3-3.7,1l-1.3-3c1.5-0.8,3.5-1.2,5.9-1.2
		c1.7,0,3,0.4,4,1.3s1.4,2,1.4,3.5v8.7H82.8z M79.4,38.5c0.6,0,1-0.2,1.4-0.5s0.6-0.8,0.6-1.4v-1l-1.1,0c-1.5,0.1-2.3,0.6-2.3,1.7
		C78.1,38.1,78.5,38.5,79.4,38.5z"/>
	<path class="st0" d="M97,41.5v-7.2c0-0.9-0.1-1.5-0.4-2s-0.7-0.7-1.2-0.7c-0.8,0-1.3,0.3-1.7,0.9s-0.5,1.7-0.5,3.2v5.8h-4.6V28.2
		H92l0.6,1.6h0.3c0.4-0.6,0.9-1.1,1.6-1.4S96,28,96.9,28c1.5,0,2.6,0.4,3.4,1.3s1.2,2.1,1.2,3.6v8.6H97z"/>
	<path class="st0" d="M118.3,41.5v-7.2c0-1.8-0.5-2.7-1.6-2.7c-0.8,0-1.3,0.3-1.7,0.9s-0.5,1.7-0.5,3.1v5.8H110V23.3h4.6v2.6
		c0,1.2-0.1,2.5-0.2,4h0.2c0.4-0.7,1-1.2,1.6-1.5s1.3-0.4,2.1-0.4c1.5,0,2.6,0.4,3.5,1.3s1.2,2.1,1.2,3.6v8.6H118.3z"/>
	<path class="st0" d="M132,41.7c-2.2,0-3.9-0.6-5.2-1.8s-1.8-2.8-1.8-5c0-2.2,0.6-4,1.7-5.2s2.8-1.8,4.9-1.8c2,0,3.5,0.5,4.6,1.6
		s1.6,2.5,1.6,4.5v2h-8.2c0,0.7,0.3,1.3,0.8,1.7s1.2,0.6,2.1,0.6c0.8,0,1.5-0.1,2.2-0.2s1.4-0.4,2.2-0.8v3.3
		c-0.7,0.4-1.5,0.6-2.2,0.8S133.1,41.7,132,41.7z M131.7,31.1c-0.5,0-1,0.2-1.4,0.5s-0.6,0.9-0.6,1.6h3.9c0-0.6-0.2-1.2-0.5-1.5
		S132.3,31.1,131.7,31.1z"/>
	<path class="st0" d="M144.5,41.5H140V23.3h4.6V41.5z"/>
	<path class="st0" d="M155.2,41.7c-0.7,0-1.3-0.1-1.8-0.3s-1.1-0.6-1.6-1.2h-0.2c0.1,0.9,0.2,1.5,0.2,1.7v5.3h-4.6v-19h3.7l0.6,1.7
		h0.2c0.9-1.3,2-1.9,3.5-1.9c1.5,0,2.6,0.6,3.5,1.8s1.3,2.9,1.3,5c0,2.1-0.4,3.8-1.3,5.1S156.7,41.7,155.2,41.7z M153.7,31.6
		c-0.7,0-1.1,0.2-1.4,0.7s-0.4,1.2-0.4,2.1v0.4c0,1.1,0.2,2,0.5,2.5s0.8,0.8,1.4,0.8c0.6,0,1-0.3,1.3-0.8s0.4-1.3,0.4-2.5
		c0-1.1-0.1-2-0.4-2.5S154.3,31.6,153.7,31.6z"/>
	<path class="st0" d="M175.9,41.7c-0.7,0-1.3-0.1-1.8-0.3s-1.1-0.6-1.6-1.2h-0.2c0.1,0.9,0.2,1.5,0.2,1.7v5.3H168v-19h3.7l0.6,1.7
		h0.2c0.9-1.3,2-1.9,3.5-1.9c1.5,0,2.6,0.6,3.5,1.8s1.3,2.9,1.3,5c0,2.1-0.4,3.8-1.3,5.1S177.4,41.7,175.9,41.7z M174.4,31.6
		c-0.7,0-1.1,0.2-1.4,0.7s-0.4,1.2-0.4,2.1v0.4c0,1.1,0.2,2,0.5,2.5s0.8,0.8,1.4,0.8c0.6,0,1-0.3,1.3-0.8s0.4-1.3,0.4-2.5
		c0-1.1-0.1-2-0.4-2.5S175,31.6,174.4,31.6z"/>
	<path class="st0" d="M190.9,28c0.4,0,0.8,0,1.1,0.1l0.3,0l-0.4,4.3c-0.4-0.1-0.9-0.1-1.6-0.1c-1,0-1.7,0.2-2.2,0.7s-0.7,1.1-0.7,2
		v6.5h-4.6V28.2h3.4l0.7,2.1h0.2c0.4-0.7,0.9-1.3,1.6-1.7S190.2,28,190.9,28z"/>
	<path class="st0" d="M206.4,34.8c0,2.2-0.6,3.9-1.8,5.1s-2.8,1.8-4.9,1.8c-2,0-3.6-0.6-4.8-1.9s-1.8-2.9-1.8-5c0-2.2,0.6-3.8,1.8-5
		s2.8-1.8,4.9-1.8c1.3,0,2.5,0.3,3.5,0.8s1.8,1.3,2.3,2.4S206.4,33.5,206.4,34.8z M197.8,34.8c0,1.1,0.2,2,0.5,2.6s0.8,0.9,1.5,0.9
		c0.7,0,1.2-0.3,1.5-0.9s0.4-1.5,0.4-2.6c0-1.1-0.1-2-0.4-2.6s-0.8-0.9-1.5-0.9c-0.7,0-1.2,0.3-1.5,0.9S197.8,33.7,197.8,34.8z"/>
	<path class="st0" d="M215,38.1c0.6,0,1.4-0.2,2.2-0.5V41c-0.6,0.3-1.2,0.5-1.8,0.6s-1.2,0.2-2,0.2c-1.5,0-2.6-0.4-3.3-1.1
		s-1-1.9-1-3.5v-5.5h-1.6v-1.9l2-1.4l1.2-2.8h3v2.7h3.3v3.4h-3.3v5.2C213.8,37.7,214.2,38.1,215,38.1z"/>
	<path class="st0" d="M225.5,41.7c-2.2,0-3.9-0.6-5.2-1.8s-1.8-2.8-1.8-5c0-2.2,0.6-4,1.7-5.2s2.8-1.8,4.9-1.8c2,0,3.5,0.5,4.6,1.6
		s1.6,2.5,1.6,4.5v2h-8.2c0,0.7,0.3,1.3,0.8,1.7s1.2,0.6,2.1,0.6c0.8,0,1.5-0.1,2.2-0.2s1.4-0.4,2.2-0.8v3.3
		c-0.7,0.4-1.5,0.6-2.2,0.8S226.6,41.7,225.5,41.7z M225.2,31.1c-0.5,0-1,0.2-1.4,0.5s-0.6,0.9-0.6,1.6h3.9c0-0.6-0.2-1.2-0.5-1.5
		S225.8,31.1,225.2,31.1z"/>
	<path class="st0" d="M239.5,41.7c-2.2,0-3.8-0.6-4.9-1.8s-1.7-2.9-1.7-5.1c0-2.2,0.6-3.9,1.8-5.1s2.9-1.8,5.2-1.8
		c1.5,0,3,0.3,4.3,1l-1.3,3.4c-0.6-0.2-1.1-0.4-1.5-0.6s-1-0.2-1.5-0.2c-0.7,0-1.3,0.3-1.7,0.9s-0.6,1.4-0.6,2.4
		c0,2.1,0.8,3.2,2.4,3.2c1.3,0,2.6-0.4,3.9-1.2v3.6C242.6,41.4,241.2,41.7,239.5,41.7z"/>
	<path class="st0" d="M252.4,38.1c0.6,0,1.4-0.2,2.2-0.5V41c-0.6,0.3-1.2,0.5-1.8,0.6s-1.2,0.2-2,0.2c-1.5,0-2.6-0.4-3.3-1.1
		s-1-1.9-1-3.5v-5.5h-1.6v-1.9l2-1.4l1.2-2.8h3v2.7h3.3v3.4h-3.3v5.2C251.2,37.7,251.6,38.1,252.4,38.1z"/>
</g>
<g>
	<path class="st0" d="M15.4,55.2h4.8l2.2,7.6c0.1,0.4,0.2,0.9,0.2,1.4h0.1c0.1-0.5,0.2-1,0.3-1.4l2.3-7.6h4.7l-5.2,14.1
		c-0.7,1.8-1.5,3.1-2.5,3.8s-2.3,1.1-3.8,1.1c-0.6,0-1.2-0.1-1.9-0.2v-3.6c0.4,0.1,0.9,0.1,1.4,0.1c0.4,0,0.8-0.1,1.1-0.2
		s0.6-0.4,0.8-0.7s0.5-0.8,0.7-1.4L15.4,55.2z"/>
	<path class="st0" d="M43.9,61.8c0,2.2-0.6,3.9-1.8,5.1s-2.8,1.8-4.9,1.8c-2,0-3.6-0.6-4.8-1.9s-1.8-2.9-1.8-5c0-2.2,0.6-3.8,1.8-5
		s2.8-1.8,4.9-1.8c1.3,0,2.5,0.3,3.5,0.8s1.8,1.3,2.3,2.4S43.9,60.5,43.9,61.8z M35.3,61.8c0,1.1,0.2,2,0.5,2.6s0.8,0.9,1.5,0.9
		c0.7,0,1.2-0.3,1.5-0.9s0.4-1.5,0.4-2.6c0-1.1-0.1-2-0.4-2.6s-0.8-0.9-1.5-0.9c-0.7,0-1.2,0.3-1.5,0.9S35.3,60.7,35.3,61.8z"/>
	<path class="st0" d="M55.5,68.5l-0.6-1.7h-0.3c-0.4,0.6-0.9,1.1-1.6,1.4s-1.5,0.5-2.4,0.5c-1.5,0-2.6-0.4-3.4-1.3s-1.2-2-1.2-3.6
		v-8.6h4.6v7.3c0,0.9,0.1,1.5,0.4,2s0.7,0.7,1.2,0.7c0.8,0,1.4-0.3,1.7-0.9s0.5-1.7,0.5-3.1v-5.8H59v13.3H55.5z"/>
	<path class="st0" d="M69.7,55c0.4,0,0.8,0,1.1,0.1l0.3,0l-0.4,4.3c-0.4-0.1-0.9-0.1-1.6-0.1c-1,0-1.7,0.2-2.2,0.7s-0.7,1.1-0.7,2
		v6.5h-4.6V55.2h3.4l0.7,2.1H66c0.4-0.7,0.9-1.3,1.6-1.7S69,55,69.7,55z"/>
	<path class="st0" d="M86.3,58.7h-2.8v9.8h-4.6v-9.8h-1.8v-2.2l1.9-1.1v-0.2c0-1.8,0.4-3,1.1-3.8s1.9-1.1,3.4-1.1
		c0.6,0,1.2,0,1.7,0.1s1.2,0.3,1.9,0.5l-1,3c-0.6-0.2-1.1-0.2-1.7-0.2c-0.4,0-0.6,0.1-0.8,0.3s-0.2,0.6-0.2,1v0.4h2.8V58.7z"/>
	<path class="st0" d="M96.3,68.5l-0.9-1.8h-0.1c-0.6,0.8-1.2,1.3-1.9,1.6S92,68.7,91,68.7c-1.2,0-2.2-0.4-3-1.1s-1.1-1.8-1.1-3.2
		c0-1.4,0.5-2.5,1.5-3.2s2.4-1.1,4.3-1.2l2.2-0.1v-0.2c0-1.1-0.5-1.6-1.6-1.6c-1,0-2.2,0.3-3.7,1l-1.3-3c1.5-0.8,3.5-1.2,5.9-1.2
		c1.7,0,3,0.4,4,1.3s1.4,2,1.4,3.5v8.7H96.3z M92.9,65.5c0.6,0,1-0.2,1.4-0.5s0.6-0.8,0.6-1.4v-1l-1.1,0c-1.5,0.1-2.3,0.6-2.3,1.7
		C91.6,65.1,92.1,65.5,92.9,65.5z"/>
	<path class="st0" d="M118.4,68.5v-7.2c0-0.9-0.1-1.6-0.4-2s-0.6-0.7-1.2-0.7c-0.7,0-1.2,0.3-1.5,0.9s-0.5,1.5-0.5,2.8v6.2h-4.6
		v-7.2c0-0.9-0.1-1.6-0.4-2s-0.6-0.7-1.1-0.7c-0.7,0-1.2,0.3-1.6,1s-0.5,1.7-0.5,3.1v5.8h-4.6V55.2h3.5l0.6,1.6h0.3
		c0.4-0.6,0.9-1.1,1.5-1.4s1.4-0.5,2.3-0.5c1.9,0,3.3,0.6,4,1.7h0.4c0.4-0.5,0.9-1,1.6-1.3s1.4-0.5,2.2-0.5c1.6,0,2.7,0.4,3.5,1.2
		s1.1,2,1.1,3.7v8.6H118.4z"/>
	<path class="st0" d="M125.6,51.9c0-0.7,0.2-1.2,0.6-1.5s1-0.5,1.9-0.5s1.5,0.2,1.9,0.5s0.6,0.9,0.6,1.5c0,1.3-0.8,2-2.4,2
		C126.4,53.9,125.6,53.3,125.6,51.9z M130.3,68.5h-4.6V55.2h4.6V68.5z"/>
	<path class="st0" d="M137.6,68.5H133V50.3h4.6V68.5z"/>
	<path class="st0" d="M138.7,55.2h4.8l2.2,7.6c0.1,0.4,0.2,0.9,0.2,1.4h0.1c0.1-0.5,0.2-1,0.3-1.4l2.3-7.6h4.7l-5.2,14.1
		c-0.7,1.8-1.5,3.1-2.5,3.8s-2.3,1.1-3.8,1.1c-0.6,0-1.2-0.1-1.9-0.2v-3.6c0.4,0.1,0.9,0.1,1.4,0.1c0.4,0,0.8-0.1,1.1-0.2
		s0.6-0.4,0.8-0.7s0.5-0.8,0.7-1.4L138.7,55.2z"/>
	<path class="st0" d="M153.9,66.6c0-0.7,0.2-1.3,0.6-1.7s1-0.6,1.9-0.6c0.8,0,1.4,0.2,1.8,0.6s0.6,0.9,0.6,1.7
		c0,0.7-0.2,1.3-0.6,1.6s-1,0.6-1.8,0.6c-0.8,0-1.4-0.2-1.8-0.6S153.9,67.3,153.9,66.6z"/>
</g>
</svg>
