<?xml version="1.0" encoding="utf-8"?>
<!-- Generator: Adobe Illustrator 22.1.0, SVG Export Plug-In . SVG Version: 6.00 Build 0)  -->
<svg version="1.1" id="Layer_1" xmlns="http://www.w3.org/2000/svg" xmlns:xlink="http://www.w3.org/1999/xlink" x="0px" y="0px"
	 viewBox="0 0 300 250" style="enable-background:new 0 0 300 250;" xml:space="preserve">
<style type="text/css">
	.st0{fill:#FFFFFF;}
</style>
<g>
	<path class="st0" d="M31,41.2h-4.7v-7H21v7h-4.7V24.1H21v6.4h5.4v-6.4H31V41.2z"/>
	<path class="st0" d="M46.6,34.6c0,2.2-0.6,3.9-1.8,5.1s-2.8,1.8-4.9,1.8c-2,0-3.6-0.6-4.8-1.9s-1.8-2.9-1.8-5c0-2.2,0.6-3.8,1.8-5
		s2.8-1.8,4.9-1.8c1.3,0,2.5,0.3,3.5,0.8s1.8,1.3,2.3,2.4S46.6,33.2,46.6,34.6z M38,34.6c0,1.1,0.2,2,0.5,2.6s0.8,0.9,1.5,0.9
		c0.7,0,1.2-0.3,1.5-0.9s0.4-1.5,0.4-2.6c0-1.1-0.1-2-0.4-2.6s-0.8-0.9-1.5-0.9c-0.7,0-1.2,0.3-1.5,0.9S38,33.4,38,34.6z"/>
	<path class="st0" d="M57.2,41.2V34c0-0.9-0.1-1.5-0.4-2s-0.7-0.7-1.2-0.7c-0.8,0-1.3,0.3-1.7,0.9s-0.5,1.7-0.5,3.2v5.8h-4.6V28h3.5
		l0.6,1.6h0.3c0.4-0.6,0.9-1.1,1.6-1.4s1.5-0.5,2.4-0.5c1.5,0,2.6,0.4,3.4,1.3s1.2,2.1,1.2,3.6v8.6H57.2z"/>
	<path class="st0" d="M77.1,34.6c0,2.2-0.6,3.9-1.8,5.1s-2.8,1.8-4.9,1.8c-2,0-3.6-0.6-4.8-1.9s-1.8-2.9-1.8-5c0-2.2,0.6-3.8,1.8-5
		s2.8-1.8,4.9-1.8c1.3,0,2.5,0.3,3.5,0.8s1.8,1.3,2.3,2.4S77.1,33.2,77.1,34.6z M68.5,34.6c0,1.1,0.2,2,0.5,2.6s0.8,0.9,1.5,0.9
		c0.7,0,1.2-0.3,1.5-0.9s0.4-1.5,0.4-2.6c0-1.1-0.1-2-0.4-2.6s-0.8-0.9-1.5-0.9c-0.7,0-1.2,0.3-1.5,0.9S68.5,33.4,68.5,34.6z"/>
	<path class="st0" d="M87.2,27.7c0.4,0,0.8,0,1.1,0.1l0.3,0l-0.4,4.3c-0.4-0.1-0.9-0.1-1.6-0.1c-1,0-1.7,0.2-2.2,0.7s-0.7,1.1-0.7,2
		v6.5h-4.6V28h3.4l0.7,2.1h0.2c0.4-0.7,0.9-1.3,1.6-1.7S86.5,27.7,87.2,27.7z"/>
	<path class="st0" d="M89.9,24.7c0-0.7,0.2-1.2,0.6-1.5s1-0.5,1.9-0.5s1.5,0.2,1.9,0.5s0.6,0.9,0.6,1.5c0,1.3-0.8,2-2.4,2
		C90.7,26.7,89.9,26,89.9,24.7z M94.6,41.2H90V28h4.6V41.2z"/>
	<path class="st0" d="M105.7,41.2V34c0-0.9-0.1-1.5-0.4-2s-0.7-0.7-1.2-0.7c-0.8,0-1.3,0.3-1.7,0.9s-0.5,1.7-0.5,3.2v5.8h-4.6V28
		h3.5l0.6,1.6h0.3c0.4-0.6,0.9-1.1,1.6-1.4s1.5-0.5,2.4-0.5c1.5,0,2.6,0.4,3.4,1.3s1.2,2.1,1.2,3.6v8.6H105.7z"/>
	<path class="st0" d="M125.5,28v2.2l-1.8,0.7c0.2,0.5,0.4,1,0.4,1.6c0,1.4-0.5,2.5-1.5,3.3s-2.5,1.2-4.5,1.2c-0.5,0-0.9,0-1.2-0.1
		c-0.1,0.2-0.2,0.4-0.2,0.6c0,0.2,0.2,0.4,0.6,0.5s0.8,0.2,1.4,0.2h2.2c3,0,4.5,1.3,4.5,3.8c0,1.6-0.7,2.9-2.1,3.8S120,47,117.5,47
		c-1.9,0-3.3-0.3-4.4-0.9s-1.5-1.5-1.5-2.7c0-1.6,1-2.6,3-3.1c-0.4-0.2-0.8-0.4-1.1-0.8s-0.5-0.8-0.5-1.1c0-0.4,0.1-0.8,0.3-1.1
		s0.7-0.7,1.4-1.1c-0.7-0.3-1.2-0.8-1.6-1.4s-0.6-1.4-0.6-2.4c0-1.4,0.5-2.6,1.5-3.4s2.4-1.2,4.2-1.2c0.2,0,0.7,0,1.3,0.1
		s1,0.1,1.3,0.2H125.5z M115.5,42.9c0,0.4,0.2,0.7,0.6,0.9s0.9,0.3,1.6,0.3c1.1,0,2-0.1,2.7-0.4s1-0.6,1-1.1c0-0.4-0.2-0.6-0.6-0.7
		s-1-0.2-1.7-0.2h-1.8c-0.5,0-0.9,0.1-1.2,0.3S115.5,42.6,115.5,42.9z M116.9,32.3c0,1.4,0.5,2,1.4,2c0.4,0,0.8-0.2,1-0.5
		s0.4-0.8,0.4-1.5c0-1.4-0.5-2.1-1.4-2.1C117.4,30.3,116.9,30.9,116.9,32.3z"/>
	<path class="st0" d="M139.3,37.9c0.6,0,1.4-0.2,2.2-0.5v3.3c-0.6,0.3-1.2,0.5-1.8,0.6s-1.2,0.2-2,0.2c-1.5,0-2.6-0.4-3.3-1.1
		s-1-1.9-1-3.5v-5.5h-1.6v-1.9l2-1.4l1.2-2.8h3V28h3.3v3.4h-3.3v5.2C138.1,37.4,138.5,37.9,139.3,37.9z"/>
	<path class="st0" d="M151.7,41.2V34c0-1.8-0.5-2.7-1.6-2.7c-0.8,0-1.3,0.3-1.7,0.9s-0.5,1.7-0.5,3.1v5.8h-4.6V23h4.6v2.6
		c0,1.2-0.1,2.5-0.2,4h0.2c0.4-0.7,1-1.2,1.6-1.5s1.3-0.4,2.1-0.4c1.5,0,2.6,0.4,3.5,1.3s1.2,2.1,1.2,3.6v8.6H151.7z"/>
	<path class="st0" d="M165.4,41.5c-2.2,0-3.9-0.6-5.2-1.8s-1.8-2.8-1.8-5c0-2.2,0.6-4,1.7-5.2s2.8-1.8,4.9-1.8c2,0,3.5,0.5,4.6,1.6
		s1.6,2.5,1.6,4.5v2h-8.2c0,0.7,0.3,1.3,0.8,1.7s1.2,0.6,2.1,0.6c0.8,0,1.5-0.1,2.2-0.2s1.4-0.4,2.2-0.8v3.3
		c-0.7,0.4-1.5,0.6-2.2,0.8S166.5,41.5,165.4,41.5z M165.1,30.8c-0.5,0-1,0.2-1.4,0.5s-0.6,0.9-0.6,1.6h3.9c0-0.6-0.2-1.2-0.5-1.5
		S165.7,30.8,165.1,30.8z"/>
	<path class="st0" d="M187.3,27.7c1.4,0,2.6,0.6,3.4,1.8s1.3,2.9,1.3,5c0,2.2-0.4,3.8-1.3,5.1s-2,1.8-3.6,1.8
		c-0.5,0-0.9-0.1-1.3-0.2s-0.7-0.3-1-0.4s-0.7-0.5-1-0.9h-0.3l-0.7,1.3h-3.6V23h4.6v4.1c0,0.5-0.1,1.3-0.2,2.5h0.2
		c0.4-0.7,1-1.2,1.5-1.5S186.5,27.7,187.3,27.7z M185.6,31.3c-0.6,0-1.1,0.2-1.4,0.7s-0.4,1.1-0.4,2.1v0.6c0,1.1,0.1,1.9,0.4,2.3
		s0.8,0.7,1.5,0.7c0.5,0,1-0.3,1.2-0.8s0.4-1.4,0.4-2.4C187.3,32.4,186.7,31.3,185.6,31.3z"/>
	<path class="st0" d="M194,24.7c0-0.7,0.2-1.2,0.6-1.5s1-0.5,1.9-0.5s1.5,0.2,1.9,0.5s0.6,0.9,0.6,1.5c0,1.3-0.8,2-2.4,2
		C194.8,26.7,194,26,194,24.7z M198.7,41.2h-4.6V28h4.6V41.2z"/>
	<path class="st0" d="M209.4,27.7c0.4,0,0.8,0,1.1,0.1l0.3,0l-0.4,4.3c-0.4-0.1-0.9-0.1-1.6-0.1c-1,0-1.7,0.2-2.2,0.7
		s-0.7,1.1-0.7,2v6.5h-4.6V28h3.4l0.7,2.1h0.2c0.4-0.7,0.9-1.3,1.6-1.7S208.7,27.7,209.4,27.7z"/>
	<path class="st0" d="M218.7,37.9c0.6,0,1.4-0.2,2.2-0.5v3.3c-0.6,0.3-1.2,0.5-1.8,0.6s-1.2,0.2-2,0.2c-1.5,0-2.6-0.4-3.3-1.1
		s-1-1.9-1-3.5v-5.5h-1.6v-1.9l2-1.4l1.2-2.8h3V28h3.3v3.4h-3.3v5.2C217.5,37.4,217.9,37.9,218.7,37.9z"/>
	<path class="st0" d="M231.1,41.2V34c0-1.8-0.5-2.7-1.6-2.7c-0.8,0-1.3,0.3-1.7,0.9s-0.5,1.7-0.5,3.1v5.8h-4.6V23h4.6v2.6
		c0,1.2-0.1,2.5-0.2,4h0.2c0.4-0.7,1-1.2,1.6-1.5s1.3-0.4,2.1-0.4c1.5,0,2.6,0.4,3.5,1.3s1.2,2.1,1.2,3.6v8.6H231.1z"/>
	<path class="st0" d="M256.9,34.6c0,2.2-0.6,3.9-1.8,5.1s-2.8,1.8-4.9,1.8c-2,0-3.6-0.6-4.8-1.9s-1.8-2.9-1.8-5c0-2.2,0.6-3.8,1.8-5
		s2.8-1.8,4.9-1.8c1.3,0,2.5,0.3,3.5,0.8s1.8,1.3,2.3,2.4S256.9,33.2,256.9,34.6z M248.3,34.6c0,1.1,0.2,2,0.5,2.6s0.8,0.9,1.5,0.9
		c0.7,0,1.2-0.3,1.5-0.9s0.4-1.5,0.4-2.6c0-1.1-0.1-2-0.4-2.6s-0.8-0.9-1.5-0.9c-0.7,0-1.2,0.3-1.5,0.9S248.3,33.4,248.3,34.6z"/>
	<path class="st0" d="M267.1,31.4h-2.8v9.8h-4.6v-9.8h-1.8v-2.2l1.9-1.1v-0.2c0-1.8,0.4-3,1.1-3.8s1.9-1.1,3.4-1.1
		c0.6,0,1.2,0,1.7,0.1s1.2,0.3,1.9,0.5l-1,3c-0.6-0.2-1.1-0.2-1.7-0.2c-0.4,0-0.6,0.1-0.8,0.3s-0.2,0.6-0.2,1V28h2.8V31.4z"/>
</g>
<g>
	<path class="st0" d="M22.6,63.8c0.6,0,1.4-0.2,2.2-0.5v3.3c-0.6,0.3-1.2,0.5-1.8,0.6s-1.2,0.2-2,0.2c-1.5,0-2.6-0.4-3.3-1.1
		s-1-1.9-1-3.5v-5.5h-1.6v-1.9l2-1.4l1.2-2.8h3V54h3.3v3.4h-3.3v5.2C21.3,63.4,21.7,63.8,22.6,63.8z"/>
	<path class="st0" d="M35,67.2V60c0-1.8-0.5-2.7-1.6-2.7c-0.8,0-1.3,0.3-1.7,0.9s-0.5,1.7-0.5,3.1v5.8h-4.6V49h4.6v2.6
		c0,1.2-0.1,2.5-0.2,4h0.2c0.4-0.7,1-1.2,1.6-1.5s1.3-0.4,2.1-0.4c1.5,0,2.6,0.4,3.5,1.3s1.2,2.1,1.2,3.6v8.6H35z"/>
	<path class="st0" d="M48.7,67.5c-2.2,0-3.9-0.6-5.2-1.8s-1.8-2.8-1.8-5c0-2.2,0.6-4,1.7-5.2s2.8-1.8,4.9-1.8c2,0,3.5,0.5,4.6,1.6
		s1.6,2.5,1.6,4.5v2h-8.2c0,0.7,0.3,1.3,0.8,1.7s1.2,0.6,2.1,0.6c0.8,0,1.5-0.1,2.2-0.2s1.4-0.4,2.2-0.8v3.3
		c-0.7,0.4-1.5,0.6-2.2,0.8S49.7,67.5,48.7,67.5z M48.4,56.8c-0.5,0-1,0.2-1.4,0.5s-0.6,0.9-0.6,1.6h3.9c0-0.6-0.2-1.2-0.5-1.5
		S49,56.8,48.4,56.8z"/>
	<path class="st0" d="M77.2,50.1v10.3c0,2.2-0.6,4-1.9,5.2s-3.1,1.8-5.5,1.8c-2.3,0-4.1-0.6-5.4-1.8s-1.9-2.9-1.9-5.2V50.1h4.7v10.1
		c0,1.2,0.2,2.1,0.7,2.6s1.1,0.8,2,0.8c0.9,0,1.6-0.3,2.1-0.8s0.6-1.4,0.6-2.7v-10H77.2z"/>
	<path class="st0" d="M79.5,65.3c0-0.7,0.2-1.3,0.6-1.7s1-0.6,1.9-0.6c0.8,0,1.4,0.2,1.8,0.6s0.6,0.9,0.6,1.7c0,0.7-0.2,1.3-0.6,1.6
		s-1,0.6-1.8,0.6c-0.8,0-1.4-0.2-1.8-0.6S79.5,66,79.5,65.3z"/>
	<path class="st0" d="M98,62c0,1.1-0.3,2-0.8,2.8s-1.3,1.5-2.3,1.9s-2.2,0.7-3.6,0.7c-1.1,0-2.1-0.1-2.9-0.2s-1.6-0.4-2.4-0.8v-4.1
		c0.9,0.5,1.8,0.8,2.8,1.1s1.8,0.4,2.6,0.4c0.7,0,1.2-0.1,1.5-0.4s0.5-0.5,0.5-0.9c0-0.2-0.1-0.4-0.2-0.6s-0.3-0.4-0.6-0.5
		s-1-0.5-2.3-1.1c-1.1-0.5-2-1-2.5-1.5s-1-1-1.2-1.6s-0.4-1.3-0.4-2.2c0-1.6,0.6-2.8,1.7-3.7s2.7-1.3,4.7-1.3c1.8,0,3.6,0.4,5.4,1.2
		l-1.4,3.6c-1.6-0.7-3-1.1-4.1-1.1c-0.6,0-1,0.1-1.3,0.3s-0.4,0.5-0.4,0.8c0,0.3,0.2,0.6,0.5,0.9s1.3,0.8,2.8,1.5
		c1.5,0.7,2.5,1.4,3.1,2.1S98,60.9,98,62z"/>
	<path class="st0" d="M99.4,65.3c0-0.7,0.2-1.3,0.6-1.7s1-0.6,1.9-0.6c0.8,0,1.4,0.2,1.8,0.6s0.6,0.9,0.6,1.7c0,0.7-0.2,1.3-0.6,1.6
		s-1,0.6-1.8,0.6c-0.8,0-1.4-0.2-1.8-0.6S99.4,66,99.4,65.3z"/>
	<path class="st0" d="M120.1,53.6c-1.1,0-2,0.5-2.6,1.4s-0.9,2.1-0.9,3.7c0,3.3,1.3,4.9,3.8,4.9c0.8,0,1.5-0.1,2.2-0.3
		s1.4-0.5,2.1-0.8v3.9c-1.4,0.6-3,0.9-4.9,0.9c-2.6,0-4.6-0.8-5.9-2.2s-2.1-3.7-2.1-6.5c0-1.8,0.3-3.3,1-4.7s1.6-2.4,2.9-3.1
		s2.7-1.1,4.4-1.1c1.9,0,3.6,0.4,5.3,1.2l-1.4,3.6c-0.6-0.3-1.3-0.5-1.9-0.8S120.8,53.6,120.1,53.6z"/>
	<path class="st0" d="M140,60.6c0,2.2-0.6,3.9-1.8,5.1s-2.8,1.8-4.9,1.8c-2,0-3.6-0.6-4.8-1.9s-1.8-2.9-1.8-5c0-2.2,0.6-3.8,1.8-5
		s2.8-1.8,4.9-1.8c1.3,0,2.5,0.3,3.5,0.8s1.8,1.3,2.3,2.4S140,59.2,140,60.6z M131.4,60.6c0,1.1,0.2,2,0.5,2.6s0.8,0.9,1.5,0.9
		c0.7,0,1.2-0.3,1.5-0.9s0.4-1.5,0.4-2.6c0-1.1-0.1-2-0.4-2.6s-0.8-0.9-1.5-0.9c-0.7,0-1.2,0.3-1.5,0.9S131.4,59.4,131.4,60.6z"/>
	<path class="st0" d="M150.8,67.2l-0.9-1.8h-0.1c-0.6,0.8-1.2,1.3-1.9,1.6s-1.5,0.4-2.5,0.4c-1.2,0-2.2-0.4-3-1.1s-1.1-1.8-1.1-3.2
		c0-1.4,0.5-2.5,1.5-3.2s2.4-1.1,4.3-1.2l2.2-0.1v-0.2c0-1.1-0.5-1.6-1.6-1.6c-1,0-2.2,0.3-3.7,1l-1.3-3c1.5-0.8,3.5-1.2,5.9-1.2
		c1.7,0,3,0.4,4,1.3s1.4,2,1.4,3.5v8.7H150.8z M147.4,64.2c0.6,0,1-0.2,1.4-0.5s0.6-0.8,0.6-1.4v-1l-1.1,0c-1.5,0.1-2.3,0.6-2.3,1.7
		C146.1,63.8,146.5,64.2,147.4,64.2z"/>
	<path class="st0" d="M166.8,63.2c0,1.4-0.5,2.5-1.5,3.2s-2.4,1.1-4.2,1.1c-1,0-1.8-0.1-2.6-0.2s-1.5-0.3-2.2-0.6v-3.7
		c0.7,0.3,1.5,0.6,2.3,0.8s1.6,0.3,2.3,0.3c1,0,1.5-0.2,1.5-0.7c0-0.2-0.1-0.4-0.4-0.6s-1.1-0.5-2.4-1.1c-1.2-0.5-2.1-1.1-2.6-1.7
		s-0.7-1.4-0.7-2.4c0-1.2,0.5-2.2,1.4-2.9s2.3-1,4-1c0.9,0,1.7,0.1,2.5,0.3s1.6,0.5,2.4,0.8l-1.2,3c-0.6-0.3-1.3-0.5-1.9-0.7
		s-1.2-0.3-1.7-0.3c-0.8,0-1.1,0.2-1.1,0.6c0,0.2,0.1,0.4,0.4,0.6s1,0.5,2.3,1c0.9,0.4,1.6,0.8,2.1,1.1s0.8,0.8,1,1.3
		S166.8,62.4,166.8,63.2z"/>
	<path class="st0" d="M175.4,63.8c0.6,0,1.4-0.2,2.2-0.5v3.3c-0.6,0.3-1.2,0.5-1.8,0.6s-1.2,0.2-2,0.2c-1.5,0-2.6-0.4-3.3-1.1
		s-1-1.9-1-3.5v-5.5h-1.6v-1.9l2-1.4l1.2-2.8h3V54h3.3v3.4h-3.3v5.2C174.2,63.4,174.6,63.8,175.4,63.8z"/>
	<path class="st0" d="M192.4,57.2h7.4v9.2c-2,0.7-4.2,1-6.6,1c-2.6,0-4.7-0.8-6.1-2.3s-2.2-3.7-2.2-6.6c0-2.8,0.8-4.9,2.4-6.5
		s3.8-2.3,6.6-2.3c1.1,0,2.1,0.1,3.1,0.3s1.8,0.5,2.5,0.8l-1.5,3.6c-1.2-0.6-2.6-0.9-4.1-0.9c-1.4,0-2.4,0.4-3.1,1.3
		s-1.1,2.1-1.1,3.8c0,1.6,0.3,2.8,1,3.7s1.6,1.3,2.9,1.3c0.7,0,1.3-0.1,1.9-0.2v-2.7h-3.1V57.2z"/>
	<path class="st0" d="M212,67.2l-0.6-1.7h-0.3c-0.4,0.6-0.9,1.1-1.6,1.4s-1.5,0.5-2.4,0.5c-1.5,0-2.6-0.4-3.4-1.3s-1.2-2-1.2-3.6V54
		h4.6v7.3c0,0.9,0.1,1.5,0.4,2s0.7,0.7,1.2,0.7c0.8,0,1.4-0.3,1.7-0.9s0.5-1.7,0.5-3.1V54h4.6v13.3H212z"/>
	<path class="st0" d="M226.8,67.2l-0.9-1.8h-0.1c-0.6,0.8-1.2,1.3-1.9,1.6s-1.5,0.4-2.5,0.4c-1.2,0-2.2-0.4-3-1.1s-1.1-1.8-1.1-3.2
		c0-1.4,0.5-2.5,1.5-3.2s2.4-1.1,4.3-1.2l2.2-0.1v-0.2c0-1.1-0.5-1.6-1.6-1.6c-1,0-2.2,0.3-3.7,1l-1.3-3c1.5-0.8,3.5-1.2,5.9-1.2
		c1.7,0,3,0.4,4,1.3s1.4,2,1.4,3.5v8.7H226.8z M223.4,64.2c0.6,0,1-0.2,1.4-0.5s0.6-0.8,0.6-1.4v-1l-1.1,0c-1.5,0.1-2.3,0.6-2.3,1.7
		C222.1,63.8,222.6,64.2,223.4,64.2z"/>
	<path class="st0" d="M240.6,53.7c0.4,0,0.8,0,1.1,0.1l0.3,0l-0.4,4.3c-0.4-0.1-0.9-0.1-1.6-0.1c-1,0-1.7,0.2-2.2,0.7
		s-0.7,1.1-0.7,2v6.5h-4.6V54h3.4l0.7,2.1h0.2c0.4-0.7,0.9-1.3,1.6-1.7S240,53.7,240.6,53.7z"/>
	<path class="st0" d="M247.5,67.5c-0.9,0-1.8-0.3-2.5-0.8s-1.3-1.3-1.6-2.4s-0.6-2.3-0.6-3.7c0-2.2,0.4-3.8,1.3-5.1s2.1-1.8,3.6-1.8
		c0.7,0,1.4,0.1,2,0.4s1.1,0.8,1.5,1.5h0.1c-0.1-1-0.2-2.1-0.2-3.1V49h4.6v18.2h-3.5l-1-1.7h-0.2C250.3,66.8,249.1,67.5,247.5,67.5z
		 M249.4,63.8c0.7,0,1.3-0.2,1.6-0.7s0.5-1.2,0.5-2.1v-0.4c0-1.2-0.2-2-0.5-2.5s-0.9-0.7-1.6-0.7c-0.6,0-1.1,0.3-1.4,0.8
		s-0.5,1.4-0.5,2.4c0,1,0.2,1.8,0.5,2.4S248.8,63.8,249.4,63.8z"/>
	<path class="st0" d="M257.8,65.3c0-0.7,0.2-1.3,0.6-1.7s1-0.6,1.9-0.6c0.8,0,1.4,0.2,1.8,0.6s0.6,0.9,0.6,1.7
		c0,0.7-0.2,1.3-0.6,1.6s-1,0.6-1.8,0.6c-0.8,0-1.4-0.2-1.8-0.6S257.8,66,257.8,65.3z"/>
</g>
<g>
	<path class="st0" d="M26.5,105.2H16.3V88.1h10.2v3.7H21v2.7h5.1v3.7H21v3.2h5.5V105.2z"/>
	<path class="st0" d="M39,101.1c0,1.4-0.5,2.5-1.5,3.2s-2.4,1.1-4.2,1.1c-1,0-1.8-0.1-2.6-0.2s-1.5-0.3-2.2-0.6v-3.7
		c0.7,0.3,1.5,0.6,2.3,0.8s1.6,0.3,2.3,0.3c1,0,1.5-0.2,1.5-0.7c0-0.2-0.1-0.4-0.4-0.6s-1.1-0.5-2.4-1.1c-1.2-0.5-2.1-1.1-2.6-1.7
		s-0.7-1.4-0.7-2.4c0-1.2,0.5-2.2,1.4-2.9s2.3-1,4-1c0.9,0,1.7,0.1,2.5,0.3s1.6,0.5,2.4,0.8l-1.2,3c-0.6-0.3-1.3-0.5-1.9-0.7
		s-1.2-0.3-1.7-0.3c-0.8,0-1.1,0.2-1.1,0.6c0,0.2,0.1,0.4,0.4,0.6s1,0.5,2.3,1c0.9,0.4,1.6,0.8,2.1,1.1s0.8,0.8,1,1.3
		S39,100.4,39,101.1z"/>
	<path class="st0" d="M47.6,101.8c0.6,0,1.4-0.2,2.2-0.5v3.3c-0.6,0.3-1.2,0.5-1.8,0.6s-1.2,0.2-2,0.2c-1.5,0-2.6-0.4-3.3-1.1
		s-1-1.9-1-3.5v-5.5h-1.6v-1.9l2-1.4l1.2-2.8h3v2.7h3.3v3.4h-3.3v5.2C46.3,101.4,46.8,101.8,47.6,101.8z"/>
	<path class="st0" d="M60.3,105.2l-0.9-1.8h-0.1c-0.6,0.8-1.2,1.3-1.9,1.6s-1.5,0.4-2.5,0.4c-1.2,0-2.2-0.4-3-1.1s-1.1-1.8-1.1-3.2
		c0-1.4,0.5-2.5,1.5-3.2s2.4-1.1,4.3-1.2l2.2-0.1v-0.2c0-1.1-0.5-1.6-1.6-1.6c-1,0-2.2,0.3-3.7,1l-1.3-3c1.5-0.8,3.5-1.2,5.9-1.2
		c1.7,0,3,0.4,4,1.3s1.4,2,1.4,3.5v8.7H60.3z M56.9,102.2c0.6,0,1-0.2,1.4-0.5s0.6-0.8,0.6-1.4v-1l-1.1,0c-1.5,0.1-2.3,0.6-2.3,1.7
		C55.6,101.8,56.1,102.2,56.9,102.2z"/>
	<path class="st0" d="M74.3,91.7c1.4,0,2.6,0.6,3.4,1.8s1.3,2.9,1.3,5c0,2.2-0.4,3.8-1.3,5.1s-2,1.8-3.6,1.8c-0.5,0-0.9-0.1-1.3-0.2
		s-0.7-0.3-1-0.4s-0.7-0.5-1-0.9h-0.3l-0.7,1.3h-3.6V87h4.6v4.1c0,0.5-0.1,1.3-0.2,2.5h0.2c0.4-0.7,1-1.2,1.5-1.5
		S73.5,91.7,74.3,91.7z M72.6,95.3c-0.6,0-1.1,0.2-1.4,0.7s-0.4,1.1-0.4,2.1v0.6c0,1.1,0.1,1.9,0.4,2.3s0.8,0.7,1.5,0.7
		c0.5,0,1-0.3,1.2-0.8s0.4-1.4,0.4-2.4C74.3,96.4,73.7,95.3,72.6,95.3z"/>
	<path class="st0" d="M85.7,105.2h-4.6V87h4.6V105.2z"/>
	<path class="st0" d="M88.3,88.6c0-0.7,0.2-1.2,0.6-1.5s1-0.5,1.9-0.5s1.5,0.2,1.9,0.5s0.6,0.9,0.6,1.5c0,1.3-0.8,2-2.4,2
		C89.1,90.7,88.3,90,88.3,88.6z M93,105.2h-4.6V91.9H93V105.2z"/>
	<path class="st0" d="M106,101.1c0,1.4-0.5,2.5-1.5,3.2s-2.4,1.1-4.2,1.1c-1,0-1.8-0.1-2.6-0.2s-1.5-0.3-2.2-0.6v-3.7
		c0.7,0.3,1.5,0.6,2.3,0.8s1.6,0.3,2.3,0.3c1,0,1.5-0.2,1.5-0.7c0-0.2-0.1-0.4-0.4-0.6s-1.1-0.5-2.4-1.1c-1.2-0.5-2.1-1.1-2.6-1.7
		s-0.7-1.4-0.7-2.4c0-1.2,0.5-2.2,1.4-2.9s2.3-1,4-1c0.9,0,1.7,0.1,2.5,0.3s1.6,0.5,2.4,0.8l-1.2,3c-0.6-0.3-1.3-0.5-1.9-0.7
		s-1.2-0.3-1.7-0.3c-0.8,0-1.1,0.2-1.1,0.6c0,0.2,0.1,0.4,0.4,0.6s1,0.5,2.3,1c0.9,0.4,1.6,0.8,2.1,1.1s0.8,0.8,1,1.3
		S106,100.4,106,101.1z"/>
	<path class="st0" d="M116.4,105.2V98c0-1.8-0.5-2.7-1.6-2.7c-0.8,0-1.3,0.3-1.7,0.9s-0.5,1.7-0.5,3.1v5.8H108V87h4.6v2.6
		c0,1.2-0.1,2.5-0.2,4h0.2c0.4-0.7,1-1.2,1.6-1.5s1.3-0.4,2.1-0.4c1.5,0,2.6,0.4,3.5,1.3s1.2,2.1,1.2,3.6v8.6H116.4z"/>
	<path class="st0" d="M130,105.5c-2.2,0-3.9-0.6-5.2-1.8s-1.8-2.8-1.8-5c0-2.2,0.6-4,1.7-5.2s2.8-1.8,4.9-1.8c2,0,3.5,0.5,4.6,1.6
		s1.6,2.5,1.6,4.5v2h-8.2c0,0.7,0.3,1.3,0.8,1.7s1.2,0.6,2.1,0.6c0.8,0,1.5-0.1,2.2-0.2s1.4-0.4,2.2-0.8v3.3
		c-0.7,0.4-1.5,0.6-2.2,0.8S131.1,105.5,130,105.5z M129.8,94.8c-0.5,0-1,0.2-1.4,0.5s-0.6,0.9-0.6,1.6h3.9c0-0.6-0.2-1.2-0.5-1.5
		S130.4,94.8,129.8,94.8z"/>
	<path class="st0" d="M142.1,105.5c-0.9,0-1.8-0.3-2.5-0.8s-1.3-1.3-1.6-2.4s-0.6-2.3-0.6-3.7c0-2.2,0.4-3.8,1.3-5.1
		s2.1-1.8,3.6-1.8c0.7,0,1.4,0.1,2,0.4s1.1,0.8,1.5,1.5h0.1c-0.1-1-0.2-2.1-0.2-3.1V87h4.6v18.2h-3.5l-1-1.7h-0.2
		C144.9,104.8,143.7,105.5,142.1,105.5z M144,101.8c0.7,0,1.3-0.2,1.6-0.7S146,100,146,99v-0.4c0-1.2-0.2-2-0.5-2.5
		s-0.9-0.7-1.6-0.7c-0.6,0-1.1,0.3-1.4,0.8s-0.5,1.4-0.5,2.4c0,1,0.2,1.8,0.5,2.4S143.4,101.8,144,101.8z"/>
	<path class="st0" d="M168.2,105.2h-4.7v-9.1c0-1.1,0-2.1,0.1-3c-0.3,0.4-0.6,0.7-1.1,1.1l-1.9,1.6l-2.4-3l5.9-4.8h4.2V105.2z"/>
	<path class="st0" d="M173.2,105.2l5.9-13.3h-7.4v-3.8H184v2.7l-6,14.4H173.2z"/>
	<path class="st0" d="M197.6,95.9c0,3.4-0.7,5.8-2.2,7.3s-3.8,2.2-6.9,2.2c-1,0-1.8,0-2.4-0.1v-3.7c0.7,0.1,1.3,0.2,2,0.2
		c1.7,0,2.9-0.3,3.8-1s1.4-1.8,1.5-3.2h-0.1c-0.3,0.6-0.6,1-0.9,1.2s-0.7,0.4-1.1,0.6s-1,0.2-1.6,0.2c-1.5,0-2.6-0.5-3.5-1.5
		S185,95.7,185,94c0-1.9,0.5-3.4,1.6-4.5s2.6-1.6,4.4-1.6c2.1,0,3.7,0.7,4.9,2.1S197.6,93.4,197.6,95.9z M191.2,91.6
		c-0.5,0-0.9,0.2-1.2,0.6s-0.5,1-0.5,1.8c0,0.6,0.1,1.2,0.4,1.5s0.7,0.6,1.3,0.6c0.5,0,0.9-0.2,1.3-0.6s0.6-0.8,0.6-1.3
		c0-0.7-0.2-1.3-0.5-1.8S191.7,91.6,191.2,91.6z"/>
	<path class="st0" d="M211.2,96.7c0,3-0.5,5.3-1.5,6.7s-2.6,2.1-4.7,2.1c-2,0-3.6-0.7-4.6-2.2s-1.6-3.7-1.6-6.6c0-3,0.5-5.3,1.5-6.7
		s2.6-2.1,4.7-2.1c2,0,3.6,0.7,4.6,2.2S211.2,93.7,211.2,96.7z M203.4,96.7c0,1.9,0.1,3.3,0.4,4s0.6,1.1,1.2,1.1
		c0.6,0,1-0.4,1.2-1.1s0.4-2.1,0.4-4c0-1.9-0.1-3.2-0.4-4s-0.6-1.1-1.2-1.1s-1,0.4-1.2,1.1S203.4,94.7,203.4,96.7z"/>
	<path class="st0" d="M212.6,103.3c0-0.7,0.2-1.3,0.6-1.7s1-0.6,1.9-0.6c0.8,0,1.4,0.2,1.8,0.6s0.6,0.9,0.6,1.7
		c0,0.7-0.2,1.3-0.6,1.6s-1,0.6-1.8,0.6c-0.8,0-1.4-0.2-1.8-0.6S212.6,104,212.6,103.3z"/>
</g>
</svg>
