<?xml version="1.0" encoding="utf-8"?>
<!-- Generator: Adobe Illustrator 22.1.0, SVG Export Plug-In . SVG Version: 6.00 Build 0)  -->
<svg version="1.1" id="Layer_1" xmlns="http://www.w3.org/2000/svg" xmlns:xlink="http://www.w3.org/1999/xlink" x="0px" y="0px"
	 viewBox="0 0 88 21.2" style="enable-background:new 0 0 88 21.2;" xml:space="preserve">
<style type="text/css">
	.st0{clip-path:url(#SVGID_2_);fill:#FF5100;}
	.st1{fill:#FFFFFF;}
	.st2{font-family:'OpenSans-Semibold';}
	.st3{font-size:11.88px;}
</style>
<g>
	<defs>
		<rect id="SVGID_1_" width="88" height="21.2"/>
	</defs>
	<clipPath id="SVGID_2_">
		<use xlink:href="#SVGID_1_"  style="overflow:visible;"/>
	</clipPath>
	<path class="st0" d="M2.5,0C2.5,0,0,0,0,2.5v16.1c0,0,0,2.5,2.5,2.5h82.9c0,0,2.5,0,2.5-2.5V2.5c0,0,0-2.5-2.5-2.5H2.5z"/>
</g>
<g>
	<path class="st1" d="M8.1,14.3V6.5h1.3v6.8h3.3v1.1H8.1z"/>
	<path class="st1" d="M16.6,14.4c-0.9,0-1.7-0.3-2.2-0.8c-0.5-0.5-0.8-1.3-0.8-2.2c0-1,0.2-1.7,0.7-2.3c0.5-0.6,1.2-0.8,2-0.8
		c0.8,0,1.4,0.2,1.9,0.7c0.5,0.5,0.7,1.1,0.7,2v0.7h-4c0,0.6,0.2,1,0.5,1.3c0.3,0.3,0.7,0.5,1.2,0.5c0.4,0,0.7,0,1-0.1
		c0.3-0.1,0.6-0.2,1-0.3v1c-0.3,0.1-0.6,0.3-0.9,0.3C17.4,14.4,17,14.4,16.6,14.4z M16.4,9.2c-0.4,0-0.7,0.1-1,0.4
		c-0.2,0.3-0.4,0.6-0.4,1.1h2.7c0-0.5-0.1-0.9-0.4-1.1C17.1,9.3,16.8,9.2,16.4,9.2z"/>
	<path class="st1" d="M24.1,14.3l-0.3-0.8h0c-0.3,0.4-0.6,0.6-0.9,0.7c-0.3,0.1-0.7,0.2-1.1,0.2c-0.6,0-1-0.2-1.4-0.5
		c-0.3-0.3-0.5-0.8-0.5-1.3c0-0.6,0.2-1.1,0.7-1.4c0.5-0.3,1.2-0.5,2.1-0.5l1,0v-0.3c0-0.4-0.1-0.7-0.3-0.9
		c-0.2-0.2-0.5-0.3-0.8-0.3c-0.3,0-0.6,0-0.9,0.1c-0.3,0.1-0.5,0.2-0.8,0.3l-0.4-0.9c0.3-0.2,0.7-0.3,1.1-0.4
		c0.4-0.1,0.7-0.1,1.1-0.1c0.8,0,1.3,0.2,1.7,0.5c0.4,0.3,0.6,0.8,0.6,1.6v4H24.1z M22.2,13.5c0.5,0,0.8-0.1,1.1-0.4
		c0.3-0.3,0.4-0.6,0.4-1.1v-0.5l-0.8,0c-0.6,0-1,0.1-1.3,0.3c-0.3,0.2-0.4,0.5-0.4,0.8c0,0.3,0.1,0.5,0.2,0.6
		C21.6,13.4,21.9,13.5,22.2,13.5z"/>
	<path class="st1" d="M29.8,8.3c0.3,0,0.5,0,0.6,0.1l-0.1,1.2c-0.2,0-0.4-0.1-0.6-0.1c-0.5,0-0.9,0.2-1.2,0.5S28,10.7,28,11.2v3.1
		h-1.3v-6h1l0.2,1.1H28c0.2-0.4,0.5-0.6,0.8-0.8C29.1,8.4,29.4,8.3,29.8,8.3z"/>
	<path class="st1" d="M36.7,14.3h-1.3v-3.7c0-0.5-0.1-0.8-0.3-1c-0.2-0.2-0.5-0.3-0.9-0.3c-0.5,0-0.9,0.2-1.2,0.5
		c-0.2,0.3-0.4,0.8-0.4,1.6v3h-1.3v-6h1l0.2,0.8h0.1c0.2-0.3,0.4-0.5,0.8-0.7c0.3-0.2,0.7-0.2,1.1-0.2c1.4,0,2.1,0.7,2.1,2.2V14.3z"
		/>
	<path class="st1" d="M46.4,14.3h-1.3v-3.7c0-0.5-0.1-0.8-0.3-1c-0.2-0.2-0.4-0.3-0.8-0.3c-0.5,0-0.8,0.2-1.1,0.5
		c-0.2,0.3-0.3,0.8-0.3,1.6v3h-1.3v-6h1l0.2,0.8h0.1c0.2-0.3,0.4-0.5,0.7-0.7c0.3-0.2,0.7-0.2,1-0.2c0.9,0,1.5,0.3,1.8,0.9h0.1
		c0.2-0.3,0.4-0.5,0.7-0.7c0.3-0.2,0.7-0.2,1.1-0.2c0.7,0,1.2,0.2,1.6,0.5s0.5,0.9,0.5,1.6v3.9h-1.3v-3.7c0-0.5-0.1-0.8-0.3-1
		c-0.2-0.2-0.4-0.3-0.8-0.3c-0.5,0-0.9,0.2-1.1,0.5c-0.2,0.3-0.3,0.8-0.3,1.4V14.3z"/>
	<path class="st1" d="M57.2,11.3c0,1-0.3,1.7-0.7,2.3c-0.5,0.5-1.2,0.8-2.1,0.8c-0.6,0-1-0.1-1.5-0.4c-0.4-0.3-0.8-0.6-1-1.1
		c-0.2-0.5-0.3-1-0.3-1.6c0-1,0.2-1.7,0.7-2.3c0.5-0.5,1.2-0.8,2.1-0.8c0.9,0,1.5,0.3,2,0.8C56.9,9.6,57.2,10.4,57.2,11.3z
		 M52.9,11.3c0,1.4,0.5,2.1,1.5,2.1c1,0,1.5-0.7,1.5-2.1c0-1.4-0.5-2-1.5-2c-0.5,0-0.9,0.2-1.2,0.5C53,10.2,52.9,10.7,52.9,11.3z"/>
	<path class="st1" d="M61.7,8.3c0.3,0,0.5,0,0.6,0.1l-0.1,1.2c-0.2,0-0.4-0.1-0.6-0.1c-0.5,0-0.9,0.2-1.2,0.5
		c-0.3,0.3-0.5,0.8-0.5,1.3v3.1h-1.3v-6h1l0.2,1.1h0.1c0.2-0.4,0.5-0.6,0.8-0.8C61,8.4,61.3,8.3,61.7,8.3z"/>
	<path class="st1" d="M66,14.4c-0.9,0-1.7-0.3-2.2-0.8c-0.5-0.5-0.8-1.3-0.8-2.2c0-1,0.2-1.7,0.7-2.3c0.5-0.6,1.2-0.8,2-0.8
		c0.8,0,1.4,0.2,1.9,0.7c0.5,0.5,0.7,1.1,0.7,2v0.7h-4c0,0.6,0.2,1,0.5,1.3c0.3,0.3,0.7,0.5,1.2,0.5c0.4,0,0.7,0,1-0.1
		c0.3-0.1,0.6-0.2,1-0.3v1c-0.3,0.1-0.6,0.3-0.9,0.3C66.8,14.4,66.4,14.4,66,14.4z M65.8,9.2c-0.4,0-0.7,0.1-1,0.4
		c-0.2,0.3-0.4,0.6-0.4,1.1h2.7c0-0.5-0.1-0.9-0.4-1.1C66.5,9.3,66.2,9.2,65.8,9.2z"/>
</g>
<text transform="matrix(1 0 0 1 68.8555 14.3272)" class="st1 st2 st3"> </text>
</svg>
