<?xml version="1.0" encoding="utf-8"?>
<!-- Generator: Adobe Illustrator 22.1.0, SVG Export Plug-In . SVG Version: 6.00 Build 0)  -->
<svg version="1.1" id="Layer_1" xmlns="http://www.w3.org/2000/svg" xmlns:xlink="http://www.w3.org/1999/xlink" x="0px" y="0px"
	 viewBox="0 0 300 250" style="enable-background:new 0 0 300 250;" xml:space="preserve">
<style type="text/css">
	.st0{fill:#FFFFFF;}
	.st1{fill:none;}
</style>
<polygon class="st0" points="238.4,82.6 259.5,82.6 264.8,98.5 262.4,98.5 257.8,85 237.7,84.9 "/>
<polygon class="st0" points="236.9,87.3 256.1,87.3 259.9,98.5 257.5,98.5 254.5,89.6 236.2,89.6 "/>
<polygon class="st0" points="235.6,92.1 229.2,111.6 231.1,113.1 236.9,94.3 251.3,94.3 252,92.1 "/>
<polygon class="st0" points="238.6,96.6 250.5,96.6 249.7,98.8 240.3,98.8 235,116 233.1,114.3 "/>
<polygon class="st0" points="237.3,117.7 254.3,129.4 256,127.9 239.8,116.7 244.1,103.2 242.1,101.6 "/>
<polygon class="st0" points="246,104.5 248,105.8 245.1,114.6 259.6,125 257.9,126.6 242.5,115.5 "/>
<polygon class="st0" points="261.9,121.1 250,113.1 248.3,114.2 261.7,123.9 278.8,111.5 277.9,109.2 "/>
<polygon class="st0" points="252.5,111.2 254,109.9 261.8,115.5 276.3,104.9 277.2,107 261.9,118.2 "/>
<polygon class="st0" points="261.5,110.1 262.4,112.3 275.7,102.6 268.9,82.6 266.6,82.6 273.1,101.6 "/>
<polygon class="st0" points="261.8,82.6 263.9,82.6 270.3,100.8 260.8,107.8 259.9,106 267.8,99.8 "/>
<polygon class="st0" points="236.1,55.3 234.5,57.9 232.9,55.3 231,55.3 231,61.9 232.8,61.9 232.8,58.1 234.5,60.7 234.5,60.7 
	236.2,58.1 236.2,61.9 238,61.9 238,55.3 "/>
<rect x="239.2" y="55.3" class="st0" width="1.8" height="6.6"/>
<polygon class="st0" points="242.3,55.3 242.3,61.9 247.3,61.9 247.3,60.3 244.1,60.3 244.1,55.3 "/>
<rect x="248.1" y="55.3" class="st0" width="1.8" height="6.6"/>
<polygon class="st0" points="250.8,55.3 250.8,56.9 252.7,56.9 252.7,61.9 254.6,61.9 254.6,56.9 256.5,56.9 256.5,55.3 "/>
<path class="st0" d="M259.6,57.4l0.7,1.9h-1.5L259.6,57.4z M258.8,55.3l-2.8,6.6h1.9l0.5-1.2h2.5l0.5,1.2h2l-2.8-6.6H258.8z"/>
<path class="st0" d="M264,55.3h3.1c1,0,1.7,0.3,2.1,0.7c0.4,0.4,0.6,0.9,0.6,1.5v0c0,1-0.5,1.7-1.4,2l1.6,2.3h-2.1l-1.3-2h0h-0.8v2
	H264V55.3z M267,58.5c0.6,0,1-0.3,1-0.8v0c0-0.5-0.4-0.8-1-0.8h-1.2v1.6H267z"/>
<polygon class="st0" points="272.4,59.4 269.9,55.3 272,55.3 273.3,57.7 274.7,55.3 276.7,55.3 274.2,59.4 274.2,61.9 272.4,61.9 
	"/>
<path class="st0" d="M231.1,64.2h3.7c0.9,0,1.6,0.2,2,0.7c0.3,0.3,0.5,0.7,0.5,1.2v0c0,0.8-0.5,1.3-1.1,1.6c0.9,0.3,1.4,0.8,1.4,1.8
	v0c0,1.2-1,2-2.8,2h-3.8V64.2z M234.3,67.2c0.6,0,1-0.2,1-0.6v0c0-0.4-0.3-0.6-0.9-0.6H233v1.3H234.3z M234.6,69.9
	c0.6,0,1-0.2,1-0.7v0c0-0.4-0.3-0.7-1-0.7H233v1.3H234.6z"/>
<polygon class="st0" points="238.5,64.2 244.4,64.2 244.4,66 240.5,66 240.5,67.1 244,67.1 244,68.7 240.5,68.7 240.5,69.8 
	244.4,69.8 244.4,71.5 238.5,71.5 "/>
<polygon class="st0" points="245.5,64.2 247.4,64.2 250.4,68.1 250.4,64.2 252.4,64.2 252.4,71.5 250.6,71.5 247.5,67.5 247.5,71.5 
	245.5,71.5 "/>
<polygon class="st0" points="253.6,64.2 259.5,64.2 259.5,66 255.6,66 255.6,67.1 259.1,67.1 259.1,68.7 255.6,68.7 255.6,69.8 
	259.6,69.8 259.6,71.5 253.6,71.5 "/>
<polygon class="st0" points="260.6,64.2 266.4,64.2 266.4,66 262.6,66 262.6,67.3 266.1,67.3 266.1,68.9 262.6,68.9 262.6,71.5 
	260.6,71.5 "/>
<rect x="267.4" y="64.2" class="st0" width="2" height="7.3"/>
<polygon class="st0" points="272.5,66 270.3,66 270.3,64.2 276.7,64.2 276.7,66 274.5,66 274.5,71.5 272.5,71.5 "/>
<path class="st0" d="M232.4,73.9h1.2l1.9,4.5h-1.3l-0.3-0.8h-1.7l-0.3,0.8h-1.3L232.4,73.9z M233.5,76.6l-0.5-1.3l-0.5,1.3H233.5z"
	/>
<path class="st0" d="M235.5,77.7l0.7-0.8c0.4,0.4,0.9,0.5,1.4,0.5c0.3,0,0.5-0.1,0.5-0.3v0c0-0.2-0.1-0.3-0.8-0.4
	c-1-0.2-1.7-0.5-1.7-1.4v0c0-0.8,0.7-1.4,1.7-1.4c0.8,0,1.4,0.2,1.8,0.6l-0.6,0.9c-0.4-0.3-0.9-0.4-1.3-0.4c-0.3,0-0.4,0.1-0.4,0.3
	v0c0,0.2,0.2,0.3,0.8,0.4c1,0.2,1.7,0.6,1.7,1.4v0c0,0.9-0.7,1.5-1.8,1.5C236.8,78.4,236.1,78.2,235.5,77.7"/>
<path class="st0" d="M239.6,77.7l0.7-0.8c0.4,0.4,0.9,0.5,1.4,0.5c0.3,0,0.5-0.1,0.5-0.3v0c0-0.2-0.1-0.3-0.8-0.4
	c-1-0.2-1.7-0.5-1.7-1.4v0c0-0.8,0.7-1.4,1.7-1.4c0.8,0,1.4,0.2,1.8,0.6l-0.6,0.9c-0.4-0.3-0.9-0.4-1.3-0.4c-0.3,0-0.4,0.1-0.4,0.3
	v0c0,0.2,0.2,0.3,0.8,0.4c1,0.2,1.7,0.6,1.7,1.4v0c0,0.9-0.7,1.5-1.8,1.5C240.9,78.4,240.1,78.2,239.6,77.7"/>
<path class="st0" d="M243.9,76.1L243.9,76.1c0-1.3,1-2.3,2.4-2.3c1.4,0,2.4,1,2.4,2.3v0c0,1.3-1,2.3-2.4,2.3
	C245,78.5,243.9,77.4,243.9,76.1 M247.5,76.1L247.5,76.1c0-0.7-0.5-1.2-1.1-1.2c-0.7,0-1.1,0.5-1.1,1.2v0c0,0.6,0.5,1.2,1.1,1.2
	C247,77.3,247.5,76.8,247.5,76.1"/>
<path class="st0" d="M249.3,76.1L249.3,76.1c0-1.3,1-2.3,2.4-2.3c0.9,0,1.5,0.4,1.9,0.9l-0.9,0.7c-0.3-0.3-0.5-0.5-1-0.5
	c-0.6,0-1.1,0.5-1.1,1.2v0c0,0.7,0.4,1.2,1.1,1.2c0.5,0,0.7-0.2,1-0.5l0.9,0.7c-0.4,0.6-1,1-2,1C250.3,78.5,249.3,77.5,249.3,76.1"
	/>
<rect x="254.1" y="73.9" class="st0" width="1.2" height="4.5"/>
<path class="st0" d="M257.7,73.9h1.2l1.9,4.5h-1.3l-0.3-0.8h-1.7l-0.3,0.8h-1.3L257.7,73.9z M258.8,76.6l-0.5-1.3l-0.5,1.3H258.8z"
	/>
<polygon class="st0" points="261.7,75 260.4,75 260.4,73.9 264.3,73.9 264.3,75 263,75 263,78.4 261.7,78.4 "/>
<rect x="264.9" y="73.9" class="st0" width="1.2" height="4.5"/>
<path class="st0" d="M266.8,76.1L266.8,76.1c0-1.3,1-2.3,2.4-2.3s2.4,1,2.4,2.3v0c0,1.3-1,2.3-2.4,2.3S266.8,77.4,266.8,76.1
	 M270.3,76.1L270.3,76.1c0-0.7-0.5-1.2-1.1-1.2c-0.7,0-1.1,0.5-1.1,1.2v0c0,0.6,0.5,1.2,1.1,1.2C269.9,77.3,270.3,76.8,270.3,76.1"
	/>
<polygon class="st0" points="272.3,73.9 273.4,73.9 275.2,76.3 275.2,73.9 276.5,73.9 276.5,78.4 275.4,78.4 273.5,75.9 273.5,78.4 
	272.3,78.4 "/>
<rect x="229.2" y="55.3" class="st1" width="49.6" height="74.1"/>
</svg>
