<svg id="Layer_1" xmlns="http://www.w3.org/2000/svg" viewBox="0 0 300 250"><style>.st0{fill:#fff}</style><path class="st0" d="M20.1 218.2h3.2v4.3c-.5.2-1 .3-1.5.4s-1 .1-1.5.1c-1.3 0-2.3-.4-3-1.2s-1.1-1.9-1.1-3.2c0-1.4.4-2.5 1.2-3.2s1.9-1.2 3.3-1.2c.9 0 1.7.2 2.5.5l-.5 1.2c-.7-.3-1.4-.5-2.1-.5-.9 0-1.6.3-2.2.9s-.8 1.4-.8 2.4.2 1.8.7 2.4 1.2.8 2.1.8c.5 0 .9-.1 1.5-.2v-2.2h-1.8v-1.3zM27.8 222.9c-1 0-1.8-.3-2.4-.9s-.9-1.4-.9-2.4c0-1.1.3-1.9.8-2.5s1.3-.9 2.2-.9c.9 0 1.5.3 2 .8s.7 1.2.7 2.1v.7H26c0 .6.2 1.1.5 1.5s.8.5 1.4.5c.4 0 .7 0 1.1-.1s.7-.2 1.1-.4v1.1c-.3.2-.7.3-1 .3s-.9.2-1.3.2zm-.3-5.6c-.4 0-.8.1-1.1.4s-.4.7-.5 1.2h2.9c0-.5-.1-.9-.4-1.2s-.5-.4-.9-.4zM34 221.8c.3 0 .7-.1 1-.2v1c-.2.1-.3.1-.6.2s-.5.1-.7.1c-1.3 0-2-.7-2-2.1v-3.5h-.9v-.6l.9-.5.5-1.4h.8v1.4h2v1h-1.8v3.5c0 .3.1.6.2.7s.3.4.6.4zM40.3 222.8H39v-9.1h1.4v9.1zM42 214.6c0-.2.1-.4.2-.6s.3-.2.6-.2c.2 0 .4.1.6.2s.2.3.2.6c0 .2-.1.4-.2.6s-.3.2-.6.2c-.2 0-.4-.1-.6-.2s-.2-.4-.2-.6zm1.5 8.2h-1.4v-6.5h1.4v6.5zM48.5 217.4h-1.6v5.4h-1.4v-5.4h-1.1v-.6l1.1-.4v-.4c0-.8.2-1.3.5-1.7s.9-.6 1.6-.6c.5 0 1 .1 1.4.2l-.4 1c-.3-.1-.7-.2-1-.2-.3 0-.5.1-.7.3s-.2.5-.2.9v.4h1.6v1.1zM52.2 222.9c-1 0-1.8-.3-2.4-.9s-.9-1.4-.9-2.4c0-1.1.3-1.9.8-2.5s1.3-.9 2.2-.9c.9 0 1.5.3 2 .8s.7 1.2.7 2.1v.7h-4.3c0 .6.2 1.1.5 1.5s.8.5 1.4.5c.4 0 .7 0 1.1-.1s.7-.2 1.1-.4v1.1c-.3.2-.7.3-1 .3s-.8.2-1.2.2zm-.3-5.6c-.4 0-.8.1-1.1.4s-.4.7-.5 1.2h2.9c0-.5-.1-.9-.4-1.2s-.5-.4-.9-.4zM58.8 214.6c0-.2.1-.4.2-.6s.3-.2.6-.2c.2 0 .4.1.6.2s.2.3.2.6c0 .2-.1.4-.2.6s-.3.2-.6.2c-.2 0-.4-.1-.6-.2s-.2-.4-.2-.6zm1.5 8.2h-1.4v-6.5h1.4v6.5zM67.7 222.8h-1.4v-4c0-.5-.1-.9-.3-1.1s-.5-.4-1-.4c-.6 0-1 .2-1.3.5s-.4.9-.4 1.7v3.2H62v-6.5h1.1l.2.8h.1c.2-.3.5-.5.8-.7s.8-.3 1.2-.3c1.6 0 2.3.8 2.3 2.4v4.4zM73.8 221c0 .6-.2 1.1-.7 1.5s-1.1.5-2 .5c-.9 0-1.6-.1-2.1-.4v-1.2c.8.4 1.5.5 2.1.5.8 0 1.3-.3 1.3-.8 0-.2 0-.3-.1-.4s-.2-.2-.5-.3-.5-.2-.9-.4c-.7-.3-1.3-.6-1.5-.9s-.4-.7-.4-1.1c0-.6.2-1 .7-1.3s1.1-.5 1.8-.5c.8 0 1.5.2 2.2.5l-.4 1c-.7-.3-1.3-.4-1.8-.4-.7 0-1.1.2-1.1.6 0 .2.1.4.3.5l1.2.6c.5.2.9.4 1.2.6s.4.4.5.6.2.5.2.8zM79.6 222.8l-.2-.8h-.1c-.2.3-.5.5-.8.7s-.8.3-1.2.3c-.8 0-1.4-.2-1.8-.6s-.6-1-.6-1.8v-4.2h1.4v4c0 .5.1.9.3 1.1s.5.4 1 .4c.6 0 1-.2 1.3-.5s.4-.9.4-1.7v-3.2h1.4v6.5h-1.1zM85.7 216.2c.3 0 .5 0 .7.1l-.1 1.3c-.2 0-.4-.1-.6-.1-.6 0-1 .2-1.3.5s-.5.8-.5 1.4v3.4h-1.4v-6.5h1.1l.2 1.1h.1c.2-.4.5-.7.8-.9s.6-.3 1-.3zM91.4 222.8l-.3-.9c-.3.4-.6.7-.9.8s-.7.2-1.2.2c-.6 0-1.1-.2-1.5-.5s-.5-.8-.5-1.5.2-1.2.7-1.5 1.3-.5 2.3-.6h1.1v-.3c0-.4-.1-.7-.3-.9s-.5-.3-.9-.3c-.3 0-.7 0-1 .1l-.9.3-.4-1c.4-.2.7-.3 1.2-.4s.8-.1 1.2-.1c.8 0 1.4.2 1.9.5s.6.9.6 1.7v4.4h-1.1zm-2.1-.9c.5 0 .9-.1 1.2-.4s.5-.7.5-1.2v-.6h-.8c-.6 0-1.1.1-1.4.3s-.4.5-.4.9c0 .3.1.5.3.7s.3.3.6.3zM99.8 222.8h-1.4v-4c0-.5-.1-.9-.3-1.1s-.5-.4-1-.4c-.6 0-1 .2-1.3.5s-.4.9-.4 1.7v3.2H94v-6.5h1.1l.2.8h.1c.2-.3.5-.5.8-.7s.8-.3 1.2-.3c1.6 0 2.3.8 2.3 2.4v4.4zM104.1 222.9c-1 0-1.7-.3-2.2-.9s-.8-1.4-.8-2.5.3-1.9.8-2.5 1.3-.9 2.3-.9c.7 0 1.3.1 1.8.4l-.4 1.1c-.6-.2-1.1-.3-1.4-.3-1.1 0-1.7.7-1.7 2.2 0 .7.1 1.3.4 1.6s.7.5 1.2.5c.6 0 1.2-.2 1.7-.5v1.2c-.2.1-.5.2-.8.3s-.5.3-.9.3zM110 222.9c-1 0-1.8-.3-2.4-.9s-.9-1.4-.9-2.4c0-1.1.3-1.9.8-2.5s1.3-.9 2.2-.9c.9 0 1.5.3 2 .8s.7 1.2.7 2.1v.7h-4.3c0 .6.2 1.1.5 1.5s.8.5 1.4.5c.4 0 .7 0 1.1-.1s.7-.2 1.1-.4v1.1c-.3.2-.7.3-1 .3s-.8.2-1.2.2zm-.3-5.6c-.4 0-.8.1-1.1.4s-.4.7-.5 1.2h2.9c0-.5-.1-.9-.4-1.2s-.4-.4-.9-.4zM120.8 222.8l-.3-.9c-.3.4-.6.7-.9.8s-.7.2-1.2.2c-.6 0-1.1-.2-1.5-.5s-.5-.8-.5-1.5.2-1.2.7-1.5 1.3-.5 2.3-.6h1.1v-.3c0-.4-.1-.7-.3-.9s-.5-.3-.9-.3c-.3 0-.7 0-1 .1l-.9.3-.4-1c.4-.2.7-.3 1.2-.4s.8-.1 1.2-.1c.8 0 1.4.2 1.9.5s.6.9.6 1.7v4.4h-1.1zm-2.1-.9c.5 0 .9-.1 1.2-.4s.5-.7.5-1.2v-.6h-.8c-.6 0-1.1.1-1.4.3s-.4.5-.4.9c0 .3.1.5.3.7s.3.3.6.3zM125.8 221.8c.3 0 .7-.1 1-.2v1c-.2.1-.3.1-.6.2s-.5.1-.7.1c-1.3 0-2-.7-2-2.1v-3.5h-.9v-.6l.9-.5.5-1.4h.8v1.4h1.8v1h-1.8v3.5c0 .3.1.6.2.7s.6.4.8.4z"/><g><path class="st0" d="M19.1 234.9c-1 0-1.7-.3-2.2-.9s-.8-1.4-.8-2.5.3-1.9.8-2.5 1.3-.9 2.3-.9c.7 0 1.3.1 1.8.4l-.4 1.1c-.6-.2-1.1-.3-1.4-.3-1.1 0-1.7.7-1.7 2.2 0 .7.1 1.3.4 1.6s.7.5 1.2.5c.6 0 1.2-.2 1.7-.5v1.2c-.2.1-.5.2-.8.3s-.5.3-.9.3zM27.9 231.6c0 1.1-.3 1.9-.8 2.5s-1.3.9-2.3.9c-.6 0-1.1-.1-1.6-.4s-.8-.7-1.1-1.2-.4-1.1-.4-1.8c0-1.1.3-1.9.8-2.5s1.3-.9 2.3-.9c.9 0 1.7.3 2.2.9s.9 1.4.9 2.5zm-4.7 0c0 1.5.6 2.2 1.7 2.2s1.6-.7 1.6-2.2c0-1.5-.6-2.2-1.7-2.2-.6 0-1 .2-1.3.6s-.3.8-.3 1.6zM34.7 234.8h-1.4v-4c0-.5-.1-.9-.3-1.1s-.5-.4-.9-.4c-.5 0-.9.2-1.2.5s-.4.9-.4 1.7v3.2h-1.4v-6.5h1.1l.2.8h.1c.2-.3.4-.5.8-.7s.7-.3 1.1-.3c1 0 1.7.3 2 1h.1c.2-.3.5-.6.8-.8s.7-.3 1.2-.3c.8 0 1.3.2 1.7.6s.5 1 .5 1.8v4.2h-1.4v-4c0-.5-.1-.9-.3-1.1s-.5-.4-.9-.4c-.5 0-.9.2-1.2.5s-.4.8-.4 1.5v3.8zM43.8 234.9c-.8 0-1.5-.3-1.9-.9h-.1c.1.5.1.9.1 1v2.7h-1.4v-9.4h1.1c0 .1.1.4.2.9h.1c.4-.7 1.1-1 1.9-1 .8 0 1.4.3 1.9.9s.7 1.4.7 2.5-.2 1.9-.7 2.5-1.1.8-1.9.8zm-.4-5.6c-.5 0-.9.2-1.2.5s-.4.8-.4 1.5v.2c0 .8.1 1.4.4 1.7s.7.5 1.2.5.8-.2 1.1-.6.4-.9.4-1.7c0-.7-.1-1.3-.4-1.6s-.6-.5-1.1-.5zM50.6 234.9c-1 0-1.8-.3-2.4-.9s-.9-1.4-.9-2.4c0-1.1.3-1.9.8-2.5s1.3-.9 2.2-.9c.9 0 1.5.3 2 .8s.7 1.2.7 2.1v.7h-4.3c0 .6.2 1.1.5 1.5s.8.5 1.4.5c.4 0 .7 0 1.1-.1s.7-.2 1.1-.4v1.1c-.3.2-.7.3-1 .3s-.8.2-1.2.2zm-.3-5.6c-.4 0-.8.1-1.1.4s-.4.7-.5 1.2h2.9c0-.5-.1-.9-.4-1.2s-.5-.4-.9-.4zM56.8 233.8c.3 0 .7-.1 1-.2v1c-.2.1-.3.1-.6.2s-.5.1-.7.1c-1.3 0-2-.7-2-2.1v-3.5h-.9v-.6l.9-.5.5-1.4h.8v1.4h1.8v1h-1.8v3.5c0 .3.1.6.2.7s.5.4.8.4zM58.8 226.6c0-.2.1-.4.2-.6s.3-.2.6-.2c.2 0 .4.1.6.2s.2.3.2.6c0 .2-.1.4-.2.6s-.3.2-.6.2c-.2 0-.4-.1-.6-.2s-.2-.4-.2-.6zm1.5 8.2h-1.4v-6.5h1.4v6.5zM64.4 233.8c.3 0 .7-.1 1-.2v1c-.2.1-.3.1-.6.2s-.5.1-.7.1c-1.3 0-2-.7-2-2.1v-3.5h-.9v-.6l.9-.5.5-1.4h.8v1.4h1.8v1h-1.8v3.5c0 .3.1.6.2.7s.5.4.8.4zM66.4 226.6c0-.2.1-.4.2-.6s.3-.2.6-.2c.2 0 .4.1.6.2s.2.3.2.6c0 .2-.1.4-.2.6s-.3.2-.6.2c-.2 0-.4-.1-.6-.2s-.2-.4-.2-.6zm1.5 8.2h-1.4v-6.5h1.4v6.5zM71.1 234.8l-2.5-6.5h1.5l1.3 3.8c.2.6.4 1.1.4 1.5 0-.3.2-.8.4-1.5l1.3-3.8H75l-2.5 6.5h-1.4zM78.6 234.9c-1 0-1.8-.3-2.4-.9s-.9-1.4-.9-2.4c0-1.1.3-1.9.8-2.5s1.3-.9 2.2-.9c.9 0 1.5.3 2 .8s.7 1.2.7 2.1v.7h-4.3c0 .6.2 1.1.5 1.5s.8.5 1.4.5c.4 0 .7 0 1.1-.1s.7-.2 1.1-.4v1.1c-.3.2-.7.3-1 .3s-.8.2-1.2.2zm-.2-5.6c-.4 0-.8.1-1.1.4s-.4.7-.5 1.2h2.9c0-.5-.1-.9-.4-1.2s-.5-.4-.9-.4zM90.8 228.3v.8l-1.1.2c.1.1.2.3.3.5s.1.4.1.6c0 .7-.2 1.2-.7 1.6s-1.1.6-1.9.6h-.6c-.3.2-.4.4-.4.6 0 .1.1.3.2.3s.4.1.8.1h1.1c.7 0 1.3.2 1.6.5s.6.7.6 1.3c0 .7-.3 1.3-.9 1.7s-1.5.6-2.6.6c-.9 0-1.6-.2-2-.5s-.7-.8-.7-1.3c0-.4.1-.7.4-1s.6-.5 1.1-.6c-.2-.1-.3-.2-.5-.4s-.2-.4-.2-.5c0-.2.1-.4.2-.6s.3-.3.6-.5c-.3-.1-.6-.4-.8-.7s-.3-.7-.3-1.1c0-.7.2-1.2.7-1.6s1.1-.6 1.9-.6h.6c.2 0 .4.1.5.1h2zm-5.1 7.5c0 .3.1.5.4.7s.6.2 1.1.2c.8 0 1.3-.1 1.7-.3s.6-.5.6-.9c0-.3-.1-.5-.3-.6s-.6-.2-1.1-.2h-1c-.4 0-.7.1-.9.3s-.5.5-.5.8zm.6-5.4c0 .4.1.7.3.9s.5.3.9.3c.8 0 1.2-.4 1.2-1.3 0-.4-.1-.7-.3-1s-.5-.3-.9-.3-.7.1-.9.3-.3.7-.3 1.1zM95.1 228.2c.3 0 .5 0 .7.1l-.1 1.3c-.2 0-.4-.1-.6-.1-.6 0-1 .2-1.3.5s-.5.8-.5 1.4v3.4h-1.4v-6.5H93l.2 1.1h.1c.2-.4.5-.7.8-.9s.6-.3 1-.3zM102.5 231.6c0 1.1-.3 1.9-.8 2.5s-1.3.9-2.3.9c-.6 0-1.1-.1-1.6-.4s-.8-.7-1.1-1.2-.4-1.1-.4-1.8c0-1.1.3-1.9.8-2.5s1.3-.9 2.3-.9c.9 0 1.7.3 2.2.9s.9 1.4.9 2.5zm-4.8 0c0 1.5.6 2.2 1.7 2.2s1.6-.7 1.6-2.2c0-1.5-.6-2.2-1.7-2.2-.6 0-1 .2-1.3.6s-.3.8-.3 1.6zM108.4 234.8l-.2-.8h-.1c-.2.3-.5.5-.8.7s-.8.3-1.2.3c-.8 0-1.4-.2-1.8-.6s-.6-1-.6-1.8v-4.2h1.4v4c0 .5.1.9.3 1.1s.5.4 1 .4c.6 0 1-.2 1.3-.5s.4-.9.4-1.7v-3.2h1.4v6.5h-1.1zM114.5 234.9c-.8 0-1.5-.3-1.9-.9h-.1c.1.5.1.9.1 1v2.7h-1.4v-9.4h1.1c0 .1.1.4.2.9h.1c.4-.7 1.1-1 1.9-1 .8 0 1.4.3 1.9.9s.7 1.4.7 2.5-.2 1.9-.7 2.5-1.1.8-1.9.8zm-.4-5.6c-.5 0-.9.2-1.2.5s-.4.8-.4 1.5v.2c0 .8.1 1.4.4 1.7s.7.5 1.2.5.8-.2 1.1-.6.4-.9.4-1.7c0-.7-.1-1.3-.4-1.6s-.6-.5-1.1-.5zM124.6 234.9c-.8 0-1.5-.3-1.9-.9h-.1c.1.5.1.9.1 1v2.7h-1.4v-9.4h1.1c0 .1.1.4.2.9h.1c.4-.7 1.1-1 1.9-1 .8 0 1.4.3 1.9.9s.7 1.4.7 2.5-.2 1.9-.7 2.5-1.1.8-1.9.8zm-.3-5.6c-.5 0-.9.2-1.2.5s-.4.8-.4 1.5v.2c0 .8.1 1.4.4 1.7s.7.5 1.2.5.8-.2 1.1-.6.4-.9.4-1.7c0-.7-.1-1.3-.4-1.6s-.6-.5-1.1-.5zM131.8 228.2c.3 0 .5 0 .7.1l-.1 1.3c-.2 0-.4-.1-.6-.1-.6 0-1 .2-1.3.5s-.5.8-.5 1.4v3.4h-1.4v-6.5h1.1l.2 1.1h.1c.2-.4.5-.7.8-.9s.6-.3 1-.3zM133.4 226.6c0-.2.1-.4.2-.6s.3-.2.6-.2c.2 0 .4.1.6.2s.2.3.2.6c0 .2-.1.4-.2.6s-.3.2-.6.2c-.2 0-.4-.1-.6-.2s-.2-.4-.2-.6zm1.5 8.2h-1.4v-6.5h1.4v6.5zM139.2 234.9c-1 0-1.7-.3-2.2-.9s-.8-1.4-.8-2.5.3-1.9.8-2.5 1.3-.9 2.3-.9c.7 0 1.3.1 1.8.4l-.4 1.1c-.6-.2-1.1-.3-1.4-.3-1.1 0-1.7.7-1.7 2.2 0 .7.1 1.3.4 1.6s.7.5 1.2.5c.6 0 1.2-.2 1.7-.5v1.2c-.2.1-.5.2-.8.3s-.5.3-.9.3zM142.2 226.6c0-.2.1-.4.2-.6s.3-.2.6-.2c.2 0 .4.1.6.2s.2.3.2.6c0 .2-.1.4-.2.6s-.3.2-.6.2c-.2 0-.4-.1-.6-.2s-.2-.4-.2-.6zm1.5 8.2h-1.4v-6.5h1.4v6.5zM151.1 234.8h-1.4v-4c0-.5-.1-.9-.3-1.1s-.5-.4-1-.4c-.6 0-1 .2-1.3.5s-.4.9-.4 1.7v3.2h-1.4v-6.5h1.1l.2.8h.1c.2-.3.5-.5.8-.7s.8-.3 1.2-.3c1.6 0 2.3.8 2.3 2.4v4.4zM158.3 228.3v.8l-1.1.2c.1.1.2.3.3.5s.1.4.1.6c0 .7-.2 1.2-.7 1.6s-1.1.6-1.9.6h-.6c-.3.2-.4.4-.4.6 0 .1.1.3.2.3s.4.1.8.1h1.1c.7 0 1.3.2 1.6.5s.6.7.6 1.3c0 .7-.3 1.3-.9 1.7s-1.5.6-2.6.6c-.9 0-1.6-.2-2-.5s-.7-.8-.7-1.3c0-.4.1-.7.4-1s.6-.5 1.1-.6c-.2-.1-.3-.2-.5-.4s-.2-.4-.2-.5c0-.2.1-.4.2-.6s.3-.3.6-.5c-.3-.1-.6-.4-.8-.7s-.3-.7-.3-1.1c0-.7.2-1.2.7-1.6s1.1-.6 1.9-.6h.6c.2 0 .4.1.5.1h2zm-5.1 7.5c0 .3.1.5.4.7s.6.2 1.1.2c.8 0 1.3-.1 1.7-.3s.6-.5.6-.9c0-.3-.1-.5-.3-.6s-.6-.2-1.1-.2h-1c-.4 0-.7.1-.9.3s-.5.5-.5.8zm.6-5.4c0 .4.1.7.3.9s.5.3.9.3c.8 0 1.2-.4 1.2-1.3 0-.4-.1-.7-.3-1s-.5-.3-.9-.3-.7.1-.9.3-.3.7-.3 1.1zM159 234.1c0-.3.1-.5.2-.7s.4-.2.6-.2c.3 0 .5.1.7.2s.2.4.2.6c0 .3-.1.5-.2.7s-.4.2-.6.2-.5-.1-.6-.2-.3-.3-.3-.6z"/></g></svg>