<svg id="Layer_1" xmlns="http://www.w3.org/2000/svg" viewBox="0 0 300 250"><style>.st0{fill:#fff}</style><path class="st0" d="M31 41.2h-4.7v-7H21v7h-4.7V24.1H21v6.4h5.4v-6.4H31v17.1zM46.6 34.6c0 2.2-.6 3.9-1.8 5.1s-2.8 1.8-4.9 1.8c-2 0-3.6-.6-4.8-1.9s-1.8-2.9-1.8-5c0-2.2.6-3.8 1.8-5s2.8-1.8 4.9-1.8c1.3 0 2.5.3 3.5.8s1.8 1.3 2.3 2.4.8 2.2.8 3.6zm-8.6 0c0 1.1.2 2 .5 2.6s.8.9 1.5.9 1.2-.3 1.5-.9.4-1.5.4-2.6-.1-2-.4-2.6-.8-.9-1.5-.9-1.2.3-1.5.9-.5 1.4-.5 2.6zM57.2 41.2V34c0-.9-.1-1.5-.4-2s-.7-.7-1.2-.7c-.8 0-1.3.3-1.7.9s-.5 1.7-.5 3.2v5.8h-4.6V28h3.5l.6 1.6h.3c.4-.6.9-1.1 1.6-1.4s1.5-.5 2.4-.5c1.5 0 2.6.4 3.4 1.3s1.2 2.1 1.2 3.6v8.6h-4.6zM77.1 34.6c0 2.2-.6 3.9-1.8 5.1s-2.8 1.8-4.9 1.8c-2 0-3.6-.6-4.8-1.9s-1.8-2.9-1.8-5c0-2.2.6-3.8 1.8-5s2.8-1.8 4.9-1.8c1.3 0 2.5.3 3.5.8s1.8 1.3 2.3 2.4.8 2.2.8 3.6zm-8.6 0c0 1.1.2 2 .5 2.6s.8.9 1.5.9 1.2-.3 1.5-.9.4-1.5.4-2.6-.1-2-.4-2.6-.8-.9-1.5-.9-1.2.3-1.5.9-.5 1.4-.5 2.6zM87.2 27.7c.4 0 .8 0 1.1.1h.3l-.4 4.3c-.4-.1-.9-.1-1.6-.1-1 0-1.7.2-2.2.7s-.7 1.1-.7 2v6.5h-4.6V28h3.4l.7 2.1h.2c.4-.7.9-1.3 1.6-1.7s1.5-.7 2.2-.7zM89.9 24.7c0-.7.2-1.2.6-1.5s1-.5 1.9-.5 1.5.2 1.9.5.6.9.6 1.5c0 1.3-.8 2-2.4 2-1.8 0-2.6-.7-2.6-2zm4.7 16.5H90V28h4.6v13.2zM105.7 41.2V34c0-.9-.1-1.5-.4-2s-.7-.7-1.2-.7c-.8 0-1.3.3-1.7.9s-.5 1.7-.5 3.2v5.8h-4.6V28h3.5l.6 1.6h.3c.4-.6.9-1.1 1.6-1.4s1.5-.5 2.4-.5c1.5 0 2.6.4 3.4 1.3s1.2 2.1 1.2 3.6v8.6h-4.6zM125.5 28v2.2l-1.8.7c.2.5.4 1 .4 1.6 0 1.4-.5 2.5-1.5 3.3s-2.5 1.2-4.5 1.2c-.5 0-.9 0-1.2-.1-.1.2-.2.4-.2.6 0 .2.2.4.6.5s.8.2 1.4.2h2.2c3 0 4.5 1.3 4.5 3.8 0 1.6-.7 2.9-2.1 3.8S120 47 117.5 47c-1.9 0-3.3-.3-4.4-.9s-1.5-1.5-1.5-2.7c0-1.6 1-2.6 3-3.1-.4-.2-.8-.4-1.1-.8s-.5-.8-.5-1.1c0-.4.1-.8.3-1.1s.7-.7 1.4-1.1c-.7-.3-1.2-.8-1.6-1.4s-.6-1.4-.6-2.4c0-1.4.5-2.6 1.5-3.4s2.4-1.2 4.2-1.2c.2 0 .7 0 1.3.1s1 .1 1.3.2h4.7zm-10 14.9c0 .4.2.7.6.9s.9.3 1.6.3c1.1 0 2-.1 2.7-.4s1-.6 1-1.1c0-.4-.2-.6-.6-.7s-1-.2-1.7-.2h-1.8c-.5 0-.9.1-1.2.3s-.6.6-.6.9zm1.4-10.6c0 1.4.5 2 1.4 2 .4 0 .8-.2 1-.5s.4-.8.4-1.5c0-1.4-.5-2.1-1.4-2.1-.9.1-1.4.7-1.4 2.1zM139.3 37.9c.6 0 1.4-.2 2.2-.5v3.3c-.6.3-1.2.5-1.8.6s-1.2.2-2 .2c-1.5 0-2.6-.4-3.3-1.1s-1-1.9-1-3.5v-5.5h-1.6v-1.9l2-1.4 1.2-2.8h3V28h3.3v3.4H138v5.2c.1.8.5 1.3 1.3 1.3zM151.7 41.2V34c0-1.8-.5-2.7-1.6-2.7-.8 0-1.3.3-1.7.9s-.5 1.7-.5 3.1v5.8h-4.6V23h4.6v2.6c0 1.2-.1 2.5-.2 4h.2c.4-.7 1-1.2 1.6-1.5s1.3-.4 2.1-.4c1.5 0 2.6.4 3.5 1.3s1.2 2.1 1.2 3.6v8.6h-4.6zM165.4 41.5c-2.2 0-3.9-.6-5.2-1.8s-1.8-2.8-1.8-5 .6-4 1.7-5.2 2.8-1.8 4.9-1.8c2 0 3.5.5 4.6 1.6s1.6 2.5 1.6 4.5v2H163c0 .7.3 1.3.8 1.7s1.2.6 2.1.6c.8 0 1.5-.1 2.2-.2s1.4-.4 2.2-.8v3.3c-.7.4-1.5.6-2.2.8s-1.6.3-2.7.3zm-.3-10.7c-.5 0-1 .2-1.4.5s-.6.9-.6 1.6h3.9c0-.6-.2-1.2-.5-1.5s-.8-.6-1.4-.6zM187.3 27.7c1.4 0 2.6.6 3.4 1.8s1.3 2.9 1.3 5c0 2.2-.4 3.8-1.3 5.1s-2 1.8-3.6 1.8c-.5 0-.9-.1-1.3-.2s-.7-.3-1-.4-.7-.5-1-.9h-.3l-.7 1.3h-3.6V23h4.6v4.1c0 .5-.1 1.3-.2 2.5h.2c.4-.7 1-1.2 1.5-1.5s1.2-.4 2-.4zm-1.7 3.6c-.6 0-1.1.2-1.4.7s-.4 1.1-.4 2.1v.6c0 1.1.1 1.9.4 2.3s.8.7 1.5.7c.5 0 1-.3 1.2-.8s.4-1.4.4-2.4c0-2.1-.6-3.2-1.7-3.2zM194 24.7c0-.7.2-1.2.6-1.5s1-.5 1.9-.5 1.5.2 1.9.5.6.9.6 1.5c0 1.3-.8 2-2.4 2-1.8 0-2.6-.7-2.6-2zm4.7 16.5h-4.6V28h4.6v13.2zM209.4 27.7c.4 0 .8 0 1.1.1h.3l-.4 4.3c-.4-.1-.9-.1-1.6-.1-1 0-1.7.2-2.2.7s-.7 1.1-.7 2v6.5h-4.6V28h3.4l.7 2.1h.2c.4-.7.9-1.3 1.6-1.7s1.5-.7 2.2-.7zM218.7 37.9c.6 0 1.4-.2 2.2-.5v3.3c-.6.3-1.2.5-1.8.6s-1.2.2-2 .2c-1.5 0-2.6-.4-3.3-1.1s-1-1.9-1-3.5v-5.5h-1.6v-1.9l2-1.4 1.2-2.8h3V28h3.3v3.4h-3.3v5.2c.1.8.5 1.3 1.3 1.3zM231.1 41.2V34c0-1.8-.5-2.7-1.6-2.7-.8 0-1.3.3-1.7.9s-.5 1.7-.5 3.1v5.8h-4.6V23h4.6v2.6c0 1.2-.1 2.5-.2 4h.2c.4-.7 1-1.2 1.6-1.5s1.3-.4 2.1-.4c1.5 0 2.6.4 3.5 1.3s1.2 2.1 1.2 3.6v8.6h-4.6zM256.9 34.6c0 2.2-.6 3.9-1.8 5.1s-2.8 1.8-4.9 1.8c-2 0-3.6-.6-4.8-1.9s-1.8-2.9-1.8-5c0-2.2.6-3.8 1.8-5s2.8-1.8 4.9-1.8c1.3 0 2.5.3 3.5.8s1.8 1.3 2.3 2.4.8 2.2.8 3.6zm-8.6 0c0 1.1.2 2 .5 2.6s.8.9 1.5.9 1.2-.3 1.5-.9.4-1.5.4-2.6-.1-2-.4-2.6-.8-.9-1.5-.9-1.2.3-1.5.9-.5 1.4-.5 2.6zM267.1 31.4h-2.8v9.8h-4.6v-9.8h-1.8v-2.2l1.9-1.1v-.2c0-1.8.4-3 1.1-3.8s1.9-1.1 3.4-1.1c.6 0 1.2 0 1.7.1s1.2.3 1.9.5l-1 3c-.6-.2-1.1-.2-1.7-.2-.4 0-.6.1-.8.3s-.2.6-.2 1v.3h2.8v3.4z"/><g><path class="st0" d="M22.6 63.8c.6 0 1.4-.2 2.2-.5v3.3c-.6.3-1.2.5-1.8.6s-1.2.2-2 .2c-1.5 0-2.6-.4-3.3-1.1s-1-1.9-1-3.5v-5.5h-1.6v-1.9l2-1.4 1.2-2.8h3V54h3.3v3.4h-3.3v5.2c0 .8.4 1.2 1.3 1.2zM35 67.2V60c0-1.8-.5-2.7-1.6-2.7-.8 0-1.3.3-1.7.9s-.5 1.7-.5 3.1v5.8h-4.6V49h4.6v2.6c0 1.2-.1 2.5-.2 4h.2c.4-.7 1-1.2 1.6-1.5s1.3-.4 2.1-.4c1.5 0 2.6.4 3.5 1.3s1.2 2.1 1.2 3.6v8.6H35zM48.7 67.5c-2.2 0-3.9-.6-5.2-1.8s-1.8-2.8-1.8-5 .6-4 1.7-5.2 2.8-1.8 4.9-1.8c2 0 3.5.5 4.6 1.6s1.6 2.5 1.6 4.5v2h-8.2c0 .7.3 1.3.8 1.7s1.2.6 2.1.6c.8 0 1.5-.1 2.2-.2s1.4-.4 2.2-.8v3.3c-.7.4-1.5.6-2.2.8s-1.7.3-2.7.3zm-.3-10.7c-.5 0-1 .2-1.4.5s-.6.9-.6 1.6h3.9c0-.6-.2-1.2-.5-1.5s-.8-.6-1.4-.6zM77.2 50.1v10.3c0 2.2-.6 4-1.9 5.2s-3.1 1.8-5.5 1.8c-2.3 0-4.1-.6-5.4-1.8s-1.9-2.9-1.9-5.2V50.1h4.7v10.1c0 1.2.2 2.1.7 2.6s1.1.8 2 .8c.9 0 1.6-.3 2.1-.8s.6-1.4.6-2.7v-10h4.6zM79.5 65.3c0-.7.2-1.3.6-1.7s1-.6 1.9-.6c.8 0 1.4.2 1.8.6s.6.9.6 1.7c0 .7-.2 1.3-.6 1.6s-1 .6-1.8.6-1.4-.2-1.8-.6-.7-.9-.7-1.6zM98 62c0 1.1-.3 2-.8 2.8s-1.3 1.5-2.3 1.9-2.2.7-3.6.7c-1.1 0-2.1-.1-2.9-.2s-1.6-.4-2.4-.8v-4.1c.9.5 1.8.8 2.8 1.1s1.8.4 2.6.4c.7 0 1.2-.1 1.5-.4s.5-.5.5-.9c0-.2-.1-.4-.2-.6s-.3-.4-.6-.5-1-.5-2.3-1.1c-1.1-.5-2-1-2.5-1.5s-1-1-1.2-1.6-.4-1.3-.4-2.2c0-1.6.6-2.8 1.7-3.7s2.7-1.3 4.7-1.3c1.8 0 3.6.4 5.4 1.2l-1.4 3.6c-1.6-.7-3-1.1-4.1-1.1-.6 0-1 .1-1.3.3s-.4.5-.4.8c0 .3.2.6.5.9s1.3.8 2.8 1.5c1.5.7 2.5 1.4 3.1 2.1s.8 1.6.8 2.7zM99.4 65.3c0-.7.2-1.3.6-1.7s1-.6 1.9-.6c.8 0 1.4.2 1.8.6s.6.9.6 1.7c0 .7-.2 1.3-.6 1.6s-1 .6-1.8.6-1.4-.2-1.8-.6-.7-.9-.7-1.6zM120.1 53.6c-1.1 0-2 .5-2.6 1.4s-.9 2.1-.9 3.7c0 3.3 1.3 4.9 3.8 4.9.8 0 1.5-.1 2.2-.3s1.4-.5 2.1-.8v3.9c-1.4.6-3 .9-4.9.9-2.6 0-4.6-.8-5.9-2.2s-2.1-3.7-2.1-6.5c0-1.8.3-3.3 1-4.7s1.6-2.4 2.9-3.1 2.7-1.1 4.4-1.1c1.9 0 3.6.4 5.3 1.2l-1.4 3.6c-.6-.3-1.3-.5-1.9-.8s-1.3-.1-2-.1zM140 60.6c0 2.2-.6 3.9-1.8 5.1s-2.8 1.8-4.9 1.8c-2 0-3.6-.6-4.8-1.9s-1.8-2.9-1.8-5c0-2.2.6-3.8 1.8-5s2.8-1.8 4.9-1.8c1.3 0 2.5.3 3.5.8s1.8 1.3 2.3 2.4.8 2.2.8 3.6zm-8.6 0c0 1.1.2 2 .5 2.6s.8.9 1.5.9 1.2-.3 1.5-.9.4-1.5.4-2.6-.1-2-.4-2.6-.8-.9-1.5-.9-1.2.3-1.5.9-.5 1.4-.5 2.6zM150.8 67.2l-.9-1.8h-.1c-.6.8-1.2 1.3-1.9 1.6s-1.5.4-2.5.4c-1.2 0-2.2-.4-3-1.1s-1.1-1.8-1.1-3.2c0-1.4.5-2.5 1.5-3.2s2.4-1.1 4.3-1.2l2.2-.1v-.2c0-1.1-.5-1.6-1.6-1.6-1 0-2.2.3-3.7 1l-1.3-3c1.5-.8 3.5-1.2 5.9-1.2 1.7 0 3 .4 4 1.3s1.4 2 1.4 3.5v8.7h-3.2zm-3.4-3c.6 0 1-.2 1.4-.5s.6-.8.6-1.4v-1h-1.1c-1.5.1-2.3.6-2.3 1.7.1.8.5 1.2 1.4 1.2zM166.8 63.2c0 1.4-.5 2.5-1.5 3.2s-2.4 1.1-4.2 1.1c-1 0-1.8-.1-2.6-.2s-1.5-.3-2.2-.6V63c.7.3 1.5.6 2.3.8s1.6.3 2.3.3c1 0 1.5-.2 1.5-.7 0-.2-.1-.4-.4-.6s-1.1-.5-2.4-1.1c-1.2-.5-2.1-1.1-2.6-1.7s-.7-1.4-.7-2.4c0-1.2.5-2.2 1.4-2.9s2.3-1 4-1c.9 0 1.7.1 2.5.3s1.6.5 2.4.8l-1.2 3c-.6-.3-1.3-.5-1.9-.7s-1.2-.3-1.7-.3c-.8 0-1.1.2-1.1.6 0 .2.1.4.4.6s1 .5 2.3 1c.9.4 1.6.8 2.1 1.1s.8.8 1 1.3.3 1 .3 1.8zM175.4 63.8c.6 0 1.4-.2 2.2-.5v3.3c-.6.3-1.2.5-1.8.6s-1.2.2-2 .2c-1.5 0-2.6-.4-3.3-1.1s-1-1.9-1-3.5v-5.5h-1.6v-1.9l2-1.4 1.2-2.8h3V54h3.3v3.4h-3.3v5.2c.1.8.5 1.2 1.3 1.2zM192.4 57.2h7.4v9.2c-2 .7-4.2 1-6.6 1-2.6 0-4.7-.8-6.1-2.3s-2.2-3.7-2.2-6.6c0-2.8.8-4.9 2.4-6.5s3.8-2.3 6.6-2.3c1.1 0 2.1.1 3.1.3s1.8.5 2.5.8l-1.5 3.6c-1.2-.6-2.6-.9-4.1-.9-1.4 0-2.4.4-3.1 1.3s-1.1 2.1-1.1 3.8c0 1.6.3 2.8 1 3.7s1.6 1.3 2.9 1.3c.7 0 1.3-.1 1.9-.2v-2.7h-3.1v-3.5zM212 67.2l-.6-1.7h-.3c-.4.6-.9 1.1-1.6 1.4s-1.5.5-2.4.5c-1.5 0-2.6-.4-3.4-1.3s-1.2-2-1.2-3.6V54h4.6v7.3c0 .9.1 1.5.4 2s.7.7 1.2.7c.8 0 1.4-.3 1.7-.9s.5-1.7.5-3.1v-6h4.6v13.3H212zM226.8 67.2l-.9-1.8h-.1c-.6.8-1.2 1.3-1.9 1.6s-1.5.4-2.5.4c-1.2 0-2.2-.4-3-1.1s-1.1-1.8-1.1-3.2c0-1.4.5-2.5 1.5-3.2s2.4-1.1 4.3-1.2l2.2-.1v-.2c0-1.1-.5-1.6-1.6-1.6-1 0-2.2.3-3.7 1l-1.3-3c1.5-.8 3.5-1.2 5.9-1.2 1.7 0 3 .4 4 1.3s1.4 2 1.4 3.5v8.7h-3.2zm-3.4-3c.6 0 1-.2 1.4-.5s.6-.8.6-1.4v-1h-1.1c-1.5.1-2.3.6-2.3 1.7.1.8.6 1.2 1.4 1.2zM240.6 53.7c.4 0 .8 0 1.1.1h.3l-.4 4.3c-.4-.1-.9-.1-1.6-.1-1 0-1.7.2-2.2.7s-.7 1.1-.7 2v6.5h-4.6V54h3.4l.7 2.1h.2c.4-.7.9-1.3 1.6-1.7s1.6-.7 2.2-.7zM247.5 67.5c-.9 0-1.8-.3-2.5-.8s-1.3-1.3-1.6-2.4-.6-2.3-.6-3.7c0-2.2.4-3.8 1.3-5.1s2.1-1.8 3.6-1.8c.7 0 1.4.1 2 .4s1.1.8 1.5 1.5h.1c-.1-1-.2-2.1-.2-3.1V49h4.6v18.2h-3.5l-1-1.7h-.2c-.7 1.3-1.9 2-3.5 2zm1.9-3.7c.7 0 1.3-.2 1.6-.7s.5-1.2.5-2.1v-.4c0-1.2-.2-2-.5-2.5s-.9-.7-1.6-.7c-.6 0-1.1.3-1.4.8s-.5 1.4-.5 2.4.2 1.8.5 2.4.8.8 1.4.8zM257.8 65.3c0-.7.2-1.3.6-1.7s1-.6 1.9-.6c.8 0 1.4.2 1.8.6s.6.9.6 1.7c0 .7-.2 1.3-.6 1.6s-1 .6-1.8.6-1.4-.2-1.8-.6-.7-.9-.7-1.6z"/></g><g><path class="st0" d="M26.5 105.2H16.3V88.1h10.2v3.7H21v2.7h5.1v3.7H21v3.2h5.5v3.8zM39 101.1c0 1.4-.5 2.5-1.5 3.2s-2.4 1.1-4.2 1.1c-1 0-1.8-.1-2.6-.2s-1.5-.3-2.2-.6v-3.7c.7.3 1.5.6 2.3.8s1.6.3 2.3.3c1 0 1.5-.2 1.5-.7 0-.2-.1-.4-.4-.6s-1.1-.5-2.4-1.1c-1.2-.5-2.1-1.1-2.6-1.7s-.7-1.4-.7-2.4c0-1.2.5-2.2 1.4-2.9s2.3-1 4-1c.9 0 1.7.1 2.5.3s1.6.5 2.4.8l-1.2 3c-.6-.3-1.3-.5-1.9-.7s-1.2-.3-1.7-.3c-.8 0-1.1.2-1.1.6 0 .2.1.4.4.6s1 .5 2.3 1c.9.4 1.6.8 2.1 1.1s.8.8 1 1.3.3 1.1.3 1.8zM47.6 101.8c.6 0 1.4-.2 2.2-.5v3.3c-.6.3-1.2.5-1.8.6s-1.2.2-2 .2c-1.5 0-2.6-.4-3.3-1.1s-1-1.9-1-3.5v-5.5h-1.6v-1.9l2-1.4 1.2-2.8h3v2.7h3.3v3.4h-3.3v5.2c0 .9.5 1.3 1.3 1.3zM60.3 105.2l-.9-1.8h-.1c-.6.8-1.2 1.3-1.9 1.6s-1.5.4-2.5.4c-1.2 0-2.2-.4-3-1.1s-1.1-1.8-1.1-3.2c0-1.4.5-2.5 1.5-3.2s2.4-1.1 4.3-1.2l2.2-.1v-.2c0-1.1-.5-1.6-1.6-1.6-1 0-2.2.3-3.7 1l-1.3-3c1.5-.8 3.5-1.2 5.9-1.2 1.7 0 3 .4 4 1.3s1.4 2 1.4 3.5v8.7h-3.2zm-3.4-3c.6 0 1-.2 1.4-.5s.6-.8.6-1.4v-1h-1.1c-1.5.1-2.3.6-2.3 1.7.1.8.6 1.2 1.4 1.2zM74.3 91.7c1.4 0 2.6.6 3.4 1.8s1.3 2.9 1.3 5c0 2.2-.4 3.8-1.3 5.1s-2 1.8-3.6 1.8c-.5 0-.9-.1-1.3-.2s-.7-.3-1-.4-.7-.5-1-.9h-.3l-.7 1.3h-3.6V87h4.6v4.1c0 .5-.1 1.3-.2 2.5h.2c.4-.7 1-1.2 1.5-1.5s1.2-.4 2-.4zm-1.7 3.6c-.6 0-1.1.2-1.4.7s-.4 1.1-.4 2.1v.6c0 1.1.1 1.9.4 2.3s.8.7 1.5.7c.5 0 1-.3 1.2-.8s.4-1.4.4-2.4c0-2.1-.6-3.2-1.7-3.2zM85.7 105.2h-4.6V87h4.6v18.2zM88.3 88.6c0-.7.2-1.2.6-1.5s1-.5 1.9-.5 1.5.2 1.9.5.6.9.6 1.5c0 1.3-.8 2-2.4 2-1.8.1-2.6-.6-2.6-2zm4.7 16.6h-4.6V91.9H93v13.3zM106 101.1c0 1.4-.5 2.5-1.5 3.2s-2.4 1.1-4.2 1.1c-1 0-1.8-.1-2.6-.2s-1.5-.3-2.2-.6v-3.7c.7.3 1.5.6 2.3.8s1.6.3 2.3.3c1 0 1.5-.2 1.5-.7 0-.2-.1-.4-.4-.6s-1.1-.5-2.4-1.1c-1.2-.5-2.1-1.1-2.6-1.7s-.7-1.4-.7-2.4c0-1.2.5-2.2 1.4-2.9s2.3-1 4-1c.9 0 1.7.1 2.5.3s1.6.5 2.4.8l-1.2 3c-.6-.3-1.3-.5-1.9-.7s-1.2-.3-1.7-.3c-.8 0-1.1.2-1.1.6 0 .2.1.4.4.6s1 .5 2.3 1c.9.4 1.6.8 2.1 1.1s.8.8 1 1.3.3 1.1.3 1.8zM116.4 105.2V98c0-1.8-.5-2.7-1.6-2.7-.8 0-1.3.3-1.7.9s-.5 1.7-.5 3.1v5.8H108V87h4.6v2.6c0 1.2-.1 2.5-.2 4h.2c.4-.7 1-1.2 1.6-1.5s1.3-.4 2.1-.4c1.5 0 2.6.4 3.5 1.3s1.2 2.1 1.2 3.6v8.6h-4.6zM130 105.5c-2.2 0-3.9-.6-5.2-1.8s-1.8-2.8-1.8-5 .6-4 1.7-5.2 2.8-1.8 4.9-1.8c2 0 3.5.5 4.6 1.6s1.6 2.5 1.6 4.5v2h-8.2c0 .7.3 1.3.8 1.7s1.2.6 2.1.6c.8 0 1.5-.1 2.2-.2s1.4-.4 2.2-.8v3.3c-.7.4-1.5.6-2.2.8s-1.6.3-2.7.3zm-.2-10.7c-.5 0-1 .2-1.4.5s-.6.9-.6 1.6h3.9c0-.6-.2-1.2-.5-1.5s-.8-.6-1.4-.6zM142.1 105.5c-.9 0-1.8-.3-2.5-.8s-1.3-1.3-1.6-2.4-.6-2.3-.6-3.7c0-2.2.4-3.8 1.3-5.1s2.1-1.8 3.6-1.8c.7 0 1.4.1 2 .4s1.1.8 1.5 1.5h.1c-.1-1-.2-2.1-.2-3.1V87h4.6v18.2h-3.5l-1-1.7h-.2c-.7 1.3-1.9 2-3.5 2zm1.9-3.7c.7 0 1.3-.2 1.6-.7s.4-1.1.4-2.1v-.4c0-1.2-.2-2-.5-2.5s-.9-.7-1.6-.7c-.6 0-1.1.3-1.4.8s-.5 1.4-.5 2.4.2 1.8.5 2.4.9.8 1.5.8zM168.2 105.2h-4.7v-9.1c0-1.1 0-2.1.1-3-.3.4-.6.7-1.1 1.1l-1.9 1.6-2.4-3 5.9-4.8h4.2v17.2zM173.2 105.2l5.9-13.3h-7.4v-3.8H184v2.7l-6 14.4h-4.8zM197.6 95.9c0 3.4-.7 5.8-2.2 7.3s-3.8 2.2-6.9 2.2c-1 0-1.8 0-2.4-.1v-3.7c.7.1 1.3.2 2 .2 1.7 0 2.9-.3 3.8-1s1.4-1.8 1.5-3.2h-.1c-.3.6-.6 1-.9 1.2s-.7.4-1.1.6-1 .2-1.6.2c-1.5 0-2.6-.5-3.5-1.5S185 95.7 185 94c0-1.9.5-3.4 1.6-4.5s2.6-1.6 4.4-1.6c2.1 0 3.7.7 4.9 2.1s1.7 3.4 1.7 5.9zm-6.4-4.3c-.5 0-.9.2-1.2.6s-.5 1-.5 1.8c0 .6.1 1.2.4 1.5s.7.6 1.3.6c.5 0 .9-.2 1.3-.6s.6-.8.6-1.3c0-.7-.2-1.3-.5-1.8s-.9-.8-1.4-.8zM211.2 96.7c0 3-.5 5.3-1.5 6.7s-2.6 2.1-4.7 2.1c-2 0-3.6-.7-4.6-2.2s-1.6-3.7-1.6-6.6c0-3 .5-5.3 1.5-6.7s2.6-2.1 4.7-2.1c2 0 3.6.7 4.6 2.2s1.6 3.6 1.6 6.6zm-7.8 0c0 1.9.1 3.3.4 4s.6 1.1 1.2 1.1 1-.4 1.2-1.1.4-2.1.4-4-.1-3.2-.4-4-.6-1.1-1.2-1.1-1 .4-1.2 1.1-.4 2-.4 4zM212.6 103.3c0-.7.2-1.3.6-1.7s1-.6 1.9-.6c.8 0 1.4.2 1.8.6s.6.9.6 1.7c0 .7-.2 1.3-.6 1.6s-1 .6-1.8.6-1.4-.2-1.8-.6-.7-.9-.7-1.6z"/></g></svg>