<svg id="Layer_1" xmlns="http://www.w3.org/2000/svg" viewBox="0 0 300 250"><style>.st0{fill:#fff}</style><path class="st0" d="M21.4 30.5l3-6.4h5l-5.6 10.4v6.7h-4.7v-6.6L13.5 24h5l2.9 6.5zM43.2 34.6c0 2.2-.6 3.9-1.8 5.1s-2.8 1.8-4.9 1.8c-2 0-3.6-.6-4.8-1.9s-1.8-2.9-1.8-5c0-2.2.6-3.8 1.8-5s2.8-1.8 4.9-1.8c1.3 0 2.5.3 3.5.8s1.8 1.3 2.3 2.4.8 2.2.8 3.6zm-8.6 0c0 1.1.2 2 .5 2.6s.8.9 1.5.9 1.2-.3 1.5-.9.4-1.5.4-2.6-.1-2-.4-2.6-.8-.9-1.5-.9-1.2.3-1.5.9-.5 1.4-.5 2.6zM54.8 41.2l-.6-1.7h-.3c-.4.6-.9 1.1-1.6 1.4s-1.5.5-2.4.5c-1.5 0-2.6-.4-3.4-1.3s-1.2-2-1.2-3.6V28h4.6v7.3c0 .9.1 1.5.4 2s.7.7 1.2.7c.8 0 1.4-.3 1.7-.9s.5-1.7.5-3.1v-6h4.6v13.3h-3.5zM65 24.1l.2.3c-.7 2.9-1.4 5.1-2.1 6.6h-3.3c.5-2.5.9-4.8 1.1-6.8H65zM74.5 27.7c.4 0 .8 0 1.1.1h.3l-.4 4.3c-.4-.1-.9-.1-1.6-.1-1 0-1.7.2-2.2.7s-.7 1.1-.7 2v6.5h-4.6V28h3.4l.7 2.1h.2c.4-.7.9-1.3 1.6-1.7s1.5-.7 2.2-.7zM83.7 41.5c-2.2 0-3.9-.6-5.2-1.8s-1.8-2.8-1.8-5 .6-4 1.7-5.2 2.8-1.8 4.9-1.8c2 0 3.5.5 4.6 1.6s1.6 2.5 1.6 4.5v2h-8.2c0 .7.3 1.3.8 1.7s1.2.6 2.1.6c.8 0 1.5-.1 2.2-.2s1.4-.4 2.2-.8v3.3c-.7.4-1.5.6-2.2.8s-1.7.3-2.7.3zm-.3-10.7c-.5 0-1 .2-1.4.5s-.6.9-.6 1.6h3.9c0-.6-.2-1.2-.5-1.5s-.8-.6-1.4-.6zM106.1 41.2l-.9-1.8h-.1c-.6.8-1.2 1.3-1.9 1.6s-1.5.4-2.5.4c-1.2 0-2.2-.4-3-1.1s-1.1-1.8-1.1-3.2c0-1.4.5-2.5 1.5-3.2s2.4-1.1 4.3-1.2l2.2-.1v-.2c0-1.1-.5-1.6-1.6-1.6-1 0-2.2.3-3.7 1l-1.3-3c1.5-.8 3.5-1.2 5.9-1.2 1.7 0 3 .4 4 1.3s1.4 2 1.4 3.5v8.7h-3.2zm-3.4-3c.6 0 1-.2 1.4-.5s.6-.8.6-1.4v-1h-1.1c-1.5.1-2.3.6-2.3 1.7.1.8.5 1.2 1.4 1.2zM116.5 41.2h-4.6V23h4.6v18.2zM130.6 41.2l-1.5-6.3-.4-1.9-.2-1.5h-.1c-.4 2.2-.6 3.6-.8 4.1l-1.3 5.6h-4.8L117.9 28h4.5l1.1 5.1c.3 1.8.5 3.2.6 4.4h.1c0-.7.2-2.1.6-4.1L126 28h5.1l1.1 5.4c.4 1.7.6 3.1.7 4h.1c0-.6.1-1.3.2-2.2s.2-1.6.4-2.1l1.2-5.1h4.4l-3.6 13.3h-5zM149.2 41.2l-.9-1.8h-.1c-.6.8-1.2 1.3-1.9 1.6s-1.5.4-2.5.4c-1.2 0-2.2-.4-3-1.1s-1.1-1.8-1.1-3.2c0-1.4.5-2.5 1.5-3.2s2.4-1.1 4.3-1.2l2.2-.1v-.2c0-1.1-.5-1.6-1.6-1.6-1 0-2.2.3-3.7 1l-1.3-3c1.5-.8 3.5-1.2 5.9-1.2 1.7 0 3 .4 4 1.3s1.4 2 1.4 3.5v8.7h-3.2zm-3.4-3c.6 0 1-.2 1.4-.5s.6-.8.6-1.4v-1h-1.1c-1.5.1-2.3.6-2.3 1.7.1.8.5 1.2 1.4 1.2zM153.4 28h4.8l2.2 7.6c.1.4.2.9.2 1.4h.1c.1-.5.2-1 .3-1.4l2.3-7.6h4.7l-5.2 14.1c-.7 1.8-1.5 3.1-2.5 3.8S158 47 156.5 47c-.6 0-1.2-.1-1.9-.2v-3.6c.4.1.9.1 1.4.1.4 0 .8-.1 1.1-.2s.6-.4.8-.7.5-.8.7-1.4l-5.2-13zM179.4 37.2c0 1.4-.5 2.5-1.5 3.2s-2.4 1.1-4.2 1.1c-1 0-1.8-.1-2.6-.2s-1.5-.3-2.2-.6V37c.7.3 1.5.6 2.3.8s1.6.3 2.3.3c1 0 1.5-.2 1.5-.7 0-.2-.1-.4-.4-.6s-1.1-.5-2.4-1.1c-1.2-.5-2.1-1.1-2.6-1.7s-.7-1.4-.7-2.4c0-1.2.5-2.2 1.4-2.9s2.3-1 4-1c.9 0 1.7.1 2.5.3s1.6.5 2.4.8l-1.2 3c-.6-.3-1.3-.5-1.9-.7s-1.2-.3-1.7-.3c-.8 0-1.1.2-1.1.6 0 .2.1.4.4.6s1 .5 2.3 1c.9.4 1.6.8 2.1 1.1s.8.8 1 1.3.3 1 .3 1.8z"/><g><path class="st0" d="M23.1 53.7c.4 0 .8 0 1.1.1h.3l-.4 4.3c-.4-.1-.9-.1-1.6-.1-1 0-1.7.2-2.2.7s-.7 1.1-.7 2v6.5H15V54h3.4l.7 2.1h.2c.4-.7.9-1.3 1.6-1.7s1.5-.7 2.2-.7zM32.2 67.5c-2.2 0-3.9-.6-5.2-1.8s-1.8-2.8-1.8-5 .6-4 1.7-5.2 2.8-1.8 4.9-1.8c2 0 3.5.5 4.6 1.6s1.6 2.5 1.6 4.5v2h-8.2c0 .7.3 1.3.8 1.7s1.2.6 2.1.6c.8 0 1.5-.1 2.2-.2s1.4-.4 2.2-.8v3.3c-.7.4-1.5.6-2.2.8s-1.6.3-2.7.3zM32 56.8c-.5 0-1 .2-1.4.5s-.6.9-.6 1.6h3.9c0-.6-.2-1.2-.5-1.5s-.8-.6-1.4-.6zM48.9 67.2l-.9-1.7h-.1c-.6.8-1.2 1.3-1.9 1.6s-1.5.4-2.5.4c-1.2 0-2.2-.4-3-1.1s-1.1-1.8-1.1-3.2c0-1.4.5-2.5 1.5-3.2s2.4-1.1 4.3-1.2l2.2-.1v-.2c0-1.1-.5-1.6-1.6-1.6-1 0-2.2.3-3.7 1l-1.3-3c1.5-.8 3.5-1.2 5.9-1.2 1.7 0 3 .4 4 1.3s1.4 2 1.4 3.5v8.7h-3.2zm-3.4-3c.6 0 1-.2 1.4-.5s.6-.8.6-1.4v-1h-1.1c-1.5.1-2.3.6-2.3 1.7.1.8.5 1.2 1.4 1.2zM58.8 67.5c-.9 0-1.8-.3-2.5-.8s-1.3-1.3-1.6-2.4-.6-2.3-.6-3.7c0-2.2.4-3.8 1.3-5.1s2.1-1.8 3.6-1.8c.7 0 1.4.1 2 .4s1.1.8 1.5 1.5h.1c-.1-1-.2-2.1-.2-3.1V49H67v18.2h-3.5l-1-1.7h-.2c-.8 1.3-1.9 2-3.5 2zm1.9-3.7c.7 0 1.3-.2 1.6-.7s.5-1.2.5-2.1v-.4c0-1.2-.2-2-.5-2.5s-.9-.7-1.6-.7c-.6 0-1.1.3-1.4.8s-.5 1.4-.5 2.4.2 1.8.5 2.4.7.8 1.4.8zM68 54h4.8l2.2 7.6c.1.4.2.9.2 1.4h.1c.1-.5.2-1 .3-1.4L78 54h4.7l-5.2 14.1c-.7 1.8-1.5 3.1-2.5 3.8S72.7 73 71.1 73c-.6 0-1.2-.1-1.9-.2v-3.6c.4.1.9.1 1.4.1.4 0 .8-.1 1.1-.2s.6-.4.8-.7.5-.8.7-1.4L68 54zM96.1 63.8c.6 0 1.4-.2 2.2-.5v3.3c-.6.3-1.2.5-1.8.6s-1.2.2-2 .2c-1.5 0-2.6-.4-3.3-1.1s-1-1.9-1-3.5v-5.5h-1.6v-1.9l2-1.4 1.2-2.8h3V54h3.3v3.4h-3.3v5.2c0 .8.5 1.2 1.3 1.2zM112.8 60.6c0 2.2-.6 3.9-1.8 5.1s-2.8 1.8-4.9 1.8c-2 0-3.6-.6-4.8-1.9s-1.8-2.9-1.8-5c0-2.2.6-3.8 1.8-5s2.8-1.8 4.9-1.8c1.3 0 2.5.3 3.5.8s1.8 1.3 2.3 2.4.8 2.2.8 3.6zm-8.6 0c0 1.1.2 2 .5 2.6s.8.9 1.5.9 1.2-.3 1.5-.9.4-1.5.4-2.6-.1-2-.4-2.6-.8-.9-1.5-.9-1.2.3-1.5.9-.5 1.4-.5 2.6zM128.7 67.5c-.7 0-1.3-.1-1.8-.3s-1.1-.6-1.6-1.2h-.2c.1.9.2 1.5.2 1.7V73h-4.6V54h3.7l.6 1.7h.2c.9-1.3 2-1.9 3.5-1.9s2.6.6 3.5 1.8 1.3 2.9 1.3 5-.4 3.8-1.3 5.1-2 1.8-3.5 1.8zm-1.5-10.2c-.7 0-1.1.2-1.4.7s-.4 1.2-.4 2.1v.4c0 1.1.2 2 .5 2.5s.8.8 1.4.8c.6 0 1-.3 1.3-.8s.4-1.3.4-2.5c0-1.1-.1-2-.4-2.5s-.8-.7-1.4-.7zM143.7 53.7c.4 0 .8 0 1.1.1h.3l-.4 4.3c-.4-.1-.9-.1-1.6-.1-1 0-1.7.2-2.2.7s-.7 1.1-.7 2v6.5h-4.6V54h3.4l.7 2.1h.2c.4-.7.9-1.3 1.6-1.7s1.5-.7 2.2-.7zM159.2 60.6c0 2.2-.6 3.9-1.8 5.1s-2.8 1.8-4.9 1.8c-2 0-3.6-.6-4.8-1.9s-1.8-2.9-1.8-5c0-2.2.6-3.8 1.8-5s2.8-1.8 4.9-1.8c1.3 0 2.5.3 3.5.8s1.8 1.3 2.3 2.4.8 2.2.8 3.6zm-8.6 0c0 1.1.2 2 .5 2.6s.8.9 1.5.9 1.2-.3 1.5-.9.4-1.5.4-2.6-.1-2-.4-2.6-.8-.9-1.5-.9-1.2.3-1.5.9-.5 1.4-.5 2.6zM167.8 63.8c.6 0 1.4-.2 2.2-.5v3.3c-.6.3-1.2.5-1.8.6s-1.2.2-2 .2c-1.5 0-2.6-.4-3.3-1.1s-1-1.9-1-3.5v-5.5h-1.6v-1.9l2-1.4 1.2-2.8h3V54h3.3v3.4h-3.3v5.2c.1.8.5 1.2 1.3 1.2zM178.3 67.5c-2.2 0-3.9-.6-5.2-1.8s-1.8-2.8-1.8-5 .6-4 1.7-5.2 2.8-1.8 4.9-1.8c2 0 3.5.5 4.6 1.6s1.6 2.5 1.6 4.5v2h-8.2c0 .7.3 1.3.8 1.7s1.2.6 2.1.6c.8 0 1.5-.1 2.2-.2s1.4-.4 2.2-.8v3.3c-.7.4-1.5.6-2.2.8s-1.6.3-2.7.3zm-.3-10.7c-.5 0-1 .2-1.4.5s-.6.9-.6 1.6h3.9c0-.6-.2-1.2-.5-1.5s-.8-.6-1.4-.6zM192.3 67.5c-2.2 0-3.8-.6-4.9-1.8s-1.7-2.9-1.7-5.1c0-2.2.6-3.9 1.8-5.1s2.9-1.8 5.2-1.8c1.5 0 3 .3 4.3 1l-1.3 3.4c-.6-.2-1.1-.4-1.5-.6s-1-.2-1.5-.2c-.7 0-1.3.3-1.7.9s-.6 1.4-.6 2.4c0 2.1.8 3.2 2.4 3.2 1.3 0 2.6-.4 3.9-1.2v3.6c-1.3.9-2.8 1.3-4.4 1.3zM205.2 63.8c.6 0 1.4-.2 2.2-.5v3.3c-.6.3-1.2.5-1.8.6s-1.2.2-2 .2c-1.5 0-2.6-.4-3.3-1.1s-1-1.9-1-3.5v-5.5h-1.6v-1.9l2-1.4 1.2-2.8h3V54h3.3v3.4H204v5.2c0 .8.4 1.2 1.2 1.2z"/></g><g><path class="st0" d="M27.7 86.6c0 2.2-.6 3.9-1.8 5.1s-2.8 1.8-4.9 1.8c-2 0-3.6-.6-4.8-1.9s-1.8-2.9-1.8-5c0-2.2.6-3.8 1.8-5s2.8-1.8 4.9-1.8c1.3 0 2.5.3 3.5.8s1.8 1.3 2.3 2.4.8 2.2.8 3.6zm-8.6 0c0 1.1.2 2 .5 2.6s.8.9 1.5.9 1.2-.3 1.5-.9.4-1.5.4-2.6-.1-2-.4-2.6-.8-.9-1.5-.9-1.2.3-1.5.9-.5 1.4-.5 2.6zM39.3 93.2l-.6-1.7h-.3c-.4.6-.9 1.1-1.6 1.4s-1.5.5-2.4.5c-1.5 0-2.6-.4-3.4-1.3s-1.2-2-1.2-3.6v-8.6h4.6v7.3c0 .9.1 1.5.4 2s.7.7 1.2.7c.8 0 1.4-.3 1.7-.9s.5-1.7.5-3.1v-5.8h4.6v13.3h-3.5zM53.5 79.7c.4 0 .8 0 1.1.1h.3l-.4 4.3c-.4-.1-.9-.1-1.6-.1-1 0-1.7.2-2.2.7s-.7 1.1-.7 2v6.5h-4.6V79.9h3.4l.7 2.1h.2c.4-.7.9-1.3 1.6-1.7s1.5-.6 2.2-.6zM70.4 93.2V86c0-1.8-.5-2.7-1.6-2.7-.8 0-1.3.3-1.7.9s-.5 1.7-.5 3.1v5.8H62V75h4.6v2.6c0 1.2-.1 2.5-.2 4h.2c.4-.7 1-1.2 1.6-1.5s1.3-.4 2.1-.4c1.5 0 2.6.4 3.5 1.3s1.2 2 1.2 3.6v8.6h-4.6zM90.4 86.6c0 2.2-.6 3.9-1.8 5.1s-2.8 1.8-4.9 1.8c-2 0-3.6-.6-4.8-1.9s-1.8-2.9-1.8-5c0-2.2.6-3.8 1.8-5s2.8-1.8 4.9-1.8c1.3 0 2.5.3 3.5.8s1.8 1.3 2.3 2.4.8 2.2.8 3.6zm-8.6 0c0 1.1.2 2 .5 2.6s.8.9 1.5.9 1.2-.3 1.5-.9.4-1.5.4-2.6-.1-2-.4-2.6-.8-.9-1.5-.9-1.2.3-1.5.9-.5 1.4-.5 2.6zM108.8 93.2V86c0-.9-.1-1.6-.4-2s-.6-.7-1.2-.7c-.7 0-1.2.3-1.5.9s-.5 1.5-.5 2.8v6.2h-4.6V86c0-.9-.1-1.6-.4-2s-.6-.7-1.1-.7c-.7 0-1.2.3-1.6 1S97 86 97 87.4v5.8h-4.6V79.9h3.5l.6 1.6h.3c.4-.6.9-1.1 1.5-1.4s1.4-.5 2.3-.5c1.9 0 3.3.6 4 1.7h.4c.4-.5.9-1 1.6-1.3s1.4-.5 2.2-.5c1.6 0 2.7.4 3.5 1.2s1.1 2 1.1 3.7V93h-4.6zM122.4 93.5c-2.2 0-3.9-.6-5.2-1.8s-1.8-2.8-1.8-5 .6-4 1.7-5.2 2.8-1.8 4.9-1.8c2 0 3.5.5 4.6 1.6s1.6 2.5 1.6 4.5v2H120c0 .7.3 1.3.8 1.7s1.2.6 2.1.6c.8 0 1.5-.1 2.2-.2s1.4-.4 2.2-.8v3.3c-.7.4-1.5.6-2.2.8s-1.6.3-2.7.3zm-.3-10.7c-.5 0-1 .2-1.4.5s-.6.9-.6 1.6h3.9c0-.6-.2-1.2-.5-1.5s-.8-.6-1.4-.6zM134.9 93.2h-4.6V75h4.6v18.2zM146.3 93.2l-.9-1.8h-.1c-.6.8-1.2 1.3-1.9 1.6s-1.5.4-2.5.4c-1.2 0-2.2-.4-3-1.1s-1.1-1.8-1.1-3.2c0-1.4.5-2.5 1.5-3.2s2.4-1.1 4.3-1.2l2.2-.1v-.2c0-1.1-.5-1.6-1.6-1.6-1 0-2.2.3-3.7 1l-1.3-3c1.5-.8 3.5-1.2 5.9-1.2 1.7 0 3 .4 4 1.3s1.4 2 1.4 3.5v8.7h-3.2zm-3.4-3c.6 0 1-.2 1.4-.5s.6-.8.6-1.4v-1h-1.1c-1.5.1-2.3.6-2.3 1.7.1.8.5 1.2 1.4 1.2zM160.5 93.2V86c0-.9-.1-1.5-.4-2s-.7-.7-1.2-.7c-.8 0-1.3.3-1.7.9s-.5 1.7-.5 3.2v5.8h-4.6V79.9h3.5l.6 1.6h.3c.4-.6.9-1.1 1.6-1.4s1.5-.5 2.4-.5c1.5 0 2.6.4 3.4 1.3s1.2 2.1 1.2 3.6v8.6h-4.6zM171.9 93.5c-.9 0-1.8-.3-2.5-.8s-1.3-1.3-1.6-2.4-.6-2.3-.6-3.7c0-2.2.4-3.8 1.3-5.1s2.1-1.8 3.6-1.8c.7 0 1.4.1 2 .4s1.1.8 1.5 1.5h.1c-.1-1-.2-2.1-.2-3.1V75h4.6v18.2h-3.5l-1-1.7h-.2c-.8 1.3-2 2-3.5 2zm1.8-3.7c.7 0 1.3-.2 1.6-.7s.5-1.2.5-2.1v-.4c0-1.2-.2-2-.5-2.5s-.9-.7-1.6-.7c-.6 0-1.1.3-1.4.8s-.5 1.4-.5 2.4.2 1.8.5 2.4.8.8 1.4.8zM182.1 91.3c0-.7.2-1.3.6-1.7s1-.6 1.9-.6c.8 0 1.4.2 1.8.6s.6.9.6 1.7c0 .7-.2 1.3-.6 1.6s-1 .6-1.8.6-1.4-.2-1.8-.6-.7-.9-.7-1.6z"/></g></svg>