<svg id="Layer_1" xmlns="http://www.w3.org/2000/svg" viewBox="0 0 300 250"><style>.st0{fill:#fff}.st1{fill:none}</style><path class="st0" d="M238.4 82.6h21.1l5.3 15.9h-2.4L257.8 85l-20.1-.1z"/><path class="st0" d="M236.9 87.3h19.2l3.8 11.2h-2.4l-3-8.9h-18.3z"/><path class="st0" d="M235.6 92.1l-6.4 19.5 1.9 1.5 5.8-18.8h14.4l.7-2.2z"/><path class="st0" d="M238.6 96.6h11.9l-.8 2.2h-9.4L235 116l-1.9-1.7z"/><path class="st0" d="M237.3 117.7l17 11.7 1.7-1.5-16.2-11.2 4.3-13.5-2-1.6z"/><path class="st0" d="M246 104.5l2 1.3-2.9 8.8 14.5 10.4-1.7 1.6-15.4-11.1z"/><path class="st0" d="M261.9 121.1l-11.9-8-1.7 1.1 13.4 9.7 17.1-12.4-.9-2.3z"/><path class="st0" d="M252.5 111.2l1.5-1.3 7.8 5.6 14.5-10.6.9 2.1-15.3 11.2z"/><path class="st0" d="M261.5 110.1l.9 2.2 13.3-9.7-6.8-20h-2.3l6.5 19z"/><path class="st0" d="M261.8 82.6h2.1l6.4 18.2-9.5 7-.9-1.8 7.9-6.2zM236.1 55.3l-1.6 2.6-1.6-2.6H231v6.6h1.8v-3.8l1.7 2.6 1.7-2.6v3.8h1.8v-6.6zM239.2 55.3h1.8v6.6h-1.8zM242.3 55.3v6.6h5v-1.6h-3.2v-5zM248.1 55.3h1.8v6.6h-1.8zM250.8 55.3v1.6h1.9v5h1.9v-5h1.9v-1.6zM259.6 57.4l.7 1.9h-1.5l.8-1.9zm-.8-2.1l-2.8 6.6h1.9l.5-1.2h2.5l.5 1.2h2l-2.8-6.6h-1.8zM264 55.3h3.1c1 0 1.7.3 2.1.7.4.4.6.9.6 1.5 0 1-.5 1.7-1.4 2l1.6 2.3h-2.1l-1.3-2h-.8v2H264v-6.5zm3 3.2c.6 0 1-.3 1-.8s-.4-.8-1-.8h-1.2v1.6h1.2zM272.4 59.4l-2.5-4.1h2.1l1.3 2.4 1.4-2.4h2l-2.5 4.1v2.5h-1.8zM231.1 64.2h3.7c.9 0 1.6.2 2 .7.3.3.5.7.5 1.2 0 .8-.5 1.3-1.1 1.6.9.3 1.4.8 1.4 1.8 0 1.2-1 2-2.8 2H231v-7.3zm3.2 3c.6 0 1-.2 1-.6 0-.4-.3-.6-.9-.6H233v1.3h1.3zm.3 2.7c.6 0 1-.2 1-.7 0-.4-.3-.7-1-.7H233v1.3h1.6zM238.5 64.2h5.9V66h-3.9v1.1h3.5v1.6h-3.5v1.1h3.9v1.7h-5.9zM245.5 64.2h1.9l3 3.9v-3.9h2v7.3h-1.8l-3.1-4v4h-2zM253.6 64.2h5.9V66h-3.9v1.1h3.5v1.6h-3.5v1.1h4v1.7h-6zM260.6 64.2h5.8V66h-3.8v1.3h3.5v1.6h-3.5v2.6h-2zM267.4 64.2h2v7.3h-2zM272.5 66h-2.2v-1.8h6.4V66h-2.2v5.5h-2zM232.4 73.9h1.2l1.9 4.5h-1.3l-.3-.8h-1.7l-.3.8h-1.3l1.8-4.5zm1.1 2.7l-.5-1.3-.5 1.3h1zM235.5 77.7l.7-.8c.4.4.9.5 1.4.5.3 0 .5-.1.5-.3 0-.2-.1-.3-.8-.4-1-.2-1.7-.5-1.7-1.4 0-.8.7-1.4 1.7-1.4.8 0 1.4.2 1.8.6l-.6.9c-.4-.3-.9-.4-1.3-.4-.3 0-.4.1-.4.3 0 .2.2.3.8.4 1 .2 1.7.6 1.7 1.4 0 .9-.7 1.5-1.8 1.5-.7-.2-1.4-.4-2-.9M239.6 77.7l.7-.8c.4.4.9.5 1.4.5.3 0 .5-.1.5-.3 0-.2-.1-.3-.8-.4-1-.2-1.7-.5-1.7-1.4 0-.8.7-1.4 1.7-1.4.8 0 1.4.2 1.8.6l-.6.9c-.4-.3-.9-.4-1.3-.4-.3 0-.4.1-.4.3 0 .2.2.3.8.4 1 .2 1.7.6 1.7 1.4 0 .9-.7 1.5-1.8 1.5-.7-.2-1.5-.4-2-.9M243.9 76.1c0-1.3 1-2.3 2.4-2.3s2.4 1 2.4 2.3c0 1.3-1 2.3-2.4 2.3-1.3.1-2.4-1-2.4-2.3m3.6 0c0-.7-.5-1.2-1.1-1.2-.7 0-1.1.5-1.1 1.2 0 .6.5 1.2 1.1 1.2.6 0 1.1-.5 1.1-1.2M249.3 76.1c0-1.3 1-2.3 2.4-2.3.9 0 1.5.4 1.9.9l-.9.7c-.3-.3-.5-.5-1-.5-.6 0-1.1.5-1.1 1.2s.4 1.2 1.1 1.2c.5 0 .7-.2 1-.5l.9.7c-.4.6-1 1-2 1-1.3 0-2.3-1-2.3-2.4M254.1 73.9h1.2v4.5h-1.2zM257.7 73.9h1.2l1.9 4.5h-1.3l-.3-.8h-1.7l-.3.8h-1.3l1.8-4.5zm1.1 2.7l-.5-1.3-.5 1.3h1zM261.7 75h-1.3v-1.1h3.9V75H263v3.4h-1.3zM264.9 73.9h1.2v4.5h-1.2zM266.8 76.1c0-1.3 1-2.3 2.4-2.3s2.4 1 2.4 2.3c0 1.3-1 2.3-2.4 2.3s-2.4-1-2.4-2.3m3.5 0c0-.7-.5-1.2-1.1-1.2-.7 0-1.1.5-1.1 1.2 0 .6.5 1.2 1.1 1.2.7 0 1.1-.5 1.1-1.2M272.3 73.9h1.1l1.8 2.4v-2.4h1.3v4.5h-1.1l-1.9-2.5v2.5h-1.2z"/><path class="st1" d="M229.2 55.3h49.6v74.1h-49.6z"/></svg>