<svg id="Layer_1" xmlns="http://www.w3.org/2000/svg" viewBox="0 0 728 90"><style>.st0{fill:#fff}</style><path class="st0" d="M40.2 45.6h-4.3v-6.4H31v6.4h-4.3V29.9H31v5.8h4.9v-5.8h4.3v15.7zM54.5 39.5c0 2-.5 3.5-1.6 4.7-1.1 1.1-2.6 1.7-4.5 1.7-1.8 0-3.3-.6-4.4-1.7-1.1-1.1-1.6-2.7-1.6-4.6 0-2 .5-3.5 1.6-4.6 1.1-1.1 2.6-1.6 4.5-1.6 1.2 0 2.3.3 3.2.8.9.5 1.6 1.2 2.1 2.2.4.7.7 1.8.7 3.1zm-7.9 0c0 1 .1 1.8.4 2.4s.7.8 1.4.8 1.1-.3 1.4-.8.4-1.3.4-2.4c0-1-.1-1.8-.4-2.4-.3-.5-.7-.8-1.4-.8-.6 0-1.1.3-1.4.8s-.4 1.3-.4 2.4zM64.1 45.6V39c0-.8-.1-1.4-.3-1.8-.2-.4-.6-.6-1.1-.6-.7 0-1.2.3-1.5.8-.3.6-.5 1.5-.5 2.9v5.3h-4.2V33.4h3.2l.5 1.5h.2c.4-.6.9-1 1.5-1.3.6-.3 1.4-.4 2.2-.4 1.3 0 2.4.4 3.1 1.2.7.8 1.1 1.9 1.1 3.3v7.9h-4.2zM82.4 39.5c0 2-.5 3.5-1.6 4.7-1.1 1.1-2.6 1.7-4.5 1.7-1.8 0-3.3-.6-4.4-1.7-1.1-1.1-1.6-2.7-1.6-4.6 0-2 .5-3.5 1.6-4.6 1.1-1.1 2.6-1.6 4.5-1.6 1.2 0 2.3.3 3.2.8.9.5 1.6 1.2 2.1 2.2.4.7.7 1.8.7 3.1zm-7.9 0c0 1 .1 1.8.4 2.4s.7.8 1.4.8 1.1-.3 1.4-.8.4-1.3.4-2.4c0-1-.1-1.8-.4-2.4-.3-.5-.7-.8-1.4-.8-.6 0-1.1.3-1.4.8s-.4 1.3-.4 2.4zM91.7 33.2c.4 0 .7 0 1 .1h.2l-.4 4c-.3-.1-.8-.1-1.4-.1-.9 0-1.6.2-2 .6-.4.4-.6 1-.6 1.8v6h-4.2V33.4h3.1l.7 1.9h.2c.4-.6.8-1.2 1.5-1.6.6-.3 1.3-.5 1.9-.5zM94.1 30.4c0-.6.2-1.1.5-1.4.4-.3.9-.5 1.7-.5.8 0 1.3.2 1.7.5.4.3.5.8.5 1.4 0 1.2-.7 1.8-2.2 1.8-1.4 0-2.2-.6-2.2-1.8zm4.3 15.2h-4.2V33.4h4.2v12.2zM108.6 45.6V39c0-.8-.1-1.4-.3-1.8-.2-.4-.6-.6-1.1-.6-.7 0-1.2.3-1.5.8-.3.6-.5 1.5-.5 2.9v5.3H101V33.4h3.2l.5 1.5h.2c.4-.6.9-1 1.5-1.3.6-.3 1.4-.4 2.2-.4 1.3 0 2.4.4 3.1 1.2.7.8 1.1 1.9 1.1 3.3v7.9h-4.2zM126.7 33.4v2l-1.7.6c.2.4.3.9.3 1.5 0 1.3-.5 2.3-1.4 3.1-.9.7-2.3 1.1-4.1 1.1-.5 0-.8 0-1.1-.1-.1.2-.2.4-.2.5 0 .2.2.4.5.5.3.1.8.2 1.3.2h2c2.7 0 4.1 1.1 4.1 3.4 0 1.5-.6 2.6-1.9 3.5-1.3.8-3 1.2-5.3 1.2-1.7 0-3.1-.3-4-.9-.9-.6-1.4-1.4-1.4-2.5 0-1.5.9-2.4 2.7-2.8-.4-.2-.7-.4-1-.8-.3-.4-.4-.7-.4-1 0-.4.1-.7.3-1 .2-.3.6-.6 1.3-1-.6-.3-1.1-.7-1.5-1.3-.4-.6-.5-1.3-.5-2.2 0-1.3.5-2.4 1.4-3.1s2.2-1.1 3.9-1.1c.2 0 .6 0 1.1.1.5.1.9.1 1.2.1h4.4zm-9.1 13.7c0 .3.2.6.6.8.4.2.9.3 1.5.3 1 0 1.8-.1 2.4-.4.6-.3.9-.6.9-1 0-.3-.2-.5-.6-.7-.4-.1-.9-.2-1.6-.2h-1.6c-.5 0-.8.1-1.1.3-.4.3-.5.6-.5.9zm1.3-9.7c0 1.2.4 1.9 1.3 1.9.4 0 .7-.2.9-.5.2-.3.3-.8.3-1.4 0-1.3-.4-1.9-1.3-1.9-.8 0-1.2.7-1.2 1.9zM139.4 42.5c.6 0 1.2-.1 2-.4v3.1c-.6.2-1.1.4-1.6.5-.5.1-1.1.2-1.8.2-1.4 0-2.4-.3-3.1-1-.6-.7-.9-1.8-.9-3.2v-5h-1.5V35l1.9-1.3 1.1-2.6h2.8v2.4h3v3.1h-3v4.7c0 .8.4 1.2 1.1 1.2zM150.8 45.6V39c0-1.6-.5-2.4-1.5-2.4-.7 0-1.2.3-1.5.9-.3.6-.5 1.5-.5 2.9v5.3h-4.2V28.9h4.2v2.4c0 1.1-.1 2.3-.2 3.7h.2c.4-.6.9-1.1 1.4-1.3.6-.3 1.2-.4 1.9-.4 1.4 0 2.4.4 3.2 1.2.8.8 1.1 1.9 1.1 3.3v7.9h-4.1zM163.4 45.8c-2 0-3.6-.5-4.7-1.6s-1.7-2.6-1.7-4.6c0-2.1.5-3.6 1.6-4.7 1-1.1 2.5-1.6 4.4-1.6 1.8 0 3.2.5 4.2 1.4s1.5 2.3 1.5 4.1v1.9h-7.5c0 .7.3 1.2.7 1.6.5.4 1.1.6 1.9.6.7 0 1.4-.1 2-.2.6-.1 1.3-.4 2-.7v3c-.7.3-1.3.6-2 .7-.6 0-1.5.1-2.4.1zm-.3-9.7c-.5 0-.9.2-1.2.5s-.5.8-.6 1.5h3.6c0-.6-.2-1.1-.5-1.4-.3-.5-.7-.6-1.3-.6zM183.4 33.2c1.3 0 2.4.6 3.2 1.7.8 1.1 1.2 2.6 1.2 4.6 0 2-.4 3.5-1.2 4.6-.8 1.1-1.9 1.7-3.3 1.7-.5 0-.9 0-1.2-.1-.4-.1-.7-.2-.9-.4-.3-.2-.6-.5-1-.9h-.3l-.7 1.2h-3.3V28.9h4.2v3.8c0 .5-.1 1.2-.2 2.3h.2c.4-.6.9-1.1 1.4-1.4.6-.3 1.2-.4 1.9-.4zm-1.6 3.3c-.6 0-1 .2-1.3.6-.3.4-.4 1-.4 1.9v.6c0 1 .1 1.7.4 2.1.3.4.7.6 1.3.6.5 0 .9-.3 1.1-.8.3-.5.4-1.2.4-2.2.1-1.8-.4-2.8-1.5-2.8zM189.6 30.4c0-.6.2-1.1.5-1.4.4-.3.9-.5 1.7-.5.8 0 1.3.2 1.7.5.4.3.5.8.5 1.4 0 1.2-.7 1.8-2.2 1.8-1.5 0-2.2-.6-2.2-1.8zm4.3 15.2h-4.2V33.4h4.2v12.2zM203.7 33.2c.4 0 .7 0 1 .1h.2l-.4 4c-.3-.1-.8-.1-1.4-.1-.9 0-1.6.2-2 .6-.4.4-.6 1-.6 1.8v6h-4.2V33.4h3.1l.7 1.9h.2c.4-.6.8-1.2 1.5-1.6.6-.3 1.3-.5 1.9-.5zM212.2 42.5c.6 0 1.2-.1 2-.4v3.1c-.6.2-1.1.4-1.6.5-.5.1-1.1.2-1.8.2-1.4 0-2.4-.3-3.1-1-.6-.7-.9-1.8-.9-3.2v-5h-1.5V35l1.9-1.3 1.1-2.6h2.8v2.4h3v3.1h-3v4.7c0 .8.4 1.2 1.1 1.2zM223.6 45.6V39c0-1.6-.5-2.4-1.5-2.4-.7 0-1.2.3-1.5.9-.3.6-.5 1.5-.5 2.9v5.3H216V28.9h4.2v2.4c0 1.1-.1 2.3-.2 3.7h.2c.4-.6.9-1.1 1.4-1.3.6-.3 1.2-.4 1.9-.4 1.4 0 2.4.4 3.2 1.2.8.8 1.1 1.9 1.1 3.3v7.9h-4.2zM247.2 39.5c0 2-.5 3.5-1.6 4.7-1.1 1.1-2.6 1.7-4.5 1.7-1.8 0-3.3-.6-4.4-1.7-1.1-1.1-1.6-2.7-1.6-4.6 0-2 .5-3.5 1.6-4.6 1.1-1.1 2.6-1.6 4.5-1.6 1.2 0 2.3.3 3.2.8.9.5 1.6 1.2 2.1 2.2.4.7.7 1.8.7 3.1zm-7.9 0c0 1 .1 1.8.4 2.4s.7.8 1.4.8 1.1-.3 1.4-.8.4-1.3.4-2.4c0-1-.1-1.8-.4-2.4-.3-.5-.7-.8-1.4-.8-.6 0-1.1.3-1.4.8s-.4 1.3-.4 2.4zM256.6 36.6H254v9h-4.2v-9h-1.6v-2.1l1.7-1v-.2c0-1.6.3-2.8 1-3.5.7-.7 1.7-1.1 3.2-1.1.6 0 1.1 0 1.6.1s1.1.2 1.7.5l-.9 2.7c-.5-.1-1-.2-1.5-.2-.3 0-.6.1-.7.3-.1.2-.2.5-.2 1v.3h2.6v3.2zM269.1 42.5c.6 0 1.2-.1 2-.4v3.1c-.6.2-1.1.4-1.6.5-.5.1-1.1.2-1.8.2-1.4 0-2.4-.3-3.1-1-.6-.7-.9-1.8-.9-3.2v-5h-1.5V35l1.9-1.3 1.1-2.6h2.8v2.4h3v3.1h-3v4.7c-.1.8.3 1.2 1.1 1.2zM280.5 45.6V39c0-1.6-.5-2.4-1.5-2.4-.7 0-1.2.3-1.5.9-.3.6-.5 1.5-.5 2.9v5.3h-4.2V28.9h4.2v2.4c0 1.1-.1 2.3-.2 3.7h.2c.4-.6.9-1.1 1.4-1.3.6-.3 1.2-.4 1.9-.4 1.4 0 2.4.4 3.2 1.2.8.8 1.1 1.9 1.1 3.3v7.9h-4.1zM293 45.8c-2 0-3.6-.5-4.7-1.6s-1.7-2.6-1.7-4.6c0-2.1.5-3.6 1.6-4.7 1-1.1 2.5-1.6 4.4-1.6 1.8 0 3.2.5 4.2 1.4s1.5 2.3 1.5 4.1v1.9h-7.5c0 .7.3 1.2.7 1.6.5.4 1.1.6 1.9.6.7 0 1.4-.1 2-.2.6-.1 1.3-.4 2-.7v3c-.7.3-1.3.6-2 .7-.6 0-1.4.1-2.4.1zm-.3-9.7c-.5 0-.9.2-1.2.5s-.5.8-.6 1.5h3.6c0-.6-.2-1.1-.5-1.4-.3-.5-.7-.6-1.3-.6zM319.2 29.9v9.5c0 2.1-.6 3.6-1.7 4.8-1.2 1.1-2.8 1.7-5 1.7-2.1 0-3.8-.5-4.9-1.6s-1.7-2.7-1.7-4.7v-9.5h4.3v9.2c0 1.1.2 1.9.6 2.4.4.5 1 .8 1.8.8.9 0 1.5-.2 1.9-.7.4-.5.6-1.3.6-2.4v-9.2h4.1zM321.3 43.8c0-.7.2-1.2.6-1.5.4-.4 1-.5 1.7-.5s1.3.2 1.6.5c.4.4.6.9.6 1.5s-.2 1.1-.6 1.5c-.4.4-.9.5-1.6.5-.7 0-1.3-.2-1.7-.5-.4-.3-.6-.8-.6-1.5zM338.2 40.8c0 1-.2 1.8-.7 2.6-.5.8-1.2 1.3-2.1 1.8-.9.4-2 .6-3.3.6-1 0-1.9-.1-2.6-.2s-1.4-.4-2.2-.8V41c.8.4 1.7.7 2.5 1 .9.2 1.7.3 2.4.3.6 0 1.1-.1 1.4-.3.3-.2.4-.5.4-.8 0-.2-.1-.4-.2-.6s-.3-.3-.6-.5-1-.5-2.1-1c-1-.5-1.8-.9-2.3-1.4-.5-.4-.9-.9-1.1-1.5-.2-.6-.4-1.2-.4-2 0-1.4.5-2.6 1.6-3.4 1.1-.8 2.5-1.2 4.3-1.2 1.6 0 3.3.4 5 1.1l-1.3 3.3c-1.5-.7-2.7-1-3.8-1-.6 0-1 .1-1.2.3-.3.2-.4.4-.4.7 0 .3.2.6.5.8.3.2 1.2.7 2.6 1.3 1.4.6 2.3 1.3 2.8 2s.8 1.7.8 2.7zM339.5 43.8c0-.7.2-1.2.6-1.5.4-.4 1-.5 1.7-.5s1.3.2 1.6.5c.4.4.6.9.6 1.5s-.2 1.1-.6 1.5c-.4.4-.9.5-1.6.5-.7 0-1.3-.2-1.7-.5-.4-.3-.6-.8-.6-1.5zM361.1 45.6h-5.6l-5.7-11.1h-.1c.1 1.7.2 3.1.2 4v7.1h-3.8V29.9h5.5l5.7 10.9h.1c-.1-1.6-.2-2.9-.2-3.8v-7.1h3.8v15.7zM371.8 45.6L371 44h-.1c-.6.7-1.1 1.2-1.7 1.4s-1.3.4-2.3.4c-1.1 0-2-.3-2.7-1s-1-1.7-1-2.9c0-1.3.5-2.3 1.4-2.9s2.2-1 3.9-1.1l2-.1v-.2c0-1-.5-1.5-1.5-1.5-.9 0-2 .3-3.4.9l-1.2-2.8c1.4-.7 3.2-1.1 5.4-1.1 1.6 0 2.8.4 3.6 1.2.9.8 1.3 1.9 1.3 3.2v8h-2.9zm-3.1-2.8c.5 0 .9-.2 1.3-.5s.5-.7.5-1.3v-.9h-1c-1.4.1-2.1.6-2.1 1.5.1.9.5 1.2 1.3 1.2zM383.1 42.5c.6 0 1.2-.1 2-.4v3.1c-.6.2-1.1.4-1.6.5-.5.1-1.1.2-1.8.2-1.4 0-2.4-.3-3.1-1-.6-.7-.9-1.8-.9-3.2v-5h-1.5V35l1.9-1.3 1.1-2.6h2.8v2.4h3v3.1h-3v4.7c-.1.8.3 1.2 1.1 1.2zM386.7 30.4c0-.6.2-1.1.5-1.4.4-.3.9-.5 1.7-.5s1.3.2 1.7.5c.4.3.5.8.5 1.4 0 1.2-.7 1.8-2.2 1.8-1.4 0-2.2-.6-2.2-1.8zm4.3 15.2h-4.2V33.4h4.2v12.2zM405.1 39.5c0 2-.5 3.5-1.6 4.7-1.1 1.1-2.6 1.7-4.5 1.7-1.8 0-3.3-.6-4.4-1.7-1.1-1.1-1.6-2.7-1.6-4.6 0-2 .5-3.5 1.6-4.6 1.1-1.1 2.6-1.6 4.5-1.6 1.2 0 2.3.3 3.2.8.9.5 1.6 1.2 2.1 2.2.5.7.7 1.8.7 3.1zm-7.8 0c0 1 .1 1.8.4 2.4s.7.8 1.4.8 1.1-.3 1.4-.8c.3-.5.4-1.3.4-2.4 0-1-.1-1.8-.4-2.4-.3-.5-.7-.8-1.4-.8-.6 0-1.1.3-1.4.8s-.4 1.3-.4 2.4zM414.8 45.6V39c0-.8-.1-1.4-.3-1.8-.2-.4-.6-.6-1.1-.6-.7 0-1.2.3-1.5.8-.3.6-.5 1.5-.5 2.9v5.3h-4.2V33.4h3.2l.5 1.5h.2c.4-.6.9-1 1.5-1.3.6-.3 1.4-.4 2.2-.4 1.3 0 2.4.4 3.1 1.2.7.8 1.1 1.9 1.1 3.3v7.9h-4.2zM429.3 45.6l-.8-1.6h-.1c-.6.7-1.1 1.2-1.7 1.4s-1.3.4-2.3.4c-1.1 0-2-.3-2.7-1s-1-1.7-1-2.9c0-1.3.5-2.3 1.4-2.9s2.2-1 3.9-1.1l2-.1v-.2c0-1-.5-1.5-1.5-1.5-.9 0-2 .3-3.4.9l-1.2-2.8c1.4-.7 3.2-1.1 5.4-1.1 1.6 0 2.8.4 3.6 1.2.9.8 1.3 1.9 1.3 3.2v8h-2.9zm-3.1-2.8c.5 0 .9-.2 1.3-.5s.5-.7.5-1.3v-.9h-1c-1.4.1-2.1.6-2.1 1.5.1.9.5 1.2 1.3 1.2zM438.9 45.6h-4.2V28.9h4.2v16.7zM453.2 36.4h6.8v8.5c-1.8.6-3.9.9-6.1.9-2.4 0-4.3-.7-5.6-2.1-1.3-1.4-2-3.4-2-6 0-2.5.7-4.5 2.2-5.9 1.4-1.4 3.5-2.1 6.1-2.1 1 0 1.9.1 2.8.3.9.2 1.6.4 2.3.7l-1.3 3.3c-1.1-.6-2.4-.8-3.7-.8-1.2 0-2.2.4-2.9 1.2-.7.8-1 2-1 3.5s.3 2.6.9 3.4c.6.8 1.5 1.2 2.6 1.2.6 0 1.2-.1 1.7-.2v-2.5h-2.8v-3.4zM471.2 45.6l-.5-1.5h-.2c-.4.6-.8 1-1.5 1.3-.6.3-1.4.4-2.2.4-1.3 0-2.4-.4-3.1-1.2-.7-.8-1.1-1.9-1.1-3.3v-7.9h4.2V40c0 .8.1 1.4.3 1.8.2.4.6.6 1.1.6.7 0 1.2-.3 1.5-.9s.5-1.5.5-2.9v-5.3h4.2v12.2h-3.2zM484.8 45.6L484 44h-.1c-.6.7-1.1 1.2-1.7 1.4s-1.3.4-2.3.4c-1.1 0-2-.3-2.7-1s-1-1.7-1-2.9c0-1.3.5-2.3 1.4-2.9s2.2-1 3.9-1.1l2-.1v-.2c0-1-.5-1.5-1.5-1.5-.9 0-2 .3-3.4.9l-1.2-2.8c1.4-.7 3.2-1.1 5.4-1.1 1.6 0 2.8.4 3.6 1.2.9.8 1.3 1.9 1.3 3.2v8h-2.9zm-3.2-2.8c.5 0 .9-.2 1.3-.5s.5-.7.5-1.3v-.9h-1c-1.4.1-2.1.6-2.1 1.5.1.9.5 1.2 1.3 1.2zM497.4 33.2c.4 0 .7 0 1 .1h.2l-.4 4c-.3-.1-.8-.1-1.4-.1-.9 0-1.6.2-2 .6s-.6 1-.6 1.8v6H490V33.4h3.1l.7 1.9h.2c.4-.6.8-1.2 1.5-1.6.7-.3 1.3-.5 1.9-.5zM503.7 45.8c-.9 0-1.6-.2-2.3-.7-.6-.5-1.1-1.2-1.5-2.2-.4-1-.5-2.1-.5-3.4 0-2 .4-3.5 1.2-4.6s1.9-1.7 3.3-1.7c.7 0 1.3.1 1.8.4.5.3 1 .7 1.4 1.4h.1c-.1-1-.2-1.9-.2-2.9v-3.3h4.2v16.7H508l-.9-1.5h-.1c-.7 1.2-1.8 1.8-3.3 1.8zm1.8-3.3c.7 0 1.1-.2 1.4-.6.3-.4.4-1.1.4-2v-.3c0-1.1-.2-1.8-.5-2.3-.3-.5-.8-.7-1.5-.7-.6 0-1 .3-1.3.8-.3.5-.5 1.3-.5 2.2 0 .9.2 1.7.5 2.2s.9.7 1.5.7zM513.1 43.8c0-.7.2-1.2.6-1.5.4-.4 1-.5 1.7-.5s1.3.2 1.6.5c.4.4.6.9.6 1.5s-.2 1.1-.6 1.5c-.4.4-.9.5-1.6.5-.7 0-1.3-.2-1.7-.5-.4-.3-.6-.8-.6-1.5z"/><g><path class="st0" d="M36 69.6h-9.3V53.9H36v3.4h-5.1v2.5h4.7v3.4h-4.7v3H36v3.4zM47.5 65.8c0 1.3-.4 2.3-1.3 3-.9.7-2.2 1-3.8 1-.9 0-1.7 0-2.4-.1s-1.3-.3-2-.5v-3.4c.7.3 1.4.5 2.1.7.8.2 1.5.3 2.1.3.9 0 1.4-.2 1.4-.6 0-.2-.1-.4-.4-.6-.3-.2-1-.5-2.2-1-1.1-.5-1.9-1-2.3-1.6-.4-.6-.7-1.3-.7-2.2 0-1.1.4-2 1.3-2.6.9-.6 2.1-.9 3.7-.9.8 0 1.6.1 2.3.3.7.2 1.4.4 2.2.8l-1.1 2.7c-.6-.3-1.1-.5-1.8-.6-.7-.4-1.2-.5-1.6-.5-.7 0-1 .2-1 .5 0 .2.1.4.4.5.2.1.9.4 2.1.9.9.4 1.5.7 1.9 1s.7.7.9 1.2c.1.5.2 1.1.2 1.7zM55.4 66.5c.6 0 1.2-.1 2-.4v3.1c-.6.2-1.1.4-1.6.5-.5.1-1.1.2-1.8.2-1.4 0-2.4-.3-3.1-1-.6-.8-.9-1.9-.9-3.3v-5h-1.5v-1.7l1.9-1.3 1.1-2.6h2.8v2.4h3v3.1h-3v4.7c-.1.9.3 1.3 1.1 1.3zM67 69.6l-.8-1.6h-.1c-.6.7-1.1 1.2-1.7 1.4-.6.3-1.3.4-2.3.4-1.1 0-2-.3-2.7-1-.7-.7-1-1.7-1-2.9 0-1.3.5-2.3 1.4-2.9.9-.6 2.2-1 3.9-1.1l2-.1v-.2c0-1-.5-1.5-1.5-1.5-.9 0-2 .3-3.4.9l-1.2-2.8c1.4-.7 3.2-1.1 5.4-1.1 1.6 0 2.8.4 3.6 1.2.9.8 1.3 1.9 1.3 3.2v8H67zm-3.1-2.8c.5 0 .9-.2 1.3-.5s.5-.7.5-1.3v-.9h-1c-1.4 0-2.1.6-2.1 1.5.1.9.5 1.2 1.3 1.2zM79.8 57.2c1.3 0 2.4.6 3.2 1.7.8 1.1 1.2 2.6 1.2 4.6 0 2-.4 3.5-1.2 4.6-.8 1.1-1.9 1.7-3.3 1.7-.5 0-.9 0-1.2-.1-.4-.1-.7-.2-.9-.4-.3-.2-.6-.5-1-.9h-.3l-.7 1.2h-3.3V52.9h4.2v3.8c0 .5-.1 1.2-.2 2.3h.2c.4-.6.9-1.1 1.4-1.4.6-.3 1.2-.4 1.9-.4zm-1.5 3.3c-.6 0-1 .2-1.3.6-.3.4-.4 1-.4 1.9v.6c0 1 .1 1.7.4 2.1.3.4.7.6 1.3.6.5 0 .9-.3 1.1-.8.3-.5.4-1.2.4-2.2 0-1.8-.5-2.8-1.5-2.8zM90.3 69.6h-4.2V52.9h4.2v16.7zM92.7 54.4c0-.6.2-1.1.5-1.4.4-.3.9-.5 1.7-.5.8 0 1.3.2 1.7.5.4.3.5.8.5 1.4 0 1.2-.7 1.8-2.2 1.8-1.5 0-2.2-.6-2.2-1.8zM97 69.6h-4.2V57.4H97v12.2zM108.9 65.8c0 1.3-.4 2.3-1.3 3-.9.7-2.2 1-3.8 1-.9 0-1.7 0-2.4-.1s-1.3-.3-2-.5v-3.4c.7.3 1.4.5 2.1.7.8.2 1.5.3 2.1.3.9 0 1.4-.2 1.4-.6 0-.2-.1-.4-.4-.6-.3-.2-1-.5-2.2-1-1.1-.5-1.9-1-2.3-1.6-.4-.6-.7-1.3-.7-2.2 0-1.1.4-2 1.3-2.6.9-.6 2.1-.9 3.7-.9.8 0 1.6.1 2.3.3.7.2 1.4.4 2.2.8l-1.1 2.7c-.6-.3-1.1-.5-1.8-.6-.6-.2-1.1-.3-1.5-.3-.7 0-1 .2-1 .5 0 .2.1.4.4.5.2.1.9.4 2.1.9.9.4 1.5.7 1.9 1s.7.7.9 1.2c0 .3.1.9.1 1.5zM118.4 69.6V63c0-1.6-.5-2.4-1.5-2.4-.7 0-1.2.3-1.5.9-.3.6-.5 1.5-.5 2.9v5.3h-4.2V52.9h4.2v2.4c0 1.1-.1 2.3-.2 3.7h.2c.4-.6.9-1.1 1.4-1.3.6-.3 1.2-.4 1.9-.4 1.4 0 2.4.4 3.2 1.2.8.8 1.1 1.9 1.1 3.3v7.9h-4.1zM130.9 69.8c-2 0-3.6-.5-4.7-1.6s-1.7-2.6-1.7-4.6c0-2.1.5-3.6 1.6-4.7 1-1.1 2.5-1.6 4.4-1.6 1.8 0 3.2.5 4.2 1.4 1 1 1.5 2.3 1.5 4.1v1.9h-7.5c0 .7.3 1.2.7 1.6.5.4 1.1.6 1.9.6.7 0 1.4-.1 2-.2.6-.1 1.3-.4 2-.7v3c-.7.3-1.3.6-2 .7-.5 0-1.4.1-2.4.1zm-.2-9.7c-.5 0-.9.2-1.2.5-.3.3-.5.8-.6 1.5h3.6c0-.6-.2-1.1-.5-1.4-.3-.5-.8-.6-1.3-.6zM142 69.8c-.9 0-1.6-.2-2.3-.7-.6-.5-1.1-1.2-1.5-2.2s-.5-2.1-.5-3.4c0-2 .4-3.5 1.2-4.6s1.9-1.7 3.3-1.7c.7 0 1.3.1 1.8.4.5.3 1 .7 1.4 1.4h.1c-.1-1-.2-1.9-.2-2.9v-3.3h4.2v16.7h-3.2l-.9-1.5h-.2c-.7 1.2-1.8 1.8-3.2 1.8zm1.7-3.3c.7 0 1.1-.2 1.4-.6.3-.4.4-1.1.4-2v-.3c0-1.1-.2-1.8-.5-2.3-.3-.5-.8-.7-1.5-.7-.6 0-1 .3-1.3.8-.3.5-.5 1.3-.5 2.2 0 .9.2 1.7.5 2.2.5.4 1 .7 1.5.7zM165.9 69.6h-4.3v-8.3c0-1 0-1.9.1-2.8-.3.3-.6.7-1 1l-1.8 1.5-2.2-2.7 5.4-4.4h3.8v15.7zM169 62.9c0-2.2.3-4 .9-5.3.6-1.4 1.6-2.4 2.8-3 1.2-.6 2.7-1 4.5-1 .6 0 1.4.1 2.2.2v3.3c-.7-.1-1.5-.2-2.3-.2-1.4 0-2.5.3-3.2.9-.7.6-1.1 1.6-1.1 3.1h.1c.6-1.2 1.7-1.8 3.1-1.8 1.4 0 2.5.4 3.2 1.3.8.9 1.2 2.1 1.2 3.8 0 1.7-.5 3.1-1.5 4.1-1 1-2.3 1.5-4.1 1.5-1.9 0-3.3-.6-4.4-1.8-.9-1.2-1.4-2.9-1.4-5.1zm5.8 3.5c.5 0 .8-.2 1.1-.5.3-.3.4-.9.4-1.6 0-1.3-.5-1.9-1.5-1.9-.5 0-.9.2-1.2.5-.3.3-.5.7-.5 1.2 0 .7.1 1.3.4 1.7.5.4.8.6 1.3.6zM192.3 57.3c0 1-.3 1.8-.9 2.5-.6.7-1.5 1.2-2.6 1.5v.1c2.6.3 3.9 1.6 3.9 3.7 0 1.5-.6 2.6-1.7 3.4-1.2.8-2.8 1.3-4.8 1.3-.8 0-1.6-.1-2.3-.2s-1.5-.3-2.3-.7v-3.5c.7.4 1.4.6 2.1.8.7.2 1.4.3 2 .3.9 0 1.6-.1 2-.4.4-.3.6-.7.6-1.2 0-.4-.1-.8-.3-1-.2-.2-.6-.4-1.1-.5-.5-.1-1.1-.2-1.9-.2h-1V60h1c2.2 0 3.2-.6 3.2-1.7 0-.4-.2-.7-.5-.9-.3-.2-.7-.3-1.3-.3-1 0-2 .3-3.1 1l-1.8-2.8c.8-.6 1.7-1 2.6-1.2s1.9-.4 3-.4c1.6 0 2.9.3 3.8 1s1.4 1.5 1.4 2.6zM194 62.9c0-2.2.3-4 .9-5.3.6-1.4 1.6-2.4 2.8-3 1.2-.6 2.7-1 4.5-1 .6 0 1.4.1 2.2.2v3.3c-.7-.1-1.5-.2-2.3-.2-1.4 0-2.5.3-3.2.9-.7.6-1.1 1.6-1.1 3.1h.1c.6-1.2 1.7-1.8 3.1-1.8 1.4 0 2.5.4 3.2 1.3.8.9 1.2 2.1 1.2 3.8 0 1.7-.5 3.1-1.5 4.1-1 1-2.3 1.5-4.1 1.5-1.9 0-3.3-.6-4.4-1.8-.9-1.2-1.4-2.9-1.4-5.1zm5.8 3.5c.5 0 .8-.2 1.1-.5.3-.3.4-.9.4-1.6 0-1.3-.5-1.9-1.5-1.9-.5 0-.9.2-1.2.5-.3.3-.5.7-.5 1.2 0 .7.1 1.3.4 1.7.4.4.8.6 1.3.6zM206.6 67.8c0-.7.2-1.2.6-1.5.4-.4 1-.5 1.7-.5s1.3.2 1.6.5c.4.4.6.9.6 1.5s-.2 1.1-.6 1.5c-.4.4-.9.5-1.6.5-.7 0-1.3-.2-1.7-.5s-.6-.8-.6-1.5z"/></g></svg>