<svg id="Layer_1" xmlns="http://www.w3.org/2000/svg" viewBox="0 0 728 90"><style>.st0{fill:#fff}</style><path class="st0" d="M44.5 47.5h-5.2l-1.6-7.2c-.1-.3-.2-.9-.4-1.8s-.3-1.6-.4-2.2c-.1.5-.2 1.1-.3 1.8-.1.7-.3 1.4-.4 2-.1.6-.7 3.1-1.6 7.4h-5.2l-4.1-16.4h4.3l1.8 8.2c.4 1.8.7 3.3.8 4.3.1-.8.3-1.8.5-3.1.3-1.3.5-2.4.7-3.3l1.4-6.2H39l1.4 6.2c.2 1 .5 2.1.7 3.4s.4 2.3.5 2.9c.1-.8.4-2.3.8-4.3l1.8-8.3h4.3l-4 16.6zM56.1 47.8c-2.1 0-3.8-.6-4.9-1.7-1.2-1.1-1.8-2.7-1.8-4.8 0-2.1.5-3.8 1.6-4.9 1.1-1.1 2.6-1.7 4.6-1.7 1.9 0 3.4.5 4.4 1.5 1 1 1.6 2.4 1.6 4.3v2h-7.9c0 .7.3 1.3.8 1.7.5.4 1.2.6 2 .6s1.5-.1 2.1-.2c.6-.1 1.3-.4 2.1-.7v3.2c-.7.4-1.4.6-2.1.7s-1.5 0-2.5 0zm-.3-10.2c-.5 0-.9.2-1.3.5-.3.3-.6.8-.6 1.5h3.8c0-.6-.2-1.1-.5-1.5-.4-.3-.8-.5-1.4-.5zM75 47.8c-2.1 0-3.7-.6-4.7-1.7-1.1-1.1-1.6-2.7-1.6-4.8 0-2.1.6-3.7 1.7-4.9s2.8-1.7 5-1.7c1.5 0 2.9.3 4.2 1l-1.3 3.2-1.5-.6c-.4-.1-.9-.2-1.4-.2-.7 0-1.3.3-1.7.8s-.6 1.3-.6 2.3c0 2 .8 3.1 2.3 3.1 1.3 0 2.5-.4 3.7-1.1v3.5c-1.1.7-2.5 1.1-4.1 1.1zM89.5 47.5l-.8-1.7h-.1c-.6.7-1.2 1.2-1.8 1.5s-1.4.4-2.4.4c-1.2 0-2.1-.4-2.8-1.1s-1-1.7-1-3c0-1.4.5-2.4 1.4-3 .9-.7 2.3-1 4.1-1.1l2.1-.1v-.2c0-1-.5-1.6-1.5-1.6-.9 0-2.1.3-3.5.9l-1.3-2.9c1.5-.8 3.4-1.1 5.6-1.1 1.6 0 2.9.4 3.8 1.2.9.8 1.3 1.9 1.3 3.4v8.3h-3.1zm-3.3-2.8c.5 0 1-.2 1.4-.5.4-.3.6-.8.6-1.3v-1h-1c-1.5.1-2.2.6-2.2 1.6 0 .8.4 1.2 1.2 1.2zM103.1 47.5v-6.9c0-.8-.1-1.5-.4-1.9-.2-.4-.6-.6-1.2-.6-.7 0-1.3.3-1.6.9s-.5 1.6-.5 3v5.6H95V34.8h3.3l.6 1.6h.3c.4-.6.9-1 1.6-1.3.7-.3 1.4-.4 2.3-.4 1.4 0 2.5.4 3.3 1.2.8.8 1.2 2 1.2 3.4v8.3h-4.5zM123.6 47.5v-6.9c0-1.7-.5-2.6-1.5-2.6-.7 0-1.2.3-1.6.9-.3.6-.5 1.6-.5 3v5.6h-4.4V30.1h4.4v2.5c0 1.1-.1 2.4-.2 3.8h.2c.4-.7.9-1.1 1.5-1.4s1.2-.4 2-.4c1.4 0 2.5.4 3.3 1.2.8.8 1.2 2 1.2 3.4v8.3h-4.4zM136.7 47.8c-2.1 0-3.8-.6-4.9-1.7-1.2-1.1-1.8-2.7-1.8-4.8 0-2.1.5-3.8 1.6-4.9 1.1-1.1 2.6-1.7 4.6-1.7 1.9 0 3.4.5 4.4 1.5 1 1 1.6 2.4 1.6 4.3v2h-7.9c0 .7.3 1.3.8 1.7.5.4 1.2.6 2 .6s1.5-.1 2.1-.2c.6-.1 1.3-.4 2.1-.7v3.2c-.7.4-1.4.6-2.1.7s-1.5 0-2.5 0zm-.3-10.2c-.5 0-.9.2-1.3.5-.3.3-.6.8-.6 1.5h3.8c0-.6-.2-1.1-.5-1.5-.4-.3-.8-.5-1.4-.5zM148.7 47.5h-4.4V30.1h4.4v17.4zM158.9 47.8c-.6 0-1.2-.1-1.7-.3-.5-.2-1-.6-1.5-1.2h-.2c.1.9.2 1.4.2 1.7v5.1h-4.4V34.8h3.6l.6 1.6h.2c.8-1.2 1.9-1.8 3.4-1.8 1.4 0 2.5.6 3.3 1.8s1.2 2.8 1.2 4.8c0 2.1-.4 3.7-1.3 4.8-.8 1.2-2 1.8-3.4 1.8zm-1.5-9.8c-.6 0-1.1.2-1.4.7-.3.5-.4 1.1-.4 2v.3c0 1.1.1 1.9.4 2.4s.8.7 1.4.7c.6 0 1-.2 1.2-.7.3-.5.4-1.3.4-2.4 0-1.1-.1-1.9-.4-2.4-.1-.3-.6-.6-1.2-.6zM178.8 47.8c-.6 0-1.2-.1-1.7-.3-.5-.2-1-.6-1.5-1.2h-.2c.1.9.2 1.4.2 1.7v5.1h-4.4V34.8h3.6l.6 1.6h.2c.8-1.2 1.9-1.8 3.4-1.8 1.4 0 2.5.6 3.3 1.8s1.2 2.8 1.2 4.8c0 2.1-.4 3.7-1.3 4.8-.9 1.2-2 1.8-3.4 1.8zm-1.5-9.8c-.6 0-1.1.2-1.4.7-.3.5-.4 1.1-.4 2v.3c0 1.1.1 1.9.4 2.4s.8.7 1.4.7c.6 0 1-.2 1.2-.7.3-.5.4-1.3.4-2.4 0-1.1-.1-1.9-.4-2.4-.2-.3-.6-.6-1.2-.6zM193.2 34.6c.4 0 .7 0 1.1.1h.2l-.4 4.1c-.4-.1-.9-.1-1.5-.1-1 0-1.7.2-2.1.7-.4.4-.7 1.1-.7 1.9v6.3h-4.4V34.8h3.3l.7 2h.2c.4-.7.9-1.2 1.5-1.6.7-.4 1.4-.6 2.1-.6zM208 41.2c0 2.1-.6 3.7-1.7 4.9-1.1 1.2-2.7 1.7-4.7 1.7-1.9 0-3.5-.6-4.6-1.8-1.1-1.2-1.7-2.8-1.7-4.8 0-2.1.6-3.7 1.7-4.8 1.1-1.1 2.7-1.7 4.7-1.7 1.3 0 2.4.3 3.3.8s1.7 1.3 2.2 2.3c.5.9.8 2 .8 3.4zm-8.3 0c0 1.1.1 1.9.4 2.5.3.6.8.9 1.5.9s1.2-.3 1.4-.9c.3-.6.4-1.4.4-2.5s-.1-1.9-.4-2.5-.8-.8-1.5-.8-1.2.3-1.4.8c-.2.5-.4 1.4-.4 2.5zM216.2 44.3c.6 0 1.3-.1 2.1-.4v3.2c-.6.3-1.2.4-1.7.5-.5.1-1.2.2-1.9.2-1.5 0-2.5-.4-3.2-1.1s-1-1.8-1-3.3v-5.2H209v-1.8l2-1.4 1.1-2.7h2.9v2.5h3.1v3.3H215v5c0 .8.4 1.2 1.2 1.2zM226.3 47.8c-2.1 0-3.8-.6-4.9-1.7-1.2-1.1-1.8-2.7-1.8-4.8 0-2.1.5-3.8 1.6-4.9 1.1-1.1 2.6-1.7 4.6-1.7 1.9 0 3.4.5 4.4 1.5 1 1 1.6 2.4 1.6 4.3v2H224c0 .7.3 1.3.8 1.7.5.4 1.2.6 2 .6s1.5-.1 2.1-.2c.6-.1 1.3-.4 2.1-.7v3.2c-.7.4-1.4.6-2.1.7s-1.6 0-2.6 0zm-.3-10.2c-.5 0-.9.2-1.3.5-.3.3-.6.8-.6 1.5h3.8c0-.6-.2-1.1-.5-1.5-.4-.3-.8-.5-1.4-.5zM239.7 47.8c-2.1 0-3.7-.6-4.7-1.7-1.1-1.1-1.6-2.7-1.6-4.8 0-2.1.6-3.7 1.7-4.9s2.8-1.7 5-1.7c1.5 0 2.9.3 4.2 1l-1.3 3.2-1.5-.6c-.4-.1-.9-.2-1.4-.2-.7 0-1.3.3-1.7.8s-.6 1.3-.6 2.3c0 2 .8 3.1 2.3 3.1 1.3 0 2.5-.4 3.7-1.1v3.5c-1.2.7-2.5 1.1-4.1 1.1zM252.1 44.3c.6 0 1.3-.1 2.1-.4v3.2c-.6.3-1.2.4-1.7.5-.5.1-1.2.2-1.9.2-1.5 0-2.5-.4-3.2-1.1s-1-1.8-1-3.3v-5.2h-1.5v-1.8l2-1.4 1.1-2.7h2.9v2.5h3.1v3.3h-3.1v5c0 .8.4 1.2 1.2 1.2zM260 34.8h4.6l2.2 7.3c.1.4.2.8.2 1.4h.1c.1-.5.1-1 .3-1.4l2.2-7.3h4.5l-5 13.5c-.6 1.7-1.4 2.9-2.4 3.7-.9.7-2.2 1.1-3.7 1.1-.6 0-1.2-.1-1.8-.2v-3.4c.4.1.8.1 1.4.1.4 0 .7-.1 1-.2s.5-.4.8-.6.4-.7.7-1.3L260 34.8zM287.3 41.2c0 2.1-.6 3.7-1.7 4.9-1.1 1.2-2.7 1.7-4.7 1.7-1.9 0-3.5-.6-4.6-1.8-1.1-1.2-1.7-2.8-1.7-4.8 0-2.1.6-3.7 1.7-4.8 1.1-1.1 2.7-1.7 4.7-1.7 1.3 0 2.4.3 3.3.8s1.7 1.3 2.2 2.3c.5.9.8 2 .8 3.4zm-8.3 0c0 1.1.1 1.9.4 2.5.3.6.8.9 1.5.9s1.2-.3 1.4-.9c.3-.6.4-1.4.4-2.5s-.1-1.9-.4-2.5-.8-.8-1.5-.8-1.2.3-1.4.8c-.2.5-.4 1.4-.4 2.5zM298.4 47.5l-.6-1.6h-.3c-.4.6-.9 1-1.5 1.3-.7.3-1.4.5-2.3.5-1.4 0-2.5-.4-3.3-1.2s-1.2-2-1.2-3.4v-8.3h4.4v7c0 .8.1 1.5.4 1.9.2.4.6.6 1.2.6.8 0 1.3-.3 1.6-.9.3-.6.5-1.6.5-3v-5.6h4.4v12.7h-3.3zM312 34.6c.4 0 .7 0 1.1.1h.2l-.4 4.1c-.4-.1-.9-.1-1.5-.1-1 0-1.7.2-2.1.7-.4.4-.7 1.1-.7 1.9v6.3h-4.4V34.8h3.3l.7 2h.2c.4-.7.9-1.2 1.5-1.6.7-.4 1.4-.6 2.1-.6zM327.9 38.1h-2.7v9.4h-4.4v-9.4h-1.7V36l1.8-1.1v-.2c0-1.7.3-2.9 1-3.6.7-.7 1.8-1.1 3.3-1.1.6 0 1.1 0 1.7.1.5.1 1.1.2 1.8.5l-.9 2.8c-.5-.1-1.1-.2-1.6-.2-.3 0-.6.1-.7.3-.2.2-.2.5-.2 1v.3h2.7v3.3zM337.5 47.5l-.8-1.7h-.1c-.6.7-1.2 1.2-1.8 1.5s-1.4.4-2.4.4c-1.2 0-2.1-.4-2.8-1.1s-1-1.7-1-3c0-1.4.5-2.4 1.4-3 .9-.7 2.3-1 4.1-1.1l2.1-.1v-.2c0-1-.5-1.6-1.5-1.6-.9 0-2.1.3-3.5.9l-1.3-2.9c1.5-.8 3.4-1.1 5.6-1.1 1.6 0 2.9.4 3.8 1.2.9.8 1.3 1.9 1.3 3.4v8.3h-3.1zm-3.3-2.8c.5 0 1-.2 1.4-.5.4-.3.6-.8.6-1.3v-1h-1c-1.4.1-2.2.6-2.2 1.6 0 .8.4 1.2 1.2 1.2zM358.7 47.5v-6.9c0-.9-.1-1.5-.4-1.9-.2-.4-.6-.6-1.1-.6-.7 0-1.2.3-1.5.9s-.5 1.5-.5 2.7v5.9h-4.4v-6.9c0-.9-.1-1.5-.3-1.9-.2-.4-.6-.6-1.1-.6-.7 0-1.2.3-1.5.9s-.5 1.6-.5 3v5.6H343V34.8h3.3l.6 1.6h.3c.3-.6.8-1 1.5-1.3.6-.3 1.4-.5 2.2-.5 1.8 0 3.1.6 3.9 1.7h.3c.4-.5.9-.9 1.5-1.2.6-.3 1.3-.4 2.1-.4 1.5 0 2.6.4 3.3 1.2s1.1 1.9 1.1 3.5v8.3h-4.4zM365.5 31.7c0-.7.2-1.1.6-1.5s1-.5 1.8-.5 1.4.2 1.8.5c.4.3.6.8.6 1.5 0 1.3-.8 1.9-2.3 1.9-1.7 0-2.5-.7-2.5-1.9zm4.5 15.8h-4.4V34.8h4.4v12.7zM377 47.5h-4.4V30.1h4.4v17.4zM378 34.8h4.6l2.2 7.3c.1.4.2.8.2 1.4h.1c.1-.5.1-1 .3-1.4l2.2-7.3h4.5l-5 13.5c-.6 1.7-1.4 2.9-2.4 3.7-.9.7-2.2 1.1-3.7 1.1-.6 0-1.2-.1-1.8-.2v-3.4c.4.1.8.1 1.4.1.4 0 .7-.1 1-.2s.5-.4.8-.6.4-.7.7-1.3L378 34.8zM392.6 45.7c0-.7.2-1.2.6-1.6s1-.6 1.8-.6c.7 0 1.3.2 1.7.6.4.4.6.9.6 1.6 0 .7-.2 1.2-.6 1.6s-1 .6-1.7.6-1.3-.2-1.8-.6c-.4-.4-.6-.9-.6-1.6z"/></svg>