<svg id="Layer_1" xmlns="http://www.w3.org/2000/svg" viewBox="0 0 728 90"><style>.st0{fill:#fff}</style><path class="st0" d="M32.6 37.2l2.8-6.1h4.8l-5.4 10v6.4h-4.5v-6.3L25 31.1h4.8l2.8 6.1zM53.5 41.2c0 2.1-.6 3.7-1.7 4.9-1.1 1.2-2.7 1.7-4.7 1.7-1.9 0-3.5-.6-4.6-1.8-1.1-1.2-1.7-2.8-1.7-4.8 0-2.1.6-3.7 1.7-4.8 1.1-1.1 2.7-1.7 4.7-1.7 1.3 0 2.4.3 3.3.8s1.7 1.3 2.2 2.3c.5.9.8 2 .8 3.4zm-8.3 0c0 1.1.1 1.9.4 2.5.3.6.8.9 1.5.9s1.2-.3 1.4-.9c.3-.6.4-1.4.4-2.5s-.1-1.9-.4-2.5-.8-.8-1.5-.8-1.2.3-1.4.8c-.2.5-.4 1.4-.4 2.5zM64.6 47.5L64 46h-.3c-.4.6-.9 1-1.5 1.3-.7.3-1.4.5-2.3.5-1.4 0-2.5-.4-3.3-1.2s-1.2-2-1.2-3.4v-8.3h4.4v7c0 .8.1 1.5.4 1.9.2.4.6.6 1.2.6.8 0 1.3-.3 1.6-.9.3-.6.5-1.6.5-3v-5.6h4.4v12.7h-3.3zM84 47.5v-6.9c0-1.7-.5-2.6-1.5-2.6-.7 0-1.2.3-1.6.9-.3.6-.5 1.6-.5 3v5.6H76V30.1h4.4v2.5c0 1.1-.1 2.4-.2 3.8h.2c.4-.7.9-1.1 1.5-1.4s1.2-.4 2-.4c1.4 0 2.5.4 3.3 1.2.8.8 1.2 2 1.2 3.4v8.3H84zM97.1 47.8c-2.1 0-3.8-.6-4.9-1.7-1.2-1.1-1.8-2.7-1.8-4.8 0-2.1.5-3.8 1.6-4.9 1.1-1.1 2.6-1.7 4.6-1.7 1.9 0 3.4.5 4.4 1.5 1 1 1.6 2.4 1.6 4.3v2h-7.9c0 .7.3 1.3.8 1.7.5.4 1.2.6 2 .6s1.5-.1 2.1-.2c.6-.1 1.3-.4 2.1-.7v3.2c-.7.4-1.4.6-2.1.7s-1.4 0-2.5 0zm-.2-10.2c-.5 0-.9.2-1.3.5-.3.3-.6.8-.6 1.5h3.8c0-.6-.2-1.1-.5-1.5-.4-.3-.8-.5-1.4-.5zM109.2 47.5h-4.4V30.1h4.4v17.4zM119.4 47.8c-.6 0-1.2-.1-1.7-.3-.5-.2-1-.6-1.5-1.2h-.2c.1.9.2 1.4.2 1.7v5.1h-4.4V34.8h3.6l.6 1.6h.2c.8-1.2 1.9-1.8 3.4-1.8 1.4 0 2.5.6 3.3 1.8s1.2 2.8 1.2 4.8c0 2.1-.4 3.7-1.3 4.8-.9 1.2-2 1.8-3.4 1.8zm-1.5-9.8c-.6 0-1.1.2-1.4.7-.3.5-.4 1.1-.4 2v.3c0 1.1.1 1.9.4 2.4s.8.7 1.4.7c.6 0 1-.2 1.2-.7.3-.5.4-1.3.4-2.4 0-1.1-.1-1.9-.4-2.4-.2-.3-.6-.6-1.2-.6zM139.2 47.8c-.6 0-1.2-.1-1.7-.3-.5-.2-1-.6-1.5-1.2h-.2c.1.9.2 1.4.2 1.7v5.1h-4.4V34.8h3.6l.6 1.6h.2c.8-1.2 1.9-1.8 3.4-1.8 1.4 0 2.5.6 3.3 1.8s1.2 2.8 1.2 4.8c0 2.1-.4 3.7-1.3 4.8-.8 1.2-1.9 1.8-3.4 1.8zm-1.4-9.8c-.6 0-1.1.2-1.4.7-.3.5-.4 1.1-.4 2v.3c0 1.1.1 1.9.4 2.4s.8.7 1.4.7c.6 0 1-.2 1.2-.7.3-.5.4-1.3.4-2.4 0-1.1-.1-1.9-.4-2.4-.2-.3-.6-.6-1.2-.6zM153.6 34.6c.4 0 .7 0 1.1.1h.2l-.4 4.1c-.4-.1-.9-.1-1.5-.1-1 0-1.7.2-2.1.7-.4.4-.7 1.1-.7 1.9v6.3h-4.4V34.8h3.3l.7 2h.2c.4-.7.9-1.2 1.5-1.6.8-.4 1.5-.6 2.1-.6zM168.4 41.2c0 2.1-.6 3.7-1.7 4.9-1.1 1.2-2.7 1.7-4.7 1.7-1.9 0-3.5-.6-4.6-1.8-1.1-1.2-1.7-2.8-1.7-4.8 0-2.1.6-3.7 1.7-4.8 1.1-1.1 2.7-1.7 4.7-1.7 1.3 0 2.4.3 3.3.8s1.7 1.3 2.2 2.3c.6.9.8 2 .8 3.4zm-8.2 0c0 1.1.1 1.9.4 2.5.3.6.8.9 1.5.9s1.2-.3 1.4-.9c.3-.6.4-1.4.4-2.5s-.1-1.9-.4-2.5-.8-.8-1.5-.8-1.2.3-1.4.8c-.3.5-.4 1.4-.4 2.5zM176.7 44.3c.6 0 1.3-.1 2.1-.4v3.2c-.6.3-1.2.4-1.7.5-.5.1-1.2.2-1.9.2-1.5 0-2.5-.4-3.2-1.1s-1-1.8-1-3.3v-5.2h-1.5v-1.8l2-1.4 1.1-2.7h2.9v2.5h3.1v3.3h-3.1v5c0 .8.4 1.2 1.2 1.2zM186.7 47.8c-2.1 0-3.8-.6-4.9-1.7-1.2-1.1-1.8-2.7-1.8-4.8 0-2.1.5-3.8 1.6-4.9 1.1-1.1 2.6-1.7 4.6-1.7 1.9 0 3.4.5 4.4 1.5 1 1 1.6 2.4 1.6 4.3v2h-7.9c0 .7.3 1.3.8 1.7.5.4 1.2.6 2 .6s1.5-.1 2.1-.2c.6-.1 1.3-.4 2.1-.7v3.2c-.7.4-1.4.6-2.1.7s-1.4 0-2.5 0zm-.2-10.2c-.5 0-.9.2-1.3.5-.3.3-.6.8-.6 1.5h3.8c0-.6-.2-1.1-.5-1.5-.4-.3-.8-.5-1.4-.5zM200.2 47.8c-2.1 0-3.7-.6-4.7-1.7-1.1-1.1-1.6-2.7-1.6-4.8 0-2.1.6-3.7 1.7-4.9s2.8-1.7 5-1.7c1.5 0 2.9.3 4.2 1l-1.3 3.2-1.5-.6c-.4-.1-.9-.2-1.4-.2-.7 0-1.3.3-1.7.8s-.6 1.3-.6 2.3c0 2 .8 3.1 2.3 3.1 1.3 0 2.5-.4 3.7-1.1v3.5c-1.2.7-2.6 1.1-4.1 1.1zM212.5 44.3c.6 0 1.3-.1 2.1-.4v3.2c-.6.3-1.2.4-1.7.5-.5.1-1.2.2-1.9.2-1.5 0-2.5-.4-3.2-1.1s-1-1.8-1-3.3v-5.2h-1.5v-1.8l2-1.4 1.1-2.7h2.9v2.5h3.1v3.3h-3.1v5c0 .8.4 1.2 1.2 1.2zM228.2 44.3c.6 0 1.3-.1 2.1-.4v3.2c-.6.3-1.2.4-1.7.5-.5.1-1.2.2-1.9.2-1.5 0-2.5-.4-3.2-1.1s-1-1.8-1-3.3v-5.2H221v-1.8l2-1.4 1.1-2.7h2.9v2.5h3.1v3.3H227v5c0 .8.4 1.2 1.2 1.2zM240.1 47.5v-6.9c0-1.7-.5-2.6-1.5-2.6-.7 0-1.2.3-1.6.9-.3.6-.5 1.6-.5 3v5.6h-4.4V30.1h4.4v2.5c0 1.1-.1 2.4-.2 3.8h.2c.4-.7.9-1.1 1.5-1.4s1.2-.4 2-.4c1.4 0 2.5.4 3.3 1.2.8.8 1.2 2 1.2 3.4v8.3h-4.4zM253.2 47.8c-2.1 0-3.8-.6-4.9-1.7-1.2-1.1-1.8-2.7-1.8-4.8 0-2.1.5-3.8 1.6-4.9 1.1-1.1 2.6-1.7 4.6-1.7 1.9 0 3.4.5 4.4 1.5 1 1 1.6 2.4 1.6 4.3v2H251c0 .7.3 1.3.8 1.7.5.4 1.2.6 2 .6s1.5-.1 2.1-.2c.6-.1 1.3-.4 2.1-.7v3.2c-.7.4-1.4.6-2.1.7s-1.6 0-2.7 0zm-.2-10.2c-.5 0-.9.2-1.3.5-.3.3-.6.8-.6 1.5h3.8c0-.6-.2-1.1-.5-1.5-.4-.3-.9-.5-1.4-.5zM272.2 47.8c-2.1 0-3.7-.6-4.7-1.7-1.1-1.1-1.6-2.7-1.6-4.8 0-2.1.6-3.7 1.7-4.9s2.8-1.7 5-1.7c1.5 0 2.9.3 4.2 1l-1.3 3.2-1.5-.6c-.4-.1-.9-.2-1.4-.2-.7 0-1.3.3-1.7.8s-.6 1.3-.6 2.3c0 2 .8 3.1 2.3 3.1 1.3 0 2.5-.4 3.7-1.1v3.5c-1.2.7-2.5 1.1-4.1 1.1zM290.5 41.2c0 2.1-.6 3.7-1.7 4.9-1.1 1.2-2.7 1.7-4.7 1.7-1.9 0-3.5-.6-4.6-1.8-1.1-1.2-1.7-2.8-1.7-4.8 0-2.1.6-3.7 1.7-4.8 1.1-1.1 2.7-1.7 4.7-1.7 1.3 0 2.4.3 3.3.8s1.7 1.3 2.2 2.3c.5.9.8 2 .8 3.4zm-8.3 0c0 1.1.1 1.9.4 2.5.3.6.8.9 1.5.9s1.2-.3 1.4-.9c.3-.6.4-1.4.4-2.5s-.1-1.9-.4-2.5-.8-.8-1.5-.8-1.2.3-1.4.8c-.2.5-.4 1.4-.4 2.5zM301.6 47.5L301 46h-.3c-.4.6-.9 1-1.5 1.3-.7.3-1.4.5-2.3.5-1.4 0-2.5-.4-3.3-1.2s-1.2-2-1.2-3.4v-8.3h4.4v7c0 .8.1 1.5.4 1.9.2.4.6.6 1.2.6.8 0 1.3-.3 1.6-.9.3-.6.5-1.6.5-3v-5.6h4.4v12.7h-3.3zM315.5 47.5v-6.9c0-.8-.1-1.5-.4-1.9-.2-.4-.6-.6-1.2-.6-.7 0-1.3.3-1.6.9s-.5 1.6-.5 3v5.6h-4.4V34.8h3.3l.6 1.6h.3c.4-.6.9-1 1.6-1.3.7-.3 1.4-.4 2.3-.4 1.4 0 2.5.4 3.3 1.2.8.8 1.2 2 1.2 3.4v8.3h-4.5zM328.7 44.3c.6 0 1.3-.1 2.1-.4v3.2c-.6.3-1.2.4-1.7.5-.5.1-1.2.2-1.9.2-1.5 0-2.5-.4-3.2-1.1s-1-1.8-1-3.3v-5.2h-1.5v-1.8l2-1.4 1.1-2.7h2.9v2.5h3.1v3.3h-3.1v5c0 .8.4 1.2 1.2 1.2zM340.3 34.6c.4 0 .7 0 1.1.1h.2l-.4 4.1c-.4-.1-.9-.1-1.5-.1-1 0-1.7.2-2.1.7-.4.4-.7 1.1-.7 1.9v6.3h-4.4V34.8h3.3l.7 2h.2c.4-.7.9-1.2 1.5-1.6.8-.4 1.4-.6 2.1-.6z"/><path class="st0" d="M341.4 34.8h4.6l2.2 7.3c.1.4.2.8.2 1.4h.1c.1-.5.1-1 .3-1.4l2.2-7.3h4.5l-5 13.5c-.6 1.7-1.4 2.9-2.4 3.7-.9.7-2.2 1.1-3.7 1.1-.6 0-1.2-.1-1.8-.2v-3.4c.4.1.8.1 1.4.1.4 0 .7-.1 1-.2s.5-.4.8-.6.4-.7.7-1.3l-5.1-12.7zM356 45.7c0-.7.2-1.2.6-1.6.4-.4 1-.6 1.8-.6.7 0 1.3.2 1.7.6s.6.9.6 1.6c0 .7-.2 1.2-.6 1.6-.4.4-1 .6-1.7.6s-1.3-.2-1.8-.6c-.4-.4-.6-.9-.6-1.6z"/></svg>