<svg id="Layer_1" xmlns="http://www.w3.org/2000/svg" viewBox="0 0 107.7 26"><style>.st0{fill:#ff5100}.st1{fill:#fff}</style><path class="st0" d="M3.1 0S0 0 0 3.1v19.7s0 3.1 3.1 3.1h101.5s3.1 0 3.1-3.1V3.1s0-3.1-3.1-3.1H3.1z"/><path class="st1" d="M10 17.5V7.9h1.6v8.3h4.1v1.4H10zM20.3 17.7c-1.1 0-2-.3-2.7-1-.6-.7-1-1.6-1-2.7 0-1.2.3-2.1.9-2.8.6-.7 1.4-1 2.4-1s1.7.3 2.3.9c.6.6.8 1.4.8 2.4v.8h-4.9c0 .7.2 1.3.6 1.6s.9.6 1.5.6c.4 0 .8 0 1.2-.1.4-.1.8-.2 1.2-.4v1.3c-.4.2-.8.3-1.1.4-.3-.1-.7 0-1.2 0zm-.3-6.4c-.5 0-.9.2-1.2.5-.3.3-.5.8-.5 1.4h3.3c0-.6-.2-1.1-.4-1.4s-.7-.5-1.2-.5zM29.5 17.5l-.3-1h-.1c-.4.4-.7.7-1.1.9-.4.2-.8.2-1.4.2-.7 0-1.3-.2-1.7-.6-.4-.4-.6-.9-.6-1.6 0-.8.3-1.3.8-1.7.6-.4 1.4-.6 2.6-.6H29v-.4c0-.5-.1-.8-.3-1s-.6-.3-1-.3-.7.1-1.1.2c-.3.1-.7.2-1 .4l-.5-1.1c.4-.2.8-.4 1.3-.5.5-.1.9-.2 1.3-.2.9 0 1.6.2 2.1.6s.7 1 .7 1.9v4.9h-1zm-2.3-1c.6 0 1-.2 1.4-.5s.5-.8.5-1.3v-.6h-.9c-.7 0-1.3.1-1.6.4s-.6.5-.6 1c0 .3.1.6.3.8.2.1.5.2.9.2zM36.4 10.1c.3 0 .6 0 .8.1l-.2 1.4c-.2-.1-.4-.1-.7-.1-.6 0-1.1.2-1.5.6-.4.4-.6.9-.6 1.6v3.8h-1.5v-7.3h1.2l.2 1.3h.1c.2-.4.6-.8.9-1s.9-.4 1.3-.4zM45 17.5h-1.6V13c0-.6-.1-1-.3-1.3-.2-.3-.6-.4-1.1-.4-.7 0-1.1.2-1.4.6s-.5 1-.5 1.9v3.6h-1.5v-7.3h1.2l.2 1h.1c.2-.3.5-.6.9-.8.4-.2.9-.3 1.3-.3 1.7 0 2.6.9 2.6 2.7v4.8zM56.8 17.5h-1.6V13c0-.6-.1-1-.3-1.2-.2-.3-.5-.4-1-.4-.6 0-1 .2-1.3.6s-.4 1-.4 1.9v3.6h-1.5v-7.3h1.2l.2 1h.1c.2-.3.5-.6.9-.8.4-.2.8-.3 1.3-.3 1.1 0 1.9.4 2.2 1.1h.1c.2-.4.5-.6.9-.8.4-.2.8-.3 1.3-.3.9 0 1.5.2 1.9.7.4.4.6 1.1.6 2v4.8h-1.5V13c0-.6-.1-1-.3-1.2-.2-.3-.5-.4-1-.4-.6 0-1 .2-1.3.6s-.4 1-.4 1.7v3.8zM70 13.9c0 1.2-.3 2.1-.9 2.8-.6.7-1.5 1-2.6 1-.7 0-1.3-.2-1.8-.5s-.9-.7-1.2-1.3c-.3-.6-.4-1.2-.4-2 0-1.2.3-2.1.9-2.8.6-.7 1.5-1 2.6-1s1.9.3 2.5 1c.6.7.9 1.6.9 2.8zm-5.3 0c0 1.7.6 2.5 1.9 2.5 1.2 0 1.8-.8 1.8-2.5s-.6-2.5-1.9-2.5c-.7 0-1.1.2-1.4.6-.2.5-.4 1.1-.4 1.9zM75.5 10.1c.3 0 .6 0 .8.1l-.2 1.4c-.2-.1-.4-.1-.7-.1-.6 0-1.1.2-1.5.6-.4.4-.6.9-.6 1.6v3.8h-1.5v-7.3H73l.2 1.3h.1c.2-.4.6-.8.9-1s.8-.4 1.3-.4zM80.8 17.7c-1.1 0-2-.3-2.7-1-.6-.7-1-1.6-1-2.7 0-1.2.3-2.1.9-2.8.6-.7 1.4-1 2.4-1s1.7.3 2.3.9c.6.6.8 1.4.8 2.4v.8h-4.9c0 .7.2 1.3.6 1.6s.9.6 1.5.6c.4 0 .8 0 1.2-.1.4-.1.8-.2 1.2-.4v1.3c-.4.2-.8.3-1.1.4-.3-.1-.7 0-1.2 0zm-.3-6.4c-.5 0-.9.2-1.2.5-.3.3-.5.8-.5 1.4h3.3c0-.6-.2-1.1-.4-1.4s-.7-.5-1.2-.5z"/></svg>