<svg id="Layer_1" xmlns="http://www.w3.org/2000/svg" viewBox="0 0 728 90"><style>.st0{fill:#fff}.st1{fill:none}</style><path class="st0" d="M470.2 36.4h20l5.1 15.1H493l-4.4-12.9h-19.1z"/><path class="st0" d="M468.7 40.8H487l3.6 10.7h-2.3l-2.8-8.5h-17.4z"/><path class="st0" d="M467.5 45.4l-6.1 18.5 1.9 1.4 5.4-17.8h13.7l.7-2.1z"/><path class="st0" d="M470.4 49.7h11.3l-.7 2.1h-9l-5.1 16.3-1.8-1.6z"/><path class="st0" d="M469.2 69.7l16.1 11.2 1.6-1.4-15.3-10.8 4-12.8-1.9-1.4z"/><path class="st0" d="M477.4 57.2l2 1.2-2.8 8.4 13.7 9.8-1.5 1.6-14.7-10.5z"/><path class="st0" d="M492.5 72.9l-11.3-7.6-1.6 1.1 12.8 9.2 16.2-11.8-.9-2.1z"/><path class="st0" d="M483.6 63.5l1.4-1.2 7.4 5.4 13.8-10.2.9 2-14.6 10.7z"/><path class="st0" d="M492.2 62.5l.8 2 12.6-9.1-6.4-19h-2.1l6.1 18.1z"/><path class="st0" d="M492.4 36.4h2l6.1 17.3-9 6.6-.9-1.7 7.6-5.9zM468 10.4l-1.5 2.4-1.5-2.4h-1.8v6.3h1.7v-3.6l1.6 2.4 1.6-2.4v3.6h1.7v-6.3zM471 10.4h1.7v6.3H471zM473.9 10.4v6.3h4.7v-1.6h-3v-4.7zM479.4 10.4h1.7v6.3h-1.7zM481.9 10.4v1.5h1.9v4.8h1.8v-4.8h1.8v-1.5zM490.4 12.4l.7 1.8h-1.4l.7-1.8zm-.8-2l-2.7 6.3h1.8l.4-1.1h2.4l.5 1.1h1.9l-2.7-6.3h-1.6zM494.5 10.4h3c1 0 1.6.3 2 .7.4.4.6.8.6 1.5 0 1-.5 1.6-1.3 1.9l1.5 2.2h-2l-1.3-1.9h-.7v1.9h-1.7v-6.3zm2.9 3c.6 0 .9-.3.9-.7 0-.5-.4-.7-.9-.7h-1.1v1.5h1.1zM502.5 14.3l-2.3-3.9h1.9l1.3 2.3 1.3-2.3h2l-2.4 3.9v2.4h-1.8zM463.2 18.9h3.6c.9 0 1.5.2 1.9.6.3.3.4.6.4 1.1 0 .8-.5 1.3-1.1 1.5.8.3 1.4.8 1.4 1.7 0 1.2-1 1.9-2.6 1.9h-3.6v-6.8zm3.1 2.7c.6 0 .9-.2.9-.6 0-.4-.3-.6-.9-.6h-1.2v1.2h1.2zm.3 2.7c.6 0 .9-.2.9-.6 0-.4-.3-.6-.9-.6h-1.5v1.3h1.5zM470.3 18.9h5.6v1.6h-3.7v1.1h3.3v1.5h-3.3v1.1h3.7v1.6h-5.6zM476.9 18.9h1.8l2.9 3.6v-3.6h1.9v6.9h-1.7l-3-3.8v3.8h-1.9zM484.7 18.9h5.6v1.6h-3.7v1.1h3.3v1.5h-3.3v1.1h3.7v1.6h-5.6zM491.3 18.9h5.5v1.7h-3.6v1.1h3.3v1.6h-3.3v2.5h-1.9zM497.8 18.9h1.9v6.9h-1.9zM502.7 20.6h-2.1v-1.7h6.1v1.7h-2.1v5.2h-1.9zM464.5 28h1.1l1.8 4.3h-1.3l-.3-.8h-1.6l-.3.8h-1.2l1.8-4.3zm1 2.6l-.5-1.2-.5 1.2h1zM467.4 31.7l.7-.8c.4.3.9.5 1.4.5.3 0 .5-.1.5-.3 0-.2-.1-.3-.7-.4-.9-.2-1.6-.5-1.6-1.3s.6-1.4 1.6-1.4c.7 0 1.3.2 1.7.6l-.6.8c-.4-.3-.8-.4-1.2-.4-.3 0-.4.1-.4.3 0 .2.1.3.7.4 1 .2 1.6.5 1.6 1.3 0 .9-.7 1.4-1.7 1.4-.7 0-1.4-.2-2-.7M471.3 31.7l.7-.8c.4.3.9.5 1.4.5.3 0 .5-.1.5-.3 0-.2-.1-.3-.7-.4-.9-.2-1.6-.5-1.6-1.3s.6-1.4 1.6-1.4c.7 0 1.3.2 1.7.6l-.6.8c-.4-.3-.8-.4-1.2-.4-.3 0-.4.1-.4.3 0 .2.1.3.7.4 1 .2 1.6.5 1.6 1.3 0 .9-.7 1.4-1.7 1.4-.7 0-1.4-.2-2-.7M475.5 30.2c0-1.2 1-2.2 2.3-2.2 1.3 0 2.3 1 2.3 2.2 0 1.2-1 2.2-2.3 2.2-1.4 0-2.3-1-2.3-2.2m3.3 0c0-.6-.4-1.2-1.1-1.2-.6 0-1.1.5-1.1 1.1 0 .6.4 1.1 1.1 1.1.7.1 1.1-.4 1.1-1M480.5 30.2c0-1.3 1-2.2 2.2-2.2.9 0 1.4.4 1.8.9l-.9.7c-.2-.3-.5-.5-.9-.5-.6 0-1 .5-1 1.1 0 .6.4 1.1 1 1.1.4 0 .7-.2 1-.5l.9.6c-.4.6-.9 1-1.9 1-1.2 0-2.2-.9-2.2-2.2M485.1 28.1h1.2v4.3h-1.2zM488.5 28h1.1l1.8 4.3h-1.3l-.3-.8h-1.6l-.3.8h-1.2l1.8-4.3zm1.1 2.6l-.5-1.2-.5 1.2h1zM492.4 29.1h-1.3v-1h3.7v1h-1.2v3.2h-1.2zM495.4 28.1h1.2v4.3h-1.2zM497.2 30.2c0-1.2 1-2.2 2.3-2.2 1.3 0 2.3 1 2.3 2.2 0 1.2-1 2.2-2.3 2.2s-2.3-1-2.3-2.2m3.4 0c0-.6-.4-1.2-1.1-1.2-.6 0-1.1.5-1.1 1.1 0 .6.4 1.1 1.1 1.1.6.1 1.1-.4 1.1-1M502.4 28.1h1.1l1.7 2.2v-2.2h1.2v4.2h-1l-1.8-2.3v2.3h-1.2z"/><path class="st1" d="M461.4 10.4h47.1v70.5h-47.1z"/></svg>