<?xml version="1.0" encoding="utf-8"?>
<!-- Generator: Adobe Illustrator 22.1.0, SVG Export Plug-In . SVG Version: 6.00 Build 0)  -->
<svg version="1.1" id="Layer_1" xmlns="http://www.w3.org/2000/svg" xmlns:xlink="http://www.w3.org/1999/xlink" x="0px" y="0px"
	 viewBox="0 0 300 250" style="enable-background:new 0 0 300 250;" xml:space="preserve">
<style type="text/css">
	.st0{fill:#FFFFFF;}
</style>
<g>
	<path class="st0" d="M27.2,130.5h-4.3v-6.4H18v6.4h-4.3v-15.7H18v5.8h4.9v-5.8h4.3V130.5z"/>
	<path class="st0" d="M41.5,124.4c0,2-0.5,3.5-1.6,4.7c-1.1,1.1-2.6,1.7-4.5,1.7c-1.8,0-3.3-0.6-4.4-1.7c-1.1-1.1-1.6-2.7-1.6-4.6
		c0-2,0.5-3.5,1.6-4.6c1.1-1.1,2.6-1.6,4.5-1.6c1.2,0,2.3,0.3,3.2,0.8c0.9,0.5,1.6,1.2,2.1,2.2C41.2,122,41.5,123.1,41.5,124.4z
		 M33.6,124.4c0,1,0.1,1.8,0.4,2.4c0.3,0.5,0.7,0.8,1.4,0.8c0.7,0,1.1-0.3,1.4-0.8c0.3-0.5,0.4-1.3,0.4-2.4c0-1-0.1-1.8-0.4-2.4
		c-0.3-0.5-0.7-0.8-1.4-0.8c-0.6,0-1.1,0.3-1.4,0.8S33.6,123.3,33.6,124.4z"/>
	<path class="st0" d="M51.1,130.5v-6.6c0-0.8-0.1-1.4-0.3-1.8c-0.2-0.4-0.6-0.6-1.1-0.6c-0.7,0-1.2,0.3-1.5,0.8
		c-0.3,0.6-0.5,1.5-0.5,2.9v5.3h-4.2v-12.2h3.2l0.5,1.5h0.2c0.4-0.6,0.9-1,1.5-1.3c0.6-0.3,1.4-0.4,2.2-0.4c1.3,0,2.4,0.4,3.1,1.2
		c0.7,0.8,1.1,1.9,1.1,3.3v7.9H51.1z"/>
	<path class="st0" d="M69.2,124.4c0,2-0.5,3.5-1.6,4.7c-1.1,1.1-2.6,1.7-4.5,1.7c-1.8,0-3.3-0.6-4.4-1.7c-1.1-1.1-1.6-2.7-1.6-4.6
		c0-2,0.5-3.5,1.6-4.6c1.1-1.1,2.6-1.6,4.5-1.6c1.2,0,2.3,0.3,3.2,0.8c0.9,0.5,1.6,1.2,2.1,2.2C69,122,69.2,123.1,69.2,124.4z
		 M61.4,124.4c0,1,0.1,1.8,0.4,2.4c0.3,0.5,0.7,0.8,1.4,0.8c0.7,0,1.1-0.3,1.4-0.8c0.3-0.5,0.4-1.3,0.4-2.4c0-1-0.1-1.8-0.4-2.4
		c-0.3-0.5-0.7-0.8-1.4-0.8c-0.6,0-1.1,0.3-1.4,0.8S61.4,123.3,61.4,124.4z"/>
	<path class="st0" d="M78.5,118.1c0.4,0,0.7,0,1,0.1l0.2,0l-0.4,4c-0.3-0.1-0.8-0.1-1.4-0.1c-0.9,0-1.6,0.2-2,0.6
		c-0.4,0.4-0.6,1-0.6,1.8v6h-4.2v-12.2h3.1l0.7,1.9h0.2c0.4-0.6,0.8-1.2,1.5-1.6C77.3,118.3,77.9,118.1,78.5,118.1z"/>
	<path class="st0" d="M81,115.3c0-0.6,0.2-1.1,0.5-1.4c0.4-0.3,0.9-0.5,1.7-0.5c0.8,0,1.3,0.2,1.7,0.5c0.4,0.3,0.5,0.8,0.5,1.4
		c0,1.2-0.7,1.8-2.2,1.8C81.7,117.2,81,116.5,81,115.3z M85.3,130.5h-4.2v-12.2h4.2V130.5z"/>
	<path class="st0" d="M95.4,130.5v-6.6c0-0.8-0.1-1.4-0.3-1.8c-0.2-0.4-0.6-0.6-1.1-0.6c-0.7,0-1.2,0.3-1.5,0.8
		c-0.3,0.6-0.5,1.5-0.5,2.9v5.3h-4.2v-12.2h3.2l0.5,1.5h0.2c0.4-0.6,0.9-1,1.5-1.3c0.6-0.3,1.4-0.4,2.2-0.4c1.3,0,2.4,0.4,3.1,1.2
		c0.7,0.8,1.1,1.9,1.1,3.3v7.9H95.4z"/>
	<path class="st0" d="M113.4,118.3v2l-1.7,0.6c0.2,0.4,0.3,0.9,0.3,1.5c0,1.3-0.5,2.3-1.4,3.1c-0.9,0.7-2.3,1.1-4.1,1.1
		c-0.5,0-0.8,0-1.1-0.1c-0.1,0.2-0.2,0.4-0.2,0.5c0,0.2,0.2,0.4,0.5,0.5c0.3,0.1,0.8,0.2,1.3,0.2h2c2.7,0,4.1,1.1,4.1,3.4
		c0,1.5-0.6,2.6-1.9,3.5c-1.3,0.8-3,1.2-5.3,1.2c-1.7,0-3.1-0.3-4-0.9c-0.9-0.6-1.4-1.4-1.4-2.5c0-1.5,0.9-2.4,2.7-2.8
		c-0.4-0.2-0.7-0.4-1-0.8c-0.3-0.4-0.4-0.7-0.4-1c0-0.4,0.1-0.7,0.3-1c0.2-0.3,0.6-0.6,1.3-1c-0.6-0.3-1.1-0.7-1.5-1.3
		c-0.4-0.6-0.5-1.3-0.5-2.2c0-1.3,0.5-2.4,1.4-3.1s2.2-1.1,3.9-1.1c0.2,0,0.6,0,1.1,0.1c0.5,0.1,0.9,0.1,1.2,0.1H113.4z M104.3,132
		c0,0.3,0.2,0.6,0.6,0.8c0.4,0.2,0.9,0.3,1.5,0.3c1,0,1.8-0.1,2.4-0.4c0.6-0.3,0.9-0.6,0.9-1c0-0.3-0.2-0.5-0.6-0.7
		c-0.4-0.1-0.9-0.2-1.6-0.2h-1.6c-0.5,0-0.8,0.1-1.1,0.3C104.4,131.5,104.3,131.7,104.3,132z M105.6,122.3c0,1.2,0.4,1.9,1.3,1.9
		c0.4,0,0.7-0.2,0.9-0.5c0.2-0.3,0.3-0.8,0.3-1.4c0-1.3-0.4-1.9-1.3-1.9C106,120.4,105.6,121.1,105.6,122.3z"/>
	<path class="st0" d="M126.1,127.4c0.6,0,1.2-0.1,2-0.4v3.1c-0.6,0.2-1.1,0.4-1.6,0.5c-0.5,0.1-1.1,0.2-1.8,0.2
		c-1.4,0-2.4-0.3-3.1-1c-0.6-0.7-0.9-1.8-0.9-3.2v-5h-1.5v-1.7l1.9-1.3l1.1-2.6h2.8v2.4h3v3.1h-3v4.7
		C125,127,125.4,127.4,126.1,127.4z"/>
	<path class="st0" d="M137.7,130.5v-6.6c0-1.6-0.5-2.4-1.5-2.4c-0.7,0-1.2,0.3-1.5,0.9c-0.3,0.6-0.5,1.5-0.5,2.9v5.3H130v-16.7h4.2
		v2.4c0,1.1-0.1,2.3-0.2,3.7h0.2c0.4-0.6,0.9-1.1,1.4-1.3c0.6-0.3,1.2-0.4,1.9-0.4c1.4,0,2.4,0.4,3.2,1.2c0.8,0.8,1.1,1.9,1.1,3.3
		v7.9H137.7z"/>
	<path class="st0" d="M150.1,130.7c-2,0-3.6-0.5-4.7-1.6c-1.1-1.1-1.7-2.6-1.7-4.6c0-2.1,0.5-3.6,1.6-4.7c1-1.1,2.5-1.6,4.4-1.6
		c1.8,0,3.2,0.5,4.2,1.4c1,1,1.5,2.3,1.5,4.1v1.9H148c0,0.7,0.3,1.2,0.7,1.6c0.5,0.4,1.1,0.6,1.9,0.6c0.7,0,1.4-0.1,2-0.2
		c0.6-0.1,1.3-0.4,2-0.7v3c-0.7,0.3-1.3,0.6-2,0.7S151.1,130.7,150.1,130.7z M149.9,121c-0.5,0-0.9,0.2-1.2,0.5
		c-0.3,0.3-0.5,0.8-0.6,1.5h3.6c0-0.6-0.2-1.1-0.5-1.4C150.9,121.2,150.4,121,149.9,121z"/>
	<path class="st0" d="M170.2,118.1c1.3,0,2.4,0.6,3.2,1.7c0.8,1.1,1.2,2.6,1.2,4.6c0,2-0.4,3.5-1.2,4.6c-0.8,1.1-1.9,1.7-3.3,1.7
		c-0.5,0-0.9,0-1.2-0.1c-0.4-0.1-0.7-0.2-0.9-0.4c-0.3-0.2-0.6-0.5-1-0.9h-0.3l-0.7,1.2h-3.3v-16.7h4.2v3.8c0,0.5,0,1.2-0.2,2.3h0.2
		c0.4-0.6,0.9-1.1,1.4-1.4C168.9,118.3,169.5,118.1,170.2,118.1z M168.6,121.4c-0.6,0-1,0.2-1.3,0.6s-0.4,1-0.4,1.9v0.6
		c0,1,0.1,1.7,0.4,2.1c0.3,0.4,0.7,0.6,1.3,0.6c0.5,0,0.9-0.3,1.1-0.8c0.3-0.5,0.4-1.2,0.4-2.2C170.2,122.4,169.7,121.4,168.6,121.4
		z"/>
	<path class="st0" d="M176.3,115.3c0-0.6,0.2-1.1,0.5-1.4c0.4-0.3,0.9-0.5,1.7-0.5s1.3,0.2,1.7,0.5c0.4,0.3,0.5,0.8,0.5,1.4
		c0,1.2-0.7,1.8-2.2,1.8C177.1,117.2,176.3,116.5,176.3,115.3z M180.7,130.5h-4.2v-12.2h4.2V130.5z"/>
	<path class="st0" d="M190.5,118.1c0.4,0,0.7,0,1,0.1l0.2,0l-0.4,4c-0.3-0.1-0.8-0.1-1.4-0.1c-0.9,0-1.6,0.2-2,0.6s-0.6,1-0.6,1.8v6
		h-4.2v-12.2h3.1l0.7,1.9h0.2c0.4-0.6,0.8-1.2,1.5-1.6C189.2,118.3,189.8,118.1,190.5,118.1z"/>
	<path class="st0" d="M199.4,127.4c0.6,0,1.2-0.1,2-0.4v3.1c-0.6,0.2-1.1,0.4-1.6,0.5c-0.5,0.1-1.1,0.2-1.8,0.2
		c-1.4,0-2.4-0.3-3.1-1c-0.6-0.7-0.9-1.8-0.9-3.2v-5h-1.5v-1.7l1.9-1.3l1.1-2.6h2.8v2.4h3v3.1h-3v4.7
		C198.2,127,198.6,127.4,199.4,127.4z"/>
	<path class="st0" d="M211,130.5v-6.6c0-1.6-0.5-2.4-1.5-2.4c-0.7,0-1.2,0.3-1.5,0.9c-0.3,0.6-0.5,1.5-0.5,2.9v5.3h-4.2v-16.7h4.2
		v2.4c0,1.1-0.1,2.3-0.2,3.7h0.2c0.4-0.6,0.9-1.1,1.4-1.3s1.2-0.4,1.9-0.4c1.4,0,2.4,0.4,3.2,1.2c0.8,0.8,1.1,1.9,1.1,3.3v7.9H211z"
		/>
	<path class="st0" d="M234.5,124.4c0,2-0.5,3.5-1.6,4.7c-1.1,1.1-2.6,1.7-4.5,1.7c-1.8,0-3.3-0.6-4.4-1.7c-1.1-1.1-1.6-2.7-1.6-4.6
		c0-2,0.5-3.5,1.6-4.6c1.1-1.1,2.6-1.6,4.5-1.6c1.2,0,2.3,0.3,3.2,0.8c0.9,0.5,1.6,1.2,2.1,2.2C234.3,122,234.5,123.1,234.5,124.4z
		 M226.7,124.4c0,1,0.1,1.8,0.4,2.4c0.3,0.5,0.7,0.8,1.4,0.8c0.7,0,1.1-0.3,1.4-0.8c0.3-0.5,0.4-1.3,0.4-2.4c0-1-0.1-1.8-0.4-2.4
		c-0.3-0.5-0.7-0.8-1.4-0.8c-0.6,0-1.1,0.3-1.4,0.8S226.7,123.3,226.7,124.4z"/>
	<path class="st0" d="M243.9,121.5h-2.6v9h-4.2v-9h-1.6v-2.1l1.7-1v-0.2c0-1.6,0.3-2.8,1-3.5c0.7-0.7,1.7-1.1,3.2-1.1
		c0.6,0,1.1,0,1.6,0.1c0.5,0.1,1.1,0.2,1.7,0.5l-0.9,2.7c-0.5-0.1-1-0.2-1.5-0.2c-0.3,0-0.6,0.1-0.7,0.3c-0.1,0.2-0.2,0.5-0.2,1v0.3
		h2.6V121.5z"/>
</g>
<g>
	<path class="st0" d="M19.4,151.4c0.6,0,1.2-0.1,2-0.4v3.1c-0.6,0.2-1.1,0.4-1.6,0.5c-0.5,0.1-1.1,0.2-1.8,0.2c-1.4,0-2.4-0.3-3.1-1
		c-0.6-0.7-0.9-1.8-0.9-3.2v-5h-1.5v-1.7l1.9-1.3l1.1-2.6h2.8v2.4h3v3.1h-3v4.7C18.3,151,18.7,151.4,19.4,151.4z"/>
	<path class="st0" d="M31,154.5v-6.6c0-1.6-0.5-2.4-1.5-2.4c-0.7,0-1.2,0.3-1.5,0.9c-0.3,0.6-0.5,1.5-0.5,2.9v5.3h-4.2v-16.7h4.2
		v2.4c0,1.1-0.1,2.3-0.2,3.7h0.2c0.4-0.6,0.9-1.1,1.4-1.3c0.6-0.3,1.2-0.4,1.9-0.4c1.4,0,2.4,0.4,3.2,1.2c0.8,0.8,1.1,1.9,1.1,3.3
		v7.9H31z"/>
	<path class="st0" d="M43.5,154.7c-2,0-3.6-0.5-4.7-1.6c-1.1-1.1-1.7-2.6-1.7-4.6c0-2.1,0.5-3.6,1.6-4.7c1-1.1,2.5-1.6,4.4-1.6
		c1.8,0,3.2,0.5,4.2,1.4c1,1,1.5,2.3,1.5,4.1v1.9h-7.5c0,0.7,0.3,1.2,0.7,1.6c0.5,0.4,1.1,0.6,1.9,0.6c0.7,0,1.4-0.1,2-0.2
		c0.6-0.1,1.3-0.4,2-0.7v3c-0.7,0.3-1.3,0.6-2,0.7C45.3,154.7,44.4,154.7,43.5,154.7z M43.2,145c-0.5,0-0.9,0.2-1.2,0.5
		c-0.3,0.3-0.5,0.8-0.6,1.5H45c0-0.6-0.2-1.1-0.5-1.4C44.2,145.2,43.7,145,43.2,145z"/>
	<path class="st0" d="M69.6,138.8v9.5c0,2.1-0.6,3.6-1.7,4.8c-1.2,1.1-2.8,1.7-5,1.7c-2.1,0-3.8-0.5-4.9-1.6s-1.7-2.7-1.7-4.7v-9.5
		h4.3v9.2c0,1.1,0.2,1.9,0.6,2.4c0.4,0.5,1,0.8,1.8,0.8c0.9,0,1.5-0.2,1.9-0.7c0.4-0.5,0.6-1.3,0.6-2.4v-9.2H69.6z"/>
	<path class="st0" d="M71.4,152.7c0-0.7,0.2-1.2,0.6-1.5c0.4-0.4,1-0.5,1.7-0.5c0.7,0,1.3,0.2,1.6,0.5c0.4,0.4,0.6,0.9,0.6,1.5
		c0,0.6-0.2,1.1-0.6,1.5c-0.4,0.4-0.9,0.5-1.6,0.5c-0.7,0-1.3-0.2-1.7-0.5S71.4,153.4,71.4,152.7z"/>
	<path class="st0" d="M89,149.7c0,1-0.2,1.8-0.7,2.6c-0.5,0.8-1.2,1.3-2.1,1.8c-0.9,0.4-2,0.6-3.3,0.6c-1,0-1.9-0.1-2.6-0.2
		c-0.7-0.1-1.4-0.4-2.2-0.8V150c0.8,0.4,1.7,0.7,2.5,1c0.9,0.2,1.7,0.3,2.4,0.3c0.6,0,1.1-0.1,1.4-0.3c0.3-0.2,0.4-0.5,0.4-0.8
		c0-0.2-0.1-0.4-0.2-0.6c-0.1-0.2-0.3-0.3-0.6-0.5c-0.3-0.2-1-0.5-2.1-1c-1-0.5-1.8-0.9-2.3-1.4c-0.5-0.4-0.9-0.9-1.1-1.5
		s-0.4-1.2-0.4-2c0-1.4,0.5-2.6,1.6-3.4s2.5-1.2,4.3-1.2c1.6,0,3.3,0.4,5,1.1l-1.3,3.3c-1.5-0.7-2.7-1-3.8-1c-0.6,0-1,0.1-1.2,0.3
		c-0.3,0.2-0.4,0.4-0.4,0.7c0,0.3,0.2,0.6,0.5,0.8c0.3,0.2,1.2,0.7,2.6,1.3c1.4,0.6,2.3,1.3,2.8,2C88.8,147.8,89,148.7,89,149.7z"/>
	<path class="st0" d="M90.5,152.7c0-0.7,0.2-1.2,0.6-1.5c0.4-0.4,1-0.5,1.7-0.5c0.7,0,1.3,0.2,1.6,0.5c0.4,0.4,0.6,0.9,0.6,1.5
		c0,0.6-0.2,1.1-0.6,1.5c-0.4,0.4-0.9,0.5-1.6,0.5c-0.7,0-1.3-0.2-1.7-0.5S90.5,153.4,90.5,152.7z"/>
	<path class="st0" d="M112.5,154.5h-5.6l-5.7-11.1h-0.1c0.1,1.7,0.2,3.1,0.2,4v7.1h-3.8v-15.7h5.5l5.7,10.9h0.1
		c-0.1-1.6-0.2-2.9-0.2-3.8v-7.1h3.8V154.5z"/>
	<path class="st0" d="M123.1,154.5l-0.8-1.6h-0.1c-0.6,0.7-1.1,1.2-1.7,1.4c-0.6,0.3-1.3,0.4-2.3,0.4c-1.1,0-2-0.3-2.7-1
		c-0.7-0.7-1-1.7-1-2.9c0-1.3,0.5-2.3,1.4-2.9c0.9-0.6,2.2-1,3.9-1.1l2-0.1v-0.2c0-1-0.5-1.5-1.5-1.5c-0.9,0-2,0.3-3.4,0.9l-1.2-2.8
		c1.4-0.7,3.2-1.1,5.4-1.1c1.6,0,2.8,0.4,3.6,1.2c0.9,0.8,1.3,1.9,1.3,3.2v8H123.1z M120,151.8c0.5,0,0.9-0.2,1.3-0.5
		c0.4-0.3,0.5-0.7,0.5-1.3v-0.9l-1,0c-1.4,0-2.1,0.6-2.1,1.5C118.8,151.4,119.2,151.8,120,151.8z"/>
	<path class="st0" d="M134.2,151.4c0.6,0,1.2-0.1,2-0.4v3.1c-0.6,0.2-1.1,0.4-1.6,0.5c-0.5,0.1-1.1,0.2-1.8,0.2
		c-1.4,0-2.4-0.3-3.1-1c-0.6-0.7-0.9-1.8-0.9-3.2v-5h-1.5v-1.7l1.9-1.3l1.1-2.6h2.8v2.4h3v3.1h-3v4.7
		C133.1,151,133.5,151.4,134.2,151.4z"/>
	<path class="st0" d="M138,139.3c0-0.6,0.2-1.1,0.5-1.4c0.4-0.3,0.9-0.5,1.7-0.5c0.8,0,1.3,0.2,1.7,0.5c0.4,0.3,0.5,0.8,0.5,1.4
		c0,1.2-0.7,1.8-2.2,1.8C138.8,141.2,138,140.5,138,139.3z M142.3,154.5h-4.2v-12.2h4.2V154.5z"/>
	<path class="st0" d="M156.3,148.4c0,2-0.5,3.5-1.6,4.7c-1.1,1.1-2.6,1.7-4.5,1.7c-1.8,0-3.3-0.6-4.4-1.7c-1.1-1.1-1.6-2.7-1.6-4.6
		c0-2,0.5-3.5,1.6-4.6c1.1-1.1,2.6-1.6,4.5-1.6c1.2,0,2.3,0.3,3.2,0.8c0.9,0.5,1.6,1.2,2.1,2.2C156.1,146,156.3,147.1,156.3,148.4z
		 M148.5,148.4c0,1,0.1,1.8,0.4,2.4c0.3,0.5,0.7,0.8,1.4,0.8c0.7,0,1.1-0.3,1.4-0.8c0.3-0.5,0.4-1.3,0.4-2.4c0-1-0.1-1.8-0.4-2.4
		c-0.3-0.5-0.7-0.8-1.4-0.8c-0.6,0-1.1,0.3-1.4,0.8C148.6,146.6,148.5,147.3,148.5,148.4z"/>
	<path class="st0" d="M166,154.5v-6.6c0-0.8-0.1-1.4-0.3-1.8c-0.2-0.4-0.6-0.6-1.1-0.6c-0.7,0-1.2,0.3-1.5,0.8s-0.5,1.5-0.5,2.9v5.3
		h-4.2v-12.2h3.2l0.5,1.5h0.2c0.4-0.6,0.9-1,1.5-1.3c0.6-0.3,1.4-0.4,2.2-0.4c1.3,0,2.4,0.4,3.1,1.2c0.7,0.8,1.1,1.9,1.1,3.3v7.9
		H166z"/>
	<path class="st0" d="M180.4,154.5l-0.8-1.6h-0.1c-0.6,0.7-1.1,1.2-1.7,1.4s-1.3,0.4-2.3,0.4c-1.1,0-2-0.3-2.7-1s-1-1.7-1-2.9
		c0-1.3,0.5-2.3,1.4-2.9c0.9-0.6,2.2-1,3.9-1.1l2-0.1v-0.2c0-1-0.5-1.5-1.5-1.5c-0.9,0-2,0.3-3.4,0.9l-1.2-2.8
		c1.4-0.7,3.2-1.1,5.4-1.1c1.6,0,2.8,0.4,3.6,1.2c0.9,0.8,1.3,1.9,1.3,3.2v8H180.4z M177.3,151.8c0.5,0,0.9-0.2,1.3-0.5
		c0.4-0.3,0.5-0.7,0.5-1.3v-0.9l-1,0c-1.4,0-2.1,0.6-2.1,1.5C176.1,151.4,176.5,151.8,177.3,151.8z"/>
	<path class="st0" d="M189.9,154.5h-4.2v-16.7h4.2V154.5z"/>
	<path class="st0" d="M204.3,145.3h6.8v8.5c-1.8,0.6-3.9,0.9-6.1,0.9c-2.4,0-4.3-0.7-5.6-2.1c-1.3-1.4-2-3.4-2-6
		c0-2.5,0.7-4.5,2.2-5.9s3.5-2.1,6.1-2.1c1,0,1.9,0.1,2.8,0.3c0.9,0.2,1.6,0.4,2.3,0.7l-1.3,3.3c-1.1-0.6-2.4-0.8-3.7-0.8
		c-1.2,0-2.2,0.4-2.9,1.2c-0.7,0.8-1,2-1,3.5c0,1.5,0.3,2.6,0.9,3.4c0.6,0.8,1.5,1.2,2.6,1.2c0.6,0,1.2-0.1,1.7-0.2v-2.5h-2.8V145.3
		z"/>
	<path class="st0" d="M222.2,154.5l-0.5-1.5h-0.2c-0.4,0.6-0.8,1-1.5,1.3c-0.6,0.3-1.4,0.4-2.2,0.4c-1.3,0-2.4-0.4-3.1-1.2
		c-0.7-0.8-1.1-1.9-1.1-3.3v-7.9h4.2v6.6c0,0.8,0.1,1.4,0.3,1.8c0.2,0.4,0.6,0.6,1.1,0.6c0.7,0,1.2-0.3,1.5-0.9
		c0.3-0.6,0.5-1.5,0.5-2.9v-5.3h4.2v12.2H222.2z"/>
	<path class="st0" d="M235.7,154.5l-0.8-1.6h-0.1c-0.6,0.7-1.1,1.2-1.7,1.4s-1.3,0.4-2.3,0.4c-1.1,0-2-0.3-2.7-1s-1-1.7-1-2.9
		c0-1.3,0.5-2.3,1.4-2.9c0.9-0.6,2.2-1,3.9-1.1l2-0.1v-0.2c0-1-0.5-1.5-1.5-1.5c-0.9,0-2,0.3-3.4,0.9l-1.2-2.8
		c1.4-0.7,3.2-1.1,5.4-1.1c1.6,0,2.8,0.4,3.6,1.2c0.9,0.8,1.3,1.9,1.3,3.2v8H235.7z M232.6,151.8c0.5,0,0.9-0.2,1.3-0.5
		c0.4-0.3,0.5-0.7,0.5-1.3v-0.9l-1,0c-1.4,0-2.1,0.6-2.1,1.5C231.4,151.4,231.8,151.8,232.6,151.8z"/>
	<path class="st0" d="M248.4,142.1c0.4,0,0.7,0,1,0.1l0.2,0l-0.4,4c-0.3-0.1-0.8-0.1-1.4-0.1c-0.9,0-1.6,0.2-2,0.6
		c-0.4,0.4-0.6,1-0.6,1.8v6H241v-12.2h3.1l0.7,1.9h0.2c0.4-0.6,0.8-1.2,1.5-1.6C247.1,142.3,247.8,142.1,248.4,142.1z"/>
	<path class="st0" d="M254.7,154.7c-0.9,0-1.6-0.2-2.3-0.7c-0.6-0.5-1.1-1.2-1.5-2.2c-0.4-1-0.5-2.1-0.5-3.4c0-2,0.4-3.5,1.2-4.6
		s1.9-1.7,3.3-1.7c0.7,0,1.3,0.1,1.8,0.4c0.5,0.3,1,0.7,1.4,1.4h0.1c-0.1-1-0.2-1.9-0.2-2.9v-3.3h4.2v16.7H259l-0.9-1.5H258
		C257.2,154.1,256.2,154.7,254.7,154.7z M256.5,151.4c0.7,0,1.1-0.2,1.4-0.6c0.3-0.4,0.4-1.1,0.4-2v-0.3c0-1.1-0.2-1.8-0.5-2.3
		c-0.3-0.5-0.8-0.7-1.5-0.7c-0.6,0-1,0.3-1.3,0.8c-0.3,0.5-0.5,1.3-0.5,2.2c0,0.9,0.2,1.7,0.5,2.2S255.9,151.4,256.5,151.4z"/>
	<path class="st0" d="M264.4,152.7c0-0.7,0.2-1.2,0.6-1.5c0.4-0.4,1-0.5,1.7-0.5c0.7,0,1.3,0.2,1.6,0.5s0.6,0.9,0.6,1.5
		c0,0.6-0.2,1.1-0.6,1.5c-0.4,0.4-0.9,0.5-1.6,0.5c-0.7,0-1.3-0.2-1.7-0.5S264.4,153.4,264.4,152.7z"/>
</g>
<g>
	<path class="st0" d="M23,188.5h-9.3v-15.7H23v3.4H18v2.5h4.7v3.4H18v3H23V188.5z"/>
	<path class="st0" d="M34.6,184.8c0,1.3-0.4,2.3-1.3,3c-0.9,0.7-2.2,1-3.8,1c-0.9,0-1.7,0-2.4-0.1c-0.7-0.1-1.3-0.3-2-0.5v-3.4
		c0.7,0.3,1.4,0.5,2.1,0.7c0.8,0.2,1.5,0.3,2.1,0.3c0.9,0,1.4-0.2,1.4-0.6c0-0.2-0.1-0.4-0.4-0.6c-0.3-0.2-1-0.5-2.2-1
		c-1.1-0.5-1.9-1-2.3-1.6c-0.4-0.6-0.7-1.3-0.7-2.2c0-1.1,0.4-2,1.3-2.6c0.9-0.6,2.1-0.9,3.7-0.9c0.8,0,1.6,0.1,2.3,0.3
		c0.7,0.2,1.4,0.4,2.2,0.8l-1.1,2.7c-0.6-0.3-1.1-0.5-1.8-0.6c-0.6-0.2-1.1-0.3-1.5-0.3c-0.7,0-1,0.2-1,0.5c0,0.2,0.1,0.4,0.4,0.5
		c0.2,0.1,0.9,0.4,2.1,0.9c0.9,0.4,1.5,0.7,1.9,1s0.7,0.7,0.9,1.2C34.5,183.6,34.6,184.1,34.6,184.8z"/>
	<path class="st0" d="M42.5,185.4c0.6,0,1.2-0.1,2-0.4v3.1c-0.6,0.2-1.1,0.4-1.6,0.5c-0.5,0.1-1.1,0.2-1.8,0.2c-1.4,0-2.4-0.3-3.1-1
		c-0.6-0.7-0.9-1.8-0.9-3.2v-5h-1.5v-1.7l1.9-1.3l1.1-2.6h2.8v2.4h3v3.1h-3v4.7C41.4,185,41.8,185.4,42.5,185.4z"/>
	<path class="st0" d="M54.3,188.5l-0.8-1.6h-0.1c-0.6,0.7-1.1,1.2-1.7,1.4c-0.6,0.3-1.3,0.4-2.3,0.4c-1.1,0-2-0.3-2.7-1
		c-0.7-0.7-1-1.7-1-2.9c0-1.3,0.5-2.3,1.4-2.9c0.9-0.6,2.2-1,3.9-1.1l2-0.1v-0.2c0-1-0.5-1.5-1.5-1.5c-0.9,0-2,0.3-3.4,0.9l-1.2-2.8
		c1.4-0.7,3.2-1.1,5.4-1.1c1.6,0,2.8,0.4,3.6,1.2c0.9,0.8,1.3,1.9,1.3,3.2v8H54.3z M51.2,185.7c0.5,0,0.9-0.2,1.3-0.5
		c0.4-0.3,0.5-0.7,0.5-1.3v-0.9l-1,0c-1.4,0-2.1,0.6-2.1,1.5C50,185.4,50.4,185.7,51.2,185.7z"/>
	<path class="st0" d="M67.1,176.1c1.3,0,2.4,0.6,3.2,1.7c0.8,1.1,1.2,2.6,1.2,4.6c0,2-0.4,3.5-1.2,4.6c-0.8,1.1-1.9,1.7-3.3,1.7
		c-0.5,0-0.9,0-1.2-0.1c-0.4-0.1-0.7-0.2-0.9-0.4c-0.3-0.2-0.6-0.5-1-0.9h-0.3l-0.7,1.2h-3.3v-16.7h4.2v3.8c0,0.5-0.1,1.2-0.2,2.3
		h0.2c0.4-0.6,0.9-1.1,1.4-1.4C65.8,176.2,66.4,176.1,67.1,176.1z M65.5,179.4c-0.6,0-1,0.2-1.3,0.6c-0.3,0.4-0.4,1-0.4,1.9v0.6
		c0,1,0.1,1.7,0.4,2.1c0.3,0.4,0.7,0.6,1.3,0.6c0.5,0,0.9-0.3,1.1-0.8c0.3-0.5,0.4-1.2,0.4-2.2C67.1,180.4,66.6,179.4,65.5,179.4z"
		/>
	<path class="st0" d="M77.6,188.5h-4.2v-16.7h4.2V188.5z"/>
	<path class="st0" d="M80,173.3c0-0.6,0.2-1.1,0.5-1.4c0.4-0.3,0.9-0.5,1.7-0.5c0.8,0,1.3,0.2,1.7,0.5c0.4,0.3,0.5,0.8,0.5,1.4
		c0,1.2-0.7,1.8-2.2,1.8C80.7,175.1,80,174.5,80,173.3z M84.3,188.5h-4.2v-12.2h4.2V188.5z"/>
	<path class="st0" d="M96.1,184.8c0,1.3-0.4,2.3-1.3,3c-0.9,0.7-2.2,1-3.8,1c-0.9,0-1.7,0-2.4-0.1c-0.7-0.1-1.3-0.3-2-0.5v-3.4
		c0.7,0.3,1.4,0.5,2.1,0.7c0.8,0.2,1.5,0.3,2.1,0.3c0.9,0,1.4-0.2,1.4-0.6c0-0.2-0.1-0.4-0.4-0.6c-0.3-0.2-1-0.5-2.2-1
		c-1.1-0.5-1.9-1-2.3-1.6c-0.4-0.6-0.7-1.3-0.7-2.2c0-1.1,0.4-2,1.3-2.6c0.9-0.6,2.1-0.9,3.7-0.9c0.8,0,1.6,0.1,2.3,0.3
		c0.7,0.2,1.4,0.4,2.2,0.8l-1.1,2.7c-0.6-0.3-1.1-0.5-1.8-0.6c-0.6-0.2-1.1-0.3-1.5-0.3c-0.7,0-1,0.2-1,0.5c0,0.2,0.1,0.4,0.4,0.5
		c0.2,0.1,0.9,0.4,2.1,0.9c0.9,0.4,1.5,0.7,1.9,1s0.7,0.7,0.9,1.2C96,183.6,96.1,184.1,96.1,184.8z"/>
	<path class="st0" d="M105.7,188.5v-6.6c0-1.6-0.5-2.4-1.5-2.4c-0.7,0-1.2,0.3-1.5,0.9c-0.3,0.6-0.5,1.5-0.5,2.9v5.3H98v-16.7h4.2
		v2.4c0,1.1-0.1,2.3-0.2,3.7h0.2c0.4-0.6,0.9-1.1,1.4-1.3c0.6-0.3,1.2-0.4,1.9-0.4c1.4,0,2.4,0.4,3.2,1.2c0.8,0.8,1.1,1.9,1.1,3.3
		v7.9H105.7z"/>
	<path class="st0" d="M118.1,188.7c-2,0-3.6-0.5-4.7-1.6c-1.1-1.1-1.7-2.6-1.7-4.6c0-2.1,0.5-3.6,1.6-4.7c1-1.1,2.5-1.6,4.4-1.6
		c1.8,0,3.2,0.5,4.2,1.4c1,1,1.5,2.3,1.5,4.1v1.9H116c0,0.7,0.3,1.2,0.7,1.6c0.5,0.4,1.1,0.6,1.9,0.6c0.7,0,1.4-0.1,2-0.2
		c0.6-0.1,1.3-0.4,2-0.7v3c-0.7,0.3-1.3,0.6-2,0.7C119.9,188.6,119.1,188.7,118.1,188.7z M117.9,179c-0.5,0-0.9,0.2-1.2,0.5
		c-0.3,0.3-0.5,0.8-0.6,1.5h3.6c0-0.6-0.2-1.1-0.5-1.4C118.9,179.1,118.4,179,117.9,179z"/>
	<path class="st0" d="M129.3,188.7c-0.9,0-1.6-0.2-2.3-0.7c-0.6-0.5-1.1-1.2-1.5-2.2s-0.5-2.1-0.5-3.4c0-2,0.4-3.5,1.2-4.6
		s1.9-1.7,3.3-1.7c0.7,0,1.3,0.1,1.8,0.4c0.5,0.3,1,0.7,1.4,1.4h0.1c-0.1-1-0.2-1.9-0.2-2.9v-3.3h4.2v16.7h-3.2l-0.9-1.5h-0.2
		C131.8,188.1,130.7,188.7,129.3,188.7z M131,185.4c0.7,0,1.1-0.2,1.4-0.6c0.3-0.4,0.4-1.1,0.4-2v-0.3c0-1.1-0.2-1.8-0.5-2.3
		c-0.3-0.5-0.8-0.7-1.5-0.7c-0.6,0-1,0.3-1.3,0.8c-0.3,0.5-0.5,1.3-0.5,2.2c0,0.9,0.2,1.7,0.5,2.2C130,185.1,130.4,185.4,131,185.4z
		"/>
	<path class="st0" d="M153.2,188.5h-4.3v-8.3c0-1,0-1.9,0.1-2.8c-0.3,0.3-0.6,0.7-1,1l-1.8,1.5l-2.2-2.7l5.4-4.4h3.8V188.5z"/>
	<path class="st0" d="M156,181.9c0-2.2,0.3-4,0.9-5.3c0.6-1.4,1.6-2.4,2.8-3c1.2-0.6,2.7-1,4.5-1c0.6,0,1.4,0.1,2.2,0.2v3.3
		c-0.7-0.1-1.5-0.2-2.3-0.2c-1.4,0-2.5,0.3-3.2,0.9s-1.1,1.6-1.1,3.1h0.1c0.6-1.2,1.7-1.8,3.1-1.8c1.4,0,2.5,0.4,3.2,1.3
		c0.8,0.9,1.2,2.1,1.2,3.8c0,1.7-0.5,3.1-1.5,4.1c-1,1-2.3,1.5-4.1,1.5c-1.9,0-3.3-0.6-4.4-1.8S156,184,156,181.9z M161.8,185.3
		c0.5,0,0.8-0.2,1.1-0.5c0.3-0.3,0.4-0.9,0.4-1.6c0-1.3-0.5-1.9-1.5-1.9c-0.5,0-0.9,0.2-1.2,0.5c-0.3,0.3-0.5,0.7-0.5,1.2
		c0,0.7,0.1,1.3,0.4,1.7C160.9,185.1,161.3,185.3,161.8,185.3z"/>
	<path class="st0" d="M179.5,176.2c0,1-0.3,1.8-0.9,2.5c-0.6,0.7-1.5,1.2-2.6,1.5v0.1c2.6,0.3,3.9,1.6,3.9,3.7
		c0,1.5-0.6,2.6-1.7,3.4c-1.2,0.8-2.8,1.3-4.8,1.3c-0.8,0-1.6-0.1-2.3-0.2c-0.7-0.1-1.5-0.3-2.3-0.7v-3.5c0.7,0.4,1.4,0.6,2.1,0.8
		c0.7,0.2,1.4,0.3,2,0.3c0.9,0,1.6-0.1,2-0.4c0.4-0.3,0.6-0.7,0.6-1.2c0-0.4-0.1-0.8-0.3-1c-0.2-0.2-0.6-0.4-1.1-0.5
		c-0.5-0.1-1.1-0.2-1.9-0.2h-1v-3.2h1c2.2,0,3.2-0.6,3.2-1.7c0-0.4-0.2-0.7-0.5-0.9c-0.3-0.2-0.7-0.3-1.3-0.3c-1,0-2,0.3-3.1,1
		l-1.8-2.8c0.8-0.6,1.7-1,2.6-1.2c0.9-0.2,1.9-0.4,3-0.4c1.6,0,2.9,0.3,3.8,1S179.5,175.1,179.5,176.2z"/>
	<path class="st0" d="M181.4,181.9c0-2.2,0.3-4,0.9-5.3c0.6-1.4,1.6-2.4,2.8-3c1.2-0.6,2.7-1,4.5-1c0.6,0,1.4,0.1,2.2,0.2v3.3
		c-0.7-0.1-1.5-0.2-2.3-0.2c-1.4,0-2.5,0.3-3.2,0.9s-1.1,1.6-1.1,3.1h0.1c0.6-1.2,1.7-1.8,3.1-1.8c1.4,0,2.5,0.4,3.2,1.3
		c0.8,0.9,1.2,2.1,1.2,3.8c0,1.7-0.5,3.1-1.5,4.1c-1,1-2.3,1.5-4.1,1.5c-1.9,0-3.3-0.6-4.4-1.8S181.4,184,181.4,181.9z M187.2,185.3
		c0.5,0,0.8-0.2,1.1-0.5c0.3-0.3,0.4-0.9,0.4-1.6c0-1.3-0.5-1.9-1.5-1.9c-0.5,0-0.9,0.2-1.2,0.5c-0.3,0.3-0.5,0.7-0.5,1.2
		c0,0.7,0.1,1.3,0.4,1.7C186.3,185.1,186.7,185.3,187.2,185.3z"/>
	<path class="st0" d="M194.3,186.7c0-0.7,0.2-1.2,0.6-1.5c0.4-0.4,1-0.5,1.7-0.5c0.7,0,1.3,0.2,1.6,0.5s0.6,0.9,0.6,1.5
		c0,0.6-0.2,1.1-0.6,1.5c-0.4,0.4-0.9,0.5-1.6,0.5c-0.7,0-1.3-0.2-1.7-0.5S194.3,187.4,194.3,186.7z"/>
</g>
</svg>
