<?xml version="1.0" encoding="utf-8"?>
<!-- Generator: Adobe Illustrator 22.1.0, SVG Export Plug-In . SVG Version: 6.00 Build 0)  -->
<svg version="1.1" id="Layer_1" xmlns="http://www.w3.org/2000/svg" xmlns:xlink="http://www.w3.org/1999/xlink" x="0px" y="0px"
	 viewBox="0 0 300 250" style="enable-background:new 0 0 300 250;" xml:space="preserve">
<style type="text/css">
	.st0{fill:#FFFFFF;}
</style>
<g>
	<path class="st0" d="M19.3,120.6l2.7-5.8h4.6l-5.2,9.6v6.1h-4.3v-6l-5.2-9.7h4.6L19.3,120.6z"/>
	<path class="st0" d="M39.3,124.4c0,2-0.5,3.5-1.6,4.7c-1.1,1.1-2.6,1.7-4.5,1.7c-1.8,0-3.3-0.6-4.4-1.7c-1.1-1.1-1.6-2.7-1.6-4.6
		c0-2,0.5-3.5,1.6-4.6c1.1-1.1,2.6-1.6,4.5-1.6c1.2,0,2.3,0.3,3.2,0.8c0.9,0.5,1.6,1.2,2.1,2.2C39,122,39.3,123.1,39.3,124.4z
		 M31.4,124.4c0,1,0.1,1.8,0.4,2.4c0.3,0.5,0.7,0.8,1.4,0.8c0.7,0,1.1-0.3,1.4-0.8c0.3-0.5,0.4-1.3,0.4-2.4c0-1-0.1-1.8-0.4-2.4
		c-0.3-0.5-0.7-0.8-1.4-0.8c-0.6,0-1.1,0.3-1.4,0.8S31.4,123.3,31.4,124.4z"/>
	<path class="st0" d="M49.9,130.5l-0.5-1.5h-0.2c-0.4,0.6-0.8,1-1.5,1.3c-0.6,0.3-1.4,0.4-2.2,0.4c-1.3,0-2.4-0.4-3.1-1.2
		c-0.7-0.8-1.1-1.9-1.1-3.3v-7.9h4.2v6.6c0,0.8,0.1,1.4,0.3,1.8s0.6,0.6,1.1,0.6c0.7,0,1.2-0.3,1.5-0.9c0.3-0.6,0.5-1.5,0.5-2.9
		v-5.3h4.2v12.2H49.9z"/>
	<path class="st0" d="M68.5,130.5v-6.6c0-1.6-0.5-2.4-1.5-2.4c-0.7,0-1.2,0.3-1.5,0.9c-0.3,0.6-0.5,1.5-0.5,2.9v5.3h-4.2v-16.7H65
		v2.4c0,1.1-0.1,2.3-0.2,3.7h0.2c0.4-0.6,0.9-1.1,1.4-1.3c0.6-0.3,1.2-0.4,1.9-0.4c1.4,0,2.4,0.4,3.2,1.2c0.8,0.8,1.1,1.9,1.1,3.3
		v7.9H68.5z"/>
	<path class="st0" d="M81,130.7c-2,0-3.6-0.5-4.7-1.6c-1.1-1.1-1.7-2.6-1.7-4.6c0-2.1,0.5-3.6,1.6-4.7c1-1.1,2.5-1.6,4.4-1.6
		c1.8,0,3.2,0.5,4.2,1.4s1.5,2.3,1.5,4.1v1.9h-7.5c0,0.7,0.3,1.2,0.7,1.6c0.5,0.4,1.1,0.6,1.9,0.6c0.7,0,1.4-0.1,2-0.2
		c0.6-0.1,1.3-0.4,2-0.7v3c-0.7,0.3-1.3,0.6-2,0.7C82.8,130.7,82,130.7,81,130.7z M80.8,121c-0.5,0-0.9,0.2-1.2,0.5
		s-0.5,0.8-0.6,1.5h3.6c0-0.6-0.2-1.1-0.5-1.4C81.7,121.2,81.3,121,80.8,121z"/>
	<path class="st0" d="M92.5,130.5h-4.2v-16.7h4.2V130.5z"/>
	<path class="st0" d="M102.3,130.7c-0.6,0-1.2-0.1-1.7-0.3c-0.5-0.2-1-0.6-1.5-1.1H99c0.1,0.9,0.2,1.4,0.2,1.6v4.9H95v-17.5h3.4
		l0.6,1.5h0.2c0.8-1.2,1.9-1.8,3.2-1.8c1.3,0,2.4,0.6,3.2,1.7c0.8,1.1,1.1,2.6,1.1,4.6c0,2-0.4,3.5-1.2,4.6
		C104.7,130.2,103.7,130.7,102.3,130.7z M100.9,121.4c-0.6,0-1,0.2-1.3,0.7s-0.4,1.1-0.4,2v0.3c0,1,0.1,1.8,0.4,2.3s0.7,0.7,1.3,0.7
		c0.5,0,0.9-0.2,1.2-0.7c0.2-0.5,0.4-1.2,0.4-2.3c0-1-0.1-1.8-0.4-2.3C101.9,121.6,101.4,121.4,100.9,121.4z"/>
	<path class="st0" d="M121.3,130.7c-0.6,0-1.2-0.1-1.7-0.3c-0.5-0.2-1-0.6-1.5-1.1H118c0.1,0.9,0.2,1.4,0.2,1.6v4.9H114v-17.5h3.4
		l0.6,1.5h0.2c0.8-1.2,1.9-1.8,3.2-1.8c1.3,0,2.4,0.6,3.2,1.7c0.8,1.1,1.1,2.6,1.1,4.6c0,2-0.4,3.5-1.2,4.6
		C123.7,130.2,122.7,130.7,121.3,130.7z M119.9,121.4c-0.6,0-1,0.2-1.3,0.7s-0.4,1.1-0.4,2v0.3c0,1,0.1,1.8,0.4,2.3s0.7,0.7,1.3,0.7
		c0.5,0,0.9-0.2,1.2-0.7c0.2-0.5,0.4-1.2,0.4-2.3c0-1-0.1-1.8-0.4-2.3C120.9,121.6,120.5,121.4,119.9,121.4z"/>
	<path class="st0" d="M135,118.1c0.4,0,0.7,0,1,0.1l0.2,0l-0.4,4c-0.3-0.1-0.8-0.1-1.4-0.1c-0.9,0-1.6,0.2-2,0.6
		c-0.4,0.4-0.6,1-0.6,1.8v6h-4.2v-12.2h3.1l0.7,1.9h0.2c0.4-0.6,0.8-1.2,1.5-1.6C133.8,118.3,134.4,118.1,135,118.1z"/>
	<path class="st0" d="M149.2,124.4c0,2-0.5,3.5-1.6,4.7c-1.1,1.1-2.6,1.7-4.5,1.7c-1.8,0-3.3-0.6-4.4-1.7c-1.1-1.1-1.6-2.7-1.6-4.6
		c0-2,0.5-3.5,1.6-4.6c1.1-1.1,2.6-1.6,4.5-1.6c1.2,0,2.3,0.3,3.2,0.8c0.9,0.5,1.6,1.2,2.1,2.2C149,122,149.2,123.1,149.2,124.4z
		 M141.3,124.4c0,1,0.1,1.8,0.4,2.4c0.3,0.5,0.7,0.8,1.4,0.8c0.7,0,1.1-0.3,1.4-0.8c0.3-0.5,0.4-1.3,0.4-2.4c0-1-0.1-1.8-0.4-2.4
		c-0.3-0.5-0.7-0.8-1.4-0.8c-0.6,0-1.1,0.3-1.4,0.8S141.3,123.3,141.3,124.4z"/>
	<path class="st0" d="M157.1,127.4c0.6,0,1.2-0.1,2-0.4v3.1c-0.6,0.2-1.1,0.4-1.6,0.5c-0.5,0.1-1.1,0.2-1.8,0.2
		c-1.4,0-2.4-0.3-3.1-1c-0.6-0.7-0.9-1.8-0.9-3.2v-5h-1.5v-1.7l1.9-1.3l1.1-2.6h2.8v2.4h3v3.1h-3v4.7
		C156,127,156.4,127.4,157.1,127.4z"/>
	<path class="st0" d="M166.7,130.7c-2,0-3.6-0.5-4.7-1.6c-1.1-1.1-1.7-2.6-1.7-4.6c0-2.1,0.5-3.6,1.6-4.7c1-1.1,2.5-1.6,4.4-1.6
		c1.8,0,3.2,0.5,4.2,1.4c1,1,1.5,2.3,1.5,4.1v1.9h-7.5c0,0.7,0.3,1.2,0.7,1.6c0.5,0.4,1.1,0.6,1.9,0.6c0.7,0,1.4-0.1,2-0.2
		c0.6-0.1,1.3-0.4,2-0.7v3c-0.7,0.3-1.3,0.6-2,0.7S167.7,130.7,166.7,130.7z M166.5,121c-0.5,0-0.9,0.2-1.2,0.5
		c-0.3,0.3-0.5,0.8-0.6,1.5h3.6c0-0.6-0.2-1.1-0.5-1.4C167.5,121.2,167,121,166.5,121z"/>
	<path class="st0" d="M179.6,130.7c-2,0-3.5-0.5-4.5-1.6c-1-1.1-1.5-2.6-1.5-4.6c0-2,0.6-3.6,1.7-4.7c1.1-1.1,2.7-1.7,4.7-1.7
		c1.4,0,2.7,0.3,4,0.9l-1.2,3.1c-0.5-0.2-1-0.4-1.4-0.5c-0.4-0.1-0.9-0.2-1.3-0.2c-0.7,0-1.2,0.3-1.6,0.8c-0.4,0.5-0.6,1.3-0.6,2.2
		c0,1.9,0.7,2.9,2.2,2.9c1.2,0,2.4-0.4,3.5-1.1v3.3C182.4,130.4,181.1,130.7,179.6,130.7z"/>
	<path class="st0" d="M191.4,127.4c0.6,0,1.2-0.1,2-0.4v3.1c-0.6,0.2-1.1,0.4-1.6,0.5c-0.5,0.1-1.1,0.2-1.8,0.2
		c-1.4,0-2.4-0.3-3.1-1c-0.6-0.7-0.9-1.8-0.9-3.2v-5h-1.5v-1.7l1.9-1.3l1.1-2.6h2.8v2.4h3v3.1h-3v4.7
		C190.3,127,190.6,127.4,191.4,127.4z"/>
</g>
<g>
	<path class="st0" d="M19.4,151.4c0.6,0,1.2-0.1,2-0.4v3.1c-0.6,0.2-1.1,0.4-1.6,0.5c-0.5,0.1-1.1,0.2-1.8,0.2c-1.4,0-2.4-0.3-3.1-1
		c-0.6-0.7-0.9-1.8-0.9-3.2v-5h-1.5v-1.7l1.9-1.3l1.1-2.6h2.8v2.4h3v3.1h-3v4.7C18.3,151,18.7,151.4,19.4,151.4z"/>
	<path class="st0" d="M30.8,154.5v-6.6c0-1.6-0.5-2.4-1.5-2.4c-0.7,0-1.2,0.3-1.5,0.9c-0.3,0.6-0.5,1.5-0.5,2.9v5.3h-4.2v-16.7h4.2
		v2.4c0,1.1-0.1,2.3-0.2,3.7h0.2c0.4-0.6,0.9-1.1,1.4-1.3c0.6-0.3,1.2-0.4,1.9-0.4c1.4,0,2.4,0.4,3.2,1.2c0.8,0.8,1.1,1.9,1.1,3.3
		v7.9H30.8z"/>
	<path class="st0" d="M43.4,154.7c-2,0-3.6-0.5-4.7-1.6c-1.1-1.1-1.7-2.6-1.7-4.6c0-2.1,0.5-3.6,1.6-4.7c1-1.1,2.5-1.6,4.4-1.6
		c1.8,0,3.2,0.5,4.2,1.4c1,1,1.5,2.3,1.5,4.1v1.9h-7.5c0,0.7,0.3,1.2,0.7,1.6c0.5,0.4,1.1,0.6,1.9,0.6c0.7,0,1.4-0.1,2-0.2
		c0.6-0.1,1.3-0.4,2-0.7v3c-0.7,0.3-1.3,0.6-2,0.7C45.2,154.7,44.3,154.7,43.4,154.7z M43.1,145c-0.5,0-0.9,0.2-1.2,0.5
		c-0.3,0.3-0.5,0.8-0.6,1.5h3.6c0-0.6-0.2-1.1-0.5-1.4C44.1,145.2,43.7,145,43.1,145z"/>
	<path class="st0" d="M61.5,154.7c-2,0-3.5-0.5-4.5-1.6c-1-1.1-1.5-2.6-1.5-4.6c0-2,0.6-3.6,1.7-4.7c1.1-1.1,2.7-1.7,4.7-1.7
		c1.4,0,2.7,0.3,4,0.9l-1.2,3.1c-0.5-0.2-1-0.4-1.4-0.5c-0.4-0.1-0.9-0.2-1.3-0.2c-0.7,0-1.2,0.3-1.6,0.8c-0.4,0.5-0.6,1.3-0.6,2.2
		c0,1.9,0.7,2.9,2.2,2.9c1.2,0,2.4-0.4,3.5-1.1v3.3C64.3,154.4,63,154.7,61.5,154.7z"/>
	<path class="st0" d="M79,148.4c0,2-0.5,3.5-1.6,4.7c-1.1,1.1-2.6,1.7-4.5,1.7c-1.8,0-3.3-0.6-4.4-1.7c-1.1-1.1-1.6-2.7-1.6-4.6
		c0-2,0.5-3.5,1.6-4.6c1.1-1.1,2.6-1.6,4.5-1.6c1.2,0,2.3,0.3,3.2,0.8c0.9,0.5,1.6,1.2,2.1,2.2C78.7,146,79,147.1,79,148.4z
		 M71.1,148.4c0,1,0.1,1.8,0.4,2.4c0.3,0.5,0.7,0.8,1.4,0.8c0.7,0,1.1-0.3,1.4-0.8c0.3-0.5,0.4-1.3,0.4-2.4c0-1-0.1-1.8-0.4-2.4
		c-0.3-0.5-0.7-0.8-1.4-0.8c-0.6,0-1.1,0.3-1.4,0.8C71.2,146.6,71.1,147.3,71.1,148.4z"/>
	<path class="st0" d="M89.6,154.5l-0.5-1.5h-0.2c-0.4,0.6-0.8,1-1.5,1.3c-0.6,0.3-1.4,0.4-2.2,0.4c-1.3,0-2.4-0.4-3.1-1.2
		c-0.7-0.8-1.1-1.9-1.1-3.3v-7.9h4.2v6.6c0,0.8,0.1,1.4,0.3,1.8s0.6,0.6,1.1,0.6c0.7,0,1.2-0.3,1.5-0.9c0.3-0.6,0.5-1.5,0.5-2.9
		v-5.3h4.2v12.2H89.6z"/>
	<path class="st0" d="M102.9,154.5v-6.6c0-0.8-0.1-1.4-0.3-1.8c-0.2-0.4-0.6-0.6-1.1-0.6c-0.7,0-1.2,0.3-1.5,0.8
		c-0.3,0.6-0.5,1.5-0.5,2.9v5.3h-4.2v-12.2h3.2l0.5,1.5h0.2c0.4-0.6,0.9-1,1.5-1.3s1.4-0.4,2.2-0.4c1.3,0,2.4,0.4,3.1,1.2
		c0.7,0.8,1.1,1.9,1.1,3.3v7.9H102.9z"/>
	<path class="st0" d="M115.5,151.4c0.6,0,1.2-0.1,2-0.4v3.1c-0.6,0.2-1.1,0.4-1.6,0.5c-0.5,0.1-1.1,0.2-1.8,0.2
		c-1.4,0-2.4-0.3-3.1-1c-0.6-0.7-0.9-1.8-0.9-3.2v-5h-1.5v-1.7l1.9-1.3l1.1-2.6h2.8v2.4h3v3.1h-3v4.7
		C114.4,151,114.8,151.4,115.5,151.4z"/>
	<path class="st0" d="M126.6,142.1c0.4,0,0.7,0,1,0.1l0.2,0l-0.4,4c-0.3-0.1-0.8-0.1-1.4-0.1c-0.9,0-1.6,0.2-2,0.6
		c-0.4,0.4-0.6,1-0.6,1.8v6h-4.2v-12.2h3.1l0.7,1.9h0.2c0.4-0.6,0.8-1.2,1.5-1.6C125.4,142.3,126,142.1,126.6,142.1z"/>
	<path class="st0" d="M127.7,142.3h4.4l2.1,7c0.1,0.4,0.2,0.8,0.2,1.3h0.1c0.1-0.5,0.1-0.9,0.3-1.3l2.1-7h4.3l-4.8,12.9
		c-0.6,1.6-1.4,2.8-2.3,3.5c-0.9,0.7-2.1,1-3.5,1c-0.6,0-1.1-0.1-1.7-0.2v-3.3c0.4,0.1,0.8,0.1,1.3,0.1c0.4,0,0.7-0.1,1-0.2
		s0.5-0.3,0.7-0.6c0.2-0.3,0.4-0.7,0.7-1.3L127.7,142.3z"/>
	<path class="st0" d="M141.6,152.7c0-0.7,0.2-1.2,0.6-1.5c0.4-0.4,1-0.5,1.7-0.5c0.7,0,1.3,0.2,1.6,0.5c0.4,0.4,0.6,0.9,0.6,1.5
		c0,0.6-0.2,1.1-0.6,1.5c-0.4,0.4-0.9,0.5-1.6,0.5c-0.7,0-1.3-0.2-1.7-0.5S141.6,153.4,141.6,152.7z"/>
</g>
</svg>
