<?xml version="1.0" encoding="utf-8"?>
<!-- Generator: Adobe Illustrator 22.1.0, SVG Export Plug-In . SVG Version: 6.00 Build 0)  -->
<svg version="1.1" id="Layer_1" xmlns="http://www.w3.org/2000/svg" xmlns:xlink="http://www.w3.org/1999/xlink" x="0px" y="0px"
	 viewBox="0 0 300 250" style="enable-background:new 0 0 300 250;" xml:space="preserve">
<style type="text/css">
	.st0{fill:#FFFFFF;}
	.st1{fill:none;}
</style>
<polygon class="st0" points="241.3,51.7 264.7,51.7 270.6,69.4 267.9,69.4 262.8,54.4 240.5,54.3 "/>
<polygon class="st0" points="239.6,56.9 261,56.9 265.2,69.4 262.5,69.4 259.2,59.5 238.8,59.5 "/>
<polygon class="st0" points="238.1,62.3 231,84 233.2,85.6 239.6,64.7 255.6,64.7 256.4,62.3 "/>
<polygon class="st0" points="241.6,67.3 254.7,67.3 253.9,69.7 243.4,69.7 237.5,88.8 235.4,87 "/>
<polygon class="st0" points="240.1,90.7 258.9,103.7 260.8,102.1 242.9,89.6 247.6,74.6 245.3,72.9 "/>
<polygon class="st0" points="249.8,76 252,77.4 248.8,87.3 264.8,98.8 263,100.6 245.8,88.3 "/>
<polygon class="st0" points="267.4,94.5 254.2,85.6 252.3,86.8 267.2,97.6 286.1,83.8 285.2,81.3 "/>
<polygon class="st0" points="256.9,83.5 258.6,82.1 267.3,88.3 283.4,76.5 284.5,78.8 267.4,91.3 "/>
<polygon class="st0" points="267,82.3 267.9,84.7 282.7,73.9 275.2,51.7 272.7,51.7 279.9,72.9 "/>
<polygon class="st0" points="267.3,51.7 269.6,51.7 276.7,72 266.2,79.8 265.2,77.8 274,70.9 "/>
<polygon class="st0" points="238.7,21.4 237,24.2 235.2,21.4 233.1,21.4 233.1,28.7 235.1,28.7 235.1,24.5 236.9,27.4 237,27.4 
	238.8,24.5 238.8,28.7 240.9,28.7 240.9,21.4 "/>
<rect x="242.2" y="21.4" class="st0" width="2" height="7.3"/>
<polygon class="st0" points="245.6,21.4 245.6,28.7 251.1,28.7 251.1,26.9 247.6,26.9 247.6,21.4 "/>
<rect x="252.1" y="21.4" class="st0" width="2" height="7.3"/>
<polygon class="st0" points="255,21.4 255,23.2 257.2,23.2 257.2,28.7 259.2,28.7 259.2,23.2 261.4,23.2 261.4,21.4 "/>
<path class="st0" d="M264.9,23.7l0.8,2.1h-1.6L264.9,23.7z M263.9,21.3l-3.1,7.4h2.1l0.5-1.3h2.8l0.5,1.3h2.2l-3.1-7.4H263.9z"/>
<path class="st0" d="M269.7,21.4h3.5c1.1,0,1.9,0.3,2.4,0.8c0.4,0.4,0.6,1,0.6,1.7v0c0,1.1-0.6,1.9-1.5,2.2l1.7,2.6h-2.3l-1.5-2.2h0
	h-0.9v2.2h-2V21.4z M273.1,24.9c0.7,0,1.1-0.3,1.1-0.9v0c0-0.6-0.4-0.9-1.1-0.9h-1.3v1.8H273.1z"/>
<polygon class="st0" points="279.1,26 276.3,21.4 278.6,21.4 280.1,24 281.6,21.4 283.9,21.4 281.1,25.9 281.1,28.7 279.1,28.7 "/>
<path class="st0" d="M233.1,31.3h4.2c1,0,1.7,0.3,2.2,0.7c0.3,0.3,0.5,0.8,0.5,1.3v0c0,0.9-0.5,1.5-1.2,1.8c1,0.3,1.6,0.9,1.6,2v0
	c0,1.4-1.1,2.2-3.1,2.2h-4.2V31.3z M236.7,34.5c0.7,0,1.1-0.2,1.1-0.7v0c0-0.4-0.3-0.7-1-0.7h-1.5v1.4H236.7z M237.1,37.6
	c0.7,0,1.1-0.3,1.1-0.7v0c0-0.4-0.3-0.7-1.1-0.7h-1.7v1.5H237.1z"/>
<polygon class="st0" points="241.4,31.3 247.9,31.3 247.9,33.2 243.6,33.2 243.6,34.4 247.5,34.4 247.5,36.2 243.6,36.2 243.6,37.5 
	248,37.5 248,39.4 241.4,39.4 "/>
<polygon class="st0" points="249.1,31.3 251.2,31.3 254.6,35.6 254.6,31.3 256.8,31.3 256.8,39.4 254.8,39.4 251.4,35 251.4,39.4 
	249.1,39.4 "/>
<polygon class="st0" points="258.2,31.3 264.7,31.3 264.7,33.2 260.5,33.2 260.5,34.4 264.3,34.4 264.3,36.2 260.5,36.2 260.5,37.5 
	264.8,37.5 264.8,39.4 258.2,39.4 "/>
<polygon class="st0" points="266,31.3 272.4,31.3 272.4,33.3 268.2,33.3 268.2,34.6 272,34.6 272,36.5 268.2,36.5 268.2,39.4 
	266,39.4 "/>
<rect x="273.5" y="31.3" class="st0" width="2.3" height="8.1"/>
<polygon class="st0" points="279.2,33.3 276.8,33.3 276.8,31.3 283.9,31.3 283.9,33.3 281.5,33.3 281.5,39.4 279.2,39.4 "/>
<path class="st0" d="M234.6,42h1.3l2.1,5h-1.5l-0.4-0.9h-1.9l-0.4,0.9h-1.4L234.6,42z M235.8,45l-0.6-1.4l-0.6,1.4H235.8z"/>
<path class="st0" d="M238.1,46.3l0.8-0.9c0.5,0.4,1,0.6,1.6,0.6c0.4,0,0.6-0.1,0.6-0.3v0c0-0.2-0.2-0.3-0.8-0.5
	c-1.1-0.2-1.9-0.5-1.9-1.6v0c0-0.9,0.7-1.6,1.9-1.6c0.8,0,1.5,0.2,2,0.7l-0.7,1c-0.5-0.3-1-0.5-1.4-0.5c-0.3,0-0.5,0.1-0.5,0.3v0
	c0,0.2,0.2,0.3,0.9,0.5c1.1,0.2,1.9,0.6,1.9,1.5v0c0,1-0.8,1.6-2,1.6C239.5,47.1,238.7,46.8,238.1,46.3"/>
<path class="st0" d="M242.6,46.3l0.8-0.9c0.5,0.4,1,0.6,1.6,0.6c0.4,0,0.6-0.1,0.6-0.3v0c0-0.2-0.2-0.3-0.8-0.5
	c-1.1-0.2-1.9-0.5-1.9-1.6v0c0-0.9,0.7-1.6,1.9-1.6c0.8,0,1.5,0.2,2,0.7l-0.7,1c-0.5-0.3-1-0.5-1.4-0.5c-0.3,0-0.5,0.1-0.5,0.3v0
	c0,0.2,0.2,0.3,0.9,0.5c1.1,0.2,1.9,0.6,1.9,1.5v0c0,1-0.8,1.6-2,1.6C244.1,47.1,243.2,46.8,242.6,46.3"/>
<path class="st0" d="M247.4,44.5L247.4,44.5c0-1.4,1.1-2.6,2.7-2.6c1.5,0,2.7,1.1,2.7,2.6v0c0,1.4-1.1,2.6-2.7,2.6
	C248.6,47.1,247.4,46,247.4,44.5 M251.4,44.5L251.4,44.5c0-0.7-0.5-1.4-1.3-1.4c-0.8,0-1.3,0.6-1.3,1.3v0c0,0.7,0.5,1.3,1.3,1.3
	C250.9,45.9,251.4,45.2,251.4,44.5"/>
<path class="st0" d="M253.3,44.5L253.3,44.5c0-1.5,1.1-2.6,2.6-2.6c1,0,1.7,0.4,2.1,1l-1,0.8c-0.3-0.4-0.6-0.6-1.1-0.6
	c-0.7,0-1.2,0.6-1.2,1.3v0c0,0.7,0.5,1.3,1.2,1.3c0.5,0,0.8-0.2,1.1-0.6l1,0.7c-0.5,0.6-1.1,1.1-2.2,1.1
	C254.5,47.1,253.3,46,253.3,44.5"/>
<rect x="258.7" y="42" class="st0" width="1.4" height="5"/>
<path class="st0" d="M262.7,42h1.3l2.1,5h-1.5l-0.4-0.9h-1.9l-0.4,0.9h-1.4L262.7,42z M263.9,45l-0.6-1.4l-0.6,1.4H263.9z"/>
<polygon class="st0" points="267.2,43.2 265.7,43.2 265.7,42 270.1,42 270.1,43.2 268.6,43.2 268.6,47 267.2,47 "/>
<rect x="270.7" y="42" class="st0" width="1.4" height="5"/>
<path class="st0" d="M272.9,44.5L272.9,44.5c0-1.4,1.1-2.6,2.7-2.6c1.5,0,2.7,1.1,2.7,2.6v0c0,1.4-1.1,2.6-2.7,2.6
	C274,47.1,272.9,46,272.9,44.5 M276.8,44.5L276.8,44.5c0-0.7-0.5-1.4-1.3-1.4c-0.8,0-1.3,0.6-1.3,1.3v0c0,0.7,0.5,1.3,1.3,1.3
	C276.3,45.9,276.8,45.2,276.8,44.5"/>
<polygon class="st0" points="278.9,42 280.2,42 282.2,44.7 282.2,42 283.6,42 283.6,47 282.4,47 280.3,44.3 280.3,47 278.9,47 "/>
<rect x="231" y="21.3" class="st1" width="55.1" height="82.4"/>
</svg>
