<svg id="Layer_1" xmlns="http://www.w3.org/2000/svg" viewBox="0 0 300 250"><style>.st0{fill:#fff}</style><path class="st0" d="M35 114.7h-4.7v-7H25v7h-4.7V97.5H25v6.4h5.4v-6.4H35v17.2zM50.6 108c0 2.2-.6 3.9-1.8 5.1s-2.8 1.8-4.9 1.8c-2 0-3.6-.6-4.8-1.9s-1.8-2.9-1.8-5c0-2.2.6-3.8 1.8-5s2.8-1.8 4.9-1.8c1.3 0 2.5.3 3.5.8s1.8 1.3 2.3 2.4.8 2.2.8 3.6zm-8.6 0c0 1.1.2 2 .5 2.6s.8.9 1.5.9 1.2-.3 1.5-.9.4-1.5.4-2.6-.1-2-.4-2.6-.8-.9-1.5-.9-1.2.3-1.5.9-.5 1.4-.5 2.6zM61.2 114.7v-7.2c0-.9-.1-1.5-.4-2s-.7-.7-1.2-.7c-.8 0-1.3.3-1.7.9s-.5 1.7-.5 3.2v5.8h-4.6v-13.3h3.5l.6 1.6h.3c.4-.6.9-1.1 1.6-1.4s1.5-.5 2.4-.5c1.5 0 2.6.4 3.4 1.3s1.2 2.1 1.2 3.6v8.6h-4.6zM81.1 108c0 2.2-.6 3.9-1.8 5.1s-2.8 1.8-4.9 1.8c-2 0-3.6-.6-4.8-1.9s-1.8-2.9-1.8-5c0-2.2.6-3.8 1.8-5s2.8-1.8 4.9-1.8c1.3 0 2.5.3 3.5.8s1.8 1.3 2.3 2.4.8 2.2.8 3.6zm-8.6 0c0 1.1.2 2 .5 2.6s.8.9 1.5.9 1.2-.3 1.5-.9.4-1.5.4-2.6-.1-2-.4-2.6-.8-.9-1.5-.9-1.2.3-1.5.9-.5 1.4-.5 2.6zM91.2 101.1c.4 0 .8 0 1.1.1h.3l-.4 4.3c-.4-.1-.9-.1-1.6-.1-1 0-1.7.2-2.2.7s-.7 1.1-.7 2v6.5h-4.6v-13.3h3.4l.7 2.1h.2c.4-.7.9-1.3 1.6-1.7s1.5-.6 2.2-.6zM93.9 98.1c0-.7.2-1.2.6-1.5s1-.5 1.9-.5 1.5.2 1.9.5.6.9.6 1.5c0 1.3-.8 2-2.4 2-1.8 0-2.6-.7-2.6-2zm4.7 16.6H94v-13.3h4.6v13.3zM109.7 114.7v-7.2c0-.9-.1-1.5-.4-2s-.7-.7-1.2-.7c-.8 0-1.3.3-1.7.9s-.5 1.7-.5 3.2v5.8h-4.6v-13.3h3.5l.6 1.6h.3c.4-.6.9-1.1 1.6-1.4s1.5-.5 2.4-.5c1.5 0 2.6.4 3.4 1.3s1.2 2.1 1.2 3.6v8.6h-4.6zM129.5 101.4v2.2l-1.8.7c.2.5.4 1 .4 1.6 0 1.4-.5 2.5-1.5 3.3s-2.5 1.2-4.5 1.2c-.5 0-.9 0-1.2-.1-.1.2-.2.4-.2.6 0 .2.2.4.6.5s.8.2 1.4.2h2.2c3 0 4.5 1.3 4.5 3.8 0 1.6-.7 2.9-2.1 3.8s-3.3 1.3-5.8 1.3c-1.9 0-3.3-.3-4.4-.9s-1.5-1.5-1.5-2.7c0-1.6 1-2.6 3-3.1-.4-.2-.8-.4-1.1-.8s-.5-.8-.5-1.1c0-.4.1-.8.3-1.1s.7-.7 1.4-1.1c-.7-.3-1.2-.8-1.6-1.4s-.6-1.4-.6-2.4c0-1.4.5-2.6 1.5-3.4s2.4-1.2 4.2-1.2c.2 0 .7 0 1.3.1s1 .1 1.3.2h4.7zm-10 14.9c0 .4.2.7.6.9s.9.3 1.6.3c1.1 0 2-.1 2.7-.4s1-.6 1-1.1c0-.4-.2-.6-.6-.7s-1-.2-1.7-.2h-1.8c-.5 0-.9.1-1.2.3s-.6.6-.6.9zm1.4-10.6c0 1.4.5 2 1.4 2 .4 0 .8-.2 1-.5s.4-.8.4-1.5c0-1.4-.5-2.1-1.4-2.1-.9.1-1.4.8-1.4 2.1zM143.3 111.3c.6 0 1.4-.2 2.2-.5v3.3c-.6.3-1.2.5-1.8.6s-1.2.2-2 .2c-1.5 0-2.6-.4-3.3-1.1s-1-1.9-1-3.5v-5.5h-1.6v-1.9l2-1.4 1.2-2.8h3v2.7h3.3v3.4H142v5.2c.1.8.5 1.3 1.3 1.3zM155.7 114.7v-7.2c0-1.8-.5-2.7-1.6-2.7-.8 0-1.3.3-1.7.9s-.5 1.7-.5 3.1v5.8h-4.6V96.4h4.6V99c0 1.2-.1 2.5-.2 4h.2c.4-.7 1-1.2 1.6-1.5s1.3-.4 2.1-.4c1.5 0 2.6.4 3.5 1.3s1.2 2.1 1.2 3.6v8.6h-4.6zM169.4 114.9c-2.2 0-3.9-.6-5.2-1.8s-1.8-2.8-1.8-5 .6-4 1.7-5.2 2.8-1.8 4.9-1.8c2 0 3.5.5 4.6 1.6s1.6 2.5 1.6 4.5v2H167c0 .7.3 1.3.8 1.7s1.2.6 2.1.6c.8 0 1.5-.1 2.2-.2s1.4-.4 2.2-.8v3.3c-.7.4-1.5.6-2.2.8s-1.6.3-2.7.3zm-.3-10.6c-.5 0-1 .2-1.4.5s-.6.9-.6 1.6h3.9c0-.6-.2-1.2-.5-1.5s-.8-.6-1.4-.6zM191.3 101.1c1.4 0 2.6.6 3.4 1.8s1.3 2.9 1.3 5c0 2.2-.4 3.8-1.3 5.1s-2 1.8-3.6 1.8c-.5 0-.9-.1-1.3-.2s-.7-.3-1-.4-.7-.5-1-.9h-.3l-.7 1.3h-3.6V96.4h4.6v4.1c0 .5-.1 1.3-.2 2.5h.2c.4-.7 1-1.2 1.5-1.5s1.2-.4 2-.4zm-1.7 3.6c-.6 0-1.1.2-1.4.7s-.4 1.1-.4 2.1v.6c0 1.1.1 1.9.4 2.3s.8.7 1.5.7c.5 0 1-.3 1.2-.8s.4-1.4.4-2.4c0-2.1-.6-3.2-1.7-3.2zM198 98.1c0-.7.2-1.2.6-1.5s1-.5 1.9-.5 1.5.2 1.9.5.6.9.6 1.5c0 1.3-.8 2-2.4 2-1.8 0-2.6-.7-2.6-2zm4.7 16.6h-4.6v-13.3h4.6v13.3zM213.4 101.1c.4 0 .8 0 1.1.1h.3l-.4 4.3c-.4-.1-.9-.1-1.6-.1-1 0-1.7.2-2.2.7s-.7 1.1-.7 2v6.5h-4.6v-13.3h3.4l.7 2.1h.2c.4-.7.9-1.3 1.6-1.7s1.5-.6 2.2-.6zM222.7 111.3c.6 0 1.4-.2 2.2-.5v3.3c-.6.3-1.2.5-1.8.6s-1.2.2-2 .2c-1.5 0-2.6-.4-3.3-1.1s-1-1.9-1-3.5v-5.5h-1.6v-1.9l2-1.4 1.2-2.8h3v2.7h3.3v3.4h-3.3v5.2c.1.8.5 1.3 1.3 1.3zM235.1 114.7v-7.2c0-1.8-.5-2.7-1.6-2.7-.8 0-1.3.3-1.7.9s-.5 1.7-.5 3.1v5.8h-4.6V96.4h4.6V99c0 1.2-.1 2.5-.2 4h.2c.4-.7 1-1.2 1.6-1.5s1.3-.4 2.1-.4c1.5 0 2.6.4 3.5 1.3s1.2 2.1 1.2 3.6v8.6h-4.6z"/><g><path class="st0" d="M32.7 134c0 2.2-.6 3.9-1.8 5.1s-2.8 1.8-4.9 1.8c-2 0-3.6-.6-4.8-1.9s-1.8-2.9-1.8-5c0-2.2.6-3.8 1.8-5s2.8-1.8 4.9-1.8c1.3 0 2.5.3 3.5.8s1.8 1.3 2.3 2.4.8 2.2.8 3.6zm-8.6 0c0 1.1.2 2 .5 2.6s.8.9 1.5.9 1.2-.3 1.5-.9.4-1.5.4-2.6-.1-2-.4-2.6-.8-.9-1.5-.9-1.2.3-1.5.9-.5 1.4-.5 2.6zM43 130.8h-2.8v9.8h-4.6v-9.8h-1.8v-2.2l1.9-1.1v-.2c0-1.8.4-3 1.1-3.8s1.9-1.1 3.4-1.1c.6 0 1.2 0 1.7.1s1.2.3 1.9.5l-1 3c-.6-.2-1.1-.2-1.7-.2-.4 0-.6.1-.8.3s-.2.6-.2 1v.4H43v3.3zM56.6 137.3c.6 0 1.4-.2 2.2-.5v3.3c-.6.3-1.2.5-1.8.6s-1.2.2-2 .2c-1.5 0-2.6-.4-3.3-1.1s-1-1.9-1-3.5v-5.5h-1.6v-1.9l2-1.4 1.2-2.8h3v2.7h3.3v3.4h-3.3v5.2c0 .8.5 1.3 1.3 1.3zM69 140.6v-7.2c0-1.8-.5-2.7-1.6-2.7-.8 0-1.3.3-1.7.9s-.5 1.7-.5 3.1v5.8h-4.6v-18.2h4.6v2.6c0 1.2-.1 2.5-.2 4h.2c.4-.7 1-1.2 1.6-1.5s1.3-.4 2.1-.4c1.5 0 2.6.4 3.5 1.3s1.2 2.1 1.2 3.6v8.6H69zM82.7 140.9c-2.2 0-3.9-.6-5.2-1.8s-1.8-2.8-1.8-5 .6-4 1.7-5.2 2.8-1.8 4.9-1.8c2 0 3.5.5 4.6 1.6s1.6 2.5 1.6 4.5v2h-8.2c0 .7.3 1.3.8 1.7s1.2.6 2.1.6c.8 0 1.5-.1 2.2-.2s1.4-.4 2.2-.8v3.3c-.7.4-1.5.6-2.2.8s-1.6.3-2.7.3zm-.3-10.7c-.5 0-1 .2-1.4.5s-.6.9-.6 1.6h3.9c0-.6-.2-1.2-.5-1.5s-.8-.6-1.4-.6zM111.3 123.5v10.3c0 2.2-.6 4-1.9 5.2s-3.1 1.8-5.5 1.8c-2.3 0-4.1-.6-5.4-1.8s-1.9-2.9-1.9-5.2v-10.4h4.7v10.1c0 1.2.2 2.1.7 2.6s1.1.8 2 .8c.9 0 1.6-.3 2.1-.8s.6-1.4.6-2.7v-10h4.6zM113.6 138.7c0-.7.2-1.3.6-1.7s1-.6 1.9-.6c.8 0 1.4.2 1.8.6s.6.9.6 1.7c0 .7-.2 1.3-.6 1.6s-1 .6-1.8.6-1.4-.2-1.8-.6-.7-.9-.7-1.6zM132.1 135.4c0 1.1-.3 2-.8 2.8s-1.3 1.5-2.3 1.9-2.2.7-3.6.7c-1.1 0-2.1-.1-2.9-.2s-1.6-.4-2.4-.8v-4.1c.9.5 1.8.8 2.8 1.1s1.8.4 2.6.4c.7 0 1.2-.1 1.5-.4s.5-.5.5-.9c0-.2-.1-.4-.2-.6s-.3-.4-.6-.5-1-.5-2.3-1.1c-1.1-.5-2-1-2.5-1.5s-1-1-1.2-1.6-.4-1.3-.4-2.2c0-1.6.6-2.8 1.7-3.7s2.7-1.3 4.7-1.3c1.8 0 3.6.4 5.4 1.2l-1.4 3.6c-1.6-.7-3-1.1-4.1-1.1-.6 0-1 .1-1.3.3s-.4.5-.4.8c0 .3.2.6.5.9s1.3.8 2.8 1.5c1.5.7 2.5 1.4 3.1 2.1s.8 1.6.8 2.7zM133.4 138.7c0-.7.2-1.3.6-1.7s1-.6 1.9-.6c.8 0 1.4.2 1.8.6s.6.9.6 1.7c0 .7-.2 1.3-.6 1.6s-1 .6-1.8.6-1.4-.2-1.8-.6-.7-.9-.7-1.6zM157 140.6l-.8-3.2h-5.6l-.9 3.2h-5.1l5.6-17.2h6.2l5.7 17.2H157zm-1.8-7l-.7-2.8c-.2-.6-.4-1.4-.6-2.4s-.4-1.7-.5-2.1c-.1.4-.2 1.1-.4 2s-.7 2.7-1.4 5.4h3.6zM163 124.1c0-.7.2-1.2.6-1.5s1-.5 1.9-.5 1.5.2 1.9.5.6.9.6 1.5c0 1.3-.8 2-2.4 2-1.7 0-2.6-.7-2.6-2zm4.7 16.5h-4.6v-13.3h4.6v13.3zM178.5 127.1c.4 0 .8 0 1.1.1h.3l-.4 4.3c-.4-.1-.9-.1-1.6-.1-1 0-1.7.2-2.2.7s-.7 1.1-.7 2v6.5h-4.6v-13.3h3.4l.7 2.1h.2c.4-.7.9-1.3 1.6-1.7s1.5-.6 2.2-.6zM191.9 140.6h-4.6v-17.1h10.1v3.7h-5.6v3.3h5.1v3.7h-5.1v6.4zM212.2 134c0 2.2-.6 3.9-1.8 5.1s-2.8 1.8-4.9 1.8c-2 0-3.6-.6-4.8-1.9s-1.8-2.9-1.8-5c0-2.2.6-3.8 1.8-5s2.8-1.8 4.9-1.8c1.3 0 2.5.3 3.5.8s1.8 1.3 2.3 2.4.8 2.2.8 3.6zm-8.6 0c0 1.1.2 2 .5 2.6s.8.9 1.5.9 1.2-.3 1.5-.9.4-1.5.4-2.6-.1-2-.4-2.6-.8-.9-1.5-.9-1.2.3-1.5.9-.5 1.4-.5 2.6zM222.3 127.1c.4 0 .8 0 1.1.1h.3l-.4 4.3c-.4-.1-.9-.1-1.6-.1-1 0-1.7.2-2.2.7s-.7 1.1-.7 2v6.5h-4.6v-13.3h3.4l.7 2.1h.2c.4-.7.9-1.3 1.6-1.7s1.5-.6 2.2-.6zM231.1 140.9c-2.2 0-3.8-.6-4.9-1.8s-1.7-2.9-1.7-5.1c0-2.2.6-3.9 1.8-5.1s2.9-1.8 5.2-1.8c1.5 0 3 .3 4.3 1l-1.3 3.4c-.6-.2-1.1-.4-1.5-.6s-1-.2-1.5-.2c-.7 0-1.3.3-1.7.9s-.6 1.4-.6 2.4c0 2.1.8 3.2 2.4 3.2 1.3 0 2.6-.4 3.9-1.2v3.6c-1.3.9-2.7 1.3-4.4 1.3zM243.9 140.9c-2.2 0-3.9-.6-5.2-1.8s-1.8-2.8-1.8-5 .6-4 1.7-5.2 2.8-1.8 4.9-1.8c2 0 3.5.5 4.6 1.6s1.6 2.5 1.6 4.5v2h-8.2c0 .7.3 1.3.8 1.7s1.2.6 2.1.6c.8 0 1.5-.1 2.2-.2s1.4-.4 2.2-.8v3.3c-.7.4-1.5.6-2.2.8s-1.6.3-2.7.3zm-.2-10.7c-.5 0-1 .2-1.4.5s-.6.9-.6 1.6h3.9c0-.6-.2-1.2-.5-1.5s-.8-.6-1.4-.6zM251.3 138.7c0-.7.2-1.3.6-1.7s1-.6 1.9-.6c.8 0 1.4.2 1.8.6s.6.9.6 1.7c0 .7-.2 1.3-.6 1.6s-1 .6-1.8.6-1.4-.2-1.8-.6-.7-.9-.7-1.6z"/></g><g><path class="st0" d="M30.5 178.6H20.3v-17.1h10.2v3.7H25v2.7h5.1v3.7H25v3.2h5.5v3.8zM43 174.6c0 1.4-.5 2.5-1.5 3.2s-2.4 1.1-4.2 1.1c-1 0-1.8-.1-2.6-.2s-1.5-.3-2.2-.6v-3.7c.7.3 1.5.6 2.3.8s1.6.3 2.3.3c1 0 1.5-.2 1.5-.7 0-.2-.1-.4-.4-.6s-1.1-.5-2.4-1.1c-1.2-.5-2.1-1.1-2.6-1.7s-.7-1.4-.7-2.4c0-1.2.5-2.2 1.4-2.9s2.3-1 4-1c.9 0 1.7.1 2.5.3s1.6.5 2.4.8l-1.2 3c-.6-.3-1.3-.5-1.9-.7s-1.2-.3-1.7-.3c-.8 0-1.1.2-1.1.6 0 .2.1.4.4.6s1 .5 2.3 1c.9.4 1.6.8 2.1 1.1s.8.8 1 1.3.3 1 .3 1.8zM51.6 175.2c.6 0 1.4-.2 2.2-.5v3.3c-.6.3-1.2.5-1.8.6s-1.2.2-2 .2c-1.5 0-2.6-.4-3.3-1.1s-1-1.9-1-3.5v-5.5h-1.6v-1.9l2-1.4 1.2-2.8h3v2.7h3.3v3.4h-3.3v5.2c0 .9.5 1.3 1.3 1.3zM64.3 178.6l-.9-1.8h-.1c-.6.8-1.2 1.3-1.9 1.6s-1.5.4-2.5.4c-1.2 0-2.2-.4-3-1.1s-1.1-1.8-1.1-3.2c0-1.4.5-2.5 1.5-3.2s2.4-1.1 4.3-1.2l2.2-.1c0-1.1-.5-1.6-1.6-1.6-1 0-2.2.3-3.7 1l-1.3-3c1.5-.8 3.5-1.2 5.9-1.2 1.7 0 3 .4 4 1.3s1.4 2 1.4 3.5v8.7h-3.2zm-3.4-3c.6 0 1-.2 1.4-.5s.6-.8.6-1.4v-1h-1.1c-1.5.1-2.3.6-2.3 1.7.1.8.6 1.2 1.4 1.2zM78.3 165.1c1.4 0 2.6.6 3.4 1.8s1.3 2.9 1.3 5c0 2.2-.4 3.8-1.3 5.1s-2 1.8-3.6 1.8c-.5 0-.9-.1-1.3-.2s-.7-.3-1-.4-.7-.5-1-.9h-.3l-.7 1.3h-3.6v-18.2h4.6v4.1c0 .5-.1 1.3-.2 2.5h.2c.4-.7 1-1.2 1.5-1.5s1.2-.4 2-.4zm-1.7 3.6c-.6 0-1.1.2-1.4.7s-.4 1.1-.4 2.1v.6c0 1.1.1 1.9.4 2.3s.8.7 1.5.7c.5 0 1-.3 1.2-.8s.4-1.4.4-2.4c0-2.1-.6-3.2-1.7-3.2zM89.7 178.6h-4.6v-18.2h4.6v18.2zM92.3 162.1c0-.7.2-1.2.6-1.5s1-.5 1.9-.5 1.5.2 1.9.5.6.9.6 1.5c0 1.3-.8 2-2.4 2-1.8 0-2.6-.7-2.6-2zm4.7 16.5h-4.6v-13.3H97v13.3zM110 174.6c0 1.4-.5 2.5-1.5 3.2s-2.4 1.1-4.2 1.1c-1 0-1.8-.1-2.6-.2s-1.5-.3-2.2-.6v-3.7c.7.3 1.5.6 2.3.8s1.6.3 2.3.3c1 0 1.5-.2 1.5-.7 0-.2-.1-.4-.4-.6s-1.1-.5-2.4-1.1c-1.2-.5-2.1-1.1-2.6-1.7s-.7-1.4-.7-2.4c0-1.2.5-2.2 1.4-2.9s2.3-1 4-1c.9 0 1.7.1 2.5.3s1.6.5 2.4.8l-1.2 3c-.6-.3-1.3-.5-1.9-.7s-1.2-.3-1.7-.3c-.8 0-1.1.2-1.1.6 0 .2.1.4.4.6s1 .5 2.3 1c.9.4 1.6.8 2.1 1.1s.8.8 1 1.3.3 1 .3 1.8zM120.4 178.6v-7.2c0-1.8-.5-2.7-1.6-2.7-.8 0-1.3.3-1.7.9s-.5 1.7-.5 3.1v5.8H112v-18.2h4.6v2.6c0 1.2-.1 2.5-.2 4h.2c.4-.7 1-1.2 1.6-1.5s1.3-.4 2.1-.4c1.5 0 2.6.4 3.5 1.3s1.2 2.1 1.2 3.6v8.6h-4.6zM134 178.9c-2.2 0-3.9-.6-5.2-1.8s-1.8-2.8-1.8-5 .6-4 1.7-5.2 2.8-1.8 4.9-1.8c2 0 3.5.5 4.6 1.6s1.6 2.5 1.6 4.5v2h-8.2c0 .7.3 1.3.8 1.7s1.2.6 2.1.6c.8 0 1.5-.1 2.2-.2s1.4-.4 2.2-.8v3.3c-.7.4-1.5.6-2.2.8s-1.6.3-2.7.3zm-.2-10.7c-.5 0-1 .2-1.4.5s-.6.9-.6 1.6h3.9c0-.6-.2-1.2-.5-1.5s-.8-.6-1.4-.6zM146.1 178.9c-.9 0-1.8-.3-2.5-.8s-1.3-1.3-1.6-2.4-.6-2.3-.6-3.7c0-2.2.4-3.8 1.3-5.1s2.1-1.8 3.6-1.8c.7 0 1.4.1 2 .4s1.1.8 1.5 1.5h.1c-.1-1-.2-2.1-.2-3.1v-3.6h4.6v18.2h-3.5l-1-1.7h-.2c-.7 1.4-1.9 2.1-3.5 2.1zm1.9-3.7c.7 0 1.3-.2 1.6-.7s.5-1.2.5-2.1v-.4c0-1.2-.2-2-.5-2.5s-.9-.7-1.6-.7c-.6 0-1.1.3-1.4.8s-.5 1.4-.5 2.4.2 1.8.5 2.4.8.8 1.4.8zM172.2 178.6h-4.7v-9.1c0-1.1 0-2.1.1-3-.3.4-.6.7-1.1 1.1l-1.9 1.6-2.4-3 5.9-4.8h4.2v17.2zM188 169.3c0 3.4-.7 5.8-2.2 7.3s-3.8 2.2-6.9 2.2c-1 0-1.8 0-2.4-.1V175c.7.1 1.3.2 2 .2 1.7 0 2.9-.3 3.8-1s1.4-1.8 1.5-3.2h-.1c-.3.6-.6 1-.9 1.2s-.7.4-1.1.6-1 .2-1.6.2c-1.5 0-2.6-.5-3.5-1.5s-1.3-2.4-1.3-4.1c0-1.9.5-3.4 1.6-4.5s2.6-1.6 4.4-1.6c2.1 0 3.7.7 4.9 2.1s1.8 3.4 1.8 5.9zm-6.4-4.3c-.5 0-.9.2-1.2.6s-.5 1-.5 1.8c0 .6.1 1.2.4 1.5s.7.6 1.3.6c.5 0 .9-.2 1.3-.6s.6-.8.6-1.3c0-.7-.2-1.3-.5-1.8s-.9-.8-1.4-.8zM202.1 175.3h-1.9v3.3h-4.6v-3.3h-6.8v-3.4l7.1-10.4h4.3v10.4h1.9v3.4zm-6.5-3.4v-2-1.5c0-.6 0-1 .1-1h-.1c-.3.6-.6 1.2-.9 1.7l-1.9 2.8h2.8zM204.4 178.6l5.9-13.3h-7.4v-3.8h12.4v2.7l-6 14.4h-4.9zM216.6 176.7c0-.7.2-1.3.6-1.7s1-.6 1.9-.6c.8 0 1.4.2 1.8.6s.6.9.6 1.7c0 .7-.2 1.3-.6 1.6s-1 .6-1.8.6-1.4-.2-1.8-.6-.7-.9-.7-1.6z"/></g></svg>