<svg id="Layer_1" xmlns="http://www.w3.org/2000/svg" viewBox="0 0 300 250"><style>.st0{fill:#fff}.st1{fill:none}</style><path class="st0" d="M234.6 129.7H258l5.9 17.6h-2.7l-5.1-15h-22.3z"/><path class="st0" d="M232.9 134.8h21.4l4.2 12.5h-2.7l-3.3-9.8-20.4-.1z"/><path class="st0" d="M231.4 140.3l-7.1 21.6 2.2 1.6 6.4-20.8h16l.8-2.4z"/><path class="st0" d="M234.9 145.2H248l-.8 2.5h-10.5l-5.9 19.1-2.1-1.9z"/><path class="st0" d="M233.4 168.6l18.8 13.1 1.9-1.6-17.9-12.6 4.7-15-2.3-1.7z"/><path class="st0" d="M243.1 154l2.2 1.4-3.2 9.9 16 11.5-1.8 1.7-17.2-12.2z"/><path class="st0" d="M260.7 172.4l-13.2-8.9-1.9 1.3 14.9 10.7 18.9-13.7-.9-2.5z"/><path class="st0" d="M250.2 161.4l1.7-1.4 8.7 6.3 16.1-11.9 1.1 2.3-17.1 12.6z"/><path class="st0" d="M260.3 160.2l.9 2.4 14.8-10.7-7.5-22.2H266l7.2 21.1z"/><path class="st0" d="M260.6 129.7h2.3l7.1 20.2-10.5 7.8-1-2 8.8-6.9zM232 99.3l-1.7 2.9-1.8-2.9h-2.1v7.4h2v-4.2l1.8 2.8h.1l1.8-2.8v4.2h2.1v-7.4zM235.5 99.3h2v7.3h-2zM238.9 99.3v7.4h5.5v-1.8h-3.5v-5.6zM245.4 99.3h2v7.3h-2zM248.3 99.3v1.8h2.2v5.6h2v-5.6h2.2v-1.8zM258.2 101.7l.8 2.1h-1.6l.8-2.1zm-1-2.4l-3.1 7.4h2.1l.5-1.3h2.8l.5 1.3h2.2l-3.1-7.4h-1.9zM263 99.3h3.5c1.1 0 1.9.3 2.4.8.4.4.6 1 .6 1.7 0 1.1-.6 1.9-1.5 2.2l1.7 2.6h-2.3l-1.5-2.2h-.9v2.2h-2v-7.3zm3.4 3.6c.7 0 1.1-.3 1.1-.9 0-.6-.4-.9-1.1-.9H265v1.8h1.4zM272.4 103.9l-2.8-4.6h2.3l1.5 2.7 1.5-2.7h2.3l-2.8 4.6v2.8h-2zM226.4 109.3h4.2c1 0 1.7.3 2.2.7.3.3.5.8.5 1.3 0 .9-.5 1.5-1.2 1.8 1 .3 1.6.9 1.6 2 0 1.4-1.1 2.2-3.1 2.2h-4.2v-8zm3.6 3.2c.7 0 1.1-.2 1.1-.7 0-.4-.3-.7-1-.7h-1.5v1.4h1.4zm.4 3.1c.7 0 1.1-.3 1.1-.7 0-.4-.3-.7-1.1-.7h-1.7v1.5h1.7zM234.7 109.3h6.5v1.9h-4.3v1.2h3.9v1.8h-3.9v1.3h4.4v1.9h-6.6zM242.4 109.3h2.1l3.4 4.2v-4.2h2.2v8.1h-2l-3.4-4.5v4.5h-2.3zM251.5 109.3h6.6v1.9h-4.3v1.2h3.8v1.8h-3.8v1.3h4.3v1.9h-6.6zM259.3 109.3h6.4v1.9h-4.2v1.4h3.8v1.9h-3.8v2.9h-2.2zM266.8 109.3h2.3v8.1h-2.3zM272.5 111.2h-2.4v-1.9h7.1v1.9h-2.4v6.2h-2.3zM227.9 120h1.3l2.1 5h-1.5l-.4-.9h-1.9l-.4.9h-1.4l2.2-5zm1.2 3l-.6-1.4-.5 1.4h1.1zM231.4 124.2l.8-.9c.5.4 1 .6 1.6.6.4 0 .6-.1.6-.3 0-.2-.2-.3-.8-.5-1.1-.2-1.9-.5-1.9-1.6 0-.9.7-1.6 1.9-1.6.8 0 1.5.2 2 .7l-.7 1c-.5-.3-1-.5-1.4-.5-.3 0-.5.1-.5.3 0 .2.2.3.9.5 1.1.2 1.9.6 1.9 1.5 0 1-.8 1.6-2 1.6-1 0-1.8-.2-2.4-.8M235.9 124.2l.8-.9c.5.4 1 .6 1.6.6.4 0 .6-.1.6-.3 0-.2-.2-.3-.8-.5-1.1-.2-1.9-.5-1.9-1.6 0-.9.7-1.6 1.9-1.6.8 0 1.5.2 2 .7l-.7 1c-.5-.3-1-.5-1.4-.5-.3 0-.5.1-.5.3 0 .2.2.3.9.5 1.1.2 1.9.6 1.9 1.5 0 1-.8 1.6-2 1.6-.9 0-1.8-.2-2.4-.8M240.7 122.5c0-1.4 1.1-2.6 2.7-2.6 1.5 0 2.7 1.1 2.7 2.6 0 1.4-1.2 2.6-2.7 2.6-1.5 0-2.7-1.2-2.7-2.6m4 0c0-.7-.5-1.4-1.3-1.4s-1.3.6-1.3 1.3c0 .7.5 1.3 1.3 1.3.8.1 1.3-.5 1.3-1.2M246.6 122.5c0-1.5 1.1-2.6 2.6-2.6 1 0 1.7.4 2.1 1l-1 .8c-.3-.4-.6-.6-1.1-.6-.7 0-1.2.6-1.2 1.3 0 .7.5 1.3 1.2 1.3.5 0 .8-.2 1.1-.6l1 .7c-.5.6-1.1 1.1-2.2 1.1-1.3.2-2.5-.9-2.5-2.4M252 120h1.4v5H252zM256 120h1.3l2.1 5H258l-.4-.9h-1.9l-.4.9h-1.4l2.1-5zm1.2 3l-.6-1.4-.6 1.4h1.2zM260.5 121.2H259V120h4.4v1.2h-1.5v3.8h-1.4zM264 120h1.4v5H264zM266.2 122.5c0-1.4 1.1-2.6 2.7-2.6 1.5 0 2.7 1.1 2.7 2.6 0 1.4-1.1 2.6-2.7 2.6s-2.7-1.2-2.7-2.6m3.9 0c0-.7-.5-1.4-1.3-1.4s-1.3.6-1.3 1.3c0 .7.5 1.3 1.3 1.3.8.1 1.3-.5 1.3-1.2M272.2 120h1.3l2 2.6V120h1.4v5h-1.2l-2.1-2.8v2.8h-1.4z"/><path class="st1" d="M224.3 99.3h55.1v82.4h-55.1z"/></svg>