<?xml version="1.0" encoding="utf-8"?>
<!-- Generator: Adobe Illustrator 22.1.0, SVG Export Plug-In . SVG Version: 6.00 Build 0)  -->
<svg version="1.1" id="Layer_1" xmlns="http://www.w3.org/2000/svg" xmlns:xlink="http://www.w3.org/1999/xlink" x="0px" y="0px"
	 viewBox="0 0 728 90" style="enable-background:new 0 0 728 90;" xml:space="preserve">
<style type="text/css">
	.st0{fill:#FFFFFF;}
</style>
<g>
	<path class="st0" d="M244.9,29.8h-5l-1.5-6.8c-0.1-0.3-0.2-0.9-0.3-1.7c-0.2-0.9-0.3-1.6-0.3-2.1c-0.1,0.5-0.2,1-0.3,1.7
		c-0.1,0.7-0.3,1.3-0.4,1.9c-0.1,0.6-0.6,2.9-1.6,7h-5l-3.9-15.7h4.1l1.7,7.9c0.4,1.7,0.7,3.1,0.8,4.2c0.1-0.7,0.3-1.7,0.5-3
		c0.2-1.3,0.5-2.3,0.7-3.1l1.4-5.9h3.9l1.3,5.9c0.2,1,0.5,2.1,0.7,3.3s0.4,2.2,0.5,2.8c0.1-0.8,0.3-2.2,0.8-4.1l1.7-7.9h4.1
		L244.9,29.8z"/>
	<path class="st0" d="M256,30c-2,0-3.6-0.5-4.7-1.6c-1.1-1.1-1.7-2.6-1.7-4.6c0-2.1,0.5-3.6,1.6-4.7c1-1.1,2.5-1.6,4.4-1.6
		c1.8,0,3.2,0.5,4.2,1.4s1.5,2.3,1.5,4.1v1.9h-7.5c0,0.7,0.3,1.2,0.7,1.6c0.5,0.4,1.1,0.6,1.9,0.6c0.7,0,1.4-0.1,2-0.2
		c0.6-0.1,1.3-0.4,2-0.7v3c-0.7,0.3-1.3,0.6-2,0.7C257.8,30,257,30,256,30z M255.7,20.3c-0.5,0-0.9,0.2-1.2,0.5s-0.5,0.8-0.6,1.5
		h3.6c0-0.6-0.2-1.1-0.5-1.4C256.7,20.5,256.3,20.3,255.7,20.3z"/>
	<path class="st0" d="M274.1,30c-2,0-3.5-0.5-4.5-1.6c-1-1.1-1.5-2.6-1.5-4.6c0-2,0.6-3.6,1.7-4.7c1.1-1.1,2.7-1.7,4.7-1.7
		c1.4,0,2.7,0.3,4,0.9l-1.2,3.1c-0.5-0.2-1-0.4-1.4-0.5c-0.4-0.1-0.9-0.2-1.3-0.2c-0.7,0-1.2,0.3-1.6,0.8c-0.4,0.5-0.6,1.3-0.6,2.2
		c0,1.9,0.7,2.9,2.2,2.9c1.2,0,2.4-0.4,3.5-1.1V29C276.9,29.7,275.6,30,274.1,30z"/>
	<path class="st0" d="M287.9,29.8l-0.8-1.6H287c-0.6,0.7-1.1,1.2-1.7,1.4c-0.6,0.3-1.3,0.4-2.3,0.4c-1.1,0-2-0.3-2.7-1
		c-0.7-0.7-1-1.7-1-2.9c0-1.3,0.5-2.3,1.4-2.9s2.2-1,3.9-1.1l2-0.1v-0.2c0-1-0.5-1.5-1.5-1.5c-0.9,0-2,0.3-3.4,0.9l-1.2-2.8
		c1.4-0.7,3.2-1.1,5.4-1.1c1.6,0,2.8,0.4,3.6,1.2c0.9,0.8,1.3,1.9,1.3,3.2v8H287.9z M284.8,27.1c0.5,0,0.9-0.2,1.3-0.5
		c0.4-0.3,0.5-0.7,0.5-1.3v-0.9l-1,0c-1.4,0.1-2.1,0.6-2.1,1.5C283.6,26.7,284,27.1,284.8,27.1z"/>
	<path class="st0" d="M300.9,29.8v-6.6c0-0.8-0.1-1.4-0.3-1.8c-0.2-0.4-0.6-0.6-1.1-0.6c-0.7,0-1.2,0.3-1.5,0.8
		c-0.3,0.6-0.5,1.5-0.5,2.9v5.3h-4.2V17.7h3.2l0.5,1.5h0.2c0.4-0.6,0.9-1,1.5-1.3c0.6-0.3,1.4-0.4,2.2-0.4c1.3,0,2.4,0.4,3.1,1.2
		c0.7,0.8,1.1,1.9,1.1,3.3v7.9H300.9z"/>
	<path class="st0" d="M320.5,29.8v-6.6c0-1.6-0.5-2.4-1.5-2.4c-0.7,0-1.2,0.3-1.5,0.9c-0.3,0.6-0.5,1.5-0.5,2.9v5.3h-4.2V13.1h4.2
		v2.4c0,1.1-0.1,2.3-0.2,3.7h0.2c0.4-0.6,0.9-1.1,1.4-1.3c0.6-0.3,1.2-0.4,1.9-0.4c1.4,0,2.4,0.4,3.2,1.2c0.8,0.8,1.1,1.9,1.1,3.3
		v7.9H320.5z"/>
	<path class="st0" d="M333.1,30c-2,0-3.6-0.5-4.7-1.6c-1.1-1.1-1.7-2.6-1.7-4.6c0-2.1,0.5-3.6,1.6-4.7c1-1.1,2.5-1.6,4.4-1.6
		c1.8,0,3.2,0.5,4.2,1.4s1.5,2.3,1.5,4.1v1.9h-7.5c0,0.7,0.3,1.2,0.7,1.6c0.5,0.4,1.1,0.6,1.9,0.6c0.7,0,1.4-0.1,2-0.2
		c0.6-0.1,1.3-0.4,2-0.7v3c-0.7,0.3-1.3,0.6-2,0.7C334.9,30,334,30,333.1,30z M332.8,20.3c-0.5,0-0.9,0.2-1.2,0.5s-0.5,0.8-0.6,1.5
		h3.6c0-0.6-0.2-1.1-0.5-1.4C333.8,20.5,333.4,20.3,332.8,20.3z"/>
	<path class="st0" d="M344.6,29.8h-4.2V13.1h4.2V29.8z"/>
	<path class="st0" d="M354.3,30c-0.6,0-1.2-0.1-1.7-0.3c-0.5-0.2-1-0.6-1.5-1.1H351c0.1,0.9,0.2,1.4,0.2,1.6v4.9H347V17.7h3.4
		l0.6,1.5h0.2c0.8-1.2,1.9-1.8,3.2-1.8c1.3,0,2.4,0.6,3.2,1.7c0.8,1.1,1.1,2.6,1.1,4.6c0,2-0.4,3.5-1.2,4.6
		C356.8,29.5,355.7,30,354.3,30z M352.9,20.7c-0.6,0-1,0.2-1.3,0.7s-0.4,1.1-0.4,2v0.3c0,1,0.1,1.8,0.4,2.3c0.3,0.5,0.7,0.7,1.3,0.7
		c0.5,0,0.9-0.2,1.2-0.7c0.2-0.5,0.4-1.2,0.4-2.3c0-1-0.1-1.8-0.4-2.3C353.9,21,353.5,20.7,352.9,20.7z"/>
	<path class="st0" d="M364.6,17.7h4.4l2.1,7c0.1,0.4,0.2,0.8,0.2,1.3h0.1c0.1-0.5,0.1-0.9,0.3-1.3l2.1-7h4.3l-4.8,12.9
		c-0.6,1.6-1.4,2.8-2.3,3.5c-0.9,0.7-2.1,1-3.5,1c-0.6,0-1.1-0.1-1.7-0.2v-3.3c0.4,0.1,0.8,0.1,1.3,0.1c0.4,0,0.7-0.1,1-0.2
		c0.3-0.1,0.5-0.3,0.7-0.6c0.2-0.3,0.4-0.7,0.7-1.3L364.6,17.7z"/>
	<path class="st0" d="M390.7,23.7c0,2-0.5,3.5-1.6,4.7c-1.1,1.1-2.6,1.7-4.5,1.7c-1.8,0-3.3-0.6-4.4-1.7c-1.1-1.1-1.6-2.7-1.6-4.6
		c0-2,0.5-3.5,1.6-4.6c1.1-1.1,2.6-1.6,4.5-1.6c1.2,0,2.3,0.3,3.2,0.8c0.9,0.5,1.6,1.2,2.1,2.2C390.4,21.3,390.7,22.5,390.7,23.7z
		 M382.8,23.7c0,1,0.1,1.8,0.4,2.4s0.7,0.8,1.4,0.8c0.7,0,1.1-0.3,1.4-0.8c0.3-0.5,0.4-1.3,0.4-2.4c0-1-0.1-1.8-0.4-2.4
		c-0.3-0.5-0.7-0.8-1.4-0.8c-0.6,0-1.1,0.3-1.4,0.8S382.8,22.7,382.8,23.7z"/>
	<path class="st0" d="M401.3,29.8l-0.5-1.5h-0.2c-0.4,0.6-0.8,1-1.5,1.3c-0.6,0.3-1.4,0.4-2.2,0.4c-1.3,0-2.4-0.4-3.1-1.2
		c-0.7-0.8-1.1-1.9-1.1-3.3v-7.9h4.2v6.6c0,0.8,0.1,1.4,0.3,1.8c0.2,0.4,0.6,0.6,1.1,0.6c0.7,0,1.2-0.3,1.5-0.9s0.5-1.5,0.5-2.9
		v-5.3h4.2v12.2H401.3z"/>
	<path class="st0" d="M419.5,30c-0.6,0-1.2-0.1-1.7-0.3s-1-0.6-1.5-1.1h-0.2c0.1,0.9,0.2,1.4,0.2,1.6v4.9h-4.2V17.7h3.4l0.6,1.5h0.2
		c0.8-1.2,1.9-1.8,3.2-1.8c1.3,0,2.4,0.6,3.2,1.7s1.1,2.6,1.1,4.6c0,2-0.4,3.5-1.2,4.6C422,29.5,420.9,30,419.5,30z M418.1,20.7
		c-0.6,0-1,0.2-1.3,0.7c-0.2,0.4-0.4,1.1-0.4,2v0.3c0,1,0.1,1.8,0.4,2.3c0.3,0.5,0.7,0.7,1.3,0.7c0.5,0,0.9-0.2,1.2-0.7
		s0.4-1.2,0.4-2.3c0-1-0.1-1.8-0.4-2.3C419.1,21,418.7,20.7,418.1,20.7z"/>
	<path class="st0" d="M433.3,17.4c0.4,0,0.7,0,1,0.1l0.2,0l-0.4,4c-0.3-0.1-0.8-0.1-1.4-0.1c-0.9,0-1.6,0.2-2,0.6s-0.6,1-0.6,1.8v6
		h-4.2V17.7h3.1l0.7,1.9h0.2c0.4-0.6,0.8-1.2,1.5-1.6C432,17.6,432.6,17.4,433.3,17.4z"/>
	<path class="st0" d="M447.4,23.7c0,2-0.5,3.5-1.6,4.7c-1.1,1.1-2.6,1.7-4.5,1.7c-1.8,0-3.3-0.6-4.4-1.7c-1.1-1.1-1.6-2.7-1.6-4.6
		c0-2,0.5-3.5,1.6-4.6c1.1-1.1,2.6-1.6,4.5-1.6c1.2,0,2.3,0.3,3.2,0.8c0.9,0.5,1.6,1.2,2.1,2.2C447.2,21.3,447.4,22.5,447.4,23.7z
		 M439.6,23.7c0,1,0.1,1.8,0.4,2.4s0.7,0.8,1.4,0.8c0.7,0,1.1-0.3,1.4-0.8c0.3-0.5,0.4-1.3,0.4-2.4c0-1-0.1-1.8-0.4-2.4
		c-0.3-0.5-0.7-0.8-1.4-0.8c-0.6,0-1.1,0.3-1.4,0.8S439.6,22.7,439.6,23.7z"/>
	<path class="st0" d="M455.4,26.7c0.6,0,1.2-0.1,2-0.4v3.1c-0.6,0.2-1.1,0.4-1.6,0.5c-0.5,0.1-1.1,0.2-1.8,0.2c-1.4,0-2.4-0.3-3.1-1
		c-0.6-0.7-0.9-1.8-0.9-3.2v-5h-1.5v-1.7l1.9-1.3l1.1-2.6h2.8v2.4h3v3.1h-3v4.7C454.2,26.3,454.6,26.7,455.4,26.7z"/>
	<path class="st0" d="M465,30c-2,0-3.6-0.5-4.7-1.6c-1.1-1.1-1.7-2.6-1.7-4.6c0-2.1,0.5-3.6,1.6-4.7c1-1.1,2.5-1.6,4.4-1.6
		c1.8,0,3.2,0.5,4.2,1.4c1,1,1.5,2.3,1.5,4.1v1.9h-7.5c0,0.7,0.3,1.2,0.7,1.6c0.5,0.4,1.1,0.6,1.9,0.6c0.7,0,1.4-0.1,2-0.2
		c0.6-0.1,1.3-0.4,2-0.7v3c-0.7,0.3-1.3,0.6-2,0.7S466,30,465,30z M464.7,20.3c-0.5,0-0.9,0.2-1.2,0.5c-0.3,0.3-0.5,0.8-0.6,1.5h3.6
		c0-0.6-0.2-1.1-0.5-1.4C465.7,20.5,465.3,20.3,464.7,20.3z"/>
	<path class="st0" d="M477.8,30c-2,0-3.5-0.5-4.5-1.6c-1-1.1-1.5-2.6-1.5-4.6c0-2,0.6-3.6,1.7-4.7c1.1-1.1,2.7-1.7,4.7-1.7
		c1.4,0,2.7,0.3,4,0.9l-1.2,3.1c-0.5-0.2-1-0.4-1.4-0.5c-0.4-0.1-0.9-0.2-1.3-0.2c-0.7,0-1.2,0.3-1.6,0.8c-0.4,0.5-0.6,1.3-0.6,2.2
		c0,1.9,0.7,2.9,2.2,2.9c1.2,0,2.4-0.4,3.5-1.1V29C480.6,29.7,479.3,30,477.8,30z"/>
	<path class="st0" d="M489.6,26.7c0.6,0,1.2-0.1,2-0.4v3.1c-0.6,0.2-1.1,0.4-1.6,0.5c-0.5,0.1-1.1,0.2-1.8,0.2c-1.4,0-2.4-0.3-3.1-1
		c-0.6-0.7-0.9-1.8-0.9-3.2v-5h-1.5v-1.7l1.9-1.3l1.1-2.6h2.8v2.4h3v3.1h-3v4.7C488.5,26.3,488.9,26.7,489.6,26.7z"/>
</g>
<g>
	<path class="st0" d="M226.2,41.7h4.4l2.1,7c0.1,0.4,0.2,0.8,0.2,1.3h0.1c0.1-0.5,0.1-0.9,0.3-1.3l2.1-7h4.3l-4.8,12.9
		c-0.6,1.6-1.4,2.8-2.3,3.5c-0.9,0.7-2.1,1-3.5,1c-0.6,0-1.1-0.1-1.7-0.2v-3.3c0.4,0.1,0.8,0.1,1.3,0.1c0.4,0,0.7-0.1,1-0.2
		s0.5-0.3,0.7-0.6c0.2-0.3,0.4-0.7,0.7-1.3L226.2,41.7z"/>
	<path class="st0" d="M252.3,47.7c0,2-0.5,3.5-1.6,4.7c-1.1,1.1-2.6,1.7-4.5,1.7c-1.8,0-3.3-0.6-4.4-1.7c-1.1-1.1-1.6-2.7-1.6-4.6
		c0-2,0.5-3.5,1.6-4.6c1.1-1.1,2.6-1.6,4.5-1.6c1.2,0,2.3,0.3,3.2,0.8c0.9,0.5,1.6,1.2,2.1,2.2C252.1,45.3,252.3,46.5,252.3,47.7z
		 M244.4,47.7c0,1,0.1,1.8,0.4,2.4c0.3,0.5,0.7,0.8,1.4,0.8c0.7,0,1.1-0.3,1.4-0.8c0.3-0.5,0.4-1.3,0.4-2.4c0-1-0.1-1.8-0.4-2.4
		c-0.3-0.5-0.7-0.8-1.4-0.8c-0.6,0-1.1,0.3-1.4,0.8S244.4,46.7,244.4,47.7z"/>
	<path class="st0" d="M262.9,53.8l-0.5-1.5h-0.2c-0.4,0.6-0.8,1-1.5,1.3c-0.6,0.3-1.4,0.4-2.2,0.4c-1.3,0-2.4-0.4-3.1-1.2
		c-0.7-0.8-1.1-1.9-1.1-3.3v-7.9h4.2v6.6c0,0.8,0.1,1.4,0.3,1.8s0.6,0.6,1.1,0.6c0.7,0,1.2-0.3,1.5-0.9c0.3-0.6,0.5-1.5,0.5-2.9
		v-5.3h4.2v12.2H262.9z"/>
	<path class="st0" d="M275.9,41.4c0.4,0,0.7,0,1,0.1l0.2,0l-0.4,4c-0.3-0.1-0.8-0.1-1.4-0.1c-0.9,0-1.6,0.2-2,0.6
		c-0.4,0.4-0.6,1-0.6,1.8v6h-4.2V41.7h3.1l0.7,1.9h0.2c0.4-0.6,0.8-1.2,1.5-1.6C274.7,41.6,275.3,41.4,275.9,41.4z"/>
	<path class="st0" d="M291.2,44.8h-2.6v9h-4.2v-9h-1.6v-2.1l1.7-1v-0.2c0-1.6,0.3-2.8,1-3.5c0.7-0.7,1.7-1.1,3.2-1.1
		c0.6,0,1.1,0,1.6,0.1c0.5,0.1,1.1,0.2,1.7,0.5l-0.9,2.7c-0.5-0.1-1-0.2-1.5-0.2c-0.3,0-0.6,0.1-0.7,0.3c-0.1,0.2-0.2,0.5-0.2,1v0.3
		h2.6V44.8z"/>
	<path class="st0" d="M300.4,53.8l-0.8-1.6h-0.1c-0.6,0.7-1.1,1.2-1.7,1.4c-0.6,0.3-1.3,0.4-2.3,0.4c-1.1,0-2-0.3-2.7-1
		c-0.7-0.7-1-1.7-1-2.9c0-1.3,0.5-2.3,1.4-2.9c0.9-0.6,2.2-1,3.9-1.1l2-0.1v-0.2c0-1-0.5-1.5-1.5-1.5c-0.9,0-2,0.3-3.4,0.9l-1.2-2.8
		c1.4-0.7,3.2-1.1,5.4-1.1c1.6,0,2.8,0.4,3.6,1.2c0.9,0.8,1.3,1.9,1.3,3.2v8H300.4z M297.2,51.1c0.5,0,0.9-0.2,1.3-0.5
		c0.4-0.3,0.5-0.7,0.5-1.3v-0.9l-1,0c-1.4,0-2.1,0.6-2.1,1.5C296.1,50.7,296.5,51.1,297.2,51.1z"/>
	<path class="st0" d="M320.6,53.8v-6.6c0-0.8-0.1-1.4-0.3-1.9c-0.2-0.4-0.6-0.6-1.1-0.6c-0.6,0-1.1,0.3-1.4,0.8
		c-0.3,0.6-0.5,1.4-0.5,2.6v5.7h-4.2v-6.6c0-0.8-0.1-1.4-0.3-1.9c-0.2-0.4-0.6-0.6-1-0.6c-0.7,0-1.1,0.3-1.4,0.9s-0.5,1.5-0.5,2.9
		v5.3h-4.2V41.7h3.2l0.5,1.5h0.2c0.3-0.6,0.8-1,1.4-1.3c0.6-0.3,1.3-0.4,2.1-0.4c1.8,0,3,0.5,3.7,1.6h0.3c0.3-0.5,0.8-0.9,1.4-1.2
		c0.6-0.3,1.3-0.4,2-0.4c1.4,0,2.5,0.4,3.2,1.1c0.7,0.7,1,1.9,1,3.4v7.9H320.6z"/>
	<path class="st0" d="M327.2,38.6c0-0.6,0.2-1.1,0.5-1.4c0.4-0.3,0.9-0.5,1.7-0.5c0.8,0,1.3,0.2,1.7,0.5c0.4,0.3,0.5,0.8,0.5,1.4
		c0,1.2-0.7,1.8-2.2,1.8C327.9,40.5,327.2,39.9,327.2,38.6z M331.5,53.8h-4.2V41.7h4.2V53.8z"/>
	<path class="st0" d="M338.2,53.8H334V37.1h4.2V53.8z"/>
	<path class="st0" d="M339.2,41.7h4.4l2.1,7c0.1,0.4,0.2,0.8,0.2,1.3h0.1c0.1-0.5,0.1-0.9,0.3-1.3l2.1-7h4.3l-4.8,12.9
		c-0.6,1.6-1.4,2.8-2.3,3.5c-0.9,0.7-2.1,1-3.5,1c-0.6,0-1.1-0.1-1.7-0.2v-3.3c0.4,0.1,0.8,0.1,1.3,0.1c0.4,0,0.7-0.1,1-0.2
		s0.5-0.3,0.7-0.6c0.2-0.3,0.4-0.7,0.7-1.3L339.2,41.7z"/>
	<path class="st0" d="M353.1,52.1c0-0.7,0.2-1.2,0.6-1.5c0.4-0.4,1-0.5,1.7-0.5c0.7,0,1.3,0.2,1.6,0.5c0.4,0.4,0.6,0.9,0.6,1.5
		c0,0.6-0.2,1.1-0.6,1.5c-0.4,0.4-0.9,0.5-1.6,0.5c-0.7,0-1.3-0.2-1.7-0.5S353.1,52.7,353.1,52.1z"/>
</g>
</svg>
