<?xml version="1.0" encoding="utf-8"?>
<!-- Generator: Adobe Illustrator 22.1.0, SVG Export Plug-In . SVG Version: 6.00 Build 0)  -->
<svg version="1.1" id="Layer_1" xmlns="http://www.w3.org/2000/svg" xmlns:xlink="http://www.w3.org/1999/xlink" x="0px" y="0px"
	 viewBox="0 0 728 90" style="enable-background:new 0 0 728 90;" xml:space="preserve">
<style type="text/css">
	.st0{fill:#FFFFFF;}
</style>
<g>
	<path class="st0" d="M233.6,20.7l2.7-5.8h4.6l-5.2,9.6v6.1h-4.3v-6l-5.2-9.7h4.6L233.6,20.7z"/>
	<path class="st0" d="M253.5,24.5c0,2-0.5,3.5-1.6,4.7c-1.1,1.1-2.6,1.7-4.5,1.7c-1.8,0-3.3-0.6-4.4-1.7c-1.1-1.1-1.6-2.7-1.6-4.6
		c0-2,0.5-3.5,1.6-4.6c1.1-1.1,2.6-1.6,4.5-1.6c1.2,0,2.3,0.3,3.2,0.8c0.9,0.5,1.6,1.2,2.1,2.2C253.2,22.1,253.5,23.2,253.5,24.5z
		 M245.6,24.5c0,1,0.1,1.8,0.4,2.4s0.7,0.8,1.4,0.8c0.7,0,1.1-0.3,1.4-0.8s0.4-1.3,0.4-2.4c0-1-0.1-1.8-0.4-2.4
		c-0.3-0.5-0.7-0.8-1.4-0.8c-0.6,0-1.1,0.3-1.4,0.8S245.6,23.4,245.6,24.5z"/>
	<path class="st0" d="M264.1,30.6l-0.5-1.5h-0.2c-0.4,0.6-0.8,1-1.5,1.3c-0.6,0.3-1.4,0.4-2.2,0.4c-1.3,0-2.4-0.4-3.1-1.2
		c-0.7-0.8-1.1-1.9-1.1-3.3v-7.9h4.2v6.6c0,0.8,0.1,1.4,0.3,1.8s0.6,0.6,1.1,0.6c0.7,0,1.2-0.3,1.5-0.9c0.3-0.6,0.5-1.5,0.5-2.9
		v-5.3h4.2v12.2H264.1z"/>
	<path class="st0" d="M282.7,30.6v-6.6c0-1.6-0.5-2.4-1.5-2.4c-0.7,0-1.2,0.3-1.5,0.9c-0.3,0.6-0.5,1.5-0.5,2.9v5.3h-4.2V13.9h4.2
		v2.4c0,1.1-0.1,2.3-0.2,3.7h0.2c0.4-0.6,0.9-1.1,1.4-1.3c0.6-0.3,1.2-0.4,1.9-0.4c1.4,0,2.4,0.4,3.2,1.2c0.8,0.8,1.1,1.9,1.1,3.3
		v7.9H282.7z"/>
	<path class="st0" d="M295.3,30.8c-2,0-3.6-0.5-4.7-1.6c-1.1-1.1-1.7-2.6-1.7-4.6c0-2.1,0.5-3.6,1.6-4.7c1-1.1,2.5-1.6,4.4-1.6
		c1.8,0,3.2,0.5,4.2,1.4s1.5,2.3,1.5,4.1v1.9h-7.5c0,0.7,0.3,1.2,0.7,1.6c0.5,0.4,1.1,0.6,1.9,0.6c0.7,0,1.4-0.1,2-0.2
		c0.6-0.1,1.3-0.4,2-0.7v3c-0.7,0.3-1.3,0.6-2,0.7C297.1,30.7,296.2,30.8,295.3,30.8z M295,21.1c-0.5,0-0.9,0.2-1.2,0.5
		s-0.5,0.8-0.6,1.5h3.6c0-0.6-0.2-1.1-0.5-1.4C296,21.2,295.6,21.1,295,21.1z"/>
	<path class="st0" d="M306.7,30.6h-4.2V13.9h4.2V30.6z"/>
	<path class="st0" d="M316.5,30.8c-0.6,0-1.2-0.1-1.7-0.3c-0.5-0.2-1-0.6-1.5-1.1h-0.2c0.1,0.9,0.2,1.4,0.2,1.6v4.9h-4.2V18.4h3.4
		l0.6,1.5h0.2c0.8-1.2,1.9-1.8,3.2-1.8c1.3,0,2.4,0.6,3.2,1.7c0.8,1.1,1.1,2.6,1.1,4.6c0,2-0.4,3.5-1.2,4.6
		C319,30.2,317.9,30.8,316.5,30.8z M315.1,21.5c-0.6,0-1,0.2-1.3,0.7s-0.4,1.1-0.4,2v0.3c0,1,0.1,1.8,0.4,2.3
		c0.3,0.5,0.7,0.7,1.3,0.7c0.5,0,0.9-0.2,1.2-0.7c0.2-0.5,0.4-1.2,0.4-2.3c0-1-0.1-1.8-0.4-2.3C316.1,21.7,315.7,21.5,315.1,21.5z"
		/>
	<path class="st0" d="M335.5,30.8c-0.6,0-1.2-0.1-1.7-0.3c-0.5-0.2-1-0.6-1.5-1.1h-0.2c0.1,0.9,0.2,1.4,0.2,1.6v4.9h-4.2V18.4h3.4
		l0.6,1.5h0.2c0.8-1.2,1.9-1.8,3.2-1.8c1.3,0,2.4,0.6,3.2,1.7c0.8,1.1,1.1,2.6,1.1,4.6c0,2-0.4,3.5-1.2,4.6
		C338,30.2,336.9,30.8,335.5,30.8z M334.1,21.5c-0.6,0-1,0.2-1.3,0.7s-0.4,1.1-0.4,2v0.3c0,1,0.1,1.8,0.4,2.3
		c0.3,0.5,0.7,0.7,1.3,0.7c0.5,0,0.9-0.2,1.2-0.7c0.2-0.5,0.4-1.2,0.4-2.3c0-1-0.1-1.8-0.4-2.3C335.1,21.7,334.7,21.5,334.1,21.5z"
		/>
	<path class="st0" d="M349.3,18.2c0.4,0,0.7,0,1,0.1l0.2,0l-0.4,4c-0.3-0.1-0.8-0.1-1.4-0.1c-0.9,0-1.6,0.2-2,0.6
		c-0.4,0.4-0.6,1-0.6,1.8v6h-4.2V18.4h3.1l0.7,1.9h0.2c0.4-0.6,0.8-1.2,1.5-1.6C348,18.4,348.6,18.2,349.3,18.2z"/>
	<path class="st0" d="M363.4,24.5c0,2-0.5,3.5-1.6,4.7c-1.1,1.1-2.6,1.7-4.5,1.7c-1.8,0-3.3-0.6-4.4-1.7c-1.1-1.1-1.6-2.7-1.6-4.6
		c0-2,0.5-3.5,1.6-4.6c1.1-1.1,2.6-1.6,4.5-1.6c1.2,0,2.3,0.3,3.2,0.8c0.9,0.5,1.6,1.2,2.1,2.2C363.2,22.1,363.4,23.2,363.4,24.5z
		 M355.5,24.5c0,1,0.1,1.8,0.4,2.4s0.7,0.8,1.4,0.8c0.7,0,1.1-0.3,1.4-0.8s0.4-1.3,0.4-2.4c0-1-0.1-1.8-0.4-2.4
		c-0.3-0.5-0.7-0.8-1.4-0.8c-0.6,0-1.1,0.3-1.4,0.8S355.5,23.4,355.5,24.5z"/>
	<path class="st0" d="M371.4,27.5c0.6,0,1.2-0.1,2-0.4v3.1c-0.6,0.2-1.1,0.4-1.6,0.5s-1.1,0.2-1.8,0.2c-1.4,0-2.4-0.3-3.1-1
		c-0.6-0.7-0.9-1.8-0.9-3.2v-5h-1.5v-1.7l1.9-1.3l1.1-2.6h2.8v2.4h3v3.1h-3v4.7C370.2,27.1,370.6,27.5,371.4,27.5z"/>
	<path class="st0" d="M381,30.8c-2,0-3.6-0.5-4.7-1.6c-1.1-1.1-1.7-2.6-1.7-4.6c0-2.1,0.5-3.6,1.6-4.7c1-1.1,2.5-1.6,4.4-1.6
		c1.8,0,3.2,0.5,4.2,1.4c1,1,1.5,2.3,1.5,4.1v1.9h-7.5c0,0.7,0.3,1.2,0.7,1.6c0.5,0.4,1.1,0.6,1.9,0.6c0.7,0,1.4-0.1,2-0.2
		c0.6-0.1,1.3-0.4,2-0.7v3c-0.7,0.3-1.3,0.6-2,0.7S381.9,30.8,381,30.8z M380.7,21.1c-0.5,0-0.9,0.2-1.2,0.5
		c-0.3,0.3-0.5,0.8-0.6,1.5h3.6c0-0.6-0.2-1.1-0.5-1.4C381.7,21.2,381.3,21.1,380.7,21.1z"/>
	<path class="st0" d="M393.8,30.8c-2,0-3.5-0.5-4.5-1.6c-1-1.1-1.5-2.6-1.5-4.6c0-2,0.6-3.6,1.7-4.7c1.1-1.1,2.7-1.7,4.7-1.7
		c1.4,0,2.7,0.3,4,0.9l-1.2,3.1c-0.5-0.2-1-0.4-1.4-0.5c-0.4-0.1-0.9-0.2-1.3-0.2c-0.7,0-1.2,0.3-1.6,0.8c-0.4,0.5-0.6,1.3-0.6,2.2
		c0,1.9,0.7,2.9,2.2,2.9c1.2,0,2.4-0.4,3.5-1.1v3.3C396.6,30.4,395.3,30.8,393.8,30.8z"/>
	<path class="st0" d="M405.6,27.5c0.6,0,1.2-0.1,2-0.4v3.1c-0.6,0.2-1.1,0.4-1.6,0.5c-0.5,0.1-1.1,0.2-1.8,0.2c-1.4,0-2.4-0.3-3.1-1
		c-0.6-0.7-0.9-1.8-0.9-3.2v-5h-1.5v-1.7l1.9-1.3l1.1-2.6h2.8v2.4h3v3.1h-3v4.7C404.5,27.1,404.9,27.5,405.6,27.5z"/>
	<path class="st0" d="M420.6,27.5c0.6,0,1.2-0.1,2-0.4v3.1c-0.6,0.2-1.1,0.4-1.6,0.5c-0.5,0.1-1.1,0.2-1.8,0.2c-1.4,0-2.4-0.3-3.1-1
		c-0.6-0.7-0.9-1.8-0.9-3.2v-5h-1.5v-1.7l1.9-1.3l1.1-2.6h2.8v2.4h3v3.1h-3v4.7C419.5,27.1,419.9,27.5,420.6,27.5z"/>
	<path class="st0" d="M432,30.6v-6.6c0-1.6-0.5-2.4-1.5-2.4c-0.7,0-1.2,0.3-1.5,0.9c-0.3,0.6-0.5,1.5-0.5,2.9v5.3h-4.2V13.9h4.2v2.4
		c0,1.1-0.1,2.3-0.2,3.7h0.2c0.4-0.6,0.9-1.1,1.4-1.3s1.2-0.4,1.9-0.4c1.4,0,2.4,0.4,3.2,1.2c0.8,0.8,1.1,1.9,1.1,3.3v7.9H432z"/>
	<path class="st0" d="M444.6,30.8c-2,0-3.6-0.5-4.7-1.6c-1.1-1.1-1.7-2.6-1.7-4.6c0-2.1,0.5-3.6,1.6-4.7c1-1.1,2.5-1.6,4.4-1.6
		c1.8,0,3.2,0.5,4.2,1.4c1,1,1.5,2.3,1.5,4.1v1.9h-7.5c0,0.7,0.3,1.2,0.7,1.6c0.5,0.4,1.1,0.6,1.9,0.6c0.7,0,1.4-0.1,2-0.2
		c0.6-0.1,1.3-0.4,2-0.7v3c-0.7,0.3-1.3,0.6-2,0.7S445.5,30.8,444.6,30.8z M444.3,21.1c-0.5,0-0.9,0.2-1.2,0.5
		c-0.3,0.3-0.5,0.8-0.6,1.5h3.6c0-0.6-0.2-1.1-0.5-1.4C445.3,21.2,444.9,21.1,444.3,21.1z"/>
	<path class="st0" d="M462.7,30.8c-2,0-3.5-0.5-4.5-1.6c-1-1.1-1.5-2.6-1.5-4.6c0-2,0.6-3.6,1.7-4.7c1.1-1.1,2.7-1.7,4.7-1.7
		c1.4,0,2.7,0.3,4,0.9l-1.2,3.1c-0.5-0.2-1-0.4-1.4-0.5c-0.4-0.1-0.9-0.2-1.3-0.2c-0.7,0-1.2,0.3-1.6,0.8c-0.4,0.5-0.6,1.3-0.6,2.2
		c0,1.9,0.7,2.9,2.2,2.9c1.2,0,2.4-0.4,3.5-1.1v3.3C465.5,30.4,464.2,30.8,462.7,30.8z"/>
	<path class="st0" d="M480.2,24.5c0,2-0.5,3.5-1.6,4.7c-1.1,1.1-2.6,1.7-4.5,1.7c-1.8,0-3.3-0.6-4.4-1.7c-1.1-1.1-1.6-2.7-1.6-4.6
		c0-2,0.5-3.5,1.6-4.6c1.1-1.1,2.6-1.6,4.5-1.6c1.2,0,2.3,0.3,3.2,0.8c0.9,0.5,1.6,1.2,2.1,2.2C479.9,22.1,480.2,23.2,480.2,24.5z
		 M472.3,24.5c0,1,0.1,1.8,0.4,2.4s0.7,0.8,1.4,0.8c0.7,0,1.1-0.3,1.4-0.8c0.3-0.5,0.4-1.3,0.4-2.4c0-1-0.1-1.8-0.4-2.4
		c-0.3-0.5-0.7-0.8-1.4-0.8c-0.6,0-1.1,0.3-1.4,0.8S472.3,23.4,472.3,24.5z"/>
	<path class="st0" d="M490.8,30.6l-0.5-1.5H490c-0.4,0.6-0.8,1-1.5,1.3c-0.6,0.3-1.4,0.4-2.2,0.4c-1.3,0-2.4-0.4-3.1-1.2
		c-0.7-0.8-1.1-1.9-1.1-3.3v-7.9h4.2v6.6c0,0.8,0.1,1.4,0.3,1.8c0.2,0.4,0.6,0.6,1.1,0.6c0.7,0,1.2-0.3,1.5-0.9s0.5-1.5,0.5-2.9
		v-5.3h4.2v12.2H490.8z"/>
	<path class="st0" d="M504.1,30.6v-6.6c0-0.8-0.1-1.4-0.3-1.8c-0.2-0.4-0.6-0.6-1.1-0.6c-0.7,0-1.2,0.3-1.5,0.8
		c-0.3,0.6-0.5,1.5-0.5,2.9v5.3h-4.2V18.4h3.2l0.5,1.5h0.2c0.4-0.6,0.9-1,1.5-1.3c0.6-0.3,1.4-0.4,2.2-0.4c1.3,0,2.4,0.4,3.1,1.2
		c0.7,0.8,1.1,1.9,1.1,3.3v7.9H504.1z"/>
	<path class="st0" d="M516.7,27.5c0.6,0,1.2-0.1,2-0.4v3.1c-0.6,0.2-1.1,0.4-1.6,0.5c-0.5,0.1-1.1,0.2-1.8,0.2c-1.4,0-2.4-0.3-3.1-1
		c-0.6-0.7-0.9-1.8-0.9-3.2v-5h-1.5v-1.7l1.9-1.3l1.1-2.6h2.8v2.4h3v3.1h-3v4.7C515.6,27.1,516,27.5,516.7,27.5z"/>
	<path class="st0" d="M527.8,18.2c0.4,0,0.7,0,1,0.1l0.2,0l-0.4,4c-0.3-0.1-0.8-0.1-1.4-0.1c-0.9,0-1.6,0.2-2,0.6s-0.6,1-0.6,1.8v6
		h-4.2V18.4h3.1l0.7,1.9h0.2c0.4-0.6,0.8-1.2,1.5-1.6C526.6,18.4,527.2,18.2,527.8,18.2z"/>
	<path class="st0" d="M528.9,18.4h4.4l2.1,7c0.1,0.4,0.2,0.8,0.2,1.3h0.1c0.1-0.5,0.1-0.9,0.3-1.3l2.1-7h4.3l-4.8,12.9
		c-0.6,1.6-1.4,2.8-2.3,3.5c-0.9,0.7-2.1,1-3.5,1c-0.6,0-1.1-0.1-1.7-0.2v-3.3c0.4,0.1,0.8,0.1,1.3,0.1c0.4,0,0.7-0.1,1-0.2
		c0.3-0.1,0.5-0.3,0.7-0.6c0.2-0.3,0.4-0.7,0.7-1.3L528.9,18.4z"/>
	<path class="st0" d="M542.8,28.8c0-0.7,0.2-1.2,0.6-1.5c0.4-0.4,1-0.5,1.7-0.5c0.7,0,1.3,0.2,1.6,0.5c0.4,0.4,0.6,0.9,0.6,1.5
		c0,0.6-0.2,1.1-0.6,1.5c-0.4,0.4-0.9,0.5-1.6,0.5c-0.7,0-1.3-0.2-1.7-0.5S542.8,29.5,542.8,28.8z"/>
</g>
</svg>
