<?xml version="1.0" encoding="utf-8"?>
<!-- Generator: Adobe Illustrator 22.1.0, SVG Export Plug-In . SVG Version: 6.00 Build 0)  -->
<svg version="1.1" id="Layer_1" xmlns="http://www.w3.org/2000/svg" xmlns:xlink="http://www.w3.org/1999/xlink" x="0px" y="0px"
	 viewBox="0 0 728 90" style="enable-background:new 0 0 728 90;" xml:space="preserve">
<style type="text/css">
	.st0{fill:#FFFFFF;}
</style>
<g>
	<path class="st0" d="M201.8,35h-4.5v-6.7h-5.2V35h-4.5V18.6h4.5v6.1h5.2v-6.1h4.5V35z"/>
	<path class="st0" d="M216.8,28.6c0,2.1-0.6,3.7-1.7,4.9c-1.1,1.2-2.7,1.7-4.7,1.7c-1.9,0-3.5-0.6-4.6-1.8c-1.1-1.2-1.7-2.8-1.7-4.8
		c0-2.1,0.6-3.7,1.7-4.8c1.1-1.1,2.7-1.7,4.7-1.7c1.3,0,2.4,0.3,3.3,0.8s1.7,1.3,2.2,2.3C216.6,26.1,216.8,27.3,216.8,28.6z
		 M208.6,28.6c0,1.1,0.1,1.9,0.4,2.5c0.3,0.6,0.8,0.9,1.5,0.9c0.7,0,1.2-0.3,1.4-0.9c0.3-0.6,0.4-1.4,0.4-2.5c0-1.1-0.1-1.9-0.4-2.5
		s-0.8-0.8-1.5-0.8c-0.7,0-1.2,0.3-1.4,0.8C208.7,26.7,208.6,27.5,208.6,28.6z"/>
	<path class="st0" d="M226.9,35V28c0-0.8-0.1-1.5-0.4-1.9c-0.2-0.4-0.6-0.6-1.2-0.6c-0.7,0-1.3,0.3-1.6,0.9s-0.5,1.6-0.5,3V35h-4.4
		V22.2h3.3l0.6,1.6h0.3c0.4-0.6,0.9-1,1.6-1.3c0.7-0.3,1.4-0.4,2.3-0.4c1.4,0,2.5,0.4,3.3,1.2c0.8,0.8,1.2,2,1.2,3.4V35H226.9z"/>
	<path class="st0" d="M246,28.6c0,2.1-0.6,3.7-1.7,4.9c-1.1,1.2-2.7,1.7-4.7,1.7c-1.9,0-3.5-0.6-4.6-1.8c-1.1-1.2-1.7-2.8-1.7-4.8
		c0-2.1,0.6-3.7,1.7-4.8c1.1-1.1,2.7-1.7,4.7-1.7c1.3,0,2.4,0.3,3.3,0.8s1.7,1.3,2.2,2.3C245.7,26.1,246,27.3,246,28.6z M237.8,28.6
		c0,1.1,0.1,1.9,0.4,2.5c0.3,0.6,0.8,0.9,1.5,0.9c0.7,0,1.2-0.3,1.4-0.9c0.3-0.6,0.4-1.4,0.4-2.5c0-1.1-0.1-1.9-0.4-2.5
		s-0.8-0.8-1.5-0.8c-0.7,0-1.2,0.3-1.4,0.8C237.9,26.7,237.8,27.5,237.8,28.6z"/>
	<path class="st0" d="M255.7,22c0.4,0,0.7,0,1.1,0.1l0.2,0l-0.4,4.1c-0.4-0.1-0.9-0.1-1.5-0.1c-1,0-1.7,0.2-2.1,0.7
		c-0.4,0.4-0.7,1.1-0.7,1.9V35H248V22.2h3.3l0.7,2h0.2c0.4-0.7,0.9-1.2,1.5-1.6C254.4,22.2,255.1,22,255.7,22z"/>
	<path class="st0" d="M258.3,19.1c0-0.7,0.2-1.1,0.6-1.5s1-0.5,1.8-0.5s1.4,0.2,1.8,0.5s0.6,0.8,0.6,1.5c0,1.3-0.8,1.9-2.3,1.9
		C259.1,21,258.3,20.4,258.3,19.1z M262.8,35h-4.4V22.2h4.4V35z"/>
	<path class="st0" d="M273.4,35V28c0-0.8-0.1-1.5-0.4-1.9c-0.2-0.4-0.6-0.6-1.2-0.6c-0.7,0-1.3,0.3-1.6,0.9s-0.5,1.6-0.5,3V35h-4.4
		V22.2h3.3l0.6,1.6h0.3c0.4-0.6,0.9-1,1.6-1.3c0.7-0.3,1.4-0.4,2.3-0.4c1.4,0,2.5,0.4,3.3,1.2c0.8,0.8,1.2,2,1.2,3.4V35H273.4z"/>
	<path class="st0" d="M292.4,22.2v2.1l-1.7,0.6c0.2,0.4,0.4,0.9,0.4,1.5c0,1.4-0.5,2.4-1.4,3.2c-1,0.8-2.4,1.1-4.3,1.1
		c-0.5,0-0.8,0-1.1-0.1c-0.1,0.2-0.2,0.4-0.2,0.6c0,0.2,0.2,0.4,0.5,0.5c0.4,0.1,0.8,0.2,1.4,0.2h2.1c2.9,0,4.3,1.2,4.3,3.6
		c0,1.5-0.7,2.8-2,3.6c-1.3,0.9-3.2,1.3-5.6,1.3c-1.8,0-3.2-0.3-4.2-0.9c-1-0.6-1.5-1.5-1.5-2.6c0-1.5,0.9-2.5,2.8-2.9
		c-0.4-0.2-0.7-0.4-1-0.8c-0.3-0.4-0.4-0.7-0.4-1.1c0-0.4,0.1-0.7,0.3-1c0.2-0.3,0.7-0.7,1.4-1.1c-0.7-0.3-1.2-0.7-1.6-1.4
		c-0.4-0.6-0.6-1.4-0.6-2.3c0-1.4,0.5-2.5,1.4-3.2s2.3-1.1,4-1.1c0.2,0,0.6,0,1.2,0.1s1,0.1,1.3,0.1H292.4z M282.8,36.6
		c0,0.4,0.2,0.6,0.6,0.9c0.4,0.2,0.9,0.3,1.6,0.3c1.1,0,1.9-0.1,2.6-0.4c0.6-0.3,1-0.6,1-1c0-0.3-0.2-0.6-0.6-0.7
		c-0.4-0.1-0.9-0.2-1.7-0.2h-1.7c-0.5,0-0.9,0.1-1.2,0.3C282.9,36,282.8,36.2,282.8,36.6z M284.2,26.4c0,1.3,0.5,2,1.4,2
		c0.4,0,0.7-0.2,1-0.5c0.2-0.3,0.3-0.8,0.3-1.4c0-1.3-0.4-2-1.3-2C284.6,24.5,284.2,25.1,284.2,26.4z"/>
	<path class="st0" d="M305.6,31.7c0.6,0,1.3-0.1,2.1-0.4v3.2c-0.6,0.3-1.2,0.4-1.7,0.5c-0.5,0.1-1.2,0.2-1.9,0.2
		c-1.5,0-2.5-0.4-3.2-1.1c-0.7-0.7-1-1.8-1-3.3v-5.2h-1.5v-1.8l2-1.4l1.1-2.7h2.9v2.5h3.1v3.3h-3.1v5
		C304.4,31.3,304.8,31.7,305.6,31.7z"/>
	<path class="st0" d="M317.5,35V28c0-1.7-0.5-2.6-1.5-2.6c-0.7,0-1.2,0.3-1.6,0.9c-0.3,0.6-0.5,1.6-0.5,3V35h-4.4V17.5h4.4V20
		c0,1.1-0.1,2.4-0.2,3.8h0.2c0.4-0.7,0.9-1.1,1.5-1.4s1.2-0.4,2-0.4c1.4,0,2.5,0.4,3.3,1.2c0.8,0.8,1.2,2,1.2,3.4V35H317.5z"/>
	<path class="st0" d="M330.7,35.2c-2.1,0-3.8-0.6-4.9-1.7c-1.2-1.1-1.8-2.7-1.8-4.8c0-2.1,0.5-3.8,1.6-4.9c1.1-1.1,2.6-1.7,4.6-1.7
		c1.9,0,3.4,0.5,4.4,1.5c1,1,1.6,2.4,1.6,4.3v2h-7.9c0,0.7,0.3,1.3,0.8,1.7c0.5,0.4,1.2,0.6,2,0.6c0.8,0,1.5-0.1,2.1-0.2
		c0.6-0.1,1.3-0.4,2.1-0.7v3.2c-0.7,0.4-1.4,0.6-2.1,0.7S331.7,35.2,330.7,35.2z M330.4,25c-0.5,0-0.9,0.2-1.3,0.5
		c-0.3,0.3-0.6,0.8-0.6,1.5h3.8c0-0.6-0.2-1.1-0.5-1.5C331.4,25.2,331,25,330.4,25z"/>
	<path class="st0" d="M351.6,22c1.4,0,2.5,0.6,3.3,1.7c0.8,1.2,1.2,2.8,1.2,4.8c0,2.1-0.4,3.7-1.2,4.9c-0.8,1.2-2,1.8-3.4,1.8
		c-0.5,0-0.9-0.1-1.3-0.2c-0.4-0.1-0.7-0.2-1-0.4c-0.3-0.2-0.6-0.5-1-0.9h-0.3l-0.7,1.2h-3.4V17.5h4.4v4c0,0.5-0.1,1.3-0.2,2.4h0.2
		c0.4-0.7,0.9-1.1,1.5-1.4C350.2,22.2,350.9,22,351.6,22z M350,25.5c-0.6,0-1.1,0.2-1.3,0.6s-0.4,1.1-0.4,2v0.6c0,1,0.1,1.8,0.4,2.2
		c0.3,0.5,0.7,0.7,1.4,0.7c0.5,0,0.9-0.3,1.2-0.8c0.3-0.5,0.4-1.3,0.4-2.3C351.6,26.5,351.1,25.5,350,25.5z"/>
	<path class="st0" d="M358,19.1c0-0.7,0.2-1.1,0.6-1.5s1-0.5,1.8-0.5s1.4,0.2,1.8,0.5s0.6,0.8,0.6,1.5c0,1.3-0.8,1.9-2.3,1.9
		C358.8,21,358,20.4,358,19.1z M362.6,35h-4.4V22.2h4.4V35z"/>
	<path class="st0" d="M372.8,22c0.4,0,0.7,0,1.1,0.1l0.2,0l-0.4,4.1c-0.4-0.1-0.9-0.1-1.5-0.1c-1,0-1.7,0.2-2.1,0.7
		c-0.4,0.4-0.7,1.1-0.7,1.9V35h-4.4V22.2h3.3l0.7,2h0.2c0.4-0.7,0.9-1.2,1.5-1.6C371.5,22.2,372.2,22,372.8,22z"/>
	<path class="st0" d="M381.7,31.7c0.6,0,1.3-0.1,2.1-0.4v3.2c-0.6,0.3-1.2,0.4-1.7,0.5c-0.5,0.1-1.2,0.2-1.9,0.2
		c-1.5,0-2.5-0.4-3.2-1.1c-0.7-0.7-1-1.8-1-3.3v-5.2h-1.5v-1.8l2-1.4l1.1-2.7h2.9v2.5h3.1v3.3h-3.1v5
		C380.5,31.3,380.9,31.7,381.7,31.7z"/>
	<path class="st0" d="M393.6,35V28c0-1.7-0.5-2.6-1.5-2.6c-0.7,0-1.2,0.3-1.6,0.9c-0.3,0.6-0.5,1.6-0.5,3V35h-4.4V17.5h4.4V20
		c0,1.1-0.1,2.4-0.2,3.8h0.2c0.4-0.7,0.9-1.1,1.5-1.4c0.6-0.3,1.2-0.4,2-0.4c1.4,0,2.5,0.4,3.3,1.2c0.8,0.8,1.2,2,1.2,3.4V35H393.6z
		"/>
	<path class="st0" d="M418.3,28.6c0,2.1-0.6,3.7-1.7,4.9c-1.1,1.2-2.7,1.7-4.7,1.7c-1.9,0-3.5-0.6-4.6-1.8s-1.7-2.8-1.7-4.8
		c0-2.1,0.6-3.7,1.7-4.8c1.1-1.1,2.7-1.7,4.7-1.7c1.3,0,2.4,0.3,3.3,0.8s1.7,1.3,2.2,2.3C418,26.1,418.3,27.3,418.3,28.6z M410,28.6
		c0,1.1,0.1,1.9,0.4,2.5c0.3,0.6,0.8,0.9,1.5,0.9c0.7,0,1.2-0.3,1.4-0.9c0.3-0.6,0.4-1.4,0.4-2.5c0-1.1-0.1-1.9-0.4-2.5
		c-0.3-0.6-0.8-0.8-1.5-0.8c-0.7,0-1.2,0.3-1.4,0.8C410.2,26.7,410,27.5,410,28.6z"/>
	<path class="st0" d="M428.1,25.5h-2.7V35H421v-9.4h-1.7v-2.2l1.8-1.1v-0.2c0-1.7,0.3-2.9,1-3.6c0.7-0.7,1.8-1.1,3.3-1.1
		c0.6,0,1.1,0,1.7,0.1s1.1,0.2,1.8,0.5l-0.9,2.8c-0.5-0.1-1.1-0.2-1.6-0.2c-0.3,0-0.6,0.1-0.7,0.3c-0.2,0.2-0.2,0.5-0.2,1v0.3h2.7
		V25.5z"/>
	<path class="st0" d="M441.1,31.7c0.6,0,1.3-0.1,2.1-0.4v3.2c-0.6,0.3-1.2,0.4-1.7,0.5c-0.5,0.1-1.2,0.2-1.9,0.2
		c-1.5,0-2.5-0.4-3.2-1.1c-0.7-0.7-1-1.8-1-3.3v-5.2H434v-1.8l2-1.4l1.1-2.7h2.9v2.5h3.1v3.3H440v5C440,31.3,440.4,31.7,441.1,31.7z
		"/>
	<path class="st0" d="M453.1,35V28c0-1.7-0.5-2.6-1.5-2.6c-0.7,0-1.2,0.3-1.6,0.9c-0.3,0.6-0.5,1.6-0.5,3V35h-4.4V17.5h4.4V20
		c0,1.1-0.1,2.4-0.2,3.8h0.2c0.4-0.7,0.9-1.1,1.5-1.4c0.6-0.3,1.2-0.4,2-0.4c1.4,0,2.5,0.4,3.3,1.2c0.8,0.8,1.2,2,1.2,3.4V35H453.1z
		"/>
	<path class="st0" d="M466.2,35.2c-2.1,0-3.8-0.6-4.9-1.7c-1.2-1.1-1.8-2.7-1.8-4.8c0-2.1,0.5-3.8,1.6-4.9c1.1-1.1,2.6-1.7,4.7-1.7
		c1.9,0,3.4,0.5,4.4,1.5c1,1,1.6,2.4,1.6,4.3v2h-7.8c0,0.7,0.3,1.3,0.8,1.7s1.2,0.6,2,0.6c0.8,0,1.5-0.1,2.1-0.2
		c0.6-0.1,1.3-0.4,2.1-0.7v3.2c-0.7,0.4-1.4,0.6-2.1,0.7S467.2,35.2,466.2,35.2z M465.9,25c-0.5,0-0.9,0.2-1.3,0.5
		c-0.3,0.3-0.6,0.8-0.6,1.5h3.8c0-0.6-0.2-1.1-0.5-1.5S466.5,25,465.9,25z"/>
	<path class="st0" d="M493.5,18.6v9.9c0,2.1-0.6,3.8-1.8,5c-1.2,1.2-3,1.8-5.3,1.8c-2.2,0-4-0.6-5.2-1.7c-1.2-1.1-1.8-2.8-1.8-4.9
		v-10h4.5v9.6c0,1.2,0.2,2,0.7,2.5c0.4,0.5,1.1,0.8,1.9,0.8c0.9,0,1.6-0.3,2-0.8c0.4-0.5,0.6-1.4,0.6-2.6v-9.6H493.5z"/>
	<path class="st0" d="M495.7,33.1c0-0.7,0.2-1.2,0.6-1.6s1-0.6,1.8-0.6c0.7,0,1.3,0.2,1.7,0.6c0.4,0.4,0.6,0.9,0.6,1.6
		c0,0.7-0.2,1.2-0.6,1.6c-0.4,0.4-1,0.6-1.7,0.6c-0.7,0-1.3-0.2-1.8-0.6C496,34.3,495.7,33.8,495.7,33.1z"/>
	<path class="st0" d="M513.5,30c0,1-0.3,1.9-0.8,2.7c-0.5,0.8-1.3,1.4-2.2,1.8c-1,0.4-2.1,0.7-3.4,0.7c-1.1,0-2-0.1-2.8-0.2
		c-0.7-0.2-1.5-0.4-2.3-0.8v-4c0.8,0.4,1.7,0.8,2.6,1c0.9,0.2,1.8,0.4,2.5,0.4c0.7,0,1.1-0.1,1.4-0.3c0.3-0.2,0.5-0.5,0.5-0.9
		c0-0.2-0.1-0.4-0.2-0.6c-0.1-0.2-0.3-0.3-0.6-0.5s-1-0.5-2.2-1.1c-1.1-0.5-1.9-1-2.4-1.4s-0.9-1-1.2-1.6c-0.3-0.6-0.4-1.3-0.4-2.1
		c0-1.5,0.6-2.7,1.7-3.5c1.1-0.8,2.6-1.3,4.5-1.3c1.7,0,3.4,0.4,5.2,1.2l-1.4,3.4c-1.5-0.7-2.9-1.1-4-1.1c-0.6,0-1,0.1-1.3,0.3
		c-0.3,0.2-0.4,0.5-0.4,0.8c0,0.3,0.2,0.6,0.5,0.9s1.2,0.7,2.7,1.4c1.4,0.6,2.4,1.3,2.9,2C513.2,28,513.5,28.9,513.5,30z"/>
	<path class="st0" d="M514.7,33.1c0-0.7,0.2-1.2,0.6-1.6s1-0.6,1.8-0.6c0.7,0,1.3,0.2,1.7,0.6c0.4,0.4,0.6,0.9,0.6,1.6
		c0,0.7-0.2,1.2-0.6,1.6c-0.4,0.4-1,0.6-1.7,0.6c-0.7,0-1.3-0.2-1.8-0.6C515,34.3,514.7,33.8,514.7,33.1z"/>
	<path class="st0" d="M534.6,22c-1.1,0-1.9,0.4-2.5,1.3c-0.6,0.9-0.9,2.1-0.9,3.6c0,3.2,1.2,4.7,3.6,4.7c0.7,0,1.4-0.1,2.1-0.3
		c0.7-0.2,1.4-0.4,2.1-0.7v3.8c-1.4,0.6-2.9,0.9-4.6,0.9c-2.5,0-4.4-0.7-5.7-2.2s-2-3.5-2-6.2c0-1.7,0.3-3.2,1-4.5
		c0.6-1.3,1.6-2.3,2.8-3c1.2-0.7,2.6-1,4.2-1c1.8,0,3.5,0.4,5.1,1.2l-1.4,3.5c-0.6-0.3-1.2-0.5-1.8-0.7
		C535.9,22.1,535.3,22,534.6,22z"/>
	<path class="st0" d="M553.7,28.6c0,2.1-0.6,3.7-1.7,4.9c-1.1,1.2-2.7,1.7-4.7,1.7c-1.9,0-3.5-0.6-4.6-1.8s-1.7-2.8-1.7-4.8
		c0-2.1,0.6-3.7,1.7-4.8c1.1-1.1,2.7-1.7,4.7-1.7c1.3,0,2.4,0.3,3.3,0.8s1.7,1.3,2.2,2.3C553.4,26.1,553.7,27.3,553.7,28.6z
		 M545.4,28.6c0,1.1,0.1,1.9,0.4,2.5c0.3,0.6,0.8,0.9,1.5,0.9c0.7,0,1.2-0.3,1.4-0.9c0.3-0.6,0.4-1.4,0.4-2.5c0-1.1-0.1-1.9-0.4-2.5
		c-0.3-0.6-0.8-0.8-1.5-0.8c-0.7,0-1.2,0.3-1.4,0.8C545.6,26.7,545.4,27.5,545.4,28.6z"/>
	<path class="st0" d="M564,35l-0.8-1.7h-0.1c-0.6,0.7-1.2,1.2-1.8,1.5s-1.4,0.4-2.4,0.4c-1.2,0-2.1-0.4-2.8-1.1s-1-1.7-1-3
		c0-1.4,0.5-2.4,1.4-3c0.9-0.7,2.3-1,4.1-1.1l2.1-0.1v-0.2c0-1-0.5-1.6-1.5-1.6c-0.9,0-2.1,0.3-3.5,0.9l-1.3-2.9
		c1.5-0.8,3.4-1.1,5.6-1.1c1.6,0,2.9,0.4,3.8,1.2s1.3,1.9,1.3,3.4V35H564z M560.8,32.1c0.5,0,1-0.2,1.4-0.5s0.6-0.8,0.6-1.3v-1l-1,0
		c-1.4,0.1-2.2,0.6-2.2,1.6C559.5,31.7,559.9,32.1,560.8,32.1z"/>
	<path class="st0" d="M579.4,31.1c0,1.4-0.5,2.4-1.4,3.1s-2.3,1-4,1c-0.9,0-1.8-0.1-2.5-0.2c-0.7-0.1-1.4-0.3-2.1-0.6V31
		c0.7,0.3,1.4,0.5,2.2,0.7s1.5,0.3,2.2,0.3c1,0,1.4-0.2,1.4-0.7c0-0.2-0.1-0.4-0.4-0.6c-0.3-0.2-1-0.5-2.3-1c-1.2-0.5-2-1-2.4-1.6
		c-0.5-0.6-0.7-1.4-0.7-2.3c0-1.2,0.5-2.1,1.4-2.8c0.9-0.7,2.2-1,3.9-1c0.8,0,1.6,0.1,2.4,0.3c0.7,0.2,1.5,0.5,2.3,0.8l-1.2,2.8
		c-0.6-0.3-1.2-0.5-1.9-0.7c-0.7-0.2-1.2-0.3-1.6-0.3c-0.7,0-1.1,0.2-1.1,0.5c0,0.2,0.1,0.4,0.4,0.6c0.3,0.2,1,0.5,2.2,0.9
		c0.9,0.4,1.6,0.7,2,1.1c0.4,0.4,0.8,0.8,1,1.2C579.3,29.8,579.4,30.4,579.4,31.1z"/>
	<path class="st0" d="M587.6,31.7c0.6,0,1.3-0.1,2.1-0.4v3.2c-0.6,0.3-1.2,0.4-1.7,0.5c-0.5,0.1-1.2,0.2-1.9,0.2
		c-1.5,0-2.5-0.4-3.2-1.1c-0.7-0.7-1-1.8-1-3.3v-5.2h-1.5v-1.8l2-1.4l1.1-2.7h2.9v2.5h3.1v3.3h-3.1v5
		C586.4,31.3,586.8,31.7,587.6,31.7z"/>
	<path class="st0" d="M603.9,25.4h7.1v8.8c-1.9,0.7-4,1-6.3,1c-2.5,0-4.5-0.7-5.9-2.2c-1.4-1.5-2.1-3.6-2.1-6.3
		c0-2.7,0.8-4.7,2.3-6.2s3.6-2.2,6.4-2.2c1,0,2,0.1,2.9,0.3s1.7,0.4,2.4,0.7l-1.4,3.5c-1.2-0.6-2.5-0.9-3.9-0.9
		c-1.3,0-2.3,0.4-3,1.3c-0.7,0.8-1.1,2-1.1,3.6c0,1.5,0.3,2.7,1,3.5c0.6,0.8,1.6,1.2,2.8,1.2c0.7,0,1.3-0.1,1.8-0.2v-2.6h-2.9V25.4z
		"/>
	<path class="st0" d="M622.7,35l-0.5-1.6h-0.3c-0.4,0.6-0.9,1-1.5,1.3c-0.7,0.3-1.4,0.5-2.3,0.5c-1.4,0-2.5-0.4-3.3-1.2
		c-0.8-0.8-1.2-2-1.2-3.4v-8.3h4.4v7c0,0.8,0.1,1.5,0.4,1.9c0.2,0.4,0.6,0.6,1.2,0.6c0.8,0,1.3-0.3,1.6-0.9c0.3-0.6,0.5-1.6,0.5-3
		v-5.6h4.4V35H622.7z"/>
	<path class="st0" d="M636.9,35l-0.8-1.7H636c-0.6,0.7-1.2,1.2-1.8,1.5s-1.4,0.4-2.4,0.4c-1.2,0-2.1-0.4-2.8-1.1s-1-1.7-1-3
		c0-1.4,0.5-2.4,1.4-3c0.9-0.7,2.3-1,4.1-1.1l2.1-0.1v-0.2c0-1-0.5-1.6-1.5-1.6c-0.9,0-2.1,0.3-3.5,0.9l-1.3-2.9
		c1.5-0.8,3.4-1.1,5.6-1.1c1.6,0,2.9,0.4,3.8,1.2s1.3,1.9,1.3,3.4V35H636.9z M633.6,32.1c0.5,0,1-0.2,1.4-0.5s0.6-0.8,0.6-1.3v-1
		l-1,0c-1.4,0.1-2.2,0.6-2.2,1.6C632.4,31.7,632.8,32.1,633.6,32.1z"/>
	<path class="st0" d="M650.1,22c0.4,0,0.7,0,1.1,0.1l0.2,0l-0.4,4.1c-0.4-0.1-0.9-0.1-1.5-0.1c-1,0-1.7,0.2-2.1,0.7
		c-0.4,0.4-0.7,1.1-0.7,1.9V35h-4.4V22.2h3.3l0.7,2h0.2c0.4-0.7,0.9-1.2,1.5-1.6C648.8,22.2,649.5,22,650.1,22z"/>
	<path class="st0" d="M656.8,35.2c-0.9,0-1.7-0.3-2.4-0.8s-1.2-1.3-1.6-2.3c-0.4-1-0.6-2.2-0.6-3.5c0-2.1,0.4-3.7,1.2-4.9
		c0.8-1.2,2-1.8,3.4-1.8c0.7,0,1.3,0.1,1.9,0.4s1,0.8,1.5,1.4h0.1c-0.1-1-0.2-2-0.2-3v-3.4h4.4V35h-3.3l-0.9-1.6h-0.2
		C659.4,34.6,658.3,35.2,656.8,35.2z M658.6,31.7c0.7,0,1.2-0.2,1.5-0.7s0.4-1.1,0.5-2v-0.3c0-1.1-0.2-1.9-0.5-2.4
		c-0.3-0.5-0.8-0.7-1.5-0.7c-0.6,0-1,0.3-1.3,0.8c-0.3,0.5-0.5,1.3-0.5,2.3c0,1,0.2,1.7,0.5,2.3S658,31.7,658.6,31.7z"/>
	<path class="st0" d="M666.6,33.1c0-0.7,0.2-1.2,0.6-1.6s1-0.6,1.8-0.6c0.7,0,1.3,0.2,1.7,0.6c0.4,0.4,0.6,0.9,0.6,1.6
		c0,0.7-0.2,1.2-0.6,1.6c-0.4,0.4-1,0.6-1.7,0.6c-0.7,0-1.3-0.2-1.8-0.6C666.8,34.3,666.6,33.8,666.6,33.1z"/>
</g>
<g>
	<path class="st0" d="M197.5,62h-9.7V45.6h9.7v3.6h-5.3v2.6h4.9v3.6h-4.9v3.1h5.3V62z"/>
	<path class="st0" d="M209.5,58.1c0,1.4-0.5,2.4-1.4,3.1c-0.9,0.7-2.3,1-4,1c-0.9,0-1.8-0.1-2.5-0.2c-0.7-0.1-1.4-0.3-2.1-0.6V58
		c0.7,0.3,1.4,0.5,2.2,0.7c0.8,0.2,1.5,0.3,2.2,0.3c1,0,1.4-0.2,1.4-0.7c0-0.2-0.1-0.4-0.4-0.6c-0.3-0.2-1-0.5-2.3-1
		c-1.2-0.5-2-1-2.4-1.6s-0.7-1.4-0.7-2.3c0-1.2,0.5-2.1,1.4-2.8c0.9-0.7,2.2-1,3.9-1c0.8,0,1.6,0.1,2.4,0.3c0.7,0.2,1.5,0.5,2.3,0.8
		l-1.2,2.8c-0.6-0.3-1.2-0.5-1.9-0.7s-1.2-0.3-1.6-0.3c-0.7,0-1.1,0.2-1.1,0.5c0,0.2,0.1,0.4,0.4,0.6c0.3,0.2,1,0.5,2.2,0.9
		c0.9,0.4,1.6,0.7,2,1.1c0.4,0.4,0.8,0.8,1,1.2C209.4,56.8,209.5,57.4,209.5,58.1z"/>
	<path class="st0" d="M217.7,58.7c0.6,0,1.3-0.1,2.1-0.4v3.2c-0.6,0.3-1.2,0.4-1.7,0.5c-0.5,0.1-1.2,0.2-1.9,0.2
		c-1.5,0-2.5-0.4-3.2-1.1s-1-1.8-1-3.3v-5.2h-1.5v-1.8l2-1.4l1.1-2.7h2.9v2.5h3.1v3.3h-3.1v5C216.5,58.3,216.9,58.7,217.7,58.7z"/>
	<path class="st0" d="M229.9,62l-0.8-1.7H229c-0.6,0.7-1.2,1.2-1.8,1.5s-1.4,0.4-2.4,0.4c-1.2,0-2.1-0.4-2.8-1.1s-1-1.7-1-3
		c0-1.4,0.5-2.4,1.4-3c0.9-0.7,2.3-1,4.1-1.1l2.1-0.1v-0.2c0-1-0.5-1.6-1.5-1.6c-0.9,0-2.1,0.3-3.5,0.9l-1.3-2.9
		c1.5-0.8,3.4-1.1,5.6-1.1c1.6,0,2.9,0.4,3.8,1.2c0.9,0.8,1.3,1.9,1.3,3.4V62H229.9z M226.7,59.1c0.5,0,1-0.2,1.4-0.5
		c0.4-0.3,0.6-0.8,0.6-1.3v-1l-1,0c-1.4,0.1-2.2,0.6-2.2,1.6C225.4,58.7,225.9,59.1,226.7,59.1z"/>
	<path class="st0" d="M243.3,49c1.4,0,2.5,0.6,3.3,1.7c0.8,1.2,1.2,2.8,1.2,4.8c0,2.1-0.4,3.7-1.2,4.9c-0.8,1.2-2,1.8-3.4,1.8
		c-0.5,0-0.9-0.1-1.3-0.2c-0.4-0.1-0.7-0.2-1-0.4c-0.3-0.2-0.6-0.5-1-0.9h-0.3l-0.7,1.2h-3.4V44.5h4.4v4c0,0.5-0.1,1.3-0.2,2.4h0.2
		c0.4-0.7,0.9-1.1,1.5-1.4C241.9,49.2,242.6,49,243.3,49z M241.7,52.5c-0.6,0-1.1,0.2-1.3,0.6c-0.3,0.4-0.4,1.1-0.4,2v0.6
		c0,1,0.1,1.8,0.4,2.2s0.7,0.7,1.4,0.7c0.5,0,0.9-0.3,1.2-0.8c0.3-0.5,0.4-1.3,0.4-2.3C243.3,53.5,242.8,52.5,241.7,52.5z"/>
	<path class="st0" d="M254.2,62h-4.4V44.5h4.4V62z"/>
	<path class="st0" d="M256.7,46.1c0-0.7,0.2-1.1,0.6-1.5s1-0.5,1.8-0.5s1.4,0.2,1.8,0.5s0.6,0.8,0.6,1.5c0,1.3-0.8,1.9-2.3,1.9
		C257.5,48,256.7,47.4,256.7,46.1z M261.2,62h-4.4V49.3h4.4V62z"/>
	<path class="st0" d="M273.7,58.1c0,1.4-0.5,2.4-1.4,3.1c-0.9,0.7-2.3,1-4,1c-0.9,0-1.8-0.1-2.5-0.2c-0.7-0.1-1.4-0.3-2.1-0.6V58
		c0.7,0.3,1.4,0.5,2.2,0.7c0.8,0.2,1.5,0.3,2.2,0.3c1,0,1.4-0.2,1.4-0.7c0-0.2-0.1-0.4-0.4-0.6c-0.3-0.2-1-0.5-2.3-1
		c-1.2-0.5-2-1-2.4-1.6s-0.7-1.4-0.7-2.3c0-1.2,0.5-2.1,1.4-2.8c0.9-0.7,2.2-1,3.9-1c0.8,0,1.6,0.1,2.4,0.3c0.7,0.2,1.5,0.5,2.3,0.8
		l-1.2,2.8c-0.6-0.3-1.2-0.5-1.9-0.7s-1.2-0.3-1.6-0.3c-0.7,0-1.1,0.2-1.1,0.5c0,0.2,0.1,0.4,0.4,0.6c0.3,0.2,1,0.5,2.2,0.9
		c0.9,0.4,1.6,0.7,2,1.1c0.4,0.4,0.8,0.8,1,1.2C273.6,56.8,273.7,57.4,273.7,58.1z"/>
	<path class="st0" d="M283.7,62V55c0-1.7-0.5-2.6-1.5-2.6c-0.7,0-1.2,0.3-1.6,0.9c-0.3,0.6-0.5,1.6-0.5,3V62h-4.4V44.5h4.4V47
		c0,1.1-0.1,2.4-0.2,3.8h0.2c0.4-0.7,0.9-1.1,1.5-1.4s1.2-0.4,2-0.4c1.4,0,2.5,0.4,3.3,1.2c0.8,0.8,1.2,2,1.2,3.4V62H283.7z"/>
	<path class="st0" d="M296.8,62.2c-2.1,0-3.8-0.6-4.9-1.7c-1.2-1.1-1.8-2.7-1.8-4.8c0-2.1,0.5-3.8,1.6-4.9s2.6-1.7,4.6-1.7
		c1.9,0,3.4,0.5,4.4,1.5c1,1,1.6,2.4,1.6,4.3v2h-7.9c0,0.7,0.3,1.3,0.8,1.7c0.5,0.4,1.2,0.6,2,0.6c0.8,0,1.5-0.1,2.1-0.2
		c0.6-0.1,1.3-0.4,2.1-0.7v3.2c-0.7,0.4-1.4,0.6-2.1,0.7S297.8,62.2,296.8,62.2z M296.5,52c-0.5,0-0.9,0.2-1.3,0.5
		c-0.3,0.3-0.6,0.8-0.6,1.5h3.8c0-0.6-0.2-1.1-0.5-1.5C297.5,52.2,297.1,52,296.5,52z"/>
	<path class="st0" d="M308.3,62.2c-0.9,0-1.7-0.3-2.4-0.8c-0.7-0.5-1.2-1.3-1.6-2.3c-0.4-1-0.6-2.2-0.6-3.5c0-2.1,0.4-3.7,1.2-4.9
		s2-1.8,3.4-1.8c0.7,0,1.3,0.1,1.9,0.4c0.5,0.3,1,0.8,1.5,1.4h0.1c-0.1-1-0.2-2-0.2-3v-3.4h4.4V62h-3.3l-0.9-1.6h-0.2
		C311,61.6,309.8,62.2,308.3,62.2z M310.1,58.7c0.7,0,1.2-0.2,1.5-0.7c0.3-0.4,0.4-1.1,0.5-2v-0.3c0-1.1-0.2-1.9-0.5-2.4
		s-0.8-0.7-1.5-0.7c-0.6,0-1,0.3-1.3,0.8c-0.3,0.5-0.5,1.3-0.5,2.3c0,1,0.2,1.7,0.5,2.3S309.5,58.7,310.1,58.7z"/>
	<path class="st0" d="M333.3,62h-4.5v-8.7c0-1.1,0-2,0.1-2.9c-0.3,0.3-0.6,0.7-1,1.1L326,53l-2.3-2.8l5.6-4.6h4V62z"/>
	<path class="st0" d="M338.1,62l5.6-12.7h-7.1v-3.7h11.8v2.6L342.7,62H338.1z"/>
	<path class="st0" d="M361.5,53.1c0,3.2-0.7,5.5-2.1,7s-3.6,2.2-6.6,2.2c-1,0-1.8,0-2.3-0.1v-3.5c0.6,0.1,1.3,0.2,1.9,0.2
		c1.6,0,2.8-0.3,3.7-1s1.3-1.7,1.4-3.1h-0.1c-0.3,0.5-0.6,0.9-0.9,1.2c-0.3,0.2-0.6,0.4-1,0.5s-0.9,0.2-1.5,0.2
		c-1.4,0-2.5-0.5-3.3-1.4s-1.2-2.3-1.2-3.9c0-1.8,0.5-3.2,1.6-4.3c1-1,2.5-1.5,4.3-1.5c2,0,3.6,0.7,4.7,2
		C361,48.7,361.5,50.6,361.5,53.1z M355.3,48.9c-0.5,0-0.9,0.2-1.2,0.5c-0.3,0.4-0.5,0.9-0.5,1.7c0,0.6,0.1,1.1,0.4,1.5
		s0.7,0.5,1.2,0.5c0.5,0,0.9-0.2,1.3-0.5c0.4-0.4,0.5-0.8,0.5-1.3c0-0.7-0.2-1.2-0.5-1.7C356.3,49.2,355.9,48.9,355.3,48.9z"/>
	<path class="st0" d="M374.5,53.8c0,2.9-0.5,5-1.5,6.4c-1,1.4-2.5,2-4.5,2c-2,0-3.4-0.7-4.4-2.1c-1-1.4-1.5-3.5-1.5-6.3
		c0-2.9,0.5-5.1,1.5-6.4c1-1.4,2.5-2,4.5-2c2,0,3.4,0.7,4.4,2.1C374,48.9,374.5,51,374.5,53.8z M367.1,53.8c0,1.9,0.1,3.1,0.3,3.8
		s0.6,1,1.2,1c0.6,0,0.9-0.4,1.2-1.1s0.3-2,0.3-3.8c0-1.8-0.1-3.1-0.3-3.8c-0.2-0.7-0.6-1.1-1.2-1.1s-0.9,0.4-1.2,1.1
		C367.2,50.6,367.1,51.9,367.1,53.8z"/>
	<path class="st0" d="M375.9,60.1c0-0.7,0.2-1.2,0.6-1.6s1-0.6,1.8-0.6c0.7,0,1.3,0.2,1.7,0.6c0.4,0.4,0.6,0.9,0.6,1.6
		c0,0.7-0.2,1.2-0.6,1.6s-1,0.6-1.7,0.6c-0.7,0-1.3-0.2-1.8-0.6C376.1,61.3,375.9,60.8,375.9,60.1z"/>
</g>
</svg>
