<?xml version="1.0" encoding="utf-8"?>
<!-- Generator: Adobe Illustrator 22.1.0, SVG Export Plug-In . SVG Version: 6.00 Build 0)  -->
<svg version="1.1" id="Layer_1" xmlns="http://www.w3.org/2000/svg" xmlns:xlink="http://www.w3.org/1999/xlink" x="0px" y="0px"
	 viewBox="0 0 728 90" style="enable-background:new 0 0 728 90;" xml:space="preserve">
<style type="text/css">
	.st0{fill:#FFFFFF;}
</style>
<g>
	<path class="st0" d="M252.6,20.8l2.8-6.1h4.8l-5.4,10v6.4h-4.5v-6.3L245,14.7h4.8L252.6,20.8z"/>
	<path class="st0" d="M273.5,24.7c0,2.1-0.6,3.7-1.7,4.9c-1.1,1.2-2.7,1.7-4.7,1.7c-1.9,0-3.5-0.6-4.6-1.8c-1.1-1.2-1.7-2.8-1.7-4.8
		c0-2.1,0.6-3.7,1.7-4.8c1.1-1.1,2.7-1.7,4.7-1.7c1.3,0,2.4,0.3,3.3,0.8s1.7,1.3,2.2,2.3C273.2,22.2,273.5,23.4,273.5,24.7z
		 M265.2,24.7c0,1.1,0.1,1.9,0.4,2.5c0.3,0.6,0.8,0.9,1.5,0.9c0.7,0,1.2-0.3,1.4-0.9c0.3-0.6,0.4-1.4,0.4-2.5c0-1.1-0.1-1.9-0.4-2.5
		s-0.8-0.8-1.5-0.8c-0.7,0-1.2,0.3-1.4,0.8C265.4,22.8,265.2,23.6,265.2,24.7z"/>
	<path class="st0" d="M284.6,31.1l-0.6-1.6h-0.3c-0.4,0.6-0.9,1-1.5,1.3c-0.7,0.3-1.4,0.5-2.3,0.5c-1.4,0-2.5-0.4-3.3-1.2
		c-0.8-0.8-1.2-2-1.2-3.4v-8.3h4.4v7c0,0.8,0.1,1.5,0.4,1.9c0.2,0.4,0.6,0.6,1.2,0.6c0.8,0,1.3-0.3,1.6-0.9c0.3-0.6,0.5-1.6,0.5-3
		v-5.6h4.4v12.7H284.6z"/>
	<path class="st0" d="M294.3,14.7l0.2,0.2c-0.7,2.7-1.4,4.8-2,6.3h-3.1c0.5-2.4,0.9-4.6,1.1-6.5H294.3z"/>
	<path class="st0" d="M303.5,18.1c0.4,0,0.7,0,1.1,0.1l0.2,0l-0.4,4.1c-0.4-0.1-0.9-0.1-1.5-0.1c-1,0-1.7,0.2-2.1,0.7
		c-0.4,0.4-0.7,1.1-0.7,1.9v6.3h-4.4V18.4h3.3l0.7,2h0.2c0.4-0.7,0.9-1.2,1.5-1.6C302.2,18.3,302.8,18.1,303.5,18.1z"/>
	<path class="st0" d="M312.3,31.3c-2.1,0-3.8-0.6-4.9-1.7c-1.2-1.1-1.8-2.7-1.8-4.8c0-2.1,0.5-3.8,1.6-4.9c1.1-1.1,2.6-1.7,4.6-1.7
		c1.9,0,3.4,0.5,4.4,1.5c1,1,1.6,2.4,1.6,4.3v2H310c0,0.7,0.3,1.3,0.8,1.7c0.5,0.4,1.2,0.6,2,0.6c0.8,0,1.5-0.1,2.1-0.2
		c0.6-0.1,1.3-0.4,2.1-0.7v3.2c-0.7,0.4-1.4,0.6-2.1,0.7S313.3,31.3,312.3,31.3z M312,21.1c-0.5,0-0.9,0.2-1.3,0.5
		c-0.3,0.3-0.6,0.8-0.6,1.5h3.8c0-0.6-0.2-1.1-0.5-1.5C313,21.3,312.6,21.1,312,21.1z"/>
	<path class="st0" d="M333.7,31.1l-0.8-1.7h-0.1c-0.6,0.7-1.2,1.2-1.8,1.5s-1.4,0.4-2.4,0.4c-1.2,0-2.1-0.4-2.8-1.1s-1-1.7-1-3
		c0-1.4,0.5-2.4,1.4-3c0.9-0.7,2.3-1,4.1-1.1l2.1-0.1v-0.2c0-1-0.5-1.6-1.5-1.6c-0.9,0-2.1,0.3-3.5,0.9l-1.3-2.9
		c1.5-0.8,3.4-1.1,5.6-1.1c1.6,0,2.9,0.4,3.8,1.2c0.9,0.8,1.3,1.9,1.3,3.4v8.3H333.7z M330.5,28.2c0.5,0,1-0.2,1.4-0.5
		c0.4-0.3,0.6-0.8,0.6-1.3v-1l-1,0c-1.4,0.1-2.2,0.6-2.2,1.6C329.2,27.8,329.6,28.2,330.5,28.2z"/>
	<path class="st0" d="M343.7,31.1h-4.4V13.6h4.4V31.1z"/>
	<path class="st0" d="M357.2,31.1l-1.4-6.1l-0.3-1.8l-0.2-1.5h-0.1c-0.4,2.1-0.6,3.4-0.7,4l-1.3,5.4h-4.6L345,18.4h4.3l1,4.9
		c0.3,1.7,0.5,3.1,0.6,4.2h0.1c0-0.7,0.2-2,0.6-3.9l1.2-5.1h4.9l1.1,5.2c0.3,1.7,0.6,2.9,0.7,3.9h0.1c0-0.6,0.1-1.3,0.2-2.1
		c0.1-0.9,0.2-1.5,0.3-2l1.1-4.9h4.2l-3.5,12.7H357.2z"/>
	<path class="st0" d="M375.1,31.1l-0.8-1.7h-0.1c-0.6,0.7-1.2,1.2-1.8,1.5s-1.4,0.4-2.4,0.4c-1.2,0-2.1-0.4-2.8-1.1s-1-1.7-1-3
		c0-1.4,0.5-2.4,1.4-3c0.9-0.7,2.3-1,4.1-1.1l2.1-0.1v-0.2c0-1-0.5-1.6-1.5-1.6c-0.9,0-2.1,0.3-3.5,0.9l-1.3-2.9
		c1.5-0.8,3.4-1.1,5.6-1.1c1.6,0,2.9,0.4,3.8,1.2s1.3,1.9,1.3,3.4v8.3H375.1z M371.8,28.2c0.5,0,1-0.2,1.4-0.5s0.6-0.8,0.6-1.3v-1
		l-1,0c-1.4,0.1-2.2,0.6-2.2,1.6C370.6,27.8,371,28.2,371.8,28.2z"/>
	<path class="st0" d="M379.1,18.4h4.6l2.2,7.3c0.1,0.4,0.2,0.8,0.2,1.4h0.1c0.1-0.5,0.1-1,0.3-1.4l2.2-7.3h4.5l-5,13.5
		c-0.6,1.7-1.4,2.9-2.4,3.6s-2.2,1.1-3.7,1.1c-0.6,0-1.2-0.1-1.8-0.2V33c0.4,0.1,0.8,0.1,1.4,0.1c0.4,0,0.7-0.1,1-0.2
		s0.5-0.4,0.8-0.6c0.2-0.3,0.4-0.7,0.7-1.3L379.1,18.4z"/>
	<path class="st0" d="M404,27.2c0,1.4-0.5,2.4-1.4,3.1s-2.3,1-4,1c-0.9,0-1.8-0.1-2.5-0.2c-0.7-0.1-1.4-0.3-2.1-0.6v-3.5
		c0.7,0.3,1.4,0.5,2.2,0.7s1.5,0.3,2.2,0.3c1,0,1.4-0.2,1.4-0.7c0-0.2-0.1-0.4-0.4-0.6c-0.3-0.2-1-0.5-2.3-1c-1.2-0.5-2-1-2.4-1.6
		c-0.5-0.6-0.7-1.4-0.7-2.3c0-1.2,0.5-2.1,1.4-2.8c0.9-0.7,2.2-1,3.9-1c0.8,0,1.6,0.1,2.4,0.3c0.7,0.2,1.5,0.5,2.3,0.8l-1.2,2.8
		c-0.6-0.3-1.2-0.5-1.9-0.7c-0.7-0.2-1.2-0.3-1.6-0.3c-0.7,0-1.1,0.2-1.1,0.5c0,0.2,0.1,0.4,0.4,0.6c0.3,0.2,1,0.5,2.2,0.9
		c0.9,0.4,1.6,0.7,2,1.1c0.4,0.4,0.8,0.8,1,1.2C403.9,25.9,404,26.5,404,27.2z"/>
	<path class="st0" d="M419.2,18.1c0.4,0,0.7,0,1.1,0.1l0.2,0l-0.4,4.1c-0.4-0.1-0.9-0.1-1.5-0.1c-1,0-1.7,0.2-2.1,0.7
		c-0.4,0.4-0.7,1.1-0.7,1.9v6.3h-4.4V18.4h3.3l0.7,2h0.2c0.4-0.7,0.9-1.2,1.5-1.6C417.9,18.3,418.6,18.1,419.2,18.1z"/>
	<path class="st0" d="M428,31.3c-2.1,0-3.8-0.6-4.9-1.7c-1.2-1.1-1.8-2.7-1.8-4.8c0-2.1,0.5-3.8,1.6-4.9c1.1-1.1,2.6-1.7,4.7-1.7
		c1.9,0,3.4,0.5,4.4,1.5c1,1,1.6,2.4,1.6,4.3v2h-7.8c0,0.7,0.3,1.3,0.8,1.7s1.2,0.6,2,0.6c0.8,0,1.5-0.1,2.1-0.2
		c0.6-0.1,1.3-0.4,2.1-0.7v3.2c-0.7,0.4-1.4,0.6-2.1,0.7S429.1,31.3,428,31.3z M427.8,21.1c-0.5,0-0.9,0.2-1.3,0.5
		c-0.3,0.3-0.6,0.8-0.6,1.5h3.8c0-0.6-0.2-1.1-0.5-1.5S428.3,21.1,427.8,21.1z"/>
	<path class="st0" d="M443.9,31.1l-0.8-1.7H443c-0.6,0.7-1.2,1.2-1.8,1.5s-1.4,0.4-2.4,0.4c-1.2,0-2.1-0.4-2.8-1.1s-1-1.7-1-3
		c0-1.4,0.5-2.4,1.4-3c0.9-0.7,2.3-1,4.1-1.1l2.1-0.1v-0.2c0-1-0.5-1.6-1.5-1.6c-0.9,0-2.1,0.3-3.5,0.9l-1.3-2.9
		c1.5-0.8,3.4-1.1,5.6-1.1c1.6,0,2.9,0.4,3.8,1.2s1.3,1.9,1.3,3.4v8.3H443.9z M440.7,28.2c0.5,0,1-0.2,1.4-0.5s0.6-0.8,0.6-1.3v-1
		l-1,0c-1.4,0.1-2.2,0.6-2.2,1.6C439.4,27.8,439.9,28.2,440.7,28.2z"/>
	<path class="st0" d="M453.5,31.3c-0.9,0-1.7-0.3-2.4-0.8s-1.2-1.3-1.6-2.3c-0.4-1-0.6-2.2-0.6-3.5c0-2.1,0.4-3.7,1.2-4.9
		c0.8-1.2,2-1.8,3.4-1.8c0.7,0,1.3,0.1,1.9,0.4s1,0.8,1.5,1.4h0.1c-0.1-1-0.2-2-0.2-3v-3.4h4.4v17.5H458l-0.9-1.6h-0.2
		C456.1,30.7,455,31.3,453.5,31.3z M455.3,27.8c0.7,0,1.2-0.2,1.5-0.7s0.4-1.1,0.5-2v-0.3c0-1.1-0.2-1.9-0.5-2.4
		c-0.3-0.5-0.8-0.7-1.5-0.7c-0.6,0-1,0.3-1.3,0.8c-0.3,0.5-0.5,1.3-0.5,2.3c0,1,0.2,1.7,0.5,2.3S454.7,27.8,455.3,27.8z"/>
	<path class="st0" d="M462.3,18.4h4.6l2.2,7.3c0.1,0.4,0.2,0.8,0.2,1.4h0.1c0.1-0.5,0.1-1,0.3-1.4l2.2-7.3h4.5l-5,13.5
		c-0.6,1.7-1.4,2.9-2.4,3.6s-2.2,1.1-3.7,1.1c-0.6,0-1.2-0.1-1.8-0.2V33c0.4,0.1,0.8,0.1,1.4,0.1c0.4,0,0.7-0.1,1-0.2
		s0.5-0.4,0.8-0.6c0.2-0.3,0.4-0.7,0.7-1.3L462.3,18.4z"/>
	<path class="st0" d="M489.2,27.8c0.6,0,1.3-0.1,2.1-0.4v3.2c-0.6,0.3-1.2,0.4-1.7,0.5c-0.5,0.1-1.2,0.2-1.9,0.2
		c-1.5,0-2.5-0.4-3.2-1.1c-0.7-0.7-1-1.8-1-3.3v-5.2h-1.5v-1.8l2-1.4l1.1-2.7h2.9v2.5h3.1v3.3H488v5C488,27.4,488.4,27.8,489.2,27.8
		z"/>
	<path class="st0" d="M505.3,24.7c0,2.1-0.6,3.7-1.7,4.9c-1.1,1.2-2.7,1.7-4.7,1.7c-1.9,0-3.5-0.6-4.6-1.8s-1.7-2.8-1.7-4.8
		c0-2.1,0.6-3.7,1.7-4.8c1.1-1.1,2.7-1.7,4.7-1.7c1.3,0,2.4,0.3,3.3,0.8s1.7,1.3,2.2,2.3C505,22.2,505.3,23.4,505.3,24.7z M497,24.7
		c0,1.1,0.1,1.9,0.4,2.5c0.3,0.6,0.8,0.9,1.5,0.9c0.7,0,1.2-0.3,1.4-0.9c0.3-0.6,0.4-1.4,0.4-2.5c0-1.1-0.1-1.9-0.4-2.5
		c-0.3-0.6-0.8-0.8-1.5-0.8c-0.7,0-1.2,0.3-1.4,0.8C497.2,22.8,497,23.6,497,24.7z"/>
</g>
<g>
	<path class="st0" d="M254.2,58.3c-0.6,0-1.2-0.1-1.7-0.3c-0.5-0.2-1-0.6-1.5-1.2h-0.2c0.1,0.9,0.2,1.4,0.2,1.7v5.1h-4.4V45.4h3.6
		l0.6,1.6h0.2c0.8-1.2,1.9-1.8,3.4-1.8c1.4,0,2.5,0.6,3.3,1.8c0.8,1.2,1.2,2.8,1.2,4.8c0,2.1-0.4,3.7-1.3,4.8
		C256.7,57.7,255.6,58.3,254.2,58.3z M252.7,48.6c-0.6,0-1.1,0.2-1.4,0.7c-0.3,0.5-0.4,1.1-0.4,2v0.3c0,1.1,0.1,1.9,0.4,2.4
		s0.8,0.7,1.4,0.7c0.6,0,1-0.2,1.2-0.7c0.3-0.5,0.4-1.3,0.4-2.4c0-1.1-0.1-1.9-0.4-2.4S253.3,48.6,252.7,48.6z"/>
	<path class="st0" d="M268.5,45.1c0.4,0,0.7,0,1.1,0.1l0.2,0l-0.4,4.1c-0.4-0.1-0.9-0.1-1.5-0.1c-1,0-1.7,0.2-2.1,0.7
		c-0.4,0.4-0.7,1.1-0.7,1.9v6.3h-4.4V45.4h3.3l0.7,2h0.2c0.4-0.7,0.9-1.2,1.5-1.6C267.2,45.4,267.9,45.1,268.5,45.1z"/>
	<path class="st0" d="M283.3,51.7c0,2.1-0.6,3.7-1.7,4.9c-1.1,1.2-2.7,1.7-4.7,1.7c-1.9,0-3.5-0.6-4.6-1.8c-1.1-1.2-1.7-2.8-1.7-4.8
		c0-2.1,0.6-3.7,1.7-4.8c1.1-1.1,2.7-1.7,4.7-1.7c1.3,0,2.4,0.3,3.3,0.8c1,0.5,1.7,1.3,2.2,2.3C283.1,49.2,283.3,50.4,283.3,51.7z
		 M275.1,51.7c0,1.1,0.1,1.9,0.4,2.5c0.3,0.6,0.8,0.9,1.5,0.9c0.7,0,1.2-0.3,1.4-0.9c0.3-0.6,0.4-1.4,0.4-2.5c0-1.1-0.1-1.9-0.4-2.5
		s-0.8-0.8-1.5-0.8c-0.7,0-1.2,0.3-1.4,0.8C275.2,49.8,275.1,50.6,275.1,51.7z"/>
	<path class="st0" d="M291.6,54.8c0.6,0,1.3-0.1,2.1-0.4v3.2c-0.6,0.3-1.2,0.4-1.7,0.5c-0.5,0.1-1.2,0.2-1.9,0.2
		c-1.5,0-2.5-0.4-3.2-1.1s-1-1.8-1-3.3v-5.2h-1.5v-1.8l2-1.4l1.1-2.7h2.9v2.5h3.1v3.3h-3.1v5C290.4,54.4,290.8,54.8,291.6,54.8z"/>
	<path class="st0" d="M301.7,58.3c-2.1,0-3.8-0.6-4.9-1.7c-1.2-1.1-1.8-2.7-1.8-4.8c0-2.1,0.5-3.8,1.6-4.9c1.1-1.1,2.6-1.7,4.6-1.7
		c1.9,0,3.4,0.5,4.4,1.5c1,1,1.6,2.4,1.6,4.3v2h-7.9c0,0.7,0.3,1.3,0.8,1.7c0.5,0.4,1.2,0.6,2,0.6c0.8,0,1.5-0.1,2.1-0.2
		c0.6-0.1,1.3-0.4,2.1-0.7v3.2c-0.7,0.4-1.4,0.6-2.1,0.7S302.7,58.3,301.7,58.3z M301.4,48.1c-0.5,0-0.9,0.2-1.3,0.5
		c-0.3,0.3-0.6,0.8-0.6,1.5h3.8c0-0.6-0.2-1.1-0.5-1.5C302.4,48.3,302,48.1,301.4,48.1z"/>
	<path class="st0" d="M315.1,58.3c-2.1,0-3.7-0.6-4.7-1.7c-1.1-1.1-1.6-2.7-1.6-4.8c0-2.1,0.6-3.7,1.7-4.9c1.2-1.2,2.8-1.7,5-1.7
		c1.5,0,2.9,0.3,4.2,1l-1.3,3.2c-0.5-0.2-1-0.4-1.5-0.6s-0.9-0.2-1.4-0.2c-0.7,0-1.3,0.3-1.7,0.8s-0.6,1.3-0.6,2.3
		c0,2,0.8,3.1,2.3,3.1c1.3,0,2.5-0.4,3.7-1.1v3.5C318,57.9,316.7,58.3,315.1,58.3z"/>
	<path class="st0" d="M327.4,54.8c0.6,0,1.3-0.1,2.1-0.4v3.2c-0.6,0.3-1.2,0.4-1.7,0.5c-0.5,0.1-1.2,0.2-1.9,0.2
		c-1.5,0-2.5-0.4-3.2-1.1s-1-1.8-1-3.3v-5.2h-1.5v-1.8l2-1.4l1.1-2.7h2.9v2.5h3.1v3.3h-3.1v5C326.3,54.4,326.7,54.8,327.4,54.8z"/>
	<path class="st0" d="M349,51.7c0,2.1-0.6,3.7-1.7,4.9c-1.1,1.2-2.7,1.7-4.7,1.7c-1.9,0-3.5-0.6-4.6-1.8c-1.1-1.2-1.7-2.8-1.7-4.8
		c0-2.1,0.6-3.7,1.7-4.8c1.1-1.1,2.7-1.7,4.7-1.7c1.3,0,2.4,0.3,3.3,0.8c1,0.5,1.7,1.3,2.2,2.3C348.8,49.2,349,50.4,349,51.7z
		 M340.8,51.7c0,1.1,0.1,1.9,0.4,2.5c0.3,0.6,0.8,0.9,1.5,0.9c0.7,0,1.2-0.3,1.4-0.9c0.3-0.6,0.4-1.4,0.4-2.5c0-1.1-0.1-1.9-0.4-2.5
		s-0.8-0.8-1.5-0.8c-0.7,0-1.2,0.3-1.4,0.8C340.9,49.8,340.8,50.6,340.8,51.7z"/>
	<path class="st0" d="M360.2,58.1l-0.6-1.6h-0.3c-0.4,0.6-0.9,1-1.5,1.3c-0.7,0.3-1.4,0.5-2.3,0.5c-1.4,0-2.5-0.4-3.3-1.2
		s-1.2-2-1.2-3.4v-8.3h4.4v7c0,0.8,0.1,1.5,0.4,1.9c0.2,0.4,0.6,0.6,1.2,0.6c0.8,0,1.3-0.3,1.6-0.9c0.3-0.6,0.5-1.6,0.5-3v-5.6h4.4
		v12.7H360.2z"/>
	<path class="st0" d="M373.7,45.1c0.4,0,0.7,0,1.1,0.1l0.2,0l-0.4,4.1c-0.4-0.1-0.9-0.1-1.5-0.1c-1,0-1.7,0.2-2.1,0.7
		c-0.4,0.4-0.7,1.1-0.7,1.9v6.3h-4.4V45.4h3.3l0.7,2h0.2c0.4-0.7,0.9-1.2,1.5-1.6C372.4,45.4,373.1,45.1,373.7,45.1z"/>
	<path class="st0" d="M389.9,58.1v-6.9c0-1.7-0.5-2.6-1.5-2.6c-0.7,0-1.2,0.3-1.6,0.9s-0.5,1.6-0.5,3v5.6h-4.4V40.6h4.4v2.5
		c0,1.1-0.1,2.4-0.2,3.8h0.2c0.4-0.7,0.9-1.1,1.5-1.4c0.6-0.3,1.2-0.4,2-0.4c1.4,0,2.5,0.4,3.3,1.2c0.8,0.8,1.2,2,1.2,3.4v8.3H389.9
		z"/>
	<path class="st0" d="M409.1,51.7c0,2.1-0.6,3.7-1.7,4.9s-2.7,1.7-4.7,1.7c-1.9,0-3.5-0.6-4.6-1.8c-1.1-1.2-1.7-2.8-1.7-4.8
		c0-2.1,0.6-3.7,1.7-4.8c1.1-1.1,2.7-1.7,4.7-1.7c1.3,0,2.4,0.3,3.3,0.8c1,0.5,1.7,1.3,2.2,2.3C408.8,49.2,409.1,50.4,409.1,51.7z
		 M400.8,51.7c0,1.1,0.1,1.9,0.4,2.5c0.3,0.6,0.8,0.9,1.5,0.9c0.7,0,1.2-0.3,1.4-0.9c0.3-0.6,0.4-1.4,0.4-2.5c0-1.1-0.1-1.9-0.4-2.5
		c-0.3-0.6-0.8-0.8-1.5-0.8c-0.7,0-1.2,0.3-1.4,0.8C401,49.8,400.8,50.6,400.8,51.7z"/>
	<path class="st0" d="M426.7,58.1v-6.9c0-0.9-0.1-1.5-0.4-1.9c-0.2-0.4-0.6-0.6-1.1-0.6c-0.7,0-1.2,0.3-1.5,0.9
		c-0.3,0.6-0.5,1.5-0.5,2.7v5.9h-4.4v-6.9c0-0.9-0.1-1.5-0.3-1.9c-0.2-0.4-0.6-0.6-1.1-0.6c-0.7,0-1.2,0.3-1.5,0.9s-0.5,1.6-0.5,3
		v5.6h-4.4V45.4h3.3l0.5,1.6h0.3c0.3-0.6,0.8-1,1.5-1.3c0.6-0.3,1.4-0.5,2.2-0.5c1.8,0,3.1,0.6,3.9,1.7h0.3c0.4-0.5,0.9-0.9,1.5-1.2
		c0.6-0.3,1.3-0.4,2.1-0.4c1.5,0,2.6,0.4,3.3,1.2c0.7,0.8,1.1,1.9,1.1,3.5v8.3H426.7z"/>
	<path class="st0" d="M439.8,58.3c-2.1,0-3.8-0.6-4.9-1.7c-1.2-1.1-1.8-2.7-1.8-4.8c0-2.1,0.5-3.8,1.6-4.9c1.1-1.1,2.6-1.7,4.7-1.7
		c1.9,0,3.4,0.5,4.4,1.5c1,1,1.6,2.4,1.6,4.3v2h-7.8c0,0.7,0.3,1.3,0.8,1.7s1.2,0.6,2,0.6c0.8,0,1.5-0.1,2.1-0.2
		c0.6-0.1,1.3-0.4,2.1-0.7v3.2c-0.7,0.4-1.4,0.6-2.1,0.7S440.8,58.3,439.8,58.3z M439.5,48.1c-0.5,0-0.9,0.2-1.3,0.5
		c-0.3,0.3-0.6,0.8-0.6,1.5h3.8c0-0.6-0.2-1.1-0.5-1.5S440.1,48.1,439.5,48.1z"/>
	<path class="st0" d="M451.8,58.1h-4.4V40.6h4.4V58.1z"/>
	<path class="st0" d="M462.7,58.1l-0.8-1.7h-0.1c-0.6,0.7-1.2,1.2-1.8,1.5s-1.4,0.4-2.4,0.4c-1.2,0-2.1-0.4-2.8-1.1s-1-1.7-1-3
		c0-1.4,0.5-2.4,1.4-3c0.9-0.7,2.3-1,4.1-1.1l2.1-0.1v-0.2c0-1-0.5-1.6-1.5-1.6c-0.9,0-2.1,0.3-3.5,0.9l-1.3-2.9
		c1.5-0.8,3.4-1.1,5.6-1.1c1.6,0,2.9,0.4,3.8,1.2c0.9,0.8,1.3,1.9,1.3,3.4v8.3H462.7z M459.4,55.2c0.5,0,1-0.2,1.4-0.5
		c0.4-0.3,0.6-0.8,0.6-1.3v-1l-1,0c-1.4,0.1-2.2,0.6-2.2,1.6C458.2,54.8,458.6,55.2,459.4,55.2z"/>
	<path class="st0" d="M476.3,58.1v-6.9c0-0.8-0.1-1.5-0.4-1.9c-0.2-0.4-0.6-0.6-1.2-0.6c-0.7,0-1.3,0.3-1.6,0.9
		c-0.3,0.6-0.5,1.6-0.5,3v5.6h-4.4V45.4h3.3l0.5,1.6h0.3c0.4-0.6,0.9-1,1.6-1.3c0.7-0.3,1.4-0.4,2.3-0.4c1.4,0,2.5,0.4,3.3,1.2
		c0.8,0.8,1.2,2,1.2,3.4v8.3H476.3z"/>
	<path class="st0" d="M487.2,58.3c-0.9,0-1.7-0.3-2.4-0.8c-0.7-0.5-1.2-1.3-1.6-2.3c-0.4-1-0.6-2.2-0.6-3.5c0-2.1,0.4-3.7,1.2-4.9
		c0.8-1.2,2-1.8,3.4-1.8c0.7,0,1.3,0.1,1.9,0.4s1,0.8,1.5,1.4h0.1c-0.1-1-0.2-2-0.2-3v-3.4h4.4v17.5h-3.3l-0.9-1.6h-0.2
		C489.8,57.7,488.7,58.3,487.2,58.3z M489,54.8c0.7,0,1.2-0.2,1.5-0.7s0.4-1.1,0.5-2v-0.3c0-1.1-0.2-1.9-0.5-2.4s-0.8-0.7-1.5-0.7
		c-0.6,0-1,0.3-1.3,0.8c-0.3,0.5-0.5,1.3-0.5,2.3c0,1,0.2,1.7,0.5,2.3S488.4,54.8,489,54.8z"/>
	<path class="st0" d="M497,56.2c0-0.7,0.2-1.2,0.6-1.6s1-0.6,1.8-0.6c0.7,0,1.3,0.2,1.7,0.6c0.4,0.4,0.6,0.9,0.6,1.6
		c0,0.7-0.2,1.2-0.6,1.6s-1,0.6-1.7,0.6c-0.7,0-1.3-0.2-1.8-0.6C497.2,57.4,497,56.9,497,56.2z"/>
</g>
</svg>
