<?xml version="1.0" encoding="utf-8"?>
<!-- Generator: Adobe Illustrator 22.1.0, SVG Export Plug-In . SVG Version: 6.00 Build 0)  -->
<svg version="1.1" id="Layer_1" xmlns="http://www.w3.org/2000/svg" xmlns:xlink="http://www.w3.org/1999/xlink" x="0px" y="0px"
	 viewBox="0 0 728 90" style="enable-background:new 0 0 728 90;" xml:space="preserve">
<style type="text/css">
	.st0{fill:#FFFFFF;}
</style>
<g>
	<path class="st0" d="M241.2,30.3h-4.3v-6.4H232v6.4h-4.3V14.6h4.3v5.8h4.9v-5.8h4.3V30.3z"/>
	<path class="st0" d="M255.5,24.2c0,2-0.5,3.5-1.6,4.7c-1.1,1.1-2.6,1.7-4.5,1.7c-1.8,0-3.3-0.6-4.4-1.7c-1.1-1.1-1.6-2.7-1.6-4.6
		c0-2,0.5-3.5,1.6-4.6c1.1-1.1,2.6-1.6,4.5-1.6c1.2,0,2.3,0.3,3.2,0.8c0.9,0.5,1.6,1.2,2.1,2.2C255.2,21.8,255.5,23,255.5,24.2z
		 M247.6,24.2c0,1,0.1,1.8,0.4,2.4s0.7,0.8,1.4,0.8c0.7,0,1.1-0.3,1.4-0.8s0.4-1.3,0.4-2.4c0-1-0.1-1.8-0.4-2.4
		c-0.3-0.5-0.7-0.8-1.4-0.8c-0.6,0-1.1,0.3-1.4,0.8S247.6,23.2,247.6,24.2z"/>
	<path class="st0" d="M265.1,30.3v-6.6c0-0.8-0.1-1.4-0.3-1.8c-0.2-0.4-0.6-0.6-1.1-0.6c-0.7,0-1.2,0.3-1.5,0.8
		c-0.3,0.6-0.5,1.5-0.5,2.9v5.3h-4.2V18.2h3.2l0.5,1.5h0.2c0.4-0.6,0.9-1,1.5-1.3c0.6-0.3,1.4-0.4,2.2-0.4c1.3,0,2.4,0.4,3.1,1.2
		c0.7,0.8,1.1,1.9,1.1,3.3v7.9H265.1z"/>
	<path class="st0" d="M283.4,24.2c0,2-0.5,3.5-1.6,4.7c-1.1,1.1-2.6,1.7-4.5,1.7c-1.8,0-3.3-0.6-4.4-1.7c-1.1-1.1-1.6-2.7-1.6-4.6
		c0-2,0.5-3.5,1.6-4.6c1.1-1.1,2.6-1.6,4.5-1.6c1.2,0,2.3,0.3,3.2,0.8c0.9,0.5,1.6,1.2,2.1,2.2C283.1,21.8,283.4,23,283.4,24.2z
		 M275.5,24.2c0,1,0.1,1.8,0.4,2.4s0.7,0.8,1.4,0.8c0.7,0,1.1-0.3,1.4-0.8s0.4-1.3,0.4-2.4c0-1-0.1-1.8-0.4-2.4
		c-0.3-0.5-0.7-0.8-1.4-0.8c-0.6,0-1.1,0.3-1.4,0.8S275.5,23.2,275.5,24.2z"/>
	<path class="st0" d="M292.7,17.9c0.4,0,0.7,0,1,0.1l0.2,0l-0.4,4c-0.3-0.1-0.8-0.1-1.4-0.1c-0.9,0-1.6,0.2-2,0.6
		c-0.4,0.4-0.6,1-0.6,1.8v6h-4.2V18.2h3.1l0.7,1.9h0.2c0.4-0.6,0.8-1.2,1.5-1.6C291.4,18.1,292.1,17.9,292.7,17.9z"/>
	<path class="st0" d="M295.1,15.1c0-0.6,0.2-1.1,0.5-1.4c0.4-0.3,0.9-0.5,1.7-0.5c0.8,0,1.3,0.2,1.7,0.5c0.4,0.3,0.5,0.8,0.5,1.4
		c0,1.2-0.7,1.8-2.2,1.8C295.9,17,295.1,16.4,295.1,15.1z M299.4,30.3h-4.2V18.2h4.2V30.3z"/>
	<path class="st0" d="M309.6,30.3v-6.6c0-0.8-0.1-1.4-0.3-1.8c-0.2-0.4-0.6-0.6-1.1-0.6c-0.7,0-1.2,0.3-1.5,0.8
		c-0.3,0.6-0.5,1.5-0.5,2.9v5.3h-4.2V18.2h3.2l0.5,1.5h0.2c0.4-0.6,0.9-1,1.5-1.3c0.6-0.3,1.4-0.4,2.2-0.4c1.3,0,2.4,0.4,3.1,1.2
		c0.7,0.8,1.1,1.9,1.1,3.3v7.9H309.6z"/>
	<path class="st0" d="M327.7,18.2v2l-1.7,0.6c0.2,0.4,0.3,0.9,0.3,1.5c0,1.3-0.5,2.3-1.4,3.1c-0.9,0.7-2.3,1.1-4.1,1.1
		c-0.5,0-0.8,0-1.1-0.1c-0.1,0.2-0.2,0.4-0.2,0.5c0,0.2,0.2,0.4,0.5,0.5c0.3,0.1,0.8,0.2,1.3,0.2h2c2.7,0,4.1,1.1,4.1,3.4
		c0,1.5-0.6,2.6-1.9,3.5c-1.3,0.8-3,1.2-5.3,1.2c-1.7,0-3.1-0.3-4-0.9c-0.9-0.6-1.4-1.4-1.4-2.5c0-1.5,0.9-2.4,2.7-2.8
		c-0.4-0.2-0.7-0.4-1-0.8c-0.3-0.4-0.4-0.7-0.4-1c0-0.4,0.1-0.7,0.3-1c0.2-0.3,0.6-0.6,1.3-1c-0.6-0.3-1.1-0.7-1.5-1.3
		c-0.4-0.6-0.5-1.3-0.5-2.2c0-1.3,0.5-2.4,1.4-3.1s2.2-1.1,3.9-1.1c0.2,0,0.6,0,1.1,0.1c0.5,0.1,0.9,0.1,1.2,0.1H327.7z M318.6,31.8
		c0,0.3,0.2,0.6,0.6,0.8c0.4,0.2,0.9,0.3,1.5,0.3c1,0,1.8-0.1,2.4-0.4c0.6-0.3,0.9-0.6,0.9-1c0-0.3-0.2-0.5-0.6-0.7
		c-0.4-0.1-0.9-0.2-1.6-0.2h-1.6c-0.5,0-0.8,0.1-1.1,0.3C318.7,31.3,318.6,31.5,318.6,31.8z M319.9,22.1c0,1.2,0.4,1.9,1.3,1.9
		c0.4,0,0.7-0.2,0.9-0.5c0.2-0.3,0.3-0.8,0.3-1.4c0-1.3-0.4-1.9-1.3-1.9C320.3,20.3,319.9,20.9,319.9,22.1z"/>
	<path class="st0" d="M340.4,27.2c0.6,0,1.2-0.1,2-0.4v3.1c-0.6,0.2-1.1,0.4-1.6,0.5c-0.5,0.1-1.1,0.2-1.8,0.2c-1.4,0-2.4-0.3-3.1-1
		c-0.6-0.7-0.9-1.8-0.9-3.2v-5h-1.5v-1.7l1.9-1.3l1.1-2.6h2.8v2.4h3v3.1h-3V26C339.3,26.8,339.7,27.2,340.4,27.2z"/>
	<path class="st0" d="M351.8,30.3v-6.6c0-1.6-0.5-2.4-1.5-2.4c-0.7,0-1.2,0.3-1.5,0.9c-0.3,0.6-0.5,1.5-0.5,2.9v5.3h-4.2V13.6h4.2
		V16c0,1.1-0.1,2.3-0.2,3.7h0.2c0.4-0.6,0.9-1.1,1.4-1.3c0.6-0.3,1.2-0.4,1.9-0.4c1.4,0,2.4,0.4,3.2,1.2c0.8,0.8,1.1,1.9,1.1,3.3
		v7.9H351.8z"/>
	<path class="st0" d="M364.4,30.5c-2,0-3.6-0.5-4.7-1.6c-1.1-1.1-1.7-2.6-1.7-4.6c0-2.1,0.5-3.6,1.6-4.7c1-1.1,2.5-1.6,4.4-1.6
		c1.8,0,3.2,0.5,4.2,1.4c1,1,1.5,2.3,1.5,4.1v1.9h-7.5c0,0.7,0.3,1.2,0.7,1.6c0.5,0.4,1.1,0.6,1.9,0.6c0.7,0,1.4-0.1,2-0.2
		c0.6-0.1,1.3-0.4,2-0.7v3c-0.7,0.3-1.3,0.6-2,0.7S365.3,30.5,364.4,30.5z M364.1,20.8c-0.5,0-0.9,0.2-1.2,0.5s-0.5,0.8-0.6,1.5h3.6
		c0-0.6-0.2-1.1-0.5-1.4C365.1,21,364.7,20.8,364.1,20.8z"/>
	<path class="st0" d="M384.4,17.9c1.3,0,2.4,0.6,3.2,1.7c0.8,1.1,1.2,2.6,1.2,4.6c0,2-0.4,3.5-1.2,4.6c-0.8,1.1-1.9,1.7-3.3,1.7
		c-0.5,0-0.9,0-1.2-0.1s-0.7-0.2-0.9-0.4c-0.3-0.2-0.6-0.5-1-0.9h-0.3l-0.7,1.2h-3.3V13.6h4.2v3.8c0,0.5,0,1.2-0.2,2.3h0.2
		c0.4-0.6,0.9-1.1,1.4-1.4C383.1,18.1,383.7,17.9,384.4,17.9z M382.8,21.2c-0.6,0-1,0.2-1.3,0.6s-0.4,1-0.4,1.9v0.6
		c0,1,0.1,1.7,0.4,2.1c0.3,0.4,0.7,0.6,1.3,0.6c0.5,0,0.9-0.3,1.1-0.8s0.4-1.2,0.4-2.2C384.4,22.2,383.9,21.2,382.8,21.2z"/>
	<path class="st0" d="M390.6,15.1c0-0.6,0.2-1.1,0.5-1.4c0.4-0.3,0.9-0.5,1.7-0.5s1.3,0.2,1.7,0.5c0.4,0.3,0.5,0.8,0.5,1.4
		c0,1.2-0.7,1.8-2.2,1.8C391.3,17,390.6,16.4,390.6,15.1z M394.9,30.3h-4.2V18.2h4.2V30.3z"/>
	<path class="st0" d="M404.7,17.9c0.4,0,0.7,0,1,0.1l0.2,0l-0.4,4c-0.3-0.1-0.8-0.1-1.4-0.1c-0.9,0-1.6,0.2-2,0.6s-0.6,1-0.6,1.8v6
		h-4.2V18.2h3.1l0.7,1.9h0.2c0.4-0.6,0.8-1.2,1.5-1.6C403.4,18.1,404.1,17.9,404.7,17.9z"/>
	<path class="st0" d="M413.2,27.2c0.6,0,1.2-0.1,2-0.4v3.1c-0.6,0.2-1.1,0.4-1.6,0.5c-0.5,0.1-1.1,0.2-1.8,0.2c-1.4,0-2.4-0.3-3.1-1
		c-0.6-0.7-0.9-1.8-0.9-3.2v-5h-1.5v-1.7l1.9-1.3l1.1-2.6h2.8v2.4h3v3.1h-3V26C412.1,26.8,412.5,27.2,413.2,27.2z"/>
	<path class="st0" d="M424.6,30.3v-6.6c0-1.6-0.5-2.4-1.5-2.4c-0.7,0-1.2,0.3-1.5,0.9c-0.3,0.6-0.5,1.5-0.5,2.9v5.3H417V13.6h4.2V16
		c0,1.1-0.1,2.3-0.2,3.7h0.2c0.4-0.6,0.9-1.1,1.4-1.3s1.2-0.4,1.9-0.4c1.4,0,2.4,0.4,3.2,1.2c0.8,0.8,1.1,1.9,1.1,3.3v7.9H424.6z"/>
	<path class="st0" d="M448.2,24.2c0,2-0.5,3.5-1.6,4.7c-1.1,1.1-2.6,1.7-4.5,1.7c-1.8,0-3.3-0.6-4.4-1.7c-1.1-1.1-1.6-2.7-1.6-4.6
		c0-2,0.5-3.5,1.6-4.6c1.1-1.1,2.6-1.6,4.5-1.6c1.2,0,2.3,0.3,3.2,0.8c0.9,0.5,1.6,1.2,2.1,2.2C447.9,21.8,448.2,23,448.2,24.2z
		 M440.3,24.2c0,1,0.1,1.8,0.4,2.4s0.7,0.8,1.4,0.8c0.7,0,1.1-0.3,1.4-0.8c0.3-0.5,0.4-1.3,0.4-2.4c0-1-0.1-1.8-0.4-2.4
		c-0.3-0.5-0.7-0.8-1.4-0.8c-0.6,0-1.1,0.3-1.4,0.8S440.3,23.2,440.3,24.2z"/>
	<path class="st0" d="M457.6,21.3H455v9h-4.2v-9h-1.6v-2.1l1.7-1V18c0-1.6,0.3-2.8,1-3.5c0.7-0.7,1.7-1.1,3.2-1.1
		c0.6,0,1.1,0,1.6,0.1c0.5,0.1,1.1,0.2,1.7,0.5l-0.9,2.7c-0.5-0.1-1-0.2-1.5-0.2c-0.3,0-0.6,0.1-0.7,0.3c-0.1,0.2-0.2,0.5-0.2,1v0.3
		h2.6V21.3z"/>
	<path class="st0" d="M470.1,27.2c0.6,0,1.2-0.1,2-0.4v3.1c-0.6,0.2-1.1,0.4-1.6,0.5c-0.5,0.1-1.1,0.2-1.8,0.2c-1.4,0-2.4-0.3-3.1-1
		c-0.6-0.7-0.9-1.8-0.9-3.2v-5h-1.5v-1.7l1.9-1.3l1.1-2.6h2.8v2.4h3v3.1h-3V26C468.9,26.8,469.3,27.2,470.1,27.2z"/>
	<path class="st0" d="M481.5,30.3v-6.6c0-1.6-0.5-2.4-1.5-2.4c-0.7,0-1.2,0.3-1.5,0.9c-0.3,0.6-0.5,1.5-0.5,2.9v5.3h-4.2V13.6h4.2
		V16c0,1.1-0.1,2.3-0.2,3.7h0.2c0.4-0.6,0.9-1.1,1.4-1.3s1.2-0.4,1.9-0.4c1.4,0,2.4,0.4,3.2,1.2c0.8,0.8,1.1,1.9,1.1,3.3v7.9H481.5z
		"/>
	<path class="st0" d="M494,30.5c-2,0-3.6-0.5-4.7-1.6c-1.1-1.1-1.7-2.6-1.7-4.6c0-2.1,0.5-3.6,1.6-4.7c1-1.1,2.5-1.6,4.4-1.6
		c1.8,0,3.2,0.5,4.2,1.4c1,1,1.5,2.3,1.5,4.1v1.9h-7.5c0,0.7,0.3,1.2,0.7,1.6c0.5,0.4,1.1,0.6,1.9,0.6c0.7,0,1.4-0.1,2-0.2
		c0.6-0.1,1.3-0.4,2-0.7v3c-0.7,0.3-1.3,0.6-2,0.7S495,30.5,494,30.5z M493.7,20.8c-0.5,0-0.9,0.2-1.2,0.5c-0.3,0.3-0.5,0.8-0.6,1.5
		h3.6c0-0.6-0.2-1.1-0.5-1.4C494.7,21,494.3,20.8,493.7,20.8z"/>
	<path class="st0" d="M520.2,14.6v9.5c0,2.1-0.6,3.6-1.7,4.8c-1.2,1.1-2.8,1.7-5,1.7c-2.1,0-3.8-0.5-4.9-1.6
		c-1.2-1.1-1.7-2.7-1.7-4.7v-9.5h4.3v9.2c0,1.1,0.2,1.9,0.6,2.4c0.4,0.5,1,0.8,1.8,0.8c0.9,0,1.5-0.2,1.9-0.7
		c0.4-0.5,0.6-1.3,0.6-2.4v-9.2H520.2z"/>
	<path class="st0" d="M522.3,28.5c0-0.7,0.2-1.2,0.6-1.5c0.4-0.4,1-0.5,1.7-0.5c0.7,0,1.3,0.2,1.6,0.5c0.4,0.4,0.6,0.9,0.6,1.5
		c0,0.6-0.2,1.1-0.6,1.5c-0.4,0.4-0.9,0.5-1.6,0.5c-0.7,0-1.3-0.2-1.7-0.5S522.3,29.2,522.3,28.5z"/>
	<path class="st0" d="M539.2,25.6c0,1-0.2,1.8-0.7,2.6c-0.5,0.8-1.2,1.3-2.1,1.8s-2,0.6-3.3,0.6c-1,0-1.9-0.1-2.6-0.2
		s-1.4-0.4-2.2-0.8v-3.8c0.8,0.4,1.7,0.7,2.5,1c0.9,0.2,1.7,0.3,2.4,0.3c0.6,0,1.1-0.1,1.4-0.3c0.3-0.2,0.4-0.5,0.4-0.8
		c0-0.2-0.1-0.4-0.2-0.6c-0.1-0.2-0.3-0.3-0.6-0.5c-0.3-0.2-1-0.5-2.1-1c-1-0.5-1.8-0.9-2.3-1.4c-0.5-0.4-0.9-0.9-1.1-1.5
		c-0.2-0.6-0.4-1.2-0.4-2c0-1.4,0.5-2.6,1.6-3.4c1.1-0.8,2.5-1.2,4.3-1.2c1.6,0,3.3,0.4,5,1.1l-1.3,3.3c-1.5-0.7-2.7-1-3.8-1
		c-0.6,0-1,0.1-1.2,0.3s-0.4,0.4-0.4,0.7c0,0.3,0.2,0.6,0.5,0.8c0.3,0.2,1.2,0.7,2.6,1.3c1.4,0.6,2.3,1.3,2.8,2
		C539,23.6,539.2,24.5,539.2,25.6z"/>
	<path class="st0" d="M540.5,28.5c0-0.7,0.2-1.2,0.6-1.5c0.4-0.4,1-0.5,1.7-0.5c0.7,0,1.3,0.2,1.6,0.5c0.4,0.4,0.6,0.9,0.6,1.5
		c0,0.6-0.2,1.1-0.6,1.5c-0.4,0.4-0.9,0.5-1.6,0.5c-0.7,0-1.3-0.2-1.7-0.5S540.5,29.2,540.5,28.5z"/>
	<path class="st0" d="M562.1,30.3l-0.8-2.9h-5.1l-0.8,2.9h-4.7l5.1-15.8h5.7l5.2,15.8H562.1z M560.4,23.9l-0.7-2.6
		c-0.2-0.6-0.3-1.3-0.6-2.2c-0.2-0.9-0.4-1.6-0.4-2c-0.1,0.4-0.2,1-0.4,1.8c-0.2,0.8-0.6,2.5-1.3,5H560.4z"/>
	<path class="st0" d="M575.1,17.9c0.4,0,0.7,0,1,0.1l0.2,0l-0.4,4c-0.3-0.1-0.8-0.1-1.4-0.1c-0.9,0-1.6,0.2-2,0.6s-0.6,1-0.6,1.8v6
		h-4.2V18.2h3.1l0.7,1.9h0.2c0.4-0.6,0.8-1.2,1.5-1.6C573.8,18.1,574.4,17.9,575.1,17.9z"/>
	<path class="st0" d="M592.6,30.3v-6.6c0-0.8-0.1-1.4-0.3-1.9c-0.2-0.4-0.6-0.6-1.1-0.6c-0.6,0-1.1,0.3-1.4,0.8
		c-0.3,0.6-0.5,1.4-0.5,2.6v5.7h-4.2v-6.6c0-0.8-0.1-1.4-0.3-1.9c-0.2-0.4-0.6-0.6-1-0.6c-0.7,0-1.1,0.3-1.4,0.9
		c-0.3,0.6-0.5,1.5-0.5,2.9v5.3h-4.2V18.2h3.2l0.5,1.5h0.2c0.3-0.6,0.8-1,1.4-1.3c0.6-0.3,1.3-0.4,2.1-0.4c1.8,0,3,0.5,3.7,1.6h0.3
		c0.3-0.5,0.8-0.9,1.4-1.2c0.6-0.3,1.3-0.4,2-0.4c1.4,0,2.5,0.4,3.2,1.1c0.7,0.7,1,1.9,1,3.4v7.9H592.6z"/>
	<path class="st0" d="M597.7,18.2h4.4l2.1,7c0.1,0.4,0.2,0.8,0.2,1.3h0.1c0.1-0.5,0.1-0.9,0.3-1.3l2.1-7h4.3l-4.8,12.9
		c-0.6,1.6-1.4,2.8-2.3,3.5c-0.9,0.7-2.1,1-3.5,1c-0.6,0-1.1-0.1-1.7-0.2v-3.3c0.4,0.1,0.8,0.1,1.3,0.1c0.4,0,0.7-0.1,1-0.2
		c0.3-0.1,0.5-0.3,0.7-0.6c0.2-0.3,0.4-0.7,0.7-1.3L597.7,18.2z"/>
	<path class="st0" d="M611.6,28.5c0-0.7,0.2-1.2,0.6-1.5c0.4-0.4,1-0.5,1.7-0.5c0.7,0,1.3,0.2,1.6,0.5c0.4,0.4,0.6,0.9,0.6,1.5
		c0,0.6-0.2,1.1-0.6,1.5c-0.4,0.4-0.9,0.5-1.6,0.5c-0.7,0-1.3-0.2-1.7-0.5S611.6,29.2,611.6,28.5z"/>
</g>
<g>
	<path class="st0" d="M237,54.3h-9.3V38.6h9.3V42h-5.1v2.5h4.7v3.4h-4.7v3h5.1V54.3z"/>
	<path class="st0" d="M248.5,50.6c0,1.3-0.4,2.3-1.3,3c-0.9,0.7-2.2,1-3.8,1c-0.9,0-1.7,0-2.4-0.1c-0.7-0.1-1.3-0.3-2-0.5v-3.4
		c0.7,0.3,1.4,0.5,2.1,0.7c0.8,0.2,1.5,0.3,2.1,0.3c0.9,0,1.4-0.2,1.4-0.6c0-0.2-0.1-0.4-0.4-0.6c-0.3-0.2-1-0.5-2.2-1
		c-1.1-0.5-1.9-1-2.3-1.6c-0.4-0.6-0.7-1.3-0.7-2.2c0-1.1,0.4-2,1.3-2.6c0.9-0.6,2.1-0.9,3.7-0.9c0.8,0,1.6,0.1,2.3,0.3
		c0.7,0.2,1.4,0.4,2.2,0.8l-1.1,2.7c-0.6-0.3-1.1-0.5-1.8-0.6s-1.1-0.3-1.5-0.3c-0.7,0-1,0.2-1,0.5c0,0.2,0.1,0.4,0.4,0.5
		c0.2,0.1,0.9,0.4,2.1,0.9c0.9,0.4,1.5,0.7,1.9,1s0.7,0.7,0.9,1.2C248.4,49.4,248.5,49.9,248.5,50.6z"/>
	<path class="st0" d="M256.4,51.2c0.6,0,1.2-0.1,2-0.4v3.1c-0.6,0.2-1.1,0.4-1.6,0.5c-0.5,0.1-1.1,0.2-1.8,0.2c-1.4,0-2.4-0.3-3.1-1
		c-0.6-0.7-0.9-1.8-0.9-3.2v-5h-1.5v-1.7l1.9-1.3l1.1-2.6h2.8v2.4h3v3.1h-3V50C255.2,50.8,255.6,51.2,256.4,51.2z"/>
	<path class="st0" d="M268,54.3l-0.8-1.6h-0.1c-0.6,0.7-1.1,1.2-1.7,1.4c-0.6,0.3-1.3,0.4-2.3,0.4c-1.1,0-2-0.3-2.7-1
		c-0.7-0.7-1-1.7-1-2.9c0-1.3,0.5-2.3,1.4-2.9c0.9-0.6,2.2-1,3.9-1.1l2-0.1v-0.2c0-1-0.5-1.5-1.5-1.5c-0.9,0-2,0.3-3.4,0.9l-1.2-2.8
		c1.4-0.7,3.2-1.1,5.4-1.1c1.6,0,2.8,0.4,3.6,1.2c0.9,0.8,1.3,1.9,1.3,3.2v8H268z M264.9,51.6c0.5,0,0.9-0.2,1.3-0.5
		c0.4-0.3,0.5-0.7,0.5-1.3v-0.9l-1,0c-1.4,0-2.1,0.6-2.1,1.5C263.7,51.2,264.1,51.6,264.9,51.6z"/>
	<path class="st0" d="M280.8,41.9c1.3,0,2.4,0.6,3.2,1.7c0.8,1.1,1.2,2.6,1.2,4.6c0,2-0.4,3.5-1.2,4.6c-0.8,1.1-1.9,1.7-3.3,1.7
		c-0.5,0-0.9,0-1.2-0.1c-0.4-0.1-0.7-0.2-0.9-0.4c-0.3-0.2-0.6-0.5-1-0.9h-0.3l-0.7,1.2h-3.3V37.6h4.2v3.8c0,0.5-0.1,1.2-0.2,2.3
		h0.2c0.4-0.6,0.9-1.1,1.4-1.4C279.5,42.1,280.1,41.9,280.8,41.9z M279.3,45.2c-0.6,0-1,0.2-1.3,0.6c-0.3,0.4-0.4,1-0.4,1.9v0.6
		c0,1,0.1,1.7,0.4,2.1c0.3,0.4,0.7,0.6,1.3,0.6c0.5,0,0.9-0.3,1.1-0.8c0.3-0.5,0.4-1.2,0.4-2.2C280.8,46.2,280.3,45.2,279.3,45.2z"
		/>
	<path class="st0" d="M291.3,54.3h-4.2V37.6h4.2V54.3z"/>
	<path class="st0" d="M293.7,39.1c0-0.6,0.2-1.1,0.5-1.4c0.4-0.3,0.9-0.5,1.7-0.5c0.8,0,1.3,0.2,1.7,0.5c0.4,0.3,0.5,0.8,0.5,1.4
		c0,1.2-0.7,1.8-2.2,1.8C294.4,41,293.7,40.4,293.7,39.1z M298,54.3h-4.2V42.2h4.2V54.3z"/>
	<path class="st0" d="M309.9,50.6c0,1.3-0.4,2.3-1.3,3c-0.9,0.7-2.2,1-3.8,1c-0.9,0-1.7,0-2.4-0.1c-0.7-0.1-1.3-0.3-2-0.5v-3.4
		c0.7,0.3,1.4,0.5,2.1,0.7c0.8,0.2,1.5,0.3,2.1,0.3c0.9,0,1.4-0.2,1.4-0.6c0-0.2-0.1-0.4-0.4-0.6c-0.3-0.2-1-0.5-2.2-1
		c-1.1-0.5-1.9-1-2.3-1.6c-0.4-0.6-0.7-1.3-0.7-2.2c0-1.1,0.4-2,1.3-2.6c0.9-0.6,2.1-0.9,3.7-0.9c0.8,0,1.6,0.1,2.3,0.3
		c0.7,0.2,1.4,0.4,2.2,0.8l-1.1,2.7c-0.6-0.3-1.1-0.5-1.8-0.6s-1.1-0.3-1.5-0.3c-0.7,0-1,0.2-1,0.5c0,0.2,0.1,0.4,0.4,0.5
		c0.2,0.1,0.9,0.4,2.1,0.9c0.9,0.4,1.5,0.7,1.9,1s0.7,0.7,0.9,1.2C309.8,49.4,309.9,49.9,309.9,50.6z"/>
	<path class="st0" d="M319.4,54.3v-6.6c0-1.6-0.5-2.4-1.5-2.4c-0.7,0-1.2,0.3-1.5,0.9c-0.3,0.6-0.5,1.5-0.5,2.9v5.3h-4.2V37.6h4.2
		V40c0,1.1-0.1,2.3-0.2,3.7h0.2c0.4-0.6,0.9-1.1,1.4-1.3c0.6-0.3,1.2-0.4,1.9-0.4c1.4,0,2.4,0.4,3.2,1.2c0.8,0.8,1.1,1.9,1.1,3.3
		v7.9H319.4z"/>
	<path class="st0" d="M331.9,54.5c-2,0-3.6-0.5-4.7-1.6c-1.1-1.1-1.7-2.6-1.7-4.6c0-2.1,0.5-3.6,1.6-4.7c1-1.1,2.5-1.6,4.4-1.6
		c1.8,0,3.2,0.5,4.2,1.4s1.5,2.3,1.5,4.1v1.9h-7.5c0,0.7,0.3,1.2,0.7,1.6c0.5,0.4,1.1,0.6,1.9,0.6c0.7,0,1.4-0.1,2-0.2
		c0.6-0.1,1.3-0.4,2-0.7v3c-0.7,0.3-1.3,0.6-2,0.7C333.8,54.5,332.9,54.5,331.9,54.5z M331.7,44.8c-0.5,0-0.9,0.2-1.2,0.5
		c-0.3,0.3-0.5,0.8-0.6,1.5h3.6c0-0.6-0.2-1.1-0.5-1.4C332.7,45,332.2,44.8,331.7,44.8z"/>
	<path class="st0" d="M343,54.5c-0.9,0-1.6-0.2-2.3-0.7c-0.6-0.5-1.1-1.2-1.5-2.2s-0.5-2.1-0.5-3.4c0-2,0.4-3.5,1.2-4.6
		s1.9-1.7,3.3-1.7c0.7,0,1.3,0.1,1.8,0.4c0.5,0.3,1,0.7,1.4,1.4h0.1c-0.1-1-0.2-1.9-0.2-2.9v-3.3h4.2v16.7h-3.2l-0.9-1.5h-0.2
		C345.5,54,344.4,54.5,343,54.5z M344.7,51.2c0.7,0,1.1-0.2,1.4-0.6c0.3-0.4,0.4-1.1,0.4-2v-0.3c0-1.1-0.2-1.8-0.5-2.3
		c-0.3-0.5-0.8-0.7-1.5-0.7c-0.6,0-1,0.3-1.3,0.8c-0.3,0.5-0.5,1.3-0.5,2.2c0,0.9,0.2,1.7,0.5,2.2C343.7,51,344.2,51.2,344.7,51.2z"
		/>
	<path class="st0" d="M366.9,54.3h-4.3V46c0-1,0-1.9,0.1-2.8c-0.3,0.3-0.6,0.7-1,1l-1.8,1.5l-2.2-2.7l5.4-4.4h3.8V54.3z"/>
	<path class="st0" d="M371.5,54.3l5.4-12.2h-6.8v-3.5h11.3v2.5l-5.5,13.2H371.5z"/>
	<path class="st0" d="M384,54.3l5.4-12.2h-6.8v-3.5h11.3v2.5l-5.5,13.2H384z"/>
	<path class="st0" d="M401.3,44c0.9,0,1.7,0.2,2.4,0.6c0.7,0.4,1.3,1,1.7,1.8c0.4,0.8,0.6,1.7,0.6,2.7c0,1.8-0.5,3.1-1.6,4
		c-1.1,0.9-2.7,1.4-4.8,1.4c-1.8,0-3.3-0.3-4.5-0.8v-3.5c0.6,0.3,1.3,0.5,2.1,0.7c0.8,0.2,1.5,0.3,2,0.3c0.8,0,1.4-0.2,1.8-0.5
		c0.4-0.3,0.6-0.8,0.6-1.5c0-0.6-0.2-1.1-0.6-1.4s-1.1-0.5-2-0.5c-0.7,0-1.4,0.1-2.2,0.4l-1.6-0.8l0.6-8.3h9v3.5h-5.3l-0.2,2.1
		c0.6-0.1,1-0.2,1.2-0.2S401.1,44,401.3,44z"/>
	<path class="st0" d="M407.6,52.6c0-0.7,0.2-1.2,0.6-1.5c0.4-0.4,1-0.5,1.7-0.5c0.7,0,1.3,0.2,1.6,0.5s0.6,0.9,0.6,1.5
		c0,0.6-0.2,1.1-0.6,1.5c-0.4,0.4-0.9,0.5-1.6,0.5c-0.7,0-1.3-0.2-1.7-0.5S407.6,53.2,407.6,52.6z"/>
</g>
</svg>
