<?xml version="1.0" encoding="utf-8"?>
<!-- Generator: Adobe Illustrator 22.1.0, SVG Export Plug-In . SVG Version: 6.00 Build 0)  -->
<svg version="1.1" id="Layer_1" xmlns="http://www.w3.org/2000/svg" xmlns:xlink="http://www.w3.org/1999/xlink" x="0px" y="0px"
	 viewBox="0 0 728 90" style="enable-background:new 0 0 728 90;" xml:space="preserve">
<style type="text/css">
	.st0{fill:#FFFFFF;}
</style>
<g>
	<path class="st0" d="M264.5,33.2h-5.2l-1.6-7.2c-0.1-0.3-0.2-0.9-0.4-1.8c-0.2-0.9-0.3-1.6-0.4-2.2c-0.1,0.5-0.2,1.1-0.3,1.8
		c-0.1,0.7-0.3,1.4-0.4,2c-0.1,0.6-0.7,3.1-1.6,7.4h-5.2l-4.1-16.4h4.3l1.8,8.2c0.4,1.8,0.7,3.3,0.8,4.3c0.1-0.8,0.3-1.8,0.5-3.1
		c0.3-1.3,0.5-2.4,0.7-3.3l1.4-6.2h4.1l1.4,6.2c0.2,1,0.5,2.1,0.7,3.4s0.4,2.3,0.5,2.9c0.1-0.8,0.4-2.3,0.8-4.3l1.8-8.3h4.3
		L264.5,33.2z"/>
	<path class="st0" d="M276.1,33.4c-2.1,0-3.8-0.6-4.9-1.7c-1.2-1.1-1.8-2.7-1.8-4.8c0-2.1,0.5-3.8,1.6-4.9c1.1-1.1,2.6-1.7,4.6-1.7
		c1.9,0,3.4,0.5,4.4,1.5c1,1,1.6,2.4,1.6,4.3v2h-7.9c0,0.7,0.3,1.3,0.8,1.7c0.5,0.4,1.2,0.6,2,0.6c0.8,0,1.5-0.1,2.1-0.2
		c0.6-0.1,1.3-0.4,2.1-0.7v3.2c-0.7,0.4-1.4,0.6-2.1,0.7S277.1,33.4,276.1,33.4z M275.8,23.3c-0.5,0-0.9,0.2-1.3,0.5
		c-0.3,0.3-0.6,0.8-0.6,1.5h3.8c0-0.6-0.2-1.1-0.5-1.5C276.8,23.4,276.4,23.3,275.8,23.3z"/>
	<path class="st0" d="M295,33.4c-2.1,0-3.7-0.6-4.7-1.7c-1.1-1.1-1.6-2.7-1.6-4.8c0-2.1,0.6-3.7,1.7-4.9s2.8-1.7,5-1.7
		c1.5,0,2.9,0.3,4.2,1l-1.3,3.2c-0.5-0.2-1-0.4-1.5-0.6c-0.4-0.1-0.9-0.2-1.4-0.2c-0.7,0-1.3,0.3-1.7,0.8s-0.6,1.3-0.6,2.3
		c0,2,0.8,3.1,2.3,3.1c1.3,0,2.5-0.4,3.7-1.1v3.5C298,33.1,296.6,33.4,295,33.4z"/>
	<path class="st0" d="M309.5,33.2l-0.8-1.7h-0.1c-0.6,0.7-1.2,1.2-1.8,1.5s-1.4,0.4-2.4,0.4c-1.2,0-2.1-0.4-2.8-1.1s-1-1.7-1-3
		c0-1.4,0.5-2.4,1.4-3c0.9-0.7,2.3-1,4.1-1.1l2.1-0.1v-0.2c0-1-0.5-1.6-1.5-1.6c-0.9,0-2.1,0.3-3.5,0.9l-1.3-2.9
		c1.5-0.8,3.4-1.1,5.6-1.1c1.6,0,2.9,0.4,3.8,1.2c0.9,0.8,1.3,1.9,1.3,3.4v8.3H309.5z M306.2,30.3c0.5,0,1-0.2,1.4-0.5
		c0.4-0.3,0.6-0.8,0.6-1.3v-1l-1,0c-1.4,0.1-2.2,0.6-2.2,1.6C305,30,305.4,30.3,306.2,30.3z"/>
	<path class="st0" d="M323.1,33.2v-6.9c0-0.8-0.1-1.5-0.4-1.9c-0.2-0.4-0.6-0.6-1.2-0.6c-0.7,0-1.3,0.3-1.6,0.9s-0.5,1.6-0.5,3v5.6
		h-4.4V20.5h3.3l0.6,1.6h0.3c0.4-0.6,0.9-1,1.6-1.3c0.7-0.3,1.4-0.4,2.3-0.4c1.4,0,2.5,0.4,3.3,1.2c0.8,0.8,1.2,2,1.2,3.4v8.3H323.1
		z"/>
	<path class="st0" d="M343.6,33.2v-6.9c0-1.7-0.5-2.6-1.5-2.6c-0.7,0-1.2,0.3-1.6,0.9c-0.3,0.6-0.5,1.6-0.5,3v5.6h-4.4V15.7h4.4v2.5
		c0,1.1-0.1,2.4-0.2,3.8h0.2c0.4-0.7,0.9-1.1,1.5-1.4s1.2-0.4,2-0.4c1.4,0,2.5,0.4,3.3,1.2c0.8,0.8,1.2,2,1.2,3.4v8.3H343.6z"/>
	<path class="st0" d="M356.7,33.4c-2.1,0-3.8-0.6-4.9-1.7c-1.2-1.1-1.8-2.7-1.8-4.8c0-2.1,0.5-3.8,1.6-4.9c1.1-1.1,2.6-1.7,4.6-1.7
		c1.9,0,3.4,0.5,4.4,1.5c1,1,1.6,2.4,1.6,4.3v2h-7.9c0,0.7,0.3,1.3,0.8,1.7c0.5,0.4,1.2,0.6,2,0.6c0.8,0,1.5-0.1,2.1-0.2
		c0.6-0.1,1.3-0.4,2.1-0.7v3.2c-0.7,0.4-1.4,0.6-2.1,0.7S357.7,33.4,356.7,33.4z M356.4,23.3c-0.5,0-0.9,0.2-1.3,0.5
		c-0.3,0.3-0.6,0.8-0.6,1.5h3.8c0-0.6-0.2-1.1-0.5-1.5C357.4,23.4,357,23.3,356.4,23.3z"/>
	<path class="st0" d="M368.7,33.2h-4.4V15.7h4.4V33.2z"/>
	<path class="st0" d="M378.9,33.4c-0.6,0-1.2-0.1-1.7-0.3c-0.5-0.2-1-0.6-1.5-1.2h-0.2c0.1,0.9,0.2,1.4,0.2,1.7v5.1h-4.4V20.5h3.6
		l0.6,1.6h0.2c0.8-1.2,1.9-1.8,3.4-1.8c1.4,0,2.5,0.6,3.3,1.8s1.2,2.8,1.2,4.8c0,2.1-0.4,3.7-1.3,4.8
		C381.5,32.9,380.3,33.4,378.9,33.4z M377.4,23.7c-0.6,0-1.1,0.2-1.4,0.7c-0.3,0.5-0.4,1.1-0.4,2v0.3c0,1.1,0.1,1.9,0.4,2.4
		c0.3,0.5,0.8,0.7,1.4,0.7c0.6,0,1-0.2,1.2-0.7c0.3-0.5,0.4-1.3,0.4-2.4c0-1.1-0.1-1.9-0.4-2.4C378.5,24,378,23.7,377.4,23.7z"/>
	<path class="st0" d="M398.8,33.4c-0.6,0-1.2-0.1-1.7-0.3c-0.5-0.2-1-0.6-1.5-1.2h-0.2c0.1,0.9,0.2,1.4,0.2,1.7v5.1h-4.4V20.5h3.6
		l0.6,1.6h0.2c0.8-1.2,1.9-1.8,3.4-1.8c1.4,0,2.5,0.6,3.3,1.8s1.2,2.8,1.2,4.8c0,2.1-0.4,3.7-1.3,4.8
		C401.3,32.9,400.2,33.4,398.8,33.4z M397.3,23.7c-0.6,0-1.1,0.2-1.4,0.7c-0.3,0.5-0.4,1.1-0.4,2v0.3c0,1.1,0.1,1.9,0.4,2.4
		c0.3,0.5,0.8,0.7,1.4,0.7c0.6,0,1-0.2,1.2-0.7c0.3-0.5,0.4-1.3,0.4-2.4c0-1.1-0.1-1.9-0.4-2.4C398.3,24,397.9,23.7,397.3,23.7z"/>
	<path class="st0" d="M413.2,20.3c0.4,0,0.7,0,1.1,0.1l0.2,0l-0.4,4.1c-0.4-0.1-0.9-0.1-1.5-0.1c-1,0-1.7,0.2-2.1,0.7
		c-0.4,0.4-0.7,1.1-0.7,1.9v6.3h-4.4V20.5h3.3l0.7,2h0.2c0.4-0.7,0.9-1.2,1.5-1.6C411.8,20.5,412.5,20.3,413.2,20.3z"/>
	<path class="st0" d="M428,26.8c0,2.1-0.6,3.7-1.7,4.9c-1.1,1.2-2.7,1.7-4.7,1.7c-1.9,0-3.5-0.6-4.6-1.8s-1.7-2.8-1.7-4.8
		c0-2.1,0.6-3.7,1.7-4.8c1.1-1.1,2.7-1.7,4.7-1.7c1.3,0,2.4,0.3,3.3,0.8s1.7,1.3,2.2,2.3C427.7,24.3,428,25.5,428,26.8z M419.7,26.8
		c0,1.1,0.1,1.9,0.4,2.5c0.3,0.6,0.8,0.9,1.5,0.9c0.7,0,1.2-0.3,1.4-0.9c0.3-0.6,0.4-1.4,0.4-2.5c0-1.1-0.1-1.9-0.4-2.5
		c-0.3-0.6-0.8-0.8-1.5-0.8c-0.7,0-1.2,0.3-1.4,0.8C419.9,24.9,419.7,25.7,419.7,26.8z"/>
	<path class="st0" d="M436.2,30c0.6,0,1.3-0.1,2.1-0.4v3.2c-0.6,0.3-1.2,0.4-1.7,0.5c-0.5,0.1-1.2,0.2-1.9,0.2
		c-1.5,0-2.5-0.4-3.2-1.1c-0.7-0.7-1-1.8-1-3.3v-5.2h-1.5V22l2-1.4l1.1-2.7h2.9v2.5h3.1v3.3H435v5C435,29.6,435.4,30,436.2,30z"/>
	<path class="st0" d="M446.3,33.4c-2.1,0-3.8-0.6-4.9-1.7c-1.2-1.1-1.8-2.7-1.8-4.8c0-2.1,0.5-3.8,1.6-4.9c1.1-1.1,2.6-1.7,4.7-1.7
		c1.9,0,3.4,0.5,4.4,1.5c1,1,1.6,2.4,1.6,4.3v2H444c0,0.7,0.3,1.3,0.8,1.7s1.2,0.6,2,0.6c0.8,0,1.5-0.1,2.1-0.2
		c0.6-0.1,1.3-0.4,2.1-0.7v3.2c-0.7,0.4-1.4,0.6-2.1,0.7S447.3,33.4,446.3,33.4z M446,23.3c-0.5,0-0.9,0.2-1.3,0.5
		c-0.3,0.3-0.6,0.8-0.6,1.5h3.8c0-0.6-0.2-1.1-0.5-1.5S446.6,23.3,446,23.3z"/>
	<path class="st0" d="M459.7,33.4c-2.1,0-3.7-0.6-4.7-1.7s-1.6-2.7-1.6-4.8c0-2.1,0.6-3.7,1.7-4.9c1.2-1.2,2.8-1.7,5-1.7
		c1.5,0,2.9,0.3,4.2,1l-1.3,3.2c-0.5-0.2-1-0.4-1.5-0.6c-0.4-0.1-0.9-0.2-1.4-0.2c-0.7,0-1.3,0.3-1.7,0.8c-0.4,0.6-0.6,1.3-0.6,2.3
		c0,2,0.8,3.1,2.3,3.1c1.3,0,2.5-0.4,3.7-1.1v3.5C462.6,33.1,461.3,33.4,459.7,33.4z"/>
	<path class="st0" d="M472.1,30c0.6,0,1.3-0.1,2.1-0.4v3.2c-0.6,0.3-1.2,0.4-1.7,0.5c-0.5,0.1-1.2,0.2-1.9,0.2
		c-1.5,0-2.5-0.4-3.2-1.1c-0.7-0.7-1-1.8-1-3.3v-5.2h-1.5V22l2-1.4L468,18h2.9v2.5h3.1v3.3h-3.1v5C470.9,29.6,471.3,30,472.1,30z"/>
</g>
<g>
	<path class="st0" d="M245,47.5h4.6l2.2,7.3c0.1,0.4,0.2,0.8,0.2,1.4h0.1c0.1-0.5,0.1-1,0.3-1.4l2.2-7.3h4.5L254,61
		c-0.6,1.7-1.4,2.9-2.4,3.7c-0.9,0.7-2.2,1.1-3.7,1.1c-0.6,0-1.2-0.1-1.8-0.2v-3.4c0.4,0.1,0.8,0.1,1.4,0.1c0.4,0,0.7-0.1,1-0.2
		s0.5-0.4,0.8-0.6s0.4-0.7,0.7-1.3L245,47.5z"/>
	<path class="st0" d="M272.3,53.8c0,2.1-0.6,3.7-1.7,4.9c-1.1,1.2-2.7,1.7-4.7,1.7c-1.9,0-3.5-0.6-4.6-1.8c-1.1-1.2-1.7-2.8-1.7-4.8
		c0-2.1,0.6-3.7,1.7-4.8c1.1-1.1,2.7-1.7,4.7-1.7c1.3,0,2.4,0.3,3.3,0.8s1.7,1.3,2.2,2.3C272,51.4,272.3,52.5,272.3,53.8z M264,53.8
		c0,1.1,0.1,1.9,0.4,2.5c0.3,0.6,0.8,0.9,1.5,0.9c0.7,0,1.2-0.3,1.4-0.9c0.3-0.6,0.4-1.4,0.4-2.5c0-1.1-0.1-1.9-0.4-2.5
		s-0.8-0.8-1.5-0.8c-0.7,0-1.2,0.3-1.4,0.8C264.2,51.9,264,52.7,264,53.8z"/>
	<path class="st0" d="M283.4,60.2l-0.6-1.6h-0.3c-0.4,0.6-0.9,1-1.5,1.3c-0.7,0.3-1.4,0.5-2.3,0.5c-1.4,0-2.5-0.4-3.3-1.2
		s-1.2-2-1.2-3.4v-8.3h4.4v7c0,0.8,0.1,1.5,0.4,1.9c0.2,0.4,0.6,0.6,1.2,0.6c0.8,0,1.3-0.3,1.6-0.9c0.3-0.6,0.5-1.6,0.5-3v-5.6h4.4
		v12.7H283.4z"/>
	<path class="st0" d="M297,47.3c0.4,0,0.7,0,1.1,0.1l0.2,0l-0.4,4.1c-0.4-0.1-0.9-0.1-1.5-0.1c-1,0-1.7,0.2-2.1,0.7
		c-0.4,0.4-0.7,1.1-0.7,1.9v6.3h-4.4V47.5h3.3l0.7,2h0.2c0.4-0.7,0.9-1.2,1.5-1.6C295.6,47.5,296.3,47.3,297,47.3z"/>
	<path class="st0" d="M312.9,50.8h-2.7v9.4h-4.4v-9.4h-1.7v-2.2l1.8-1.1v-0.2c0-1.7,0.3-2.9,1-3.6c0.7-0.7,1.8-1.1,3.3-1.1
		c0.6,0,1.1,0,1.7,0.1c0.5,0.1,1.1,0.2,1.8,0.5l-0.9,2.8c-0.5-0.1-1.1-0.2-1.6-0.2c-0.3,0-0.6,0.1-0.7,0.3c-0.2,0.2-0.2,0.5-0.2,1
		v0.3h2.7V50.8z"/>
	<path class="st0" d="M322.5,60.2l-0.8-1.7h-0.1c-0.6,0.7-1.2,1.2-1.8,1.5s-1.4,0.4-2.4,0.4c-1.2,0-2.1-0.4-2.8-1.1s-1-1.7-1-3
		c0-1.4,0.5-2.4,1.4-3c0.9-0.7,2.3-1,4.1-1.1l2.1-0.1v-0.2c0-1-0.5-1.6-1.5-1.6c-0.9,0-2.1,0.3-3.5,0.9l-1.3-2.9
		c1.5-0.8,3.4-1.1,5.6-1.1c1.6,0,2.9,0.4,3.8,1.2c0.9,0.8,1.3,1.9,1.3,3.4v8.3H322.5z M319.2,57.4c0.5,0,1-0.2,1.4-0.5
		c0.4-0.3,0.6-0.8,0.6-1.3v-1l-1,0c-1.4,0.1-2.2,0.6-2.2,1.6C318,57,318.4,57.4,319.2,57.4z"/>
	<path class="st0" d="M343.7,60.2v-6.9c0-0.9-0.1-1.5-0.4-1.9c-0.2-0.4-0.6-0.6-1.1-0.6c-0.7,0-1.2,0.3-1.5,0.9
		c-0.3,0.6-0.5,1.5-0.5,2.7v5.9h-4.4v-6.9c0-0.9-0.1-1.5-0.3-1.9s-0.6-0.6-1.1-0.6c-0.7,0-1.2,0.3-1.5,0.9s-0.5,1.6-0.5,3v5.6h-4.4
		V47.5h3.3l0.6,1.6h0.3c0.3-0.6,0.8-1,1.5-1.3c0.6-0.3,1.4-0.5,2.2-0.5c1.8,0,3.1,0.6,3.9,1.7h0.3c0.4-0.5,0.9-0.9,1.5-1.2
		c0.6-0.3,1.3-0.4,2.1-0.4c1.5,0,2.6,0.4,3.3,1.2s1.1,1.9,1.1,3.5v8.3H343.7z"/>
	<path class="st0" d="M350.5,44.3c0-0.7,0.2-1.1,0.6-1.5s1-0.5,1.8-0.5s1.4,0.2,1.8,0.5s0.6,0.8,0.6,1.5c0,1.3-0.8,1.9-2.3,1.9
		C351.3,46.3,350.5,45.6,350.5,44.3z M355,60.2h-4.4V47.5h4.4V60.2z"/>
	<path class="st0" d="M362,60.2h-4.4V42.8h4.4V60.2z"/>
	<path class="st0" d="M363.1,47.5h4.6l2.2,7.3c0.1,0.4,0.2,0.8,0.2,1.4h0.1c0.1-0.5,0.1-1,0.3-1.4l2.2-7.3h4.5l-5,13.5
		c-0.6,1.7-1.4,2.9-2.4,3.7c-0.9,0.7-2.2,1.1-3.7,1.1c-0.6,0-1.2-0.1-1.8-0.2v-3.4c0.4,0.1,0.8,0.1,1.4,0.1c0.4,0,0.7-0.1,1-0.2
		c0.3-0.1,0.5-0.4,0.8-0.6s0.4-0.7,0.7-1.3L363.1,47.5z"/>
	<path class="st0" d="M377.7,58.4c0-0.7,0.2-1.2,0.6-1.6s1-0.6,1.8-0.6c0.7,0,1.3,0.2,1.7,0.6c0.4,0.4,0.6,0.9,0.6,1.6
		c0,0.7-0.2,1.2-0.6,1.6s-1,0.6-1.7,0.6c-0.7,0-1.3-0.2-1.8-0.6C377.9,59.6,377.7,59,377.7,58.4z"/>
</g>
</svg>
