<?xml version="1.0" encoding="utf-8"?>
<!-- Generator: Adobe Illustrator 22.1.0, SVG Export Plug-In . SVG Version: 6.00 Build 0)  -->
<svg version="1.1" id="Layer_1" xmlns="http://www.w3.org/2000/svg" xmlns:xlink="http://www.w3.org/1999/xlink" x="0px" y="0px"
	 viewBox="0 0 728 90" style="enable-background:new 0 0 728 90;" xml:space="preserve">
<style type="text/css">
	.st0{clip-path:url(#SVGID_2_);fill:none;stroke:#58595B;stroke-width:0.25;}
	.st1{fill:#FFFFFF;}
	.st2{fill:none;}
</style>
<g>
	<defs>
		<rect id="SVGID_1_" y="-0.2" width="728.2" height="90.2"/>
	</defs>
	<clipPath id="SVGID_2_">
		<use xlink:href="#SVGID_1_"  style="overflow:visible;"/>
	</clipPath>
	<rect x="0.1" y="-0.1" class="st0" width="728" height="90"/>
</g>
<polygon class="st1" points="545.3,36.5 565.9,36.5 571.1,52 568.7,52 564.2,38.8 544.6,38.8 "/>
<polygon class="st1" points="543.8,41 562.6,41 566.3,52 563.9,52 561,43.3 543.1,43.3 "/>
<polygon class="st1" points="542.5,45.8 536.2,64.8 538.2,66.3 543.8,47.9 557.8,47.9 558.6,45.8 "/>
<polygon class="st1" points="545.5,50.2 557.1,50.2 556.4,52.3 547.2,52.3 541.9,69.1 540.1,67.5 "/>
<polygon class="st1" points="544.2,70.8 560.8,82.3 562.5,80.8 546.7,69.8 550.8,56.6 548.8,55.1 "/>
<polygon class="st1" points="552.7,57.9 554.7,59.1 551.9,67.8 566,77.9 564.4,79.5 549.3,68.7 "/>
<polygon class="st1" points="568.2,74.1 556.6,66.3 554.9,67.4 568.1,76.8 584.7,64.7 583.9,62.5 "/>
<polygon class="st1" points="559,64.4 560.5,63.2 568.1,68.7 582.3,58.2 583.2,60.3 568.2,71.3 "/>
<polygon class="st1" points="567.9,63.4 568.7,65.5 581.7,56 575.1,36.5 572.9,36.5 579.2,55.1 "/>
<polygon class="st1" points="568.1,36.5 570.2,36.5 576.5,54.3 567.1,61.1 566.3,59.4 574.1,53.3 "/>
<polygon class="st1" points="543,9.8 541.5,12.3 539.9,9.8 538,9.8 538,16.2 539.8,16.2 539.8,12.6 541.4,15.1 541.5,15.1 
	543.1,12.5 543.1,16.2 544.9,16.2 544.9,9.8 "/>
<rect x="546.1" y="9.8" class="st1" width="1.8" height="6.4"/>
<polygon class="st1" points="549,9.8 549,16.2 553.9,16.2 553.9,14.7 550.8,14.7 550.8,9.8 "/>
<rect x="554.7" y="9.8" class="st1" width="1.8" height="6.4"/>
<polygon class="st1" points="557.3,9.8 557.3,11.4 559.3,11.4 559.3,16.2 561.1,16.2 561.1,11.4 563,11.4 563,9.8 "/>
<path class="st1" d="M566,11.9l0.7,1.8h-1.4L566,11.9z M565.2,9.7l-2.7,6.5h1.9l0.5-1.1h2.5l0.5,1.1h1.9l-2.7-6.5H565.2z"/>
<path class="st1" d="M570.3,9.8h3c1,0,1.7,0.3,2.1,0.7c0.4,0.4,0.6,0.9,0.6,1.5v0c0,1-0.5,1.6-1.3,2l1.5,2.2h-2.1l-1.3-2h0h-0.8v2
	h-1.8V9.8z M573.2,12.9c0.6,0,1-0.3,1-0.8v0c0-0.5-0.4-0.8-1-0.8h-1.2v1.5H573.2z"/>
<polygon class="st1" points="578.5,13.8 576.1,9.8 578.1,9.8 579.4,12.1 580.8,9.8 582.8,9.8 580.3,13.8 580.3,16.2 578.5,16.2 "/>
<path class="st1" d="M538.1,18.5h3.7c0.9,0,1.5,0.2,1.9,0.6c0.3,0.3,0.5,0.7,0.5,1.2v0c0,0.8-0.5,1.3-1.1,1.6
	c0.9,0.3,1.4,0.8,1.4,1.7v0c0,1.2-1,2-2.7,2h-3.7V18.5z M541.3,21.4c0.6,0,0.9-0.2,0.9-0.6v0c0-0.4-0.3-0.6-0.9-0.6H540v1.3H541.3z
	 M541.6,24.1c0.6,0,0.9-0.2,0.9-0.7v0c0-0.4-0.3-0.6-1-0.6H540v1.3H541.6z"/>
<polygon class="st1" points="545.4,18.5 551.1,18.5 551.1,20.2 547.3,20.2 547.3,21.3 550.8,21.3 550.8,22.8 547.3,22.8 547.3,24 
	551.2,24 551.2,25.7 545.4,25.7 "/>
<polygon class="st1" points="552.2,18.5 554,18.5 557,22.3 557,18.5 558.9,18.5 558.9,25.7 557.2,25.7 554.1,21.7 554.1,25.7 
	552.2,25.7 "/>
<polygon class="st1" points="560.2,18.5 565.9,18.5 565.9,20.2 562.1,20.2 562.1,21.3 565.5,21.3 565.5,22.8 562.1,22.8 562.1,24 
	566,24 566,25.7 560.2,25.7 "/>
<polygon class="st1" points="567,18.5 572.7,18.5 572.7,20.3 568.9,20.3 568.9,21.5 572.3,21.5 572.3,23.1 568.9,23.1 568.9,25.7 
	567,25.7 "/>
<rect x="573.6" y="18.5" class="st1" width="2" height="7.1"/>
<polygon class="st1" points="578.6,20.3 576.5,20.3 576.5,18.5 582.7,18.5 582.7,20.3 580.6,20.3 580.6,25.7 578.6,25.7 "/>
<path class="st1" d="M539.4,27.9h1.2l1.9,4.4h-1.3l-0.3-0.8h-1.7l-0.3,0.8h-1.3L539.4,27.9z M540.4,30.6l-0.5-1.2l-0.5,1.2H540.4z"
	/>
<path class="st1" d="M542.4,31.7l0.7-0.8c0.4,0.3,0.9,0.5,1.4,0.5c0.3,0,0.5-0.1,0.5-0.3v0c0-0.2-0.1-0.3-0.7-0.4
	c-0.9-0.2-1.6-0.5-1.6-1.4v0c0-0.8,0.6-1.4,1.7-1.4c0.7,0,1.3,0.2,1.8,0.6l-0.6,0.9c-0.4-0.3-0.8-0.4-1.2-0.4
	c-0.3,0-0.4,0.1-0.4,0.3v0c0,0.2,0.1,0.3,0.8,0.4c1,0.2,1.6,0.5,1.6,1.4v0c0,0.9-0.7,1.4-1.8,1.4C543.7,32.4,543,32.2,542.4,31.7"/>
<path class="st1" d="M546.4,31.7l0.7-0.8c0.4,0.3,0.9,0.5,1.4,0.5c0.3,0,0.5-0.1,0.5-0.3v0c0-0.2-0.1-0.3-0.7-0.4
	c-0.9-0.2-1.6-0.5-1.6-1.4v0c0-0.8,0.6-1.4,1.7-1.4c0.7,0,1.3,0.2,1.8,0.6l-0.6,0.9c-0.4-0.3-0.8-0.4-1.2-0.4
	c-0.3,0-0.4,0.1-0.4,0.3v0c0,0.2,0.1,0.3,0.8,0.4c1,0.2,1.6,0.5,1.6,1.4v0c0,0.9-0.7,1.4-1.8,1.4C547.7,32.4,547,32.2,546.4,31.7"/>
<path class="st1" d="M550.7,30.2L550.7,30.2c0-1.3,1-2.3,2.4-2.3c1.3,0,2.3,1,2.3,2.3v0c0,1.3-1,2.3-2.4,2.3
	C551.7,32.4,550.7,31.4,550.7,30.2 M554.2,30.2L554.2,30.2c0-0.6-0.5-1.2-1.1-1.2c-0.7,0-1.1,0.5-1.1,1.2v0c0,0.6,0.5,1.2,1.1,1.2
	C553.7,31.3,554.2,30.8,554.2,30.2"/>
<path class="st1" d="M555.9,30.2L555.9,30.2c0-1.3,1-2.3,2.3-2.3c0.9,0,1.5,0.4,1.9,0.9l-0.9,0.7c-0.2-0.3-0.5-0.5-1-0.5
	c-0.6,0-1,0.5-1,1.2v0c0,0.7,0.4,1.2,1,1.2c0.5,0,0.7-0.2,1-0.5l0.9,0.7c-0.4,0.6-1,1-1.9,1C556.9,32.4,555.9,31.5,555.9,30.2"/>
<rect x="560.6" y="28" class="st1" width="1.2" height="4.4"/>
<path class="st1" d="M564.1,27.9h1.2l1.9,4.4h-1.3l-0.3-0.8h-1.7l-0.3,0.8h-1.3L564.1,27.9z M565.2,30.6l-0.5-1.2l-0.5,1.2H565.2z"
	/>
<polygon class="st1" points="568.1,29 566.8,29 566.8,28 570.6,28 570.6,29 569.3,29 569.3,32.3 568.1,32.3 "/>
<rect x="571.2" y="28" class="st1" width="1.2" height="4.4"/>
<path class="st1" d="M573,30.2L573,30.2c0-1.3,1-2.3,2.4-2.3c1.3,0,2.3,1,2.3,2.3v0c0,1.3-1,2.3-2.4,2.3C574,32.4,573,31.4,573,30.2
	 M576.5,30.2L576.5,30.2c0-0.6-0.5-1.2-1.1-1.2c-0.7,0-1.1,0.5-1.1,1.2v0c0,0.6,0.5,1.2,1.1,1.2C576.1,31.3,576.5,30.8,576.5,30.2"
	/>
<polygon class="st1" points="578.4,28 579.5,28 581.3,30.3 581.3,28 582.5,28 582.5,32.3 581.4,32.3 579.6,29.9 579.6,32.3 
	578.4,32.3 "/>
<rect x="536.2" y="9.8" class="st2" width="48.5" height="72.5"/>
</svg>
