<?xml version="1.0" encoding="utf-8"?>
<!-- Generator: Adobe Illustrator 22.1.0, SVG Export Plug-In . SVG Version: 6.00 Build 0)  -->
<svg version="1.1" id="Layer_1" xmlns="http://www.w3.org/2000/svg" xmlns:xlink="http://www.w3.org/1999/xlink" x="0px" y="0px"
	 viewBox="0 0 728 90" style="enable-background:new 0 0 728 90;" xml:space="preserve">
<style type="text/css">
	.st0{fill:#414042;}
</style>
<g>
	<path class="st0" d="M289.6,66.5h3.2v4.3c-0.5,0.2-1,0.3-1.5,0.4s-1,0.1-1.5,0.1c-1.3,0-2.3-0.4-3-1.2s-1.1-1.9-1.1-3.2
		c0-1.4,0.4-2.5,1.2-3.2s1.9-1.2,3.3-1.2c0.9,0,1.7,0.2,2.5,0.5l-0.5,1.2c-0.7-0.3-1.4-0.5-2.1-0.5c-0.9,0-1.6,0.3-2.2,0.9
		s-0.8,1.4-0.8,2.4c0,1,0.2,1.8,0.7,2.4s1.2,0.8,2.1,0.8c0.5,0,0.9-0.1,1.5-0.2v-2.2h-1.8V66.5z"/>
	<path class="st0" d="M297.3,71.3c-1,0-1.8-0.3-2.4-0.9s-0.9-1.4-0.9-2.4c0-1.1,0.3-1.9,0.8-2.5s1.3-0.9,2.2-0.9
		c0.9,0,1.5,0.3,2,0.8s0.7,1.2,0.7,2.1v0.7h-4.3c0,0.6,0.2,1.1,0.5,1.5s0.8,0.5,1.4,0.5c0.4,0,0.7,0,1.1-0.1s0.7-0.2,1.1-0.4v1.1
		c-0.3,0.2-0.7,0.3-1,0.3S297.7,71.3,297.3,71.3z M297,65.6c-0.4,0-0.8,0.1-1.1,0.4s-0.4,0.7-0.5,1.2h2.9c0-0.5-0.1-0.9-0.4-1.2
		S297.5,65.6,297,65.6z"/>
	<path class="st0" d="M303.5,70.2c0.3,0,0.7-0.1,1-0.2v1c-0.2,0.1-0.3,0.1-0.6,0.2s-0.5,0.1-0.7,0.1c-1.3,0-2-0.7-2-2.1v-3.5h-0.9
		v-0.6l0.9-0.5l0.5-1.4h0.8v1.4h1.8v1h-1.8v3.5c0,0.3,0.1,0.6,0.2,0.7S303.3,70.2,303.5,70.2z"/>
	<path class="st0" d="M309.9,71.2h-1.4v-9.1h1.4V71.2z"/>
	<path class="st0" d="M311.5,63c0-0.2,0.1-0.4,0.2-0.6s0.3-0.2,0.6-0.2c0.2,0,0.4,0.1,0.6,0.2s0.2,0.3,0.2,0.6
		c0,0.2-0.1,0.4-0.2,0.6s-0.3,0.2-0.6,0.2c-0.2,0-0.4-0.1-0.6-0.2S311.5,63.2,311.5,63z M313,71.2h-1.4v-6.5h1.4V71.2z"/>
	<path class="st0" d="M318,65.7h-1.6v5.4H315v-5.4H314v-0.6l1.1-0.4v-0.4c0-0.8,0.2-1.3,0.5-1.7s0.9-0.6,1.6-0.6
		c0.5,0,1,0.1,1.4,0.2l-0.4,1c-0.3-0.1-0.7-0.2-1-0.2c-0.3,0-0.5,0.1-0.7,0.3s-0.2,0.5-0.2,0.9v0.4h1.6V65.7z"/>
	<path class="st0" d="M321.7,71.3c-1,0-1.8-0.3-2.4-0.9s-0.9-1.4-0.9-2.4c0-1.1,0.3-1.9,0.8-2.5s1.3-0.9,2.2-0.9
		c0.9,0,1.5,0.3,2,0.8s0.7,1.2,0.7,2.1v0.7h-4.3c0,0.6,0.2,1.1,0.5,1.5s0.8,0.5,1.4,0.5c0.4,0,0.7,0,1.1-0.1s0.7-0.2,1.1-0.4v1.1
		c-0.3,0.2-0.7,0.3-1,0.3S322.1,71.3,321.7,71.3z M321.4,65.6c-0.4,0-0.8,0.1-1.1,0.4s-0.4,0.7-0.5,1.2h2.9c0-0.5-0.1-0.9-0.4-1.2
		S321.9,65.6,321.4,65.6z"/>
	<path class="st0" d="M328.3,63c0-0.2,0.1-0.4,0.2-0.6s0.3-0.2,0.6-0.2c0.2,0,0.4,0.1,0.6,0.2s0.2,0.3,0.2,0.6
		c0,0.2-0.1,0.4-0.2,0.6s-0.3,0.2-0.6,0.2c-0.2,0-0.4-0.1-0.6-0.2S328.3,63.2,328.3,63z M329.8,71.2h-1.4v-6.5h1.4V71.2z"/>
	<path class="st0" d="M337.2,71.2h-1.4v-4c0-0.5-0.1-0.9-0.3-1.1s-0.5-0.4-1-0.4c-0.6,0-1,0.2-1.3,0.5s-0.4,0.9-0.4,1.7v3.2h-1.4
		v-6.5h1.1l0.2,0.8h0.1c0.2-0.3,0.5-0.5,0.8-0.7s0.8-0.3,1.2-0.3c1.6,0,2.3,0.8,2.3,2.4V71.2z"/>
	<path class="st0" d="M343.3,69.3c0,0.6-0.2,1.1-0.7,1.5s-1.1,0.5-2,0.5c-0.9,0-1.6-0.1-2.1-0.4v-1.2c0.8,0.4,1.5,0.5,2.1,0.5
		c0.8,0,1.3-0.3,1.3-0.8c0-0.2,0-0.3-0.1-0.4s-0.2-0.2-0.5-0.3s-0.5-0.2-0.9-0.4c-0.7-0.3-1.3-0.6-1.5-0.9s-0.4-0.7-0.4-1.1
		c0-0.6,0.2-1,0.7-1.3s1.1-0.5,1.8-0.5c0.8,0,1.5,0.2,2.2,0.5l-0.4,1c-0.7-0.3-1.3-0.4-1.8-0.4c-0.7,0-1.1,0.2-1.1,0.6
		c0,0.2,0.1,0.4,0.3,0.5s0.6,0.3,1.2,0.6c0.5,0.2,0.9,0.4,1.2,0.6s0.4,0.4,0.5,0.6S343.3,69,343.3,69.3z"/>
	<path class="st0" d="M349.1,71.2l-0.2-0.8h-0.1c-0.2,0.3-0.5,0.5-0.8,0.7s-0.8,0.3-1.2,0.3c-0.8,0-1.4-0.2-1.8-0.6s-0.6-1-0.6-1.8
		v-4.2h1.4v4c0,0.5,0.1,0.9,0.3,1.1s0.5,0.4,1,0.4c0.6,0,1-0.2,1.3-0.5s0.4-0.9,0.4-1.7v-3.2h1.4v6.5H349.1z"/>
	<path class="st0" d="M355.2,64.6c0.3,0,0.5,0,0.7,0.1l-0.1,1.3c-0.2,0-0.4-0.1-0.6-0.1c-0.6,0-1,0.2-1.3,0.5s-0.5,0.8-0.5,1.4v3.4
		h-1.4v-6.5h1.1l0.2,1.1h0.1c0.2-0.4,0.5-0.7,0.8-0.9S354.8,64.6,355.2,64.6z"/>
	<path class="st0" d="M360.9,71.2l-0.3-0.9h0c-0.3,0.4-0.6,0.7-0.9,0.8s-0.7,0.2-1.2,0.2c-0.6,0-1.1-0.2-1.5-0.5s-0.5-0.8-0.5-1.5
		c0-0.7,0.2-1.2,0.7-1.5s1.3-0.5,2.3-0.6l1.1,0v-0.3c0-0.4-0.1-0.7-0.3-0.9s-0.5-0.3-0.9-0.3c-0.3,0-0.7,0-1,0.1s-0.6,0.2-0.9,0.3
		l-0.4-1c0.4-0.2,0.7-0.3,1.2-0.4s0.8-0.1,1.2-0.1c0.8,0,1.4,0.2,1.9,0.5s0.6,0.9,0.6,1.7v4.4H360.9z M358.9,70.2
		c0.5,0,0.9-0.1,1.2-0.4s0.5-0.7,0.5-1.2v-0.6l-0.8,0c-0.6,0-1.1,0.1-1.4,0.3s-0.4,0.5-0.4,0.9c0,0.3,0.1,0.5,0.3,0.7
		S358.5,70.2,358.9,70.2z"/>
	<path class="st0" d="M369.3,71.2h-1.4v-4c0-0.5-0.1-0.9-0.3-1.1s-0.5-0.4-1-0.4c-0.6,0-1,0.2-1.3,0.5S365,67.1,365,68v3.2h-1.4
		v-6.5h1.1l0.2,0.8h0.1c0.2-0.3,0.5-0.5,0.8-0.7s0.8-0.3,1.2-0.3c1.6,0,2.3,0.8,2.3,2.4V71.2z"/>
	<path class="st0" d="M373.6,71.3c-1,0-1.7-0.3-2.2-0.9s-0.8-1.4-0.8-2.5c0-1.1,0.3-1.9,0.8-2.5s1.3-0.9,2.3-0.9
		c0.7,0,1.3,0.1,1.8,0.4l-0.4,1.1c-0.6-0.2-1.1-0.3-1.4-0.3c-1.1,0-1.7,0.7-1.7,2.2c0,0.7,0.1,1.3,0.4,1.6s0.7,0.5,1.2,0.5
		c0.6,0,1.2-0.2,1.7-0.5v1.2c-0.2,0.1-0.5,0.2-0.8,0.3S374,71.3,373.6,71.3z"/>
	<path class="st0" d="M379.5,71.3c-1,0-1.8-0.3-2.4-0.9s-0.9-1.4-0.9-2.4c0-1.1,0.3-1.9,0.8-2.5s1.3-0.9,2.2-0.9
		c0.9,0,1.5,0.3,2,0.8s0.7,1.2,0.7,2.1v0.7h-4.3c0,0.6,0.2,1.1,0.5,1.5s0.8,0.5,1.4,0.5c0.4,0,0.7,0,1.1-0.1s0.7-0.2,1.1-0.4v1.1
		c-0.3,0.2-0.7,0.3-1,0.3S379.9,71.3,379.5,71.3z M379.3,65.6c-0.4,0-0.8,0.1-1.1,0.4s-0.4,0.7-0.5,1.2h2.9c0-0.5-0.1-0.9-0.4-1.2
		S379.7,65.6,379.3,65.6z"/>
	<path class="st0" d="M390.3,71.2l-0.3-0.9h0c-0.3,0.4-0.6,0.7-0.9,0.8s-0.7,0.2-1.2,0.2c-0.6,0-1.1-0.2-1.5-0.5s-0.5-0.8-0.5-1.5
		c0-0.7,0.2-1.2,0.7-1.5s1.3-0.5,2.3-0.6l1.1,0v-0.3c0-0.4-0.1-0.7-0.3-0.9s-0.5-0.3-0.9-0.3c-0.3,0-0.7,0-1,0.1s-0.6,0.2-0.9,0.3
		l-0.4-1c0.4-0.2,0.7-0.3,1.2-0.4s0.8-0.1,1.2-0.1c0.8,0,1.4,0.2,1.9,0.5s0.6,0.9,0.6,1.7v4.4H390.3z M388.2,70.2
		c0.5,0,0.9-0.1,1.2-0.4s0.5-0.7,0.5-1.2v-0.6l-0.8,0c-0.6,0-1.1,0.1-1.4,0.3s-0.4,0.5-0.4,0.9c0,0.3,0.1,0.5,0.3,0.7
		S387.9,70.2,388.2,70.2z"/>
	<path class="st0" d="M395.4,70.2c0.3,0,0.7-0.1,1-0.2v1c-0.2,0.1-0.3,0.1-0.6,0.2s-0.5,0.1-0.7,0.1c-1.3,0-2-0.7-2-2.1v-3.5h-0.9
		v-0.6l0.9-0.5l0.5-1.4h0.8v1.4h1.8v1h-1.8v3.5c0,0.3,0.1,0.6,0.2,0.7S395.1,70.2,395.4,70.2z"/>
	<path class="st0" d="M402.9,71.3c-1,0-1.7-0.3-2.2-0.9s-0.8-1.4-0.8-2.5c0-1.1,0.3-1.9,0.8-2.5s1.3-0.9,2.3-0.9
		c0.7,0,1.3,0.1,1.8,0.4l-0.4,1.1c-0.6-0.2-1.1-0.3-1.4-0.3c-1.1,0-1.7,0.7-1.7,2.2c0,0.7,0.1,1.3,0.4,1.6s0.7,0.5,1.2,0.5
		c0.6,0,1.2-0.2,1.7-0.5v1.2c-0.2,0.1-0.5,0.2-0.8,0.3S403.3,71.3,402.9,71.3z"/>
	<path class="st0" d="M411.8,67.9c0,1.1-0.3,1.9-0.8,2.5s-1.3,0.9-2.3,0.9c-0.6,0-1.1-0.1-1.6-0.4s-0.8-0.7-1.1-1.2
		s-0.4-1.1-0.4-1.8c0-1.1,0.3-1.9,0.8-2.5s1.3-0.9,2.3-0.9c0.9,0,1.7,0.3,2.2,0.9S411.8,66.9,411.8,67.9z M407.1,67.9
		c0,1.5,0.6,2.2,1.7,2.2c1.1,0,1.6-0.7,1.6-2.2c0-1.5-0.6-2.2-1.7-2.2c-0.6,0-1,0.2-1.3,0.6S407.1,67.2,407.1,67.9z"/>
	<path class="st0" d="M418.6,71.2h-1.4v-4c0-0.5-0.1-0.9-0.3-1.1s-0.5-0.4-0.9-0.4c-0.5,0-0.9,0.2-1.2,0.5s-0.4,0.9-0.4,1.7v3.2
		h-1.4v-6.5h1.1l0.2,0.8h0.1c0.2-0.3,0.4-0.5,0.8-0.7s0.7-0.3,1.1-0.3c1,0,1.7,0.3,2,1h0.1c0.2-0.3,0.5-0.6,0.8-0.8s0.7-0.3,1.2-0.3
		c0.8,0,1.3,0.2,1.7,0.6s0.5,1,0.5,1.8v4.2h-1.4v-4c0-0.5-0.1-0.9-0.3-1.1s-0.5-0.4-0.9-0.4c-0.5,0-0.9,0.2-1.2,0.5
		s-0.4,0.8-0.4,1.5V71.2z"/>
	<path class="st0" d="M427.7,71.3c-0.8,0-1.5-0.3-1.9-0.9h-0.1c0.1,0.5,0.1,0.9,0.1,1v2.7h-1.4v-9.4h1.1c0,0.1,0.1,0.4,0.2,0.9h0.1
		c0.4-0.7,1.1-1,1.9-1c0.8,0,1.4,0.3,1.9,0.9s0.7,1.4,0.7,2.5s-0.2,1.9-0.7,2.5S428.5,71.3,427.7,71.3z M427.3,65.7
		c-0.5,0-0.9,0.2-1.2,0.5s-0.4,0.8-0.4,1.5v0.2c0,0.8,0.1,1.4,0.4,1.7s0.7,0.5,1.2,0.5c0.5,0,0.8-0.2,1.1-0.6s0.4-0.9,0.4-1.7
		c0-0.7-0.1-1.3-0.4-1.6S427.8,65.7,427.3,65.7z"/>
	<path class="st0" d="M434.4,71.3c-1,0-1.8-0.3-2.4-0.9s-0.9-1.4-0.9-2.4c0-1.1,0.3-1.9,0.8-2.5s1.3-0.9,2.2-0.9
		c0.9,0,1.5,0.3,2,0.8s0.7,1.2,0.7,2.1v0.7h-4.3c0,0.6,0.2,1.1,0.5,1.5s0.8,0.5,1.4,0.5c0.4,0,0.7,0,1.1-0.1s0.7-0.2,1.1-0.4v1.1
		c-0.3,0.2-0.7,0.3-1,0.3S434.9,71.3,434.4,71.3z M434.2,65.6c-0.4,0-0.8,0.1-1.1,0.4s-0.4,0.7-0.5,1.2h2.9c0-0.5-0.1-0.9-0.4-1.2
		S434.6,65.6,434.2,65.6z"/>
	<path class="st0" d="M440.7,70.2c0.3,0,0.7-0.1,1-0.2v1c-0.2,0.1-0.3,0.1-0.6,0.2s-0.5,0.1-0.7,0.1c-1.3,0-2-0.7-2-2.1v-3.5h-0.9
		v-0.6l0.9-0.5l0.5-1.4h0.8v1.4h1.8v1h-1.8v3.5c0,0.3,0.1,0.6,0.2,0.7S440.4,70.2,440.7,70.2z"/>
	<path class="st0" d="M442.7,63c0-0.2,0.1-0.4,0.2-0.6s0.3-0.2,0.6-0.2c0.2,0,0.4,0.1,0.6,0.2s0.2,0.3,0.2,0.6
		c0,0.2-0.1,0.4-0.2,0.6s-0.3,0.2-0.6,0.2c-0.2,0-0.4-0.1-0.6-0.2S442.7,63.2,442.7,63z M444.1,71.2h-1.4v-6.5h1.4V71.2z"/>
	<path class="st0" d="M448.3,70.2c0.3,0,0.7-0.1,1-0.2v1c-0.2,0.1-0.3,0.1-0.6,0.2s-0.5,0.1-0.7,0.1c-1.3,0-2-0.7-2-2.1v-3.5h-0.9
		v-0.6l0.9-0.5l0.5-1.4h0.8v1.4h1.8v1h-1.8v3.5c0,0.3,0.1,0.6,0.2,0.7S448,70.2,448.3,70.2z"/>
	<path class="st0" d="M450.3,63c0-0.2,0.1-0.4,0.2-0.6s0.3-0.2,0.6-0.2c0.2,0,0.4,0.1,0.6,0.2s0.2,0.3,0.2,0.6
		c0,0.2-0.1,0.4-0.2,0.6s-0.3,0.2-0.6,0.2c-0.2,0-0.4-0.1-0.6-0.2S450.3,63.2,450.3,63z M451.7,71.2h-1.4v-6.5h1.4V71.2z"/>
	<path class="st0" d="M454.9,71.2l-2.5-6.5h1.5l1.3,3.8c0.2,0.6,0.4,1.1,0.4,1.5h0c0-0.3,0.2-0.8,0.4-1.5l1.3-3.8h1.5l-2.5,6.5
		H454.9z"/>
	<path class="st0" d="M462.5,71.3c-1,0-1.8-0.3-2.4-0.9s-0.9-1.4-0.9-2.4c0-1.1,0.3-1.9,0.8-2.5s1.3-0.9,2.2-0.9
		c0.9,0,1.5,0.3,2,0.8s0.7,1.2,0.7,2.1v0.7h-4.3c0,0.6,0.2,1.1,0.5,1.5s0.8,0.5,1.4,0.5c0.4,0,0.7,0,1.1-0.1s0.7-0.2,1.1-0.4v1.1
		c-0.3,0.2-0.7,0.3-1,0.3S462.9,71.3,462.5,71.3z M462.2,65.6c-0.4,0-0.8,0.1-1.1,0.4s-0.4,0.7-0.5,1.2h2.9c0-0.5-0.1-0.9-0.4-1.2
		S462.7,65.6,462.2,65.6z"/>
	<path class="st0" d="M474.7,64.7v0.8l-1.1,0.2c0.1,0.1,0.2,0.3,0.3,0.5s0.1,0.4,0.1,0.6c0,0.7-0.2,1.2-0.7,1.6s-1.1,0.6-1.9,0.6
		c-0.2,0-0.4,0-0.6,0c-0.3,0.2-0.4,0.4-0.4,0.6c0,0.1,0.1,0.3,0.2,0.3s0.4,0.1,0.8,0.1h1.1c0.7,0,1.3,0.2,1.6,0.5s0.6,0.7,0.6,1.3
		c0,0.7-0.3,1.3-0.9,1.7s-1.5,0.6-2.6,0.6c-0.9,0-1.6-0.2-2-0.5s-0.7-0.8-0.7-1.3c0-0.4,0.1-0.7,0.4-1s0.6-0.5,1.1-0.6
		c-0.2-0.1-0.3-0.2-0.5-0.4s-0.2-0.4-0.2-0.5c0-0.2,0.1-0.4,0.2-0.6s0.3-0.3,0.6-0.5c-0.3-0.1-0.6-0.4-0.8-0.7s-0.3-0.7-0.3-1.1
		c0-0.7,0.2-1.2,0.7-1.6s1.1-0.6,1.9-0.6c0.2,0,0.4,0,0.6,0s0.4,0.1,0.5,0.1H474.7z M469.6,72.2c0,0.3,0.1,0.5,0.4,0.7
		s0.6,0.2,1.1,0.2c0.8,0,1.3-0.1,1.7-0.3s0.6-0.5,0.6-0.9c0-0.3-0.1-0.5-0.3-0.6s-0.6-0.2-1.1-0.2h-1c-0.4,0-0.7,0.1-0.9,0.3
		S469.6,71.9,469.6,72.2z M470.2,66.8c0,0.4,0.1,0.7,0.3,0.9s0.5,0.3,0.9,0.3c0.8,0,1.2-0.4,1.2-1.3c0-0.4-0.1-0.7-0.3-1
		s-0.5-0.3-0.9-0.3c-0.4,0-0.7,0.1-0.9,0.3S470.2,66.4,470.2,66.8z"/>
	<path class="st0" d="M478.9,64.6c0.3,0,0.5,0,0.7,0.1l-0.1,1.3c-0.2,0-0.4-0.1-0.6-0.1c-0.6,0-1,0.2-1.3,0.5s-0.5,0.8-0.5,1.4v3.4
		h-1.4v-6.5h1.1l0.2,1.1h0.1c0.2-0.4,0.5-0.7,0.8-0.9S478.5,64.6,478.9,64.6z"/>
	<path class="st0" d="M486.3,67.9c0,1.1-0.3,1.9-0.8,2.5s-1.3,0.9-2.3,0.9c-0.6,0-1.1-0.1-1.6-0.4s-0.8-0.7-1.1-1.2
		s-0.4-1.1-0.4-1.8c0-1.1,0.3-1.9,0.8-2.5s1.3-0.9,2.3-0.9c0.9,0,1.7,0.3,2.2,0.9S486.3,66.9,486.3,67.9z M481.6,67.9
		c0,1.5,0.6,2.2,1.7,2.2c1.1,0,1.6-0.7,1.6-2.2c0-1.5-0.6-2.2-1.7-2.2c-0.6,0-1,0.2-1.3,0.6S481.6,67.2,481.6,67.9z"/>
	<path class="st0" d="M492.2,71.2l-0.2-0.8H492c-0.2,0.3-0.5,0.5-0.8,0.7s-0.8,0.3-1.2,0.3c-0.8,0-1.4-0.2-1.8-0.6s-0.6-1-0.6-1.8
		v-4.2h1.4v4c0,0.5,0.1,0.9,0.3,1.1s0.5,0.4,1,0.4c0.6,0,1-0.2,1.3-0.5s0.4-0.9,0.4-1.7v-3.2h1.4v6.5H492.2z"/>
	<path class="st0" d="M498.4,71.3c-0.8,0-1.5-0.3-1.9-0.9h-0.1c0.1,0.5,0.1,0.9,0.1,1v2.7h-1.4v-9.4h1.1c0,0.1,0.1,0.4,0.2,0.9h0.1
		c0.4-0.7,1.1-1,1.9-1c0.8,0,1.4,0.3,1.9,0.9s0.7,1.4,0.7,2.5s-0.2,1.9-0.7,2.5S499.2,71.3,498.4,71.3z M498,65.7
		c-0.5,0-0.9,0.2-1.2,0.5s-0.4,0.8-0.4,1.5v0.2c0,0.8,0.1,1.4,0.4,1.7s0.7,0.5,1.2,0.5c0.5,0,0.8-0.2,1.1-0.6s0.4-0.9,0.4-1.7
		c0-0.7-0.1-1.3-0.4-1.6S498.5,65.7,498,65.7z"/>
	<path class="st0" d="M508.5,71.3c-0.8,0-1.5-0.3-1.9-0.9h-0.1c0.1,0.5,0.1,0.9,0.1,1v2.7h-1.4v-9.4h1.1c0,0.1,0.1,0.4,0.2,0.9h0.1
		c0.4-0.7,1.1-1,1.9-1c0.8,0,1.4,0.3,1.9,0.9s0.7,1.4,0.7,2.5s-0.2,1.9-0.7,2.5S509.3,71.3,508.5,71.3z M508.1,65.7
		c-0.5,0-0.9,0.2-1.2,0.5s-0.4,0.8-0.4,1.5v0.2c0,0.8,0.1,1.4,0.4,1.7s0.7,0.5,1.2,0.5c0.5,0,0.8-0.2,1.1-0.6s0.4-0.9,0.4-1.7
		c0-0.7-0.1-1.3-0.4-1.6S508.6,65.7,508.1,65.7z"/>
	<path class="st0" d="M515.7,64.6c0.3,0,0.5,0,0.7,0.1l-0.1,1.3c-0.2,0-0.4-0.1-0.6-0.1c-0.6,0-1,0.2-1.3,0.5s-0.5,0.8-0.5,1.4v3.4
		h-1.4v-6.5h1.1l0.2,1.1h0.1c0.2-0.4,0.5-0.7,0.8-0.9S515.3,64.6,515.7,64.6z"/>
	<path class="st0" d="M517.3,63c0-0.2,0.1-0.4,0.2-0.6s0.3-0.2,0.6-0.2c0.2,0,0.4,0.1,0.6,0.2s0.2,0.3,0.2,0.6
		c0,0.2-0.1,0.4-0.2,0.6s-0.3,0.2-0.6,0.2c-0.2,0-0.4-0.1-0.6-0.2S517.3,63.2,517.3,63z M518.7,71.2h-1.4v-6.5h1.4V71.2z"/>
	<path class="st0" d="M523.1,71.3c-1,0-1.7-0.3-2.2-0.9s-0.8-1.4-0.8-2.5c0-1.1,0.3-1.9,0.8-2.5s1.3-0.9,2.3-0.9
		c0.7,0,1.3,0.1,1.8,0.4l-0.4,1.1c-0.6-0.2-1.1-0.3-1.4-0.3c-1.1,0-1.7,0.7-1.7,2.2c0,0.7,0.1,1.3,0.4,1.6s0.7,0.5,1.2,0.5
		c0.6,0,1.2-0.2,1.7-0.5v1.2c-0.2,0.1-0.5,0.2-0.8,0.3S523.5,71.3,523.1,71.3z"/>
	<path class="st0" d="M526.1,63c0-0.2,0.1-0.4,0.2-0.6s0.3-0.2,0.6-0.2c0.2,0,0.4,0.1,0.6,0.2s0.2,0.3,0.2,0.6
		c0,0.2-0.1,0.4-0.2,0.6s-0.3,0.2-0.6,0.2c-0.2,0-0.4-0.1-0.6-0.2S526.1,63.2,526.1,63z M527.6,71.2h-1.4v-6.5h1.4V71.2z"/>
	<path class="st0" d="M535,71.2h-1.4v-4c0-0.5-0.1-0.9-0.3-1.1s-0.5-0.4-1-0.4c-0.6,0-1,0.2-1.3,0.5s-0.4,0.9-0.4,1.7v3.2h-1.4v-6.5
		h1.1l0.2,0.8h0.1c0.2-0.3,0.5-0.5,0.8-0.7s0.8-0.3,1.2-0.3c1.6,0,2.3,0.8,2.3,2.4V71.2z"/>
	<path class="st0" d="M542.2,64.7v0.8l-1.1,0.2c0.1,0.1,0.2,0.3,0.3,0.5s0.1,0.4,0.1,0.6c0,0.7-0.2,1.2-0.7,1.6s-1.1,0.6-1.9,0.6
		c-0.2,0-0.4,0-0.6,0c-0.3,0.2-0.4,0.4-0.4,0.6c0,0.1,0.1,0.3,0.2,0.3s0.4,0.1,0.8,0.1h1.1c0.7,0,1.3,0.2,1.6,0.5s0.6,0.7,0.6,1.3
		c0,0.7-0.3,1.3-0.9,1.7s-1.5,0.6-2.6,0.6c-0.9,0-1.6-0.2-2-0.5s-0.7-0.8-0.7-1.3c0-0.4,0.1-0.7,0.4-1s0.6-0.5,1.1-0.6
		c-0.2-0.1-0.3-0.2-0.5-0.4s-0.2-0.4-0.2-0.5c0-0.2,0.1-0.4,0.2-0.6s0.3-0.3,0.6-0.5c-0.3-0.1-0.6-0.4-0.8-0.7s-0.3-0.7-0.3-1.1
		c0-0.7,0.2-1.2,0.7-1.6s1.1-0.6,1.9-0.6c0.2,0,0.4,0,0.6,0s0.4,0.1,0.5,0.1H542.2z M537.1,72.2c0,0.3,0.1,0.5,0.4,0.7
		s0.6,0.2,1.1,0.2c0.8,0,1.3-0.1,1.7-0.3s0.6-0.5,0.6-0.9c0-0.3-0.1-0.5-0.3-0.6s-0.6-0.2-1.1-0.2h-1c-0.4,0-0.7,0.1-0.9,0.3
		S537.1,71.9,537.1,72.2z M537.7,66.8c0,0.4,0.1,0.7,0.3,0.9s0.5,0.3,0.9,0.3c0.8,0,1.2-0.4,1.2-1.3c0-0.4-0.1-0.7-0.3-1
		s-0.5-0.3-0.9-0.3c-0.4,0-0.7,0.1-0.9,0.3S537.7,66.4,537.7,66.8z"/>
	<path class="st0" d="M542.9,70.4c0-0.3,0.1-0.5,0.2-0.7s0.4-0.2,0.6-0.2c0.3,0,0.5,0.1,0.7,0.2s0.2,0.4,0.2,0.6
		c0,0.3-0.1,0.5-0.2,0.7s-0.4,0.2-0.6,0.2s-0.5-0.1-0.6-0.2S542.9,70.7,542.9,70.4z"/>
</g>
</svg>
