<?xml version="1.0" encoding="utf-8"?>
<!-- Generator: Adobe Illustrator 22.1.0, SVG Export Plug-In . SVG Version: 6.00 Build 0)  -->
<svg version="1.1" id="Layer_1" xmlns="http://www.w3.org/2000/svg" xmlns:xlink="http://www.w3.org/1999/xlink" x="0px" y="0px"
	 viewBox="0 0 113.2 27.3" style="enable-background:new 0 0 113.2 27.3;" xml:space="preserve">
<style type="text/css">
	.st0{fill:#FF5100;}
	.st1{fill:#FFFFFF;}
	.st2{font-family:'OpenSans-Semibold';}
	.st3{font-size:15.2816px;}
</style>
<path class="st0" d="M3.3,0C3.3,0,0,0,0,3.3V24c0,0,0,3.3,3.3,3.3h106.6c0,0,3.3,0,3.3-3.3V3.3c0,0,0-3.3-3.3-3.3H3.3z"/>
<g>
	<path class="st1" d="M10.5,18.4V8.3h1.7V17h4.3v1.4H10.5z"/>
	<path class="st1" d="M21.3,18.6c-1.2,0-2.1-0.3-2.8-1s-1-1.7-1-2.9c0-1.3,0.3-2.2,0.9-3s1.5-1.1,2.6-1.1c1,0,1.8,0.3,2.4,0.9
		c0.6,0.6,0.9,1.5,0.9,2.5V15h-5.1c0,0.7,0.2,1.3,0.6,1.7c0.4,0.4,0.9,0.6,1.6,0.6c0.5,0,0.9,0,1.3-0.1c0.4-0.1,0.8-0.2,1.3-0.4V18
		c-0.4,0.2-0.8,0.3-1.2,0.4C22.3,18.5,21.9,18.6,21.3,18.6z M21,11.9c-0.5,0-0.9,0.2-1.2,0.5c-0.3,0.3-0.5,0.8-0.6,1.4h3.5
		c0-0.6-0.2-1.1-0.5-1.4C22,12,21.6,11.9,21,11.9z"/>
	<path class="st1" d="M31,18.4l-0.3-1.1h-0.1c-0.4,0.5-0.7,0.8-1.1,1c-0.4,0.2-0.9,0.3-1.4,0.3c-0.8,0-1.3-0.2-1.8-0.6
		c-0.4-0.4-0.6-1-0.6-1.7c0-0.8,0.3-1.4,0.9-1.8c0.6-0.4,1.5-0.6,2.7-0.7l1.3,0v-0.4c0-0.5-0.1-0.9-0.3-1.1
		c-0.2-0.2-0.6-0.4-1.1-0.4c-0.4,0-0.8,0.1-1.1,0.2c-0.4,0.1-0.7,0.3-1,0.4l-0.5-1.2c0.4-0.2,0.9-0.4,1.4-0.5s1-0.2,1.4-0.2
		c1,0,1.7,0.2,2.2,0.6s0.7,1.1,0.7,2v5.2H31z M28.5,17.3c0.6,0,1.1-0.2,1.4-0.5c0.4-0.3,0.5-0.8,0.5-1.4v-0.7l-1,0
		c-0.8,0-1.3,0.2-1.7,0.4c-0.3,0.2-0.5,0.6-0.5,1c0,0.3,0.1,0.6,0.3,0.8C27.8,17.2,28.1,17.3,28.5,17.3z"/>
	<path class="st1" d="M38.3,10.6c0.3,0,0.6,0,0.8,0.1l-0.2,1.5c-0.2-0.1-0.5-0.1-0.7-0.1c-0.7,0-1.2,0.2-1.6,0.6
		c-0.4,0.4-0.6,1-0.6,1.7v4h-1.6v-7.7h1.3l0.2,1.4H36c0.3-0.5,0.6-0.8,1-1.1C37.4,10.8,37.8,10.6,38.3,10.6z"/>
	<path class="st1" d="M47.3,18.4h-1.6v-4.7c0-0.6-0.1-1-0.4-1.3S44.7,12,44.1,12c-0.7,0-1.2,0.2-1.5,0.6c-0.3,0.4-0.5,1.1-0.5,2v3.8
		h-1.6v-7.7h1.3l0.2,1h0.1c0.2-0.4,0.6-0.6,1-0.8c0.4-0.2,0.9-0.3,1.4-0.3c1.8,0,2.8,0.9,2.8,2.8V18.4z"/>
	<path class="st1" d="M59.7,18.4H58v-4.7c0-0.6-0.1-1-0.3-1.3c-0.2-0.3-0.6-0.4-1-0.4c-0.6,0-1.1,0.2-1.4,0.6
		c-0.3,0.4-0.4,1.1-0.4,2v3.8h-1.6v-7.7h1.3l0.2,1h0.1c0.2-0.4,0.5-0.6,0.9-0.8c0.4-0.2,0.8-0.3,1.3-0.3c1.2,0,2,0.4,2.3,1.2h0.1
		c0.2-0.4,0.5-0.7,1-0.9c0.4-0.2,0.9-0.3,1.4-0.3c0.9,0,1.6,0.2,2,0.7s0.6,1.2,0.6,2.1v5h-1.6v-4.7c0-0.6-0.1-1-0.3-1.3
		c-0.2-0.3-0.6-0.4-1-0.4c-0.6,0-1.1,0.2-1.4,0.6c-0.3,0.4-0.4,1-0.4,1.8V18.4z"/>
	<path class="st1" d="M73.6,14.6c0,1.3-0.3,2.2-1,2.9c-0.6,0.7-1.5,1.1-2.7,1.1c-0.7,0-1.3-0.2-1.9-0.5s-1-0.8-1.3-1.4
		c-0.3-0.6-0.4-1.3-0.4-2.1c0-1.2,0.3-2.2,1-2.9c0.6-0.7,1.5-1,2.7-1c1.1,0,2,0.4,2.6,1.1S73.6,13.4,73.6,14.6z M68,14.6
		c0,1.8,0.7,2.7,2,2.7c1.3,0,1.9-0.9,1.9-2.7c0-1.8-0.7-2.6-2-2.6c-0.7,0-1.2,0.2-1.5,0.7C68.1,13.1,68,13.7,68,14.6z"/>
	<path class="st1" d="M79.3,10.6c0.3,0,0.6,0,0.8,0.1L80,12.2c-0.2-0.1-0.5-0.1-0.7-0.1c-0.7,0-1.2,0.2-1.6,0.6
		c-0.4,0.4-0.6,1-0.6,1.7v4h-1.6v-7.7h1.3l0.2,1.4H77c0.3-0.5,0.6-0.8,1-1.1C78.4,10.8,78.9,10.6,79.3,10.6z"/>
	<path class="st1" d="M84.9,18.6c-1.2,0-2.1-0.3-2.8-1s-1-1.7-1-2.9c0-1.3,0.3-2.2,0.9-3c0.6-0.7,1.5-1.1,2.6-1.1
		c1,0,1.8,0.3,2.4,0.9c0.6,0.6,0.9,1.5,0.9,2.5V15h-5.1c0,0.7,0.2,1.3,0.6,1.7c0.4,0.4,0.9,0.6,1.6,0.6c0.5,0,0.9,0,1.3-0.1
		c0.4-0.1,0.8-0.2,1.3-0.4V18c-0.4,0.2-0.8,0.3-1.2,0.4C85.9,18.5,85.4,18.6,84.9,18.6z M84.6,11.9c-0.5,0-0.9,0.2-1.2,0.5
		s-0.5,0.8-0.6,1.4h3.5c0-0.6-0.2-1.1-0.5-1.4C85.5,12,85.1,11.9,84.6,11.9z"/>
</g>
<text transform="matrix(1 0 0 1 88.5734 18.4307)" class="st1 st2 st3"> </text>
</svg>
