<?xml version="1.0" encoding="utf-8"?>
<!-- Generator: Adobe Illustrator 22.1.0, SVG Export Plug-In . SVG Version: 6.00 Build 0)  -->
<svg version="1.1" id="Layer_1" xmlns="http://www.w3.org/2000/svg" xmlns:xlink="http://www.w3.org/1999/xlink" x="0px" y="0px"
	 viewBox="0 0 160 600" style="enable-background:new 0 0 160 600;" xml:space="preserve">
<style type="text/css">
	.st0{fill:#FFFFFF;}
</style>
<g>
	<path class="st0" d="M22.4,452.9h3.7v5c-0.6,0.2-1.2,0.3-1.7,0.4s-1.2,0.1-1.8,0.1c-1.5,0-2.7-0.4-3.5-1.3
		c-0.8-0.9-1.2-2.2-1.2-3.8c0-1.6,0.5-2.9,1.4-3.8c0.9-0.9,2.2-1.4,3.8-1.4c1,0,2,0.2,3,0.6l-0.6,1.4c-0.8-0.4-1.6-0.6-2.4-0.6
		c-1.1,0-1.9,0.3-2.5,1s-0.9,1.6-0.9,2.7c0,1.2,0.3,2.1,0.8,2.8c0.6,0.6,1.4,1,2.4,1c0.5,0,1.1-0.1,1.7-0.2v-2.6h-2.1V452.9z"/>
	<path class="st0" d="M31.2,458.5c-1.2,0-2.1-0.3-2.8-1c-0.7-0.7-1-1.6-1-2.8c0-1.2,0.3-2.2,0.9-2.9s1.5-1.1,2.5-1.1
		c1,0,1.8,0.3,2.4,0.9s0.9,1.4,0.9,2.5v0.9h-5c0,0.7,0.2,1.3,0.6,1.7c0.4,0.4,0.9,0.6,1.6,0.6c0.4,0,0.9,0,1.2-0.1
		c0.4-0.1,0.8-0.2,1.2-0.4v1.3c-0.4,0.2-0.8,0.3-1.2,0.4S31.7,458.5,31.2,458.5z M30.9,451.9c-0.5,0-0.9,0.2-1.2,0.5
		s-0.5,0.8-0.6,1.4h3.4c0-0.6-0.2-1.1-0.5-1.4C31.8,452,31.4,451.9,30.9,451.9z"/>
	<path class="st0" d="M38.4,457.2c0.4,0,0.8-0.1,1.2-0.2v1.2c-0.2,0.1-0.4,0.1-0.7,0.2c-0.3,0.1-0.6,0.1-0.9,0.1
		c-1.5,0-2.3-0.8-2.3-2.4V452h-1v-0.7l1.1-0.6l0.5-1.6h1v1.7h2.2v1.2h-2.2v4c0,0.4,0.1,0.7,0.3,0.9
		C37.8,457.1,38.1,457.2,38.4,457.2z"/>
	<path class="st0" d="M45.5,458.4h-1.6v-10.6h1.6V458.4z"/>
	<path class="st0" d="M47.3,448.8c0-0.3,0.1-0.5,0.2-0.7s0.4-0.2,0.7-0.2c0.3,0,0.5,0.1,0.7,0.2s0.2,0.4,0.2,0.7
		c0,0.3-0.1,0.5-0.2,0.6c-0.2,0.2-0.4,0.2-0.7,0.2c-0.3,0-0.5-0.1-0.7-0.2C47.4,449.3,47.3,449.1,47.3,448.8z M49,458.4h-1.6v-7.6
		H49V458.4z"/>
	<path class="st0" d="M54.7,452h-1.8v6.3h-1.6V452H50v-0.8l1.2-0.5v-0.5c0-0.9,0.2-1.6,0.6-2c0.4-0.4,1.1-0.6,1.9-0.6
		c0.6,0,1.1,0.1,1.7,0.3l-0.4,1.2c-0.4-0.1-0.8-0.2-1.1-0.2c-0.4,0-0.6,0.1-0.8,0.3c-0.2,0.2-0.2,0.6-0.2,1v0.5h1.8V452z"/>
	<path class="st0" d="M58.8,458.5c-1.2,0-2.1-0.3-2.8-1c-0.7-0.7-1-1.6-1-2.8c0-1.2,0.3-2.2,0.9-2.9s1.5-1.1,2.5-1.1
		c1,0,1.8,0.3,2.4,0.9s0.9,1.4,0.9,2.5v0.9h-5c0,0.7,0.2,1.3,0.6,1.7c0.4,0.4,0.9,0.6,1.6,0.6c0.4,0,0.9,0,1.2-0.1
		c0.4-0.1,0.8-0.2,1.2-0.4v1.3c-0.4,0.2-0.8,0.3-1.2,0.4S59.4,458.5,58.8,458.5z M58.5,451.9c-0.5,0-0.9,0.2-1.2,0.5
		s-0.5,0.8-0.6,1.4h3.4c0-0.6-0.2-1.1-0.5-1.4C59.5,452,59.1,451.9,58.5,451.9z"/>
	<path class="st0" d="M66.3,448.8c0-0.3,0.1-0.5,0.2-0.7s0.4-0.2,0.7-0.2c0.3,0,0.5,0.1,0.7,0.2s0.2,0.4,0.2,0.7
		c0,0.3-0.1,0.5-0.2,0.6c-0.2,0.2-0.4,0.2-0.7,0.2c-0.3,0-0.5-0.1-0.7-0.2C66.4,449.3,66.3,449.1,66.3,448.8z M68,458.4h-1.6v-7.6
		H68V458.4z"/>
	<path class="st0" d="M76.6,458.4H75v-4.6c0-0.6-0.1-1-0.4-1.3S74,452,73.5,452c-0.7,0-1.2,0.2-1.5,0.6s-0.5,1.1-0.5,2v3.8h-1.6
		v-7.6h1.3l0.2,1h0.1c0.2-0.4,0.6-0.6,1-0.8s0.9-0.3,1.4-0.3c1.8,0,2.7,0.9,2.7,2.8V458.4z"/>
	<path class="st0" d="M83.5,456.2c0,0.7-0.3,1.3-0.8,1.7c-0.5,0.4-1.3,0.6-2.3,0.6c-1,0-1.8-0.2-2.4-0.5v-1.4
		c0.9,0.4,1.7,0.6,2.5,0.6c1,0,1.5-0.3,1.5-0.9c0-0.2-0.1-0.4-0.2-0.5s-0.3-0.3-0.5-0.4c-0.3-0.1-0.6-0.3-1-0.5
		c-0.9-0.3-1.5-0.7-1.8-1s-0.5-0.8-0.5-1.3c0-0.6,0.3-1.1,0.8-1.5c0.5-0.4,1.2-0.5,2.1-0.5c0.9,0,1.7,0.2,2.5,0.5l-0.5,1.2
		c-0.8-0.3-1.5-0.5-2.1-0.5c-0.8,0-1.3,0.2-1.3,0.7c0,0.2,0.1,0.4,0.3,0.6c0.2,0.2,0.7,0.4,1.4,0.7c0.6,0.2,1.1,0.5,1.4,0.7
		c0.3,0.2,0.5,0.4,0.6,0.7C83.4,455.5,83.5,455.8,83.5,456.2z"/>
	<path class="st0" d="M90.1,458.4l-0.2-1h-0.1c-0.2,0.4-0.5,0.6-1,0.8c-0.4,0.2-0.9,0.3-1.4,0.3c-0.9,0-1.6-0.2-2.1-0.7
		s-0.7-1.1-0.7-2.1v-4.9h1.6v4.7c0,0.6,0.1,1,0.4,1.3c0.2,0.3,0.6,0.4,1.1,0.4c0.7,0,1.2-0.2,1.5-0.6c0.3-0.4,0.5-1.1,0.5-2v-3.8
		h1.6v7.6H90.1z"/>
	<path class="st0" d="M97.1,450.7c0.3,0,0.6,0,0.8,0.1l-0.2,1.5c-0.2-0.1-0.5-0.1-0.7-0.1c-0.6,0-1.2,0.2-1.6,0.6
		c-0.4,0.4-0.6,1-0.6,1.6v4h-1.6v-7.6h1.3l0.2,1.3h0.1c0.3-0.5,0.6-0.8,1-1.1C96.2,450.8,96.7,450.7,97.1,450.7z"/>
	<path class="st0" d="M103.6,458.4l-0.3-1.1h-0.1c-0.4,0.5-0.7,0.8-1.1,0.9c-0.4,0.2-0.8,0.2-1.4,0.2c-0.7,0-1.3-0.2-1.7-0.6
		c-0.4-0.4-0.6-1-0.6-1.7c0-0.8,0.3-1.4,0.9-1.8s1.5-0.6,2.6-0.6l1.3,0v-0.4c0-0.5-0.1-0.8-0.3-1.1c-0.2-0.2-0.6-0.4-1-0.4
		c-0.4,0-0.8,0.1-1.1,0.2s-0.7,0.2-1,0.4l-0.5-1.1c0.4-0.2,0.9-0.4,1.3-0.5c0.5-0.1,0.9-0.2,1.4-0.2c1,0,1.7,0.2,2.2,0.6
		c0.5,0.4,0.7,1.1,0.7,2v5.1H103.6z M101.2,457.3c0.6,0,1.1-0.2,1.4-0.5c0.4-0.3,0.5-0.8,0.5-1.4v-0.7l-1,0c-0.8,0-1.3,0.2-1.7,0.4
		c-0.3,0.2-0.5,0.6-0.5,1c0,0.3,0.1,0.6,0.3,0.8C100.5,457.2,100.8,457.3,101.2,457.3z"/>
	<path class="st0" d="M113.3,458.4h-1.6v-4.6c0-0.6-0.1-1-0.4-1.3c-0.2-0.3-0.6-0.4-1.1-0.4c-0.7,0-1.2,0.2-1.5,0.6s-0.5,1.1-0.5,2
		v3.8h-1.6v-7.6h1.3l0.2,1h0.1c0.2-0.4,0.6-0.6,1-0.8s0.9-0.3,1.4-0.3c1.8,0,2.7,0.9,2.7,2.8V458.4z"/>
	<path class="st0" d="M118.1,458.5c-1.1,0-2-0.3-2.6-1c-0.6-0.7-0.9-1.6-0.9-2.9c0-1.3,0.3-2.2,0.9-2.9c0.6-0.7,1.5-1,2.7-1
		c0.8,0,1.5,0.1,2.2,0.4l-0.5,1.3c-0.7-0.3-1.2-0.4-1.7-0.4c-1.3,0-2,0.9-2,2.6c0,0.8,0.2,1.5,0.5,1.9c0.3,0.4,0.8,0.6,1.4,0.6
		c0.7,0,1.4-0.2,2-0.5v1.4c-0.3,0.2-0.6,0.3-0.9,0.4C119,458.5,118.6,458.5,118.1,458.5z"/>
	<path class="st0" d="M124.9,458.5c-1.2,0-2.1-0.3-2.8-1c-0.7-0.7-1-1.6-1-2.8c0-1.2,0.3-2.2,0.9-2.9s1.5-1.1,2.5-1.1
		c1,0,1.8,0.3,2.4,0.9s0.9,1.4,0.9,2.5v0.9h-5c0,0.7,0.2,1.3,0.6,1.7c0.4,0.4,0.9,0.6,1.6,0.6c0.4,0,0.9,0,1.2-0.1
		c0.4-0.1,0.8-0.2,1.2-0.4v1.3c-0.4,0.2-0.8,0.3-1.2,0.4S125.4,458.5,124.9,458.5z M124.6,451.9c-0.5,0-0.9,0.2-1.2,0.5
		c-0.3,0.3-0.5,0.8-0.6,1.4h3.4c0-0.6-0.2-1.1-0.5-1.4C125.5,452,125.1,451.9,124.6,451.9z"/>
</g>
<g>
	<path class="st0" d="M22.9,475.4l-0.3-1.1h-0.1c-0.4,0.5-0.7,0.8-1.1,0.9c-0.4,0.2-0.8,0.2-1.4,0.2c-0.7,0-1.3-0.2-1.7-0.6
		s-0.6-1-0.6-1.7c0-0.8,0.3-1.4,0.9-1.8s1.5-0.6,2.6-0.6l1.3,0v-0.4c0-0.5-0.1-0.8-0.3-1.1c-0.2-0.2-0.6-0.4-1-0.4
		c-0.4,0-0.8,0.1-1.1,0.2s-0.7,0.2-1,0.4l-0.5-1.1c0.4-0.2,0.9-0.4,1.3-0.5c0.5-0.1,0.9-0.2,1.4-0.2c1,0,1.7,0.2,2.2,0.6
		s0.7,1.1,0.7,2v5.1H22.9z M20.5,474.3c0.6,0,1.1-0.2,1.4-0.5c0.4-0.3,0.5-0.8,0.5-1.4v-0.7l-1,0c-0.8,0-1.3,0.2-1.7,0.4
		c-0.3,0.2-0.5,0.6-0.5,1c0,0.3,0.1,0.6,0.3,0.8C19.8,474.2,20.1,474.3,20.5,474.3z"/>
	<path class="st0" d="M28.7,474.2c0.4,0,0.8-0.1,1.2-0.2v1.2c-0.2,0.1-0.4,0.1-0.7,0.2c-0.3,0.1-0.6,0.1-0.9,0.1
		c-1.5,0-2.3-0.8-2.3-2.4V469h-1v-0.7l1.1-0.6l0.5-1.6h1v1.7h2.2v1.2h-2.2v4c0,0.4,0.1,0.7,0.3,0.9
		C28.1,474.1,28.4,474.2,28.7,474.2z"/>
	<path class="st0" d="M37.2,475.5c-1.1,0-2-0.3-2.6-1c-0.6-0.7-0.9-1.6-0.9-2.9c0-1.3,0.3-2.2,0.9-2.9s1.5-1,2.7-1
		c0.8,0,1.5,0.1,2.2,0.4l-0.5,1.3c-0.7-0.3-1.2-0.4-1.7-0.4c-1.3,0-2,0.9-2,2.6c0,0.8,0.2,1.5,0.5,1.9c0.3,0.4,0.8,0.6,1.4,0.6
		c0.7,0,1.4-0.2,2-0.5v1.4c-0.3,0.2-0.6,0.3-0.9,0.4S37.7,475.5,37.2,475.5z"/>
	<path class="st0" d="M47.4,471.6c0,1.2-0.3,2.2-1,2.9s-1.5,1-2.6,1c-0.7,0-1.3-0.2-1.9-0.5s-1-0.8-1.3-1.4s-0.4-1.3-0.4-2.1
		c0-1.2,0.3-2.2,0.9-2.9s1.5-1,2.7-1c1.1,0,2,0.4,2.6,1.1C47.1,469.4,47.4,470.4,47.4,471.6z M41.9,471.6c0,1.7,0.6,2.6,1.9,2.6
		c1.3,0,1.9-0.9,1.9-2.6c0-1.7-0.6-2.6-1.9-2.6c-0.7,0-1.2,0.2-1.5,0.7S41.9,470.7,41.9,471.6z"/>
	<path class="st0" d="M55.2,475.4h-1.6v-4.7c0-0.6-0.1-1-0.3-1.3c-0.2-0.3-0.6-0.4-1-0.4c-0.6,0-1.1,0.2-1.4,0.6
		c-0.3,0.4-0.4,1.1-0.4,2v3.8h-1.6v-7.6h1.3l0.2,1h0.1c0.2-0.4,0.5-0.6,0.9-0.8s0.8-0.3,1.3-0.3c1.2,0,1.9,0.4,2.3,1.2h0.1
		c0.2-0.4,0.5-0.7,0.9-0.9s0.9-0.3,1.4-0.3c0.9,0,1.6,0.2,2,0.7s0.6,1.2,0.6,2.1v4.9h-1.6v-4.7c0-0.6-0.1-1-0.3-1.3
		c-0.2-0.3-0.6-0.4-1-0.4c-0.6,0-1.1,0.2-1.4,0.6c-0.3,0.4-0.4,1-0.4,1.8V475.4z"/>
	<path class="st0" d="M65.6,475.5c-1,0-1.7-0.3-2.2-1h-0.1c0.1,0.6,0.1,1,0.1,1.2v3.1h-1.6v-10.9h1.3c0,0.1,0.1,0.5,0.2,1h0.1
		c0.5-0.8,1.3-1.1,2.3-1.1c0.9,0,1.7,0.3,2.2,1s0.8,1.6,0.8,2.9s-0.3,2.2-0.8,2.9S66.6,475.5,65.6,475.5z M65.2,469
		c-0.6,0-1.1,0.2-1.4,0.6s-0.4,1-0.4,1.8v0.2c0,0.9,0.1,1.6,0.4,2c0.3,0.4,0.8,0.6,1.4,0.6c0.6,0,1-0.2,1.3-0.7s0.5-1.1,0.5-1.9
		c0-0.8-0.1-1.5-0.4-1.9C66.3,469.2,65.8,469,65.2,469z"/>
	<path class="st0" d="M73.4,475.5c-1.2,0-2.1-0.3-2.8-1c-0.7-0.7-1-1.6-1-2.8c0-1.2,0.3-2.2,0.9-2.9s1.5-1.1,2.5-1.1
		c1,0,1.8,0.3,2.4,0.9s0.9,1.4,0.9,2.5v0.9h-5c0,0.7,0.2,1.3,0.6,1.7c0.4,0.4,0.9,0.6,1.6,0.6c0.4,0,0.9,0,1.2-0.1
		c0.4-0.1,0.8-0.2,1.2-0.4v1.3c-0.4,0.2-0.8,0.3-1.2,0.4S73.9,475.5,73.4,475.5z M73.1,468.9c-0.5,0-0.9,0.2-1.2,0.5
		s-0.5,0.8-0.6,1.4h3.4c0-0.6-0.2-1.1-0.5-1.4C74,469,73.6,468.9,73.1,468.9z"/>
	<path class="st0" d="M80.6,474.2c0.4,0,0.8-0.1,1.2-0.2v1.2c-0.2,0.1-0.4,0.1-0.7,0.2c-0.3,0.1-0.6,0.1-0.9,0.1
		c-1.5,0-2.3-0.8-2.3-2.4V469h-1v-0.7l1.1-0.6l0.5-1.6h1v1.7h2.2v1.2h-2.2v4c0,0.4,0.1,0.7,0.3,0.9C80,474.1,80.3,474.2,80.6,474.2z
		"/>
	<path class="st0" d="M82.7,465.8c0-0.3,0.1-0.5,0.2-0.7c0.2-0.2,0.4-0.2,0.7-0.2c0.3,0,0.5,0.1,0.7,0.2c0.2,0.2,0.2,0.4,0.2,0.7
		c0,0.3-0.1,0.5-0.2,0.6c-0.2,0.2-0.4,0.2-0.7,0.2c-0.3,0-0.5-0.1-0.7-0.2C82.8,466.3,82.7,466.1,82.7,465.8z M84.4,475.4h-1.6v-7.6
		h1.6V475.4z"/>
	<path class="st0" d="M89.1,474.2c0.4,0,0.8-0.1,1.2-0.2v1.2c-0.2,0.1-0.4,0.1-0.7,0.2c-0.3,0.1-0.6,0.1-0.9,0.1
		c-1.5,0-2.3-0.8-2.3-2.4V469h-1v-0.7l1.1-0.6l0.5-1.6h1v1.7h2.2v1.2h-2.2v4c0,0.4,0.1,0.7,0.3,0.9
		C88.6,474.1,88.8,474.2,89.1,474.2z"/>
	<path class="st0" d="M91.3,465.8c0-0.3,0.1-0.5,0.2-0.7c0.2-0.2,0.4-0.2,0.7-0.2c0.3,0,0.5,0.1,0.7,0.2c0.2,0.2,0.2,0.4,0.2,0.7
		c0,0.3-0.1,0.5-0.2,0.6c-0.2,0.2-0.4,0.2-0.7,0.2c-0.3,0-0.5-0.1-0.7-0.2C91.4,466.3,91.3,466.1,91.3,465.8z M93,475.4h-1.6v-7.6
		H93V475.4z"/>
	<path class="st0" d="M96.6,475.4l-2.9-7.6h1.7l1.5,4.4c0.3,0.7,0.4,1.3,0.5,1.8h0.1c0-0.3,0.2-0.9,0.5-1.8l1.5-4.4h1.7l-2.9,7.6
		H96.6z"/>
	<path class="st0" d="M105.3,475.5c-1.2,0-2.1-0.3-2.8-1c-0.7-0.7-1-1.6-1-2.8c0-1.2,0.3-2.2,0.9-2.9s1.5-1.1,2.5-1.1
		c1,0,1.8,0.3,2.4,0.9s0.9,1.4,0.9,2.5v0.9h-5c0,0.7,0.2,1.3,0.6,1.7c0.4,0.4,0.9,0.6,1.6,0.6c0.4,0,0.9,0,1.2-0.1
		c0.4-0.1,0.8-0.2,1.2-0.4v1.3c-0.4,0.2-0.8,0.3-1.2,0.4S105.8,475.5,105.3,475.5z M105,468.9c-0.5,0-0.9,0.2-1.2,0.5
		c-0.3,0.3-0.5,0.8-0.6,1.4h3.4c0-0.6-0.2-1.1-0.5-1.4C105.9,469,105.5,468.9,105,468.9z"/>
</g>
<g>
	<path class="st0" d="M24.5,484.8v0.9l-1.3,0.2c0.1,0.2,0.2,0.4,0.3,0.6s0.1,0.5,0.1,0.7c0,0.8-0.3,1.4-0.8,1.8s-1.3,0.7-2.2,0.7
		c-0.2,0-0.5,0-0.7-0.1c-0.3,0.2-0.5,0.5-0.5,0.8c0,0.2,0.1,0.3,0.2,0.4s0.5,0.1,0.9,0.1h1.3c0.8,0,1.5,0.2,1.9,0.5s0.6,0.9,0.6,1.5
		c0,0.9-0.4,1.5-1.1,2s-1.7,0.7-3.1,0.7c-1,0-1.8-0.2-2.4-0.5s-0.8-0.9-0.8-1.6c0-0.5,0.1-0.9,0.4-1.2c0.3-0.3,0.7-0.5,1.2-0.7
		c-0.2-0.1-0.4-0.2-0.5-0.4c-0.1-0.2-0.2-0.4-0.2-0.6c0-0.3,0.1-0.5,0.2-0.7s0.4-0.4,0.7-0.6c-0.4-0.2-0.7-0.4-1-0.8
		c-0.2-0.4-0.4-0.8-0.4-1.3c0-0.8,0.3-1.5,0.8-1.9s1.3-0.7,2.2-0.7c0.2,0,0.4,0,0.7,0c0.2,0,0.4,0.1,0.5,0.1H24.5z M18.6,493.5
		c0,0.3,0.2,0.6,0.5,0.8s0.8,0.3,1.3,0.3c0.9,0,1.5-0.1,2-0.4s0.6-0.6,0.6-1c0-0.3-0.1-0.6-0.4-0.7c-0.2-0.1-0.7-0.2-1.3-0.2h-1.2
		c-0.5,0-0.8,0.1-1.1,0.3C18.7,492.9,18.6,493.2,18.6,493.5z M19.3,487.2c0,0.5,0.1,0.8,0.4,1.1s0.6,0.4,1,0.4
		c0.9,0,1.4-0.5,1.4-1.5c0-0.5-0.1-0.9-0.3-1.1c-0.2-0.3-0.6-0.4-1-0.4c-0.5,0-0.8,0.1-1.1,0.4S19.3,486.7,19.3,487.2z"/>
	<path class="st0" d="M29.4,484.7c0.3,0,0.6,0,0.8,0.1l-0.2,1.5c-0.2-0.1-0.5-0.1-0.7-0.1c-0.6,0-1.2,0.2-1.6,0.6s-0.6,1-0.6,1.6v4
		h-1.6v-7.6h1.3l0.2,1.3h0.1c0.3-0.5,0.6-0.8,1-1.1S28.9,484.7,29.4,484.7z"/>
	<path class="st0" d="M37.9,488.6c0,1.2-0.3,2.2-1,2.9s-1.5,1-2.6,1c-0.7,0-1.3-0.2-1.9-0.5s-1-0.8-1.3-1.4s-0.4-1.3-0.4-2.1
		c0-1.2,0.3-2.2,0.9-2.9s1.5-1,2.7-1c1.1,0,2,0.4,2.6,1.1C37.5,486.4,37.9,487.4,37.9,488.6z M32.4,488.6c0,1.7,0.6,2.6,1.9,2.6
		c1.3,0,1.9-0.9,1.9-2.6c0-1.7-0.6-2.6-1.9-2.6c-0.7,0-1.2,0.2-1.5,0.7S32.4,487.7,32.4,488.6z"/>
	<path class="st0" d="M44.6,492.4l-0.2-1h-0.1c-0.2,0.4-0.5,0.6-1,0.8s-0.9,0.3-1.4,0.3c-0.9,0-1.6-0.2-2.1-0.7s-0.7-1.1-0.7-2.1
		v-4.9h1.6v4.7c0,0.6,0.1,1,0.4,1.3c0.2,0.3,0.6,0.4,1.1,0.4c0.7,0,1.2-0.2,1.5-0.6c0.3-0.4,0.5-1.1,0.5-2v-3.8h1.6v7.6H44.6z"/>
	<path class="st0" d="M51.6,492.5c-1,0-1.7-0.3-2.2-1h-0.1c0.1,0.6,0.1,1,0.1,1.2v3.1h-1.6v-10.9h1.3c0,0.1,0.1,0.5,0.2,1h0.1
		c0.5-0.8,1.3-1.1,2.3-1.1c0.9,0,1.7,0.3,2.2,1s0.8,1.6,0.8,2.9s-0.3,2.2-0.8,2.9S52.6,492.5,51.6,492.5z M51.2,486
		c-0.6,0-1.1,0.2-1.4,0.6s-0.4,1-0.4,1.8v0.2c0,0.9,0.1,1.6,0.4,2c0.3,0.4,0.8,0.6,1.4,0.6c0.6,0,1-0.2,1.3-0.7s0.5-1.1,0.5-1.9
		c0-0.8-0.1-1.5-0.4-1.9C52.2,486.2,51.8,486,51.2,486z"/>
	<path class="st0" d="M63.1,492.5c-1,0-1.7-0.3-2.2-1h-0.1c0.1,0.6,0.1,1,0.1,1.2v3.1h-1.6v-10.9h1.3c0,0.1,0.1,0.5,0.2,1h0.1
		c0.5-0.8,1.3-1.1,2.3-1.1c0.9,0,1.7,0.3,2.2,1s0.8,1.6,0.8,2.9s-0.3,2.2-0.8,2.9S64.1,492.5,63.1,492.5z M62.8,486
		c-0.6,0-1.1,0.2-1.4,0.6s-0.4,1-0.4,1.8v0.2c0,0.9,0.1,1.6,0.4,2c0.3,0.4,0.8,0.6,1.4,0.6c0.6,0,1-0.2,1.3-0.7s0.5-1.1,0.5-1.9
		c0-0.8-0.1-1.5-0.4-1.9C63.8,486.2,63.3,486,62.8,486z"/>
	<path class="st0" d="M71.4,484.7c0.3,0,0.6,0,0.8,0.1l-0.2,1.5c-0.2-0.1-0.5-0.1-0.7-0.1c-0.6,0-1.2,0.2-1.6,0.6s-0.6,1-0.6,1.6v4
		h-1.6v-7.6h1.3l0.2,1.3h0.1c0.3-0.5,0.6-0.8,1-1.1S71,484.7,71.4,484.7z"/>
	<path class="st0" d="M73.1,482.8c0-0.3,0.1-0.5,0.2-0.7s0.4-0.2,0.7-0.2c0.3,0,0.5,0.1,0.7,0.2s0.2,0.4,0.2,0.7
		c0,0.3-0.1,0.5-0.2,0.6c-0.2,0.2-0.4,0.2-0.7,0.2c-0.3,0-0.5-0.1-0.7-0.2C73.2,483.3,73.1,483.1,73.1,482.8z M74.8,492.4h-1.6v-7.6
		h1.6V492.4z"/>
	<path class="st0" d="M79.8,492.5c-1.1,0-2-0.3-2.6-1c-0.6-0.7-0.9-1.6-0.9-2.9c0-1.3,0.3-2.2,0.9-2.9s1.5-1,2.7-1
		c0.8,0,1.5,0.1,2.2,0.4l-0.5,1.3c-0.7-0.3-1.2-0.4-1.7-0.4c-1.3,0-2,0.9-2,2.6c0,0.8,0.2,1.5,0.5,1.9c0.3,0.4,0.8,0.6,1.4,0.6
		c0.7,0,1.4-0.2,2-0.5v1.4c-0.3,0.2-0.6,0.3-0.9,0.4C80.6,492.5,80.2,492.5,79.8,492.5z"/>
	<path class="st0" d="M83.1,482.8c0-0.3,0.1-0.5,0.2-0.7c0.2-0.2,0.4-0.2,0.7-0.2c0.3,0,0.5,0.1,0.7,0.2c0.2,0.2,0.2,0.4,0.2,0.7
		c0,0.3-0.1,0.5-0.2,0.6c-0.2,0.2-0.4,0.2-0.7,0.2c-0.3,0-0.5-0.1-0.7-0.2C83.2,483.3,83.1,483.1,83.1,482.8z M84.8,492.4h-1.6v-7.6
		h1.6V492.4z"/>
	<path class="st0" d="M93.4,492.4h-1.6v-4.6c0-0.6-0.1-1-0.4-1.3c-0.2-0.3-0.6-0.4-1.1-0.4c-0.7,0-1.2,0.2-1.5,0.6s-0.5,1.1-0.5,2
		v3.8h-1.6v-7.6H88l0.2,1h0.1c0.2-0.4,0.6-0.6,1-0.8s0.9-0.3,1.4-0.3c1.8,0,2.7,0.9,2.7,2.8V492.4z"/>
	<path class="st0" d="M101.6,484.8v0.9l-1.3,0.2c0.1,0.2,0.2,0.4,0.3,0.6s0.1,0.5,0.1,0.7c0,0.8-0.3,1.4-0.8,1.8s-1.3,0.7-2.2,0.7
		c-0.2,0-0.5,0-0.7-0.1c-0.3,0.2-0.5,0.5-0.5,0.8c0,0.2,0.1,0.3,0.2,0.4c0.2,0.1,0.5,0.1,0.9,0.1H99c0.8,0,1.5,0.2,1.9,0.5
		s0.6,0.9,0.6,1.5c0,0.9-0.4,1.5-1.1,2s-1.7,0.7-3.1,0.7c-1,0-1.8-0.2-2.4-0.5s-0.8-0.9-0.8-1.6c0-0.5,0.1-0.9,0.4-1.2
		c0.3-0.3,0.7-0.5,1.2-0.7c-0.2-0.1-0.4-0.2-0.5-0.4c-0.1-0.2-0.2-0.4-0.2-0.6c0-0.3,0.1-0.5,0.2-0.7s0.4-0.4,0.7-0.6
		c-0.4-0.2-0.7-0.4-1-0.8c-0.2-0.4-0.4-0.8-0.4-1.3c0-0.8,0.3-1.5,0.8-1.9c0.5-0.5,1.3-0.7,2.2-0.7c0.2,0,0.4,0,0.7,0
		c0.2,0,0.4,0.1,0.5,0.1H101.6z M95.7,493.5c0,0.3,0.2,0.6,0.5,0.8c0.3,0.2,0.8,0.3,1.3,0.3c0.9,0,1.5-0.1,2-0.4s0.6-0.6,0.6-1
		c0-0.3-0.1-0.6-0.4-0.7c-0.2-0.1-0.7-0.2-1.3-0.2h-1.2c-0.5,0-0.8,0.1-1.1,0.3C95.8,492.9,95.7,493.2,95.7,493.5z M96.3,487.2
		c0,0.5,0.1,0.8,0.4,1.1c0.2,0.3,0.6,0.4,1,0.4c0.9,0,1.4-0.5,1.4-1.5c0-0.5-0.1-0.9-0.3-1.1c-0.2-0.3-0.6-0.4-1-0.4
		c-0.5,0-0.8,0.1-1.1,0.4C96.5,486.4,96.3,486.7,96.3,487.2z"/>
	<path class="st0" d="M102.3,491.5c0-0.3,0.1-0.6,0.3-0.8s0.4-0.3,0.8-0.3c0.3,0,0.6,0.1,0.8,0.3c0.2,0.2,0.3,0.4,0.3,0.8
		c0,0.3-0.1,0.6-0.3,0.8c-0.2,0.2-0.4,0.3-0.8,0.3s-0.6-0.1-0.8-0.3S102.3,491.8,102.3,491.5z"/>
</g>
</svg>
