<?xml version="1.0" encoding="utf-8"?>
<!-- Generator: Adobe Illustrator 22.1.0, SVG Export Plug-In . SVG Version: 6.00 Build 0)  -->
<svg version="1.1" id="Layer_1" xmlns="http://www.w3.org/2000/svg" xmlns:xlink="http://www.w3.org/1999/xlink" x="0px" y="0px"
	 viewBox="0 0 160 600" style="enable-background:new 0 0 160 600;" xml:space="preserve">
<style type="text/css">
	.st0{fill:#FFFFFF;}
</style>
<g>
	<path class="st0" d="M31.2,173.8h-4.3v-6.4H22v6.4h-4.3v-15.7H22v5.8h4.9v-5.8h4.3V173.8z"/>
	<path class="st0" d="M45.3,167.7c0,2-0.5,3.5-1.6,4.7c-1.1,1.1-2.6,1.7-4.5,1.7c-1.8,0-3.3-0.6-4.4-1.7c-1.1-1.1-1.6-2.7-1.6-4.6
		c0-2,0.5-3.5,1.6-4.6c1.1-1.1,2.6-1.6,4.5-1.6c1.2,0,2.3,0.3,3.2,0.8c0.9,0.5,1.6,1.2,2.1,2.2C45,165.3,45.3,166.5,45.3,167.7z
		 M37.4,167.7c0,1,0.1,1.8,0.4,2.4s0.7,0.8,1.4,0.8c0.7,0,1.1-0.3,1.4-0.8s0.4-1.3,0.4-2.4c0-1-0.1-1.8-0.4-2.4
		c-0.3-0.5-0.7-0.8-1.4-0.8c-0.6,0-1.1,0.3-1.4,0.8S37.4,166.7,37.4,167.7z"/>
	<path class="st0" d="M54.7,173.8v-6.6c0-0.8-0.1-1.4-0.3-1.8c-0.2-0.4-0.6-0.6-1.1-0.6c-0.7,0-1.2,0.3-1.5,0.8
		c-0.3,0.6-0.5,1.5-0.5,2.9v5.3H47v-12.2h3.2l0.5,1.5H51c0.4-0.6,0.9-1,1.5-1.3c0.6-0.3,1.4-0.4,2.2-0.4c1.3,0,2.4,0.4,3.1,1.2
		c0.7,0.8,1.1,1.9,1.1,3.3v7.9H54.7z"/>
	<path class="st0" d="M72.7,167.7c0,2-0.5,3.5-1.6,4.7c-1.1,1.1-2.6,1.7-4.5,1.7c-1.8,0-3.3-0.6-4.4-1.7c-1.1-1.1-1.6-2.7-1.6-4.6
		c0-2,0.5-3.5,1.6-4.6c1.1-1.1,2.6-1.6,4.5-1.6c1.2,0,2.3,0.3,3.2,0.8c0.9,0.5,1.6,1.2,2.1,2.2C72.5,165.3,72.7,166.5,72.7,167.7z
		 M64.9,167.7c0,1,0.1,1.8,0.4,2.4s0.7,0.8,1.4,0.8c0.7,0,1.1-0.3,1.4-0.8s0.4-1.3,0.4-2.4c0-1-0.1-1.8-0.4-2.4
		c-0.3-0.5-0.7-0.8-1.4-0.8c-0.6,0-1.1,0.3-1.4,0.8S64.9,166.7,64.9,167.7z"/>
	<path class="st0" d="M81.8,161.4c0.4,0,0.7,0,1,0.1l0.2,0l-0.4,4c-0.3-0.1-0.8-0.1-1.4-0.1c-0.9,0-1.6,0.2-2,0.6
		c-0.4,0.4-0.6,1-0.6,1.8v6h-4.2v-12.2h3.1l0.7,1.9h0.2c0.4-0.6,0.8-1.2,1.5-1.6C80.6,161.6,81.2,161.4,81.8,161.4z"/>
	<path class="st0" d="M84.1,158.6c0-0.6,0.2-1.1,0.5-1.4c0.4-0.3,0.9-0.5,1.7-0.5s1.3,0.2,1.7,0.5c0.4,0.3,0.5,0.8,0.5,1.4
		c0,1.2-0.7,1.8-2.2,1.8C84.8,160.5,84.1,159.9,84.1,158.6z M88.4,173.8h-4.2v-12.2h4.2V173.8z"/>
	<path class="st0" d="M98.3,173.8v-6.6c0-0.8-0.1-1.4-0.3-1.8c-0.2-0.4-0.6-0.6-1.1-0.6c-0.7,0-1.2,0.3-1.5,0.8
		c-0.3,0.6-0.5,1.5-0.5,2.9v5.3h-4.2v-12.2h3.2l0.5,1.5h0.2c0.4-0.6,0.9-1,1.5-1.3c0.6-0.3,1.4-0.4,2.2-0.4c1.3,0,2.4,0.4,3.1,1.2
		c0.7,0.8,1.1,1.9,1.1,3.3v7.9H98.3z"/>
	<path class="st0" d="M116.2,161.7v2l-1.7,0.6c0.2,0.4,0.3,0.9,0.3,1.5c0,1.3-0.5,2.3-1.4,3.1c-0.9,0.7-2.3,1.1-4.1,1.1
		c-0.5,0-0.8,0-1.1-0.1c-0.1,0.2-0.2,0.4-0.2,0.5c0,0.2,0.2,0.4,0.5,0.5c0.3,0.1,0.8,0.2,1.3,0.2h2c2.7,0,4.1,1.1,4.1,3.4
		c0,1.5-0.6,2.6-1.9,3.5c-1.3,0.8-3,1.2-5.3,1.2c-1.7,0-3.1-0.3-4-0.9c-0.9-0.6-1.4-1.4-1.4-2.5c0-1.5,0.9-2.4,2.7-2.8
		c-0.4-0.2-0.7-0.4-1-0.8c-0.3-0.4-0.4-0.7-0.4-1c0-0.4,0.1-0.7,0.3-1s0.6-0.6,1.3-1c-0.6-0.3-1.1-0.7-1.5-1.3
		c-0.4-0.6-0.5-1.3-0.5-2.2c0-1.3,0.5-2.4,1.4-3.1s2.2-1.1,3.9-1.1c0.2,0,0.6,0,1.1,0.1c0.5,0.1,0.9,0.1,1.2,0.1H116.2z M107,175.3
		c0,0.3,0.2,0.6,0.6,0.8c0.4,0.2,0.9,0.3,1.5,0.3c1,0,1.8-0.1,2.4-0.4c0.6-0.3,0.9-0.6,0.9-1c0-0.3-0.2-0.5-0.6-0.7
		c-0.4-0.1-0.9-0.2-1.6-0.2h-1.6c-0.5,0-0.8,0.1-1.1,0.3C107.2,174.8,107,175,107,175.3z M108.4,165.6c0,1.2,0.4,1.9,1.3,1.9
		c0.4,0,0.7-0.2,0.9-0.5c0.2-0.3,0.3-0.8,0.3-1.4c0-1.3-0.4-1.9-1.3-1.9C108.8,163.8,108.4,164.4,108.4,165.6z"/>
</g>
<g>
	<path class="st0" d="M23.4,194.7c0.6,0,1.2-0.1,2-0.4v3.1c-0.6,0.2-1.1,0.4-1.6,0.5c-0.5,0.1-1.1,0.2-1.8,0.2c-1.4,0-2.4-0.3-3.1-1
		c-0.6-0.7-0.9-1.8-0.9-3.2v-5h-1.5v-1.7l1.9-1.3l1.1-2.6h2.8v2.4h3v3.1h-3v4.7C22.3,194.3,22.7,194.7,23.4,194.7z"/>
	<path class="st0" d="M34.6,197.8v-6.6c0-1.6-0.5-2.4-1.5-2.4c-0.7,0-1.2,0.3-1.5,0.9c-0.3,0.6-0.5,1.5-0.5,2.9v5.3h-4.2v-16.7h4.2
		v2.4c0,1.1-0.1,2.3-0.2,3.7h0.2c0.4-0.6,0.9-1.1,1.4-1.3c0.6-0.3,1.2-0.4,1.9-0.4c1.4,0,2.4,0.4,3.2,1.2c0.8,0.8,1.1,1.9,1.1,3.3
		v7.9H34.6z"/>
	<path class="st0" d="M46.9,198c-2,0-3.6-0.5-4.7-1.6c-1.1-1.1-1.7-2.6-1.7-4.6c0-2.1,0.5-3.6,1.6-4.7c1-1.1,2.5-1.6,4.4-1.6
		c1.8,0,3.2,0.5,4.2,1.4s1.5,2.3,1.5,4.1v1.9h-7.5c0,0.7,0.3,1.2,0.7,1.6c0.5,0.4,1.1,0.6,1.9,0.6c0.7,0,1.4-0.1,2-0.2
		c0.6-0.1,1.3-0.4,2-0.7v3c-0.7,0.3-1.3,0.6-2,0.7C48.7,198,47.9,198,46.9,198z M46.7,188.3c-0.5,0-0.9,0.2-1.2,0.5
		s-0.5,0.8-0.6,1.5h3.6c0-0.6-0.2-1.1-0.5-1.4C47.6,188.5,47.2,188.3,46.7,188.3z"/>
	<path class="st0" d="M66.5,185.4c1.3,0,2.4,0.6,3.2,1.7c0.8,1.1,1.2,2.6,1.2,4.6c0,2-0.4,3.5-1.2,4.6c-0.8,1.1-1.9,1.7-3.3,1.7
		c-0.5,0-0.9,0-1.2-0.1c-0.4-0.1-0.7-0.2-0.9-0.4c-0.3-0.2-0.6-0.5-1-0.9H63l-0.7,1.2h-3.3v-16.7h4.2v3.8c0,0.5-0.1,1.2-0.2,2.3h0.2
		c0.4-0.6,0.9-1.1,1.4-1.4C65.2,185.6,65.8,185.4,66.5,185.4z M65,188.7c-0.6,0-1,0.2-1.3,0.6c-0.3,0.4-0.4,1-0.4,1.9v0.6
		c0,1,0.1,1.7,0.4,2.1c0.3,0.4,0.7,0.6,1.3,0.6c0.5,0,0.9-0.3,1.1-0.8c0.3-0.5,0.4-1.2,0.4-2.2C66.5,189.7,66,188.7,65,188.7z"/>
	<path class="st0" d="M72.5,182.6c0-0.6,0.2-1.1,0.5-1.4c0.4-0.3,0.9-0.5,1.7-0.5c0.8,0,1.3,0.2,1.7,0.5c0.4,0.3,0.5,0.8,0.5,1.4
		c0,1.2-0.7,1.8-2.2,1.8C73.2,184.5,72.5,183.9,72.5,182.6z M76.8,197.8h-4.2v-12.2h4.2V197.8z"/>
	<path class="st0" d="M86.4,185.4c0.4,0,0.7,0,1,0.1l0.2,0l-0.4,4c-0.3-0.1-0.8-0.1-1.4-0.1c-0.9,0-1.6,0.2-2,0.6
		c-0.4,0.4-0.6,1-0.6,1.8v6H79v-12.2h3.1l0.7,1.9H83c0.4-0.6,0.8-1.2,1.5-1.6S85.8,185.4,86.4,185.4z"/>
	<path class="st0" d="M94.7,194.7c0.6,0,1.2-0.1,2-0.4v3.1c-0.6,0.2-1.1,0.4-1.6,0.5c-0.5,0.1-1.1,0.2-1.8,0.2c-1.4,0-2.4-0.3-3.1-1
		c-0.6-0.7-0.9-1.8-0.9-3.2v-5h-1.5v-1.7l1.9-1.3l1.1-2.6h2.8v2.4h3v3.1h-3v4.7C93.5,194.3,93.9,194.7,94.7,194.7z"/>
	<path class="st0" d="M105.8,197.8v-6.6c0-1.6-0.5-2.4-1.5-2.4c-0.7,0-1.2,0.3-1.5,0.9c-0.3,0.6-0.5,1.5-0.5,2.9v5.3h-4.2v-16.7h4.2
		v2.4c0,1.1-0.1,2.3-0.2,3.7h0.2c0.4-0.6,0.9-1.1,1.4-1.3s1.2-0.4,1.9-0.4c1.4,0,2.4,0.4,3.2,1.2c0.8,0.8,1.1,1.9,1.1,3.3v7.9H105.8
		z"/>
</g>
<g>
	<path class="st0" d="M29.1,219.7c0,2-0.5,3.5-1.6,4.7c-1.1,1.1-2.6,1.7-4.5,1.7c-1.8,0-3.3-0.6-4.4-1.7c-1.1-1.1-1.6-2.7-1.6-4.6
		c0-2,0.5-3.5,1.6-4.6c1.1-1.1,2.6-1.6,4.5-1.6c1.2,0,2.3,0.3,3.2,0.8c0.9,0.5,1.6,1.2,2.1,2.2C28.8,217.4,29.1,218.5,29.1,219.7z
		 M21.2,219.7c0,1,0.1,1.8,0.4,2.4s0.7,0.8,1.4,0.8c0.7,0,1.1-0.3,1.4-0.8s0.4-1.3,0.4-2.4c0-1-0.1-1.8-0.4-2.4
		c-0.3-0.5-0.7-0.8-1.4-0.8c-0.6,0-1.1,0.3-1.4,0.8S21.2,218.7,21.2,219.7z"/>
	<path class="st0" d="M38.3,216.8h-2.6v9h-4.2v-9h-1.6v-2.1l1.7-1v-0.2c0-1.6,0.3-2.8,1-3.5c0.7-0.7,1.7-1.1,3.2-1.1
		c0.6,0,1.1,0,1.6,0.1c0.5,0.1,1.1,0.2,1.7,0.5l-0.9,2.7c-0.5-0.1-1-0.2-1.5-0.2c-0.3,0-0.6,0.1-0.7,0.3c-0.1,0.2-0.2,0.5-0.2,1v0.3
		h2.6V216.8z"/>
	<path class="st0" d="M50.3,222.7c0.6,0,1.2-0.1,2-0.4v3.1c-0.6,0.2-1.1,0.4-1.6,0.5c-0.5,0.1-1.1,0.2-1.8,0.2c-1.4,0-2.4-0.3-3.1-1
		c-0.6-0.7-0.9-1.8-0.9-3.2v-5h-1.5v-1.7l1.9-1.3l1.1-2.6h2.8v2.4h3v3.1h-3v4.7C49.2,222.3,49.5,222.7,50.3,222.7z"/>
	<path class="st0" d="M61.5,225.8v-6.6c0-1.6-0.5-2.4-1.5-2.4c-0.7,0-1.2,0.3-1.5,0.9c-0.3,0.6-0.5,1.5-0.5,2.9v5.3h-4.2v-16.7H58
		v2.4c0,1.1-0.1,2.3-0.2,3.7H58c0.4-0.6,0.9-1.1,1.4-1.3c0.6-0.3,1.2-0.4,1.9-0.4c1.4,0,2.4,0.4,3.2,1.2c0.8,0.8,1.1,1.9,1.1,3.3
		v7.9H61.5z"/>
	<path class="st0" d="M73.8,226.1c-2,0-3.6-0.5-4.7-1.6c-1.1-1.1-1.7-2.6-1.7-4.6c0-2.1,0.5-3.6,1.6-4.7c1-1.1,2.5-1.6,4.4-1.6
		c1.8,0,3.2,0.5,4.2,1.4s1.5,2.3,1.5,4.1v1.9h-7.5c0,0.7,0.3,1.2,0.7,1.6c0.5,0.4,1.1,0.6,1.9,0.6c0.7,0,1.4-0.1,2-0.2
		c0.6-0.1,1.3-0.4,2-0.7v3c-0.7,0.3-1.3,0.6-2,0.7C75.6,226,74.8,226.1,73.8,226.1z M73.5,216.3c-0.5,0-0.9,0.2-1.2,0.5
		s-0.5,0.8-0.6,1.5h3.6c0-0.6-0.2-1.1-0.5-1.4C74.5,216.5,74.1,216.3,73.5,216.3z"/>
</g>
<g>
	<path class="st0" d="M31.1,238.1v9.5c0,2.1-0.6,3.6-1.7,4.8c-1.2,1.1-2.8,1.7-5,1.7c-2.1,0-3.8-0.5-4.9-1.6s-1.7-2.7-1.7-4.7v-9.5
		h4.3v9.2c0,1.1,0.2,1.9,0.6,2.4c0.4,0.5,1,0.8,1.8,0.8c0.9,0,1.5-0.2,1.9-0.7c0.4-0.5,0.6-1.3,0.6-2.4v-9.2H31.1z"/>
	<path class="st0" d="M33,252.1c0-0.7,0.2-1.2,0.6-1.5c0.4-0.4,1-0.5,1.7-0.5c0.7,0,1.3,0.2,1.6,0.5c0.4,0.4,0.6,0.9,0.6,1.5
		c0,0.6-0.2,1.1-0.6,1.5c-0.4,0.4-0.9,0.5-1.6,0.5c-0.7,0-1.3-0.2-1.7-0.5S33,252.7,33,252.1z"/>
	<path class="st0" d="M49.7,249.1c0,1-0.2,1.8-0.7,2.6c-0.5,0.8-1.2,1.3-2.1,1.8c-0.9,0.4-2,0.6-3.3,0.6c-1,0-1.9-0.1-2.6-0.2
		s-1.4-0.4-2.2-0.8v-3.8c0.8,0.4,1.7,0.7,2.5,1c0.9,0.2,1.7,0.3,2.4,0.3c0.6,0,1.1-0.1,1.4-0.3c0.3-0.2,0.4-0.5,0.4-0.8
		c0-0.2-0.1-0.4-0.2-0.6s-0.3-0.3-0.6-0.5c-0.3-0.2-1-0.5-2.1-1c-1-0.5-1.8-0.9-2.3-1.4c-0.5-0.4-0.9-0.9-1.1-1.5
		c-0.2-0.6-0.4-1.2-0.4-2c0-1.4,0.5-2.6,1.6-3.4c1.1-0.8,2.5-1.2,4.3-1.2c1.6,0,3.3,0.4,5,1.1l-1.3,3.3c-1.5-0.7-2.7-1-3.8-1
		c-0.6,0-1,0.1-1.2,0.3c-0.3,0.2-0.4,0.4-0.4,0.7c0,0.3,0.2,0.6,0.5,0.8c0.3,0.2,1.2,0.7,2.6,1.3c1.4,0.6,2.3,1.3,2.8,2
		S49.7,248,49.7,249.1z"/>
	<path class="st0" d="M50.7,252.1c0-0.7,0.2-1.2,0.6-1.5c0.4-0.4,1-0.5,1.7-0.5c0.7,0,1.3,0.2,1.6,0.5c0.4,0.4,0.6,0.9,0.6,1.5
		c0,0.6-0.2,1.1-0.6,1.5c-0.4,0.4-0.9,0.5-1.6,0.5c-0.7,0-1.3-0.2-1.7-0.5S50.7,252.7,50.7,252.1z"/>
	<path class="st0" d="M71.9,253.8l-0.8-2.9H66l-0.8,2.9h-4.7l5.1-15.8h5.7l5.2,15.8H71.9z M70.2,247.4l-0.7-2.6
		c-0.2-0.6-0.3-1.3-0.6-2.2c-0.2-0.9-0.4-1.6-0.4-2c-0.1,0.4-0.2,1-0.4,1.8c-0.2,0.8-0.6,2.5-1.3,5H70.2z"/>
	<path class="st0" d="M84.7,241.5c0.4,0,0.7,0,1,0.1l0.2,0l-0.4,4c-0.3-0.1-0.8-0.1-1.4-0.1c-0.9,0-1.6,0.2-2,0.6s-0.6,1-0.6,1.8v6
		h-4.2v-12.2h3.1l0.7,1.9h0.2c0.4-0.6,0.8-1.2,1.5-1.6C83.4,241.7,84,241.5,84.7,241.5z"/>
	<path class="st0" d="M101.9,253.8v-6.6c0-0.8-0.1-1.4-0.3-1.9c-0.2-0.4-0.6-0.6-1.1-0.6c-0.6,0-1.1,0.3-1.4,0.8
		c-0.3,0.6-0.5,1.4-0.5,2.6v5.7h-4.2v-6.6c0-0.8-0.1-1.4-0.3-1.9c-0.2-0.4-0.6-0.6-1-0.6c-0.7,0-1.1,0.3-1.4,0.9
		c-0.3,0.6-0.5,1.5-0.5,2.9v5.3H87v-12.2h3.2l0.5,1.5h0.2c0.3-0.6,0.8-1,1.4-1.3c0.6-0.3,1.3-0.4,2.1-0.4c1.8,0,3,0.5,3.7,1.6h0.3
		c0.3-0.5,0.8-0.9,1.4-1.2c0.6-0.3,1.3-0.4,2-0.4c1.4,0,2.5,0.4,3.2,1.1c0.7,0.7,1,1.9,1,3.4v7.9H101.9z"/>
	<path class="st0" d="M106.8,241.7h4.4l2.1,7c0.1,0.4,0.2,0.8,0.2,1.3h0.1c0.1-0.5,0.1-0.9,0.3-1.3l2.1-7h4.3l-4.8,12.9
		c-0.6,1.6-1.4,2.8-2.3,3.5c-0.9,0.7-2.1,1-3.5,1c-0.6,0-1.1-0.1-1.7-0.2v-3.3c0.4,0.1,0.8,0.1,1.3,0.1c0.4,0,0.7-0.1,1-0.2
		c0.3-0.1,0.5-0.3,0.7-0.6c0.2-0.3,0.4-0.7,0.7-1.3L106.8,241.7z"/>
	<path class="st0" d="M120.6,252.1c0-0.7,0.2-1.2,0.6-1.5c0.4-0.4,1-0.5,1.7-0.5c0.7,0,1.3,0.2,1.6,0.5c0.4,0.4,0.6,0.9,0.6,1.5
		c0,0.6-0.2,1.1-0.6,1.5c-0.4,0.4-0.9,0.5-1.6,0.5c-0.7,0-1.3-0.2-1.7-0.5S120.6,252.7,120.6,252.1z"/>
</g>
<g>
	<path class="st0" d="M27,289.8h-9.3v-15.7H27v3.4H22v2.5h4.7v3.4H22v3H27V289.8z"/>
	<path class="st0" d="M38.3,286.1c0,1.3-0.4,2.3-1.3,3c-0.9,0.7-2.2,1-3.8,1c-0.9,0-1.7,0-2.4-0.1s-1.3-0.3-2-0.5V286
		c0.7,0.3,1.4,0.5,2.1,0.7c0.8,0.2,1.5,0.3,2.1,0.3c0.9,0,1.4-0.2,1.4-0.6c0-0.2-0.1-0.4-0.4-0.6c-0.3-0.2-1-0.5-2.2-1
		c-1.1-0.5-1.9-1-2.3-1.6c-0.4-0.6-0.7-1.3-0.7-2.2c0-1.1,0.4-2,1.3-2.6c0.9-0.6,2.1-0.9,3.7-0.9c0.8,0,1.6,0.1,2.3,0.3
		c0.7,0.2,1.4,0.4,2.2,0.8l-1.1,2.7c-0.6-0.3-1.1-0.5-1.8-0.6c-0.6-0.2-1.1-0.3-1.5-0.3c-0.7,0-1,0.2-1,0.5c0,0.2,0.1,0.4,0.4,0.5
		c0.2,0.1,0.9,0.4,2.1,0.9c0.9,0.4,1.5,0.7,1.9,1c0.4,0.3,0.7,0.7,0.9,1.2C38.2,284.9,38.3,285.4,38.3,286.1z"/>
	<path class="st0" d="M45.9,286.7c0.6,0,1.2-0.1,2-0.4v3.1c-0.6,0.2-1.1,0.4-1.6,0.5c-0.5,0.1-1.1,0.2-1.8,0.2c-1.4,0-2.4-0.3-3.1-1
		c-0.6-0.7-0.9-1.8-0.9-3.2v-5h-1.5v-1.7l1.9-1.3l1.1-2.6h2.8v2.4h3v3.1h-3v4.7C44.8,286.3,45.2,286.7,45.9,286.7z"/>
	<path class="st0" d="M57.4,289.8l-0.8-1.6h-0.1c-0.6,0.7-1.1,1.2-1.7,1.4c-0.6,0.3-1.3,0.4-2.3,0.4c-1.1,0-2-0.3-2.7-1
		c-0.7-0.7-1-1.7-1-2.9c0-1.3,0.5-2.3,1.4-2.9s2.2-1,3.9-1.1l2-0.1v-0.2c0-1-0.5-1.5-1.5-1.5c-0.9,0-2,0.3-3.4,0.9l-1.2-2.8
		c1.4-0.7,3.2-1.1,5.4-1.1c1.6,0,2.8,0.4,3.6,1.2c0.9,0.8,1.3,1.9,1.3,3.2v8H57.4z M54.3,287.1c0.5,0,0.9-0.2,1.3-0.5
		c0.4-0.3,0.5-0.7,0.5-1.3v-0.9l-1,0c-1.4,0.1-2.1,0.6-2.1,1.5C53.1,286.7,53.5,287.1,54.3,287.1z"/>
	<path class="st0" d="M69.9,277.5c1.3,0,2.4,0.6,3.2,1.7c0.8,1.1,1.2,2.6,1.2,4.6c0,2-0.4,3.5-1.2,4.6c-0.8,1.1-1.9,1.7-3.3,1.7
		c-0.5,0-0.9,0-1.2-0.1c-0.4-0.1-0.7-0.2-0.9-0.4c-0.3-0.2-0.6-0.5-1-0.9h-0.3l-0.7,1.2h-3.3v-16.7h4.2v3.8c0,0.5-0.1,1.2-0.2,2.3
		h0.2c0.4-0.6,0.9-1.1,1.4-1.4C68.6,277.6,69.3,277.5,69.9,277.5z M68.4,280.8c-0.6,0-1,0.2-1.3,0.6c-0.3,0.4-0.4,1-0.4,1.9v0.6
		c0,1,0.1,1.7,0.4,2.1c0.3,0.4,0.7,0.6,1.3,0.6c0.5,0,0.9-0.3,1.1-0.8c0.3-0.5,0.4-1.2,0.4-2.2C70,281.7,69.5,280.8,68.4,280.8z"/>
	<path class="st0" d="M80.2,289.8H76v-16.7h4.2V289.8z"/>
	<path class="st0" d="M82.4,274.6c0-0.6,0.2-1.1,0.5-1.4c0.4-0.3,0.9-0.5,1.7-0.5s1.3,0.2,1.7,0.5c0.4,0.3,0.5,0.8,0.5,1.4
		c0,1.2-0.7,1.8-2.2,1.8C83.1,276.5,82.4,275.9,82.4,274.6z M86.7,289.8h-4.2v-12.2h4.2V289.8z"/>
	<path class="st0" d="M98.3,286.1c0,1.3-0.4,2.3-1.3,3s-2.2,1-3.8,1c-0.9,0-1.7,0-2.4-0.1s-1.3-0.3-2-0.5V286
		c0.7,0.3,1.4,0.5,2.1,0.7c0.8,0.2,1.5,0.3,2.1,0.3c0.9,0,1.4-0.2,1.4-0.6c0-0.2-0.1-0.4-0.4-0.6c-0.3-0.2-1-0.5-2.2-1
		c-1.1-0.5-1.9-1-2.3-1.6c-0.4-0.6-0.7-1.3-0.7-2.2c0-1.1,0.4-2,1.3-2.6c0.9-0.6,2.1-0.9,3.7-0.9c0.8,0,1.6,0.1,2.3,0.3
		c0.7,0.2,1.4,0.4,2.2,0.8l-1.1,2.7c-0.6-0.3-1.1-0.5-1.8-0.6c-0.6-0.2-1.1-0.3-1.5-0.3c-0.7,0-1,0.2-1,0.5c0,0.2,0.1,0.4,0.4,0.5
		c0.2,0.1,0.9,0.4,2.1,0.9c0.9,0.4,1.5,0.7,1.9,1c0.4,0.3,0.7,0.7,0.9,1.2C98.2,284.9,98.3,285.4,98.3,286.1z"/>
	<path class="st0" d="M107.7,289.8v-6.6c0-1.6-0.5-2.4-1.5-2.4c-0.7,0-1.2,0.3-1.5,0.9c-0.3,0.6-0.5,1.5-0.5,2.9v5.3H100v-16.7h4.2
		v2.4c0,1.1-0.1,2.3-0.2,3.7h0.2c0.4-0.6,0.9-1.1,1.4-1.3s1.2-0.4,1.9-0.4c1.4,0,2.4,0.4,3.2,1.2c0.8,0.8,1.1,1.9,1.1,3.3v7.9H107.7
		z"/>
	<path class="st0" d="M120,290.1c-2,0-3.6-0.5-4.7-1.6c-1.1-1.1-1.7-2.6-1.7-4.6c0-2.1,0.5-3.6,1.6-4.7c1-1.1,2.5-1.6,4.4-1.6
		c1.8,0,3.2,0.5,4.2,1.4c1,1,1.5,2.3,1.5,4.1v1.9h-7.5c0,0.7,0.3,1.2,0.7,1.6c0.5,0.4,1.1,0.6,1.9,0.6c0.7,0,1.4-0.1,2-0.2
		c0.6-0.1,1.3-0.4,2-0.7v3c-0.7,0.3-1.3,0.6-2,0.7S121,290.1,120,290.1z M119.7,280.3c-0.5,0-0.9,0.2-1.2,0.5
		c-0.3,0.3-0.5,0.8-0.6,1.5h3.6c0-0.6-0.2-1.1-0.5-1.4C120.7,280.5,120.3,280.3,119.7,280.3z"/>
	<path class="st0" d="M130.8,290.1c-0.9,0-1.6-0.2-2.3-0.7c-0.6-0.5-1.1-1.2-1.5-2.2c-0.4-1-0.5-2.1-0.5-3.4c0-2,0.4-3.5,1.2-4.6
		s1.9-1.7,3.3-1.7c0.7,0,1.3,0.1,1.8,0.4c0.5,0.3,1,0.7,1.4,1.4h0.1c-0.1-1-0.2-1.9-0.2-2.9v-3.3h4.2v16.7h-3.2l-0.9-1.5h-0.2
		C133.3,289.5,132.3,290.1,130.8,290.1z M132.5,286.7c0.7,0,1.1-0.2,1.4-0.6c0.3-0.4,0.4-1.1,0.4-2v-0.3c0-1.1-0.2-1.8-0.5-2.3
		c-0.3-0.5-0.8-0.7-1.5-0.7c-0.6,0-1,0.3-1.3,0.8c-0.3,0.5-0.5,1.3-0.5,2.2c0,0.9,0.2,1.7,0.5,2.2S132,286.7,132.5,286.7z"/>
</g>
<g>
	<path class="st0" d="M26.1,313.8h-4.3v-8.3c0-1,0-1.9,0.1-2.8c-0.3,0.3-0.6,0.7-1,1l-1.8,1.5l-2.2-2.7l5.4-4.4h3.8V313.8z"/>
	<path class="st0" d="M30.5,313.8l5.4-12.2h-6.8v-3.5h11.3v2.5l-5.5,13.2H30.5z"/>
	<path class="st0" d="M42.8,313.8l5.4-12.2h-6.8v-3.5h11.3v2.5l-5.5,13.2H42.8z"/>
	<path class="st0" d="M59.9,303.5c0.9,0,1.7,0.2,2.4,0.6c0.7,0.4,1.3,1,1.7,1.8c0.4,0.8,0.6,1.7,0.6,2.7c0,1.8-0.5,3.1-1.6,4
		c-1.1,0.9-2.7,1.4-4.8,1.4c-1.8,0-3.3-0.3-4.5-0.8v-3.5c0.6,0.3,1.3,0.5,2.1,0.7s1.5,0.3,2,0.3c0.8,0,1.4-0.2,1.8-0.5
		c0.4-0.3,0.6-0.8,0.6-1.5c0-0.6-0.2-1.1-0.6-1.4s-1.1-0.5-2-0.5c-0.7,0-1.4,0.1-2.2,0.4l-1.6-0.8l0.6-8.3h9v3.5h-5.3l-0.2,2.1
		c0.6-0.1,1-0.2,1.2-0.2C59.5,303.6,59.7,303.5,59.9,303.5z"/>
	<path class="st0" d="M66,312.1c0-0.7,0.2-1.2,0.6-1.5c0.4-0.4,1-0.5,1.7-0.5c0.7,0,1.3,0.2,1.6,0.5c0.4,0.4,0.6,0.9,0.6,1.5
		c0,0.6-0.2,1.1-0.6,1.5c-0.4,0.4-0.9,0.5-1.6,0.5c-0.7,0-1.3-0.2-1.7-0.5S66,312.7,66,312.1z"/>
</g>
</svg>
