<svg id="Layer_1" xmlns="http://www.w3.org/2000/svg" viewBox="0 0 300 250"><style>.st0{fill:#fff}</style><path class="st0" d="M38.8 131.2h-4.7v-7h-5.4v7H24v-17.1h4.7v6.4h5.4v-6.4h4.7v17.1zM54.5 124.6c0 2.2-.6 3.9-1.8 5.1s-2.8 1.8-4.9 1.8c-2 0-3.6-.6-4.8-1.9s-1.8-2.9-1.8-5c0-2.2.6-3.8 1.8-5s2.8-1.8 4.9-1.8c1.3 0 2.5.3 3.5.8s1.8 1.3 2.3 2.4.8 2.2.8 3.6zm-8.6 0c0 1.1.2 2 .5 2.6s.8.9 1.5.9 1.2-.3 1.5-.9.4-1.5.4-2.6-.1-2-.4-2.6-.8-.9-1.5-.9-1.2.3-1.5.9-.5 1.4-.5 2.6zM65 131.2V124c0-.9-.1-1.5-.4-2s-.7-.7-1.2-.7c-.8 0-1.3.3-1.7.9s-.5 1.7-.5 3.2v5.8h-4.6V118H60l.6 1.6h.3c.4-.6.9-1.1 1.6-1.4s1.5-.5 2.4-.5c1.5 0 2.6.4 3.4 1.3s1.2 2.1 1.2 3.6v8.6H65zM84.9 124.6c0 2.2-.6 3.9-1.8 5.1s-2.8 1.8-4.9 1.8c-2 0-3.6-.6-4.8-1.9s-1.8-2.9-1.8-5c0-2.2.6-3.8 1.8-5s2.8-1.8 4.9-1.8c1.3 0 2.5.3 3.5.8s1.8 1.3 2.3 2.4.8 2.2.8 3.6zm-8.6 0c0 1.1.2 2 .5 2.6s.8.9 1.5.9 1.2-.3 1.5-.9.4-1.5.4-2.6-.1-2-.4-2.6-.8-.9-1.5-.9-1.2.3-1.5.9-.5 1.4-.5 2.6zM95 117.7c.4 0 .8 0 1.1.1h.3l-.4 4.3c-.4-.1-.9-.1-1.6-.1-1 0-1.7.2-2.2.7s-.7 1.1-.7 2v6.5H87V118h3.4l.7 2.1h.2c.4-.7.9-1.3 1.6-1.7s1.4-.7 2.1-.7zM97.7 114.7c0-.7.2-1.2.6-1.5s1-.5 1.9-.5 1.5.2 1.9.5.6.9.6 1.5c0 1.3-.8 2-2.4 2-1.8 0-2.6-.7-2.6-2zm4.7 16.5h-4.6V118h4.6v13.2zM113.5 131.2V124c0-.9-.1-1.5-.4-2s-.7-.7-1.2-.7c-.8 0-1.3.3-1.7.9s-.5 1.7-.5 3.2v5.8h-4.6V118h3.5l.6 1.6h.3c.4-.6.9-1.1 1.6-1.4s1.5-.5 2.4-.5c1.5 0 2.6.4 3.4 1.3s1.2 2.1 1.2 3.6v8.6h-4.6zM133.3 118v2.2l-1.8.7c.2.5.4 1 .4 1.6 0 1.4-.5 2.5-1.5 3.3s-2.5 1.2-4.5 1.2c-.5 0-.9 0-1.2-.1-.1.2-.2.4-.2.6 0 .2.2.4.6.5s.8.2 1.4.2h2.2c3 0 4.5 1.3 4.5 3.8 0 1.6-.7 2.9-2.1 3.8s-3.3 1.3-5.8 1.3c-1.9 0-3.3-.3-4.4-.9s-1.5-1.5-1.5-2.7c0-1.6 1-2.6 3-3.1-.4-.2-.8-.4-1.1-.8s-.5-.8-.5-1.1c0-.4.1-.8.3-1.1s.7-.7 1.4-1.1c-.7-.3-1.2-.8-1.6-1.4s-.6-1.4-.6-2.4c0-1.4.5-2.6 1.5-3.4s2.4-1.2 4.2-1.2c.2 0 .7 0 1.3.1s1 .1 1.3.2h4.7zm-10 14.9c0 .4.2.7.6.9s.9.3 1.6.3c1.1 0 2-.1 2.7-.4s1-.6 1-1.1c0-.4-.2-.6-.6-.7s-1-.2-1.7-.2H125c-.5 0-.9.1-1.2.3s-.5.6-.5.9zm1.4-10.6c0 1.4.5 2 1.4 2 .4 0 .8-.2 1-.5s.4-.8.4-1.5c0-1.4-.5-2.1-1.4-2.1-.9.1-1.4.7-1.4 2.1zM147.1 127.9c.6 0 1.4-.2 2.2-.5v3.3c-.6.3-1.2.5-1.8.6s-1.2.2-2 .2c-1.5 0-2.6-.4-3.3-1.1s-1-1.9-1-3.5v-5.5h-1.6v-1.9l2-1.4 1.2-2.8h3v2.7h3.3v3.4h-3.3v5.2c.1.8.5 1.3 1.3 1.3zM159.6 131.2V124c0-1.8-.5-2.7-1.6-2.7-.8 0-1.3.3-1.7.9s-.5 1.7-.5 3.1v5.8h-4.6V113h4.6v2.6c0 1.2-.1 2.5-.2 4h.2c.4-.7 1-1.2 1.6-1.5s1.3-.4 2.1-.4c1.5 0 2.6.4 3.5 1.3s1.2 2.1 1.2 3.6v8.6h-4.6zM173.2 131.5c-2.2 0-3.9-.6-5.2-1.8s-1.8-2.8-1.8-5 .6-4 1.7-5.2 2.8-1.8 4.9-1.8c2 0 3.5.5 4.6 1.6s1.6 2.5 1.6 4.5v2h-8.2c0 .7.3 1.3.8 1.7s1.2.6 2.1.6c.8 0 1.5-.1 2.2-.2s1.4-.4 2.2-.8v3.3c-.7.4-1.5.6-2.2.8s-1.6.3-2.7.3zm-.2-10.7c-.5 0-1 .2-1.4.5s-.6.9-.6 1.6h3.9c0-.6-.2-1.2-.5-1.5s-.9-.6-1.4-.6zM195.1 117.7c1.4 0 2.6.6 3.4 1.8s1.3 2.9 1.3 5c0 2.2-.4 3.8-1.3 5.1s-2 1.8-3.6 1.8c-.5 0-.9-.1-1.3-.2s-.7-.3-1-.4-.7-.5-1-.9h-.3l-.7 1.3H187V113h4.6v4.1c0 .5-.1 1.3-.2 2.5h.2c.4-.7 1-1.2 1.5-1.5s1.2-.4 2-.4zm-1.7 3.6c-.6 0-1.1.2-1.4.7s-.4 1.1-.4 2.1v.6c0 1.1.1 1.9.4 2.3s.8.7 1.5.7c.5 0 1-.3 1.2-.8s.4-1.4.4-2.4c0-2.1-.6-3.2-1.7-3.2zM201.8 114.7c0-.7.2-1.2.6-1.5s1-.5 1.9-.5 1.5.2 1.9.5.6.9.6 1.5c0 1.3-.8 2-2.4 2-1.8 0-2.6-.7-2.6-2zm4.7 16.5h-4.6V118h4.6v13.2zM217.3 117.7c.4 0 .8 0 1.1.1h.3l-.4 4.3c-.4-.1-.9-.1-1.6-.1-1 0-1.7.2-2.2.7s-.7 1.1-.7 2v6.5h-4.6V118h3.4l.7 2.1h.2c.4-.7.9-1.3 1.6-1.7s1.5-.7 2.2-.7zM226.5 127.9c.6 0 1.4-.2 2.2-.5v3.3c-.6.3-1.2.5-1.8.6s-1.2.2-2 .2c-1.5 0-2.6-.4-3.3-1.1s-1-1.9-1-3.5v-5.5H219v-1.9l2-1.4 1.2-2.8h3v2.7h3.3v3.4h-3.3v5.2c.1.8.5 1.3 1.3 1.3zM239 131.2V124c0-1.8-.5-2.7-1.6-2.7-.8 0-1.3.3-1.7.9s-.5 1.7-.5 3.1v5.8h-4.6V113h4.6v2.6c0 1.2-.1 2.5-.2 4h.2c.4-.7 1-1.2 1.6-1.5s1.3-.4 2.1-.4c1.5 0 2.6.4 3.5 1.3s1.2 2.1 1.2 3.6v8.6H239z"/><g><path class="st0" d="M36.5 150.6c0 2.2-.6 3.9-1.8 5.1s-2.8 1.8-4.9 1.8c-2 0-3.6-.6-4.8-1.9s-1.8-2.9-1.8-5c0-2.2.6-3.8 1.8-5s2.8-1.8 4.9-1.8c1.3 0 2.5.3 3.5.8s1.8 1.3 2.3 2.4.8 2.2.8 3.6zm-8.6 0c0 1.1.2 2 .5 2.6s.8.9 1.5.9 1.2-.3 1.5-.9.4-1.5.4-2.6-.1-2-.4-2.6-.8-.9-1.5-.9-1.2.3-1.5.9-.5 1.4-.5 2.6zM46.8 147.4H44v9.8h-4.6v-9.8h-1.8v-2.2l1.9-1.1v-.2c0-1.8.4-3 1.1-3.8s1.9-1.1 3.4-1.1c.6 0 1.2 0 1.7.1s1.2.3 1.9.5l-1 3c-.6-.2-1.1-.2-1.7-.2-.4 0-.6.1-.8.3s-.2.6-.2 1v.4h2.8v3.3zM60.4 153.8c.6 0 1.4-.2 2.2-.5v3.3c-.6.3-1.2.5-1.8.6s-1.2.2-2 .2c-1.5 0-2.6-.4-3.3-1.1s-1-1.9-1-3.5v-5.5h-1.6v-1.9l2-1.4 1.2-2.8h3v2.7h3.3v3.4h-3.3v5.2c.1.9.5 1.3 1.3 1.3zM72.8 157.2V150c0-1.8-.5-2.7-1.6-2.7-.8 0-1.3.3-1.7.9s-.5 1.7-.5 3.1v5.8h-4.6V139H69v2.6c0 1.2-.1 2.5-.2 4h.2c.4-.7 1-1.2 1.6-1.5s1.3-.4 2.1-.4c1.5 0 2.6.4 3.5 1.3s1.2 2.1 1.2 3.6v8.6h-4.6zM86.5 157.5c-2.2 0-3.9-.6-5.2-1.8s-1.8-2.8-1.8-5 .6-4 1.7-5.2 2.8-1.8 4.9-1.8c2 0 3.5.5 4.6 1.6s1.6 2.5 1.6 4.5v2h-8.2c0 .7.3 1.3.8 1.7s1.2.6 2.1.6c.8 0 1.5-.1 2.2-.2s1.4-.4 2.2-.8v3.3c-.7.4-1.5.6-2.2.8s-1.6.3-2.7.3zm-.3-10.7c-.5 0-1 .2-1.4.5s-.6.9-.6 1.6h3.9c0-.6-.2-1.2-.5-1.5s-.8-.6-1.4-.6zM115.1 140.1v10.3c0 2.2-.6 4-1.9 5.2s-3.1 1.8-5.5 1.8c-2.3 0-4.1-.6-5.4-1.8s-1.9-2.9-1.9-5.2V140h4.7v10.1c0 1.2.2 2.1.7 2.6s1.1.8 2 .8c.9 0 1.6-.3 2.1-.8s.6-1.4.6-2.7v-10h4.6zM117.4 155.3c0-.7.2-1.3.6-1.7s1-.6 1.9-.6c.8 0 1.4.2 1.8.6s.6.9.6 1.7c0 .7-.2 1.3-.6 1.6s-1 .6-1.8.6-1.4-.2-1.8-.6-.7-.9-.7-1.6zM135.9 152c0 1.1-.3 2-.8 2.8s-1.3 1.5-2.3 1.9-2.2.7-3.6.7c-1.1 0-2.1-.1-2.9-.2s-1.6-.4-2.4-.8v-4.1c.9.5 1.8.8 2.8 1.1s1.8.4 2.6.4c.7 0 1.2-.1 1.5-.4s.5-.5.5-.9c0-.2-.1-.4-.2-.6s-.3-.4-.6-.5-1-.5-2.3-1.1c-1.1-.5-2-1-2.5-1.5s-1-1-1.2-1.6-.4-1.3-.4-2.2c0-1.6.6-2.8 1.7-3.7s2.7-1.3 4.7-1.3c1.8 0 3.6.4 5.4 1.2l-1.4 3.6c-1.6-.7-3-1.1-4.1-1.1-.6 0-1 .1-1.3.3s-.4.5-.4.8c0 .3.2.6.5.9s1.3.8 2.8 1.5c1.5.7 2.5 1.4 3.1 2.1s.8 1.6.8 2.7zM137.2 155.3c0-.7.2-1.3.6-1.7s1-.6 1.9-.6c.8 0 1.4.2 1.8.6s.6.9.6 1.7c0 .7-.2 1.3-.6 1.6s-1 .6-1.8.6-1.4-.2-1.8-.6-.7-.9-.7-1.6zM160.8 157.2l-.8-3.2h-5.6l-.9 3.2h-5.1L154 140h6.2l5.7 17.2h-5.1zm-1.8-7l-.7-2.8c-.2-.6-.4-1.4-.6-2.4s-.4-1.7-.5-2.1c-.1.4-.2 1.1-.4 2s-.7 2.7-1.4 5.4h3.6zM175 143.7c.4 0 .8 0 1.1.1h.3l-.4 4.3c-.4-.1-.9-.1-1.6-.1-1 0-1.7.2-2.2.7s-.7 1.1-.7 2v6.5H167V144h3.4l.7 2.1h.2c.4-.7.9-1.3 1.6-1.7s1.4-.7 2.1-.7zM194 157.2V150c0-.9-.1-1.6-.4-2s-.6-.7-1.2-.7c-.7 0-1.2.3-1.5.9s-.5 1.5-.5 2.8v6.2h-4.6V150c0-.9-.1-1.6-.4-2s-.6-.7-1.1-.7c-.7 0-1.2.3-1.6 1s-.5 1.7-.5 3.1v5.8h-4.6V144h3.5l.6 1.6h.3c.4-.6.9-1.1 1.5-1.4s1.4-.5 2.3-.5c1.9 0 3.3.6 4 1.7h.4c.4-.5.9-1 1.6-1.3s1.4-.5 2.2-.5c1.6 0 2.7.4 3.5 1.2s1.1 2 1.1 3.7v8.6H194zM199.7 144h4.8l2.2 7.6c.1.4.2.9.2 1.4h.1c.1-.5.2-1 .3-1.4l2.3-7.6h4.7l-5.2 14.1c-.7 1.8-1.5 3.1-2.5 3.8s-2.3 1.1-3.8 1.1c-.6 0-1.2-.1-1.9-.2v-3.6c.4.1.9.1 1.4.1.4 0 .8-.1 1.1-.2s.6-.4.8-.7.5-.8.7-1.4l-5.2-13zM214.9 155.3c0-.7.2-1.3.6-1.7s1-.6 1.9-.6c.8 0 1.4.2 1.8.6s.6.9.6 1.7c0 .7-.2 1.3-.6 1.6s-1 .6-1.8.6-1.4-.2-1.8-.6-.7-.9-.7-1.6z"/></g><g><path class="st0" d="M34.3 195.2H24.1v-17.1h10.2v3.7h-5.5v2.7h5.1v3.7h-5.1v3.2h5.5v3.8zM46.8 191.1c0 1.4-.5 2.5-1.5 3.2s-2.4 1.1-4.2 1.1c-1 0-1.8-.1-2.6-.2s-1.5-.3-2.2-.6v-3.7c.7.3 1.5.6 2.3.8s1.6.3 2.3.3c1 0 1.5-.2 1.5-.7 0-.2-.1-.4-.4-.6s-1.1-.5-2.4-1.1c-1.2-.5-2.1-1.1-2.6-1.7s-.7-1.4-.7-2.4c0-1.2.5-2.2 1.4-2.9s2.3-1 4-1c.9 0 1.7.1 2.5.3s1.6.5 2.4.8l-1.2 3c-.6-.3-1.3-.5-1.9-.7s-1.2-.3-1.7-.3c-.8 0-1.1.2-1.1.6 0 .2.1.4.4.6s1 .5 2.3 1c.9.4 1.6.8 2.1 1.1s.8.8 1 1.3.3 1.1.3 1.8zM55.4 191.8c.6 0 1.4-.2 2.2-.5v3.3c-.6.3-1.2.5-1.8.6s-1.2.2-2 .2c-1.5 0-2.6-.4-3.3-1.1s-1-1.9-1-3.5v-5.5h-1.6v-1.9l2-1.4 1.2-2.8h3v2.7h3.3v3.4h-3.3v5.2c.1.9.5 1.3 1.3 1.3zM68.1 195.2l-.9-1.8h-.1c-.6.8-1.2 1.3-1.9 1.6s-1.5.4-2.5.4c-1.2 0-2.2-.4-3-1.1s-1.1-1.8-1.1-3.2c0-1.4.5-2.5 1.5-3.2s2.4-1.1 4.3-1.2l2.2-.1v-.2c0-1.1-.5-1.6-1.6-1.6-1 0-2.2.3-3.7 1l-1.3-3c1.5-.8 3.5-1.2 5.9-1.2 1.7 0 3 .4 4 1.3s1.4 2 1.4 3.5v8.7h-3.2zm-3.4-3c.6 0 1-.2 1.4-.5s.6-.8.6-1.4v-1h-1.1c-1.5.1-2.3.6-2.3 1.7.1.8.6 1.2 1.4 1.2zM82.1 181.7c1.4 0 2.6.6 3.4 1.8s1.3 2.9 1.3 5c0 2.2-.4 3.8-1.3 5.1s-2 1.8-3.6 1.8c-.5 0-.9-.1-1.3-.2s-.7-.3-1-.4-.7-.5-1-.9h-.3l-.7 1.3H74V177h4.6v4.1c0 .5-.1 1.3-.2 2.5h.2c.4-.7 1-1.2 1.5-1.5s1.2-.4 2-.4zm-1.7 3.6c-.6 0-1.1.2-1.4.7s-.4 1.1-.4 2.1v.6c0 1.1.1 1.9.4 2.3s.8.7 1.5.7c.5 0 1-.3 1.2-.8s.4-1.4.4-2.4c0-2.1-.6-3.2-1.7-3.2zM93.5 195.2h-4.6V177h4.6v18.2zM96.1 178.6c0-.7.2-1.2.6-1.5s1-.5 1.9-.5 1.5.2 1.9.5.6.9.6 1.5c0 1.3-.8 2-2.4 2-1.8.1-2.6-.6-2.6-2zm4.7 16.6h-4.6v-13.3h4.6v13.3zM113.8 191.1c0 1.4-.5 2.5-1.5 3.2s-2.4 1.1-4.2 1.1c-1 0-1.8-.1-2.6-.2s-1.5-.3-2.2-.6v-3.7c.7.3 1.5.6 2.3.8s1.6.3 2.3.3c1 0 1.5-.2 1.5-.7 0-.2-.1-.4-.4-.6s-1.1-.5-2.4-1.1c-1.2-.5-2.1-1.1-2.6-1.7s-.7-1.4-.7-2.4c0-1.2.5-2.2 1.4-2.9s2.3-1 4-1c.9 0 1.7.1 2.5.3s1.6.5 2.4.8l-1.2 3c-.6-.3-1.3-.5-1.9-.7s-1.2-.3-1.7-.3c-.8 0-1.1.2-1.1.6 0 .2.1.4.4.6s1 .5 2.3 1c.9.4 1.6.8 2.1 1.1s.8.8 1 1.3.3 1.1.3 1.8zM124.2 195.2V188c0-1.8-.5-2.7-1.6-2.7-.8 0-1.3.3-1.7.9s-.5 1.7-.5 3.1v5.8h-4.6V177h4.6v2.6c0 1.2-.1 2.5-.2 4h.2c.4-.7 1-1.2 1.6-1.5s1.3-.4 2.1-.4c1.5 0 2.6.4 3.5 1.3s1.2 2.1 1.2 3.6v8.6h-4.6zM137.9 195.5c-2.2 0-3.9-.6-5.2-1.8s-1.8-2.8-1.8-5 .6-4 1.7-5.2 2.8-1.8 4.9-1.8c2 0 3.5.5 4.6 1.6s1.6 2.5 1.6 4.5v2h-8.2c0 .7.3 1.3.8 1.7s1.2.6 2.1.6c.8 0 1.5-.1 2.2-.2s1.4-.4 2.2-.8v3.3c-.7.4-1.5.6-2.2.8s-1.7.3-2.7.3zm-.3-10.7c-.5 0-1 .2-1.4.5s-.6.9-.6 1.6h3.9c0-.6-.2-1.2-.5-1.5s-.8-.6-1.4-.6zM149.9 195.5c-.9 0-1.8-.3-2.5-.8s-1.3-1.3-1.6-2.4-.6-2.3-.6-3.7c0-2.2.4-3.8 1.3-5.1s2.1-1.8 3.6-1.8c.7 0 1.4.1 2 .4s1.1.8 1.5 1.5h.1c-.1-1-.2-2.1-.2-3.1V177h4.6v18.2h-3.5l-1-1.7h-.2c-.7 1.3-1.9 2-3.5 2zm1.9-3.7c.7 0 1.3-.2 1.6-.7s.5-1.2.5-2.1v-.4c0-1.2-.2-2-.5-2.5s-.9-.7-1.6-.7c-.6 0-1.1.3-1.4.8s-.5 1.4-.5 2.4.2 1.8.5 2.4.8.8 1.4.8zM176 195.2h-4.7v-9.1c0-1.1 0-2.1.1-3-.3.4-.6.7-1.1 1.1l-1.9 1.6-2.4-3 5.9-4.8h4.2v17.2zM181 195.2l5.9-13.3h-7.4v-3.8h12.4v2.7l-6 14.4H181zM194.6 195.2l5.9-13.3h-7.4v-3.8h12.4v2.7l-6 14.4h-4.9zM213.6 184c1 0 1.9.2 2.7.7s1.4 1.1 1.9 1.9.7 1.8.7 2.9c0 1.9-.6 3.4-1.7 4.4s-2.9 1.5-5.2 1.5c-2 0-3.6-.3-4.9-.9v-3.8c.7.3 1.4.6 2.3.8s1.6.3 2.2.3c.9 0 1.5-.2 2-.5s.7-.9.7-1.6c0-.7-.2-1.2-.7-1.5s-1.2-.6-2.1-.6c-.7 0-1.5.1-2.4.4l-1.7-.8.6-9h9.8v3.9H212l-.2 2.3c.6-.1 1-.2 1.3-.2s.2-.2.5-.2zM220.4 193.3c0-.7.2-1.3.6-1.7s1-.6 1.9-.6c.8 0 1.4.2 1.8.6s.6.9.6 1.7c0 .7-.2 1.3-.6 1.6s-1 .6-1.8.6-1.4-.2-1.8-.6-.7-.9-.7-1.6z"/></g></svg>