<svg id="Layer_1" xmlns="http://www.w3.org/2000/svg" xmlns:xlink="http://www.w3.org/1999/xlink" viewBox="0 0 88 21.2"><style>.st0{clip-path:url(#SVGID_2_);fill:#ff5100}.st1{fill:#fff}.st2{font-family:&apos;OpenSans-Semibold&apos;}.st3{font-size:11.88px}</style><defs><path id="SVGID_1_" d="M0 0h88v21.2H0z"/></defs><clipPath id="SVGID_2_"><use xlink:href="#SVGID_1_" overflow="visible"/></clipPath><path class="st0" d="M2.5 0S0 0 0 2.5v16.1s0 2.5 2.5 2.5h82.9s2.5 0 2.5-2.5V2.5s0-2.5-2.5-2.5H2.5z"/><g><path class="st1" d="M8.1 14.3V6.5h1.3v6.8h3.3v1.1H8.1zM16.6 14.4c-.9 0-1.7-.3-2.2-.8-.5-.5-.8-1.3-.8-2.2 0-1 .2-1.7.7-2.3.5-.6 1.2-.8 2-.8s1.4.2 1.9.7c.5.5.7 1.1.7 2v.7h-4c0 .6.2 1 .5 1.3.3.3.7.5 1.2.5.4 0 .7 0 1-.1.3-.1.6-.2 1-.3v1c-.3.1-.6.3-.9.3h-1.1zm-.2-5.2c-.4 0-.7.1-1 .4-.2.3-.4.6-.4 1.1h2.7c0-.5-.1-.9-.4-1.1-.2-.3-.5-.4-.9-.4zM24.1 14.3l-.3-.8c-.3.4-.6.6-.9.7-.3.1-.7.2-1.1.2-.6 0-1-.2-1.4-.5-.3-.3-.5-.8-.5-1.3 0-.6.2-1.1.7-1.4.5-.3 1.2-.5 2.1-.5h1v-.3c0-.4-.1-.7-.3-.9-.2-.2-.5-.3-.8-.3-.3 0-.6 0-.9.1-.3.1-.5.2-.8.3l-.4-.9c.3-.2.7-.3 1.1-.4.4-.1.7-.1 1.1-.1.8 0 1.3.2 1.7.5.4.3.6.8.6 1.6v4h-.9zm-1.9-.8c.5 0 .8-.1 1.1-.4.3-.3.4-.6.4-1.1v-.5h-.8c-.6 0-1 .1-1.3.3-.3.2-.4.5-.4.8 0 .3.1.5.2.6.2.2.5.3.8.3zM29.8 8.3c.3 0 .5 0 .6.1l-.1 1.2c-.2 0-.4-.1-.6-.1-.5 0-.9.2-1.2.5s-.5.7-.5 1.2v3.1h-1.3v-6h1l.2 1.1h.1c.2-.4.5-.6.8-.8.3-.2.6-.3 1-.3zM36.7 14.3h-1.3v-3.7c0-.5-.1-.8-.3-1-.2-.2-.5-.3-.9-.3-.5 0-.9.2-1.2.5-.2.3-.4.8-.4 1.6v3h-1.3v-6h1l.2.8h.1c.2-.3.4-.5.8-.7.3-.2.7-.2 1.1-.2 1.4 0 2.1.7 2.1 2.2v3.8zM46.4 14.3h-1.3v-3.7c0-.5-.1-.8-.3-1-.2-.2-.4-.3-.8-.3-.5 0-.8.2-1.1.5-.2.3-.3.8-.3 1.6v3h-1.3v-6h1l.2.8h.1c.2-.3.4-.5.7-.7.3-.2.7-.2 1-.2.9 0 1.5.3 1.8.9h.1c.2-.3.4-.5.7-.7.3-.2.7-.2 1.1-.2.7 0 1.2.2 1.6.5s.5.9.5 1.6v3.9h-1.3v-3.7c0-.5-.1-.8-.3-1-.2-.2-.4-.3-.8-.3-.5 0-.9.2-1.1.5-.2.3-.3.8-.3 1.4v3.1zM57.2 11.3c0 1-.3 1.7-.7 2.3-.5.5-1.2.8-2.1.8-.6 0-1-.1-1.5-.4-.4-.3-.8-.6-1-1.1-.2-.5-.3-1-.3-1.6 0-1 .2-1.7.7-2.3.5-.5 1.2-.8 2.1-.8.9 0 1.5.3 2 .8.5.6.8 1.4.8 2.3zm-4.3 0c0 1.4.5 2.1 1.5 2.1s1.5-.7 1.5-2.1c0-1.4-.5-2-1.5-2-.5 0-.9.2-1.2.5-.2.4-.3.9-.3 1.5zM61.7 8.3c.3 0 .5 0 .6.1l-.1 1.2c-.2 0-.4-.1-.6-.1-.5 0-.9.2-1.2.5-.3.3-.5.8-.5 1.3v3.1h-1.3v-6h1l.2 1.1h.1c.2-.4.5-.6.8-.8.3-.3.6-.4 1-.4zM66 14.4c-.9 0-1.7-.3-2.2-.8-.5-.5-.8-1.3-.8-2.2 0-1 .2-1.7.7-2.3.5-.6 1.2-.8 2-.8s1.4.2 1.9.7c.5.5.7 1.1.7 2v.7h-4c0 .6.2 1 .5 1.3.3.3.7.5 1.2.5.4 0 .7 0 1-.1.3-.1.6-.2 1-.3v1c-.3.1-.6.3-.9.3H66zm-.2-5.2c-.4 0-.7.1-1 .4-.2.3-.4.6-.4 1.1h2.7c0-.5-.1-.9-.4-1.1-.2-.3-.5-.4-.9-.4z"/></g><text transform="translate(68.856 14.327)" class="st1 st2 st3"></text></svg>