<svg id="Layer_1" xmlns="http://www.w3.org/2000/svg" viewBox="0 0 300 250"><style>.st0{fill:#fff}.st1{fill:none}</style><path class="st0" d="M246 140h20.9l5.4 15.8h-2.5l-4.5-13.4-20-.1z"/><path class="st0" d="M244.5 144.6h19.1l3.8 11.2H265l-3-8.8-18.2-.1z"/><path class="st0" d="M243.2 149.5l-6.3 19.3 1.9 1.5 5.7-18.7h14.3l.8-2.1z"/><path class="st0" d="M246.3 153.9H258l-.7 2.2H248l-5.4 17.1-1.8-1.7z"/><path class="st0" d="M245 174.8l16.8 11.7 1.7-1.5-16-11.2 4.2-13.4-2-1.5z"/><path class="st0" d="M253.6 161.8l2 1.2-2.9 8.8 14.4 10.3-1.7 1.6-15.3-11z"/><path class="st0" d="M269.3 178.2l-11.8-7.9-1.6 1.1 13.3 9.6 16.9-12.3-.9-2.2z"/><path class="st0" d="M260 168.4l1.5-1.3 7.8 5.6 14.4-10.6.9 2.1-15.3 11.2z"/><path class="st0" d="M269 167.3l.8 2.2 13.2-9.6-6.7-19.9h-2.2l6.4 18.9z"/><path class="st0" d="M269.3 140h2l6.4 18.1-9.4 7-.9-1.8 7.9-6.2zM243.7 112.9l-1.5 2.6-1.6-2.6h-1.9v6.6h1.8v-3.8l1.6 2.6h.1l1.6-2.6v3.8h1.8v-6.6zM246.8 112.9h1.8v6.5h-1.8zM249.9 112.9v6.6h4.9v-1.6h-3.1v-5zM255.7 112.9h1.8v6.5h-1.8zM258.3 112.9v1.6h2v5h1.8v-5h1.9v-1.6zM267.1 115l.7 1.9h-1.5l.8-1.9zm-.8-2.1l-2.8 6.6h1.9l.5-1.2h2.5l.5 1.2h1.9l-2.8-6.6h-1.7zM271.4 112.9h3.1c1 0 1.7.3 2.1.7.4.4.6.9.6 1.5 0 1-.5 1.7-1.3 2l1.6 2.3h-2.1l-1.3-2h-.8v2h-1.8v-6.5zm3 3.2c.6 0 1-.3 1-.8s-.4-.8-1-.8h-1.2v1.6h1.2zM279.8 117l-2.5-4.1h2.1l1.3 2.4 1.4-2.4h2l-2.5 4.1v2.5h-1.8zM238.8 121.8h3.7c.9 0 1.6.2 2 .7.3.3.5.7.5 1.2 0 .8-.5 1.3-1.1 1.6.9.3 1.4.8 1.4 1.8 0 1.2-1 2-2.7 2h-3.7v-7.3zm3.2 2.9c.6 0 1-.2 1-.6 0-.4-.3-.6-.9-.6h-1.3v1.3h1.2zm.3 2.7c.6 0 1-.2 1-.7 0-.4-.3-.7-1-.7h-1.5v1.3h1.5zM246.2 121.8h5.8v1.7h-3.9v1.1h3.5v1.6h-3.5v1.1h3.9v1.7h-5.8zM253.1 121.8h1.8l3 3.8v-3.8h2v7.2h-1.8l-3.1-3.9v3.9h-1.9zM261.2 121.8h5.8v1.7h-3.8v1.1h3.4v1.6h-3.4v1.1h3.8v1.7h-5.8zM268.1 121.8h5.8v1.7h-3.8v1.3h3.4v1.6h-3.4v2.6h-2zM274.8 121.8h2v7.2h-2zM279.9 123.5h-2.1v-1.7h6.3v1.7h-2.2v5.5h-2zM240 131.3h1.2l1.9 4.5h-1.3l-.3-.8h-1.7l-.3.8h-1.3l1.8-4.5zm1.1 2.8l-.5-1.3-.5 1.3h1zM243.2 135.1l.7-.8c.4.3.9.5 1.4.5.3 0 .5-.1.5-.3 0-.2-.1-.3-.7-.4-.9-.2-1.7-.5-1.7-1.4 0-.8.7-1.4 1.7-1.4.8 0 1.3.2 1.8.6l-.6.9c-.4-.3-.9-.4-1.2-.4-.3 0-.4.1-.4.3 0 .2.2.3.8.4 1 .2 1.7.6 1.7 1.4 0 .9-.7 1.4-1.8 1.4-1 0-1.7-.3-2.2-.8M247.2 135.1l.7-.8c.4.3.9.5 1.4.5.3 0 .5-.1.5-.3 0-.2-.1-.3-.7-.4-.9-.2-1.7-.5-1.7-1.4 0-.8.7-1.4 1.7-1.4.8 0 1.3.2 1.8.6l-.6.9c-.4-.3-.9-.4-1.2-.4-.3 0-.4.1-.4.3 0 .2.2.3.8.4 1 .2 1.7.6 1.7 1.4 0 .9-.7 1.4-1.8 1.4-.9 0-1.6-.3-2.2-.8M251.5 133.6c0-1.3 1-2.3 2.4-2.3s2.4 1 2.4 2.3c0 1.3-1 2.3-2.4 2.3-1.3 0-2.4-1-2.4-2.3m3.6 0c0-.7-.5-1.2-1.1-1.2-.7 0-1.1.5-1.1 1.2 0 .6.5 1.2 1.1 1.2.6 0 1.1-.6 1.1-1.2M256.8 133.6c0-1.3 1-2.3 2.3-2.3.9 0 1.5.4 1.9.9l-.9.7c-.3-.3-.5-.5-1-.5-.6 0-1.1.5-1.1 1.2s.4 1.2 1.1 1.2c.5 0 .7-.2 1-.5l.9.7c-.4.6-1 1-2 1-1.2-.1-2.2-1.1-2.2-2.4M261.6 131.4h1.2v4.4h-1.2zM265.2 131.3h1.2l1.9 4.5H267l-.3-.8H265l-.3.8h-1.3l1.8-4.5zm1.1 2.8l-.5-1.3-.5 1.3h1zM269.2 132.4h-1.3v-1h3.9v1h-1.4v3.4h-1.2zM272.3 131.4h1.2v4.4h-1.2zM274.2 133.6c0-1.3 1-2.3 2.4-2.3s2.4 1 2.4 2.3c0 1.3-1 2.3-2.4 2.3s-2.4-1-2.4-2.3m3.6 0c0-.7-.5-1.2-1.1-1.2-.7 0-1.1.5-1.1 1.2 0 .6.5 1.2 1.1 1.2.6 0 1.1-.6 1.1-1.2M279.7 131.4h1.1l1.8 2.3v-2.3h1.2v4.4h-1l-1.9-2.4v2.4h-1.2z"/><path class="st1" d="M236.9 112.9h49.2v73.6h-49.2z"/></svg>