<svg id="Layer_1" xmlns="http://www.w3.org/2000/svg" viewBox="0 0 300 250"><style>.st0{fill:#0033a1}.st1{fill:none}</style><path class="st0" d="M239.2 45.5h23.5l5.9 17.7h-2.7l-5.1-15-22.3-.1z"/><path class="st0" d="M237.6 50.7h21.3l4.3 12.5h-2.8l-3.3-9.9h-20.3z"/><path class="st0" d="M236.1 56.1L229 77.8l2.2 1.6 6.4-20.9h15.9l.9-2.4z"/><path class="st0" d="M239.5 61.1h13.2l-.8 2.4h-10.5l-5.9 19.1-2.1-1.8z"/><path class="st0" d="M238.1 84.5l18.8 13.1 1.9-1.7-17.9-12.5 4.7-15-2.3-1.7z"/><path class="st0" d="M247.7 69.8l2.3 1.5-3.3 9.8 16.1 11.5-1.8 1.8-17.2-12.3z"/><path class="st0" d="M265.3 88.3l-13.2-8.9-1.8 1.2 14.9 10.8 18.9-13.8-1-2.5z"/><path class="st0" d="M254.9 77.3l1.7-1.4 8.7 6.2 16.1-11.8 1 2.3-17.1 12.5z"/><path class="st0" d="M265 76.1l.9 2.4 14.8-10.8-7.5-22.2h-2.5l7.2 21.2z"/><path class="st0" d="M265.3 45.5h2.3l7.1 20.3-10.6 7.8-.9-2 8.8-6.9zM236.7 15.2l-1.8 2.8-1.7-2.8H231v7.3h2v-4.2l1.9 2.9 1.9-2.9v4.2h2v-7.3zM240.2 15.2h2v7.3h-2zM243.5 15.2v7.3h5.6v-1.8h-3.5v-5.5zM250 15.2h2v7.3h-2zM253 15.2V17h2.2v5.5h2V17h2.2v-1.8zM262.9 17.5l.8 2.1H262l.9-2.1zm-1-2.4l-3.1 7.4h2.1l.5-1.3h2.8l.5 1.3h2.2l-3.1-7.4h-1.9zM267.7 15.2h3.5c1.1 0 1.9.3 2.4.8.4.4.6 1 .6 1.7 0 1.1-.6 1.9-1.5 2.2l1.7 2.6h-2.3l-1.5-2.2h-.9v2.2h-2v-7.3zm3.4 3.5c.7 0 1.1-.3 1.1-.9 0-.6-.4-.9-1.1-.9h-1.3v1.8h1.3zM277.1 19.8l-2.8-4.6h2.3l1.5 2.6 1.5-2.6h2.3l-2.8 4.5v2.8h-2zM231.1 25.1h4.2c1 0 1.7.3 2.2.7.3.3.5.8.5 1.3 0 .9-.5 1.5-1.2 1.8 1 .3 1.6.9 1.6 2 0 1.4-1.1 2.2-3.1 2.2h-4.2v-8zm3.6 3.2c.7 0 1.1-.2 1.1-.7 0-.4-.3-.7-1-.7h-1.5v1.4h1.4zm.3 3.1c.7 0 1.1-.3 1.1-.7 0-.4-.3-.7-1.1-.7h-1.7v1.5h1.7zM239.4 25.1h6.5V27h-4.3v1.2h3.9V30h-3.9v1.3h4.4v1.9h-6.6zM247.1 25.1h2.1l3.3 4.3v-4.3h2.3v8.1h-2l-3.5-4.4v4.4h-2.2zM256.2 25.1h6.5V27h-4.3v1.2h3.9V30h-3.9v1.3h4.4v1.9h-6.6zM263.9 25.1h6.5v2h-4.2v1.3h3.8v1.9h-3.8v2.9h-2.3zM271.5 25.1h2.3v8.1h-2.3zM277.2 27.1h-2.4v-2h7.1v2h-2.5v6.1h-2.2zM232.6 35.8h1.3l2.1 5h-1.5l-.4-.9h-1.9l-.4.9h-1.4l2.2-5zm1.2 3l-.6-1.4-.6 1.4h1.2zM236 40.1l.8-.9c.5.4 1 .6 1.6.6.4 0 .6-.1.6-.3 0-.2-.2-.3-.8-.5-1.1-.2-1.9-.5-1.9-1.6 0-.9.7-1.6 1.9-1.6.8 0 1.5.2 2 .7l-.7 1c-.5-.3-1-.5-1.4-.5-.3 0-.5.1-.5.3 0 .2.2.3.9.5 1.1.2 1.9.6 1.9 1.5 0 1-.8 1.6-2 1.6-.9 0-1.8-.3-2.4-.8M240.6 40.1l.8-.9c.5.4 1 .6 1.6.6.4 0 .6-.1.6-.3 0-.2-.2-.3-.8-.5-1.1-.2-1.9-.5-1.9-1.6 0-.9.7-1.6 1.9-1.6.8 0 1.5.2 2 .7l-.7 1c-.5-.3-1-.5-1.4-.5-.3 0-.5.1-.5.3 0 .2.2.3.9.5 1.1.2 1.9.6 1.9 1.5 0 1-.8 1.6-2 1.6-1 0-1.8-.3-2.4-.8M245.4 38.3c0-1.4 1.1-2.6 2.7-2.6 1.5 0 2.7 1.1 2.7 2.6 0 1.4-1.2 2.6-2.7 2.6-1.5 0-2.7-1.1-2.7-2.6m4 0c0-.7-.5-1.4-1.3-1.4s-1.3.6-1.3 1.3c0 .7.5 1.3 1.3 1.3.8.2 1.3-.5 1.3-1.2M251.3 38.3c0-1.5 1.1-2.6 2.6-2.6 1 0 1.7.4 2.1 1l-1 .8c-.3-.4-.6-.6-1.1-.6-.7 0-1.2.6-1.2 1.3 0 .7.5 1.3 1.2 1.3.5 0 .8-.2 1.1-.6l1 .7c-.5.6-1.1 1.1-2.2 1.1-1.3.2-2.5-.9-2.5-2.4M256.7 35.8h1.4v5h-1.4zM260.7 35.8h1.3l2.1 5h-1.5l-.4-.9h-1.9l-.4.9h-1.4l2.2-5zm1.2 3l-.6-1.4-.6 1.4h1.2zM265.2 37h-1.5v-1.2h4.4V37h-1.5v3.8h-1.4zM268.7 35.8h1.4v5h-1.4zM270.8 38.3c0-1.4 1.1-2.6 2.7-2.6 1.5 0 2.7 1.1 2.7 2.6 0 1.4-1.1 2.6-2.7 2.6-1.5 0-2.7-1.1-2.7-2.6m4 0c0-.7-.5-1.4-1.3-1.4s-1.3.6-1.3 1.3c0 .7.5 1.3 1.3 1.3.8.2 1.3-.5 1.3-1.2M276.9 35.8h1.3l2 2.7v-2.7h1.4v5h-1.2l-2.1-2.7v2.7h-1.4z"/><path class="st1" d="M229 15.1h55.1v82.4H229z"/></svg>