<svg id="Layer_1" xmlns="http://www.w3.org/2000/svg" viewBox="0 0 300 250"><style>.st0{fill:#fff}</style><path class="st0" d="M18 214.5h3.4v4.7c-.6.2-1.1.3-1.6.4-.5.1-1.1.1-1.7.1-1.4 0-2.5-.4-3.2-1.2-.8-.8-1.1-2-1.1-3.5s.4-2.7 1.3-3.5c.9-.8 2-1.3 3.5-1.3 1 0 1.9.2 2.8.6l-.5 1.3c-.8-.3-1.5-.5-2.3-.5-1 0-1.8.3-2.3.9-.6.6-.9 1.5-.9 2.6s.3 2 .8 2.6c.5.6 1.3.9 2.2.9.5 0 1-.1 1.6-.2V216h-2v-1.5zM26.3 219.7c-1.1 0-1.9-.3-2.6-1-.6-.6-.9-1.5-.9-2.6s.3-2 .9-2.7c.6-.7 1.4-1 2.4-1 .9 0 1.7.3 2.2.8.5.6.8 1.3.8 2.3v.8h-4.7c0 .7.2 1.2.6 1.6s.8.5 1.5.5c.4 0 .8 0 1.2-.1.4-.1.7-.2 1.2-.4v1.2c-.4.2-.7.3-1.1.4-.6.2-1 .2-1.5.2zm-.2-6.1c-.5 0-.9.2-1.1.5-.3.3-.5.7-.5 1.3h3.2c0-.6-.1-1-.4-1.3-.4-.4-.8-.5-1.2-.5zM33.1 218.5c.4 0 .7-.1 1.1-.2v1.1c-.2.1-.4.1-.6.2-.3 0-.5.1-.8.1-1.4 0-2.1-.7-2.1-2.2v-3.8h-1v-.7l1-.5.5-1.5h.9v1.6h2v1.1h-2v3.8c0 .4.1.6.3.8.2.1.4.2.7.2zM40 219.6h-1.5v-9.9H40v9.9zM41.8 210.7c0-.3.1-.5.2-.6.1-.1.4-.2.6-.2.3 0 .5.1.6.2.1.1.2.3.2.6s-.1.5-.2.6c-.1.1-.4.2-.6.2-.3 0-.5-.1-.6-.2-.2-.2-.2-.4-.2-.6zm1.5 8.9h-1.5v-7h1.5v7zM48.8 213.7H47v5.9h-1.5v-5.9h-1.2v-.7l1.2-.5v-.5c0-.8.2-1.4.6-1.8.4-.4 1-.6 1.8-.6.5 0 1 .1 1.5.3L49 211c-.4-.1-.7-.2-1.1-.2-.3 0-.6.1-.7.3-.2.2-.2.5-.2.9v.5h1.7v1.2zM52.8 219.7c-1.1 0-1.9-.3-2.6-1-.6-.6-.9-1.5-.9-2.6s.3-2 .9-2.7c.6-.7 1.4-1 2.4-1 .9 0 1.7.3 2.2.8.5.6.8 1.3.8 2.3v.8h-4.7c0 .7.2 1.2.6 1.6s.8.5 1.5.5c.4 0 .8 0 1.2-.1.4-.1.7-.2 1.2-.4v1.2c-.4.2-.7.3-1.1.4-.6.2-1.1.2-1.5.2zm-.3-6.1c-.5 0-.9.2-1.1.5-.3.3-.5.7-.5 1.3H54c0-.6-.1-1-.4-1.3-.3-.4-.6-.5-1.1-.5zM60 210.7c0-.3.1-.5.2-.6.1-.1.4-.2.6-.2.3 0 .5.1.6.2.1.1.2.3.2.6s-.1.5-.2.6c-.1.1-.4.2-.6.2-.3 0-.5-.1-.6-.2-.2-.2-.2-.4-.2-.6zm1.5 8.9H60v-7h1.5v7zM69.6 219.6h-1.5v-4.3c0-.5-.1-.9-.3-1.2-.2-.3-.6-.4-1-.4-.6 0-1.1.2-1.4.6s-.4 1-.4 1.9v3.5h-1.5v-7h1.2l.2.9h.1c.2-.3.5-.6.9-.8.4-.2.8-.3 1.3-.3 1.7 0 2.5.9 2.5 2.6v4.5zM76.2 217.6c0 .7-.2 1.2-.7 1.6s-1.2.5-2.1.5c-.9 0-1.7-.1-2.3-.4V218c.8.4 1.6.6 2.3.6.9 0 1.4-.3 1.4-.8 0-.2-.1-.3-.2-.4-.1-.1-.3-.2-.5-.4s-.6-.3-1-.4c-.8-.3-1.4-.6-1.6-.9-.3-.3-.4-.7-.4-1.2 0-.6.2-1.1.7-1.4.5-.3 1.1-.5 2-.5.8 0 1.6.2 2.3.5l-.5 1.1c-.8-.3-1.4-.5-1.9-.5-.8 0-1.2.2-1.2.7 0 .2.1.4.3.6.2.2.7.4 1.3.6.6.2 1 .4 1.3.6s.5.4.6.6.2.4.2.8zM82.5 219.6l-.2-.9h-.1c-.2.3-.5.6-.9.8-.4.2-.8.3-1.3.3-.9 0-1.5-.2-1.9-.6s-.6-1.1-.6-1.9v-4.6H79v4.3c0 .5.1.9.3 1.2s.6.4 1 .4c.6 0 1.1-.2 1.4-.6.3-.4.4-1 .4-1.9v-3.5h1.5v7h-1.1zM89.1 212.4c.3 0 .5 0 .7.1l-.1 1.4c-.2-.1-.4-.1-.7-.1-.6 0-1.1.2-1.5.6-.4.4-.6.9-.6 1.5v3.7h-1.5v-7h1.2l.2 1.2h.2c.2-.4.5-.8.9-1 .4-.2.8-.4 1.2-.4zM95.3 219.6l-.3-1h-.1c-.3.4-.7.7-1 .9s-.8.2-1.3.2c-.7 0-1.2-.2-1.6-.6-.4-.4-.6-.9-.6-1.6 0-.7.3-1.3.8-1.6.5-.4 1.4-.6 2.5-.6h1.2v-.4c0-.4-.1-.8-.3-1-.2-.2-.5-.3-1-.3-.4 0-.7.1-1 .2-.3.1-.6.2-1 .4l-.5-1.1c.4-.2.8-.4 1.3-.5s.9-.2 1.3-.2c.9 0 1.6.2 2 .6.5.4.7 1 .7 1.8v4.7h-1.1zm-2.3-1c.5 0 1-.2 1.3-.5.3-.3.5-.7.5-1.3v-.6h-.9c-.7 0-1.2.1-1.5.4-.3.2-.5.5-.5 1 0 .3.1.6.3.7.2.2.5.3.8.3zM104.3 219.6h-1.5v-4.3c0-.5-.1-.9-.3-1.2-.2-.3-.6-.4-1-.4-.6 0-1.1.2-1.4.6s-.4 1-.4 1.9v3.5h-1.5v-7h1.2l.2.9h.1c.2-.3.5-.6.9-.8.4-.2.8-.3 1.3-.3 1.7 0 2.5.9 2.5 2.6v4.5zM109 219.7c-1.1 0-1.9-.3-2.4-.9-.6-.6-.8-1.5-.8-2.7 0-1.2.3-2.1.9-2.7.6-.6 1.4-1 2.5-1 .7 0 1.4.1 2 .4l-.5 1.2c-.6-.2-1.2-.4-1.6-.4-1.2 0-1.8.8-1.8 2.4 0 .8.2 1.4.5 1.8.3.4.7.6 1.3.6.7 0 1.3-.2 1.9-.5v1.3c-.3.2-.6.3-.9.3-.3.2-.7.2-1.1.2zM115.4 219.7c-1.1 0-1.9-.3-2.6-1-.6-.6-.9-1.5-.9-2.6s.3-2 .9-2.7c.6-.7 1.4-1 2.4-1 .9 0 1.7.3 2.2.8.5.6.8 1.3.8 2.3v.8h-4.7c0 .7.2 1.2.6 1.6s.8.5 1.5.5c.4 0 .8 0 1.2-.1.4-.1.7-.2 1.2-.4v1.2c-.4.2-.7.3-1.1.4-.6.2-1 .2-1.5.2zm-.3-6.1c-.5 0-.9.2-1.1.5-.3.3-.5.7-.5 1.3h3.2c0-.6-.1-1-.4-1.3-.3-.4-.7-.5-1.2-.5zM127.1 219.6l-.3-1h-.1c-.3.4-.7.7-1 .9s-.8.2-1.3.2c-.7 0-1.2-.2-1.6-.6-.4-.4-.6-.9-.6-1.6 0-.7.3-1.3.8-1.6.5-.4 1.4-.6 2.5-.6h1.2v-.4c0-.4-.1-.8-.3-1-.2-.2-.5-.3-1-.3-.4 0-.7.1-1 .2-.3.1-.6.2-1 .4l-.5-1.1c.4-.2.8-.4 1.3-.5s.9-.2 1.3-.2c.9 0 1.6.2 2 .6.5.4.7 1 .7 1.8v4.7h-1.1zm-2.2-1c.5 0 1-.2 1.3-.5.3-.3.5-.7.5-1.3v-.6h-.9c-.7 0-1.2.1-1.5.4-.3.2-.5.5-.5 1 0 .3.1.6.3.7.1.2.4.3.8.3zM132.6 218.5c.4 0 .7-.1 1.1-.2v1.1c-.2.1-.4.1-.6.2-.3 0-.5.1-.8.1-1.4 0-2.1-.7-2.1-2.2v-3.8h-1v-.7l1-.5.5-1.5h.9v1.6h2v1.1h-2v3.8c0 .4.1.6.3.8.2.1.4.2.7.2z"/><g><path class="st0" d="M16.9 233.7c-1.1 0-1.9-.3-2.4-.9-.6-.6-.8-1.5-.8-2.7 0-1.2.3-2.1.9-2.7.6-.6 1.4-1 2.5-1 .7 0 1.4.1 2 .4l-.5 1.2c-.6-.2-1.2-.4-1.6-.4-1.2 0-1.8.8-1.8 2.4 0 .8.2 1.4.5 1.8.3.4.7.6 1.3.6.7 0 1.3-.2 1.9-.5v1.3c-.3.2-.6.3-.9.3-.3.2-.7.2-1.1.2zM26.5 230.1c0 1.1-.3 2-.9 2.7s-1.4 1-2.5 1c-.7 0-1.2-.1-1.7-.4s-.9-.7-1.2-1.3c-.3-.6-.4-1.2-.4-1.9 0-1.1.3-2 .9-2.7.6-.6 1.4-1 2.5-1 1 0 1.8.3 2.4 1 .6.6.9 1.4.9 2.6zm-5.1 0c0 1.6.6 2.4 1.8 2.4 1.2 0 1.8-.8 1.8-2.4 0-1.6-.6-2.4-1.8-2.4-.6 0-1.1.2-1.4.6-.3.4-.4 1-.4 1.8zM33.9 233.6h-1.5v-4.3c0-.5-.1-.9-.3-1.2s-.5-.4-1-.4c-.6 0-1 .2-1.3.6-.3.4-.4 1-.4 1.9v3.5H28v-7h1.2l.2.9h.1c.2-.3.5-.6.8-.8.4-.2.8-.3 1.2-.3 1.1 0 1.8.4 2.1 1.1h.1c.2-.3.5-.6.9-.8s.8-.3 1.3-.3c.8 0 1.4.2 1.8.6.4.4.6 1.1.6 1.9v4.6h-1.5v-4.3c0-.5-.1-.9-.3-1.2-.2-.3-.5-.4-1-.4-.6 0-1 .2-1.3.5-.3.4-.4.9-.4 1.7v3.7zM43.7 233.7c-.9 0-1.6-.3-2.1-1h-.1c.1.6.1 1 .1 1.1v2.9h-1.5v-10.1h1.2c0 .1.1.4.2.9h.1c.5-.7 1.2-1.1 2.1-1.1.9 0 1.6.3 2 1 .5.6.7 1.5.7 2.7 0 1.1-.2 2-.7 2.7-.5.6-1.1.9-2 .9zm-.4-6.1c-.6 0-1 .2-1.3.5-.3.3-.4.9-.4 1.7v.2c0 .9.1 1.5.4 1.9s.7.6 1.3.6c.5 0 .9-.2 1.2-.6s.4-1 .4-1.8-.1-1.4-.4-1.8c-.2-.4-.6-.7-1.2-.7zM51 233.7c-1.1 0-1.9-.3-2.6-1-.6-.6-.9-1.5-.9-2.6s.3-2 .9-2.7c.6-.7 1.4-1 2.4-1 .9 0 1.7.3 2.2.8.5.6.8 1.3.8 2.3v.8h-4.7c0 .7.2 1.2.6 1.6s.8.5 1.5.5c.4 0 .8 0 1.2-.1.4-.1.7-.2 1.2-.4v1.2c-.4.2-.7.3-1.1.4-.6.2-1 .2-1.5.2zm-.2-6.1c-.5 0-.9.2-1.1.5-.3.3-.5.7-.5 1.3h3.2c0-.6-.1-1-.4-1.3-.4-.4-.8-.5-1.2-.5zM57.8 232.5c.4 0 .7-.1 1.1-.2v1.1c-.2.1-.4.1-.6.2-.3 0-.5.1-.8.1-1.4 0-2.1-.7-2.1-2.2v-3.8h-1v-.7l1-.5.5-1.5h.9v1.6h2v1.1h-2v3.8c0 .4.1.6.3.8.2.1.4.2.7.2zM60 224.7c0-.3.1-.5.2-.6.1-.1.4-.2.6-.2.3 0 .5.1.6.2.1.1.2.3.2.6s-.1.5-.2.6c-.1.1-.4.2-.6.2-.3 0-.5-.1-.6-.2-.2-.1-.2-.3-.2-.6zm1.5 8.9H60v-7h1.5v7zM66 232.5c.4 0 .7-.1 1.1-.2v1.1c-.2.1-.4.1-.6.2-.3 0-.5.1-.8.1-1.4 0-2.1-.7-2.1-2.2v-3.8h-1v-.7l1-.5.5-1.5h.9v1.6h2v1.1h-2v3.8c0 .4.1.6.3.8.2.1.4.2.7.2zM68.2 224.7c0-.3.1-.5.2-.6.1-.1.4-.2.6-.2.3 0 .5.1.6.2.1.1.2.3.2.6s-.1.5-.2.6c-.1.1-.4.2-.6.2-.3 0-.5-.1-.6-.2-.1-.1-.2-.3-.2-.6zm1.6 8.9h-1.5v-7h1.5v7zM73.2 233.6l-2.7-7h1.6l1.4 4.1c.2.7.4 1.2.4 1.7h.1c0-.3.2-.9.4-1.7l1.4-4.1h1.6l-2.7 7h-1.5zM81.4 233.7c-1.1 0-1.9-.3-2.6-1-.6-.6-.9-1.5-.9-2.6s.3-2 .9-2.7c.6-.7 1.4-1 2.4-1 .9 0 1.7.3 2.2.8.5.6.8 1.3.8 2.3v.8h-4.7c0 .7.2 1.2.6 1.6s.8.5 1.5.5c.4 0 .8 0 1.2-.1.4-.1.7-.2 1.2-.4v1.2c-.4.2-.7.3-1.1.4-.6.2-1 .2-1.5.2zm-.3-6.1c-.5 0-.9.2-1.1.5-.3.3-.5.7-.5 1.3h3.2c0-.6-.1-1-.4-1.3-.3-.4-.7-.5-1.2-.5zM94.6 226.6v.8l-1.2.2c.1.1.2.3.3.5s.1.4.1.7c0 .7-.2 1.3-.7 1.7-.5.4-1.2.6-2.1.6-.2 0-.4 0-.6-.1-.3.2-.5.4-.5.7 0 .2.1.3.2.4.1.1.4.1.8.1h1.2c.8 0 1.4.2 1.8.5s.6.8.6 1.4c0 .8-.3 1.4-1 1.8s-1.6.6-2.8.6c-1 0-1.7-.2-2.2-.5s-.8-.8-.8-1.4c0-.4.1-.8.4-1.1.3-.3.7-.5 1.1-.6-.2-.1-.4-.2-.5-.4-.1-.2-.2-.4-.2-.6 0-.3.1-.5.2-.7.1-.2.4-.4.7-.5-.4-.2-.7-.4-.9-.8-.2-.4-.3-.8-.3-1.2 0-.8.2-1.4.7-1.8.5-.4 1.2-.6 2.1-.6h.6c.2 0 .4.1.5.1h2.5zm-5.5 8.1c0 .3.1.6.4.7.3.2.7.3 1.2.3.8 0 1.4-.1 1.8-.3.4-.2.6-.5.6-.9 0-.3-.1-.5-.3-.7-.2-.1-.6-.2-1.2-.2h-1.1c-.4 0-.8.1-1 .3-.3.2-.4.4-.4.8zm.7-5.9c0 .4.1.8.3 1 .2.2.6.4 1 .4.9 0 1.3-.5 1.3-1.4 0-.5-.1-.8-.3-1.1-.2-.2-.5-.4-1-.4-.4 0-.8.1-1 .4-.2.3-.3.7-.3 1.1zM99.2 226.4c.3 0 .5 0 .7.1l-.1 1.4c-.2-.1-.4-.1-.7-.1-.6 0-1.1.2-1.5.6-.4.4-.6.9-.6 1.5v3.7h-1.5v-7h1.2l.2 1.2h.1c.2-.4.5-.8.9-1 .5-.2.9-.4 1.3-.4zM107.2 230.1c0 1.1-.3 2-.9 2.7s-1.4 1-2.5 1c-.7 0-1.2-.1-1.7-.4s-.9-.7-1.2-1.3c-.3-.6-.4-1.2-.4-1.9 0-1.1.3-2 .9-2.7.6-.6 1.4-1 2.5-1 1 0 1.8.3 2.4 1 .6.6.9 1.4.9 2.6zm-5.1 0c0 1.6.6 2.4 1.8 2.4 1.2 0 1.8-.8 1.8-2.4 0-1.6-.6-2.4-1.8-2.4-.6 0-1.1.2-1.4.6-.2.4-.4 1-.4 1.8zM113.7 233.6l-.2-.9h-.1c-.2.3-.5.6-.9.8-.4.2-.8.3-1.3.3-.9 0-1.5-.2-1.9-.6s-.6-1.1-.6-1.9v-4.6h1.5v4.3c0 .5.1.9.3 1.2s.6.4 1 .4c.6 0 1.1-.2 1.4-.6.3-.4.4-1 .4-1.9v-3.5h1.5v7h-1.1zM120.3 233.7c-.9 0-1.6-.3-2.1-1h-.1c.1.6.1 1 .1 1.1v2.9h-1.5v-10.1h1.2c0 .1.1.4.2.9h.1c.5-.7 1.2-1.1 2.1-1.1.9 0 1.6.3 2 1 .5.6.7 1.5.7 2.7 0 1.1-.2 2-.7 2.7-.5.6-1.1.9-2 .9zm-.4-6.1c-.6 0-1 .2-1.3.5-.3.3-.4.9-.4 1.7v.2c0 .9.1 1.5.4 1.9s.7.6 1.3.6c.5 0 .9-.2 1.2-.6s.4-1 .4-1.8-.1-1.4-.4-1.8c-.2-.4-.6-.7-1.2-.7zM131.2 233.7c-.9 0-1.6-.3-2.1-1h-.1c.1.6.1 1 .1 1.1v2.9h-1.5v-10.1h1.2c0 .1.1.4.2.9h.1c.5-.7 1.2-1.1 2.1-1.1.9 0 1.6.3 2 1 .5.6.7 1.5.7 2.7 0 1.1-.2 2-.7 2.7-.4.6-1.1.9-2 .9zm-.3-6.1c-.6 0-1 .2-1.3.5-.3.3-.4.9-.4 1.7v.2c0 .9.1 1.5.4 1.9s.7.6 1.3.6c.5 0 .9-.2 1.2-.6s.4-1 .4-1.8-.1-1.4-.4-1.8c-.3-.4-.7-.7-1.2-.7zM139.1 226.4c.3 0 .5 0 .7.1l-.1 1.4c-.2-.1-.4-.1-.7-.1-.6 0-1.1.2-1.5.6-.4.4-.6.9-.6 1.5v3.7h-1.5v-7h1.2l.2 1.2h.1c.2-.4.5-.8.9-1 .5-.2.9-.4 1.3-.4zM140.8 224.7c0-.3.1-.5.2-.6.1-.1.4-.2.6-.2.3 0 .5.1.6.2.1.1.2.3.2.6s-.1.5-.2.6c-.1.1-.4.2-.6.2-.3 0-.5-.1-.6-.2-.1-.1-.2-.3-.2-.6zm1.6 8.9h-1.5v-7h1.5v7zM147.1 233.7c-1.1 0-1.9-.3-2.4-.9-.6-.6-.8-1.5-.8-2.7 0-1.2.3-2.1.9-2.7.6-.6 1.4-1 2.5-1 .7 0 1.4.1 2 .4l-.5 1.2c-.6-.2-1.2-.4-1.6-.4-1.2 0-1.8.8-1.8 2.4 0 .8.2 1.4.5 1.8.3.4.7.6 1.3.6.7 0 1.3-.2 1.9-.5v1.3c-.3.2-.6.3-.9.3s-.7.2-1.1.2zM150.3 224.7c0-.3.1-.5.2-.6.1-.1.4-.2.6-.2.3 0 .5.1.6.2.1.1.2.3.2.6s-.1.5-.2.6c-.1.1-.4.2-.6.2-.3 0-.5-.1-.6-.2-.1-.1-.2-.3-.2-.6zm1.6 8.9h-1.5v-7h1.5v7zM160 233.6h-1.5v-4.3c0-.5-.1-.9-.3-1.2-.2-.3-.6-.4-1-.4-.6 0-1.1.2-1.4.6s-.4 1-.4 1.9v3.5h-1.5v-7h1.2l.2.9h.1c.2-.3.5-.6.9-.8.4-.2.8-.3 1.3-.3 1.7 0 2.5.9 2.5 2.6v4.5zM167.7 226.6v.8l-1.2.2c.1.1.2.3.3.5s.1.4.1.7c0 .7-.2 1.3-.7 1.7-.5.4-1.2.6-2.1.6-.2 0-.4 0-.6-.1-.3.2-.5.4-.5.7 0 .2.1.3.2.4s.4.1.8.1h1.2c.8 0 1.4.2 1.8.5.4.3.6.8.6 1.4 0 .8-.3 1.4-1 1.8-.7.4-1.6.6-2.8.6-1 0-1.7-.2-2.2-.5s-.8-.8-.8-1.4c0-.4.1-.8.4-1.1.3-.3.7-.5 1.1-.6-.2-.1-.4-.2-.5-.4s-.2-.4-.2-.6c0-.3.1-.5.2-.7.1-.2.4-.4.7-.5-.4-.2-.7-.4-.9-.8s-.3-.8-.3-1.2c0-.8.2-1.4.7-1.8.5-.4 1.2-.6 2.1-.6h.6c.2 0 .4.1.5.1h2.5zm-5.5 8.1c0 .3.1.6.4.7.3.2.7.3 1.2.3.8 0 1.4-.1 1.8-.3.4-.2.6-.5.6-.9 0-.3-.1-.5-.3-.7s-.6-.2-1.2-.2h-1.1c-.4 0-.8.1-1 .3s-.4.4-.4.8zm.7-5.9c0 .4.1.8.3 1s.6.4 1 .4c.9 0 1.3-.5 1.3-1.4 0-.5-.1-.8-.3-1.1-.2-.2-.5-.4-1-.4-.4 0-.8.1-1 .4-.2.3-.3.7-.3 1.1zM168.6 232.8c0-.3.1-.5.2-.7.2-.2.4-.2.7-.2.3 0 .5.1.7.3.2.2.2.4.2.7 0 .3-.1.5-.2.7s-.4.3-.7.3-.5-.1-.7-.3c-.2-.3-.2-.5-.2-.8z"/></g></svg>