<svg id="Layer_1" xmlns="http://www.w3.org/2000/svg" viewBox="0 0 300 250"><style>.st0{fill:#fff}.st1{fill:none}</style><path class="st0" d="M241.3 51.7h23.4l5.9 17.7h-2.7l-5.1-15-22.3-.1z"/><path class="st0" d="M239.6 56.9H261l4.2 12.5h-2.7l-3.3-9.9h-20.4z"/><path class="st0" d="M238.1 62.3L231 84l2.2 1.6 6.4-20.9h16l.8-2.4z"/><path class="st0" d="M241.6 67.3h13.1l-.8 2.4h-10.5l-5.9 19.1-2.1-1.8z"/><path class="st0" d="M240.1 90.7l18.8 13 1.9-1.6-17.9-12.5 4.7-15-2.3-1.7z"/><path class="st0" d="M249.8 76l2.2 1.4-3.2 9.9 16 11.5-1.8 1.8-17.2-12.3z"/><path class="st0" d="M267.4 94.5l-13.2-8.9-1.9 1.2 14.9 10.8 18.9-13.8-.9-2.5z"/><path class="st0" d="M256.9 83.5l1.7-1.4 8.7 6.2 16.1-11.8 1.1 2.3-17.1 12.5z"/><path class="st0" d="M267 82.3l.9 2.4 14.8-10.8-7.5-22.2h-2.5l7.2 21.2z"/><path class="st0" d="M267.3 51.7h2.3l7.1 20.3-10.5 7.8-1-2 8.8-6.9zM238.7 21.4l-1.7 2.8-1.8-2.8h-2.1v7.3h2v-4.2l1.8 2.9h.1l1.8-2.9v4.2h2.1v-7.3zM242.2 21.4h2v7.3h-2zM245.6 21.4v7.3h5.5v-1.8h-3.5v-5.5zM252.1 21.4h2v7.3h-2zM255 21.4v1.8h2.2v5.5h2v-5.5h2.2v-1.8zM264.9 23.7l.8 2.1h-1.6l.8-2.1zm-1-2.4l-3.1 7.4h2.1l.5-1.3h2.8l.5 1.3h2.2l-3.1-7.4h-1.9zM269.7 21.4h3.5c1.1 0 1.9.3 2.4.8.4.4.6 1 .6 1.7 0 1.1-.6 1.9-1.5 2.2l1.7 2.6h-2.3l-1.5-2.2h-.9v2.2h-2v-7.3zm3.4 3.5c.7 0 1.1-.3 1.1-.9 0-.6-.4-.9-1.1-.9h-1.3v1.8h1.3zM279.1 26l-2.8-4.6h2.3l1.5 2.6 1.5-2.6h2.3l-2.8 4.5v2.8h-2zM233.1 31.3h4.2c1 0 1.7.3 2.2.7.3.3.5.8.5 1.3 0 .9-.5 1.5-1.2 1.8 1 .3 1.6.9 1.6 2 0 1.4-1.1 2.2-3.1 2.2h-4.2v-8zm3.6 3.2c.7 0 1.1-.2 1.1-.7 0-.4-.3-.7-1-.7h-1.5v1.4h1.4zm.4 3.1c.7 0 1.1-.3 1.1-.7 0-.4-.3-.7-1.1-.7h-1.7v1.5h1.7zM241.4 31.3h6.5v1.9h-4.3v1.2h3.9v1.8h-3.9v1.3h4.4v1.9h-6.6zM249.1 31.3h2.1l3.4 4.3v-4.3h2.2v8.1h-2l-3.4-4.4v4.4h-2.3zM258.2 31.3h6.5v1.9h-4.2v1.2h3.8v1.8h-3.8v1.3h4.3v1.9h-6.6zM266 31.3h6.4v2h-4.2v1.3h3.8v1.9h-3.8v2.9H266zM273.5 31.3h2.3v8.1h-2.3zM279.2 33.3h-2.4v-2h7.1v2h-2.4v6.1h-2.3zM234.6 42h1.3l2.1 5h-1.5l-.4-.9h-1.9l-.4.9h-1.4l2.2-5zm1.2 3l-.6-1.4-.6 1.4h1.2zM238.1 46.3l.8-.9c.5.4 1 .6 1.6.6.4 0 .6-.1.6-.3 0-.2-.2-.3-.8-.5-1.1-.2-1.9-.5-1.9-1.6 0-.9.7-1.6 1.9-1.6.8 0 1.5.2 2 .7l-.7 1c-.5-.3-1-.5-1.4-.5-.3 0-.5.1-.5.3 0 .2.2.3.9.5 1.1.2 1.9.6 1.9 1.5 0 1-.8 1.6-2 1.6-1 0-1.8-.3-2.4-.8M242.6 46.3l.8-.9c.5.4 1 .6 1.6.6.4 0 .6-.1.6-.3 0-.2-.2-.3-.8-.5-1.1-.2-1.9-.5-1.9-1.6 0-.9.7-1.6 1.9-1.6.8 0 1.5.2 2 .7l-.7 1c-.5-.3-1-.5-1.4-.5-.3 0-.5.1-.5.3 0 .2.2.3.9.5 1.1.2 1.9.6 1.9 1.5 0 1-.8 1.6-2 1.6-.9 0-1.8-.3-2.4-.8M247.4 44.5c0-1.4 1.1-2.6 2.7-2.6 1.5 0 2.7 1.1 2.7 2.6 0 1.4-1.1 2.6-2.7 2.6-1.5 0-2.7-1.1-2.7-2.6m4 0c0-.7-.5-1.4-1.3-1.4s-1.3.6-1.3 1.3c0 .7.5 1.3 1.3 1.3.8.2 1.3-.5 1.3-1.2M253.3 44.5c0-1.5 1.1-2.6 2.6-2.6 1 0 1.7.4 2.1 1l-1 .8c-.3-.4-.6-.6-1.1-.6-.7 0-1.2.6-1.2 1.3 0 .7.5 1.3 1.2 1.3.5 0 .8-.2 1.1-.6l1 .7c-.5.6-1.1 1.1-2.2 1.1-1.3.2-2.5-.9-2.5-2.4M258.7 42h1.4v5h-1.4zM262.7 42h1.3l2.1 5h-1.5l-.4-.9h-1.9l-.4.9h-1.4l2.2-5zm1.2 3l-.6-1.4-.6 1.4h1.2zM267.2 43.2h-1.5V42h4.4v1.2h-1.5V47h-1.4zM270.7 42h1.4v5h-1.4zM272.9 44.5c0-1.4 1.1-2.6 2.7-2.6 1.5 0 2.7 1.1 2.7 2.6 0 1.4-1.1 2.6-2.7 2.6s-2.7-1.1-2.7-2.6m3.9 0c0-.7-.5-1.4-1.3-1.4s-1.3.6-1.3 1.3c0 .7.5 1.3 1.3 1.3.8.2 1.3-.5 1.3-1.2M278.9 42h1.3l2 2.7V42h1.4v5h-1.2l-2.1-2.7V47h-1.4z"/><path class="st1" d="M231 21.3h55.1v82.4H231z"/></svg>