<svg id="Layer_1" xmlns="http://www.w3.org/2000/svg" viewBox="0 0 728 90"><style>.st0{fill:#414042}</style><path class="st0" d="M302 33.9h-4.6l-1.4-6.2c-.1-.3-.2-.8-.3-1.6s-.2-1.4-.3-1.9c-.1.4-.1.9-.3 1.6s-.2 1.2-.3 1.7-.6 2.7-1.4 6.4h-4.6l-3.5-14.3h3.7l1.6 7.2c.4 1.6.6 2.8.7 3.8.1-.7.2-1.6.5-2.7s.4-2.1.6-2.8l1.3-5.4h3.6l1.2 5.4c.2.9.4 1.9.6 3s.4 2 .4 2.5c.1-.7.3-2 .7-3.8l1.6-7.2h3.7L302 33.9zM312 34.1c-1.8 0-3.3-.5-4.3-1.5s-1.5-2.4-1.5-4.2c0-1.9.5-3.3 1.4-4.3s2.3-1.5 4-1.5c1.7 0 3 .4 3.9 1.3s1.4 2.1 1.4 3.8v1.7h-6.8c0 .6.3 1.1.7 1.5s1 .5 1.7.5 1.3-.1 1.9-.2 1.2-.3 1.8-.6v2.7c-.6.3-1.2.5-1.9.6s-1.4.2-2.3.2zm-.2-8.9c-.4 0-.8.1-1.1.4s-.5.7-.5 1.3h3.3c0-.5-.2-1-.5-1.3s-.7-.4-1.2-.4zM328.5 34.1c-1.8 0-3.2-.5-4.1-1.5s-1.4-2.4-1.4-4.2c0-1.8.5-3.3 1.5-4.3s2.4-1.5 4.3-1.5c1.3 0 2.5.3 3.6.8l-1.1 2.8c-.5-.2-.9-.4-1.3-.5s-.8-.2-1.2-.2c-.6 0-1.1.2-1.4.7s-.5 1.2-.5 2c0 1.8.7 2.7 2 2.7 1.1 0 2.2-.3 3.2-1v3c-1 .8-2.2 1.2-3.6 1.2zM341.1 33.9l-.7-1.5h-.1c-.5.6-1 1.1-1.6 1.3s-1.2.4-2.1.4c-1 0-1.9-.3-2.5-.9s-.9-1.5-.9-2.6c0-1.2.4-2.1 1.2-2.6s2-.9 3.6-1l1.8-.1v-.2c0-.9-.4-1.4-1.3-1.4-.8 0-1.8.3-3.1.8l-1.1-2.5c1.3-.7 2.9-1 4.9-1 1.4 0 2.5.4 3.3 1.1s1.2 1.7 1.2 2.9v7.3h-2.6zm-2.9-2.5c.5 0 .9-.1 1.2-.4s.5-.7.5-1.1V29h-.9c-1.3 0-1.9.5-1.9 1.4.1.6.4 1 1.1 1zM352.9 33.9v-6c0-.7-.1-1.3-.3-1.7s-.6-.6-1-.6c-.6 0-1.1.3-1.4.8s-.4 1.4-.4 2.6v4.8H346v-11h2.9l.5 1.4h.2c.3-.5.8-.9 1.4-1.2s1.2-.4 2-.4c1.2 0 2.2.4 2.9 1.1s1 1.7 1 3v7.2h-4zM370.7 33.9v-6c0-1.5-.4-2.2-1.3-2.2-.6 0-1.1.3-1.4.8s-.4 1.4-.4 2.6V34h-3.8V18.7h3.8v2.2c0 1-.1 2.1-.2 3.3h.2c.4-.6.8-1 1.3-1.2s1.1-.4 1.7-.4c1.2 0 2.2.4 2.9 1.1s1 1.7 1 3v7.2h-3.8zM382.1 34.1c-1.8 0-3.3-.5-4.3-1.5s-1.5-2.4-1.5-4.2c0-1.9.5-3.3 1.4-4.3s2.3-1.5 4-1.5c1.7 0 3 .4 3.9 1.3s1.4 2.1 1.4 3.8v1.7h-6.8c0 .6.3 1.1.7 1.5s1 .5 1.7.5 1.3-.1 1.9-.2 1.2-.3 1.8-.6v2.7c-.6.3-1.2.5-1.9.6s-1.4.2-2.3.2zm-.2-8.9c-.4 0-.8.1-1.1.4s-.5.7-.5 1.3h3.3c0-.5-.2-1-.5-1.3s-.7-.4-1.2-.4zM392.6 33.9h-3.8V18.7h3.8v15.2zM401.4 34.1c-.6 0-1.1-.1-1.5-.3s-.9-.5-1.3-1h-.2c.1.8.2 1.3.2 1.4v4.4h-3.8V22.8h3.1l.5 1.4h.2c.7-1.1 1.7-1.6 2.9-1.6s2.2.5 2.9 1.5 1 2.4 1 4.2c0 1.8-.4 3.2-1.1 4.2s-1.6 1.6-2.9 1.6zm-1.2-8.5c-.6 0-1 .2-1.2.6s-.3 1-.4 1.8v.3c0 1 .1 1.6.4 2.1s.7.6 1.2.6.8-.2 1.1-.6.3-1.1.3-2.1-.1-1.6-.3-2-.6-.7-1.1-.7zM410.7 22.8h4l1.9 6.3c.1.3.2.7.2 1.2h.1c.1-.4.1-.8.2-1.2l1.9-6.4h3.9l-4.4 11.8c-.6 1.5-1.2 2.6-2.1 3.2s-1.9.9-3.2.9c-.5 0-1-.1-1.6-.2v-3c.3.1.7.1 1.2.1.3 0 .6-.1.9-.2s.5-.3.7-.6.4-.6.6-1.2l-4.3-10.7zM434.5 28.3c0 1.8-.5 3.2-1.5 4.2s-2.3 1.5-4.1 1.5c-1.7 0-3-.5-4-1.6s-1.5-2.4-1.5-4.2c0-1.8.5-3.2 1.5-4.2s2.3-1.5 4.1-1.5c1.1 0 2 .2 2.9.7s1.5 1.1 1.9 2 .7 2 .7 3.1zm-7.2 0c0 1 .1 1.7.4 2.2s.7.7 1.3.7c.6 0 1-.2 1.3-.7s.4-1.2.4-2.2c0-.9-.1-1.7-.4-2.1s-.7-.7-1.3-.7c-.6 0-1 .2-1.3.7s-.4 1.2-.4 2.1zM444.1 33.9l-.5-1.4h-.2c-.3.5-.8.9-1.3 1.2s-1.2.4-2 .4c-1.2 0-2.2-.4-2.8-1.1s-1-1.7-1-3v-7.2h3.8v6c0 .7.1 1.3.3 1.6s.5.6 1 .6c.7 0 1.1-.3 1.4-.8s.4-1.4.4-2.6v-4.8h3.8v11.1h-2.9zM460.7 34.1c-.6 0-1.1-.1-1.5-.3s-.9-.5-1.3-1h-.2c.1.8.2 1.3.2 1.4v4.4h-3.8V22.8h3.1l.5 1.4h.2c.7-1.1 1.7-1.6 2.9-1.6s2.2.5 2.9 1.5 1 2.4 1 4.2c0 1.8-.4 3.2-1.1 4.2s-1.6 1.6-2.9 1.6zm-1.3-8.5c-.6 0-1 .2-1.2.6s-.3 1-.4 1.8v.3c0 1 .1 1.6.4 2.1s.7.6 1.2.6.8-.2 1.1-.6.3-1.1.3-2.1-.1-1.6-.3-2-.6-.7-1.1-.7zM473.2 22.6c.3 0 .6 0 .9.1h.2l-.3 3.6c-.3-.1-.7-.1-1.3-.1-.8 0-1.4.2-1.8.6s-.6.9-.6 1.6v5.4h-3.8v-11h2.8l.6 1.8h.2c.3-.6.8-1.1 1.3-1.4s1.2-.6 1.8-.6zM486.1 28.3c0 1.8-.5 3.2-1.5 4.2s-2.3 1.5-4.1 1.5c-1.7 0-3-.5-4-1.6S475 30 475 28.2c0-1.8.5-3.2 1.5-4.2s2.3-1.5 4.1-1.5c1.1 0 2 .2 2.9.7s1.5 1.1 1.9 2 .7 2 .7 3.1zm-7.2 0c0 1 .1 1.7.4 2.2s.7.7 1.3.7c.6 0 1-.2 1.3-.7s.4-1.2.4-2.2c0-.9-.1-1.7-.4-2.1s-.7-.7-1.3-.7c-.6 0-1 .2-1.3.7s-.4 1.2-.4 2.1zM493.3 31.1c.5 0 1.1-.1 1.8-.4v2.8c-.5.2-1 .4-1.5.5s-1 .1-1.6.1c-1.3 0-2.2-.3-2.8-.9s-.8-1.6-.8-2.9v-4.6h-1.3v-1.6l1.7-1.2 1-2.3h2.5v2.2h2.7v2.9h-2.7V30c-.1.7.3 1.1 1 1.1zM502 34.1c-1.8 0-3.3-.5-4.3-1.5s-1.5-2.4-1.5-4.2c0-1.9.5-3.3 1.4-4.3s2.3-1.5 4-1.5c1.7 0 3 .4 3.9 1.3s1.4 2.1 1.4 3.8v1.7h-6.8c0 .6.3 1.1.7 1.5s1 .5 1.7.5 1.3-.1 1.9-.2 1.2-.3 1.8-.6v2.7c-.6.3-1.2.5-1.9.6s-1.4.2-2.3.2zm-.2-8.9c-.4 0-.8.1-1.1.4s-.5.7-.5 1.3h3.3c0-.5-.2-1-.5-1.3s-.7-.4-1.2-.4zM513.7 34.1c-1.8 0-3.2-.5-4.1-1.5s-1.4-2.4-1.4-4.2c0-1.8.5-3.3 1.5-4.3s2.4-1.5 4.3-1.5c1.3 0 2.5.3 3.6.8l-1.1 2.8c-.5-.2-.9-.4-1.3-.5s-.8-.2-1.2-.2c-.6 0-1.1.2-1.4.7s-.5 1.2-.5 2c0 1.8.7 2.7 2 2.7 1.1 0 2.2-.3 3.2-1v3c-1.1.8-2.2 1.2-3.6 1.2zM524.4 31.1c.5 0 1.1-.1 1.8-.4v2.8c-.5.2-1 .4-1.5.5s-1 .1-1.6.1c-1.3 0-2.2-.3-2.8-.9s-.8-1.6-.8-2.9v-4.6h-1.3v-1.6l1.7-1.2 1-2.3h2.5v2.2h2.7v2.9h-2.7V30c0 .7.4 1.1 1 1.1zM531.3 22.8h4l1.9 6.3c.1.3.2.7.2 1.2h.1c.1-.4.1-.8.2-1.2l1.9-6.4h3.9l-4.4 11.8c-.6 1.5-1.2 2.6-2.1 3.2s-1.9.9-3.2.9c-.5 0-1-.1-1.6-.2v-3c.3.1.7.1 1.2.1.3 0 .6-.1.9-.2s.5-.3.7-.6.4-.6.6-1.2l-4.3-10.7zM555 28.3c0 1.8-.5 3.2-1.5 4.2s-2.3 1.5-4.1 1.5c-1.7 0-3-.5-4-1.6s-1.5-2.4-1.5-4.2c0-1.8.5-3.2 1.5-4.2s2.3-1.5 4.1-1.5c1.1 0 2 .2 2.9.7s1.5 1.1 1.9 2 .7 2 .7 3.1zm-7.1 0c0 1 .1 1.7.4 2.2s.7.7 1.3.7c.6 0 1-.2 1.3-.7s.4-1.2.4-2.2c0-.9-.1-1.7-.4-2.1s-.7-.7-1.3-.7c-.6 0-1 .2-1.3.7s-.4 1.2-.4 2.1zM564.7 33.9l-.5-1.4h-.2c-.3.5-.8.9-1.3 1.2s-1.2.4-2 .4c-1.2 0-2.2-.4-2.8-1.1s-1-1.7-1-3v-7.2h3.8v6c0 .7.1 1.3.3 1.6s.5.6 1 .6c.7 0 1.1-.3 1.4-.8s.4-1.4.4-2.6v-4.8h3.8v11.1h-2.9zM576.5 22.6c.3 0 .6 0 .9.1h.2l-.3 3.6c-.3-.1-.7-.1-1.3-.1-.8 0-1.4.2-1.8.6s-.6.9-.6 1.6v5.4h-3.8v-11h2.8l.6 1.8h.2c.3-.6.8-1.1 1.3-1.4s1.2-.6 1.8-.6zM590.4 25.7H588v8.2h-3.8v-8.2h-1.5v-1.9l1.5-.9v-.2c0-1.5.3-2.5.9-3.1s1.6-1 2.9-1c.5 0 1 0 1.4.1s1 .2 1.6.4l-.8 2.5c-.5-.1-.9-.2-1.4-.2-.3 0-.5.1-.6.3s-.2.5-.2.9v.3h2.4v2.8zM598.7 33.9l-.7-1.5h-.1c-.5.6-1 1.1-1.6 1.3s-1.2.4-2.1.4c-1 0-1.9-.3-2.5-.9s-.9-1.5-.9-2.6c0-1.2.4-2.1 1.2-2.6s2-.9 3.6-1l1.8-.1v-.2c0-.9-.4-1.4-1.3-1.4-.8 0-1.8.3-3.1.8l-1.1-2.5c1.3-.7 2.9-1 4.9-1 1.4 0 2.5.4 3.3 1.1s1.2 1.7 1.2 2.9v7.3h-2.6zm-2.8-2.5c.5 0 .9-.1 1.2-.4s.5-.7.5-1.1V29h-.9c-1.3 0-1.9.5-1.9 1.4 0 .6.4 1 1.1 1zM617.1 33.9v-6c0-.7-.1-1.3-.3-1.7s-.5-.6-1-.6c-.6 0-1 .3-1.3.8s-.4 1.3-.4 2.4V34h-3.8v-6c0-.7-.1-1.3-.3-1.7s-.5-.6-.9-.6c-.6 0-1 .3-1.3.8s-.4 1.4-.4 2.6v4.8h-3.8V22.8h2.9l.5 1.4h.2c.3-.5.7-.9 1.3-1.2s1.2-.4 1.9-.4c1.6 0 2.7.5 3.4 1.5h.3c.3-.5.7-.8 1.3-1.1s1.2-.4 1.8-.4c1.3 0 2.3.3 2.9 1s.9 1.7.9 3.1v7.2h-3.9zM623.1 20.1c0-.6.2-1 .5-1.3s.8-.4 1.5-.4 1.2.1 1.6.4.5.7.5 1.3c0 1.1-.7 1.7-2 1.7-1.4-.1-2.1-.6-2.1-1.7zm3.9 13.8h-3.8V22.8h3.8v11.1zM633.1 33.9h-3.8V18.7h3.8v15.2zM634 22.8h4l1.9 6.3c.1.3.2.7.2 1.2h.1c.1-.4.1-.8.2-1.2l1.9-6.4h3.9l-4.4 11.8c-.6 1.5-1.2 2.6-2.1 3.2s-1.9.9-3.2.9c-.5 0-1-.1-1.6-.2v-3c.3.1.7.1 1.2.1.3 0 .6-.1.9-.2s.5-.3.7-.6.4-.6.6-1.2L634 22.8zM646.7 32.3c0-.6.2-1.1.5-1.4s.9-.5 1.5-.5 1.1.2 1.5.5.5.8.5 1.4c0 .6-.2 1-.5 1.4s-.8.5-1.5.5c-.6 0-1.2-.2-1.5-.5s-.5-.8-.5-1.4z"/></svg>