<svg id="Layer_1" xmlns="http://www.w3.org/2000/svg" viewBox="0 0 728 90"><style>.st0{fill:#2d58a7}.st1{fill:none}</style><path class="st0" d="M24.6 36.4h20.1l5.1 15.1h-2.4l-4.3-12.8-19.1-.1z"/><path class="st0" d="M23.2 40.8h18.3l3.6 10.7h-2.3l-2.9-8.4-17.4-.1z"/><path class="st0" d="M21.9 45.4l-6 18.6 1.8 1.4 5.5-17.9h13.7l.7-2.1z"/><path class="st0" d="M24.9 49.7h11.3l-.8 2.1h-8.9l-5.1 16.3-1.8-1.5z"/><path class="st0" d="M23.6 69.7l16.2 11.2 1.6-1.4L26 68.8l4-12.9-1.9-1.4z"/><path class="st0" d="M31.9 57.2l1.9 1.2-2.7 8.5 13.7 9.8-1.6 1.5-14.7-10.5z"/><path class="st0" d="M46.9 73l-11.2-7.6-1.6 1 12.7 9.2L63 63.9l-.8-2.2z"/><path class="st0" d="M38 63.6l1.5-1.2 7.4 5.3 13.8-10.1.9 1.9-14.7 10.8z"/><path class="st0" d="M46.6 62.5l.8 2.1 12.7-9.2-6.4-19h-2.2l6.2 18.1z"/><path class="st0" d="M46.9 36.4h2L55 53.7l-9.1 6.7-.8-1.7 7.5-5.9zM22.4 10.4l-1.5 2.4-1.4-2.4h-1.9v6.3h1.7v-3.6l1.6 2.4 1.6-2.4v3.6h1.8v-6.3zM25.4 10.4h1.7v6.3h-1.7zM28.3 10.4v6.3h4.8v-1.5H30v-4.8zM33.9 10.4h1.7v6.3h-1.7zM36.4 10.4v1.5h1.9v4.8H40v-4.8h1.9v-1.5zM44.8 12.4l.7 1.8h-1.4l.7-1.8zm-.8-2l-2.7 6.3h1.8l.4-1.1H46l.5 1.1h1.9l-2.7-6.3H44zM49 10.4h3c1 0 1.6.3 2 .7.4.4.6.8.6 1.5 0 1-.5 1.6-1.3 1.9l1.5 2.2h-2l-1.3-1.9h-.7v1.9H49v-6.3zm2.9 3c.6 0 .9-.3.9-.7 0-.5-.4-.7-.9-.7h-1.1v1.5h1.1zM57 14.3l-2.4-3.9h2l1.3 2.3 1.3-2.3h1.9l-2.4 3.9v2.4H57zM17.7 18.9h3.6c.9 0 1.5.2 1.9.6.3.3.4.6.4 1.1 0 .8-.5 1.3-1.1 1.5.8.3 1.4.8 1.4 1.7 0 1.2-1 1.9-2.6 1.9h-3.6v-6.8zm3.1 2.8c.6 0 .9-.2.9-.6 0-.4-.3-.6-.9-.6h-1.2v1.2h1.2zm.2 2.6c.6 0 .9-.2.9-.6 0-.4-.3-.6-.9-.6h-1.5v1.3H21zM24.8 18.9h5.5v1.6h-3.6v1.1H30v1.5h-3.3v1.1h3.7v1.6h-5.6zM31.4 18.9h1.8l2.8 3.7v-3.7h1.9v6.9h-1.7L33.3 22v3.8h-1.9zM39.1 18.9h5.6v1.6H41v1.1h3.4v1.5H41v1.1h3.8v1.6h-5.7zM45.8 18.9h5.5v1.7h-3.6v1.2H51v1.6h-3.3v2.4h-1.9zM52.2 18.9h1.9v6.9h-1.9zM57.1 20.6H55v-1.7h6.1v1.7H59v5.2h-1.9zM21.9 31.7l.7-.8c.4.3.9.5 1.4.5.3 0 .5-.1.5-.3 0-.2-.1-.3-.7-.4-.9-.2-1.6-.5-1.6-1.3s.6-1.4 1.6-1.4c.7 0 1.3.2 1.7.6l-.6.8c-.4-.3-.8-.4-1.2-.4-.3 0-.4.1-.4.3 0 .2.1.3.7.4 1 .2 1.6.5 1.6 1.3 0 .9-.7 1.4-1.7 1.4-.8 0-1.5-.2-2-.7M25.8 31.7l.7-.8c.4.3.9.5 1.4.5.3 0 .5-.1.5-.3 0-.2-.1-.3-.7-.4-.9-.2-1.6-.5-1.6-1.3s.6-1.4 1.6-1.4c.7 0 1.3.2 1.7.6l-.6.8c-.4-.3-.8-.4-1.2-.4-.3 0-.4.1-.4.3 0 .2.1.3.7.4 1 .2 1.6.5 1.6 1.3 0 .9-.7 1.4-1.7 1.4-.8 0-1.5-.2-2-.7M29.9 30.2c0-1.2 1-2.2 2.3-2.2s2.3 1 2.3 2.2c0 1.2-1 2.2-2.3 2.2-1.3 0-2.3-1-2.3-2.2m3.4 0c0-.6-.4-1.2-1.1-1.2-.6 0-1.1.5-1.1 1.1 0 .6.4 1.1 1.1 1.1.7.2 1.1-.4 1.1-1M35 30.2c0-1.3 1-2.2 2.2-2.2.9 0 1.4.4 1.8.9l-.9.7c-.2-.3-.5-.5-.9-.5-.6 0-1 .5-1 1.1 0 .6.4 1.1 1 1.1.4 0 .7-.2 1-.5l.9.6c-.4.6-.9 1-1.9 1-1.3 0-2.2-.9-2.2-2.2M39.6 28.1h1.2v4.3h-1.2zM43 28.1h1.1l1.8 4.3h-1.3l-.3-.8h-1.6l-.3.8h-1.2l1.8-4.3zm1 2.6l-.5-1.2-.5 1.2h1zM46.8 29.1h-1.2v-1h3.7v1H48v3.2h-1.2zM49.8 28.1H51v4.3h-1.2zM51.7 30.2c0-1.2 1-2.2 2.3-2.2s2.3 1 2.3 2.2c0 1.2-1 2.2-2.3 2.2s-2.3-1-2.3-2.2m3.3 0c0-.6-.4-1.2-1.1-1.2-.6 0-1.1.5-1.1 1.1 0 .6.4 1.1 1.1 1.1.7.2 1.1-.4 1.1-1M56.8 28.1h1.1l1.8 2.2v-2.2h1.2v4.2h-1.1L58 30v2.3h-1.2z"/><path class="st1" d="M15.9 10.4h47.2v70.5H15.9z"/></svg>