<?xml version="1.0" encoding="utf-8"?>
<!-- Generator: Adobe Illustrator 22.1.0, SVG Export Plug-In . SVG Version: 6.00 Build 0)  -->
<svg version="1.1" id="Layer_1" xmlns="http://www.w3.org/2000/svg" xmlns:xlink="http://www.w3.org/1999/xlink" x="0px" y="0px"
	 viewBox="0 0 300 250" style="enable-background:new 0 0 300 250;" xml:space="preserve">
<style type="text/css">
	.st0{fill:#FFFFFF;}
</style>
<g>
	<path class="st0" d="M42.6,131.2h-5.5l-1.6-7.5c-0.1-0.3-0.2-0.9-0.4-1.9s-0.3-1.7-0.4-2.3c-0.1,0.5-0.2,1.1-0.3,1.9
		s-0.3,1.4-0.4,2.1s-0.7,3.2-1.7,7.7h-5.5l-4.2-17.1h4.5l1.9,8.6c0.4,1.9,0.7,3.4,0.9,4.5c0.1-0.8,0.3-1.9,0.5-3.2s0.5-2.5,0.7-3.4
		l1.5-6.5h4.3l1.5,6.5c0.2,1,0.5,2.2,0.8,3.6s0.4,2.4,0.5,3c0.1-0.9,0.4-2.4,0.8-4.5l1.9-8.6h4.5L42.6,131.2z"/>
	<path class="st0" d="M54.7,131.5c-2.2,0-3.9-0.6-5.2-1.8s-1.8-2.8-1.8-5c0-2.2,0.6-4,1.7-5.2s2.8-1.8,4.9-1.8c2,0,3.5,0.5,4.6,1.6
		s1.6,2.5,1.6,4.5v2h-8.2c0,0.7,0.3,1.3,0.8,1.7s1.2,0.6,2.1,0.6c0.8,0,1.5-0.1,2.2-0.2s1.4-0.4,2.2-0.8v3.3
		c-0.7,0.4-1.5,0.6-2.2,0.8S55.8,131.5,54.7,131.5z M54.4,120.8c-0.5,0-1,0.2-1.4,0.5s-0.6,0.9-0.6,1.6h3.9c0-0.6-0.2-1.2-0.5-1.5
		S55,120.8,54.4,120.8z"/>
	<path class="st0" d="M74.5,131.5c-2.2,0-3.8-0.6-4.9-1.8s-1.7-2.9-1.7-5.1c0-2.2,0.6-3.9,1.8-5.1s2.9-1.8,5.2-1.8
		c1.5,0,3,0.3,4.3,1l-1.3,3.4c-0.6-0.2-1.1-0.4-1.5-0.6s-1-0.2-1.5-0.2c-0.7,0-1.3,0.3-1.7,0.9s-0.6,1.4-0.6,2.4
		c0,2.1,0.8,3.2,2.4,3.2c1.3,0,2.6-0.4,3.9-1.2v3.6C77.6,131.1,76.1,131.5,74.5,131.5z"/>
	<path class="st0" d="M89.6,131.2l-0.9-1.8h-0.1c-0.6,0.8-1.2,1.3-1.9,1.6s-1.5,0.4-2.5,0.4c-1.2,0-2.2-0.4-3-1.1s-1.1-1.8-1.1-3.2
		c0-1.4,0.5-2.5,1.5-3.2s2.4-1.1,4.3-1.2l2.2-0.1v-0.2c0-1.1-0.5-1.6-1.6-1.6c-1,0-2.2,0.3-3.7,1l-1.3-3c1.5-0.8,3.5-1.2,5.9-1.2
		c1.7,0,3,0.4,4,1.3s1.4,2,1.4,3.5v8.7H89.6z M86.2,128.2c0.6,0,1-0.2,1.4-0.5s0.6-0.8,0.6-1.4v-1l-1.1,0c-1.5,0.1-2.3,0.6-2.3,1.7
		C84.9,127.8,85.3,128.2,86.2,128.2z"/>
	<path class="st0" d="M103.8,131.2V124c0-0.9-0.1-1.5-0.4-2s-0.7-0.7-1.2-0.7c-0.8,0-1.3,0.3-1.7,0.9s-0.5,1.7-0.5,3.2v5.8h-4.6V118
		h3.5l0.6,1.6h0.3c0.4-0.6,0.9-1.1,1.6-1.4s1.5-0.5,2.4-0.5c1.5,0,2.6,0.4,3.4,1.3s1.2,2.1,1.2,3.6v8.6H103.8z"/>
	<path class="st0" d="M125.1,131.2V124c0-1.8-0.5-2.7-1.6-2.7c-0.8,0-1.3,0.3-1.7,0.9s-0.5,1.7-0.5,3.1v5.8h-4.6V113h4.6v2.6
		c0,1.2-0.1,2.5-0.2,4h0.2c0.4-0.7,1-1.2,1.6-1.5s1.3-0.4,2.1-0.4c1.5,0,2.6,0.4,3.5,1.3s1.2,2.1,1.2,3.6v8.6H125.1z"/>
	<path class="st0" d="M138.8,131.5c-2.2,0-3.9-0.6-5.2-1.8s-1.8-2.8-1.8-5c0-2.2,0.6-4,1.7-5.2s2.8-1.8,4.9-1.8c2,0,3.5,0.5,4.6,1.6
		s1.6,2.5,1.6,4.5v2h-8.2c0,0.7,0.3,1.3,0.8,1.7s1.2,0.6,2.1,0.6c0.8,0,1.5-0.1,2.2-0.2s1.4-0.4,2.2-0.8v3.3
		c-0.7,0.4-1.5,0.6-2.2,0.8S139.9,131.5,138.8,131.5z M138.5,120.8c-0.5,0-1,0.2-1.4,0.5s-0.6,0.9-0.6,1.6h3.9
		c0-0.6-0.2-1.2-0.5-1.5S139.1,120.8,138.5,120.8z"/>
	<path class="st0" d="M151.3,131.2h-4.6V113h4.6V131.2z"/>
	<path class="st0" d="M162,131.5c-0.7,0-1.3-0.1-1.8-0.3s-1.1-0.6-1.6-1.2h-0.2c0.1,0.9,0.2,1.5,0.2,1.7v5.3H154v-19h3.7l0.6,1.7
		h0.2c0.9-1.3,2-1.9,3.5-1.9c1.5,0,2.6,0.6,3.5,1.8s1.3,2.9,1.3,5c0,2.1-0.4,3.8-1.3,5.1S163.5,131.5,162,131.5z M160.5,121.3
		c-0.7,0-1.1,0.2-1.4,0.7s-0.4,1.2-0.4,2.1v0.4c0,1.1,0.2,2,0.5,2.5s0.8,0.8,1.4,0.8c0.6,0,1-0.3,1.3-0.8s0.4-1.3,0.4-2.5
		c0-1.1-0.1-2-0.4-2.5S161.1,121.3,160.5,121.3z"/>
</g>
<g>
	<path class="st0" d="M31.8,157.5c-0.7,0-1.3-0.1-1.8-0.3s-1.1-0.6-1.6-1.2h-0.2c0.1,0.9,0.2,1.5,0.2,1.7v5.3h-4.6v-19h3.7l0.6,1.7
		h0.2c0.9-1.3,2-1.9,3.5-1.9c1.5,0,2.6,0.6,3.5,1.8s1.3,2.9,1.3,5c0,2.1-0.4,3.8-1.3,5.1S33.3,157.5,31.8,157.5z M30.3,147.3
		c-0.7,0-1.1,0.2-1.4,0.7s-0.4,1.2-0.4,2.1v0.4c0,1.1,0.2,2,0.5,2.5s0.8,0.8,1.4,0.8c0.6,0,1-0.3,1.3-0.8s0.4-1.3,0.4-2.5
		c0-1.1-0.1-2-0.4-2.5S30.9,147.3,30.3,147.3z"/>
	<path class="st0" d="M46.8,143.7c0.4,0,0.8,0,1.1,0.1l0.3,0l-0.4,4.3c-0.4-0.1-0.9-0.1-1.6-0.1c-1,0-1.7,0.2-2.2,0.7
		s-0.7,1.1-0.7,2v6.5h-4.6V144h3.4l0.7,2.1h0.2c0.4-0.7,0.9-1.3,1.6-1.7S46.1,143.7,46.8,143.7z"/>
	<path class="st0" d="M62.3,150.6c0,2.2-0.6,3.9-1.8,5.1s-2.8,1.8-4.9,1.8c-2,0-3.6-0.6-4.8-1.9s-1.8-2.9-1.8-5c0-2.2,0.6-3.8,1.8-5
		s2.8-1.8,4.9-1.8c1.3,0,2.5,0.3,3.5,0.8s1.8,1.3,2.3,2.4S62.3,149.2,62.3,150.6z M53.7,150.6c0,1.1,0.2,2,0.5,2.6s0.8,0.9,1.5,0.9
		c0.7,0,1.2-0.3,1.5-0.9s0.4-1.5,0.4-2.6c0-1.1-0.1-2-0.4-2.6s-0.8-0.9-1.5-0.9c-0.7,0-1.2,0.3-1.5,0.9S53.7,149.4,53.7,150.6z"/>
	<path class="st0" d="M70.9,153.8c0.6,0,1.4-0.2,2.2-0.5v3.3c-0.6,0.3-1.2,0.5-1.8,0.6s-1.2,0.2-2,0.2c-1.5,0-2.6-0.4-3.3-1.1
		s-1-1.9-1-3.5v-5.5h-1.6v-1.9l2-1.4l1.2-2.8h3v2.7h3.3v3.4h-3.3v5.2C69.7,153.4,70.1,153.8,70.9,153.8z"/>
	<path class="st0" d="M81.4,157.5c-2.2,0-3.9-0.6-5.2-1.8s-1.8-2.8-1.8-5c0-2.2,0.6-4,1.7-5.2s2.8-1.8,4.9-1.8c2,0,3.5,0.5,4.6,1.6
		s1.6,2.5,1.6,4.5v2H79c0,0.7,0.3,1.3,0.8,1.7s1.2,0.6,2.1,0.6c0.8,0,1.5-0.1,2.2-0.2s1.4-0.4,2.2-0.8v3.3c-0.7,0.4-1.5,0.6-2.2,0.8
		S82.5,157.5,81.4,157.5z M81.1,146.8c-0.5,0-1,0.2-1.4,0.5s-0.6,0.9-0.6,1.6h3.9c0-0.6-0.2-1.2-0.5-1.5S81.7,146.8,81.1,146.8z"/>
	<path class="st0" d="M95.4,157.5c-2.2,0-3.8-0.6-4.9-1.8s-1.7-2.9-1.7-5.1c0-2.2,0.6-3.9,1.8-5.1s2.9-1.8,5.2-1.8
		c1.5,0,3,0.3,4.3,1l-1.3,3.4c-0.6-0.2-1.1-0.4-1.5-0.6s-1-0.2-1.5-0.2c-0.7,0-1.3,0.3-1.7,0.9s-0.6,1.4-0.6,2.4
		c0,2.1,0.8,3.2,2.4,3.2c1.3,0,2.6-0.4,3.9-1.2v3.6C98.5,157.1,97,157.5,95.4,157.5z"/>
	<path class="st0" d="M108.3,153.8c0.6,0,1.4-0.2,2.2-0.5v3.3c-0.6,0.3-1.2,0.5-1.8,0.6s-1.2,0.2-2,0.2c-1.5,0-2.6-0.4-3.3-1.1
		s-1-1.9-1-3.5v-5.5h-1.6v-1.9l2-1.4l1.2-2.8h3v2.7h3.3v3.4h-3.3v5.2C107.1,153.4,107.5,153.8,108.3,153.8z"/>
	<path class="st0" d="M116.5,144h4.8l2.2,7.6c0.1,0.4,0.2,0.9,0.2,1.4h0.1c0.1-0.5,0.2-1,0.3-1.4l2.3-7.6h4.7l-5.2,14.1
		c-0.7,1.8-1.5,3.1-2.5,3.8s-2.3,1.1-3.8,1.1c-0.6,0-1.2-0.1-1.9-0.2v-3.6c0.4,0.1,0.9,0.1,1.4,0.1c0.4,0,0.8-0.1,1.1-0.2
		s0.6-0.4,0.8-0.7s0.5-0.8,0.7-1.4L116.5,144z"/>
	<path class="st0" d="M145,150.6c0,2.2-0.6,3.9-1.8,5.1s-2.8,1.8-4.9,1.8c-2,0-3.6-0.6-4.8-1.9s-1.8-2.9-1.8-5c0-2.2,0.6-3.8,1.8-5
		s2.8-1.8,4.9-1.8c1.3,0,2.5,0.3,3.5,0.8s1.8,1.3,2.3,2.4S145,149.2,145,150.6z M136.4,150.6c0,1.1,0.2,2,0.5,2.6s0.8,0.9,1.5,0.9
		c0.7,0,1.2-0.3,1.5-0.9s0.4-1.5,0.4-2.6c0-1.1-0.1-2-0.4-2.6s-0.8-0.9-1.5-0.9c-0.7,0-1.2,0.3-1.5,0.9S136.4,149.4,136.4,150.6z"/>
	<path class="st0" d="M156.6,157.2l-0.6-1.7h-0.3c-0.4,0.6-0.9,1.1-1.6,1.4s-1.5,0.5-2.4,0.5c-1.5,0-2.6-0.4-3.4-1.3s-1.2-2-1.2-3.6
		V144h4.6v7.3c0,0.9,0.1,1.5,0.4,2s0.7,0.7,1.2,0.7c0.8,0,1.4-0.3,1.7-0.9s0.5-1.7,0.5-3.1V144h4.6v13.3H156.6z"/>
	<path class="st0" d="M170.8,143.7c0.4,0,0.8,0,1.1,0.1l0.3,0l-0.4,4.3c-0.4-0.1-0.9-0.1-1.6-0.1c-1,0-1.7,0.2-2.2,0.7
		s-0.7,1.1-0.7,2v6.5h-4.6V144h3.4l0.7,2.1h0.2c0.4-0.7,0.9-1.3,1.6-1.7S170.1,143.7,170.8,143.7z"/>
</g>
<g>
	<path class="st0" d="M32,173.4h-2.8v9.8h-4.6v-9.8h-1.8v-2.2l1.9-1.1v-0.2c0-1.8,0.4-3,1.1-3.8s1.9-1.1,3.4-1.1
		c0.6,0,1.2,0,1.7,0.1s1.2,0.3,1.9,0.5l-1,3c-0.6-0.2-1.1-0.2-1.7-0.2c-0.4,0-0.6,0.1-0.8,0.3s-0.2,0.6-0.2,1v0.4H32V173.4z"/>
	<path class="st0" d="M41.9,183.2l-0.9-1.8H41c-0.6,0.8-1.2,1.3-1.9,1.6s-1.5,0.4-2.5,0.4c-1.2,0-2.2-0.4-3-1.1s-1.1-1.8-1.1-3.2
		c0-1.4,0.5-2.5,1.5-3.2s2.4-1.1,4.3-1.2l2.2-0.1v-0.2c0-1.1-0.5-1.6-1.6-1.6c-1,0-2.2,0.3-3.7,1l-1.3-3c1.5-0.8,3.5-1.2,5.9-1.2
		c1.7,0,3,0.4,4,1.3s1.4,2,1.4,3.5v8.7H41.9z M38.5,180.2c0.6,0,1-0.2,1.4-0.5s0.6-0.8,0.6-1.4v-1l-1.1,0c-1.5,0.1-2.3,0.6-2.3,1.7
		C37.2,179.8,37.7,180.2,38.5,180.2z"/>
	<path class="st0" d="M64.1,183.2V176c0-0.9-0.1-1.6-0.4-2s-0.6-0.7-1.2-0.7c-0.7,0-1.2,0.3-1.5,0.9s-0.5,1.5-0.5,2.8v6.2h-4.6V176
		c0-0.9-0.1-1.6-0.4-2s-0.6-0.7-1.1-0.7c-0.7,0-1.2,0.3-1.6,1s-0.5,1.7-0.5,3.1v5.8h-4.6v-13.3h3.5l0.6,1.6h0.3
		c0.4-0.6,0.9-1.1,1.5-1.4s1.4-0.5,2.3-0.5c1.9,0,3.3,0.6,4,1.7h0.4c0.4-0.5,0.9-1,1.6-1.3s1.4-0.5,2.2-0.5c1.6,0,2.7,0.4,3.5,1.2
		s1.1,2,1.1,3.7v8.6H64.1z"/>
	<path class="st0" d="M71.2,166.6c0-0.7,0.2-1.2,0.6-1.5s1-0.5,1.9-0.5s1.5,0.2,1.9,0.5s0.6,0.9,0.6,1.5c0,1.3-0.8,2-2.4,2
		C72,168.7,71.2,168,71.2,166.6z M75.9,183.2h-4.6v-13.3h4.6V183.2z"/>
	<path class="st0" d="M83.2,183.2h-4.6V165h4.6V183.2z"/>
	<path class="st0" d="M84.3,169.9h4.8l2.2,7.6c0.1,0.4,0.2,0.9,0.2,1.4h0.1c0.1-0.5,0.2-1,0.3-1.4l2.3-7.6H99l-5.2,14.1
		c-0.7,1.8-1.5,3.1-2.5,3.8S89,189,87.4,189c-0.6,0-1.2-0.1-1.9-0.2v-3.6c0.4,0.1,0.9,0.1,1.4,0.1c0.4,0,0.8-0.1,1.1-0.2
		s0.6-0.4,0.8-0.7s0.5-0.8,0.7-1.4L84.3,169.9z"/>
	<path class="st0" d="M99.5,181.3c0-0.7,0.2-1.3,0.6-1.7s1-0.6,1.9-0.6c0.8,0,1.4,0.2,1.8,0.6s0.6,0.9,0.6,1.7
		c0,0.7-0.2,1.3-0.6,1.6s-1,0.6-1.8,0.6c-0.8,0-1.4-0.2-1.8-0.6S99.5,182,99.5,181.3z"/>
</g>
</svg>
