<?xml version="1.0" encoding="utf-8"?>
<!-- Generator: Adobe Illustrator 22.1.0, SVG Export Plug-In . SVG Version: 6.00 Build 0)  -->
<svg version="1.1" id="Layer_1" xmlns="http://www.w3.org/2000/svg" xmlns:xlink="http://www.w3.org/1999/xlink" x="0px" y="0px"
	 viewBox="0 0 300 250" style="enable-background:new 0 0 300 250;" xml:space="preserve">
<style type="text/css">
	.st0{fill:#FFFFFF;}
</style>
<g>
	<path class="st0" d="M38.8,131.2h-4.7v-7h-5.4v7h-4.7v-17.1h4.7v6.4h5.4v-6.4h4.7V131.2z"/>
	<path class="st0" d="M54.5,124.6c0,2.2-0.6,3.9-1.8,5.1s-2.8,1.8-4.9,1.8c-2,0-3.6-0.6-4.8-1.9s-1.8-2.9-1.8-5c0-2.2,0.6-3.8,1.8-5
		s2.8-1.8,4.9-1.8c1.3,0,2.5,0.3,3.5,0.8s1.8,1.3,2.3,2.4S54.5,123.2,54.5,124.6z M45.9,124.6c0,1.1,0.2,2,0.5,2.6s0.8,0.9,1.5,0.9
		c0.7,0,1.2-0.3,1.5-0.9s0.4-1.5,0.4-2.6c0-1.1-0.1-2-0.4-2.6s-0.8-0.9-1.5-0.9c-0.7,0-1.2,0.3-1.5,0.9S45.9,123.4,45.9,124.6z"/>
	<path class="st0" d="M65,131.2V124c0-0.9-0.1-1.5-0.4-2s-0.7-0.7-1.2-0.7c-0.8,0-1.3,0.3-1.7,0.9s-0.5,1.7-0.5,3.2v5.8h-4.6V118H60
		l0.6,1.6h0.3c0.4-0.6,0.9-1.1,1.6-1.4s1.5-0.5,2.4-0.5c1.5,0,2.6,0.4,3.4,1.3s1.2,2.1,1.2,3.6v8.6H65z"/>
	<path class="st0" d="M84.9,124.6c0,2.2-0.6,3.9-1.8,5.1s-2.8,1.8-4.9,1.8c-2,0-3.6-0.6-4.8-1.9s-1.8-2.9-1.8-5c0-2.2,0.6-3.8,1.8-5
		s2.8-1.8,4.9-1.8c1.3,0,2.5,0.3,3.5,0.8s1.8,1.3,2.3,2.4S84.9,123.2,84.9,124.6z M76.3,124.6c0,1.1,0.2,2,0.5,2.6s0.8,0.9,1.5,0.9
		c0.7,0,1.2-0.3,1.5-0.9s0.4-1.5,0.4-2.6c0-1.1-0.1-2-0.4-2.6s-0.8-0.9-1.5-0.9c-0.7,0-1.2,0.3-1.5,0.9S76.3,123.4,76.3,124.6z"/>
	<path class="st0" d="M95,117.7c0.4,0,0.8,0,1.1,0.1l0.3,0l-0.4,4.3c-0.4-0.1-0.9-0.1-1.6-0.1c-1,0-1.7,0.2-2.2,0.7s-0.7,1.1-0.7,2
		v6.5H87V118h3.4l0.7,2.1h0.2c0.4-0.7,0.9-1.3,1.6-1.7S94.3,117.7,95,117.7z"/>
	<path class="st0" d="M97.7,114.7c0-0.7,0.2-1.2,0.6-1.5s1-0.5,1.9-0.5s1.5,0.2,1.9,0.5s0.6,0.9,0.6,1.5c0,1.3-0.8,2-2.4,2
		C98.5,116.7,97.7,116,97.7,114.7z M102.4,131.2h-4.6V118h4.6V131.2z"/>
	<path class="st0" d="M113.5,131.2V124c0-0.9-0.1-1.5-0.4-2s-0.7-0.7-1.2-0.7c-0.8,0-1.3,0.3-1.7,0.9s-0.5,1.7-0.5,3.2v5.8h-4.6V118
		h3.5l0.6,1.6h0.3c0.4-0.6,0.9-1.1,1.6-1.4s1.5-0.5,2.4-0.5c1.5,0,2.6,0.4,3.4,1.3s1.2,2.1,1.2,3.6v8.6H113.5z"/>
	<path class="st0" d="M133.3,118v2.2l-1.8,0.7c0.2,0.5,0.4,1,0.4,1.6c0,1.4-0.5,2.5-1.5,3.3s-2.5,1.2-4.5,1.2c-0.5,0-0.9,0-1.2-0.1
		c-0.1,0.2-0.2,0.4-0.2,0.6c0,0.2,0.2,0.4,0.6,0.5s0.8,0.2,1.4,0.2h2.2c3,0,4.5,1.3,4.5,3.8c0,1.6-0.7,2.9-2.1,3.8s-3.3,1.3-5.8,1.3
		c-1.9,0-3.3-0.3-4.4-0.9s-1.5-1.5-1.5-2.7c0-1.6,1-2.6,3-3.1c-0.4-0.2-0.8-0.4-1.1-0.8s-0.5-0.8-0.5-1.1c0-0.4,0.1-0.8,0.3-1.1
		s0.7-0.7,1.4-1.1c-0.7-0.3-1.2-0.8-1.6-1.4s-0.6-1.4-0.6-2.4c0-1.4,0.5-2.6,1.5-3.4s2.4-1.2,4.2-1.2c0.2,0,0.7,0,1.3,0.1
		s1,0.1,1.3,0.2H133.3z M123.3,132.9c0,0.4,0.2,0.7,0.6,0.9s0.9,0.3,1.6,0.3c1.1,0,2-0.1,2.7-0.4s1-0.6,1-1.1c0-0.4-0.2-0.6-0.6-0.7
		s-1-0.2-1.7-0.2H125c-0.5,0-0.9,0.1-1.2,0.3S123.3,132.6,123.3,132.9z M124.7,122.3c0,1.4,0.5,2,1.4,2c0.4,0,0.8-0.2,1-0.5
		s0.4-0.8,0.4-1.5c0-1.4-0.5-2.1-1.4-2.1C125.2,120.3,124.7,120.9,124.7,122.3z"/>
	<path class="st0" d="M147.1,127.9c0.6,0,1.4-0.2,2.2-0.5v3.3c-0.6,0.3-1.2,0.5-1.8,0.6s-1.2,0.2-2,0.2c-1.5,0-2.6-0.4-3.3-1.1
		s-1-1.9-1-3.5v-5.5h-1.6v-1.9l2-1.4l1.2-2.8h3v2.7h3.3v3.4h-3.3v5.2C145.9,127.4,146.3,127.9,147.1,127.9z"/>
	<path class="st0" d="M159.6,131.2V124c0-1.8-0.5-2.7-1.6-2.7c-0.8,0-1.3,0.3-1.7,0.9s-0.5,1.7-0.5,3.1v5.8h-4.6V113h4.6v2.6
		c0,1.2-0.1,2.5-0.2,4h0.2c0.4-0.7,1-1.2,1.6-1.5s1.3-0.4,2.1-0.4c1.5,0,2.6,0.4,3.5,1.3s1.2,2.1,1.2,3.6v8.6H159.6z"/>
	<path class="st0" d="M173.2,131.5c-2.2,0-3.9-0.6-5.2-1.8s-1.8-2.8-1.8-5c0-2.2,0.6-4,1.7-5.2s2.8-1.8,4.9-1.8c2,0,3.5,0.5,4.6,1.6
		s1.6,2.5,1.6,4.5v2h-8.2c0,0.7,0.3,1.3,0.8,1.7s1.2,0.6,2.1,0.6c0.8,0,1.5-0.1,2.2-0.2s1.4-0.4,2.2-0.8v3.3
		c-0.7,0.4-1.5,0.6-2.2,0.8S174.3,131.5,173.2,131.5z M173,120.8c-0.5,0-1,0.2-1.4,0.5s-0.6,0.9-0.6,1.6h3.9c0-0.6-0.2-1.2-0.5-1.5
		S173.5,120.8,173,120.8z"/>
	<path class="st0" d="M195.1,117.7c1.4,0,2.6,0.6,3.4,1.8s1.3,2.9,1.3,5c0,2.2-0.4,3.8-1.3,5.1s-2,1.8-3.6,1.8
		c-0.5,0-0.9-0.1-1.3-0.2s-0.7-0.3-1-0.4s-0.7-0.5-1-0.9h-0.3l-0.7,1.3H187V113h4.6v4.1c0,0.5-0.1,1.3-0.2,2.5h0.2
		c0.4-0.7,1-1.2,1.5-1.5S194.3,117.7,195.1,117.7z M193.4,121.3c-0.6,0-1.1,0.2-1.4,0.7s-0.4,1.1-0.4,2.1v0.6c0,1.1,0.1,1.9,0.4,2.3
		s0.8,0.7,1.5,0.7c0.5,0,1-0.3,1.2-0.8s0.4-1.4,0.4-2.4C195.1,122.4,194.5,121.3,193.4,121.3z"/>
	<path class="st0" d="M201.8,114.7c0-0.7,0.2-1.2,0.6-1.5s1-0.5,1.9-0.5s1.5,0.2,1.9,0.5s0.6,0.9,0.6,1.5c0,1.3-0.8,2-2.4,2
		C202.6,116.7,201.8,116,201.8,114.7z M206.5,131.2h-4.6V118h4.6V131.2z"/>
	<path class="st0" d="M217.3,117.7c0.4,0,0.8,0,1.1,0.1l0.3,0l-0.4,4.3c-0.4-0.1-0.9-0.1-1.6-0.1c-1,0-1.7,0.2-2.2,0.7
		s-0.7,1.1-0.7,2v6.5h-4.6V118h3.4l0.7,2.1h0.2c0.4-0.7,0.9-1.3,1.6-1.7S216.6,117.7,217.3,117.7z"/>
	<path class="st0" d="M226.5,127.9c0.6,0,1.4-0.2,2.2-0.5v3.3c-0.6,0.3-1.2,0.5-1.8,0.6s-1.2,0.2-2,0.2c-1.5,0-2.6-0.4-3.3-1.1
		s-1-1.9-1-3.5v-5.5h-1.6v-1.9l2-1.4l1.2-2.8h3v2.7h3.3v3.4h-3.3v5.2C225.3,127.4,225.7,127.9,226.5,127.9z"/>
	<path class="st0" d="M239,131.2V124c0-1.8-0.5-2.7-1.6-2.7c-0.8,0-1.3,0.3-1.7,0.9s-0.5,1.7-0.5,3.1v5.8h-4.6V113h4.6v2.6
		c0,1.2-0.1,2.5-0.2,4h0.2c0.4-0.7,1-1.2,1.6-1.5s1.3-0.4,2.1-0.4c1.5,0,2.6,0.4,3.5,1.3s1.2,2.1,1.2,3.6v8.6H239z"/>
</g>
<g>
	<path class="st0" d="M36.5,150.6c0,2.2-0.6,3.9-1.8,5.1s-2.8,1.8-4.9,1.8c-2,0-3.6-0.6-4.8-1.9s-1.8-2.9-1.8-5c0-2.2,0.6-3.8,1.8-5
		s2.8-1.8,4.9-1.8c1.3,0,2.5,0.3,3.5,0.8s1.8,1.3,2.3,2.4S36.5,149.2,36.5,150.6z M27.9,150.6c0,1.1,0.2,2,0.5,2.6s0.8,0.9,1.5,0.9
		c0.7,0,1.2-0.3,1.5-0.9s0.4-1.5,0.4-2.6c0-1.1-0.1-2-0.4-2.6s-0.8-0.9-1.5-0.9c-0.7,0-1.2,0.3-1.5,0.9S27.9,149.4,27.9,150.6z"/>
	<path class="st0" d="M46.8,147.4H44v9.8h-4.6v-9.8h-1.8v-2.2l1.9-1.1v-0.2c0-1.8,0.4-3,1.1-3.8s1.9-1.1,3.4-1.1
		c0.6,0,1.2,0,1.7,0.1s1.2,0.3,1.9,0.5l-1,3c-0.6-0.2-1.1-0.2-1.7-0.2c-0.4,0-0.6,0.1-0.8,0.3s-0.2,0.6-0.2,1v0.4h2.8V147.4z"/>
	<path class="st0" d="M60.4,153.8c0.6,0,1.4-0.2,2.2-0.5v3.3c-0.6,0.3-1.2,0.5-1.8,0.6s-1.2,0.2-2,0.2c-1.5,0-2.6-0.4-3.3-1.1
		s-1-1.9-1-3.5v-5.5h-1.6v-1.9l2-1.4l1.2-2.8h3v2.7h3.3v3.4h-3.3v5.2C59.2,153.4,59.6,153.8,60.4,153.8z"/>
	<path class="st0" d="M72.8,157.2V150c0-1.8-0.5-2.7-1.6-2.7c-0.8,0-1.3,0.3-1.7,0.9s-0.5,1.7-0.5,3.1v5.8h-4.6V139h4.6v2.6
		c0,1.2-0.1,2.5-0.2,4h0.2c0.4-0.7,1-1.2,1.6-1.5s1.3-0.4,2.1-0.4c1.5,0,2.6,0.4,3.5,1.3s1.2,2.1,1.2,3.6v8.6H72.8z"/>
	<path class="st0" d="M86.5,157.5c-2.2,0-3.9-0.6-5.2-1.8s-1.8-2.8-1.8-5c0-2.2,0.6-4,1.7-5.2s2.8-1.8,4.9-1.8c2,0,3.5,0.5,4.6,1.6
		s1.6,2.5,1.6,4.5v2h-8.2c0,0.7,0.3,1.3,0.8,1.7s1.2,0.6,2.1,0.6c0.8,0,1.5-0.1,2.2-0.2s1.4-0.4,2.2-0.8v3.3
		c-0.7,0.4-1.5,0.6-2.2,0.8S87.6,157.5,86.5,157.5z M86.2,146.8c-0.5,0-1,0.2-1.4,0.5s-0.6,0.9-0.6,1.6h3.9c0-0.6-0.2-1.2-0.5-1.5
		S86.8,146.8,86.2,146.8z"/>
	<path class="st0" d="M115.1,140.1v10.3c0,2.2-0.6,4-1.9,5.2s-3.1,1.8-5.5,1.8c-2.3,0-4.1-0.6-5.4-1.8s-1.9-2.9-1.9-5.2v-10.4h4.7
		v10.1c0,1.2,0.2,2.1,0.7,2.6s1.1,0.8,2,0.8c0.9,0,1.6-0.3,2.1-0.8s0.6-1.4,0.6-2.7v-10H115.1z"/>
	<path class="st0" d="M117.4,155.3c0-0.7,0.2-1.3,0.6-1.7s1-0.6,1.9-0.6c0.8,0,1.4,0.2,1.8,0.6s0.6,0.9,0.6,1.7
		c0,0.7-0.2,1.3-0.6,1.6s-1,0.6-1.8,0.6c-0.8,0-1.4-0.2-1.8-0.6S117.4,156,117.4,155.3z"/>
	<path class="st0" d="M135.9,152c0,1.1-0.3,2-0.8,2.8s-1.3,1.5-2.3,1.9s-2.2,0.7-3.6,0.7c-1.1,0-2.1-0.1-2.9-0.2s-1.6-0.4-2.4-0.8
		v-4.1c0.9,0.5,1.8,0.8,2.8,1.1s1.8,0.4,2.6,0.4c0.7,0,1.2-0.1,1.5-0.4s0.5-0.5,0.5-0.9c0-0.2-0.1-0.4-0.2-0.6s-0.3-0.4-0.6-0.5
		s-1-0.5-2.3-1.1c-1.1-0.5-2-1-2.5-1.5s-1-1-1.2-1.6s-0.4-1.3-0.4-2.2c0-1.6,0.6-2.8,1.7-3.7s2.7-1.3,4.7-1.3c1.8,0,3.6,0.4,5.4,1.2
		l-1.4,3.6c-1.6-0.7-3-1.1-4.1-1.1c-0.6,0-1,0.1-1.3,0.3s-0.4,0.5-0.4,0.8c0,0.3,0.2,0.6,0.5,0.9s1.3,0.8,2.8,1.5
		c1.5,0.7,2.5,1.4,3.1,2.1S135.9,150.9,135.9,152z"/>
	<path class="st0" d="M137.2,155.3c0-0.7,0.2-1.3,0.6-1.7s1-0.6,1.9-0.6c0.8,0,1.4,0.2,1.8,0.6s0.6,0.9,0.6,1.7
		c0,0.7-0.2,1.3-0.6,1.6s-1,0.6-1.8,0.6c-0.8,0-1.4-0.2-1.8-0.6S137.2,156,137.2,155.3z"/>
	<path class="st0" d="M160.8,157.2l-0.8-3.2h-5.6l-0.9,3.2h-5.1L154,140h6.2l5.7,17.2H160.8z M159,150.2l-0.7-2.8
		c-0.2-0.6-0.4-1.4-0.6-2.4s-0.4-1.7-0.5-2.1c-0.1,0.4-0.2,1.1-0.4,2s-0.7,2.7-1.4,5.4H159z"/>
	<path class="st0" d="M175,143.7c0.4,0,0.8,0,1.1,0.1l0.3,0l-0.4,4.3c-0.4-0.1-0.9-0.1-1.6-0.1c-1,0-1.7,0.2-2.2,0.7s-0.7,1.1-0.7,2
		v6.5H167V144h3.4l0.7,2.1h0.2c0.4-0.7,0.9-1.3,1.6-1.7S174.3,143.7,175,143.7z"/>
	<path class="st0" d="M194,157.2V150c0-0.9-0.1-1.6-0.4-2s-0.6-0.7-1.2-0.7c-0.7,0-1.2,0.3-1.5,0.9s-0.5,1.5-0.5,2.8v6.2h-4.6V150
		c0-0.9-0.1-1.6-0.4-2s-0.6-0.7-1.1-0.7c-0.7,0-1.2,0.3-1.6,1s-0.5,1.7-0.5,3.1v5.8h-4.6V144h3.5l0.6,1.6h0.3
		c0.4-0.6,0.9-1.1,1.5-1.4s1.4-0.5,2.3-0.5c1.9,0,3.3,0.6,4,1.7h0.4c0.4-0.5,0.9-1,1.6-1.3s1.4-0.5,2.2-0.5c1.6,0,2.7,0.4,3.5,1.2
		s1.1,2,1.1,3.7v8.6H194z"/>
	<path class="st0" d="M199.7,144h4.8l2.2,7.6c0.1,0.4,0.2,0.9,0.2,1.4h0.1c0.1-0.5,0.2-1,0.3-1.4l2.3-7.6h4.7l-5.2,14.1
		c-0.7,1.8-1.5,3.1-2.5,3.8s-2.3,1.1-3.8,1.1c-0.6,0-1.2-0.1-1.9-0.2v-3.6c0.4,0.1,0.9,0.1,1.4,0.1c0.4,0,0.8-0.1,1.1-0.2
		s0.6-0.4,0.8-0.7s0.5-0.8,0.7-1.4L199.7,144z"/>
	<path class="st0" d="M214.9,155.3c0-0.7,0.2-1.3,0.6-1.7s1-0.6,1.9-0.6c0.8,0,1.4,0.2,1.8,0.6s0.6,0.9,0.6,1.7
		c0,0.7-0.2,1.3-0.6,1.6s-1,0.6-1.8,0.6c-0.8,0-1.4-0.2-1.8-0.6S214.9,156,214.9,155.3z"/>
</g>
<g>
	<path class="st0" d="M34.3,195.2H24.1v-17.1h10.2v3.7h-5.5v2.7h5.1v3.7h-5.1v3.2h5.5V195.2z"/>
	<path class="st0" d="M46.8,191.1c0,1.4-0.5,2.5-1.5,3.2s-2.4,1.1-4.2,1.1c-1,0-1.8-0.1-2.6-0.2s-1.5-0.3-2.2-0.6v-3.7
		c0.7,0.3,1.5,0.6,2.3,0.8s1.6,0.3,2.3,0.3c1,0,1.5-0.2,1.5-0.7c0-0.2-0.1-0.4-0.4-0.6s-1.1-0.5-2.4-1.1c-1.2-0.5-2.1-1.1-2.6-1.7
		s-0.7-1.4-0.7-2.4c0-1.2,0.5-2.2,1.4-2.9s2.3-1,4-1c0.9,0,1.7,0.1,2.5,0.3s1.6,0.5,2.4,0.8l-1.2,3c-0.6-0.3-1.3-0.5-1.9-0.7
		s-1.2-0.3-1.7-0.3c-0.8,0-1.1,0.2-1.1,0.6c0,0.2,0.1,0.4,0.4,0.6s1,0.5,2.3,1c0.9,0.4,1.6,0.8,2.1,1.1s0.8,0.8,1,1.3
		S46.8,190.4,46.8,191.1z"/>
	<path class="st0" d="M55.4,191.8c0.6,0,1.4-0.2,2.2-0.5v3.3c-0.6,0.3-1.2,0.5-1.8,0.6s-1.2,0.2-2,0.2c-1.5,0-2.6-0.4-3.3-1.1
		s-1-1.9-1-3.5v-5.5h-1.6v-1.9l2-1.4l1.2-2.8h3v2.7h3.3v3.4h-3.3v5.2C54.2,191.4,54.6,191.8,55.4,191.8z"/>
	<path class="st0" d="M68.1,195.2l-0.9-1.8h-0.1c-0.6,0.8-1.2,1.3-1.9,1.6s-1.5,0.4-2.5,0.4c-1.2,0-2.2-0.4-3-1.1s-1.1-1.8-1.1-3.2
		c0-1.4,0.5-2.5,1.5-3.2s2.4-1.1,4.3-1.2l2.2-0.1v-0.2c0-1.1-0.5-1.6-1.6-1.6c-1,0-2.2,0.3-3.7,1l-1.3-3c1.5-0.8,3.5-1.2,5.9-1.2
		c1.7,0,3,0.4,4,1.3s1.4,2,1.4,3.5v8.7H68.1z M64.7,192.2c0.6,0,1-0.2,1.4-0.5s0.6-0.8,0.6-1.4v-1l-1.1,0c-1.5,0.1-2.3,0.6-2.3,1.7
		C63.4,191.8,63.9,192.2,64.7,192.2z"/>
	<path class="st0" d="M82.1,181.7c1.4,0,2.6,0.6,3.4,1.8s1.3,2.9,1.3,5c0,2.2-0.4,3.8-1.3,5.1s-2,1.8-3.6,1.8
		c-0.5,0-0.9-0.1-1.3-0.2s-0.7-0.3-1-0.4s-0.7-0.5-1-0.9h-0.3l-0.7,1.3H74V177h4.6v4.1c0,0.5-0.1,1.3-0.2,2.5h0.2
		c0.4-0.7,1-1.2,1.5-1.5S81.3,181.7,82.1,181.7z M80.4,185.3c-0.6,0-1.1,0.2-1.4,0.7s-0.4,1.1-0.4,2.1v0.6c0,1.1,0.1,1.9,0.4,2.3
		s0.8,0.7,1.5,0.7c0.5,0,1-0.3,1.2-0.8s0.4-1.4,0.4-2.4C82.1,186.4,81.5,185.3,80.4,185.3z"/>
	<path class="st0" d="M93.5,195.2h-4.6V177h4.6V195.2z"/>
	<path class="st0" d="M96.1,178.6c0-0.7,0.2-1.2,0.6-1.5s1-0.5,1.9-0.5s1.5,0.2,1.9,0.5s0.6,0.9,0.6,1.5c0,1.3-0.8,2-2.4,2
		C96.9,180.7,96.1,180,96.1,178.6z M100.8,195.2h-4.6v-13.3h4.6V195.2z"/>
	<path class="st0" d="M113.8,191.1c0,1.4-0.5,2.5-1.5,3.2s-2.4,1.1-4.2,1.1c-1,0-1.8-0.1-2.6-0.2s-1.5-0.3-2.2-0.6v-3.7
		c0.7,0.3,1.5,0.6,2.3,0.8s1.6,0.3,2.3,0.3c1,0,1.5-0.2,1.5-0.7c0-0.2-0.1-0.4-0.4-0.6s-1.1-0.5-2.4-1.1c-1.2-0.5-2.1-1.1-2.6-1.7
		s-0.7-1.4-0.7-2.4c0-1.2,0.5-2.2,1.4-2.9s2.3-1,4-1c0.9,0,1.7,0.1,2.5,0.3s1.6,0.5,2.4,0.8l-1.2,3c-0.6-0.3-1.3-0.5-1.9-0.7
		s-1.2-0.3-1.7-0.3c-0.8,0-1.1,0.2-1.1,0.6c0,0.2,0.1,0.4,0.4,0.6s1,0.5,2.3,1c0.9,0.4,1.6,0.8,2.1,1.1s0.8,0.8,1,1.3
		S113.8,190.4,113.8,191.1z"/>
	<path class="st0" d="M124.2,195.2V188c0-1.8-0.5-2.7-1.6-2.7c-0.8,0-1.3,0.3-1.7,0.9s-0.5,1.7-0.5,3.1v5.8h-4.6V177h4.6v2.6
		c0,1.2-0.1,2.5-0.2,4h0.2c0.4-0.7,1-1.2,1.6-1.5s1.3-0.4,2.1-0.4c1.5,0,2.6,0.4,3.5,1.3s1.2,2.1,1.2,3.6v8.6H124.2z"/>
	<path class="st0" d="M137.9,195.5c-2.2,0-3.9-0.6-5.2-1.8s-1.8-2.8-1.8-5c0-2.2,0.6-4,1.7-5.2s2.8-1.8,4.9-1.8c2,0,3.5,0.5,4.6,1.6
		s1.6,2.5,1.6,4.5v2h-8.2c0,0.7,0.3,1.3,0.8,1.7s1.2,0.6,2.1,0.6c0.8,0,1.5-0.1,2.2-0.2s1.4-0.4,2.2-0.8v3.3
		c-0.7,0.4-1.5,0.6-2.2,0.8S138.9,195.5,137.9,195.5z M137.6,184.8c-0.5,0-1,0.2-1.4,0.5s-0.6,0.9-0.6,1.6h3.9
		c0-0.6-0.2-1.2-0.5-1.5S138.2,184.8,137.6,184.8z"/>
	<path class="st0" d="M149.9,195.5c-0.9,0-1.8-0.3-2.5-0.8s-1.3-1.3-1.6-2.4s-0.6-2.3-0.6-3.7c0-2.2,0.4-3.8,1.3-5.1
		s2.1-1.8,3.6-1.8c0.7,0,1.4,0.1,2,0.4s1.1,0.8,1.5,1.5h0.1c-0.1-1-0.2-2.1-0.2-3.1V177h4.6v18.2h-3.5l-1-1.7h-0.2
		C152.7,194.8,151.5,195.5,149.9,195.5z M151.8,191.8c0.7,0,1.3-0.2,1.6-0.7s0.5-1.2,0.5-2.1v-0.4c0-1.2-0.2-2-0.5-2.5
		s-0.9-0.7-1.6-0.7c-0.6,0-1.1,0.3-1.4,0.8s-0.5,1.4-0.5,2.4c0,1,0.2,1.8,0.5,2.4S151.2,191.8,151.8,191.8z"/>
	<path class="st0" d="M176,195.2h-4.7v-9.1c0-1.1,0-2.1,0.1-3c-0.3,0.4-0.6,0.7-1.1,1.1l-1.9,1.6l-2.4-3l5.9-4.8h4.2V195.2z"/>
	<path class="st0" d="M181,195.2l5.9-13.3h-7.4v-3.8h12.4v2.7l-6,14.4H181z"/>
	<path class="st0" d="M194.6,195.2l5.9-13.3h-7.4v-3.8h12.4v2.7l-6,14.4H194.6z"/>
	<path class="st0" d="M213.6,184c1,0,1.9,0.2,2.7,0.7s1.4,1.1,1.9,1.9s0.7,1.8,0.7,2.9c0,1.9-0.6,3.4-1.7,4.4s-2.9,1.5-5.2,1.5
		c-2,0-3.6-0.3-4.9-0.9v-3.8c0.7,0.3,1.4,0.6,2.3,0.8s1.6,0.3,2.2,0.3c0.9,0,1.5-0.2,2-0.5s0.7-0.9,0.7-1.6c0-0.7-0.2-1.2-0.7-1.5
		s-1.2-0.6-2.1-0.6c-0.7,0-1.5,0.1-2.4,0.4l-1.7-0.8l0.6-9h9.8v3.9h-5.8l-0.2,2.3c0.6-0.1,1-0.2,1.3-0.2S213.3,184,213.6,184z"/>
	<path class="st0" d="M220.4,193.3c0-0.7,0.2-1.3,0.6-1.7s1-0.6,1.9-0.6c0.8,0,1.4,0.2,1.8,0.6s0.6,0.9,0.6,1.7
		c0,0.7-0.2,1.3-0.6,1.6s-1,0.6-1.8,0.6c-0.8,0-1.4-0.2-1.8-0.6S220.4,194,220.4,193.3z"/>
</g>
</svg>
