<?xml version="1.0" encoding="utf-8"?>
<!-- Generator: Adobe Illustrator 22.1.0, SVG Export Plug-In . SVG Version: 6.00 Build 0)  -->
<svg version="1.1" id="Layer_1" xmlns="http://www.w3.org/2000/svg" xmlns:xlink="http://www.w3.org/1999/xlink" x="0px" y="0px"
	 viewBox="0 0 300 250" style="enable-background:new 0 0 300 250;" xml:space="preserve">
<style type="text/css">
	.st0{fill:#FFFFFF;}
	.st1{fill:none;}
</style>
<polygon class="st0" points="246,140 266.9,140 272.3,155.8 269.8,155.8 265.3,142.4 245.3,142.3 "/>
<polygon class="st0" points="244.5,144.6 263.6,144.6 267.4,155.8 265,155.8 262,147 243.8,146.9 "/>
<polygon class="st0" points="243.2,149.5 236.9,168.8 238.8,170.3 244.5,151.6 258.8,151.6 259.6,149.5 "/>
<polygon class="st0" points="246.3,153.9 258,153.9 257.3,156.1 248,156.1 242.6,173.2 240.8,171.5 "/>
<polygon class="st0" points="245,174.8 261.8,186.5 263.5,185 247.5,173.8 251.7,160.4 249.7,158.9 "/>
<polygon class="st0" points="253.6,161.8 255.6,163 252.7,171.8 267.1,182.1 265.4,183.7 250.1,172.7 "/>
<polygon class="st0" points="269.3,178.2 257.5,170.3 255.9,171.4 269.2,181 286.1,168.7 286.1,168.7 285.2,166.5 "/>
<polygon class="st0" points="260,168.4 261.5,167.1 269.3,172.7 283.7,162.1 284.6,164.2 269.3,175.4 "/>
<polygon class="st0" points="269,167.3 269.8,169.5 283,159.9 276.3,140 274.1,140 280.5,158.9 "/>
<polygon class="st0" points="269.3,140 271.3,140 277.7,158.1 268.3,165.1 267.4,163.3 275.3,157.1 "/>
<polygon class="st0" points="243.7,112.9 242.2,115.5 240.6,112.9 238.7,112.9 238.7,119.5 240.5,119.5 240.5,115.7 242.1,118.3 
	242.2,118.3 243.8,115.7 243.8,119.5 245.6,119.5 245.6,112.9 "/>
<rect x="246.8" y="112.9" class="st0" width="1.8" height="6.5"/>
<polygon class="st0" points="249.9,112.9 249.9,119.5 254.8,119.5 254.8,117.9 251.7,117.9 251.7,112.9 "/>
<rect x="255.7" y="112.9" class="st0" width="1.8" height="6.5"/>
<polygon class="st0" points="258.3,112.9 258.3,114.5 260.3,114.5 260.3,119.5 262.1,119.5 262.1,114.5 264,114.5 264,112.9 "/>
<path class="st0" d="M267.1,115l0.7,1.9h-1.5L267.1,115z M266.3,112.9l-2.8,6.6h1.9l0.5-1.2h2.5l0.5,1.2h1.9l-2.8-6.6H266.3z"/>
<path class="st0" d="M271.4,112.9h3.1c1,0,1.7,0.3,2.1,0.7c0.4,0.4,0.6,0.9,0.6,1.5v0c0,1-0.5,1.7-1.3,2l1.6,2.3h-2.1l-1.3-2h0h-0.8
	v2h-1.8V112.9z M274.4,116.1c0.6,0,1-0.3,1-0.8v0c0-0.5-0.4-0.8-1-0.8h-1.2v1.6H274.4z"/>
<polygon class="st0" points="279.8,117 277.3,112.9 279.4,112.9 280.7,115.3 282.1,112.9 284.1,112.9 281.6,117 281.6,119.5 
	279.8,119.5 "/>
<path class="st0" d="M238.8,121.8h3.7c0.9,0,1.6,0.2,2,0.7c0.3,0.3,0.5,0.7,0.5,1.2v0c0,0.8-0.5,1.3-1.1,1.6
	c0.9,0.3,1.4,0.8,1.4,1.8v0c0,1.2-1,2-2.7,2h-3.7V121.8z M242,124.7c0.6,0,1-0.2,1-0.6v0c0-0.4-0.3-0.6-0.9-0.6h-1.3v1.3H242z
	 M242.3,127.4c0.6,0,1-0.2,1-0.7v0c0-0.4-0.3-0.7-1-0.7h-1.5v1.3H242.3z"/>
<polygon class="st0" points="246.2,121.8 252,121.8 252,123.5 248.1,123.5 248.1,124.6 251.6,124.6 251.6,126.2 248.1,126.2 
	248.1,127.3 252,127.3 252,129 246.2,129 "/>
<polygon class="st0" points="253.1,121.8 254.9,121.8 257.9,125.6 257.9,121.8 259.9,121.8 259.9,129 258.1,129 255,125.1 255,129 
	253.1,129 "/>
<polygon class="st0" points="261.2,121.8 267,121.8 267,123.5 263.2,123.5 263.2,124.6 266.6,124.6 266.6,126.2 263.2,126.2 
	263.2,127.3 267,127.3 267,129 261.2,129 "/>
<polygon class="st0" points="268.1,121.8 273.9,121.8 273.9,123.5 270.1,123.5 270.1,124.8 273.5,124.8 273.5,126.4 270.1,126.4 
	270.1,129 268.1,129 "/>
<rect x="274.8" y="121.8" class="st0" width="2" height="7.2"/>
<polygon class="st0" points="279.9,123.5 277.8,123.5 277.8,121.8 284.1,121.8 284.1,123.5 281.9,123.5 281.9,129 279.9,129 "/>
<path class="st0" d="M240,131.3h1.2l1.9,4.5h-1.3l-0.3-0.8h-1.7l-0.3,0.8h-1.3L240,131.3z M241.1,134.1l-0.5-1.3l-0.5,1.3H241.1z"/>
<path class="st0" d="M243.2,135.1l0.7-0.8c0.4,0.3,0.9,0.5,1.4,0.5c0.3,0,0.5-0.1,0.5-0.3v0c0-0.2-0.1-0.3-0.7-0.4
	c-0.9-0.2-1.7-0.5-1.7-1.4v0c0-0.8,0.7-1.4,1.7-1.4c0.8,0,1.3,0.2,1.8,0.6l-0.6,0.9c-0.4-0.3-0.9-0.4-1.2-0.4
	c-0.3,0-0.4,0.1-0.4,0.3v0c0,0.2,0.2,0.3,0.8,0.4c1,0.2,1.7,0.6,1.7,1.4v0c0,0.9-0.7,1.4-1.8,1.4
	C244.4,135.9,243.7,135.6,243.2,135.1"/>
<path class="st0" d="M247.2,135.1l0.7-0.8c0.4,0.3,0.9,0.5,1.4,0.5c0.3,0,0.5-0.1,0.5-0.3v0c0-0.2-0.1-0.3-0.7-0.4
	c-0.9-0.2-1.7-0.5-1.7-1.4v0c0-0.8,0.7-1.4,1.7-1.4c0.8,0,1.3,0.2,1.8,0.6l-0.6,0.9c-0.4-0.3-0.9-0.4-1.2-0.4
	c-0.3,0-0.4,0.1-0.4,0.3v0c0,0.2,0.2,0.3,0.8,0.4c1,0.2,1.7,0.6,1.7,1.4v0c0,0.9-0.7,1.4-1.8,1.4
	C248.5,135.9,247.8,135.6,247.2,135.1"/>
<path class="st0" d="M251.5,133.6L251.5,133.6c0-1.3,1-2.3,2.4-2.3c1.4,0,2.4,1,2.4,2.3v0c0,1.3-1,2.3-2.4,2.3
	C252.6,135.9,251.5,134.9,251.5,133.6 M255.1,133.6L255.1,133.6c0-0.7-0.5-1.2-1.1-1.2c-0.7,0-1.1,0.5-1.1,1.2v0
	c0,0.6,0.5,1.2,1.1,1.2C254.6,134.8,255.1,134.2,255.1,133.6"/>
<path class="st0" d="M256.8,133.6L256.8,133.6c0-1.3,1-2.3,2.3-2.3c0.9,0,1.5,0.4,1.9,0.9l-0.9,0.7c-0.3-0.3-0.5-0.5-1-0.5
	c-0.6,0-1.1,0.5-1.1,1.2v0c0,0.7,0.4,1.2,1.1,1.2c0.5,0,0.7-0.2,1-0.5l0.9,0.7c-0.4,0.6-1,1-2,1
	C257.8,135.9,256.8,134.9,256.8,133.6"/>
<rect x="261.6" y="131.4" class="st0" width="1.2" height="4.4"/>
<path class="st0" d="M265.2,131.3h1.2l1.9,4.5h-1.3l-0.3-0.8h-1.7l-0.3,0.8h-1.3L265.2,131.3z M266.3,134.1l-0.5-1.3l-0.5,1.3H266.3
	z"/>
<polygon class="st0" points="269.2,132.4 267.9,132.4 267.9,131.4 271.8,131.4 271.8,132.4 270.4,132.4 270.4,135.8 269.2,135.8 "/>
<rect x="272.3" y="131.4" class="st0" width="1.2" height="4.4"/>
<path class="st0" d="M274.2,133.6L274.2,133.6c0-1.3,1-2.3,2.4-2.3c1.4,0,2.4,1,2.4,2.3v0c0,1.3-1,2.3-2.4,2.3
	C275.2,135.9,274.2,134.9,274.2,133.6 M277.8,133.6L277.8,133.6c0-0.7-0.5-1.2-1.1-1.2c-0.7,0-1.1,0.5-1.1,1.2v0
	c0,0.6,0.5,1.2,1.1,1.2C277.3,134.8,277.8,134.2,277.8,133.6"/>
<polygon class="st0" points="279.7,131.4 280.8,131.4 282.6,133.7 282.6,131.4 283.8,131.4 283.8,135.8 282.8,135.8 280.9,133.4 
	280.9,135.8 279.7,135.8 "/>
<rect x="236.9" y="112.9" class="st1" width="49.2" height="73.6"/>
</svg>
